<?xml version="1.0" encoding="UTF-8"?>
<svg xmlns="http://www.w3.org/2000/svg" xmlns:xlink="http://www.w3.org/1999/xlink" version="1.2" >
<font id="CiscoSansTT Thin">
<font-face  font-family="CiscoSansTT" units-per-em="1000" ascent="905" descent="-212" font-style="normal" font-weight="250" font-stretch="normal" cap-height="720" x-height="520" underline-position="-48" underline-thickness="85" />
<missing-glyph  horiz-adv-x="300" d="M30 0 L30 667 L270 667 L270 0 L30 0 Z M240 30 L240 637 L60 637 L60 30 L240 30 Z " />
<glyph glyph-name="space" unicode="&#x20;" horiz-adv-x="300" d="" />
<glyph glyph-name="exclam" unicode="&#x21;" horiz-adv-x="253" d="M145 222 L103 222 L101 720 L147 720 L145 222 Z M157 0 L97 0 L97 69 L157 69 L157 0 Z " />
<glyph glyph-name="quotedbl" unicode="&#x22;" horiz-adv-x="400" d="M157 643 L150 490 L121 490 L112 643 L112 735 L157 735 L157 643 Z M290 643 L283 490 L254 490 L245 643 L245 735 L290 735 L290 643 Z " />
<glyph glyph-name="numbersign" unicode="&#x23;" horiz-adv-x="600" d="M72 463 L72 500 L164 500 L182 700 L223 700 L205 500 L422 500 L439 700 L479 700 L462 500 L548 500 L548 463 L458 463 L439 236 L529 236 L529 199 L435 199 L418 0 L378 0 L395 199 L178 199 L162 0 L121 0 L138 199 L52 199 L52 236 L141 236 L161 463 L72 463 Z M201 463 L182 236 L399 236 L418 463 L201 463 Z " />
<glyph glyph-name="dollar" unicode="&#x24;" horiz-adv-x="600" d="M285 -135 L285 -9 Q181 -4 114 51 Q54 100 38 182 L83 182 Q99 102 169 61 Q226 28 306 28 Q411 28 468 76 Q517 117 517 181 Q517 250 463 289 Q411 327 284 356 Q161 384 112 430 Q70 471 70 538 Q70 616 133 665 Q191 710 285 714 L285 830 L325 830 L325 714 Q423 709 489 658 Q547 612 563 541 L519 541 Q502 609 439 646 Q383 678 307 678 Q209 678 156 633 Q114 597 114 542 Q114 478 159 446 Q202 415 313 390 Q456 358 513 303 Q561 257 561 183 Q561 97 491 44 Q428 -5 325 -10 L325 -135 L285 -135 Z " />
<glyph glyph-name="percent" unicode="&#x25;" horiz-adv-x="825" d="M591 700 L272 0 L232 0 L551 700 L591 700 Z M218 715 Q292 715 337 667 Q380 622 380 546 Q380 460 326 414 Q282 377 218 377 Q144 377 99 425 Q57 470 57 546 Q57 632 111 678 Q154 715 218 715 Z M218 682 Q161 682 128 645 Q95 609 95 546 Q95 474 137 438 Q169 410 218 410 Q274 410 308 447 Q342 483 342 546 Q342 617 299 654 Q266 682 218 682 Z M607 323 Q681 323 726 275 Q769 230 769 154 Q769 68 715 22 Q671 -15 607 -15 Q533 -15 488 33 Q446 78 446 154 Q446 240 500 286 Q543 323 607 323 Z M607 291 Q550 291 517 254 Q484 218 484 154 Q484 82 526 46 Q558 18 607 18 Q664 18 697 55 Q731 91 731 154 Q731 226 689 263 Q656 291 607 291 Z " />
<glyph glyph-name="ampersand" unicode="&#x26;" horiz-adv-x="612" d="M532 335 L570 330 Q555 211 492 117 L601 9 L572 -15 L469 87 Q384 -15 255 -15 Q142 -15 83 39 Q34 85 34 158 Q34 220 69.5 266 Q105 312 192 364 L178 379 Q119 439 96 471 Q63 519 63 562 Q63 630 112 673 Q161 715 242 715 Q335 715 385 661 Q424 620 424 562 Q424 459 250 357 L465 144 Q519 225 532 335 Z M443 113 L218 339 Q142 293 111 255 Q77 213 77 162 Q77 91 132 53 Q179 20 259 20 Q367 20 443 113 Z M224 382 Q385 476 385 561 Q385 612 347 646 Q309 681 242 681 Q169 681 132 640 Q103 609 103 562 Q103 527 126.5 492 Q150 457 224 382 Z " />
<glyph glyph-name="quotesingle" unicode="&#x27;" horiz-adv-x="270" d="M157 643 L150 490 L121 490 L112 643 L112 735 L157 735 L157 643 Z " />
<glyph glyph-name="parenleft" unicode="&#x28;" horiz-adv-x="340" d="M250 810 L288 810 Q209 690 172 582 Q130 458 130 320 Q130 188 167.5 72 Q205 -44 288 -170 L250 -170 Q176 -73 134 49 Q88 180 88 320 Q88 478 146 624 Q187 727 250 810 Z " />
<glyph glyph-name="parenright" unicode="&#x29;" horiz-adv-x="340" d="M91 -170 L53 -170 Q132 -49 169 58 Q211 182 211 320 Q211 451 174 566.5 Q137 682 53 810 L91 810 Q165 713 207 591 Q253 460 253 320 Q253 162 195 16 Q154 -87 91 -170 Z " />
<glyph glyph-name="asterisk" unicode="&#x2a;" horiz-adv-x="470" d="M327 387 L235 528 L143 387 L111 412 L217 544 L53 588 L66 626 L223 566 L214 735 L255 735 L246 566 L404 626 L417 588 L252 544 L359 412 L327 387 Z " />
<glyph glyph-name="plus" unicode="&#x2b;" horiz-adv-x="600" d="M279 523 L320 523 L320 341 L501 341 L501 303 L320 303 L320 121 L279 121 L279 303 L99 303 L99 341 L279 341 L279 523 Z " />
<glyph glyph-name="comma" unicode="&#x2c;" horiz-adv-x="273" d="M169 68 L169 4 Q169 -110 73 -136 L73 -106 Q103 -94 116 -69 Q129 -44 129 0 L108 0 L108 68 L169 68 Z " />
<glyph glyph-name="hyphen" unicode="&#x2d;" horiz-adv-x="540" d="M441 341 L441 303 L99 303 L99 341 L441 341 Z " />
<glyph glyph-name="period" unicode="&#x2e;" horiz-adv-x="280" d="M170 0 L110 0 L110 69 L170 69 L170 0 Z " />
<glyph glyph-name="slash" unicode="&#x2f;" horiz-adv-x="345" d="M299 735 L86 -90 L46 -90 L259 735 L299 735 Z " />
<glyph glyph-name="zero" unicode="0" horiz-adv-x="600" d="M299 715 Q414 715 476 616 Q536 521 536 349 Q536 154 459 60 Q399 -15 299 -15 Q185 -15 123 84 Q63 178 63 349 Q63 544 139 639 Q200 715 299 715 Z M300 679 Q202 679 152 586 Q106 502 106 349 Q106 175 165 91 Q214 21 300 21 Q398 21 448 113 Q493 196 493 349 Q493 524 434 608 Q385 679 300 679 Z " />
<glyph glyph-name="one" unicode="1" horiz-adv-x="600" d="M364 0 L322 0 L322 655 L158 559 L158 604 L323 700 L364 700 L364 0 Z " />
<glyph glyph-name="two" unicode="2" horiz-adv-x="600" d="M118 535 L73 535 Q87 625 156 674 Q214 715 297 715 Q393 715 452 658 Q505 606 505 526 Q505 464 476 412 Q447 360 365 276 L132 39 L504 39 L504 0 L77 0 L77 39 L347 316 Q413 384 437 427 Q464 474 464 526 Q464 600 412 642 Q367 678 296 678 Q218 678 168 633 Q126 595 118 535 Z " />
<glyph glyph-name="three" unicode="3" horiz-adv-x="600" d="M104 546 L61 546 Q78 630 145 676 Q204 715 290 715 Q389 715 447 661 Q499 613 499 537 Q499 404 366 372 Q438 363 480 311 Q519 263 519 192 Q519 90 446 33 Q384 -15 287 -15 Q188 -15 124 35 Q66 80 52 155 L95 155 Q108 87 167 51 Q217 21 287 21 Q379 21 431 72 Q477 117 477 190 Q477 272 423 316 Q378 352 305 352 L229 352 L229 390 L301 390 Q378 390 421 435 Q458 473 458 533 Q458 605 404 645 Q359 679 288 679 Q209 679 159 640 Q117 605 104 546 Z " />
<glyph glyph-name="four" unicode="4" horiz-adv-x="600" d="M394 700 L439 700 L439 168 L546 168 L546 132 L439 132 L439 0 L397 0 L397 132 L72 132 L72 175 L394 700 Z M113 168 L397 168 L397 635 L113 168 Z " />
<glyph glyph-name="five" unicode="5" horiz-adv-x="600" d="M134 664 L123 379 Q192 450 301 450 Q408 450 471 382 Q527 321 527 221 Q527 109 449 42 Q382 -15 286 -15 Q193 -15 130 38 Q72 85 58 161 L101 161 Q116 88 175 51 Q223 21 289 21 Q378 21 434 83 Q484 138 484 223 Q484 318 424 370 Q374 414 296 414 Q240 414 191.5 391 Q143 368 114 327 L81 327 L95 700 L487 700 L487 664 L134 664 Z " />
<glyph glyph-name="six" unicode="6" horiz-adv-x="600" d="M503 580 L460 580 Q444 630 401 656 Q364 679 314 679 Q109 679 105 330 Q130 388 186 422 Q239 454 302 454 Q405 454 467 385 Q523 322 523 222 Q523 107 449 40 Q388 -15 300 -15 Q167 -15 108 96 Q65 178 65 318 Q65 549 152 646 Q213 715 314 715 Q386 715 440 674 Q488 637 503 580 Z M298 418 Q216 418 163 363 Q114 313 114 234 Q114 150 159 90 Q210 22 302 22 Q382 22 434 80 Q482 135 482 218 Q482 319 424 373 Q375 418 298 418 Z " />
<glyph glyph-name="seven" unicode="7" horiz-adv-x="600" d="M512 663 L190 0 L145 0 L469 663 L70 663 L70 700 L512 700 L512 663 Z " />
<glyph glyph-name="eight" unicode="8" horiz-adv-x="600" d="M226 370 Q160 390 122 431 Q80 476 80 538 Q80 628 156 677 Q215 715 300 715 Q400 715 461 668 Q520 622 520 543 Q520 420 363 372 Q446 349 493 304 Q545 253 545 180 Q545 89 470 34 Q404 -15 300 -15 Q183 -15 113 48 Q55 101 55 175 Q55 320 226 370 Z M292 355 Q196 333 151 295 Q98 251 98 178 Q98 102 164 58 Q219 21 300 21 Q394 21 450 68 Q502 112 502 179 Q502 318 292 355 Z M298 386 Q387 407 429 439 Q478 478 478 541 Q478 614 416 652 Q369 680 300 680 Q222 680 172 643 Q121 606 121 541 Q121 465 186 425 Q227 399 298 386 Z " />
<glyph glyph-name="nine" unicode="9" horiz-adv-x="600" d="M81 121 L123 121 Q137 70 185 43 Q224 21 275 21 Q479 21 484 369 Q459 311 402 277 Q350 246 287 246 Q186 246 123 313 Q65 375 65 478 Q65 590 138 658 Q199 715 285 715 Q419 715 478 604 Q523 521 523 382 Q523 -15 275 -15 Q201 -15 145 27 Q95 64 81 121 Z M286 678 Q204 678 153 617 Q107 562 107 482 Q107 378 167 325 Q216 282 291 282 Q373 282 426 336 Q475 387 475 466 Q475 550 430 610 Q379 678 286 678 Z " />
<glyph glyph-name="colon" unicode="&#x3a;" horiz-adv-x="280" d="M170 0 L110 0 L110 69 L170 69 L170 0 Z M170 451 L110 451 L110 520 L170 520 L170 451 Z " />
<glyph glyph-name="semicolon" unicode="&#x3b;" horiz-adv-x="280" d="M170 451 L110 451 L110 520 L170 520 L170 451 Z M170 68 L170 4 Q170 -110 73 -136 L73 -106 Q103 -94 116 -69 Q129 -44 129 0 L109 0 L109 68 L170 68 Z " />
<glyph glyph-name="less" unicode="&#x3c;" horiz-adv-x="600" d="M146 323 L146 322 L501 148 L501 103 L99 305 L99 340 L501 542 L501 497 L146 323 Z " />
<glyph glyph-name="equal" unicode="&#x3d;" horiz-adv-x="600" d="M501 446 L501 407 L99 407 L99 446 L501 446 Z M501 236 L501 198 L99 198 L99 236 L501 236 Z " />
<glyph glyph-name="greater" unicode="&#x3e;" horiz-adv-x="600" d="M454 322 L454 323 L99 497 L99 542 L501 340 L501 305 L99 103 L99 148 L454 322 Z " />
<glyph glyph-name="question" unicode="&#x3f;" horiz-adv-x="501" d="M100 569 L56 569 Q70 647 131 693 Q186 735 265 735 Q357 735 413 683 Q461 639 461 577 Q461 534 440.5 498.5 Q420 463 357 396 L327 366 Q293 330 282.5 298.5 Q272 267 272 201 L231 201 Q231 285 244 320 Q257 355 308 405 Q376 470 396 501 Q418 536 418 576 Q418 631 371 667 Q328 699 264 699 Q196 699 150 658 Q111 623 100 569 Z M281 0 L222 0 L222 68 L281 68 L281 0 Z " />
<glyph glyph-name="at" unicode="&#x40;" horiz-adv-x="928" d="M636 -20 L646 -55 Q572 -82 479 -82 Q369 -82 275 -37 Q177 11 121 97 Q59 192 59 319 Q59 541 213 653 Q325 735 476 735 Q667 735 777 623 Q869 530 869 395 Q869 254 810 172 Q760 104 687 104 Q635 104 606 141 Q583 170 582 212 Q566 173 522 142 Q474 109 417 109 Q346 109 299 163 Q254 214 254 293 Q254 422 325 496 Q384 558 470 558 Q513 558 550 534 Q587 511 600 474 L618 550 L649 550 L612 266 Q612 261 611 251 Q610 241 610 235 Q610 186 633 160 Q653 139 686 139 Q752 139 792 213 Q828 281 828 394 Q828 538 721 623 Q625 699 476 699 Q386 699 306 663 Q214 622 161 543 Q100 451 100 319 Q100 138 229 36 Q333 -45 481 -45 Q565 -45 636 -20 Z M580 321 L587 372 Q588 380 588 394 Q588 464 547 498 Q517 524 470 524 Q393 524 343 460 Q294 398 294 301 Q294 221 337 179 Q371 145 425 145 Q490 145 533 195 Q574 242 580 321 Z " />
<glyph glyph-name="A" unicode="A" horiz-adv-x="648" d="M639 0 L591 0 L508 210 L138 210 L54 0 L9 0 L296 720 L353 720 L639 0 Z M325 680 L152 247 L494 247 L325 680 Z " />
<glyph glyph-name="B" unicode="B" horiz-adv-x="634" d="M84 720 L328 720 Q441 720 500 667 Q550 622 550 546 Q550 484 510 437 Q474 396 416 382 Q492 372 539 316 Q581 266 581 199 Q581 99 510 47 Q446 0 333 0 L84 0 L84 720 Z M127 38 L339 38 Q441 38 492 86 Q536 127 536 199 Q536 278 478 322 Q427 362 345 362 L127 362 L127 38 Z M127 398 L342 398 Q426 398 471 446 Q508 485 508 545 Q508 615 456 651 Q411 683 334 683 L127 683 L127 398 Z " />
<glyph glyph-name="C" unicode="C" horiz-adv-x="716" d="M623 235 L666 235 Q652 118 567 48 Q489 -15 378 -15 Q223 -15 133 99 Q54 198 54 353 Q54 545 159 649 Q245 735 375 735 Q499 735 579 669 Q651 608 667 507 L625 507 Q605 607 530 656 Q467 698 375 698 Q245 698 168 597 Q98 504 98 353 Q98 192 188 100 Q264 22 378 22 Q485 22 552 86 Q611 142 623 235 Z " />
<glyph glyph-name="D" unicode="D" horiz-adv-x="677" d="M84 720 L278 720 Q444 720 538 614 Q623 518 623 360 Q623 182 511 83 Q418 0 277 0 L84 0 L84 720 Z M127 38 L282 38 Q424 38 505 132 Q580 218 580 360 Q580 524 484 611 Q404 683 280 683 L127 683 L127 38 Z " />
<glyph glyph-name="E" unicode="E" horiz-adv-x="562" d="M474 385 L474 348 L127 348 L127 38 L503 38 L503 0 L84 0 L84 720 L503 720 L503 683 L127 683 L127 385 L474 385 Z " />
<glyph glyph-name="F" unicode="F" horiz-adv-x="551" d="M84 720 L497 720 L497 683 L127 683 L127 365 L460 365 L460 328 L127 328 L127 0 L84 0 L84 720 Z " />
<glyph glyph-name="G" unicode="G" horiz-adv-x="729" d="M653 375 L653 0 L621 0 L615 128 Q580 56 512 18 Q451 -15 376 -15 Q227 -15 138 93 Q54 193 54 359 Q54 549 159 651 Q244 735 373 735 Q492 735 568 673 Q635 619 655 528 L612 528 Q588 617 519 660 Q460 697 373 697 Q249 697 172 603 Q98 512 98 359 Q98 190 193 97 Q269 22 378 22 Q484 22 554 91 Q615 152 615 236 L615 338 L375 338 L375 375 L653 375 Z " />
<glyph glyph-name="H" unicode="H" horiz-adv-x="679" d="M552 720 L595 720 L595 0 L552 0 L552 349 L127 349 L127 0 L84 0 L84 720 L127 720 L127 387 L552 387 L552 720 Z " />
<glyph glyph-name="I" unicode="I" horiz-adv-x="211" d="M84 720 L127 720 L127 0 L84 0 L84 720 Z " />
<glyph glyph-name="J" unicode="J" horiz-adv-x="519" d="M34 188 L76 188 Q80 103 130 59 Q172 22 239 22 Q318 22 360 73 Q397 119 397 198 L397 720 L440 720 L440 198 Q440 95 379 36 Q325 -15 238 -15 Q140 -15 85 48 Q38 102 34 188 Z " />
<glyph glyph-name="K" unicode="K" horiz-adv-x="585" d="M571 0 L513 0 L127 358 L127 0 L84 0 L84 720 L127 720 L127 381 L489 720 L542 720 L173 372 L571 0 Z " />
<glyph glyph-name="L" unicode="L" horiz-adv-x="547" d="M84 720 L127 720 L127 39 L502 39 L502 0 L84 0 L84 720 Z " />
<glyph glyph-name="M" unicode="M" horiz-adv-x="833" d="M449 0 L399 0 L126 672 L126 0 L84 0 L84 720 L149 720 L425 43 L685 720 L749 720 L749 0 L707 0 L707 667 L449 0 Z " />
<glyph glyph-name="N" unicode="N" horiz-adv-x="710" d="M586 720 L626 720 L626 0 L578 0 L125 662 L125 0 L84 0 L84 720 L133 720 L586 63 L586 720 Z " />
<glyph glyph-name="O" unicode="O" horiz-adv-x="747" d="M373 735 Q521 735 611 625 Q693 523 693 359 Q693 170 588 68 Q502 -15 373 -15 Q224 -15 136 95 Q54 196 54 359 Q54 546 159 650 Q246 735 373 735 Z M373 697 Q243 697 168 599 Q98 508 98 359 Q98 186 191 95 Q265 22 373 22 Q500 22 576 115 Q649 205 649 359 Q649 530 559 622 Q486 697 373 697 Z " />
<glyph glyph-name="P" unicode="P" horiz-adv-x="625" d="M84 720 L328 720 Q454 720 519 653 Q576 595 576 497 Q576 392 496 332 Q429 282 326 282 L127 282 L127 0 L84 0 L84 720 Z M127 320 L326 320 Q427 320 483 374 Q531 420 531 497 Q531 590 471 640 Q419 683 331 683 L127 683 L127 320 Z " />
<glyph glyph-name="Q" unicode="Q" horiz-adv-x="747" d="M647 -108 L542 33 Q471 -15 373 -15 Q224 -15 136 95 Q54 196 54 359 Q54 546 159 650 Q246 735 373 735 Q521 735 611 625 Q693 523 693 359 Q693 157 574 56 L685 -81 L647 -108 Z M373 697 Q243 697 168 599 Q98 508 98 359 Q98 186 191 95 Q265 22 373 22 Q500 22 576 115 Q649 205 649 359 Q649 530 559 622 Q486 697 373 697 Z " />
<glyph glyph-name="R" unicode="R" horiz-adv-x="622" d="M603 0 L550 0 L352 302 L127 302 L127 0 L84 0 L84 720 L334 720 Q458 720 522 656 Q577 601 577 508 Q577 428 519 372 Q472 326 397 308 L603 0 Z M127 340 L332 340 Q430 340 485 393 Q532 439 532 508 Q532 597 475 643 Q425 683 336 683 L127 683 L127 340 Z " />
<glyph glyph-name="S" unicode="S" horiz-adv-x="644" d="M44 178 L89 178 Q105 97 177 57 Q236 23 322 23 Q435 23 494 72 Q544 113 544 181 Q544 259 487 298 Q433 337 300 364 Q173 390 120 443 Q76 488 76 560 Q76 645 147 692 Q211 735 322 735 Q434 735 507 683 Q572 636 589 560 L545 560 Q528 629 463 666 Q405 698 323 698 Q217 698 164 655 Q120 620 120 563 Q120 495 169 458 Q216 423 329 399 Q479 367 537 311 Q587 263 587 182 Q587 89 510 35 Q439 -15 322 -15 Q202 -15 127 41 Q61 92 44 178 Z " />
<glyph glyph-name="T" unicode="T" horiz-adv-x="567" d="M547 720 L547 682 L304 682 L304 0 L262 0 L262 682 L19 682 L19 720 L547 720 Z " />
<glyph glyph-name="U" unicode="U" horiz-adv-x="701" d="M621 720 L621 235 Q621 121 540 50 Q465 -15 350 -15 Q216 -15 141 68 Q79 136 79 235 L79 720 L121 720 L121 234 Q121 134 195 74 Q258 22 350 22 Q456 22 522 89 Q580 148 580 234 L580 720 L621 720 Z " />
<glyph glyph-name="V" unicode="V" horiz-adv-x="621" d="M9 720 L53 720 L309 35 L570 720 L611 720 L340 0 L279 0 L9 720 Z " />
<glyph glyph-name="W" unicode="W" horiz-adv-x="951" d="M896 720 L937 720 L735 0 L675 0 L476 683 L278 0 L216 0 L14 720 L59 720 L248 37 L447 720 L508 720 L705 39 L896 720 Z " />
<glyph glyph-name="X" unicode="X" horiz-adv-x="601" d="M573 720 L328 372 L582 0 L531 0 L301 340 L69 0 L19 0 L275 374 L39 720 L90 720 L304 406 L525 720 L573 720 Z " />
<glyph glyph-name="Y" unicode="Y" horiz-adv-x="621" d="M9 720 L55 720 L309 322 L567 720 L611 720 L331 281 L331 0 L288 0 L288 283 L9 720 Z " />
<glyph glyph-name="Z" unicode="Z" horiz-adv-x="639" d="M590 684 L99 38 L580 38 L580 0 L49 0 L49 39 L539 682 L72 682 L72 720 L590 720 L590 684 Z " />
<glyph glyph-name="bracketleft" unicode="&#x5b;" horiz-adv-x="240" d="M208 -134 L208 -170 L34 -170 L34 810 L208 810 L208 774 L75 774 L75 -134 L208 -134 Z " />
<glyph glyph-name="backslash" unicode="&#x5c;" horiz-adv-x="313" d="M243 -90 L30 735 L70 735 L282 -90 L243 -90 Z " />
<glyph glyph-name="bracketright" unicode="&#x5d;" horiz-adv-x="240" d="M32 -170 L32 -134 L165 -134 L165 774 L32 774 L32 810 L206 810 L206 -170 L32 -170 Z " />
<glyph glyph-name="asciicircum" unicode="&#x5e;" horiz-adv-x="486" d="M243 686 L89 400 L46 400 L220 720 L265 720 L439 400 L396 400 L243 686 Z " />
<glyph glyph-name="underscore" unicode="&#x5f;" horiz-adv-x="604" d="M573 -67 L573 -106 L30 -106 L30 -67 L573 -67 Z " />
<glyph glyph-name="grave" unicode="&#x60;" horiz-adv-x="222" d="M89 735 L192 598 L154 598 L30 735 L89 735 Z " />
<glyph glyph-name="a" unicode="a" horiz-adv-x="523" d="M107 389 L65 389 Q71 459 132 500 Q184 535 261 535 Q351 535 402 484 Q448 439 448 367 L448 0 L415 0 L408 91 Q380 41 333 13 Q284 -15 221 -15 Q140 -15 93 28 Q49 67 49 131 Q49 203 101 243 Q149 280 250 297 L407 323 L407 374 Q407 436 362 471 Q323 501 259 501 Q191 501 148 465 Q112 435 107 389 Z M407 289 L264 265 Q162 248 123 212 Q92 183 92 134 Q92 75 137 45 Q174 21 233 21 Q306 21 359 72 Q407 118 407 184 L407 289 Z " />
<glyph glyph-name="b" unicode="b" horiz-adv-x="572" d="M113 0 L79 0 L79 720 L121 720 L121 416 Q148 474 198 505 Q246 535 306 535 Q411 535 469 460 Q522 390 522 267 Q522 123 451 47 Q392 -15 303 -15 Q235 -15 184 22 Q142 53 120 103 L113 0 Z M299 500 Q217 500 168 438 Q117 375 117 259 Q117 135 175 71 Q222 20 297 20 Q384 20 433 89 Q479 155 479 268 Q479 391 422 451 Q376 500 299 500 Z " />
<glyph glyph-name="c" unicode="c" horiz-adv-x="536" d="M444 149 L487 149 Q473 71 410 25 Q353 -15 276 -15 Q169 -15 107 63 Q49 136 49 256 Q49 399 125 475 Q186 535 278 535 Q364 535 422 487 Q472 445 484 379 L439 379 Q429 438 380 471 Q338 500 279 500 Q190 500 139 431 Q91 366 91 254 Q91 132 154 70 Q203 21 278 21 Q347 21 394 62 Q435 96 444 149 Z " />
<glyph glyph-name="d" unicode="d" horiz-adv-x="572" d="M492 0 L459 0 L452 107 Q425 47 374 15 Q326 -15 266 -15 Q166 -15 106 61 Q49 133 49 254 Q49 398 122 474 Q180 535 268 535 Q335 535 386 499 Q428 469 451 420 L451 720 L492 720 L492 0 Z M274 500 Q189 500 139 432 Q92 367 92 255 Q92 132 152 70 Q200 20 274 20 Q355 20 404 82 Q455 146 455 261 Q455 385 396 449 Q349 500 274 500 Z " />
<glyph glyph-name="e" unicode="e" horiz-adv-x="569" d="M461 139 L505 139 Q485 63 422 22 Q367 -15 293 -15 Q178 -15 110 66 Q49 139 49 260 Q49 398 125 473 Q187 535 282 535 Q392 535 455 456 Q515 380 515 250 L91 250 Q95 130 161 69 Q214 21 294 21 Q361 21 406 56 Q447 87 461 139 Z M92 285 L471 285 Q466 396 405 454 Q356 501 282 501 Q198 501 146 438 Q97 381 92 285 Z " />
<glyph glyph-name="f" unicode="f" horiz-adv-x="294" d="M299 723 L299 688 Q256 700 223 700 Q148 700 148 614 L148 520 L273 520 L273 484 L148 484 L148 0 L106 0 L106 484 L29 484 L29 520 L106 520 L106 612 Q106 674 142 707 Q172 735 222 735 Q262 735 299 723 Z " />
<glyph glyph-name="g" unicode="g" horiz-adv-x="572" d="M71 -52 L115 -52 Q126 -110 177 -138 Q219 -161 279 -161 Q364 -161 411 -110 Q451 -67 451 2 L451 129 Q424 76 374 47 Q327 20 267 20 Q169 20 107 93 Q49 162 49 273 Q49 404 122 476 Q181 535 268 535 Q335 535 386 500 Q429 471 452 423 L459 520 L492 520 L492 1 Q492 -91 429 -146 Q371 -195 281 -195 Q189 -195 134 -153 Q84 -116 71 -52 Z M274 500 Q189 500 139 437 Q92 378 92 274 Q92 163 152 103 Q201 54 274 54 Q357 54 405 110 Q455 167 455 276 Q455 394 396 453 Q349 500 274 500 Z " />
<glyph glyph-name="h" unicode="h" horiz-adv-x="549" d="M121 0 L79 0 L79 720 L121 720 L121 426 Q147 481 200 510 Q244 535 296 535 Q384 535 432 481 Q475 434 475 358 L475 0 L433 0 L433 356 Q433 428 389 467 Q351 500 287 500 Q218 500 168 446 Q121 395 121 322 L121 0 Z " />
<glyph glyph-name="i" unicode="i" horiz-adv-x="191" d="M116 0 L75 0 L75 520 L116 520 L116 0 Z M122 658 L70 658 L70 720 L122 720 L122 658 Z " />
<glyph glyph-name="j" unicode="j" horiz-adv-x="191" d="M-57 -184 L-57 -148 Q-22 -158 7 -158 Q75 -158 75 -73 L75 520 L116 520 L116 -75 Q116 -137 86 -168 Q59 -195 13 -195 Q-23 -195 -57 -184 Z M121 658 L69 658 L69 720 L121 720 L121 658 Z " />
<glyph glyph-name="k" unicode="k" horiz-adv-x="478" d="M121 0 L79 0 L79 720 L121 720 L121 305 L383 520 L440 520 L163 293 L474 0 L418 0 L121 279 L121 0 Z " />
<glyph glyph-name="l" unicode="l" horiz-adv-x="200" d="M121 720 L121 0 L79 0 L79 720 L121 720 Z " />
<glyph glyph-name="m" unicode="m" horiz-adv-x="846" d="M121 0 L79 0 L79 520 L114 520 L119 433 Q144 487 195 514 Q235 535 281 535 Q345 535 387 503 Q423 475 437 426 Q462 483 516 512 Q558 535 607 535 Q690 535 734 483 Q772 437 772 360 L772 0 L730 0 L730 358 Q730 500 599 500 Q528 500 484 442 Q446 393 446 323 L446 0 L405 0 L405 358 Q405 500 275 500 Q204 500 159 443 Q121 393 121 324 L121 0 Z " />
<glyph glyph-name="n" unicode="n" horiz-adv-x="549" d="M121 0 L79 0 L79 520 L114 520 L119 424 Q146 480 199 510 Q243 535 296 535 Q384 535 432 481 Q475 434 475 358 L475 0 L433 0 L433 356 Q433 428 389 467 Q351 500 287 500 Q218 500 168 446 Q121 396 121 324 L121 0 Z " />
<glyph glyph-name="o" unicode="o" horiz-adv-x="567" d="M284 535 Q398 535 460 456 Q518 383 518 260 Q518 120 443 46 Q382 -15 286 -15 Q174 -15 109 65 Q49 139 49 260 Q49 401 125 475 Q188 535 284 535 Z M284 501 Q191 501 140 432 Q92 369 92 260 Q92 137 155 72 Q205 19 284 19 Q377 19 429 88 Q476 151 476 260 Q476 385 415 449 Q364 501 284 501 Z " />
<glyph glyph-name="p" unicode="p" horiz-adv-x="572" d="M79 520 L113 520 L120 415 Q146 474 197 505 Q245 535 306 535 Q411 535 468 460 Q522 390 522 267 Q522 124 449 47 Q391 -15 301 -15 Q234 -15 184 21 Q143 51 121 101 L121 -180 L79 -180 L79 520 Z M299 500 Q217 500 168 438 Q117 375 117 259 Q117 135 174 71 Q221 20 295 20 Q382 20 433 89 Q480 155 480 268 Q480 391 422 451 Q375 500 299 500 Z " />
<glyph glyph-name="q" unicode="q" horiz-adv-x="572" d="M459 520 L492 520 L492 -180 L451 -180 L451 105 Q424 46 373 15 Q326 -15 266 -15 Q166 -15 106 61 Q49 133 49 254 Q49 398 122 474 Q180 535 268 535 Q336 535 387 499 Q429 468 452 418 L459 520 Z M274 500 Q189 500 139 432 Q92 367 92 255 Q92 132 152 70 Q200 20 274 20 Q355 20 404 82 Q455 146 455 261 Q455 385 396 449 Q349 500 274 500 Z " />
<glyph glyph-name="r" unicode="r" horiz-adv-x="336" d="M121 0 L79 0 L79 520 L113 520 L119 413 Q159 535 270 535 Q298 535 322 527 L322 487 Q291 496 267 496 Q202 496 159 433 Q121 376 121 291 L121 0 Z " />
<glyph glyph-name="s" unicode="s" horiz-adv-x="493" d="M39 135 L82 135 Q89 80 137 48 Q180 20 245 20 Q322 20 365 60 Q400 92 400 137 Q400 191 353 219 Q313 243 224 257 Q56 284 56 400 Q56 464 108 500 Q158 535 241 535 Q326 535 382 491 Q431 453 441 394 L398 394 Q391 444 342 474 Q298 501 238 501 Q165 501 128 468 Q98 443 98 404 Q98 356 132.5 331 Q167 306 251 291 Q360 271 405 232 Q444 197 444 138 Q444 70 384 26 Q328 -15 244 -15 Q150 -15 95 32 Q48 72 39 135 Z " />
<glyph glyph-name="t" unicode="t" horiz-adv-x="296" d="M264 484 L141 484 L141 98 Q141 20 213 20 Q247 20 276 29 L276 -6 Q242 -15 212 -15 Q155 -15 126 17 Q99 47 99 99 L99 484 L24 484 L24 520 L99 520 L103 645 L141 645 L141 520 L264 520 L264 484 Z " />
<glyph glyph-name="u" unicode="u" horiz-adv-x="544" d="M74 520 L116 520 L116 165 Q116 89 160 51 Q197 20 260 20 Q334 20 382 78 Q423 128 423 200 L423 520 L465 520 L465 0 L430 0 L425 90 Q397 35 342 7 Q300 -15 251 -15 Q166 -15 118 36 Q74 83 74 164 L74 520 Z " />
<glyph glyph-name="v" unicode="v" horiz-adv-x="492" d="M430 520 L473 520 L274 0 L218 0 L19 520 L64 520 L246 36 L430 520 Z " />
<glyph glyph-name="w" unicode="w" horiz-adv-x="757" d="M693 520 L733 520 L584 0 L532 0 L380 481 L237 0 L185 0 L24 520 L66 520 L212 41 L355 520 L409 520 L558 43 L693 520 Z " />
<glyph glyph-name="x" unicode="x" horiz-adv-x="506" d="M456 520 L275 274 L487 0 L436 0 L248 244 L68 0 L19 0 L223 274 L28 520 L81 520 L251 304 L408 520 L456 520 Z " />
<glyph glyph-name="y" unicode="y" horiz-adv-x="492" d="M473 520 L288 -3 Q242 -132 220 -161 Q195 -195 149 -195 Q127 -195 97 -185 L97 -151 Q123 -160 149 -160 Q179 -160 196 -132.5 Q213 -105 248 0 L229 0 L19 520 L64 520 L259 31 L431 520 L473 520 Z " />
<glyph glyph-name="z" unicode="z" horiz-adv-x="478" d="M439 477 L86 36 L439 36 L439 0 L39 0 L39 41 L394 484 L54 484 L54 520 L439 520 L439 477 Z " />
<glyph glyph-name="braceleft" unicode="&#x7b;" horiz-adv-x="340" d="M57 301 L57 341 Q103 341 129 371 Q152 397 152 441 L152 674 Q152 746 187 779 Q221 810 291 810 L291 774 Q238 774 215.5 752 Q193 730 193 679 L193 445 Q193 392 164 358 Q140 330 101 321 Q146 311 171 276 Q193 244 193 197 L193 -37 Q193 -89 215 -110 Q238 -132 291 -132 L291 -168 Q212 -168 179 -127 Q152 -95 152 -32 L152 201 Q152 251 122 278 Q97 301 57 301 Z " />
<glyph glyph-name="bar" unicode="&#x7c;" horiz-adv-x="342" d="M151 785 L190 785 L190 -140 L151 -140 L151 785 Z " />
<glyph glyph-name="braceright" unicode="&#x7d;" horiz-adv-x="340" d="M282 341 L282 301 Q236 301 211 271 Q188 245 188 201 L188 -32 Q188 -104 152 -137 Q118 -168 48 -168 L48 -132 Q108 -132 130 -104 Q147 -82 147 -37 L147 197 Q147 250 175 284 Q199 312 238 321 Q193 331 169 366 Q147 398 147 445 L147 679 Q147 731 124 752 Q101 774 48 774 L48 810 Q127 810 161 769 Q188 737 188 674 L188 441 Q188 391 217 364 Q242 341 282 341 Z " />
<glyph glyph-name="asciitilde" unicode="&#x7e;" horiz-adv-x="600" d="M99 289 L99 335 Q150 375 205 375 Q230 375 252 368.5 Q274 362 311 343 Q363 316 396 316 Q423 316 446.5 327 Q470 338 501 365 L501 319 Q450 279 394 279 Q351 279 288 311 Q236 338 204 338 Q153 338 99 289 Z " />
<glyph glyph-name="Adieresis" unicode="&#xc4;" horiz-adv-x="648" d="M639 0 L591 0 L508 210 L138 210 L54 0 L9 0 L296 720 L353 720 L639 0 Z M325 680 L152 247 L494 247 L325 680 Z M251 829 L199 829 L199 890 L251 890 L251 829 Z M449 829 L398 829 L398 890 L449 890 L449 829 Z " />
<glyph glyph-name="Aring" unicode="&#xc5;" horiz-adv-x="648" d="M639 0 L591 0 L508 210 L138 210 L54 0 L9 0 L288 700 Q251 709 228.5 739 Q206 769 206 810 Q206 864 242 897 Q275 926 323 926 Q378 926 411 889 Q439 857 439 810 Q439 770 418 740.5 Q397 711 360 700 L639 0 Z M325 680 L152 247 L494 247 L325 680 Z M323 896 Q284 896 262 871 Q241 848 241 810 Q241 767 267 744 Q289 725 323 725 Q361 725 384 750 Q404 773 404 810 Q404 853 378 877 Q356 896 323 896 Z " />
<glyph glyph-name="Ccedilla" unicode="&#xc7;" horiz-adv-x="716" d="M393 -15 L393 -51 Q450 -57 479 -85 Q503 -108 503 -143 Q503 -186 468 -214 Q437 -239 393 -239 Q344 -239 312 -215 Q284 -193 278 -155 L315 -155 Q318 -179 339 -193 Q360 -207 394 -207 Q427 -207 447.5 -189 Q468 -171 468 -143 Q468 -78 354 -78 L359 -14 Q212 -7 128 105 Q54 203 54 353 Q54 545 159 649 Q245 735 375 735 Q499 735 579 669 Q651 608 667 507 L625 507 Q605 607 530 656 Q467 698 375 698 Q245 698 168 597 Q98 504 98 353 Q98 192 188 100 Q264 23 378 23 Q485 23 552 86 Q611 142 623 235 L666 235 Q652 122 571 53 Q498 -10 393 -15 Z " />
<glyph glyph-name="Eacute" unicode="&#xc9;" horiz-adv-x="562" d="M474 385 L474 348 L127 348 L127 38 L503 38 L503 0 L84 0 L84 720 L503 720 L503 683 L127 683 L127 385 L474 385 Z M230 768 L333 905 L392 905 L269 768 L230 768 Z " />
<glyph glyph-name="Ntilde" unicode="&#xd1;" horiz-adv-x="710" d="M586 720 L626 720 L626 0 L578 0 L125 662 L125 0 L84 0 L84 720 L133 720 L586 63 L586 720 Z M495 870 L495 831 Q455 801 419 801 Q391 801 358 819 Q332 833 312 833 Q277 833 237 801 L237 841 Q279 871 313 871 Q342 871 374 853 Q401 838 421 838 Q455 838 495 870 Z " />
<glyph glyph-name="Odieresis" unicode="&#xd6;" horiz-adv-x="747" d="M373 735 Q521 735 611 625 Q693 523 693 359 Q693 170 588 68 Q502 -15 373 -15 Q224 -15 136 95 Q54 196 54 359 Q54 546 159 650 Q246 735 373 735 Z M373 697 Q243 697 168 599 Q98 508 98 359 Q98 186 191 95 Q265 22 373 22 Q500 22 576 115 Q649 205 649 359 Q649 530 559 622 Q486 697 373 697 Z M298 829 L246 829 L246 890 L298 890 L298 829 Z M496 829 L445 829 L445 890 L496 890 L496 829 Z " />
<glyph glyph-name="Udieresis" unicode="&#xdc;" horiz-adv-x="701" d="M621 720 L621 235 Q621 121 540 50 Q465 -15 350 -15 Q216 -15 141 68 Q79 136 79 235 L79 720 L121 720 L121 234 Q121 134 195 74 Q258 22 350 22 Q456 22 522 89 Q580 148 580 234 L580 720 L621 720 Z M276 829 L225 829 L225 890 L276 890 L276 829 Z M475 829 L424 829 L424 890 L475 890 L475 829 Z " />
<glyph glyph-name="aacute" unicode="&#xe1;" horiz-adv-x="523" d="M107 389 L65 389 Q71 459 132 500 Q184 535 261 535 Q351 535 402 484 Q448 439 448 367 L448 0 L415 0 L408 91 Q380 41 333 13 Q284 -15 221 -15 Q140 -15 93 28 Q49 67 49 131 Q49 203 101 243 Q149 280 250 297 L407 323 L407 374 Q407 436 362 471 Q323 501 259 501 Q191 501 148 465 Q112 435 107 389 Z M407 289 L264 265 Q162 248 123 212 Q92 183 92 134 Q92 75 137 45 Q174 21 233 21 Q306 21 359 72 Q407 118 407 184 L407 289 Z M226 598 L329 735 L388 735 L265 598 L226 598 Z " />
<glyph glyph-name="agrave" unicode="&#xe0;" horiz-adv-x="523" d="M107 389 L65 389 Q71 459 132 500 Q184 535 261 535 Q351 535 402 484 Q448 439 448 367 L448 0 L415 0 L408 91 Q380 41 333 13 Q284 -15 221 -15 Q140 -15 93 28 Q49 67 49 131 Q49 203 101 243 Q149 280 250 297 L407 323 L407 374 Q407 436 362 471 Q323 501 259 501 Q191 501 148 465 Q112 435 107 389 Z M407 289 L264 265 Q162 248 123 212 Q92 183 92 134 Q92 75 137 45 Q174 21 233 21 Q306 21 359 72 Q407 118 407 184 L407 289 Z M194 735 L297 598 L259 598 L135 735 L194 735 Z " />
<glyph glyph-name="acircumflex" unicode="&#xe2;" horiz-adv-x="523" d="M107 389 L65 389 Q71 459 132 500 Q184 535 261 535 Q351 535 402 484 Q448 439 448 367 L448 0 L415 0 L408 91 Q380 41 333 13 Q284 -15 221 -15 Q140 -15 93 28 Q49 67 49 131 Q49 203 101 243 Q149 280 250 297 L407 323 L407 374 Q407 436 362 471 Q323 501 259 501 Q191 501 148 465 Q112 435 107 389 Z M407 289 L264 265 Q162 248 123 212 Q92 183 92 134 Q92 75 137 45 Q174 21 233 21 Q306 21 359 72 Q407 118 407 184 L407 289 Z M288 735 L393 598 L353 598 L263 708 L175 598 L134 598 L240 735 L288 735 Z " />
<glyph glyph-name="adieresis" unicode="&#xe4;" horiz-adv-x="523" d="M107 389 L65 389 Q71 459 132 500 Q184 535 261 535 Q351 535 402 484 Q448 439 448 367 L448 0 L415 0 L408 91 Q380 41 333 13 Q284 -15 221 -15 Q140 -15 93 28 Q49 67 49 131 Q49 203 101 243 Q149 280 250 297 L407 323 L407 374 Q407 436 362 471 Q323 501 259 501 Q191 501 148 465 Q112 435 107 389 Z M407 289 L264 265 Q162 248 123 212 Q92 183 92 134 Q92 75 137 45 Q174 21 233 21 Q306 21 359 72 Q407 118 407 184 L407 289 Z M187 659 L136 659 L136 720 L187 720 L187 659 Z M386 659 L335 659 L335 720 L386 720 L386 659 Z " />
<glyph glyph-name="atilde" unicode="&#xe3;" horiz-adv-x="523" d="M107 389 L65 389 Q71 459 132 500 Q184 535 261 535 Q351 535 402 484 Q448 439 448 367 L448 0 L415 0 L408 91 Q380 41 333 13 Q284 -15 221 -15 Q140 -15 93 28 Q49 67 49 131 Q49 203 101 243 Q149 280 250 297 L407 323 L407 374 Q407 436 362 471 Q323 501 259 501 Q191 501 148 465 Q112 435 107 389 Z M407 289 L264 265 Q162 248 123 212 Q92 183 92 134 Q92 75 137 45 Q174 21 233 21 Q306 21 359 72 Q407 118 407 184 L407 289 Z M389 700 L389 660 Q350 631 314 631 Q285 631 253 649 Q226 663 206 663 Q172 663 132 631 L132 671 Q171 700 207 700 Q236 700 268 682 Q295 668 315 668 Q349 668 389 700 Z " />
<glyph glyph-name="aring" unicode="&#xe5;" horiz-adv-x="523" d="M107 389 L65 389 Q71 459 132 500 Q184 535 261 535 Q351 535 402 484 Q448 439 448 367 L448 0 L415 0 L408 91 Q380 41 333 13 Q284 -15 221 -15 Q140 -15 93 28 Q49 67 49 131 Q49 203 101 243 Q149 280 250 297 L407 323 L407 374 Q407 436 362 471 Q323 501 259 501 Q191 501 148 465 Q112 435 107 389 Z M407 289 L264 265 Q162 248 123 212 Q92 183 92 134 Q92 75 137 45 Q174 21 233 21 Q306 21 359 72 Q407 118 407 184 L407 289 Z M258 815 Q314 815 347 778 Q375 747 375 700 Q375 646 339 613 Q306 584 258 584 Q203 584 170 621 Q142 653 142 700 Q142 754 178 787 Q210 815 258 815 Z M258 786 Q220 786 197 761 Q177 737 177 700 Q177 657 203 634 Q225 614 258 614 Q297 614 319 639 Q340 662 340 700 Q340 743 314 766 Q292 786 258 786 Z " />
<glyph glyph-name="ccedilla" unicode="&#xe7;" horiz-adv-x="536" d="M286 -15 L286 -51 Q343 -57 372 -85 Q397 -108 397 -143 Q397 -186 362 -214 Q331 -239 287 -239 Q237 -239 206 -215 Q177 -193 172 -155 L209 -155 Q212 -179 233 -193 Q254 -207 288 -207 Q320 -207 340.5 -189 Q361 -171 361 -143 Q361 -78 247 -78 L253 -14 Q155 -4 100 72 Q49 143 49 256 Q49 399 125 475 Q186 535 278 535 Q364 535 422 487 Q472 445 484 379 L439 379 Q429 438 380 471 Q338 500 279 500 Q190 500 139 431 Q91 366 91 254 Q91 132 154 70 Q203 21 278 21 Q347 21 394 62 Q435 96 444 149 L487 149 Q473 73 413 28 Q360 -12 286 -15 Z " />
<glyph glyph-name="eacute" unicode="&#xe9;" horiz-adv-x="569" d="M461 139 L505 139 Q485 63 422 22 Q367 -15 293 -15 Q178 -15 110 66 Q49 139 49 260 Q49 398 125 473 Q187 535 282 535 Q392 535 455 456 Q515 380 515 250 L91 250 Q95 130 161 69 Q214 21 294 21 Q361 21 406 56 Q447 87 461 139 Z M92 285 L471 285 Q466 396 405 454 Q356 501 282 501 Q198 501 146 438 Q97 381 92 285 Z M248 598 L351 735 L410 735 L287 598 L248 598 Z " />
<glyph glyph-name="egrave" unicode="&#xe8;" horiz-adv-x="569" d="M461 139 L505 139 Q485 63 422 22 Q367 -15 293 -15 Q178 -15 110 66 Q49 139 49 260 Q49 398 125 473 Q187 535 282 535 Q392 535 455 456 Q515 380 515 250 L91 250 Q95 130 161 69 Q214 21 294 21 Q361 21 406 56 Q447 87 461 139 Z M92 285 L471 285 Q466 396 405 454 Q356 501 282 501 Q198 501 146 438 Q97 381 92 285 Z M218 735 L321 598 L283 598 L159 735 L218 735 Z " />
<glyph glyph-name="ecircumflex" unicode="&#xea;" horiz-adv-x="569" d="M461 139 L505 139 Q485 63 422 22 Q367 -15 293 -15 Q178 -15 110 66 Q49 139 49 260 Q49 398 125 473 Q187 535 282 535 Q392 535 455 456 Q515 380 515 250 L91 250 Q95 130 161 69 Q214 21 294 21 Q361 21 406 56 Q447 87 461 139 Z M92 285 L471 285 Q466 396 405 454 Q356 501 282 501 Q198 501 146 438 Q97 381 92 285 Z M305 735 L410 598 L370 598 L280 708 L192 598 L151 598 L257 735 L305 735 Z " />
<glyph glyph-name="edieresis" unicode="&#xeb;" horiz-adv-x="569" d="M461 139 L505 139 Q485 63 422 22 Q367 -15 293 -15 Q178 -15 110 66 Q49 139 49 260 Q49 398 125 473 Q187 535 282 535 Q392 535 455 456 Q515 380 515 250 L91 250 Q95 130 161 69 Q214 21 294 21 Q361 21 406 56 Q447 87 461 139 Z M92 285 L471 285 Q466 396 405 454 Q356 501 282 501 Q198 501 146 438 Q97 381 92 285 Z M207 659 L156 659 L156 720 L207 720 L207 659 Z M406 659 L355 659 L355 720 L406 720 L406 659 Z " />
<glyph glyph-name="iacute" unicode="&#xed;" horiz-adv-x="191" d="M116 0 L74 0 L74 520 L116 520 L116 0 Z M46 598 L149 735 L208 735 L85 598 L46 598 Z " />
<glyph glyph-name="igrave" unicode="&#xec;" horiz-adv-x="191" d="M117 0 L75 0 L75 520 L117 520 L117 0 Z M43 735 L146 598 L108 598 L-16 735 L43 735 Z " />
<glyph glyph-name="icircumflex" unicode="&#xee;" horiz-adv-x="191" d="M117 0 L75 0 L75 520 L117 520 L117 0 Z M121 735 L226 598 L186 598 L96 708 L8 598 L-33 598 L73 735 L121 735 Z " />
<glyph glyph-name="idieresis" unicode="&#xef;" horiz-adv-x="191" d="M116 0 L75 0 L75 520 L116 520 L116 0 Z M22 659 L-29 659 L-29 720 L22 720 L22 659 Z M221 659 L170 659 L170 720 L221 720 L221 659 Z " />
<glyph glyph-name="ntilde" unicode="&#xf1;" horiz-adv-x="549" d="M121 0 L79 0 L79 520 L114 520 L119 424 Q146 480 199 510 Q243 535 296 535 Q384 535 432 481 Q475 434 475 358 L475 0 L433 0 L433 356 Q433 428 389 467 Q351 500 287 500 Q218 500 168 446 Q121 396 121 324 L121 0 Z M413 700 L413 660 Q374 631 338 631 Q309 631 277 649 Q250 663 230 663 Q196 663 156 631 L156 671 Q195 700 231 700 Q260 700 292 682 Q319 668 339 668 Q373 668 413 700 Z " />
<glyph glyph-name="oacute" unicode="&#xf3;" horiz-adv-x="567" d="M284 535 Q398 535 460 456 Q518 383 518 260 Q518 120 443 46 Q382 -15 286 -15 Q174 -15 109 65 Q49 139 49 260 Q49 401 125 475 Q188 535 284 535 Z M284 501 Q191 501 140 432 Q92 369 92 260 Q92 137 155 72 Q205 19 284 19 Q377 19 429 88 Q476 151 476 260 Q476 385 415 449 Q364 501 284 501 Z M244 598 L347 735 L406 735 L283 598 L244 598 Z " />
<glyph glyph-name="ograve" unicode="&#xf2;" horiz-adv-x="567" d="M284 535 Q398 535 460 456 Q518 383 518 260 Q518 120 443 46 Q382 -15 286 -15 Q174 -15 109 65 Q49 139 49 260 Q49 401 125 475 Q188 535 284 535 Z M284 501 Q191 501 140 432 Q92 369 92 260 Q92 137 155 72 Q205 19 284 19 Q377 19 429 88 Q476 151 476 260 Q476 385 415 449 Q364 501 284 501 Z M219 735 L322 598 L284 598 L160 735 L219 735 Z " />
<glyph glyph-name="ocircumflex" unicode="&#xf4;" horiz-adv-x="567" d="M284 535 Q398 535 460 456 Q518 383 518 260 Q518 120 443 46 Q382 -15 286 -15 Q174 -15 109 65 Q49 139 49 260 Q49 401 125 475 Q188 535 284 535 Z M284 501 Q191 501 140 432 Q92 369 92 260 Q92 137 155 72 Q205 19 284 19 Q377 19 429 88 Q476 151 476 260 Q476 385 415 449 Q364 501 284 501 Z M308 735 L413 598 L373 598 L283 708 L195 598 L154 598 L260 735 L308 735 Z " />
<glyph glyph-name="odieresis" unicode="&#xf6;" horiz-adv-x="567" d="M284 535 Q398 535 460 456 Q518 383 518 260 Q518 120 443 46 Q382 -15 286 -15 Q174 -15 109 65 Q49 139 49 260 Q49 401 125 475 Q188 535 284 535 Z M284 501 Q191 501 140 432 Q92 369 92 260 Q92 137 155 72 Q205 19 284 19 Q377 19 429 88 Q476 151 476 260 Q476 385 415 449 Q364 501 284 501 Z M210 659 L159 659 L159 720 L210 720 L210 659 Z M409 659 L358 659 L358 720 L409 720 L409 659 Z " />
<glyph glyph-name="otilde" unicode="&#xf5;" horiz-adv-x="567" d="M284 535 Q398 535 460 456 Q518 383 518 260 Q518 120 443 46 Q382 -15 286 -15 Q174 -15 109 65 Q49 139 49 260 Q49 401 125 475 Q188 535 284 535 Z M284 501 Q191 501 140 432 Q92 369 92 260 Q92 137 155 72 Q205 19 284 19 Q377 19 429 88 Q476 151 476 260 Q476 385 415 449 Q364 501 284 501 Z M411 700 L411 660 Q372 631 336 631 Q307 631 275 649 Q248 663 228 663 Q194 663 154 631 L154 671 Q193 700 229 700 Q258 700 290 682 Q317 668 337 668 Q371 668 411 700 Z " />
<glyph glyph-name="uacute" unicode="&#xfa;" horiz-adv-x="544" d="M74 520 L116 520 L116 165 Q116 89 160 51 Q197 20 260 20 Q334 20 382 78 Q423 128 423 200 L423 520 L465 520 L465 0 L430 0 L425 90 Q397 35 342 7 Q300 -15 251 -15 Q166 -15 118 36 Q74 83 74 164 L74 520 Z M227 598 L330 735 L389 735 L266 598 L227 598 Z " />
<glyph glyph-name="ugrave" unicode="&#xf9;" horiz-adv-x="544" d="M74 520 L116 520 L116 165 Q116 89 160 51 Q197 20 260 20 Q334 20 382 78 Q423 128 423 200 L423 520 L465 520 L465 0 L430 0 L425 90 Q397 35 342 7 Q300 -15 251 -15 Q166 -15 118 36 Q74 83 74 164 L74 520 Z M209 735 L312 598 L274 598 L150 735 L209 735 Z " />
<glyph glyph-name="ucircumflex" unicode="&#xfb;" horiz-adv-x="544" d="M74 520 L116 520 L116 165 Q116 89 160 51 Q197 20 260 20 Q334 20 382 78 Q423 128 423 200 L423 520 L465 520 L465 0 L430 0 L425 90 Q397 35 342 7 Q300 -15 251 -15 Q166 -15 118 36 Q74 83 74 164 L74 520 Z M294 735 L399 598 L359 598 L269 708 L181 598 L140 598 L246 735 L294 735 Z " />
<glyph glyph-name="udieresis" unicode="&#xfc;" horiz-adv-x="544" d="M74 520 L116 520 L116 165 Q116 89 160 51 Q197 20 260 20 Q334 20 382 78 Q423 128 423 200 L423 520 L465 520 L465 0 L430 0 L425 90 Q397 35 342 7 Q300 -15 251 -15 Q166 -15 118 36 Q74 83 74 164 L74 520 Z M196 659 L145 659 L145 720 L196 720 L196 659 Z M395 659 L344 659 L344 720 L395 720 L395 659 Z " />
<glyph glyph-name="dagger" unicode="&#x2020;" horiz-adv-x="600" d="M279 720 L321 720 L321 510 L521 510 L521 471 L321 471 L321 0 L279 0 L279 471 L79 471 L79 510 L279 510 L279 720 Z " />
<glyph glyph-name="degree" unicode="&#xb0;" horiz-adv-x="558" d="M212 710 Q282 710 327 664 Q369 621 369 552 Q369 473 315 428 Q272 393 212 393 Q142 393 98 439 Q56 483 56 552 Q56 631 110 675 Q152 710 212 710 Z M212 677 Q158 677 126 640 Q96 606 96 552 Q96 490 134 456 Q165 427 212 427 Q267 427 299 464 Q328 498 328 552 Q328 614 290 648 Q259 677 212 677 Z " />
<glyph glyph-name="cent" unicode="&#xa2;" horiz-adv-x="600" d="M285 -135 L285 -13 Q187 -4 132 72 Q81 143 81 256 Q81 389 148 465 Q202 525 285 534 L285 660 L325 660 L325 534 Q406 530 458 482 Q504 441 516 379 L472 379 Q462 438 413 471 Q370 500 311 500 Q222 500 171 431 Q123 366 123 254 Q123 132 186 70 Q235 21 310 21 Q379 21 426 62 Q467 96 476 149 L519 149 Q505 75 447 31 Q396 -9 325 -13 L325 -135 L285 -135 Z " />
<glyph glyph-name="sterling" unicode="&#xa3;" horiz-adv-x="600" d="M391 369 L391 333 L170 333 L170 159 Q170 74 118 38 L507 38 L507 0 L59 0 L59 38 Q130 64 130 146 L130 333 L84 333 L84 369 L130 369 L130 525 Q130 621 188 672 Q237 715 315 715 Q389 715 441 670 Q486 632 499 575 L459 575 Q447 624 404 653 Q365 679 314 679 Q240 679 203 633 Q170 593 170 524 L170 369 L391 369 Z " />
<glyph glyph-name="section" unicode="&#xa7;" horiz-adv-x="600" d="M114 19 L160 19 Q171 -14 209 -35.5 Q247 -57 294 -57 Q355 -57 392 -24 Q422 3 422 41 Q422 82 392 108 Q362 134 287 159 Q178 193 136 235 Q101 269 101 319 Q101 374 141 412 Q175 444 234 458 Q139 502 139 580 Q139 644 190 682 Q236 715 309 715 Q378 715 428 679 Q469 649 481 606 L436 606 Q425 640 390 660.5 Q355 681 308 681 Q244 681 208 648 Q179 621 179 583 Q179 541 209 515 Q239 489 314 466 Q423 432 465 390 Q499 356 499 305 Q499 250 459 212 Q425 181 366 165 Q462 120 462 45 Q462 -21 408 -59 Q363 -90 293 -90 Q223 -90 170 -53 Q127 -23 114 19 Z M289 437 L272 442 Q142 413 142 322 Q142 272 184 243 Q218 219 307 189 L328 182 Q458 213 458 302 Q458 353 416 383 Q381 406 289 437 Z " />
<glyph glyph-name="bullet" unicode="&#x2022;" horiz-adv-x="295" d="M209 258 L88 258 L88 378 L209 378 L209 258 Z " />
<glyph glyph-name="paragraph" unicode="&#xb6;" horiz-adv-x="554" d="M259 -180 L221 -180 L221 393 Q166 393 120 434 Q69 479 69 556 Q69 643 133 689 Q175 720 221 720 L259 720 L259 -180 Z M408 720 L447 720 L447 -180 L408 -180 L408 720 Z " />
<glyph glyph-name="germandbls" unicode="&#xdf;" horiz-adv-x="550" d="M186 90 L231 90 Q240 57 272 38.5 Q304 20 352 20 Q409 20 445 57 Q477 91 477 141 Q477 186 453.5 217 Q430 248 372 279 Q316 309 295 335.5 Q274 362 274 403 Q274 427 284 443.5 Q294 460 332 497 Q359 523 369 543 Q380 564 380 589 Q380 646 340 675 Q306 700 253 700 Q190 700 156 662 Q121 623 121 548 L121 0 L79 0 L79 546 Q79 641 129 690 Q174 735 253 735 Q331 735 377 695 Q421 657 421 591 Q421 558 407 534 Q393 510 350 467 Q312 429 312 404 Q312 376 330.5 354.5 Q349 333 393 310 Q459 276 490 236 Q521 196 521 145 Q521 73 468 27 Q420 -15 349 -15 Q279 -15 234 18 Q198 46 186 90 Z " />
<glyph glyph-name="registered" unicode="&#xae;" horiz-adv-x="617" d="M308 730 Q407 730 474 665 Q542 600 542 493 Q542 371 456 305 Q392 255 308 255 Q210 255 142 320 Q74 386 74 493 Q74 615 160 681 Q224 730 308 730 Z M308 703 Q219 703 161 642 Q105 585 105 493 Q105 388 176 329 Q232 283 308 283 Q397 283 455 344 Q511 401 511 493 Q511 598 440 657 Q384 703 308 703 Z M411 366 L377 366 L316 469 L261 469 L261 366 L233 366 L233 624 L310 624 Q353 624 377 603 Q400 584 400 549 Q400 493 345 475 L411 366 Z M261 493 L313 493 Q338 493 354.5 509 Q371 525 371 549 Q371 573 355 586.5 Q339 600 310 600 L261 600 L261 493 Z " />
<glyph glyph-name="copyright" unicode="&#xa9;" horiz-adv-x="847" d="M423 735 Q517 735 596 696 Q683 653 732 574 Q787 484 787 360 Q787 165 657 62 Q559 -15 423 -15 Q329 -15 250 24 Q163 66 114 146 Q59 236 59 360 Q59 555 188 658 Q286 735 423 735 Z M423 702 Q338 702 266 666 Q189 628 145 555 Q96 474 96 360 Q96 182 211 89 Q299 18 423 18 Q508 18 580 54 Q657 93 701 166 Q750 247 750 360 Q750 538 635 631 Q547 702 423 702 Z M547 281 L586 281 Q575 220 526 185 Q483 154 422 154 Q341 154 292 213 Q246 269 246 361 Q246 470 306 528 Q353 574 423 574 Q491 574 536 536 Q574 504 584 452 L544 452 Q535 496 499 520 Q468 541 424 541 Q359 541 321 490 Q285 442 285 360 Q285 270 332 224 Q369 188 423 188 Q475 188 510 217 Q539 242 547 281 Z " />
<glyph glyph-name="trademark" unicode="&#x2122;" horiz-adv-x="822" d="M571 324 L538 324 L401 681 L401 324 L367 324 L367 688 L220 688 L220 324 L185 324 L185 688 L34 688 L34 720 L421 720 L555 367 L686 720 L738 720 L738 324 L703 324 L703 681 L571 324 Z " />
<glyph glyph-name="acute" unicode="&#xb4;" horiz-adv-x="222" d="M30 598 L133 735 L192 735 L69 598 L30 598 Z " />
<glyph glyph-name="dieresis" unicode="&#xa8;" horiz-adv-x="372" d="M108 659 L57 659 L57 720 L108 720 L108 659 Z M307 659 L256 659 L256 720 L307 720 L307 659 Z " />
<glyph glyph-name="notequal" unicode="&#x2260;" horiz-adv-x="600" d="M500 234 L500 200 L244 200 L142 40 L102 40 L203 200 L100 200 L100 234 L225 234 L337 410 L100 410 L100 444 L358 444 L458 600 L498 600 L399 444 L500 444 L500 410 L377 410 L265 234 L500 234 Z " />
<glyph glyph-name="AE" unicode="&#xc6;" horiz-adv-x="922" d="M835 385 L835 348 L507 348 L507 38 L864 38 L864 0 L464 0 L464 210 L173 210 L45 0 L0 0 L437 720 L864 720 L864 683 L507 683 L507 385 L835 385 Z M196 247 L464 247 L464 690 L196 247 Z " />
<glyph glyph-name="Oslash" unicode="&#xd8;" horiz-adv-x="747" d="M564 820 L521 699 Q606 654 651 561 Q693 474 693 359 Q693 169 587 67 Q501 -15 373 -15 Q320 -15 263 3 L222 -110 L182 -110 L229 19 Q142 63 97 156 Q54 242 54 359 Q54 548 161 651 Q247 735 373 735 Q432 735 486 715 L525 820 L564 820 Z M243 55 L473 679 Q427 697 373 697 Q243 697 168 599 Q98 508 98 359 Q98 239 144 157 Q181 90 243 55 Z M506 663 L276 40 Q324 22 373 22 Q500 22 576 115 Q649 205 649 359 Q649 476 605 559 Q568 627 506 663 Z " />
<glyph glyph-name="infinity" unicode="&#x221e;" horiz-adv-x="720" d="M201 523 Q255 523 299 491 Q340 461 362 409 Q405 523 522 523 Q607 523 654 462 Q690 415 690 350 Q690 277 643 227 Q595 177 519 177 Q464 177 421 209 Q380 239 358 290 Q315 177 198 177 Q113 177 66 238 Q30 285 30 350 Q30 423 77 473 Q125 523 201 523 Z M519 211 Q588 211 624 258 Q652 295 652 350 Q652 412 614 452 Q578 489 521 489 Q448 489 407 432 Q379 394 374 343 Q379 303 413 262 Q455 211 519 211 Z M201 489 Q132 489 96 442 Q68 405 68 350 Q68 288 106 248 Q142 211 199 211 Q272 211 313 268 Q341 306 346 357 Q341 397 307 438 Q265 489 201 489 Z " />
<glyph glyph-name="plusminus" unicode="&#xb1;" horiz-adv-x="600" d="M279 523 L320 523 L320 341 L501 341 L501 303 L320 303 L320 134 L279 134 L279 303 L99 303 L99 341 L279 341 L279 523 Z M501 39 L501 0 L99 0 L99 39 L501 39 Z " />
<glyph glyph-name="lessequal" unicode="&#x2264;" horiz-adv-x="600" d="M142 333 L142 332 L500 175 L500 135 L100 318 L100 347 L500 540 L500 500 L142 333 Z M500 34 L500 0 L100 0 L100 34 L500 34 Z " />
<glyph glyph-name="greaterequal" unicode="&#x2265;" horiz-adv-x="600" d="M458 332 L458 333 L100 500 L100 540 L500 347 L500 318 L100 135 L100 175 L458 332 Z M100 0 L100 34 L500 34 L500 0 L100 0 Z " />
<glyph glyph-name="yen" unicode="&#xa5;" horiz-adv-x="600" d="M473 184 L473 148 L322 148 L322 0 L279 0 L279 148 L129 148 L129 184 L279 184 L279 283 L129 283 L129 319 L257 319 L13 700 L60 700 L300 322 L544 700 L588 700 L344 319 L473 319 L473 283 L322 283 L322 184 L473 184 Z " />
<glyph glyph-name="mu" unicode="&#xb5;" horiz-adv-x="549" d="M79 520 L121 520 L121 165 Q121 89 166 51 Q203 20 265 20 Q339 20 387 78 Q428 128 428 200 L428 520 L470 520 L470 0 L435 0 L430 89 Q402 34 347 7 Q304 -15 256 -15 Q165 -15 121 41 L121 -180 L79 -180 L79 520 Z " />
<glyph glyph-name="partialdiff" unicode="&#x2202;" horiz-adv-x="536" d="M133 696 L142 725 Q290 698 380 607 Q486 498 486 313 Q486 -15 260 -15 Q156 -15 99 66 Q50 134 50 237 Q50 348 109 415 Q165 478 255 478 Q338 478 392 428 Q434 390 449 335 Q439 636 133 696 Z M446 226 L446 237 Q446 324 394 385 Q342 446 261 446 Q178 446 132 390 Q87 334 87 234 Q87 133 139 73 Q186 18 260 18 Q350 18 396 77 Q435 128 446 226 Z " />
<glyph glyph-name="summation" unicode="&#x2211;" horiz-adv-x="641" d="M75 -138 L330 275 L75 688 L75 720 L591 720 L591 688 L114 688 L369 275 L114 -138 L591 -138 L591 -170 L75 -170 L75 -138 Z " />
<glyph glyph-name="product" unicode="&#x220f;" horiz-adv-x="600" d="M140 0 L104 0 L104 668 L45 668 L45 700 L555 700 L555 668 L494 668 L494 0 L458 0 L458 668 L140 668 L140 0 Z " />
<glyph glyph-name="pi" unicode="&#x3c0;" horiz-adv-x="604" d="M162 0 L121 0 L121 483 L41 483 L41 520 L562 520 L562 483 L483 483 L483 0 L441 0 L441 483 L162 483 L162 0 Z " />
<glyph glyph-name="integral" unicode="&#x222b;" horiz-adv-x="600" d="M118 -189 L118 -160 Q162 -165 197 -165 Q235 -165 258 -142 Q282 -118 282 -75 L282 804 Q282 863 321 897 Q354 925 403 925 Q436 925 482 919 L482 890 Q438 895 403 895 Q365 895 342 872 Q318 848 318 805 L318 -74 Q318 -133 279 -167 Q246 -195 197 -195 Q164 -195 118 -189 Z " />
<glyph glyph-name="ordfeminine" unicode="&#xaa;" horiz-adv-x="440" d="M123 638 L88 638 Q96 687 141 713 Q177 734 226 734 Q293 734 329 696 Q361 663 361 607 L361 307 L335 307 L329 374 Q288 299 200 299 Q141 299 106 336 Q74 368 74 419 Q74 520 217 546 L328 566 L328 609 Q328 659 298 685 Q271 708 223 708 Q179 708 151 686 Q126 667 123 638 Z M328 449 L328 537 L229 519 Q168 508 139 486 Q108 462 108 421 Q108 373 139 348 Q165 327 209 327 Q261 327 297 370 Q328 406 328 449 Z M371 34 L371 0 L69 0 L69 34 L371 34 Z " />
<glyph glyph-name="ordmasculine" unicode="&#xba;" horiz-adv-x="394" d="M198 734 Q278 734 319 674 Q358 618 358 515 Q358 400 307 344 Q266 299 199 299 Q120 299 78 358 Q37 415 37 515 Q37 630 88 687 Q129 734 198 734 Z M198 703 Q142 703 109 654 Q76 605 76 515 Q76 413 118 366 Q149 331 198 331 Q255 331 287 378 Q319 425 319 515 Q319 618 278 666 Q247 703 198 703 Z M343 39 L343 0 L41 0 L41 39 L343 39 Z " />
<glyph glyph-name="Omega" unicode="&#x2126;" horiz-adv-x="747" d="M420 0 L420 39 Q528 43 588 125 Q649 208 649 362 Q649 531 559 622 Q486 697 373 697 Q237 697 164 599 Q98 512 98 362 Q98 199 173 112 Q231 45 319 39 L326 39 L326 0 L93 0 L93 39 L213 39 Q137 81 94 170 Q54 253 54 362 Q54 557 161 656 Q245 735 373 735 Q462 735 533 692 Q607 648 649 566 Q693 479 693 362 Q693 232 642 143 Q602 73 536 39 L653 39 L653 0 L420 0 Z " />
<glyph glyph-name="ae" unicode="&#xe6;" horiz-adv-x="927" d="M817 144 L861 144 Q840 65 776 22 Q721 -15 649 -15 Q573 -15 514 25 Q456 64 429 134 Q411 66 357 26 Q303 -15 222 -15 Q141 -15 93 26 Q49 64 49 128 Q49 198 101 236 Q152 274 255 285 L407 302 L407 372 Q407 435 362 470 Q323 501 259 501 Q192 501 149 465 Q112 434 107 388 L65 388 Q72 458 132 499 Q185 535 261 535 Q334 535 383 499 Q426 467 440 413 Q474 478 534 510 Q582 535 638 535 Q741 535 805 465 Q868 394 871 270 L447 270 L447 249 Q448 131 519 68 Q573 20 650 20 Q712 20 759 55 Q802 88 817 144 Z M407 268 L269 253 Q167 242 125 206 Q92 178 92 131 Q92 73 136 44 Q173 20 233 20 Q303 20 356 69 Q404 113 407 176 L407 268 Z M450 305 L827 305 Q817 402 760 455 Q711 501 638 501 Q560 501 507 443 Q460 390 450 305 Z " />
<glyph glyph-name="oslash" unicode="&#xf8;" horiz-adv-x="567" d="M97 -110 L156 22 Q49 93 49 260 Q49 401 125 475 Q188 535 284 535 Q336 535 378 517 L429 630 L470 630 L412 500 Q518 430 518 260 Q518 120 443 46 Q382 -15 286 -15 Q235 -15 189 4 L138 -110 L97 -110 Z M395 465 L204 36 Q241 19 284 19 Q377 19 428 88 Q476 151 476 260 Q476 403 395 465 Z M172 56 L364 484 Q327 501 284 501 Q191 501 140 432 Q92 369 92 260 Q92 118 172 56 Z " />
<glyph glyph-name="questiondown" unicode="&#xbf;" horiz-adv-x="501" d="M401 -31 L445 -31 Q431 -109 370 -154 Q315 -196 236 -196 Q144 -196 88 -144 Q40 -100 40 -38 Q40 5 61.5 42 Q83 79 147 145 L174 173 Q210 210 219.5 239 Q229 268 229 338 L271 338 Q271 254 257.5 219 Q244 184 193 134 Q124 68 105 38 Q82 3 82 -38 Q82 -92 130 -128 Q173 -161 237 -161 Q305 -161 351 -120 Q390 -85 401 -31 Z M220 539 L279 539 L279 470 L220 470 L220 539 Z " />
<glyph glyph-name="exclamdown" unicode="&#xa1;" horiz-adv-x="253" d="M103 318 L145 318 L147 -180 L101 -180 L103 318 Z M97 540 L157 540 L157 471 L97 471 L97 540 Z " />
<glyph glyph-name="logicalnot" unicode="&#xac;" horiz-adv-x="600" d="M99 341 L501 341 L501 121 L460 121 L460 303 L99 303 L99 341 Z " />
<glyph glyph-name="radical" unicode="&#x221a;" horiz-adv-x="596" d="M267 0 L219 0 L30 460 L68 460 L243 32 L488 802 L646 802 L646 770 L515 770 L267 0 Z " />
<glyph glyph-name="florin" unicode="&#x192;" horiz-adv-x="294" d="M299 721 L299 686 Q258 699 223 699 Q148 699 148 612 L148 519 L273 519 L273 483 L148 483 L148 -180 L106 -180 L106 483 L29 483 L29 519 L106 519 L106 610 Q106 672 142 705 Q172 733 222 733 Q262 733 299 721 Z " />
<glyph glyph-name="approxequal" unicode="&#x2248;" horiz-adv-x="600" d="M100 396 L100 437 Q151 477 205 477 Q230 477 252 470.5 Q274 464 311 445 Q363 418 396 418 Q423 418 446 429 Q469 440 500 467 L500 426 Q449 386 395 386 Q370 386 348 392.5 Q326 399 289 418 Q237 445 204 445 Q177 445 154 434 Q131 423 100 396 Z M100 192 L100 233 Q151 273 205 273 Q230 273 252 266.5 Q274 260 311 241 Q363 214 396 214 Q423 214 446 225 Q469 236 500 263 L500 222 Q449 182 395 182 Q370 182 348 188.5 Q326 195 289 214 Q237 241 204 241 Q177 241 154 230 Q131 219 100 192 Z " />
<glyph glyph-name="increment" unicode="&#x2206;" horiz-adv-x="642" d="M632 0 L10 0 L296 720 L347 720 L632 0 Z M322 686 L61 32 L578 32 L322 686 Z " />
<glyph glyph-name="guillemotleft" unicode="&#xab;" horiz-adv-x="463" d="M174 90 L64 315 L184 520 L217 520 L113 313 L207 90 L174 90 Z M355 90 L246 315 L365 520 L399 520 L295 313 L389 90 L355 90 Z " />
<glyph glyph-name="guillemotright" unicode="&#xbb;" horiz-adv-x="463" d="M399 315 L289 90 L256 90 L349 313 L246 520 L279 520 L399 315 Z M217 315 L108 90 L74 90 L168 313 L64 520 L98 520 L217 315 Z " />
<glyph glyph-name="ellipsis" unicode="&#x2026;" horiz-adv-x="614" d="M162 0 L110 0 L110 69 L162 69 L162 0 Z M333 0 L281 0 L281 69 L333 69 L333 0 Z M504 0 L452 0 L452 69 L504 69 L504 0 Z " />
<glyph glyph-name="Agrave" unicode="&#xc0;" horiz-adv-x="648" d="M639 0 L591 0 L508 210 L138 210 L54 0 L9 0 L296 720 L353 720 L639 0 Z M325 680 L152 247 L494 247 L325 680 Z M267 905 L370 768 L331 768 L208 905 L267 905 Z " />
<glyph glyph-name="Atilde" unicode="&#xc3;" horiz-adv-x="648" d="M639 0 L591 0 L508 210 L138 210 L54 0 L9 0 L296 720 L353 720 L639 0 Z M325 680 L152 247 L494 247 L325 680 Z M453 870 L453 831 Q414 801 378 801 Q349 801 317 819 Q290 833 270 833 Q236 833 196 801 L196 841 Q237 871 271 871 Q300 871 332 853 Q359 838 379 838 Q413 838 453 870 Z " />
<glyph glyph-name="Otilde" unicode="&#xd5;" horiz-adv-x="747" d="M373 735 Q521 735 611 625 Q693 523 693 359 Q693 170 588 68 Q502 -15 373 -15 Q224 -15 136 95 Q54 196 54 359 Q54 546 159 650 Q246 735 373 735 Z M373 697 Q243 697 168 599 Q98 508 98 359 Q98 186 191 95 Q265 22 373 22 Q500 22 576 115 Q649 205 649 359 Q649 530 559 622 Q486 697 373 697 Z M502 870 L502 831 Q462 801 427 801 Q398 801 366 819 Q339 833 319 833 Q284 833 244 801 L244 841 Q286 871 320 871 Q349 871 381 853 Q408 838 428 838 Q462 838 502 870 Z " />
<glyph glyph-name="OE" unicode="&#x152;" horiz-adv-x="933" d="M873 38 L873 0 L474 0 Q427 -11 373 -11 Q224 -11 136 97 Q54 198 54 362 Q54 552 162 653 Q248 735 378 735 Q425 735 477 720 L873 720 L873 683 L517 683 L517 385 L845 385 L845 348 L517 348 L517 38 L873 38 Z M474 40 L474 682 Q432 698 378 698 Q246 698 169 600 Q98 510 98 362 Q98 189 189 99 Q262 27 373 27 Q435 27 474 40 Z " />
<glyph glyph-name="oe" unicode="&#x153;" horiz-adv-x="995" d="M939 250 L516 250 Q520 130 592 67 Q646 20 719 20 Q781 20 827 55 Q871 88 886 144 L930 144 Q909 64 844 21 Q789 -15 717 -15 Q641 -15 579 32 Q523 75 497 145 Q469 65 408 23 Q355 -15 286 -15 Q175 -15 110 65 Q49 139 49 260 Q49 399 126 474 Q189 535 284 535 Q364 535 423 487 Q473 445 497 377 Q527 456 591 499 Q645 535 706 535 Q811 535 874 462 Q938 387 939 250 Z M284 501 Q192 501 140 431 Q91 367 91 260 Q91 138 155 72 Q206 19 284 19 Q374 19 427 88 Q476 153 476 260 Q476 383 413 448 Q362 501 284 501 Z M516 285 L896 285 Q891 395 831 453 Q781 501 706 501 Q626 501 572 437 Q522 378 516 285 Z " />
<glyph glyph-name="endash" unicode="&#x2013;" horiz-adv-x="545" d="M474 341 L474 303 L72 303 L72 341 L474 341 Z " />
<glyph glyph-name="emdash" unicode="&#x2014;" horiz-adv-x="605" d="M603 341 L603 303 L3 303 L3 341 L603 341 Z " />
<glyph glyph-name="quotedblleft" unicode="&#x201c;" horiz-adv-x="404" d="M105 515 L105 579 Q105 692 201 720 L201 689 Q172 677 159 652.5 Q146 628 146 583 L167 583 L167 515 L105 515 Z M234 515 L234 579 Q234 693 331 720 L331 689 Q301 678 288 653 Q275 628 275 583 L295 583 L295 515 L234 515 Z " />
<glyph glyph-name="quotedblright" unicode="&#x201d;" horiz-adv-x="401" d="M170 720 L170 656 Q170 543 73 515 L73 546 Q103 557 116 582 Q129 607 129 651 L108 651 L108 720 L170 720 Z M299 720 L299 656 Q299 542 202 515 L202 546 Q232 557 245 582 Q258 607 258 651 L237 651 L237 720 L299 720 Z " />
<glyph glyph-name="quoteleft" unicode="&#x2018;" horiz-adv-x="272" d="M102 515 L102 579 Q102 693 199 720 L199 689 Q169 678 156 653 Q143 628 143 583 L164 583 L164 515 L102 515 Z " />
<glyph glyph-name="quoteright" unicode="&#x2019;" horiz-adv-x="272" d="M170 720 L170 656 Q170 543 73 515 L73 546 Q103 557 116 582 Q129 607 129 651 L108 651 L108 720 L170 720 Z " />
<glyph glyph-name="divide" unicode="&#xf7;" horiz-adv-x="600" d="M328 64 L272 64 L272 132 L328 132 L328 64 Z M328 511 L272 511 L272 580 L328 580 L328 511 Z M501 341 L501 303 L99 303 L99 341 L501 341 Z " />
<glyph glyph-name="lozenge" unicode="&#x25ca;" horiz-adv-x="600" d="M476 350 L299 671 L124 350 L301 27 L476 350 Z M517 350 L323 0 L277 0 L83 350 L277 700 L323 700 L517 350 Z " />
<glyph glyph-name="ydieresis" unicode="&#xff;" horiz-adv-x="492" d="M473 520 L288 -3 Q242 -132 220 -161 Q195 -195 149 -195 Q127 -195 97 -185 L97 -151 Q123 -160 149 -160 Q179 -160 196 -132.5 Q213 -105 248 0 L229 0 L19 520 L64 520 L259 31 L431 520 L473 520 Z M175 659 L124 659 L124 720 L175 720 L175 659 Z M374 659 L323 659 L323 720 L374 720 L374 659 Z " />
<glyph glyph-name="Ydieresis" unicode="&#x178;" horiz-adv-x="621" d="M9 720 L55 720 L309 322 L567 720 L611 720 L331 281 L331 0 L288 0 L288 283 L9 720 Z M235 829 L184 829 L184 890 L235 890 L235 829 Z M434 829 L383 829 L383 890 L434 890 L434 829 Z " />
<glyph glyph-name="fraction" unicode="&#x2044;" horiz-adv-x="240" d="M-68 -90 L-108 -90 L302 790 L343 790 L-68 -90 Z " />
<glyph glyph-name="Euro" unicode="&#x20ac;" horiz-adv-x="600" d="M533 154 L576 154 Q559 70 491 24 Q433 -15 350 -15 Q245 -15 181 56 Q118 126 104 260 L25 260 L34 296 L101 296 Q99 313 99 350 Q99 389 101 407 L25 407 L34 443 L104 443 Q120 596 199 664 Q258 715 348 715 Q444 715 506 664 Q560 619 574 546 L532 546 Q517 614 463 648 Q416 678 346 678 Q173 678 148 443 L458 443 L449 407 L145 407 Q143 389 143 350 Q143 313 145 296 L418 296 L409 260 L148 260 Q161 126 227 66 Q277 21 352 21 Q431 21 479 60 Q520 94 533 154 Z " />
<glyph glyph-name="guilsinglleft" unicode="&#x2039;" horiz-adv-x="282" d="M174 90 L64 315 L184 520 L217 520 L113 313 L207 90 L174 90 Z " />
<glyph glyph-name="guilsinglright" unicode="&#x203a;" horiz-adv-x="282" d="M217 315 L108 90 L74 90 L168 313 L64 520 L98 520 L217 315 Z " />
<glyph glyph-name="fi" unicode="&#xfb01;" horiz-adv-x="544" d="M465 0 L423 0 L423 484 L148 484 L148 0 L106 0 L106 484 L29 484 L29 520 L106 520 L106 602 Q106 670 150 704 Q189 734 257 734 Q314 734 381 716 L381 681 Q313 700 259 700 Q198 700 172 674 Q148 650 148 603 L148 520 L465 520 L465 0 Z " />
<glyph glyph-name="fl" unicode="&#xfb02;" horiz-adv-x="545" d="M466 0 L425 0 L425 678 Q349 700 277 700 Q201 700 172 665 Q148 636 148 576 L148 520 L268 520 L268 484 L148 484 L148 0 L106 0 L106 484 L29 484 L29 520 L106 520 L106 574 Q106 657 148 695 Q189 734 276 734 Q353 734 426 714 L466 720 L466 0 Z " />
<glyph glyph-name="daggerdbl" unicode="&#x2021;" horiz-adv-x="600" d="M279 720 L321 720 L321 528 L521 528 L521 489 L321 489 L321 229 L521 229 L521 190 L321 190 L321 0 L279 0 L279 190 L79 190 L79 229 L279 229 L279 489 L79 489 L79 528 L279 528 L279 720 Z " />
<glyph glyph-name="periodcentered" unicode="&#xb7;" horiz-adv-x="280" d="M170 286 L110 286 L110 355 L170 355 L170 286 Z " />
<glyph glyph-name="quotesinglbase" unicode="&#x201a;" horiz-adv-x="272" d="M170 68 L170 4 Q170 -110 73 -136 L73 -106 Q103 -94 116 -69 Q129 -44 129 0 L108 0 L108 68 L170 68 Z " />
<glyph glyph-name="quotedblbase" unicode="&#x201e;" horiz-adv-x="401" d="M170 68 L170 4 Q170 -110 73 -136 L73 -106 Q103 -94 116 -69 Q129 -44 129 0 L108 0 L108 68 L170 68 Z M299 68 L299 4 Q299 -109 202 -136 L202 -106 Q232 -94 245 -69 Q258 -44 258 0 L237 0 L237 68 L299 68 Z " />
<glyph glyph-name="perthousand" unicode="&#x2030;" horiz-adv-x="1196" d="M591 700 L272 0 L232 0 L551 700 L591 700 Z M218 715 Q292 715 337 667 Q380 622 380 546 Q380 460 326 414 Q282 377 218 377 Q144 377 99 425 Q57 470 57 546 Q57 632 111 678 Q154 715 218 715 Z M218 682 Q161 682 128 645 Q95 609 95 546 Q95 474 137 438 Q169 410 218 410 Q274 410 308 447 Q342 483 342 546 Q342 617 299 654 Q266 682 218 682 Z M607 323 Q681 323 726 275 Q769 230 769 154 Q769 68 715 22 Q671 -15 607 -15 Q533 -15 488 33 Q446 78 446 154 Q446 240 500 286 Q543 323 607 323 Z M607 291 Q550 291 517 254 Q484 218 484 154 Q484 82 526 46 Q558 18 607 18 Q664 18 697 55 Q731 91 731 154 Q731 226 689 263 Q656 291 607 291 Z M988 323 Q1062 323 1107 275 Q1150 230 1150 154 Q1150 68 1096 22 Q1052 -15 988 -15 Q914 -15 869 33 Q827 78 827 154 Q827 240 881 286 Q924 323 988 323 Z M988 291 Q931 291 898 254 Q865 218 865 154 Q865 82 907 46 Q939 18 988 18 Q1044 18 1078 55 Q1112 91 1112 154 Q1112 226 1069 263 Q1036 291 988 291 Z " />
<glyph glyph-name="Acircumflex" unicode="&#xc2;" horiz-adv-x="648" d="M639 0 L591 0 L508 210 L138 210 L54 0 L9 0 L296 720 L353 720 L639 0 Z M325 680 L152 247 L494 247 L325 680 Z M349 905 L454 768 L414 768 L324 878 L236 768 L195 768 L301 905 L349 905 Z " />
<glyph glyph-name="Ecircumflex" unicode="&#xca;" horiz-adv-x="562" d="M474 385 L474 348 L127 348 L127 38 L503 38 L503 0 L84 0 L84 720 L503 720 L503 683 L127 683 L127 385 L474 385 Z M321 905 L425 768 L385 768 L296 878 L207 768 L166 768 L272 905 L321 905 Z " />
<glyph glyph-name="Aacute" unicode="&#xc1;" horiz-adv-x="648" d="M639 0 L591 0 L508 210 L138 210 L54 0 L9 0 L296 720 L353 720 L639 0 Z M325 680 L152 247 L494 247 L325 680 Z M271 768 L374 905 L433 905 L309 768 L271 768 Z " />
<glyph glyph-name="Edieresis" unicode="&#xcb;" horiz-adv-x="562" d="M474 385 L474 348 L127 348 L127 38 L503 38 L503 0 L84 0 L84 720 L503 720 L503 683 L127 683 L127 385 L474 385 Z M212 829 L161 829 L161 890 L212 890 L212 829 Z M411 829 L360 829 L360 890 L411 890 L411 829 Z " />
<glyph glyph-name="Egrave" unicode="&#xc8;" horiz-adv-x="562" d="M474 385 L474 348 L127 348 L127 38 L503 38 L503 0 L84 0 L84 720 L503 720 L503 683 L127 683 L127 385 L474 385 Z M255 905 L358 768 L319 768 L196 905 L255 905 Z " />
<glyph glyph-name="Iacute" unicode="&#xcd;" horiz-adv-x="211" d="M84 720 L127 720 L127 0 L84 0 L84 720 Z M56 768 L159 905 L218 905 L95 768 L56 768 Z " />
<glyph glyph-name="Icircumflex" unicode="&#xce;" horiz-adv-x="211" d="M84 720 L127 720 L127 0 L84 0 L84 720 Z M130 905 L235 768 L195 768 L105 878 L17 768 L-24 768 L82 905 L130 905 Z " />
<glyph glyph-name="Idieresis" unicode="&#xcf;" horiz-adv-x="211" d="M84 720 L126 720 L126 0 L84 0 L84 720 Z M31 829 L-20 829 L-20 890 L31 890 L31 829 Z M230 829 L179 829 L179 890 L230 890 L230 829 Z " />
<glyph glyph-name="Igrave" unicode="&#xcc;" horiz-adv-x="211" d="M84 720 L127 720 L127 0 L84 0 L84 720 Z M51 905 L154 768 L116 768 L-8 905 L51 905 Z " />
<glyph glyph-name="Oacute" unicode="&#xd3;" horiz-adv-x="747" d="M373 735 Q521 735 611 625 Q693 523 693 359 Q693 170 588 68 Q502 -15 373 -15 Q224 -15 136 95 Q54 196 54 359 Q54 546 159 650 Q246 735 373 735 Z M373 697 Q243 697 168 599 Q98 508 98 359 Q98 186 191 95 Q265 22 373 22 Q500 22 576 115 Q649 205 649 359 Q649 530 559 622 Q486 697 373 697 Z M325 768 L428 905 L488 905 L364 768 L325 768 Z " />
<glyph glyph-name="Ocircumflex" unicode="&#xd4;" horiz-adv-x="747" d="M373 735 Q521 735 611 625 Q693 523 693 359 Q693 170 588 68 Q502 -15 373 -15 Q224 -15 136 95 Q54 196 54 359 Q54 546 159 650 Q246 735 373 735 Z M373 697 Q243 697 168 599 Q98 508 98 359 Q98 186 191 95 Q265 22 373 22 Q500 22 576 115 Q649 205 649 359 Q649 530 559 622 Q486 697 373 697 Z M397 905 L502 768 L462 768 L372 878 L284 768 L243 768 L349 905 L397 905 Z " />
<glyph glyph-name="Ograve" unicode="&#xd2;" horiz-adv-x="747" d="M373 735 Q521 735 611 625 Q693 523 693 359 Q693 170 588 68 Q502 -15 373 -15 Q224 -15 136 95 Q54 196 54 359 Q54 546 159 650 Q246 735 373 735 Z M373 697 Q243 697 168 599 Q98 508 98 359 Q98 186 191 95 Q265 22 373 22 Q500 22 576 115 Q649 205 649 359 Q649 530 559 622 Q486 697 373 697 Z M308 905 L411 768 L373 768 L249 905 L308 905 Z " />
<glyph glyph-name="Uacute" unicode="&#xda;" horiz-adv-x="701" d="M621 720 L621 235 Q621 121 540 50 Q465 -15 350 -15 Q216 -15 141 68 Q79 136 79 235 L79 720 L121 720 L121 234 Q121 134 195 74 Q258 22 350 22 Q456 22 522 89 Q580 148 580 234 L580 720 L621 720 Z M293 768 L396 905 L455 905 L332 768 L293 768 Z " />
<glyph glyph-name="Ucircumflex" unicode="&#xdb;" horiz-adv-x="701" d="M621 720 L621 235 Q621 121 540 50 Q465 -15 350 -15 Q216 -15 141 68 Q79 136 79 235 L79 720 L121 720 L121 234 Q121 134 195 74 Q258 22 350 22 Q456 22 522 89 Q580 148 580 234 L580 720 L621 720 Z M374 905 L479 768 L439 768 L349 878 L261 768 L220 768 L326 905 L374 905 Z " />
<glyph glyph-name="Ugrave" unicode="&#xd9;" horiz-adv-x="701" d="M621 720 L621 235 Q621 121 540 50 Q465 -15 350 -15 Q216 -15 141 68 Q79 136 79 235 L79 720 L121 720 L121 234 Q121 134 195 74 Q258 22 350 22 Q456 22 522 89 Q580 148 580 234 L580 720 L621 720 Z M302 905 L405 768 L366 768 L242 905 L302 905 Z " />
<glyph glyph-name="dotlessi" unicode="&#x131;" horiz-adv-x="191" d="M117 0 L75 0 L75 520 L117 520 L117 0 Z " />
<glyph glyph-name="circumflex" unicode="&#x2c6;" horiz-adv-x="318" d="M184 735 L289 598 L249 598 L159 708 L71 598 L30 598 L136 735 L184 735 Z " />
<glyph glyph-name="tilde" unicode="&#x2dc;" horiz-adv-x="317" d="M287 700 L287 660 Q248 631 212 631 Q183 631 151 649 Q124 663 104 663 Q70 663 30 631 L30 671 Q69 700 105 700 Q134 700 166 682 Q193 668 213 668 Q247 668 287 700 Z " />
<glyph glyph-name="overscore" unicode="&#xaf;" horiz-adv-x="294" d="M263 659 L30 659 L30 695 L263 695 L263 659 Z " />
<glyph glyph-name="breve" unicode="&#x2d8;" horiz-adv-x="317" d="M251 725 L288 725 Q283 659 246 625 Q213 594 159 593 Q97 594 62 634 Q33 668 29 725 L67 725 Q70 677 94 651 Q117 625 159 625 Q206 625 230 658 Q249 684 251 725 Z " />
<glyph glyph-name="dotaccent" unicode="&#x2d9;" horiz-adv-x="112" d="M82 658 L30 658 L30 720 L82 720 L82 658 Z " />
<glyph glyph-name="ring" unicode="&#x2da;" horiz-adv-x="293" d="M146 815 Q202 815 235 778 Q263 747 263 700 Q263 646 227 613 Q194 584 146 584 Q91 584 58 621 Q30 653 30 700 Q30 754 66 787 Q98 815 146 815 Z M146 786 Q108 786 85 761 Q65 737 65 700 Q65 657 91 634 Q113 614 146 614 Q185 614 207 639 Q228 662 228 700 Q228 743 202 766 Q180 786 146 786 Z " />
<glyph glyph-name="cedilla" unicode="&#xb8;" horiz-adv-x="278" d="M137 15 L137 -51 Q194 -57 223 -85 Q248 -108 248 -143 Q248 -186 213 -214 Q182 -239 138 -239 Q89 -239 58 -215 Q30 -193 25 -155 L62 -155 Q65 -179 85.5 -193 Q106 -207 139 -207 Q171 -207 191.5 -189 Q212 -171 212 -143 Q212 -78 99 -78 L106 15 L137 15 Z " />
<glyph glyph-name="hungarumlaut" unicode="&#x2dd;" horiz-adv-x="348" d="M30 598 L107 735 L163 735 L66 598 L30 598 Z M185 598 L262 735 L318 735 L221 598 L185 598 Z " />
<glyph glyph-name="ogonek" unicode="&#x2db;" horiz-adv-x="290" d="M221 -149 L260 -149 Q248 -189 215.5 -212.5 Q183 -236 140 -236 Q87 -236 57 -206 Q30 -179 30 -136 Q30 -84 82 -39 Q124 -2 187 19 L229 19 Q148 -16 109 -51 Q67 -88 67 -132 Q67 -166 86.5 -184.5 Q106 -203 142 -203 Q203 -203 221 -149 Z " />
<glyph glyph-name="caron" unicode="&#x2c7;" horiz-adv-x="318" d="M134 598 L30 735 L70 735 L159 625 L248 735 L288 735 L183 598 L134 598 Z " />
<glyph glyph-name="CR" unicode="&#xd;" horiz-adv-x="300" d="" />
<glyph glyph-name="nbspace" unicode="&#xa0;" horiz-adv-x="300" d="" />
<glyph glyph-name="currency" unicode="&#xa4;" horiz-adv-x="600" d="M58 127 L124 194 Q75 253 75 340 Q75 424 123 484 L58 549 L86 577 L150 512 Q214 570 299 570 Q385 570 450 511 L515 577 L543 549 L476 483 Q524 421 524 340 Q524 256 475 195 L543 127 L515 99 L447 166 Q383 110 299 110 Q216 110 151 165 L86 99 L58 127 Z M300 533 Q218 533 164 473 Q116 419 116 340 Q116 249 177 194 Q228 147 300 147 Q382 147 435 207 Q483 261 483 340 Q483 430 422 486 Q371 533 300 533 Z " />
<glyph glyph-name="brokenbar" unicode="&#xa6;" horiz-adv-x="342" d="M151 245 L190 245 L190 -140 L151 -140 L151 245 Z M151 785 L190 785 L190 400 L151 400 L151 785 Z " />
<glyph glyph-name="uni00AD" unicode="&#xad;" horiz-adv-x="540" d="M441 341 L441 303 L99 303 L99 341 L441 341 Z " />
<glyph glyph-name="twosuperior" unicode="&#xb2;" horiz-adv-x="404" d="M89 627 L47 627 Q56 685 102 717 Q143 745 201 745 Q269 745 308 708 Q343 676 343 624 Q343 586 322.5 552 Q302 518 243 458 L104 331 L340 331 L340 294 L52 294 L52 331 L219 490 Q266 537 283 565 Q300 593 300 624 Q300 709 200 709 Q149 709 119 684 Q94 662 89 627 Z " />
<glyph glyph-name="threesuperior" unicode="&#xb3;" horiz-adv-x="423" d="M94 635 L53 635 Q63 690 107 719 Q147 745 207 745 Q275 745 314 712 Q349 682 349 632 Q349 593 326 566 Q303 539 261 528 Q307 522 336 489 Q362 458 362 414 Q362 351 315 316 Q273 285 204 285 Q134 285 91 319 Q55 348 47 396 L89 396 Q106 320 204 320 Q263 320 293 349 Q319 373 319 414 Q319 464 286 489 Q258 509 214 509 L168 509 L168 544 L213 544 Q258 544 284 569 Q306 592 306 628 Q306 667 280 688 Q254 709 205 709 Q111 709 94 635 Z " />
<glyph glyph-name="onesuperior" unicode="&#xb9;" horiz-adv-x="229" d="M168 735 L168 294 L125 294 L125 693 L20 636 L20 677 L128 735 L168 735 Z " />
<glyph glyph-name="onequarter" unicode="&#xbc;" horiz-adv-x="828" d="M199 -90 L159 -90 L569 790 L610 790 L199 -90 Z M198 735 L198 294 L155 294 L155 693 L50 636 L50 677 L158 735 L198 735 Z M708 441 L708 118 L778 118 L778 83 L708 83 L708 0 L670 0 L670 83 L457 83 L457 123 L665 441 L708 441 Z M670 383 L493 118 L670 118 L670 383 Z " />
<glyph glyph-name="onehalf" unicode="&#xbd;" horiz-adv-x="869" d="M199 -90 L159 -90 L569 790 L610 790 L199 -90 Z M198 735 L198 294 L155 294 L155 693 L50 636 L50 677 L158 735 L198 735 Z M566 333 L523 333 Q532 391 578 423 Q619 451 677 451 Q745 451 784 414 Q819 382 819 330 Q819 291 798.5 257 Q778 223 719 164 L581 37 L817 37 L817 0 L529 0 L529 37 L695 196 Q743 244 760 271.5 Q777 299 777 330 Q777 373 749 395 Q723 416 677 416 Q627 416 596 390 Q571 368 566 333 Z " />
<glyph glyph-name="threequarters" unicode="&#xbe;" horiz-adv-x="930" d="M300 -90 L261 -90 L671 790 L711 790 L300 -90 Z M97 635 L56 635 Q66 690 110 719 Q150 745 210 745 Q278 745 317 712 Q352 682 352 632 Q352 593 329 566 Q306 539 264 528 Q310 522 339 489 Q365 458 365 414 Q365 351 318 316 Q276 285 207 285 Q137 285 94 319 Q58 348 50 396 L92 396 Q109 320 207 320 Q266 320 296 349 Q322 373 322 414 Q322 464 289 489 Q261 509 217 509 L171 509 L171 544 L216 544 Q261 544 287 569 Q309 592 309 628 Q309 667 283 688 Q257 709 208 709 Q114 709 97 635 Z M810 441 L810 118 L880 118 L880 83 L810 83 L810 0 L772 0 L772 83 L559 83 L559 123 L767 441 L810 441 Z M772 383 L595 118 L772 118 L772 383 Z " />
<glyph glyph-name="Eth" unicode="&#xd0;" horiz-adv-x="677" d="M84 0 L84 359 L25 359 L25 397 L84 397 L84 720 L278 720 Q444 720 538 614 Q623 518 623 360 Q623 182 511 83 Q418 0 276 0 L84 0 Z M362 397 L362 359 L127 359 L127 38 L282 38 Q424 38 505 132 Q579 218 579 360 Q579 524 483 611 Q403 683 280 683 L127 683 L127 397 L362 397 Z " />
<glyph glyph-name="multiply" unicode="&#xd7;" horiz-adv-x="600" d="M144 450 L171 477 L299 349 L428 477 L455 450 L327 322 L455 194 L428 167 L299 295 L171 167 L144 194 L272 322 L144 450 Z " />
<glyph glyph-name="Yacute" unicode="&#xdd;" horiz-adv-x="621" d="M9 720 L55 720 L309 322 L567 720 L611 720 L331 281 L331 0 L288 0 L288 283 L9 720 Z M263 768 L366 905 L426 905 L302 768 L263 768 Z " />
<glyph glyph-name="Thorn" unicode="&#xde;" horiz-adv-x="623" d="M84 720 L127 720 L127 588 L328 588 Q453 588 519 521 Q576 463 576 365 Q576 259 496 199 Q428 148 326 148 L127 148 L127 0 L84 0 L84 720 Z M127 187 L326 187 Q427 187 483 241 Q531 288 531 365 Q531 458 471 508 Q419 551 331 551 L127 551 L127 187 Z " />
<glyph glyph-name="eth" unicode="&#xf0;" horiz-adv-x="540" d="M135 693 L143 728 Q245 708 316 662 L371 720 L420 720 L345 642 Q490 531 490 314 Q490 -15 262 -15 Q157 -15 99 65 Q49 133 49 237 Q49 349 110 416 Q166 479 256 479 Q337 479 391 430 Q433 394 448 340 Q441 526 321 617 L264 556 L215 556 L291 636 Q231 674 135 693 Z M263 442 Q181 442 135 387 Q91 333 91 234 Q91 134 143 75 Q190 22 262 22 Q357 22 406 93 Q445 150 445 239 Q445 325 393 384 Q343 442 263 442 Z " />
<glyph glyph-name="yacute" unicode="&#xfd;" horiz-adv-x="492" d="M473 520 L288 -3 Q242 -132 220 -161 Q195 -195 149 -195 Q127 -195 97 -185 L97 -151 Q123 -160 149 -160 Q179 -160 196 -132.5 Q213 -105 248 0 L229 0 L19 520 L64 520 L259 31 L431 520 L473 520 Z M197 598 L300 735 L359 735 L236 598 L197 598 Z " />
<glyph glyph-name="thorn" unicode="&#xfe;" horiz-adv-x="572" d="M121 -180 L79 -180 L79 720 L121 720 L121 416 Q148 474 198 505 Q246 535 306 535 Q411 535 468 461 Q522 391 522 267 Q522 123 451 47 Q392 -15 303 -15 Q235 -15 185 21 Q144 51 121 101 L121 -180 Z M299 500 Q217 500 168 438 Q117 374 117 259 Q117 135 174 72 Q221 20 297 20 Q383 20 432 89 Q479 154 479 268 Q479 392 421 452 Q375 500 299 500 Z " />
<glyph glyph-name="Amacron" unicode="&#x100;" horiz-adv-x="648" d="M639 0 L591 0 L508 210 L138 210 L54 0 L9 0 L296 720 L353 720 L639 0 Z M325 680 L152 247 L494 247 L325 680 Z M440 829 L207 829 L207 865 L440 865 L440 829 Z " />
<glyph glyph-name="amacron" unicode="&#x101;" horiz-adv-x="523" d="M107 389 L65 389 Q71 459 132 500 Q184 535 261 535 Q351 535 402 484 Q448 439 448 367 L448 0 L415 0 L408 91 Q380 41 333 13 Q284 -15 221 -15 Q140 -15 93 28 Q49 67 49 131 Q49 203 101 243 Q149 280 250 297 L407 323 L407 374 Q407 436 362 471 Q323 501 259 501 Q191 501 148 465 Q112 435 107 389 Z M407 289 L264 265 Q162 248 123 212 Q92 183 92 134 Q92 75 137 45 Q174 21 233 21 Q306 21 359 72 Q407 118 407 184 L407 289 Z M374 659 L141 659 L141 695 L374 695 L374 659 Z " />
<glyph glyph-name="Abreve" unicode="&#x102;" horiz-adv-x="648" d="M639 0 L591 0 L508 210 L138 210 L54 0 L9 0 L296 720 L353 720 L639 0 Z M325 680 L152 247 L494 247 L325 680 Z M415 895 L453 895 Q448 829 411 795 Q378 764 323 763 Q261 764 227 804 Q198 838 194 895 L231 895 Q234 847 258 821 Q281 795 323 795 Q364 795 388 821 Q412 847 415 895 Z " />
<glyph glyph-name="abreve" unicode="&#x103;" horiz-adv-x="523" d="M107 389 L65 389 Q71 459 132 500 Q184 535 261 535 Q351 535 402 484 Q448 439 448 367 L448 0 L415 0 L408 91 Q380 41 333 13 Q284 -15 221 -15 Q140 -15 93 28 Q49 67 49 131 Q49 203 101 243 Q149 280 250 297 L407 323 L407 374 Q407 436 362 471 Q323 501 259 501 Q191 501 148 465 Q112 435 107 389 Z M407 289 L264 265 Q162 248 123 212 Q92 183 92 134 Q92 75 137 45 Q174 21 233 21 Q306 21 359 72 Q407 118 407 184 L407 289 Z M348 725 L385 725 Q380 659 343 625 Q310 594 256 593 Q194 594 159 634 Q130 668 126 725 L164 725 Q167 677 191 651 Q214 625 256 625 Q303 625 327 658 Q346 684 348 725 Z " />
<glyph glyph-name="Aogonek" unicode="&#x104;" horiz-adv-x="648" d="M353 720 L639 0 Q518 -59 518 -128 Q518 -161 540.5 -180 Q563 -199 601 -199 Q630 -199 647 -188.5 Q664 -178 674 -154 L714 -154 Q686 -234 598 -234 Q542 -234 508 -201 Q479 -172 479 -128 Q479 -49 590 2 L508 210 L138 210 L54 0 L9 0 L296 720 L353 720 Z M325 680 L152 247 L494 247 L325 680 Z " />
<glyph glyph-name="aogonek" unicode="&#x105;" horiz-adv-x="523" d="M107 389 L65 389 Q71 459 132 500 Q184 535 261 535 Q351 535 402 484 Q448 439 448 367 L448 0 Q331 -58 331 -128 Q331 -160 353.5 -179 Q376 -198 413 -198 Q442 -198 459 -188 Q476 -178 486 -154 L525 -154 Q498 -234 410 -234 Q354 -234 320 -201 Q291 -172 291 -128 Q291 -84 331 -45 Q363 -14 414 7 L408 91 Q380 41 332 13 Q283 -15 221 -15 Q140 -15 93 28 Q49 67 49 131 Q49 203 100 243 Q148 280 249 297 L407 323 L407 374 Q407 436 362 471 Q323 501 259 501 Q191 501 148 465 Q112 435 107 389 Z M407 289 L264 265 Q162 248 123 212 Q92 183 92 134 Q92 75 137 45 Q174 21 233 21 Q303 21 358 72 Q407 117 407 176 L407 289 Z " />
<glyph glyph-name="Cacute" unicode="&#x106;" horiz-adv-x="716" d="M623 235 L666 235 Q652 118 567 48 Q489 -15 378 -15 Q223 -15 133 99 Q54 198 54 353 Q54 545 159 649 Q245 735 375 735 Q499 735 579 669 Q651 608 667 507 L625 507 Q605 607 530 656 Q467 698 375 698 Q245 698 168 597 Q98 504 98 353 Q98 192 188 100 Q264 22 378 22 Q485 22 552 86 Q611 142 623 235 Z M329 768 L432 905 L491 905 L368 768 L329 768 Z " />
<glyph glyph-name="cacute" unicode="&#x107;" horiz-adv-x="536" d="M444 149 L487 149 Q473 71 410 25 Q353 -15 276 -15 Q169 -15 107 63 Q49 136 49 256 Q49 399 125 475 Q186 535 278 535 Q364 535 422 487 Q472 445 484 379 L439 379 Q429 438 380 471 Q338 500 279 500 Q190 500 139 431 Q91 366 91 254 Q91 132 154 70 Q203 21 278 21 Q347 21 394 62 Q435 96 444 149 Z M250 598 L353 735 L412 735 L289 598 L250 598 Z " />
<glyph glyph-name="Ccircumflex" unicode="&#x108;" horiz-adv-x="716" d="M623 235 L666 235 Q652 118 567 48 Q489 -15 378 -15 Q223 -15 133 99 Q54 198 54 353 Q54 545 159 649 Q245 735 375 735 Q499 735 579 669 Q651 608 667 507 L625 507 Q605 607 530 656 Q467 698 375 698 Q245 698 168 597 Q98 504 98 353 Q98 192 188 100 Q264 22 378 22 Q485 22 552 86 Q611 142 623 235 Z M385 905 L489 768 L449 768 L360 878 L271 768 L230 768 L336 905 L385 905 Z " />
<glyph glyph-name="ccircumflex" unicode="&#x109;" horiz-adv-x="536" d="M444 149 L487 149 Q473 71 410 25 Q353 -15 276 -15 Q169 -15 107 63 Q49 136 49 256 Q49 399 125 475 Q186 535 278 535 Q364 535 422 487 Q472 445 484 379 L439 379 Q429 438 380 471 Q338 500 279 500 Q190 500 139 431 Q91 366 91 254 Q91 132 154 70 Q203 21 278 21 Q347 21 394 62 Q435 96 444 149 Z M293 735 L398 598 L358 598 L268 708 L180 598 L139 598 L245 735 L293 735 Z " />
<glyph glyph-name="Cdotaccent" unicode="&#x10a;" horiz-adv-x="716" d="M623 235 L666 235 Q652 118 567 48 Q489 -15 378 -15 Q223 -15 133 99 Q54 198 54 353 Q54 545 159 649 Q245 735 375 735 Q499 735 579 669 Q651 608 667 507 L625 507 Q605 607 530 656 Q467 698 375 698 Q245 698 168 597 Q98 504 98 353 Q98 192 188 100 Q264 22 378 22 Q485 22 552 86 Q611 142 623 235 Z M399 828 L347 828 L347 890 L399 890 L399 828 Z " />
<glyph glyph-name="cdotaccent" unicode="&#x10b;" horiz-adv-x="536" d="M444 149 L487 149 Q473 71 410 25 Q353 -15 276 -15 Q169 -15 107 63 Q49 136 49 256 Q49 399 125 475 Q186 535 278 535 Q364 535 422 487 Q472 445 484 379 L439 379 Q429 438 380 471 Q338 500 279 500 Q190 500 139 431 Q91 366 91 254 Q91 132 154 70 Q203 21 278 21 Q347 21 394 62 Q435 96 444 149 Z M300 658 L248 658 L248 720 L300 720 L300 658 Z " />
<glyph glyph-name="Ccaron" unicode="&#x10c;" horiz-adv-x="716" d="M623 235 L666 235 Q652 118 567 48 Q489 -15 378 -15 Q223 -15 133 99 Q54 198 54 353 Q54 545 159 649 Q245 735 375 735 Q499 735 579 669 Q651 608 667 507 L625 507 Q605 607 530 656 Q467 698 375 698 Q245 698 168 597 Q98 504 98 353 Q98 192 188 100 Q264 22 378 22 Q485 22 552 86 Q611 142 623 235 Z M333 768 L229 905 L269 905 L358 795 L447 905 L487 905 L382 768 L333 768 Z " />
<glyph glyph-name="ccaron" unicode="&#x10d;" horiz-adv-x="536" d="M444 149 L487 149 Q473 71 410 25 Q353 -15 276 -15 Q169 -15 107 63 Q49 136 49 256 Q49 399 125 475 Q186 535 278 535 Q364 535 422 487 Q472 445 484 379 L439 379 Q429 438 380 471 Q338 500 279 500 Q190 500 139 431 Q91 366 91 254 Q91 132 154 70 Q203 21 278 21 Q347 21 394 62 Q435 96 444 149 Z M248 598 L144 735 L184 735 L273 625 L362 735 L402 735 L297 598 L248 598 Z " />
<glyph glyph-name="Dcaron" unicode="&#x10e;" horiz-adv-x="677" d="M84 720 L278 720 Q444 720 538 614 Q623 518 623 360 Q623 182 511 83 Q418 0 277 0 L84 0 L84 720 Z M127 38 L282 38 Q424 38 505 132 Q580 218 580 360 Q580 524 484 611 Q404 683 280 683 L127 683 L127 38 Z M269 768 L165 905 L205 905 L294 795 L383 905 L423 905 L318 768 L269 768 Z " />
<glyph glyph-name="dcaron" unicode="&#x10f;" horiz-adv-x="619" d="M492 0 L459 0 L452 107 Q425 47 374 15 Q326 -15 266 -15 Q166 -15 106 61 Q49 133 49 254 Q49 398 122 474 Q180 535 268 535 Q335 535 386 499 Q428 469 451 420 L451 720 L492 720 L492 0 Z M274 500 Q189 500 139 432 Q92 367 92 255 Q92 132 152 70 Q200 20 274 20 Q355 20 404 82 Q455 146 455 261 Q455 385 396 449 Q349 500 274 500 Z M610 730 L610 667 Q610 571 529 545 L529 571 Q573 592 573 663 L555 663 L555 730 L610 730 Z " />
<glyph glyph-name="Dcroat" unicode="&#x110;" horiz-adv-x="677" d="M84 0 L84 359 L25 359 L25 397 L84 397 L84 720 L278 720 Q444 720 538 614 Q623 518 623 360 Q623 182 511 83 Q418 0 276 0 L84 0 Z M362 397 L362 359 L127 359 L127 38 L282 38 Q424 38 505 132 Q579 218 579 360 Q579 524 483 611 Q403 683 280 683 L127 683 L127 397 L362 397 Z " />
<glyph glyph-name="dcroat" unicode="&#x111;" horiz-adv-x="572" d="M492 0 L459 0 L452 107 Q425 47 374 15 Q326 -15 266 -15 Q166 -15 106 61 Q49 133 49 254 Q49 399 122 474 Q181 535 269 535 Q335 535 386 499 Q428 469 451 420 L451 618 L270 618 L270 653 L451 653 L451 720 L492 720 L492 653 L543 653 L543 618 L492 618 L492 0 Z M275 500 Q190 500 140 432 Q92 367 92 255 Q92 132 152 70 Q200 20 274 20 Q355 20 404 82 Q455 146 455 261 Q455 385 397 449 Q349 500 275 500 Z " />
<glyph glyph-name="Emacron" unicode="&#x112;" horiz-adv-x="562" d="M474 385 L474 348 L127 348 L127 38 L503 38 L503 0 L84 0 L84 720 L503 720 L503 683 L127 683 L127 385 L474 385 Z M407 829 L173 829 L173 865 L407 865 L407 829 Z " />
<glyph glyph-name="emacron" unicode="&#x113;" horiz-adv-x="569" d="M461 139 L505 139 Q485 63 422 22 Q367 -15 293 -15 Q178 -15 110 66 Q49 139 49 260 Q49 398 125 473 Q187 535 282 535 Q392 535 455 456 Q515 380 515 250 L91 250 Q95 130 161 69 Q214 21 294 21 Q361 21 406 56 Q447 87 461 139 Z M92 285 L471 285 Q466 396 405 454 Q356 501 282 501 Q198 501 146 438 Q97 381 92 285 Z M396 659 L163 659 L163 695 L396 695 L396 659 Z " />
<glyph glyph-name="Ebreve" unicode="&#x114;" horiz-adv-x="562" d="M474 385 L474 348 L127 348 L127 38 L503 38 L503 0 L84 0 L84 720 L503 720 L503 683 L127 683 L127 385 L474 385 Z M395 895 L432 895 Q428 829 390 795 Q357 764 303 763 Q241 764 206 804 Q177 838 173 895 L211 895 Q214 847 238 821 Q261 795 303 795 Q344 795 368 821 Q392 847 395 895 Z " />
<glyph glyph-name="ebreve" unicode="&#x115;" horiz-adv-x="569" d="M461 139 L505 139 Q485 63 422 22 Q367 -15 293 -15 Q178 -15 110 66 Q49 139 49 260 Q49 398 125 473 Q187 535 282 535 Q392 535 455 456 Q515 380 515 250 L91 250 Q95 130 161 69 Q214 21 294 21 Q361 21 406 56 Q447 87 461 139 Z M92 285 L471 285 Q466 396 405 454 Q356 501 282 501 Q198 501 146 438 Q97 381 92 285 Z M377 725 L414 725 Q409 659 372 625 Q339 594 285 593 Q223 594 188 634 Q159 668 155 725 L193 725 Q196 677 220 651 Q243 625 285 625 Q332 625 356 658 Q375 684 377 725 Z " />
<glyph glyph-name="Edotaccent" unicode="&#x116;" horiz-adv-x="562" d="M474 385 L474 348 L127 348 L127 38 L503 38 L503 0 L84 0 L84 720 L503 720 L503 683 L127 683 L127 385 L474 385 Z M315 828 L263 828 L263 890 L315 890 L315 828 Z " />
<glyph glyph-name="edotaccent" unicode="&#x117;" horiz-adv-x="569" d="M461 139 L505 139 Q485 63 422 22 Q367 -15 293 -15 Q178 -15 110 66 Q49 139 49 260 Q49 398 125 473 Q187 535 282 535 Q392 535 455 456 Q515 380 515 250 L91 250 Q95 130 161 69 Q214 21 294 21 Q361 21 406 56 Q447 87 461 139 Z M92 285 L471 285 Q466 396 405 454 Q356 501 282 501 Q198 501 146 438 Q97 381 92 285 Z M306 658 L254 658 L254 720 L306 720 L306 658 Z " />
<glyph glyph-name="Eogonek" unicode="&#x118;" horiz-adv-x="562" d="M474 385 L474 348 L127 348 L127 38 L503 38 L503 0 L391 0 Q271 -62 271 -132 Q271 -166 290.5 -184.5 Q310 -203 346 -203 Q407 -203 425 -149 L464 -149 Q452 -189 419.5 -212.5 Q387 -236 344 -236 Q291 -236 261 -206 Q234 -179 234 -136 Q234 -98 263 -62 Q292 -26 344 0 L84 0 L84 720 L503 720 L503 683 L127 683 L127 385 L474 385 Z " />
<glyph glyph-name="eogonek" unicode="&#x119;" horiz-adv-x="569" d="M411 -149 L450 -149 Q438 -189 405.5 -212.5 Q373 -236 330 -236 Q277 -236 247 -206 Q220 -178 220 -135 Q220 -102 242 -70.5 Q264 -39 304 -14 Q301 -15 294 -15 Q178 -15 111 65 Q49 139 49 260 Q49 398 125 473 Q188 535 282 535 Q392 535 455 455 Q515 380 515 250 L91 250 Q95 129 161 69 Q213 21 294 21 Q361 21 406 56 Q447 87 461 139 L505 139 Q483 53 408 13 Q389 3 373 -1 Q257 -57 257 -131 Q257 -165 276.5 -184 Q296 -203 332 -203 Q392 -203 411 -149 Z M92 285 L471 285 Q466 396 405 453 Q356 500 282 500 Q198 500 145 438 Q97 380 92 285 Z " />
<glyph glyph-name="Ecaron" unicode="&#x11a;" horiz-adv-x="562" d="M474 385 L474 348 L127 348 L127 38 L503 38 L503 0 L84 0 L84 720 L503 720 L503 683 L127 683 L127 385 L474 385 Z M269 768 L165 905 L204 905 L294 795 L383 905 L423 905 L318 768 L269 768 Z " />
<glyph glyph-name="ecaron" unicode="&#x11b;" horiz-adv-x="569" d="M461 139 L505 139 Q485 63 422 22 Q367 -15 293 -15 Q178 -15 110 66 Q49 139 49 260 Q49 398 125 473 Q187 535 282 535 Q392 535 455 456 Q515 380 515 250 L91 250 Q95 130 161 69 Q214 21 294 21 Q361 21 406 56 Q447 87 461 139 Z M92 285 L471 285 Q466 396 405 454 Q356 501 282 501 Q198 501 146 438 Q97 381 92 285 Z M259 598 L155 735 L195 735 L284 625 L373 735 L413 735 L308 598 L259 598 Z " />
<glyph glyph-name="Gcircumflex" unicode="&#x11c;" horiz-adv-x="729" d="M653 375 L653 0 L621 0 L615 128 Q580 56 512 18 Q451 -15 376 -15 Q227 -15 138 93 Q54 193 54 359 Q54 549 159 651 Q244 735 373 735 Q492 735 568 673 Q635 619 655 528 L612 528 Q588 617 519 660 Q460 697 373 697 Q249 697 172 603 Q98 512 98 359 Q98 190 193 97 Q269 22 378 22 Q484 22 554 91 Q615 152 615 236 L615 338 L375 338 L375 375 L653 375 Z M388 905 L493 768 L453 768 L363 878 L275 768 L234 768 L340 905 L388 905 Z " />
<glyph glyph-name="gcircumflex" unicode="&#x11d;" horiz-adv-x="572" d="M71 -52 L115 -52 Q126 -110 177 -138 Q219 -161 279 -161 Q364 -161 411 -110 Q451 -67 451 2 L451 129 Q424 76 374 47 Q327 20 267 20 Q169 20 107 93 Q49 162 49 273 Q49 404 122 476 Q181 535 268 535 Q335 535 386 500 Q429 471 452 423 L459 520 L492 520 L492 1 Q492 -91 429 -146 Q371 -195 281 -195 Q189 -195 134 -153 Q84 -116 71 -52 Z M274 500 Q189 500 139 437 Q92 378 92 274 Q92 163 152 103 Q201 54 274 54 Q357 54 405 110 Q455 167 455 276 Q455 394 396 453 Q349 500 274 500 Z M304 735 L409 598 L369 598 L279 708 L191 598 L150 598 L256 735 L304 735 Z " />
<glyph glyph-name="Gbreve" unicode="&#x11e;" horiz-adv-x="729" d="M653 375 L653 0 L621 0 L615 128 Q580 56 512 18 Q451 -15 376 -15 Q227 -15 138 93 Q54 193 54 359 Q54 549 159 651 Q244 735 373 735 Q492 735 568 673 Q635 619 655 528 L612 528 Q588 617 519 660 Q460 697 373 697 Q249 697 172 603 Q98 512 98 359 Q98 190 193 97 Q269 22 378 22 Q484 22 554 91 Q615 152 615 236 L615 338 L375 338 L375 375 L653 375 Z M457 895 L494 895 Q490 829 452 795 Q419 764 365 763 Q303 764 269 804 Q239 838 235 895 L273 895 Q276 847 300 821 Q323 795 365 795 Q406 795 430 821 Q454 847 457 895 Z " />
<glyph glyph-name="gbreve" unicode="&#x11f;" horiz-adv-x="572" d="M71 -52 L115 -52 Q126 -110 177 -138 Q219 -161 279 -161 Q364 -161 411 -110 Q451 -67 451 2 L451 129 Q424 76 374 47 Q327 20 267 20 Q169 20 107 93 Q49 162 49 273 Q49 404 122 476 Q181 535 268 535 Q335 535 386 500 Q429 471 452 423 L459 520 L492 520 L492 1 Q492 -91 429 -146 Q371 -195 281 -195 Q189 -195 134 -153 Q84 -116 71 -52 Z M274 500 Q189 500 139 437 Q92 378 92 274 Q92 163 152 103 Q201 54 274 54 Q357 54 405 110 Q455 167 455 276 Q455 394 396 453 Q349 500 274 500 Z M368 725 L405 725 Q400 659 363 625 Q330 594 276 593 Q214 594 179 634 Q150 668 146 725 L184 725 Q187 677 211 651 Q234 625 276 625 Q323 625 347 658 Q366 684 368 725 Z " />
<glyph glyph-name="Gdotaccent" unicode="&#x120;" horiz-adv-x="729" d="M653 375 L653 0 L621 0 L615 128 Q580 56 512 18 Q451 -15 376 -15 Q227 -15 138 93 Q54 193 54 359 Q54 549 159 651 Q244 735 373 735 Q492 735 568 673 Q635 619 655 528 L612 528 Q588 617 519 660 Q460 697 373 697 Q249 697 172 603 Q98 512 98 359 Q98 190 193 97 Q269 22 378 22 Q484 22 554 91 Q615 152 615 236 L615 338 L375 338 L375 375 L653 375 Z M389 828 L338 828 L338 890 L389 890 L389 828 Z " />
<glyph glyph-name="gdotaccent" unicode="&#x121;" horiz-adv-x="572" d="M71 -52 L115 -52 Q126 -110 177 -138 Q219 -161 279 -161 Q364 -161 411 -110 Q451 -67 451 2 L451 129 Q424 76 374 47 Q327 20 267 20 Q169 20 107 93 Q49 162 49 273 Q49 404 122 476 Q181 535 268 535 Q335 535 386 500 Q429 471 452 423 L459 520 L492 520 L492 1 Q492 -91 429 -146 Q371 -195 281 -195 Q189 -195 134 -153 Q84 -116 71 -52 Z M274 500 Q189 500 139 437 Q92 378 92 274 Q92 163 152 103 Q201 54 274 54 Q357 54 405 110 Q455 167 455 276 Q455 394 396 453 Q349 500 274 500 Z M299 658 L247 658 L247 720 L299 720 L299 658 Z " />
<glyph glyph-name="Gcommaaccent" unicode="&#x122;" horiz-adv-x="729" d="M653 375 L653 0 L621 0 L615 128 Q580 56 512 18 Q451 -15 376 -15 Q227 -15 138 93 Q54 193 54 359 Q54 549 159 651 Q244 735 373 735 Q492 735 568 673 Q635 619 655 528 L612 528 Q588 617 519 660 Q460 697 373 697 Q249 697 172 603 Q98 512 98 359 Q98 190 193 97 Q269 22 378 22 Q484 22 554 91 Q615 152 615 236 L615 338 L375 338 L375 375 L653 375 Z M396 -84 L396 -147 Q396 -243 315 -269 L315 -243 Q359 -222 359 -151 L341 -151 L341 -84 L396 -84 Z " />
<glyph glyph-name="gcommaaccent" unicode="&#x123;" horiz-adv-x="572" d="M71 -52 L115 -52 Q126 -110 177 -138 Q219 -161 279 -161 Q364 -161 411 -110 Q451 -67 451 2 L451 129 Q424 76 374 47 Q327 20 267 20 Q169 20 107 93 Q49 162 49 273 Q49 404 122 476 Q181 535 268 535 Q335 535 386 500 Q429 471 452 423 L459 520 L492 520 L492 1 Q492 -91 429 -146 Q371 -195 281 -195 Q189 -195 134 -153 Q84 -116 71 -52 Z M274 500 Q189 500 139 437 Q92 378 92 274 Q92 163 152 103 Q201 54 274 54 Q357 54 405 110 Q455 167 455 276 Q455 394 396 453 Q349 500 274 500 Z M236 607 L236 670 Q236 766 317 792 L317 766 Q273 745 273 674 L291 674 L291 607 L236 607 Z " />
<glyph glyph-name="Hcircumflex" unicode="&#x124;" horiz-adv-x="679" d="M551 720 L594 720 L594 0 L551 0 L551 349 L127 349 L127 0 L84 0 L84 720 L127 720 L127 387 L551 387 L551 720 Z M364 905 L469 768 L429 768 L339 878 L251 768 L210 768 L315 905 L364 905 Z " />
<glyph glyph-name="hcircumflex" unicode="&#x125;" horiz-adv-x="549" d="M121 0 L79 0 L79 720 L121 720 L121 426 Q147 481 200 510 Q244 535 296 535 Q384 535 432 481 Q475 434 475 358 L475 0 L433 0 L433 356 Q433 428 389 467 Q351 500 287 500 Q218 500 168 446 Q121 395 121 322 L121 0 Z M245 905 L350 768 L310 768 L220 878 L132 768 L91 768 L197 905 L245 905 Z " />
<glyph glyph-name="Hbar" unicode="&#x126;" horiz-adv-x="680" d="M85 720 L127 720 L127 607 L552 607 L552 720 L595 720 L595 607 L656 607 L656 572 L595 572 L595 0 L552 0 L552 348 L127 348 L127 0 L85 0 L85 572 L23 572 L23 607 L85 607 L85 720 Z M127 387 L552 387 L552 572 L127 572 L127 387 Z " />
<glyph glyph-name="hbar" unicode="&#x127;" horiz-adv-x="549" d="M121 0 L79 0 L79 618 L25 618 L25 653 L79 653 L79 720 L121 720 L121 653 L298 653 L298 618 L121 618 L121 426 Q147 481 200 510 Q244 535 296 535 Q384 535 432 481 Q475 434 475 358 L475 0 L433 0 L433 356 Q433 428 389 467 Q351 500 287 500 Q218 500 168 446 Q121 396 121 324 L121 0 Z " />
<glyph glyph-name="Itilde" unicode="&#x128;" horiz-adv-x="211" d="M84 720 L127 720 L127 0 L84 0 L84 720 Z M234 870 L234 831 Q195 801 159 801 Q130 801 98 819 Q71 833 51 833 Q17 833 -23 801 L-23 841 Q18 871 52 871 Q81 871 113 853 Q140 838 160 838 Q194 838 234 870 Z " />
<glyph glyph-name="itilde" unicode="&#x129;" horiz-adv-x="191" d="M117 0 L75 0 L75 520 L117 520 L117 0 Z M225 700 L225 660 Q186 631 150 631 Q121 631 89 649 Q62 663 42 663 Q8 663 -32 631 L-32 671 Q7 700 43 700 Q72 700 104 682 Q131 668 151 668 Q185 668 225 700 Z " />
<glyph glyph-name="Imacron" unicode="&#x12a;" horiz-adv-x="211" d="M84 720 L127 720 L127 0 L84 0 L84 720 Z M221 829 L-12 829 L-12 865 L221 865 L221 829 Z " />
<glyph glyph-name="imacron" unicode="&#x12b;" horiz-adv-x="191" d="M117 0 L75 0 L75 520 L117 520 L117 0 Z M212 659 L-21 659 L-21 695 L212 695 L212 659 Z " />
<glyph glyph-name="Ibreve" unicode="&#x12c;" horiz-adv-x="211" d="M84 720 L127 720 L127 0 L84 0 L84 720 Z M198 895 L235 895 Q230 829 193 795 Q160 764 106 763 Q44 764 9 804 Q-20 838 -24 895 L14 895 Q17 847 41 821 Q64 795 106 795 Q153 795 177 828 Q196 854 198 895 Z " />
<glyph glyph-name="ibreve" unicode="&#x12d;" horiz-adv-x="191" d="M117 0 L75 0 L75 520 L117 520 L117 0 Z M188 725 L225 725 Q220 659 183 625 Q150 594 96 593 Q34 594 -1 634 Q-30 668 -34 725 L4 725 Q7 677 31 651 Q54 625 96 625 Q143 625 167 658 Q186 684 188 725 Z " />
<glyph glyph-name="Iogonek" unicode="&#x12e;" horiz-adv-x="211" d="M158 -149 L197 -149 Q185 -189 152 -212.5 Q119 -236 76 -236 Q24 -236 -6 -206 Q-33 -178 -33 -135 Q-33 -96 -1.5 -59 Q30 -22 84 3 L84 720 L127 720 L127 0 Q4 -58 4 -131 Q4 -165 23.5 -184 Q43 -203 79 -203 Q139 -203 158 -149 Z " />
<glyph glyph-name="iogonek" unicode="&#x12f;" horiz-adv-x="191" d="M148 -149 L187 -149 Q175 -189 142 -212.5 Q109 -236 66 -236 Q13 -236 -17 -206 Q-44 -179 -44 -136 Q-44 -97 -12.5 -59.5 Q19 -22 75 4 L75 520 L116 520 L116 0 Q-7 -61 -7 -132 Q-7 -166 12.5 -184.5 Q32 -203 68 -203 Q128 -203 148 -149 Z M122 658 L70 658 L70 720 L122 720 L122 658 Z " />
<glyph glyph-name="Idot" unicode="&#x130;" horiz-adv-x="211" d="M84 720 L127 720 L127 0 L84 0 L84 720 Z M131 828 L79 828 L79 890 L131 890 L131 828 Z " />
<glyph glyph-name="IJ" unicode="&#x132;" horiz-adv-x="730" d="M84 720 L127 720 L127 0 L84 0 L84 720 Z M245 188 L287 188 Q291 103 341 59 Q383 22 450 22 Q529 22 571 73 Q608 119 608 198 L608 720 L651 720 L651 198 Q651 95 590 36 Q536 -15 449 -15 Q351 -15 296 48 Q249 102 245 188 Z " />
<glyph glyph-name="ij" unicode="&#x133;" horiz-adv-x="382" d="M116 0 L75 0 L75 520 L116 520 L116 0 Z M122 658 L70 658 L70 720 L122 720 L122 658 Z M134 -184 L134 -148 Q169 -158 198 -158 Q266 -158 266 -73 L266 520 L307 520 L307 -75 Q307 -137 277 -168 Q250 -195 204 -195 Q168 -195 134 -184 Z M312 658 L260 658 L260 720 L312 720 L312 658 Z " />
<glyph glyph-name="Jcircumflex" unicode="&#x134;" horiz-adv-x="519" d="M34 188 L76 188 Q80 103 130 59 Q172 22 239 22 Q318 22 360 73 Q397 119 397 198 L397 720 L440 720 L440 198 Q440 95 379 36 Q325 -15 238 -15 Q140 -15 85 48 Q38 102 34 188 Z M438 905 L542 768 L503 768 L413 878 L324 768 L284 768 L389 905 L438 905 Z " />
<glyph glyph-name="jcircumflex" unicode="&#x135;" horiz-adv-x="191" d="M-57 -184 L-57 -148 Q-22 -158 7 -158 Q75 -158 75 -73 L75 520 L116 520 L116 -75 Q116 -137 86 -168 Q59 -195 13 -195 Q-23 -195 -57 -184 Z M120 735 L225 598 L185 598 L95 708 L7 598 L-34 598 L72 735 L120 735 Z " />
<glyph glyph-name="Kcommaaccent" unicode="&#x136;" horiz-adv-x="585" d="M571 0 L513 0 L127 358 L127 0 L84 0 L84 720 L127 720 L127 381 L489 720 L542 720 L173 372 L571 0 Z M319 -84 L319 -147 Q319 -243 238 -269 L238 -243 Q282 -222 282 -151 L264 -151 L264 -84 L319 -84 Z " />
<glyph glyph-name="kcommaaccent" unicode="&#x137;" horiz-adv-x="478" d="M121 0 L79 0 L79 720 L121 720 L121 305 L383 520 L440 520 L163 293 L474 0 L418 0 L121 279 L121 0 Z M276 -84 L276 -147 Q276 -243 195 -269 L195 -243 Q239 -222 239 -151 L221 -151 L221 -84 L276 -84 Z " />
<glyph glyph-name="kgreenlandic" unicode="&#x138;" horiz-adv-x="478" d="M121 0 L79 0 L79 520 L121 520 L121 282 L388 520 L440 520 L163 273 L474 0 L418 0 L121 260 L121 0 Z " />
<glyph glyph-name="Lacute" unicode="&#x139;" horiz-adv-x="547" d="M84 720 L127 720 L127 39 L503 39 L503 0 L84 0 L84 720 Z M58 768 L161 905 L220 905 L97 768 L58 768 Z " />
<glyph glyph-name="lacute" unicode="&#x13a;" horiz-adv-x="200" d="M121 720 L121 0 L79 0 L79 720 L121 720 Z M48 768 L151 905 L210 905 L87 768 L48 768 Z " />
<glyph glyph-name="Lcommaaccent" unicode="&#x13b;" horiz-adv-x="547" d="M84 720 L127 720 L127 39 L502 39 L502 0 L84 0 L84 720 Z M310 -84 L310 -147 Q310 -243 229 -269 L229 -243 Q273 -222 273 -151 L255 -151 L255 -84 L310 -84 Z " />
<glyph glyph-name="lcommaaccent" unicode="&#x13c;" horiz-adv-x="200" d="M121 720 L121 0 L79 0 L79 720 L121 720 Z M127 -84 L127 -147 Q127 -243 46 -269 L46 -243 Q90 -222 90 -151 L72 -151 L72 -84 L127 -84 Z " />
<glyph glyph-name="Lcaron" unicode="&#x13d;" horiz-adv-x="547" d="M84 720 L127 720 L127 39 L502 39 L502 0 L84 0 L84 720 Z M292 720 L292 658 Q292 613 272.5 586 Q253 559 211 545 L211 571 Q235 582 245 600.5 Q255 619 255 653 L237 653 L237 720 L292 720 Z " />
<glyph glyph-name="lcaron" unicode="&#x13e;" horiz-adv-x="218" d="M121 720 L121 0 L79 0 L79 720 L121 720 Z M241 720 L241 658 Q241 613 221.5 586 Q202 559 160 545 L160 571 Q184 582 194 600.5 Q204 619 204 653 L186 653 L186 720 L241 720 Z " />
<glyph glyph-name="Ldot" unicode="&#x13f;" horiz-adv-x="547" d="M84 720 L127 720 L127 39 L502 39 L502 0 L84 0 L84 720 Z M391 346 L339 346 L339 408 L391 408 L391 346 Z " />
<glyph glyph-name="ldot" unicode="&#x140;" horiz-adv-x="240" d="M121 720 L121 0 L79 0 L79 720 L121 720 Z M244 345 L192 345 L192 407 L244 407 L244 345 Z " />
<glyph glyph-name="Lslash" unicode="&#x141;" horiz-adv-x="547" d="M84 720 L127 720 L127 396 L283 490 L283 444 L127 349 L127 40 L503 40 L503 0 L84 0 L84 324 L24 288 L24 334 L84 370 L84 720 Z " />
<glyph glyph-name="lslash" unicode="&#x142;" horiz-adv-x="201" d="M121 720 L121 417 L198 466 L198 421 L121 372 L121 0 L80 0 L80 346 L4 297 L4 343 L80 390 L80 720 L121 720 Z " />
<glyph glyph-name="Nacute" unicode="&#x143;" horiz-adv-x="710" d="M586 720 L626 720 L626 0 L578 0 L125 662 L125 0 L84 0 L84 720 L133 720 L586 63 L586 720 Z M307 768 L410 905 L469 905 L346 768 L307 768 Z " />
<glyph glyph-name="nacute" unicode="&#x144;" horiz-adv-x="549" d="M121 0 L79 0 L79 520 L114 520 L119 424 Q146 480 199 510 Q243 535 296 535 Q384 535 432 481 Q475 434 475 358 L475 0 L433 0 L433 356 Q433 428 389 467 Q351 500 287 500 Q218 500 168 446 Q121 396 121 324 L121 0 Z M236 598 L339 735 L398 735 L275 598 L236 598 Z " />
<glyph glyph-name="Ncommaaccent" unicode="&#x145;" horiz-adv-x="710" d="M586 720 L626 720 L626 0 L578 0 L125 662 L125 0 L84 0 L84 720 L133 720 L586 63 L586 720 Z M387 -84 L387 -147 Q387 -243 306 -269 L306 -243 Q350 -222 350 -151 L332 -151 L332 -84 L387 -84 Z " />
<glyph glyph-name="ncommaaccent" unicode="&#x146;" horiz-adv-x="549" d="M121 0 L79 0 L79 520 L114 520 L119 424 Q146 480 199 510 Q243 535 296 535 Q384 535 432 481 Q475 434 475 358 L475 0 L433 0 L433 356 Q433 428 389 467 Q351 500 287 500 Q218 500 168 446 Q121 396 121 324 L121 0 Z M311 -84 L311 -147 Q311 -243 230 -269 L230 -243 Q274 -222 274 -151 L256 -151 L256 -84 L311 -84 Z " />
<glyph glyph-name="Ncaron" unicode="&#x147;" horiz-adv-x="710" d="M586 720 L626 720 L626 0 L578 0 L125 662 L125 0 L84 0 L84 720 L133 720 L586 63 L586 720 Z M342 768 L238 905 L278 905 L367 795 L456 905 L496 905 L391 768 L342 768 Z " />
<glyph glyph-name="ncaron" unicode="&#x148;" horiz-adv-x="549" d="M121 0 L79 0 L79 520 L114 520 L119 424 Q146 480 199 510 Q243 535 296 535 Q384 535 432 481 Q475 434 475 358 L475 0 L433 0 L433 356 Q433 428 389 467 Q351 500 287 500 Q218 500 168 446 Q121 396 121 324 L121 0 Z M258 598 L154 735 L194 735 L283 625 L372 735 L412 735 L307 598 L258 598 Z " />
<glyph glyph-name="napostrophe" unicode="&#x149;" horiz-adv-x="549" d="M121 0 L79 0 L79 520 L114 520 L119 424 Q147 481 199 510 Q243 535 296 535 Q384 535 432 481 Q475 434 475 358 L475 0 L433 0 L433 356 Q433 428 389 467 Q351 500 287 500 Q218 500 168 446 Q121 396 121 324 L121 0 Z M81 720 L81 658 Q81 613 61.5 586 Q42 559 0 545 L0 571 Q24 582 34 600.5 Q44 619 44 653 L26 653 L26 720 L81 720 Z " />
<glyph glyph-name="Eng" unicode="&#x14a;" horiz-adv-x="710" d="M453 -184 L453 -148 Q488 -158 518 -158 Q586 -158 586 -73 L586 -2 L583 -2 L125 662 L125 0 L84 0 L84 720 L133 720 L586 65 L586 720 L626 720 L626 -75 Q626 -195 521 -195 Q486 -195 453 -184 Z " />
<glyph glyph-name="eng" unicode="&#x14b;" horiz-adv-x="549" d="M121 0 L79 0 L79 520 L114 520 L119 424 Q146 480 199 510 Q243 535 296 535 Q383 535 432 481 Q475 434 475 358 L475 -75 Q475 -138 445 -169 Q418 -195 372 -195 Q335 -195 301 -184 L301 -147 Q334 -158 366 -158 Q433 -158 433 -72 L433 356 Q433 428 389 467 Q351 500 287 500 Q218 500 168 447 Q121 397 121 324 L121 0 Z " />
<glyph glyph-name="Omacron" unicode="&#x14c;" horiz-adv-x="747" d="M373 735 Q521 735 611 625 Q693 523 693 359 Q693 170 588 68 Q502 -15 373 -15 Q224 -15 136 95 Q54 196 54 359 Q54 546 159 650 Q246 735 373 735 Z M373 697 Q243 697 168 599 Q98 508 98 359 Q98 186 191 95 Q265 22 373 22 Q500 22 576 115 Q649 205 649 359 Q649 530 559 622 Q486 697 373 697 Z M488 829 L255 829 L255 865 L488 865 L488 829 Z " />
<glyph glyph-name="omacron" unicode="&#x14d;" horiz-adv-x="567" d="M284 535 Q398 535 460 456 Q518 383 518 260 Q518 120 443 46 Q382 -15 286 -15 Q174 -15 109 65 Q49 139 49 260 Q49 401 125 475 Q188 535 284 535 Z M284 501 Q191 501 140 432 Q92 369 92 260 Q92 137 155 72 Q205 19 284 19 Q377 19 429 88 Q476 151 476 260 Q476 385 415 449 Q364 501 284 501 Z M399 659 L166 659 L166 695 L399 695 L399 659 Z " />
<glyph glyph-name="Obreve" unicode="&#x14e;" horiz-adv-x="747" d="M373 735 Q521 735 611 625 Q693 523 693 359 Q693 170 588 68 Q502 -15 373 -15 Q224 -15 136 95 Q54 196 54 359 Q54 546 159 650 Q246 735 373 735 Z M373 697 Q243 697 168 599 Q98 508 98 359 Q98 186 191 95 Q265 22 373 22 Q500 22 576 115 Q649 205 649 359 Q649 530 559 622 Q486 697 373 697 Z M465 895 L503 895 Q498 829 460 795 Q427 764 373 763 Q311 764 277 804 Q248 838 244 895 L281 895 Q284 847 308 821 Q331 795 373 795 Q414 795 438 821 Q462 847 465 895 Z " />
<glyph glyph-name="obreve" unicode="&#x14f;" horiz-adv-x="567" d="M284 535 Q398 535 460 456 Q518 383 518 260 Q518 120 443 46 Q382 -15 286 -15 Q174 -15 109 65 Q49 139 49 260 Q49 401 125 475 Q188 535 284 535 Z M284 501 Q191 501 140 432 Q92 369 92 260 Q92 137 155 72 Q205 19 284 19 Q377 19 429 88 Q476 151 476 260 Q476 385 415 449 Q364 501 284 501 Z M376 725 L413 725 Q408 659 371 625 Q338 594 284 593 Q222 594 187 634 Q158 668 154 725 L192 725 Q195 677 219 651 Q242 625 284 625 Q331 625 355 658 Q374 684 376 725 Z " />
<glyph glyph-name="Ohungarumlaut" unicode="&#x150;" horiz-adv-x="747" d="M373 735 Q521 735 611 625 Q693 523 693 359 Q693 170 588 68 Q502 -15 373 -15 Q224 -15 136 95 Q54 196 54 359 Q54 546 159 650 Q246 735 373 735 Z M373 697 Q243 697 168 599 Q98 508 98 359 Q98 186 191 95 Q265 22 373 22 Q500 22 576 115 Q649 205 649 359 Q649 530 559 622 Q486 697 373 697 Z M272 768 L349 905 L404 905 L307 768 L272 768 Z M426 768 L503 905 L560 905 L462 768 L426 768 Z " />
<glyph glyph-name="ohungarumlaut" unicode="&#x151;" horiz-adv-x="567" d="M284 535 Q398 535 460 456 Q518 383 518 260 Q518 120 443 46 Q382 -15 286 -15 Q174 -15 109 65 Q49 139 49 260 Q49 401 125 475 Q188 535 284 535 Z M284 501 Q191 501 140 432 Q92 369 92 260 Q92 137 155 72 Q205 19 284 19 Q377 19 429 88 Q476 151 476 260 Q476 385 415 449 Q364 501 284 501 Z M186 598 L263 735 L319 735 L222 598 L186 598 Z M341 598 L418 735 L474 735 L377 598 L341 598 Z " />
<glyph glyph-name="Racute" unicode="&#x154;" horiz-adv-x="622" d="M603 0 L550 0 L352 302 L127 302 L127 0 L84 0 L84 720 L334 720 Q458 720 522 656 Q577 601 577 508 Q577 428 519 372 Q472 326 397 308 L603 0 Z M127 340 L332 340 Q430 340 485 393 Q532 439 532 508 Q532 597 475 643 Q425 683 336 683 L127 683 L127 340 Z M253 768 L356 905 L416 905 L292 768 L253 768 Z " />
<glyph glyph-name="racute" unicode="&#x155;" horiz-adv-x="336" d="M121 0 L79 0 L79 520 L113 520 L119 413 Q159 535 270 535 Q298 535 322 527 L322 487 Q291 496 267 496 Q202 496 159 433 Q121 376 121 291 L121 0 Z M161 598 L264 735 L323 735 L200 598 L161 598 Z " />
<glyph glyph-name="Rcommaaccent" unicode="&#x156;" horiz-adv-x="622" d="M603 0 L550 0 L352 302 L127 302 L127 0 L84 0 L84 720 L334 720 Q458 720 522 656 Q577 601 577 508 Q577 428 519 372 Q472 326 397 308 L603 0 Z M127 340 L332 340 Q430 340 485 393 Q532 439 532 508 Q532 597 475 643 Q425 683 336 683 L127 683 L127 340 Z M329 -84 L329 -147 Q329 -243 248 -269 L248 -243 Q292 -222 292 -151 L274 -151 L274 -84 L329 -84 Z " />
<glyph glyph-name="rcommaaccent" unicode="&#x157;" horiz-adv-x="336" d="M121 0 L79 0 L79 520 L113 520 L119 413 Q159 535 270 535 Q298 535 322 527 L322 487 Q291 496 267 496 Q202 496 159 433 Q121 376 121 291 L121 0 Z M127 -84 L127 -147 Q127 -243 46 -269 L46 -243 Q90 -222 90 -151 L72 -151 L72 -84 L127 -84 Z " />
<glyph glyph-name="Rcaron" unicode="&#x158;" horiz-adv-x="622" d="M603 0 L550 0 L352 302 L127 302 L127 0 L84 0 L84 720 L334 720 Q458 720 522 656 Q577 601 577 508 Q577 428 519 372 Q472 326 397 308 L603 0 Z M127 340 L332 340 Q430 340 485 393 Q532 439 532 508 Q532 597 475 643 Q425 683 336 683 L127 683 L127 340 Z M260 768 L156 905 L195 905 L285 795 L374 905 L414 905 L309 768 L260 768 Z " />
<glyph glyph-name="rcaron" unicode="&#x159;" horiz-adv-x="336" d="M122 0 L80 0 L80 520 L114 520 L120 413 Q160 535 271 535 Q299 535 323 527 L323 487 Q292 496 268 496 Q203 496 160 433 Q122 376 122 291 L122 0 Z M166 598 L62 735 L102 735 L191 625 L280 735 L320 735 L215 598 L166 598 Z " />
<glyph glyph-name="Sacute" unicode="&#x15a;" horiz-adv-x="644" d="M44 178 L89 178 Q105 97 177 57 Q236 23 322 23 Q435 23 494 72 Q544 113 544 181 Q544 259 487 298 Q433 337 300 364 Q173 390 120 443 Q76 488 76 560 Q76 645 147 692 Q211 735 322 735 Q434 735 507 683 Q572 636 589 560 L545 560 Q528 629 463 666 Q405 698 323 698 Q217 698 164 655 Q120 620 120 563 Q120 495 169 458 Q216 423 329 399 Q479 367 537 311 Q587 263 587 182 Q587 89 510 35 Q439 -15 322 -15 Q202 -15 127 41 Q61 92 44 178 Z M278 768 L381 905 L440 905 L316 768 L278 768 Z " />
<glyph glyph-name="sacute" unicode="&#x15b;" horiz-adv-x="493" d="M39 135 L82 135 Q89 80 137 48 Q180 20 245 20 Q322 20 365 60 Q400 92 400 137 Q400 191 353 219 Q313 243 224 257 Q56 284 56 400 Q56 464 108 500 Q158 535 241 535 Q326 535 382 491 Q431 453 441 394 L398 394 Q391 444 342 474 Q298 501 238 501 Q165 501 128 468 Q98 443 98 404 Q98 356 132.5 331 Q167 306 251 291 Q360 271 405 232 Q444 197 444 138 Q444 70 384 26 Q328 -15 244 -15 Q150 -15 95 32 Q48 72 39 135 Z M209 598 L312 735 L371 735 L248 598 L209 598 Z " />
<glyph glyph-name="Scircumflex" unicode="&#x15c;" horiz-adv-x="644" d="M44 178 L89 178 Q105 97 177 57 Q236 23 322 23 Q435 23 494 72 Q544 113 544 181 Q544 259 487 298 Q433 337 300 364 Q173 390 120 443 Q76 488 76 560 Q76 645 147 692 Q211 735 322 735 Q434 735 507 683 Q572 636 589 560 L545 560 Q528 629 463 666 Q405 698 323 698 Q217 698 164 655 Q120 620 120 563 Q120 495 169 458 Q216 423 329 399 Q479 367 537 311 Q587 263 587 182 Q587 89 510 35 Q439 -15 322 -15 Q202 -15 127 41 Q61 92 44 178 Z M342 905 L446 768 L407 768 L317 878 L228 768 L188 768 L293 905 L342 905 Z " />
<glyph glyph-name="scircumflex" unicode="&#x15d;" horiz-adv-x="493" d="M39 135 L82 135 Q89 80 137 48 Q180 20 245 20 Q322 20 365 60 Q400 92 400 137 Q400 191 353 219 Q313 243 224 257 Q56 284 56 400 Q56 464 108 500 Q158 535 241 535 Q326 535 382 491 Q431 453 441 394 L398 394 Q391 444 342 474 Q298 501 238 501 Q165 501 128 468 Q98 443 98 404 Q98 356 132.5 331 Q167 306 251 291 Q360 271 405 232 Q444 197 444 138 Q444 70 384 26 Q328 -15 244 -15 Q150 -15 95 32 Q48 72 39 135 Z M263 735 L368 598 L328 598 L238 708 L150 598 L109 598 L215 735 L263 735 Z " />
<glyph glyph-name="Scedilla" unicode="&#x15e;" horiz-adv-x="644" d="M346 -14 L346 -51 Q403 -57 432 -85 Q456 -108 456 -143 Q456 -186 421 -214 Q390 -239 346 -239 Q296 -239 265 -215 Q236 -193 231 -155 L268 -155 Q271 -179 292 -193 Q313 -207 347 -207 Q379 -207 399.5 -189 Q420 -171 420 -143 Q420 -78 307 -78 L311 -15 Q195 -13 124 44 Q60 94 44 178 L89 178 Q105 97 177 57 Q236 23 322 23 Q435 23 493 72 Q543 113 543 181 Q543 259 487 298 Q433 337 300 364 Q173 390 120 443 Q76 488 76 560 Q76 645 147 692 Q211 735 321 735 Q434 735 507 683 Q572 636 589 560 L545 560 Q528 629 463 666 Q405 698 323 698 Q217 698 164 655 Q120 620 120 563 Q120 495 169 458 Q216 423 329 399 Q479 367 537 311 Q587 263 587 182 Q587 94 517 40 Q453 -9 346 -14 Z " />
<glyph glyph-name="scedilla" unicode="&#x15f;" horiz-adv-x="493" d="M263 -14 L263 -51 Q320 -57 349 -85 Q373 -108 373 -143 Q373 -186 338 -214 Q307 -239 263 -239 Q213 -239 182 -215 Q153 -193 148 -155 L185 -155 Q188 -179 209 -193 Q230 -207 264 -207 Q296 -207 316.5 -189 Q337 -171 337 -143 Q337 -78 224 -78 L228 -14 Q141 -10 90 36 Q48 75 39 135 L82 135 Q89 80 137 48 Q180 20 245 20 Q322 20 365 60 Q400 92 400 137 Q400 191 353 219 Q313 243 224 257 Q55 284 55 400 Q55 464 108 500 Q157 535 241 535 Q326 535 382 491 Q431 453 441 394 L398 394 Q391 444 342 474 Q298 501 238 501 Q165 501 128 468 Q98 443 98 404 Q98 356 132.5 331 Q167 306 251 291 Q360 271 405 232 Q444 197 444 138 Q444 74 389 31 Q340 -9 263 -14 Z " />
<glyph glyph-name="Scaron" unicode="&#x160;" horiz-adv-x="644" d="M44 178 L89 178 Q105 97 177 57 Q236 23 322 23 Q435 23 494 72 Q544 113 544 181 Q544 259 487 298 Q433 337 300 364 Q173 390 120 443 Q76 488 76 560 Q76 645 147 692 Q211 735 322 735 Q434 735 507 683 Q572 636 589 560 L545 560 Q528 629 463 666 Q405 698 323 698 Q217 698 164 655 Q120 620 120 563 Q120 495 169 458 Q216 423 329 399 Q479 367 537 311 Q587 263 587 182 Q587 89 510 35 Q439 -15 322 -15 Q202 -15 127 41 Q61 92 44 178 Z M289 768 L185 905 L224 905 L314 795 L403 905 L443 905 L338 768 L289 768 Z " />
<glyph glyph-name="scaron" unicode="&#x161;" horiz-adv-x="493" d="M39 135 L82 135 Q89 80 137 48 Q180 20 245 20 Q322 20 365 60 Q400 92 400 137 Q400 191 353 219 Q313 243 224 257 Q56 284 56 400 Q56 464 108 500 Q158 535 241 535 Q326 535 382 491 Q431 453 441 394 L398 394 Q391 444 342 474 Q298 501 238 501 Q165 501 128 468 Q98 443 98 404 Q98 356 132.5 331 Q167 306 251 291 Q360 271 405 232 Q444 197 444 138 Q444 70 384 26 Q328 -15 244 -15 Q150 -15 95 32 Q48 72 39 135 Z M216 598 L112 735 L152 735 L241 625 L330 735 L370 735 L265 598 L216 598 Z " />
<glyph glyph-name="Tcommaaccent" unicode="&#x162;" horiz-adv-x="567" d="M547 720 L547 682 L304 682 L304 0 L262 0 L262 682 L19 682 L19 720 L547 720 Z M309 -84 L309 -147 Q309 -243 228 -269 L228 -243 Q272 -222 272 -151 L254 -151 L254 -84 L309 -84 Z " />
<glyph glyph-name="tcommaaccent" unicode="&#x163;" horiz-adv-x="296" d="M264 484 L141 484 L141 98 Q141 20 213 20 Q247 20 276 29 L276 -6 Q242 -15 212 -15 Q155 -15 126 17 Q99 47 99 99 L99 484 L24 484 L24 520 L99 520 L103 645 L141 645 L141 520 L264 520 L264 484 Z M186 -84 L186 -147 Q186 -243 105 -269 L105 -243 Q149 -222 149 -151 L131 -151 L131 -84 L186 -84 Z " />
<glyph glyph-name="Tcaron" unicode="&#x164;" horiz-adv-x="567" d="M547 720 L547 682 L304 682 L304 0 L262 0 L262 682 L19 682 L19 720 L547 720 Z M257 768 L153 905 L193 905 L282 795 L371 905 L412 905 L306 768 L257 768 Z " />
<glyph glyph-name="tcaron" unicode="&#x165;" horiz-adv-x="325" d="M318 720 L318 660 Q318 615 299 588.5 Q280 562 238 549 L238 575 Q262 585 271.5 603 Q281 621 281 654 L263 654 L263 720 L318 720 Z M264 484 L141 484 L141 98 Q141 20 213 20 Q247 20 276 29 L276 -6 Q242 -15 212 -15 Q155 -15 126 17 Q99 47 99 99 L99 484 L24 484 L24 520 L99 520 L103 645 L141 645 L141 520 L264 520 L264 484 Z " />
<glyph glyph-name="Tbar" unicode="&#x166;" horiz-adv-x="567" d="M547 720 L547 682 L304 682 L304 427 L430 427 L430 390 L304 390 L304 0 L262 0 L262 390 L136 390 L136 427 L262 427 L262 682 L19 682 L19 720 L547 720 Z " />
<glyph glyph-name="tbar" unicode="&#x167;" horiz-adv-x="296" d="M141 346 L141 98 Q141 20 213 20 Q247 20 276 29 L276 -6 Q242 -15 212 -15 Q99 -15 99 107 L99 346 L32 346 L32 381 L99 381 L99 484 L24 484 L24 520 L99 520 L103 645 L141 645 L141 520 L264 520 L264 484 L141 484 L141 381 L254 381 L254 346 L141 346 Z " />
<glyph glyph-name="Utilde" unicode="&#x168;" horiz-adv-x="701" d="M621 720 L621 235 Q621 121 540 50 Q465 -15 350 -15 Q216 -15 141 68 Q79 136 79 235 L79 720 L121 720 L121 234 Q121 134 195 74 Q258 22 350 22 Q456 22 522 89 Q580 148 580 234 L580 720 L621 720 Z M480 870 L480 831 Q441 801 405 801 Q376 801 344 819 Q317 833 297 833 Q263 833 223 801 L223 841 Q264 871 298 871 Q327 871 359 853 Q386 838 406 838 Q440 838 480 870 Z " />
<glyph glyph-name="utilde" unicode="&#x169;" horiz-adv-x="544" d="M74 520 L116 520 L116 165 Q116 89 160 51 Q197 20 260 20 Q334 20 382 78 Q423 128 423 200 L423 520 L465 520 L465 0 L430 0 L425 90 Q397 35 342 7 Q300 -15 251 -15 Q166 -15 118 36 Q74 83 74 164 L74 520 Z M393 700 L393 660 Q354 631 318 631 Q289 631 257 649 Q230 663 210 663 Q176 663 136 631 L136 671 Q175 700 211 700 Q240 700 272 682 Q299 668 319 668 Q353 668 393 700 Z " />
<glyph glyph-name="Umacron" unicode="&#x16a;" horiz-adv-x="701" d="M621 720 L621 235 Q621 121 540 50 Q465 -15 350 -15 Q216 -15 141 68 Q79 136 79 235 L79 720 L121 720 L121 234 Q121 134 195 74 Q258 22 350 22 Q456 22 522 89 Q580 148 580 234 L580 720 L621 720 Z M467 829 L233 829 L233 865 L467 865 L467 829 Z " />
<glyph glyph-name="umacron" unicode="&#x16b;" horiz-adv-x="544" d="M74 520 L116 520 L116 165 Q116 89 160 51 Q197 20 260 20 Q334 20 382 78 Q423 128 423 200 L423 520 L465 520 L465 0 L430 0 L425 90 Q397 35 342 7 Q300 -15 251 -15 Q166 -15 118 36 Q74 83 74 164 L74 520 Z M380 659 L147 659 L147 695 L380 695 L380 659 Z " />
<glyph glyph-name="Ubreve" unicode="&#x16c;" horiz-adv-x="701" d="M621 720 L621 235 Q621 121 540 50 Q465 -15 350 -15 Q216 -15 141 68 Q79 136 79 235 L79 720 L121 720 L121 234 Q121 134 195 74 Q258 22 350 22 Q456 22 522 89 Q580 148 580 234 L580 720 L621 720 Z M442 895 L479 895 Q475 829 437 795 Q404 764 350 763 Q288 764 254 804 Q224 838 220 895 L258 895 Q261 847 285 821 Q308 795 350 795 Q391 795 415 821 Q439 847 442 895 Z " />
<glyph glyph-name="ubreve" unicode="&#x16d;" horiz-adv-x="544" d="M74 520 L116 520 L116 165 Q116 89 160 51 Q197 20 260 20 Q334 20 382 78 Q423 128 423 200 L423 520 L465 520 L465 0 L430 0 L425 90 Q397 35 342 7 Q300 -15 251 -15 Q166 -15 118 36 Q74 83 74 164 L74 520 Z M360 725 L397 725 Q392 659 355 625 Q322 594 268 593 Q206 594 171 634 Q142 668 138 725 L176 725 Q179 677 203 651 Q226 625 268 625 Q315 625 339 658 Q358 684 360 725 Z " />
<glyph glyph-name="Uring" unicode="&#x16e;" horiz-adv-x="701" d="M621 720 L621 235 Q621 121 540 50 Q465 -15 350 -15 Q216 -15 141 68 Q79 136 79 235 L79 720 L121 720 L121 234 Q121 134 195 74 Q258 22 350 22 Q456 22 522 89 Q580 148 580 234 L580 720 L621 720 Z M350 985 Q405 985 438 948 Q467 917 467 870 Q467 816 430 783 Q398 754 350 754 Q295 754 262 791 Q234 823 234 870 Q234 924 270 957 Q302 985 350 985 Z M350 956 Q312 956 289 931 Q269 907 269 870 Q269 827 295 804 Q317 784 350 784 Q388 784 411 809 Q432 833 432 870 Q432 913 405 936 Q383 956 350 956 Z " />
<glyph glyph-name="uring" unicode="&#x16f;" horiz-adv-x="544" d="M74 520 L116 520 L116 165 Q116 89 160 51 Q197 20 260 20 Q334 20 382 78 Q423 128 423 200 L423 520 L465 520 L465 0 L430 0 L425 90 Q397 35 342 7 Q300 -15 251 -15 Q166 -15 118 36 Q74 83 74 164 L74 520 Z M268 815 Q324 815 357 778 Q385 747 385 700 Q385 646 349 613 Q316 584 268 584 Q213 584 180 621 Q152 653 152 700 Q152 754 188 787 Q220 815 268 815 Z M268 786 Q230 786 207 761 Q187 737 187 700 Q187 657 213 634 Q235 614 268 614 Q307 614 329 639 Q350 662 350 700 Q350 743 324 766 Q302 786 268 786 Z " />
<glyph glyph-name="Uhungarumlaut" unicode="&#x170;" horiz-adv-x="701" d="M621 720 L621 235 Q621 121 540 50 Q465 -15 350 -15 Q216 -15 141 68 Q79 136 79 235 L79 720 L121 720 L121 234 Q121 134 195 74 Q258 22 350 22 Q456 22 522 89 Q580 148 580 234 L580 720 L621 720 Z M234 768 L312 905 L367 905 L270 768 L234 768 Z M389 768 L466 905 L522 905 L425 768 L389 768 Z " />
<glyph glyph-name="uhungarumlaut" unicode="&#x171;" horiz-adv-x="544" d="M74 520 L116 520 L116 165 Q116 89 160 51 Q197 20 260 20 Q334 20 382 78 Q423 128 423 200 L423 520 L465 520 L465 0 L430 0 L425 90 Q397 35 342 7 Q300 -15 251 -15 Q166 -15 118 36 Q74 83 74 164 L74 520 Z M173 598 L250 735 L306 735 L209 598 L173 598 Z M328 598 L405 735 L461 735 L364 598 L328 598 Z " />
<glyph glyph-name="Uogonek" unicode="&#x172;" horiz-adv-x="701" d="M474 -149 L513 -149 Q501 -189 468 -212.5 Q435 -236 392 -236 Q339 -236 309 -206 Q282 -178 282 -135 Q282 -103 304.5 -71 Q327 -39 367 -14 Q362 -15 351 -15 Q216 -15 141 68 Q79 136 79 235 L79 720 L121 720 L121 234 Q121 134 195 74 Q258 22 350 22 Q458 22 524 91 Q580 151 580 240 L580 720 L621 720 L621 235 Q621 144 569 80 Q523 24 444 -2 Q386 -21 351 -60 Q319 -94 319 -131 Q319 -165 339 -184 Q359 -203 394 -203 Q454 -203 474 -149 Z " />
<glyph glyph-name="uogonek" unicode="&#x173;" horiz-adv-x="544" d="M74 520 L116 520 L116 165 Q116 89 160 51 Q197 20 260 20 Q334 20 382 78 Q423 128 423 200 L423 520 L465 520 L465 0 L459 0 Q337 -58 337 -131 Q337 -165 357 -184 Q377 -203 412 -203 Q472 -203 491 -149 L530 -149 Q518 -188 485.5 -211.5 Q453 -235 410 -235 Q357 -235 327 -205 Q300 -178 300 -135 Q300 -94 335 -55.5 Q370 -17 429 8 L424 90 Q397 35 342 7 Q299 -15 250 -15 Q166 -15 118 36 Q74 83 74 164 L74 520 Z " />
<glyph glyph-name="Wcircumflex" unicode="&#x174;" horiz-adv-x="951" d="M896 720 L937 720 L735 0 L675 0 L476 683 L278 0 L216 0 L14 720 L59 720 L248 37 L447 720 L508 720 L705 39 L896 720 Z M499 905 L604 768 L564 768 L474 878 L386 768 L345 768 L451 905 L499 905 Z " />
<glyph glyph-name="wcircumflex" unicode="&#x175;" horiz-adv-x="757" d="M693 520 L733 520 L584 0 L532 0 L380 481 L237 0 L185 0 L24 520 L66 520 L212 41 L355 520 L409 520 L558 43 L693 520 Z M405 735 L510 598 L470 598 L380 708 L292 598 L251 598 L357 735 L405 735 Z " />
<glyph glyph-name="Ycircumflex" unicode="&#x176;" horiz-adv-x="621" d="M9 720 L55 720 L309 322 L567 720 L611 720 L331 281 L331 0 L288 0 L288 283 L9 720 Z M335 905 L440 768 L400 768 L310 878 L222 768 L181 768 L286 905 L335 905 Z " />
<glyph glyph-name="ycircumflex" unicode="&#x177;" horiz-adv-x="492" d="M473 520 L288 -3 Q242 -132 220 -161 Q195 -195 149 -195 Q127 -195 97 -185 L97 -151 Q123 -160 149 -160 Q179 -160 196 -132.5 Q213 -105 248 0 L229 0 L19 520 L64 520 L259 31 L431 520 L473 520 Z M274 735 L379 598 L339 598 L249 708 L161 598 L120 598 L226 735 L274 735 Z " />
<glyph glyph-name="Zacute" unicode="&#x179;" horiz-adv-x="639" d="M590 684 L99 38 L580 38 L580 0 L49 0 L49 39 L539 682 L72 682 L72 720 L590 720 L590 684 Z M273 768 L376 905 L436 905 L312 768 L273 768 Z " />
<glyph glyph-name="zacute" unicode="&#x17a;" horiz-adv-x="478" d="M439 477 L86 36 L439 36 L439 0 L39 0 L39 41 L394 484 L54 484 L54 520 L439 520 L439 477 Z M202 598 L305 735 L364 735 L241 598 L202 598 Z " />
<glyph glyph-name="Zdotaccent" unicode="&#x17b;" horiz-adv-x="639" d="M590 684 L99 38 L580 38 L580 0 L49 0 L49 39 L539 682 L72 682 L72 720 L590 720 L590 684 Z M345 828 L294 828 L294 890 L345 890 L345 828 Z " />
<glyph glyph-name="zdotaccent" unicode="&#x17c;" horiz-adv-x="478" d="M439 477 L86 36 L439 36 L439 0 L39 0 L39 41 L394 484 L54 484 L54 520 L439 520 L439 477 Z M270 658 L218 658 L218 720 L270 720 L270 658 Z " />
<glyph glyph-name="Zcaron" unicode="&#x17d;" horiz-adv-x="639" d="M590 684 L99 38 L580 38 L580 0 L49 0 L49 39 L539 682 L72 682 L72 720 L590 720 L590 684 Z M293 768 L189 905 L229 905 L318 795 L407 905 L447 905 L342 768 L293 768 Z " />
<glyph glyph-name="zcaron" unicode="&#x17e;" horiz-adv-x="478" d="M439 477 L86 36 L439 36 L439 0 L39 0 L39 41 L394 484 L54 484 L54 520 L439 520 L439 477 Z M217 598 L113 735 L153 735 L242 625 L331 735 L371 735 L266 598 L217 598 Z " />
<glyph glyph-name="longs" unicode="&#x17f;" horiz-adv-x="294" d="M148 0 L106 0 L106 484 L29 484 L29 520 L106 520 L106 612 Q106 674 142 707 Q172 735 222 735 Q262 735 299 723 L299 688 Q256 700 222 700 Q186 700 167 677.5 Q148 655 148 614 L148 0 Z " />
<glyph glyph-name="uni018F" unicode="&#x18f;" horiz-adv-x="741" d="M93 519 L50 519 Q74 633 165 689 Q241 735 352 735 Q501 735 585 627 Q662 528 662 360 Q662 180 566 76 Q481 -15 348 -15 Q65 -15 43 356 L618 356 Q617 532 533 623 Q464 697 352 697 Q140 697 93 519 Z M615 318 L92 318 Q101 162 179 86 Q244 22 348 22 Q468 22 541 113 Q605 192 615 318 Z " />
<glyph glyph-name="Ohorn" unicode="&#x1a0;" horiz-adv-x="747" d="M617 616 Q639 585 654 551 Q686 478 693 359 Q693 170 588 68 Q502 -15 373 -15 Q224 -15 136 95 Q54 196 54 359 Q54 546 159 650 Q245 735 373 735 Q451 730 503 708 Q553 686 590 648 L591 648 Q598 646 610 646 Q612 646 615 646 Q642 647 651.5 665 Q661 683 661 731 L661 790 L702 790 L702 719 Q702 683 693 662 Q684 641 663 628 Q645 616 626 616 Q625 616 624 616 L617 616 Z M373 697 Q243 697 168 599 Q98 508 98 359 Q98 186 191 95 Q265 22 373 22 Q500 22 576 115 Q649 205 649 359 Q649 530 559 622 Q486 697 373 697 Z " />
<glyph glyph-name="ohorn" unicode="&#x1a1;" horiz-adv-x="567" d="M478 428 Q512 367 518 260 Q518 120 443 46 Q382 -15 286 -15 Q174 -15 109 65 Q49 139 49 260 Q49 401 125 475 Q187 535 284 535 Q359 530 404 503 Q435 486 456 459 Q458 459 462 459 Q469 458 473 458 Q476 458 477 458 Q504 459 513.5 477 Q523 495 523 543 L523 602 L564 602 L564 531 Q564 495 555 474 Q546 453 525 439 Q507 427 488 427 Q487 427 486 427 L478 428 Z M284 501 Q191 501 140 432 Q92 369 92 260 Q92 137 155 72 Q205 19 284 19 Q377 19 429 88 Q476 151 476 260 Q476 385 415 449 Q364 501 284 501 Z " />
<glyph glyph-name="Uhorn" unicode="&#x1af;" horiz-adv-x="701" d="M621 616 L621 235 Q621 121 540 50 Q465 -15 350 -15 Q216 -15 141 68 Q79 136 79 235 L79 720 L121 720 L121 234 Q121 134 195 74 Q258 22 350 22 Q456 22 522 89 Q580 148 580 234 L580 720 L621 720 L621 646 Q625 646 626 646 Q629 646 632 646 Q659 647 668.5 665 Q678 683 678 731 L678 790 L719 790 L719 719 Q719 683 710 662 Q701 641 680 627 Q662 615 643 615 Q642 615 641 615 L621 616 Z " />
<glyph glyph-name="uhorn" unicode="&#x1b0;" horiz-adv-x="544" d="M465 428 L465 0 L430 0 L425 90 Q397 35 342 7 Q300 -15 251 -15 Q166 -15 118 36 Q74 83 74 164 L74 520 L116 520 L116 165 Q116 89 160 51 Q197 20 260 20 Q334 20 382 78 Q423 128 423 200 L423 520 L465 520 L465 459 Q472 458 478 458 Q481 458 482 458 Q509 459 518.5 477 Q528 495 528 543 L528 602 L569 602 L569 531 Q569 495 560 474 Q551 453 530 439 Q512 427 493 427 Q492 427 491 427 L465 428 Z " />
<glyph glyph-name="uni01DD" unicode="&#x1dd;" horiz-adv-x="569" d="M107 381 L63 381 Q83 456 151 498 Q209 535 284 535 Q397 535 461 454 Q519 381 519 260 Q519 122 444 47 Q382 -15 288 -15 Q177 -15 113 64 Q53 140 53 270 L476 270 Q473 391 412 451 Q362 500 283 500 Q215 500 166 464 Q121 432 107 381 Z M475 235 L95 235 Q101 124 163 66 Q214 19 288 19 Q371 19 423 82 Q470 140 475 235 Z " />
<glyph glyph-name="Aringacute" unicode="&#x1fa;" horiz-adv-x="650" d="M344 849 L305 849 L399 960 L458 960 L344 849 Z M9 0 L289 623 Q254 633 233.5 659 Q213 685 213 721 Q213 770 248 799 Q280 825 328 825 Q386 825 418 792 Q446 764 446 721 Q446 684 423.5 657.5 Q401 631 362 621 L641 0 L593 0 L499 209 L147 209 L54 0 L9 0 Z M328 798 Q290 798 269 777.5 Q248 757 248 721 Q248 685 269.5 664.5 Q291 644 328 644 Q366 644 388 664.5 Q410 685 410 721 Q410 757 388.5 777.5 Q367 798 328 798 Z M163 246 L485 246 L325 608 L163 246 Z " />
<glyph glyph-name="aringacute" unicode="&#x1fb;" horiz-adv-x="523" d="M107 389 L65 389 Q71 459 132 500 Q184 535 261 535 Q351 535 402 484 Q448 439 448 367 L448 0 L415 0 L408 91 Q380 41 333 13 Q284 -15 221 -15 Q140 -15 93 28 Q49 67 49 131 Q49 203 101 243 Q149 280 250 297 L407 323 L407 374 Q407 436 362 471 Q323 501 259 501 Q191 501 148 465 Q112 435 107 389 Z M407 289 L264 265 Q162 248 123 212 Q92 183 92 134 Q92 75 137 45 Q174 21 233 21 Q306 21 359 72 Q407 118 407 184 L407 289 Z M261 759 Q316 759 349 726 Q378 697 378 655 Q378 607 341 577 Q309 551 261 551 Q206 551 173 584 Q145 613 145 655 Q145 704 181 733 Q213 759 261 759 Z M261 732 Q224 732 202 711 Q180 690 180 655 Q180 620 202 599 Q224 578 261 578 Q299 578 322 601 Q342 622 342 655 Q342 690 320 711 Q298 732 261 732 Z M234 777 L337 900 L396 900 L273 777 L234 777 Z " />
<glyph glyph-name="AEacute" unicode="&#x1fc;" horiz-adv-x="922" d="M834 385 L834 348 L507 348 L507 38 L863 38 L863 0 L464 0 L464 210 L173 210 L45 0 L0 0 L437 720 L863 720 L863 683 L507 683 L507 385 L834 385 Z M196 247 L464 247 L464 690 L196 247 Z M608 768 L711 905 L771 905 L647 768 L608 768 Z " />
<glyph glyph-name="aeacute" unicode="&#x1fd;" horiz-adv-x="927" d="M817 144 L861 144 Q840 65 776 22 Q721 -15 649 -15 Q573 -15 514 25 Q456 64 429 134 Q411 66 357 26 Q303 -15 222 -15 Q141 -15 93 26 Q49 64 49 128 Q49 198 101 236 Q152 274 255 285 L407 302 L407 372 Q407 435 362 470 Q323 501 259 501 Q192 501 149 465 Q112 434 107 388 L65 388 Q72 458 132 499 Q185 535 261 535 Q334 535 383 499 Q426 467 440 413 Q474 478 534 510 Q582 535 638 535 Q741 535 805 465 Q868 394 871 270 L447 270 L447 249 Q448 131 519 68 Q573 20 650 20 Q712 20 759 55 Q802 88 817 144 Z M407 268 L269 253 Q167 242 125 206 Q92 178 92 131 Q92 73 136 44 Q173 20 233 20 Q303 20 356 69 Q404 113 407 176 L407 268 Z M450 305 L827 305 Q817 402 760 455 Q711 501 638 501 Q560 501 507 443 Q460 390 450 305 Z M422 598 L525 735 L584 735 L461 598 L422 598 Z " />
<glyph glyph-name="Oslashacute" unicode="&#x1fe;" horiz-adv-x="747" d="M564 820 L521 699 Q606 654 651 561 Q693 474 693 359 Q693 169 587 67 Q501 -15 373 -15 Q320 -15 263 3 L222 -110 L182 -110 L229 19 Q142 63 97 156 Q54 242 54 359 Q54 548 161 651 Q247 735 373 735 Q432 735 486 715 L525 820 L564 820 Z M243 55 L473 679 Q427 697 373 697 Q243 697 168 599 Q98 508 98 359 Q98 239 144 157 Q181 90 243 55 Z M506 663 L276 40 Q324 22 373 22 Q500 22 576 115 Q649 205 649 359 Q649 476 605 559 Q568 627 506 663 Z M321 768 L424 905 L483 905 L360 768 L321 768 Z " />
<glyph glyph-name="oslashacute" unicode="&#x1ff;" horiz-adv-x="567" d="M97 -110 L156 22 Q49 93 49 260 Q49 401 125 475 Q188 535 284 535 Q336 535 378 517 L429 630 L470 630 L412 500 Q518 430 518 260 Q518 120 443 46 Q382 -15 286 -15 Q235 -15 189 4 L138 -110 L97 -110 Z M395 465 L204 36 Q241 19 284 19 Q377 19 428 88 Q476 151 476 260 Q476 403 395 465 Z M172 56 L364 484 Q327 501 284 501 Q191 501 140 432 Q92 369 92 260 Q92 118 172 56 Z M234 598 L337 735 L396 735 L273 598 L234 598 Z " />
<glyph glyph-name="Scommaaccent" unicode="&#x218;" horiz-adv-x="644" d="M44 178 L89 178 Q105 97 177 57 Q236 23 322 23 Q435 23 494 72 Q544 113 544 181 Q544 259 487 298 Q433 337 300 364 Q173 390 120 443 Q76 488 76 560 Q76 645 147 692 Q211 735 322 735 Q434 735 507 683 Q572 636 589 560 L545 560 Q528 629 463 666 Q405 698 323 698 Q217 698 164 655 Q120 620 120 563 Q120 495 169 458 Q216 423 329 399 Q479 367 537 311 Q587 263 587 182 Q587 89 510 35 Q439 -15 322 -15 Q202 -15 127 41 Q61 92 44 178 Z M356 -84 L356 -147 Q356 -243 275 -269 L275 -243 Q319 -222 319 -151 L301 -151 L301 -84 L356 -84 Z " />
<glyph glyph-name="scommaaccent" unicode="&#x219;" horiz-adv-x="493" d="M39 135 L82 135 Q89 80 137 48 Q180 20 245 20 Q322 20 365 60 Q400 92 400 137 Q400 191 353 219 Q313 243 224 257 Q56 284 56 400 Q56 464 108 500 Q158 535 241 535 Q326 535 382 491 Q431 453 441 394 L398 394 Q391 444 342 474 Q298 501 238 501 Q165 501 128 468 Q98 443 98 404 Q98 356 132.5 331 Q167 306 251 291 Q360 271 405 232 Q444 197 444 138 Q444 70 384 26 Q328 -15 244 -15 Q150 -15 95 32 Q48 72 39 135 Z M277 -84 L277 -147 Q277 -243 196 -269 L196 -243 Q240 -222 240 -151 L222 -151 L222 -84 L277 -84 Z " />
<glyph glyph-name="uni021A" unicode="&#x21a;" horiz-adv-x="567" d="M547 720 L547 682 L304 682 L304 0 L262 0 L262 682 L19 682 L19 720 L547 720 Z M309 -84 L309 -147 Q309 -243 228 -269 L228 -243 Q272 -222 272 -151 L254 -151 L254 -84 L309 -84 Z " />
<glyph glyph-name="uni021B" unicode="&#x21b;" horiz-adv-x="296" d="M264 484 L141 484 L141 98 Q141 20 213 20 Q247 20 276 29 L276 -6 Q242 -15 212 -15 Q155 -15 126 17 Q99 47 99 99 L99 484 L24 484 L24 520 L99 520 L103 645 L141 645 L141 520 L264 520 L264 484 Z M186 -84 L186 -147 Q186 -243 105 -269 L105 -243 Q149 -222 149 -151 L131 -151 L131 -84 L186 -84 Z " />
<glyph glyph-name="uni0237" unicode="&#x237;" horiz-adv-x="191" d="M-57 -184 L-57 -148 Q-22 -158 7 -158 Q75 -158 75 -73 L75 520 L116 520 L116 -75 Q116 -137 86 -168 Q59 -195 13 -195 Q-23 -195 -57 -184 Z " />
<glyph glyph-name="uni0259" unicode="&#x259;" horiz-adv-x="569" d="M107 381 L63 381 Q83 456 151 498 Q209 535 284 535 Q397 535 461 454 Q519 381 519 260 Q519 122 444 47 Q382 -15 288 -15 Q177 -15 113 64 Q53 140 53 270 L476 270 Q473 391 412 451 Q362 500 283 500 Q215 500 166 464 Q121 432 107 381 Z M475 235 L95 235 Q101 124 163 66 Q214 19 288 19 Q371 19 423 82 Q470 140 475 235 Z " />
<glyph glyph-name="uni02C0" unicode="&#x2c0;" horiz-adv-x="278" d="M136 574 L105 574 L103 637 Q216 637 216 702 Q216 730 195.5 748 Q175 766 143 766 Q110 766 89.5 752 Q69 738 66 714 L29 714 Q35 753 65 775.5 Q95 798 142 798 Q193 798 225 766 Q252 739 252 702 Q252 664 223 640 Q194 616 141 610 L136 574 Z " />
<glyph glyph-name="uni02C9" unicode="&#x2c9;" horiz-adv-x="294" d="M263 659 L30 659 L30 695 L263 695 L263 659 Z " />
<glyph glyph-name="uni0309" unicode="&#x309;" horiz-adv-x="278" d="M136 574 L105 574 L103 637 Q216 637 216 702 Q216 730 195.5 748 Q175 766 143 766 Q110 766 89.5 752 Q69 738 66 714 L29 714 Q35 753 65 775.5 Q95 798 142 798 Q193 798 225 766 Q252 739 252 702 Q252 664 223 640 Q194 616 141 610 L136 574 Z " />
<glyph glyph-name="uni0312" unicode="&#x312;" horiz-adv-x="123" d="M34 607 L34 670 Q34 766 115 792 L115 766 Q71 745 71 674 L89 674 L89 607 L34 607 Z " />
<glyph glyph-name="uni0313" unicode="&#x313;" horiz-adv-x="123" d="M115 792 L115 729 Q115 633 34 607 L34 633 Q78 654 78 725 L60 725 L60 792 L115 792 Z " />
<glyph glyph-name="uni031B" unicode="&#x31b;" horiz-adv-x="123" d="M115 792 L115 729 Q115 633 34 607 L34 633 Q78 654 78 725 L60 725 L60 792 L115 792 Z " />
<glyph glyph-name="uni0323" unicode="&#x323;" horiz-adv-x="112" d="M82 -180 L30 -180 L30 -118 L82 -118 L82 -180 Z " />
<glyph glyph-name="commaaccent" unicode="&#x326;" horiz-adv-x="123" d="M115 -62 L115 -125 Q115 -221 34 -247 L34 -221 Q78 -200 78 -129 L60 -129 L60 -62 L115 -62 Z " />
<glyph glyph-name="uni037E" unicode="&#x37e;" horiz-adv-x="280" d="M170 451 L110 451 L110 520 L170 520 L170 451 Z M170 68 L170 4 Q170 -110 73 -136 L73 -106 Q103 -94 116 -69 Q129 -44 129 0 L109 0 L109 68 L170 68 Z " />
<glyph glyph-name="tonos" unicode="&#x384;" horiz-adv-x="142" d="M30 573 L59 720 L112 720 L65 573 L30 573 Z " />
<glyph glyph-name="dieresistonos" unicode="&#x385;" horiz-adv-x="314" d="M81 656 L30 656 L30 717 L81 717 L81 656 Z M284 656 L233 656 L233 717 L284 717 L284 656 Z M138 734 L166 881 L221 881 L171 734 L138 734 Z " />
<glyph glyph-name="Alphatonos" unicode="&#x386;" horiz-adv-x="648" d="M639 0 L591 0 L508 210 L138 210 L54 0 L9 0 L296 720 L353 720 L639 0 Z M325 680 L152 247 L494 247 L325 680 Z M154 573 L183 720 L236 720 L189 573 L154 573 Z " />
<glyph glyph-name="uni0387" unicode="&#x387;" horiz-adv-x="280" d="M170 286 L110 286 L110 355 L170 355 L170 286 Z " />
<glyph glyph-name="Epsilontonos" unicode="&#x388;" horiz-adv-x="589" d="M501 385 L501 348 L154 348 L154 38 L530 38 L530 0 L111 0 L111 720 L530 720 L530 683 L154 683 L154 385 L501 385 Z M-16 573 L13 720 L66 720 L19 573 L-16 573 Z " />
<glyph glyph-name="Etatonos" unicode="&#x389;" horiz-adv-x="705" d="M578 720 L621 720 L621 0 L578 0 L578 349 L153 349 L153 0 L110 0 L110 720 L153 720 L153 387 L578 387 L578 720 Z M-16 573 L13 720 L66 720 L19 573 L-16 573 Z " />
<glyph glyph-name="Iotatonos" unicode="&#x38a;" horiz-adv-x="237" d="M110 720 L153 720 L153 0 L110 0 L110 720 Z M-16 573 L13 720 L66 720 L19 573 L-16 573 Z " />
<glyph glyph-name="Omicrontonos" unicode="&#x38c;" horiz-adv-x="749" d="M375 735 Q523 735 613 625 Q695 523 695 359 Q695 164 590 65 Q506 -15 375 -15 Q226 -15 138 95 Q56 196 56 359 Q56 555 161 655 Q245 735 375 735 Z M375 697 Q239 697 166 598 Q100 510 100 359 Q100 186 193 95 Q267 22 375 22 Q504 22 578 111 Q651 200 651 359 Q651 530 561 622 Q488 697 375 697 Z M14 573 L43 720 L96 720 L49 573 L14 573 Z " />
<glyph glyph-name="Upsilontonos" unicode="&#x38e;" horiz-adv-x="693" d="M81 720 L128 720 L381 322 L640 720 L684 720 L403 281 L403 0 L360 0 L360 283 L81 720 Z M-36 573 L-7 720 L46 720 L-1 573 L-36 573 Z " />
<glyph glyph-name="Omegatonos" unicode="&#x38f;" horiz-adv-x="749" d="M423 0 L423 39 Q531 43 591 125 Q652 208 652 362 Q652 530 562 622 Q489 697 377 697 Q240 697 167 599 Q101 512 101 362 Q101 198 177 112 Q237 45 330 39 L330 0 L97 0 L97 39 L217 39 Q140 81 97 170 Q57 253 57 362 Q57 557 164 656 Q248 735 377 735 Q465 735 537 692 Q610 648 652 566 Q696 479 696 362 Q696 232 646 143 Q605 73 539 39 L657 39 L657 0 L423 0 Z M15 573 L44 720 L97 720 L50 573 L15 573 Z " />
<glyph glyph-name="iotadieresistonos" unicode="&#x390;" horiz-adv-x="191" d="M117 0 L75 0 L75 520 L117 520 L117 0 Z M21 656 L-30 656 L-30 717 L21 717 L21 656 Z M224 656 L173 656 L173 717 L224 717 L224 656 Z M78 734 L106 881 L161 881 L111 734 L78 734 Z " />
<glyph glyph-name="Alpha" unicode="&#x391;" horiz-adv-x="648" d="M639 0 L591 0 L508 210 L138 210 L54 0 L9 0 L296 720 L353 720 L639 0 Z M325 680 L152 247 L494 247 L325 680 Z " />
<glyph glyph-name="Beta" unicode="&#x392;" horiz-adv-x="634" d="M84 720 L328 720 Q441 720 500 667 Q550 622 550 546 Q550 484 510 437 Q474 396 416 382 Q492 372 539 316 Q581 266 581 199 Q581 99 510 47 Q446 0 333 0 L84 0 L84 720 Z M127 38 L339 38 Q441 38 492 86 Q536 127 536 199 Q536 278 478 322 Q427 362 345 362 L127 362 L127 38 Z M127 398 L342 398 Q426 398 471 446 Q508 485 508 545 Q508 615 456 651 Q411 683 334 683 L127 683 L127 398 Z " />
<glyph glyph-name="Gamma" unicode="&#x393;" horiz-adv-x="486" d="M84 720 L467 720 L467 683 L127 683 L127 0 L84 0 L84 720 Z " />
<glyph glyph-name="uni0394" unicode="&#x394;" horiz-adv-x="648" d="M639 0 L9 0 L296 720 L353 720 L639 0 Z M325 680 L68 37 L576 37 L325 680 Z " />
<glyph glyph-name="Epsilon" unicode="&#x395;" horiz-adv-x="562" d="M474 385 L474 348 L127 348 L127 38 L503 38 L503 0 L84 0 L84 720 L503 720 L503 683 L127 683 L127 385 L474 385 Z " />
<glyph glyph-name="Zeta" unicode="&#x396;" horiz-adv-x="639" d="M590 684 L99 38 L580 38 L580 0 L49 0 L49 39 L539 682 L72 682 L72 720 L590 720 L590 684 Z " />
<glyph glyph-name="Eta" unicode="&#x397;" horiz-adv-x="679" d="M552 720 L595 720 L595 0 L552 0 L552 349 L127 349 L127 0 L84 0 L84 720 L127 720 L127 387 L552 387 L552 720 Z " />
<glyph glyph-name="Theta" unicode="&#x398;" horiz-adv-x="747" d="M373 735 Q521 735 611 625 Q693 523 693 359 Q693 170 588 68 Q502 -15 373 -15 Q224 -15 136 95 Q54 196 54 359 Q54 546 159 650 Q246 735 373 735 Z M373 697 Q243 697 168 599 Q98 508 98 359 Q98 186 191 95 Q265 22 373 22 Q500 22 576 115 Q649 205 649 359 Q649 530 559 622 Q486 697 373 697 Z M556 385 L556 348 L191 348 L191 385 L556 385 Z " />
<glyph glyph-name="Iota" unicode="&#x399;" horiz-adv-x="211" d="M84 720 L127 720 L127 0 L84 0 L84 720 Z " />
<glyph glyph-name="Kappa" unicode="&#x39a;" horiz-adv-x="585" d="M571 0 L513 0 L127 358 L127 0 L84 0 L84 720 L127 720 L127 381 L489 720 L542 720 L173 372 L571 0 Z " />
<glyph glyph-name="Lambda" unicode="&#x39b;" horiz-adv-x="638" d="M629 0 L581 0 L320 680 L54 0 L9 0 L291 720 L348 720 L629 0 Z " />
<glyph glyph-name="Mu" unicode="&#x39c;" horiz-adv-x="833" d="M449 0 L399 0 L126 672 L126 0 L84 0 L84 720 L149 720 L425 43 L685 720 L749 720 L749 0 L707 0 L707 667 L449 0 Z " />
<glyph glyph-name="Nu" unicode="&#x39d;" horiz-adv-x="710" d="M586 720 L626 720 L626 0 L578 0 L125 662 L125 0 L84 0 L84 720 L133 720 L586 63 L586 720 Z " />
<glyph glyph-name="Xi" unicode="&#x39e;" horiz-adv-x="588" d="M59 0 L59 41 L529 41 L529 0 L59 0 Z M529 720 L529 680 L60 680 L60 720 L529 720 Z M459 338 L129 338 L129 377 L459 377 L459 338 Z " />
<glyph glyph-name="Omicron" unicode="&#x39f;" horiz-adv-x="747" d="M373 735 Q521 735 611 625 Q693 523 693 359 Q693 164 588 65 Q504 -15 373 -15 Q224 -15 136 95 Q54 196 54 359 Q54 555 159 655 Q243 735 373 735 Z M373 697 Q237 697 164 598 Q98 510 98 359 Q98 186 191 95 Q265 22 373 22 Q502 22 576 111 Q649 200 649 359 Q649 530 559 622 Q486 697 373 697 Z " />
<glyph glyph-name="Pi" unicode="&#x3a0;" horiz-adv-x="679" d="M84 720 L595 720 L595 0 L552 0 L552 682 L127 682 L127 0 L84 0 L84 720 Z " />
<glyph glyph-name="Rho" unicode="&#x3a1;" horiz-adv-x="625" d="M84 720 L328 720 Q454 720 519 653 Q576 595 576 497 Q576 392 496 332 Q429 282 326 282 L127 282 L127 0 L84 0 L84 720 Z M127 320 L326 320 Q427 320 483 374 Q531 420 531 497 Q531 590 471 640 Q419 683 331 683 L127 683 L127 320 Z " />
<glyph glyph-name="Sigma" unicode="&#x3a3;" horiz-adv-x="560" d="M87 683 L366 381 L366 347 L87 38 L520 38 L520 0 L39 0 L39 39 L329 364 L39 682 L39 720 L520 720 L520 683 L87 683 Z " />
<glyph glyph-name="Tau" unicode="&#x3a4;" horiz-adv-x="567" d="M547 720 L547 682 L304 682 L304 0 L262 0 L262 682 L19 682 L19 720 L547 720 Z " />
<glyph glyph-name="Upsilon" unicode="&#x3a5;" horiz-adv-x="621" d="M9 720 L55 720 L309 322 L567 720 L611 720 L331 281 L331 0 L288 0 L288 283 L9 720 Z " />
<glyph glyph-name="Phi" unicode="&#x3a6;" horiz-adv-x="778" d="M368 735 L411 735 L411 700 Q558 697 644 601 Q725 510 725 359 Q725 196 622 101 Q536 22 411 21 L411 -15 L368 -15 L368 21 Q223 23 134 125 Q54 217 54 359 Q54 531 157 623 Q241 698 368 700 L368 735 Z M411 662 L411 58 Q534 60 610 147 Q681 228 681 359 Q681 509 598 590 Q526 661 411 662 Z M368 58 L368 662 Q235 660 162 570 Q98 489 98 359 Q98 209 189 126 Q262 59 368 58 Z " />
<glyph glyph-name="Chi" unicode="&#x3a7;" horiz-adv-x="601" d="M573 720 L328 372 L582 0 L531 0 L301 340 L69 0 L19 0 L275 374 L39 720 L90 720 L304 406 L525 720 L573 720 Z " />
<glyph glyph-name="Psi" unicode="&#x3a8;" horiz-adv-x="730" d="M69 720 L112 720 L112 402 Q112 316 189 268 Q251 230 346 226 L346 720 L388 720 L388 226 Q492 231 557 280 Q619 328 619 402 L619 720 L660 720 L660 406 Q660 300 573 241 Q501 193 388 188 L388 0 L346 0 L346 188 Q215 193 139 256 Q69 314 69 406 L69 720 Z " />
<glyph glyph-name="uni03A9" unicode="&#x3a9;" horiz-adv-x="747" d="M420 0 L420 39 Q528 43 588 125 Q649 208 649 362 Q649 531 559 622 Q486 697 373 697 Q237 697 164 599 Q98 512 98 362 Q98 199 173 112 Q231 45 319 39 L326 39 L326 0 L93 0 L93 39 L213 39 Q137 81 94 170 Q54 253 54 362 Q54 557 161 656 Q245 735 373 735 Q462 735 533 692 Q607 648 649 566 Q693 479 693 362 Q693 232 642 143 Q602 73 536 39 L653 39 L653 0 L420 0 Z " />
<glyph glyph-name="Iotadieresis" unicode="&#x3aa;" horiz-adv-x="212" d="M84 720 L127 720 L127 0 L84 0 L84 720 Z M32 829 L-19 829 L-19 890 L32 890 L32 829 Z M231 829 L180 829 L180 890 L231 890 L231 829 Z " />
<glyph glyph-name="Upsilondieresis" unicode="&#x3ab;" horiz-adv-x="621" d="M9 720 L55 720 L309 322 L567 720 L611 720 L331 281 L331 0 L288 0 L288 283 L9 720 Z M236 829 L185 829 L185 890 L236 890 L236 829 Z M435 829 L384 829 L384 890 L435 890 L435 829 Z " />
<glyph glyph-name="alphatonos" unicode="&#x3ac;" horiz-adv-x="567" d="M487 0 L454 0 L447 107 Q420 47 369 15 Q322 -15 262 -15 Q164 -15 105 61 Q49 133 49 254 Q49 398 121 474 Q179 535 265 535 Q332 535 382 498 Q424 468 447 418 L454 520 L487 520 L487 0 Z M272 500 Q189 500 139 432 Q92 366 92 255 Q92 132 151 70 Q198 20 270 20 Q349 20 399 82 Q450 146 450 261 Q450 385 392 449 Q345 500 272 500 Z M260 573 L289 720 L342 720 L295 573 L260 573 Z " />
<glyph glyph-name="epsilontonos" unicode="&#x3ad;" horiz-adv-x="473" d="M433 383 L390 383 Q378 442 330 474 Q289 501 228 501 Q161 501 127 468 Q99 441 99 396 Q99 348 143 316 Q180 290 229 290 L273 290 L273 252 L227 252 Q157 252 116 214 Q82 182 82 136 Q82 77 127 47 Q167 21 234 21 Q302 21 345 57 Q385 90 394 145 L436 145 Q422 66 364 24 Q311 -15 231 -15 Q135 -15 84 31 Q40 71 40 137 Q40 190 76 227 Q109 261 166 273 Q59 303 59 400 Q59 465 109 502 Q154 535 227 535 Q317 535 374 486 Q421 446 433 383 Z M209 573 L238 720 L291 720 L244 573 L209 573 Z " />
<glyph glyph-name="etatonos" unicode="&#x3ae;" horiz-adv-x="549" d="M121 0 L79 0 L79 520 L114 520 L119 424 Q146 480 199 510 Q243 535 296 535 Q384 535 432 481 Q475 434 475 358 L475 -180 L433 -180 L433 356 Q433 428 389 467 Q351 500 287 500 Q218 500 168 446 Q121 396 121 324 L121 0 Z M251 573 L280 720 L333 720 L286 573 L251 573 Z " />
<glyph glyph-name="iotatonos" unicode="&#x3af;" horiz-adv-x="191" d="M117 0 L75 0 L75 520 L117 520 L117 0 Z M80 573 L109 720 L162 720 L115 573 L80 573 Z " />
<glyph glyph-name="upsilondieresistonos" unicode="&#x3b0;" horiz-adv-x="541" d="M466 520 L466 164 Q466 73 410 27 Q360 -15 270 -15 Q167 -15 117 39 Q74 85 74 164 L74 520 L116 520 L116 167 Q116 93 158 55 Q197 20 270 20 Q353 20 393 66 Q425 103 425 167 L425 520 L466 520 Z M194 656 L143 656 L143 717 L194 717 L194 656 Z M397 656 L346 656 L346 717 L397 717 L397 656 Z M251 734 L279 881 L334 881 L284 734 L251 734 Z " />
<glyph glyph-name="alpha" unicode="&#x3b1;" horiz-adv-x="567" d="M487 0 L454 0 L447 107 Q420 47 369 15 Q322 -15 262 -15 Q164 -15 105 61 Q49 133 49 254 Q49 398 121 474 Q179 535 265 535 Q332 535 382 498 Q424 468 447 418 L454 520 L487 520 L487 0 Z M272 500 Q189 500 139 432 Q92 366 92 255 Q92 132 151 70 Q198 20 270 20 Q349 20 399 82 Q450 146 450 261 Q450 385 392 449 Q345 500 272 500 Z " />
<glyph glyph-name="beta" unicode="&#x3b2;" horiz-adv-x="547" d="M79 -180 L79 505 Q79 623 130 682 Q176 735 262 735 Q356 735 407 680 Q449 634 449 564 Q449 499 408 450 Q372 408 318 393 Q383 380 426 332 Q470 281 470 207 Q470 95 410 35 Q360 -15 282 -15 Q173 -15 121 84 L121 -180 L79 -180 Z M224 410 L265 410 Q320 410 365 456 Q407 500 407 560 Q407 628 366 666 Q328 700 261 700 Q121 700 121 502 L121 183 Q121 123 169 71 Q216 21 277 21 Q351 21 391 76 Q427 124 427 205 Q427 290 368 337 Q324 372 267 372 L224 372 L224 410 Z " />
<glyph glyph-name="gamma" unicode="&#x3b3;" horiz-adv-x="492" d="M267 -180 L225 -180 L225 0 L19 520 L64 520 L246 41 L430 520 L473 520 L267 0 L267 -180 Z " />
<glyph glyph-name="delta" unicode="&#x3b4;" horiz-adv-x="537" d="M147 693 L147 720 L457 720 L457 685 L248 685 Q359 655 424 553 Q487 454 487 313 Q487 -15 262 -15 Q157 -15 99 65 Q49 133 49 237 Q49 349 109 416 Q165 479 256 479 Q337 479 391 431 Q433 394 448 340 Q441 516 327 611 Q255 669 147 693 Z M445 227 L445 234 Q445 320 394 381 Q343 442 263 442 Q181 442 135 386 Q91 332 91 234 Q91 134 142 75 Q189 22 262 22 Q424 22 445 227 Z " />
<glyph glyph-name="epsilon" unicode="&#x3b5;" horiz-adv-x="473" d="M433 383 L390 383 Q378 442 330 474 Q289 501 228 501 Q161 501 127 468 Q99 441 99 396 Q99 348 143 316 Q180 290 229 290 L273 290 L273 252 L227 252 Q157 252 116 214 Q82 182 82 136 Q82 77 127 47 Q167 21 234 21 Q302 21 345 57 Q385 90 394 145 L436 145 Q422 66 364 24 Q311 -15 231 -15 Q135 -15 84 31 Q40 71 40 137 Q40 190 76 227 Q109 261 166 273 Q59 303 59 400 Q59 465 109 502 Q154 535 227 535 Q317 535 374 486 Q421 446 433 383 Z " />
<glyph glyph-name="zeta" unicode="&#x3b6;" horiz-adv-x="453" d="M411 720 L411 692 Q250 655 155 531 Q68 419 68 270 Q68 163 124 105 Q171 58 266 35 Q360 13 391 -14 Q416 -36 416 -74 Q416 -130 349 -195 L325 -175 Q376 -126 376 -84 Q376 -52 353 -36 Q330 -20 261 -4 Q26 50 26 263 Q26 425 117 541 Q194 641 322 685 L42 685 L42 720 L411 720 Z " />
<glyph glyph-name="eta" unicode="&#x3b7;" horiz-adv-x="549" d="M121 0 L79 0 L79 520 L114 520 L119 424 Q146 480 199 510 Q243 535 296 535 Q384 535 432 481 Q475 434 475 358 L475 -180 L433 -180 L433 356 Q433 428 389 467 Q351 500 287 500 Q218 500 168 446 Q121 396 121 324 L121 0 Z " />
<glyph glyph-name="theta" unicode="&#x3b8;" horiz-adv-x="572" d="M286 735 Q400 735 463 631 Q523 532 523 359 Q523 163 446 64 Q384 -15 286 -15 Q172 -15 109 89 Q49 187 49 359 Q49 556 126 655 Q187 735 286 735 Z M480 344 L92 344 Q94 175 153 91 Q203 21 286 21 Q381 21 432 113 Q478 196 480 344 Z M92 381 L480 381 Q476 546 417 629 Q368 699 286 699 Q191 699 140 607 Q95 525 92 381 Z " />
<glyph glyph-name="iota" unicode="&#x3b9;" horiz-adv-x="191" d="M117 0 L75 0 L75 520 L117 520 L117 0 Z " />
<glyph glyph-name="kappa" unicode="&#x3ba;" horiz-adv-x="478" d="M121 0 L79 0 L79 520 L121 520 L121 285 L385 520 L440 520 L163 275 L474 0 L416 0 L121 258 L121 0 Z " />
<glyph glyph-name="lambda" unicode="&#x3bb;" horiz-adv-x="495" d="M78 688 L78 722 Q113 735 141 735 Q170 735 186 727 Q202 719 216 696 Q242 658 290 523 L475 0 L432 0 L259 489 L62 0 L19 0 L230 520 L248 520 Q210 636 190.5 668 Q171 700 140 700 Q112 700 78 688 Z " />
<glyph glyph-name="uni03BC" unicode="&#x3bc;" horiz-adv-x="549" d="M79 520 L121 520 L121 165 Q121 89 166 51 Q203 20 265 20 Q339 20 387 78 Q428 128 428 200 L428 520 L470 520 L470 0 L435 0 L430 89 Q402 34 347 7 Q304 -15 256 -15 Q165 -15 121 41 L121 -180 L79 -180 L79 520 Z " />
<glyph glyph-name="nu" unicode="&#x3bd;" horiz-adv-x="492" d="M430 520 L473 520 L274 0 L218 0 L19 520 L64 520 L246 36 L430 520 Z " />
<glyph glyph-name="xi" unicode="&#x3be;" horiz-adv-x="444" d="M350 -195 L326 -175 Q378 -125 378 -90 Q378 -59 353.5 -43 Q329 -27 261 -12 Q22 38 22 190 Q22 268 65 310 Q103 348 177 362 Q42 387 42 512 Q42 578 95 627 Q141 670 216 685 L42 685 L42 720 L402 720 L402 690 L387 690 Q226 690 145 630 Q82 583 82 509 Q82 440 138 406 Q183 379 252 379 L297 379 L297 342 L246 342 Q152 342 104 294 Q64 254 64 189 Q64 122 116 83 Q163 48 266 24 Q357 2 387.5 -18.5 Q418 -39 418 -79 Q418 -129 350 -195 Z " />
<glyph glyph-name="omicron" unicode="&#x3bf;" horiz-adv-x="567" d="M284 535 Q398 535 460 456 Q518 383 518 260 Q518 120 443 46 Q382 -15 286 -15 Q174 -15 109 65 Q49 139 49 260 Q49 401 125 475 Q188 535 284 535 Z M284 501 Q191 501 140 432 Q92 369 92 260 Q92 137 155 72 Q205 19 284 19 Q377 19 429 88 Q476 151 476 260 Q476 385 415 449 Q364 501 284 501 Z " />
<glyph glyph-name="rho" unicode="&#x3c1;" horiz-adv-x="571" d="M78 -180 L78 286 Q78 415 143 479 Q198 535 294 535 Q403 535 465 460 Q522 389 522 267 Q522 123 449 47 Q390 -15 300 -15 Q233 -15 183 21 Q142 51 120 101 L120 -180 L78 -180 Z M293 500 Q116 500 116 259 Q116 135 173 71 Q220 20 294 20 Q381 20 432 89 Q479 155 479 268 Q479 390 418 451 Q370 500 293 500 Z " />
<glyph glyph-name="uni03C2" unicode="&#x3c2;" horiz-adv-x="524" d="M403 -195 L380 -175 Q428 -127 428 -85 Q428 -50 397 -34 Q370 -20 293 -4 Q162 23 102 98 Q49 164 49 272 Q49 404 124 476 Q185 535 275 535 Q365 535 421 488 Q471 447 484 379 L439 379 Q428 439 381 471 Q338 500 276 500 Q189 500 138 432 Q91 370 91 269 Q91 168 148 109 Q199 57 299 33 Q405 8 436.5 -12 Q468 -32 468 -74 Q468 -130 403 -195 Z " />
<glyph glyph-name="sigma" unicode="&#x3c3;" horiz-adv-x="567" d="M579 484 L430 488 Q471 453 494.5 392.5 Q518 332 518 260 Q518 120 443 46 Q382 -15 286 -15 Q174 -15 109 65 Q49 139 49 260 Q49 401 123 474 Q184 535 281 535 Q333 535 383 520 L579 520 L579 484 Z M378 489 Q337 500 281 500 Q191 500 140 432 Q91 368 91 260 Q91 137 154 72 Q205 19 284 19 Q376 19 428 88 Q475 151 475 260 Q475 340 448 401 Q423 457 378 489 Z " />
<glyph glyph-name="tau" unicode="&#x3c4;" horiz-adv-x="473" d="M257 0 L216 0 L216 483 L15 483 L15 520 L458 520 L458 483 L257 483 L257 0 Z " />
<glyph glyph-name="upsilon" unicode="&#x3c5;" horiz-adv-x="541" d="M466 520 L466 164 Q466 73 410 27 Q360 -15 270 -15 Q167 -15 117 39 Q74 85 74 164 L74 520 L116 520 L116 167 Q116 93 158 55 Q197 20 270 20 Q353 20 393 66 Q425 103 425 167 L425 520 L466 520 Z " />
<glyph glyph-name="phi" unicode="&#x3c6;" horiz-adv-x="757" d="M347 20 L347 286 Q347 535 517 535 Q607 535 652 461 Q694 393 694 268 Q694 -6 388 -15 L388 -180 L347 -180 L347 -15 Q198 -11 128 51 Q63 108 63 219 Q63 337 128 520 L170 520 Q133 420 119 355.5 Q105 291 105 223 Q105 116 171 67 Q230 23 347 20 Z M388 262 L388 19 Q533 24 597 93 Q652 154 652 269 Q652 394 610 452 Q576 500 515 500 Q448 500 417 440 Q388 382 388 262 Z " />
<glyph glyph-name="chi" unicode="&#x3c7;" horiz-adv-x="506" d="M456 520 L275 188 L487 -180 L436 -180 L248 157 L68 -180 L19 -180 L223 187 L28 520 L81 520 L251 218 L408 520 L456 520 Z " />
<glyph glyph-name="psi" unicode="&#x3c8;" horiz-adv-x="710" d="M74 520 L116 520 L116 199 Q116 113 187 65 Q244 26 336 22 L336 520 L377 520 L377 22 Q482 27 540 77 Q594 123 594 199 L594 520 L635 520 L635 204 Q635 97 554 39 Q487 -10 377 -14 L377 -180 L336 -180 L336 -15 Q208 -10 138 53 Q74 110 74 204 L74 520 Z " />
<glyph glyph-name="omega" unicode="&#x3c9;" horiz-adv-x="770" d="M601 520 L642 520 Q708 343 708 215 Q708 93 656 33 Q614 -15 545 -15 Q409 -15 386 115 Q373 46 325 13 Q285 -15 225 -15 Q145 -15 103 48 Q63 108 63 215 Q63 339 129 520 L170 520 Q134 421 119.5 354.5 Q105 288 105 219 Q105 111 145 60 Q177 20 233 20 Q297 20 334 68 Q366 111 366 180 L366 380 L405 380 L405 180 Q405 101 446 57 Q481 20 536 20 Q601 20 635 73 Q667 124 667 219 Q667 287 652.5 352.5 Q638 418 601 520 Z " />
<glyph glyph-name="iotadieresis" unicode="&#x3ca;" horiz-adv-x="191" d="M116 0 L75 0 L75 520 L116 520 L116 0 Z M22 659 L-29 659 L-29 720 L22 720 L22 659 Z M221 659 L170 659 L170 720 L221 720 L221 659 Z " />
<glyph glyph-name="upsilondieresis" unicode="&#x3cb;" horiz-adv-x="541" d="M466 520 L466 164 Q466 73 410 27 Q360 -15 270 -15 Q167 -15 117 39 Q74 85 74 164 L74 520 L116 520 L116 167 Q116 93 158 55 Q197 20 270 20 Q353 20 393 66 Q425 103 425 167 L425 520 L466 520 Z M195 659 L144 659 L144 720 L195 720 L195 659 Z M394 659 L343 659 L343 720 L394 720 L394 659 Z " />
<glyph glyph-name="omicrontonos" unicode="&#x3cc;" horiz-adv-x="567" d="M284 535 Q398 535 460 456 Q518 383 518 260 Q518 120 443 46 Q382 -15 286 -15 Q174 -15 109 65 Q49 139 49 260 Q49 401 125 475 Q188 535 284 535 Z M284 501 Q191 501 140 432 Q92 369 92 260 Q92 137 155 72 Q205 19 284 19 Q377 19 429 88 Q476 151 476 260 Q476 385 415 449 Q364 501 284 501 Z M268 573 L297 720 L350 720 L303 573 L268 573 Z " />
<glyph glyph-name="upsilontonos" unicode="&#x3cd;" horiz-adv-x="541" d="M466 520 L466 164 Q466 73 410 27 Q360 -15 270 -15 Q167 -15 117 39 Q74 85 74 164 L74 520 L116 520 L116 167 Q116 93 158 55 Q197 20 270 20 Q353 20 393 66 Q425 103 425 167 L425 520 L466 520 Z M238 573 L267 720 L320 720 L273 573 L238 573 Z " />
<glyph glyph-name="omegatonos" unicode="&#x3ce;" horiz-adv-x="770" d="M601 520 L642 520 Q708 343 708 215 Q708 93 656 33 Q614 -15 545 -15 Q409 -15 386 115 Q373 46 325 13 Q285 -15 225 -15 Q145 -15 103 48 Q63 108 63 215 Q63 339 129 520 L170 520 Q134 421 119.5 354.5 Q105 288 105 219 Q105 111 145 60 Q177 20 233 20 Q297 20 334 68 Q366 111 366 180 L366 380 L405 380 L405 180 Q405 101 446 57 Q481 20 536 20 Q601 20 635 73 Q667 124 667 219 Q667 287 652.5 352.5 Q638 418 601 520 Z M368 573 L397 720 L450 720 L403 573 L368 573 Z " />
<glyph glyph-name="uni0400" unicode="&#x400;" horiz-adv-x="562" d="M474 385 L474 348 L127 348 L127 38 L503 38 L503 0 L84 0 L84 720 L503 720 L503 683 L127 683 L127 385 L474 385 Z M239 905 L342 768 L303 768 L180 905 L239 905 Z " />
<glyph glyph-name="afii10023" unicode="&#x401;" horiz-adv-x="562" d="M474 385 L474 348 L127 348 L127 38 L503 38 L503 0 L84 0 L84 720 L503 720 L503 683 L127 683 L127 385 L474 385 Z M217 829 L166 829 L166 890 L217 890 L217 829 Z M416 829 L364 829 L364 890 L416 890 L416 829 Z " />
<glyph glyph-name="afii10051" unicode="&#x402;" horiz-adv-x="784" d="M284 0 L241 0 L241 682 L19 682 L19 720 L506 720 L506 682 L284 682 L284 357 Q313 413 371 441 Q421 465 486 465 Q599 465 659 400 Q715 341 715 238 L715 102 Q715 41 684 11 Q657 -15 612 -15 Q575 -15 541 -4 L541 32 Q580 21 606 21 Q640 21 656 41.5 Q672 62 672 107 L672 242 Q672 341 611 389 Q561 428 475 428 Q380 428 328 368 Q284 318 284 239 L284 0 Z " />
<glyph glyph-name="afii10052" unicode="&#x403;" horiz-adv-x="486" d="M84 720 L467 720 L467 683 L127 683 L127 0 L84 0 L84 720 Z M197 768 L300 905 L359 905 L236 768 L197 768 Z " />
<glyph glyph-name="afii10053" unicode="&#x404;" horiz-adv-x="716" d="M623 235 L666 235 Q652 118 567 48 Q489 -15 378 -15 Q223 -15 133 99 Q54 198 54 353 Q54 545 159 649 Q245 735 374 735 Q498 735 578 669 Q651 608 667 507 L625 507 Q605 607 530 656 Q467 698 374 698 Q252 698 176 606 Q107 522 99 385 L459 385 L459 348 L98 348 Q100 189 189 98 Q265 22 377 22 Q484 22 551 86 Q611 142 623 235 Z " />
<glyph glyph-name="afii10054" unicode="&#x405;" horiz-adv-x="644" d="M44 178 L89 178 Q105 97 177 57 Q236 23 322 23 Q435 23 494 72 Q544 113 544 181 Q544 259 487 298 Q433 337 300 364 Q173 390 120 443 Q76 488 76 560 Q76 645 147 692 Q211 735 322 735 Q434 735 507 683 Q572 636 589 560 L545 560 Q528 629 463 666 Q405 698 323 698 Q217 698 164 655 Q120 620 120 563 Q120 495 169 458 Q216 423 329 399 Q479 367 537 311 Q587 263 587 182 Q587 89 510 35 Q439 -15 322 -15 Q202 -15 127 41 Q61 92 44 178 Z " />
<glyph glyph-name="afii10055" unicode="&#x406;" horiz-adv-x="211" d="M84 720 L127 720 L127 0 L84 0 L84 720 Z " />
<glyph glyph-name="afii10056" unicode="&#x407;" horiz-adv-x="211" d="M84 720 L127 720 L127 0 L84 0 L84 720 Z M32 829 L-19 829 L-19 890 L32 890 L32 829 Z M231 829 L180 829 L180 890 L231 890 L231 829 Z " />
<glyph glyph-name="afii10057" unicode="&#x408;" horiz-adv-x="518" d="M33 188 L75 188 Q79 103 129 59 Q171 22 238 22 Q317 22 359 73 Q396 119 396 198 L396 720 L439 720 L439 198 Q439 95 378 36 Q324 -15 237 -15 Q139 -15 84 48 Q37 102 33 188 Z " />
<glyph glyph-name="afii10058" unicode="&#x409;" horiz-adv-x="1030" d="M142 720 L532 720 L532 438 L733 438 Q858 438 924 371 Q980 313 980 215 Q980 110 901 50 Q834 0 731 0 L489 0 L489 682 L181 682 L132 134 Q125 54 97 25 Q72 0 19 0 L19 43 Q54 43 69 60.5 Q84 78 88 124 L142 720 Z M736 401 L532 401 L532 38 L731 38 Q832 38 888 92 Q936 138 936 215 Q936 308 876 358 Q824 401 736 401 Z " />
<glyph glyph-name="afii10059" unicode="&#x40a;" horiz-adv-x="1071" d="M573 417 L759 417 Q892 417 961 355 Q1021 300 1021 205 Q1021 107 942 49 Q874 0 772 0 L530 0 L530 380 L127 380 L127 0 L84 0 L84 720 L127 720 L127 417 L530 417 L530 720 L573 720 L573 417 Z M573 38 L772 38 Q873 38 928 90 Q976 134 976 205 Q976 291 917 338 Q864 380 777 380 L573 380 L573 38 Z " />
<glyph glyph-name="afii10060" unicode="&#x40b;" horiz-adv-x="784" d="M284 0 L241 0 L241 682 L19 682 L19 720 L506 720 L506 682 L284 682 L284 357 Q313 413 371 441 Q421 465 486 465 Q599 465 659 400 Q715 341 715 238 L715 0 L672 0 L672 242 Q672 341 611 389 Q561 428 475 428 Q379 428 327 367 Q284 316 284 235 L284 0 Z " />
<glyph glyph-name="afii10061" unicode="&#x40c;" horiz-adv-x="585" d="M570 0 L513 0 L188 348 L127 348 L127 0 L84 0 L84 720 L127 720 L127 386 L191 386 L491 720 L541 720 L226 369 L570 0 Z M210 768 L313 905 L372 905 L249 768 L210 768 Z " />
<glyph glyph-name="uni040D" unicode="&#x40d;" horiz-adv-x="677" d="M551 684 L551 720 L593 720 L593 0 L551 0 L551 623 L124 37 L124 0 L84 0 L84 720 L124 720 L124 97 L551 684 Z M266 905 L369 768 L330 768 L207 905 L266 905 Z " />
<glyph glyph-name="afii10062" unicode="&#x40e;" horiz-adv-x="547" d="M538 720 L298 151 L288 128 Q252 41 234 18 Q209 -15 167 -15 Q149 -15 125 -9 L125 27 Q148 21 168 21 Q196 21 213 47.5 Q230 74 264 171 L247 171 L9 720 L54 720 L276 205 L495 720 L538 720 Z M365 879 L404 879 Q396 769 270 767 Q143 769 135 879 L174 879 Q178 800 270 800 Q361 800 365 879 Z " />
<glyph glyph-name="afii10145" unicode="&#x40f;" horiz-adv-x="679" d="M595 0 L359 0 L359 -140 L319 -140 L319 0 L84 0 L84 720 L127 720 L127 39 L552 39 L552 720 L595 720 L595 0 Z " />
<glyph glyph-name="afii10017" unicode="&#x410;" horiz-adv-x="648" d="M639 0 L591 0 L508 210 L138 210 L54 0 L9 0 L296 720 L353 720 L639 0 Z M325 680 L152 247 L494 247 L325 680 Z " />
<glyph glyph-name="afii10018" unicode="&#x411;" horiz-adv-x="625" d="M84 720 L477 720 L477 683 L127 683 L127 438 L328 438 Q453 438 519 371 Q575 313 575 215 Q575 110 496 50 Q429 0 326 0 L84 0 L84 720 Z M127 38 L326 38 Q427 38 482 92 Q530 138 530 215 Q530 308 471 358 Q419 401 331 401 L127 401 L127 38 Z " />
<glyph glyph-name="afii10019" unicode="&#x412;" horiz-adv-x="634" d="M84 720 L328 720 Q441 720 500 667 Q550 622 550 546 Q550 484 510 437 Q474 396 416 382 Q492 372 539 316 Q581 266 581 199 Q581 99 510 47 Q446 0 333 0 L84 0 L84 720 Z M127 38 L339 38 Q441 38 492 86 Q536 127 536 199 Q536 278 478 322 Q427 362 345 362 L127 362 L127 38 Z M127 398 L342 398 Q426 398 471 446 Q508 485 508 545 Q508 615 456 651 Q411 683 334 683 L127 683 L127 398 Z " />
<glyph glyph-name="afii10020" unicode="&#x413;" horiz-adv-x="486" d="M84 720 L467 720 L467 683 L127 683 L127 0 L84 0 L84 720 Z " />
<glyph glyph-name="afii10021" unicode="&#x414;" horiz-adv-x="609" d="M136 720 L525 720 L525 39 L577 39 L577 -140 L537 -140 L537 0 L52 0 L52 -140 L12 -140 L12 39 L53 39 Q79 54 95.5 93.5 Q112 133 114 187 L136 720 Z M178 682 L157 193 Q153 81 97 39 L482 39 L482 682 L178 682 Z " />
<glyph glyph-name="afii10022" unicode="&#x415;" horiz-adv-x="562" d="M474 385 L474 348 L127 348 L127 38 L503 38 L503 0 L84 0 L84 720 L503 720 L503 683 L127 683 L127 385 L474 385 Z " />
<glyph glyph-name="afii10024" unicode="&#x416;" horiz-adv-x="828" d="M43 720 L91 720 L286 386 L393 386 L393 720 L435 720 L435 386 L541 386 L737 720 L785 720 L578 372 L814 0 L765 0 L546 348 L435 348 L435 0 L393 0 L393 348 L282 348 L63 0 L14 0 L250 372 L43 720 Z " />
<glyph glyph-name="afii10025" unicode="&#x417;" horiz-adv-x="590" d="M102 566 L57 566 Q74 651 143 696 Q205 735 297 735 Q402 735 463 681 Q516 633 516 557 Q516 414 382 382 Q455 373 497 320 Q535 272 535 201 Q535 94 460 35 Q396 -15 293 -15 Q187 -15 121 35 Q63 80 48 155 L93 155 Q107 86 167 51 Q218 21 294 21 Q391 21 444 75 Q490 123 490 200 Q490 282 436 325 Q390 362 316 362 L236 362 L236 400 L312 400 Q390 400 434 449 Q472 490 472 553 Q472 626 418 665 Q371 699 295 699 Q209 699 159 660 Q115 626 102 566 Z " />
<glyph glyph-name="afii10026" unicode="&#x418;" horiz-adv-x="677" d="M551 684 L551 720 L593 720 L593 0 L551 0 L551 623 L124 37 L124 0 L84 0 L84 720 L124 720 L124 97 L551 684 Z " />
<glyph glyph-name="afii10027" unicode="&#x419;" horiz-adv-x="677" d="M551 684 L551 720 L593 720 L593 0 L551 0 L551 623 L124 37 L124 0 L84 0 L84 720 L124 720 L124 97 L551 684 Z M430 879 L469 879 Q461 769 335 767 Q208 769 201 879 L239 879 Q243 800 335 800 Q426 800 430 879 Z " />
<glyph glyph-name="afii10028" unicode="&#x41a;" horiz-adv-x="585" d="M570 0 L513 0 L188 348 L127 348 L127 0 L84 0 L84 720 L127 720 L127 386 L191 386 L491 720 L541 720 L226 369 L570 0 Z " />
<glyph glyph-name="afii10029" unicode="&#x41b;" horiz-adv-x="626" d="M541 720 L541 0 L498 0 L498 682 L181 682 L136 157 Q127 61 100 29 Q75 0 19 0 L19 44 Q54 44 69 61 Q84 78 88 124 L142 720 L541 720 Z " />
<glyph glyph-name="afii10030" unicode="&#x41c;" horiz-adv-x="833" d="M449 0 L399 0 L126 672 L126 0 L84 0 L84 720 L149 720 L425 43 L685 720 L749 720 L749 0 L707 0 L707 667 L449 0 Z " />
<glyph glyph-name="afii10031" unicode="&#x41d;" horiz-adv-x="679" d="M552 720 L595 720 L595 0 L552 0 L552 349 L127 349 L127 0 L84 0 L84 720 L127 720 L127 387 L552 387 L552 720 Z " />
<glyph glyph-name="afii10032" unicode="&#x41e;" horiz-adv-x="747" d="M373 735 Q521 735 611 625 Q693 523 693 359 Q693 170 588 68 Q502 -15 373 -15 Q224 -15 136 95 Q54 196 54 359 Q54 546 159 650 Q246 735 373 735 Z M373 697 Q243 697 168 599 Q98 508 98 359 Q98 186 191 95 Q265 22 373 22 Q500 22 576 115 Q649 205 649 359 Q649 530 559 622 Q486 697 373 697 Z " />
<glyph glyph-name="afii10033" unicode="&#x41f;" horiz-adv-x="679" d="M84 720 L595 720 L595 0 L552 0 L552 682 L127 682 L127 0 L84 0 L84 720 Z " />
<glyph glyph-name="afii10034" unicode="&#x420;" horiz-adv-x="625" d="M84 720 L328 720 Q454 720 519 653 Q576 595 576 497 Q576 392 496 332 Q429 282 326 282 L127 282 L127 0 L84 0 L84 720 Z M127 320 L326 320 Q427 320 483 374 Q531 420 531 497 Q531 590 471 640 Q419 683 331 683 L127 683 L127 320 Z " />
<glyph glyph-name="afii10035" unicode="&#x421;" horiz-adv-x="716" d="M623 235 L666 235 Q652 118 567 48 Q489 -15 378 -15 Q223 -15 133 99 Q54 198 54 353 Q54 545 159 649 Q245 735 375 735 Q499 735 579 669 Q651 608 667 507 L625 507 Q605 607 530 656 Q467 698 375 698 Q245 698 168 597 Q98 504 98 353 Q98 192 188 100 Q264 22 378 22 Q485 22 552 86 Q611 142 623 235 Z " />
<glyph glyph-name="afii10036" unicode="&#x422;" horiz-adv-x="567" d="M547 720 L547 682 L304 682 L304 0 L262 0 L262 682 L19 682 L19 720 L547 720 Z " />
<glyph glyph-name="afii10037" unicode="&#x423;" horiz-adv-x="547" d="M538 720 L298 151 L288 128 Q252 41 234 18 Q209 -15 167 -15 Q149 -15 125 -9 L125 27 Q148 21 168 21 Q196 21 213 47.5 Q230 74 264 171 L247 171 L9 720 L54 720 L276 205 L495 720 L538 720 Z " />
<glyph glyph-name="afii10038" unicode="&#x424;" horiz-adv-x="778" d="M368 735 L411 735 L411 700 Q558 697 644 601 Q725 510 725 359 Q725 196 622 101 Q536 22 411 21 L411 -15 L368 -15 L368 21 Q223 23 134 125 Q54 217 54 359 Q54 531 157 623 Q241 698 368 700 L368 735 Z M411 662 L411 58 Q534 60 610 147 Q681 228 681 359 Q681 509 598 590 Q526 661 411 662 Z M368 58 L368 662 Q235 660 162 570 Q98 489 98 359 Q98 209 189 126 Q262 59 368 58 Z " />
<glyph glyph-name="afii10039" unicode="&#x425;" horiz-adv-x="601" d="M573 720 L328 372 L582 0 L531 0 L301 340 L69 0 L19 0 L275 374 L39 720 L90 720 L304 406 L525 720 L573 720 Z " />
<glyph glyph-name="afii10040" unicode="&#x426;" horiz-adv-x="679" d="M84 0 L84 720 L127 720 L127 39 L552 39 L552 720 L595 720 L595 39 L646 39 L646 -140 L606 -140 L606 0 L84 0 Z " />
<glyph glyph-name="afii10041" unicode="&#x427;" horiz-adv-x="628" d="M501 720 L544 720 L544 0 L501 0 L501 368 Q472 310 414 280 Q364 255 297 255 Q182 255 122 320 Q69 379 69 483 L69 720 L112 720 L112 479 Q112 292 309 292 Q405 292 457 351 Q501 401 501 481 L501 720 Z " />
<glyph glyph-name="afii10042" unicode="&#x428;" horiz-adv-x="985" d="M858 720 L901 720 L901 0 L84 0 L84 720 L127 720 L127 39 L471 39 L471 720 L514 720 L514 39 L858 39 L858 720 Z " />
<glyph glyph-name="afii10043" unicode="&#x429;" horiz-adv-x="985" d="M858 720 L901 720 L901 38 L952 38 L952 -140 L913 -140 L913 0 L84 0 L84 720 L127 720 L127 39 L471 39 L471 720 L514 720 L514 39 L858 39 L858 720 Z " />
<glyph glyph-name="afii10044" unicode="&#x42a;" horiz-adv-x="804" d="M10 683 L10 720 L306 720 L306 438 L507 438 Q632 438 698 371 Q754 313 754 215 Q754 110 675 50 Q608 0 505 0 L263 0 L263 683 L10 683 Z M306 38 L505 38 Q606 38 661 92 Q709 138 709 215 Q709 308 649 358 Q597 401 510 401 L306 401 L306 38 Z " />
<glyph glyph-name="afii10045" unicode="&#x42b;" horiz-adv-x="752" d="M84 720 L127 720 L127 438 L328 438 Q453 438 519 371 Q576 312 576 215 Q576 110 496 50 Q429 0 326 0 L84 0 L84 720 Z M127 38 L326 38 Q427 38 483 92 Q531 138 531 215 Q531 308 471 358 Q419 401 331 401 L127 401 L127 38 Z M625 720 L667 720 L667 0 L625 0 L625 720 Z " />
<glyph glyph-name="afii10046" unicode="&#x42c;" horiz-adv-x="625" d="M84 720 L127 720 L127 438 L328 438 Q453 438 519 371 Q576 312 576 215 Q576 110 496 50 Q429 0 326 0 L84 0 L84 720 Z M127 38 L326 38 Q427 38 483 92 Q531 138 531 215 Q531 308 471 358 Q419 401 331 401 L127 401 L127 38 Z " />
<glyph glyph-name="afii10047" unicode="&#x42d;" horiz-adv-x="716" d="M92 507 L49 507 Q67 623 159 684 Q235 735 344 735 Q495 735 582 628 Q662 528 662 360 Q662 179 570 77 Q488 -15 350 -15 Q214 -15 132 64 Q63 131 50 235 L94 235 Q108 129 185 71 Q252 22 350 22 Q481 22 553 122 Q615 208 618 348 L257 348 L257 385 L617 385 Q610 545 523 629 Q452 698 344 698 Q237 698 170 644 Q109 594 92 507 Z " />
<glyph glyph-name="afii10048" unicode="&#x42e;" horiz-adv-x="1007" d="M124 387 L334 387 Q342 568 444 661 Q525 735 644 735 Q729 735 798 692 Q869 647 910 564 Q953 476 953 359 Q953 166 850 65 Q768 -15 644 -15 Q505 -15 418 92 Q337 191 334 349 L124 349 L124 0 L81 0 L81 720 L124 720 L124 387 Z M644 698 Q514 698 443 599 Q378 510 378 359 Q378 188 470 95 Q542 22 644 22 Q765 22 837 111 Q909 200 909 359 Q909 529 821 622 Q749 698 644 698 Z " />
<glyph glyph-name="afii10049" unicode="&#x42f;" horiz-adv-x="635" d="M70 0 L19 0 L218 306 Q145 324 104 370 Q60 420 60 500 Q60 612 127 670 Q185 720 279 720 L551 720 L551 0 L508 0 L508 301 L263 301 L70 0 Z M508 683 L275 683 Q185 683 140 621 Q105 573 105 500 Q105 421 159 377 Q204 340 272 340 L508 340 L508 683 Z " />
<glyph glyph-name="afii10065" unicode="&#x430;" horiz-adv-x="523" d="M107 389 L65 389 Q71 459 132 500 Q184 535 261 535 Q351 535 402 484 Q448 439 448 367 L448 0 L415 0 L408 91 Q380 41 333 13 Q284 -15 221 -15 Q140 -15 93 28 Q49 67 49 131 Q49 203 101 243 Q149 280 250 297 L407 323 L407 374 Q407 436 362 471 Q323 501 259 501 Q191 501 148 465 Q112 435 107 389 Z M407 289 L264 265 Q162 248 123 212 Q92 183 92 134 Q92 75 137 45 Q174 21 233 21 Q306 21 359 72 Q407 118 407 184 L407 289 Z " />
<glyph glyph-name="afii10066" unicode="&#x431;" horiz-adv-x="567" d="M392 720 L440 720 Q440 680 368 653 Q337 641 264 625 Q172 604 135 536 Q105 481 87 354 Q115 418 176 453 Q229 484 290 484 Q398 484 462 407 Q518 339 518 235 Q518 117 441 45 Q376 -15 286 -15 Q49 -15 49 290 Q49 466 106 557 Q154 631 244 652 Q322 670 353 683 Q392 700 392 720 Z M289 450 Q200 450 144 387 Q92 328 92 235 Q92 129 155 69 Q207 19 284 19 Q372 19 426 86 Q475 146 475 235 Q475 338 416 398 Q365 450 289 450 Z " />
<glyph glyph-name="afii10067" unicode="&#x432;" horiz-adv-x="499" d="M79 520 L275 520 Q358 520 401 487 Q441 456 441 399 Q441 303 334 273 Q394 261 427 226 Q460 193 460 144 Q460 67 400 30 Q353 0 275 0 L79 0 L79 520 Z M121 36 L272 36 Q418 36 418 142 Q418 197 368 228 Q328 253 275 253 L121 253 L121 36 Z M121 290 L271 290 Q325 290 364 322 Q401 352 401 395 Q401 483 274 483 L121 483 L121 290 Z " />
<glyph glyph-name="afii10068" unicode="&#x433;" horiz-adv-x="380" d="M121 0 L79 0 L79 520 L361 520 L361 483 L121 483 L121 0 Z " />
<glyph glyph-name="afii10069" unicode="&#x434;" horiz-adv-x="526" d="M19 37 L61 37 Q80 54 87 70.5 Q94 87 95 118 L115 520 L446 520 L446 37 L487 37 L487 -140 L449 -140 L449 0 L58 0 L58 -140 L19 -140 L19 37 Z M154 483 L137 125 Q135 71 101 37 L405 37 L405 483 L154 483 Z " />
<glyph glyph-name="afii10070" unicode="&#x435;" horiz-adv-x="569" d="M461 139 L505 139 Q485 63 422 22 Q367 -15 293 -15 Q178 -15 110 66 Q49 139 49 260 Q49 398 125 473 Q187 535 282 535 Q392 535 455 456 Q515 380 515 250 L91 250 Q95 130 161 69 Q214 21 294 21 Q361 21 406 56 Q447 87 461 139 Z M92 285 L471 285 Q466 396 405 454 Q356 501 282 501 Q198 501 146 438 Q97 381 92 285 Z " />
<glyph glyph-name="afii10072" unicode="&#x436;" horiz-adv-x="702" d="M38 520 L86 520 L244 300 L331 300 L331 520 L370 520 L370 300 L456 300 L615 520 L663 520 L489 282 L697 0 L648 0 L455 264 L370 264 L370 0 L331 0 L331 264 L247 264 L53 0 L4 0 L212 282 L38 520 Z " />
<glyph glyph-name="afii10073" unicode="&#x437;" horiz-adv-x="473" d="M199 290 L243 290 Q297 290 337 322 Q374 353 374 396 Q374 447 336 475 Q302 501 242 501 Q171 501 128 463 Q91 431 82 379 L39 379 Q53 455 113 498 Q166 535 243 535 Q326 535 373 494 Q414 458 414 400 Q414 303 307 273 Q366 261 400 226 Q433 192 433 143 Q433 65 372 22 Q320 -15 241 -15 Q149 -15 94 37 Q48 79 36 149 L78 149 Q89 87 134 52 Q176 21 238 21 Q308 21 349 52 Q391 84 391 141 Q391 196 340 227 Q300 252 245 252 L199 252 L199 290 Z " />
<glyph glyph-name="afii10074" unicode="&#x438;" horiz-adv-x="549" d="M120 0 L79 0 L79 520 L120 520 L120 81 L429 497 L429 520 L470 520 L470 0 L429 0 L429 439 L120 23 L120 0 Z " />
<glyph glyph-name="afii10075" unicode="&#x439;" horiz-adv-x="549" d="M120 0 L79 0 L79 520 L120 520 L120 81 L429 497 L429 520 L470 520 L470 0 L429 0 L429 439 L120 23 L120 0 Z M375 709 L413 709 Q405 599 279 597 Q153 599 145 709 L183 709 Q187 630 279 630 Q371 630 375 709 Z " />
<glyph glyph-name="afii10076" unicode="&#x43a;" horiz-adv-x="478" d="M121 0 L79 0 L79 520 L121 520 L121 300 L174 300 L387 520 L440 520 L210 282 L474 0 L422 0 L173 264 L121 264 L121 0 Z " />
<glyph glyph-name="afii10077" unicode="&#x43b;" horiz-adv-x="512" d="M434 0 L392 0 L392 483 L143 483 L113 116 Q107 49 87 25 Q66 0 19 0 L19 38 Q46 38 57 51 Q71 67 74 113 L106 520 L434 520 L434 0 Z " />
<glyph glyph-name="afii10078" unicode="&#x43c;" horiz-adv-x="642" d="M345 0 L297 0 L119 470 L119 0 L79 0 L79 520 L143 520 L322 46 L500 520 L563 520 L563 0 L522 0 L522 465 L345 0 Z " />
<glyph glyph-name="afii10079" unicode="&#x43d;" horiz-adv-x="554" d="M121 0 L79 0 L79 520 L121 520 L121 288 L433 288 L433 520 L475 520 L475 0 L433 0 L433 251 L121 251 L121 0 Z " />
<glyph glyph-name="afii10080" unicode="&#x43e;" horiz-adv-x="567" d="M284 535 Q398 535 460 456 Q518 383 518 260 Q518 120 443 46 Q382 -15 286 -15 Q174 -15 109 65 Q49 139 49 260 Q49 401 125 475 Q188 535 284 535 Z M284 501 Q191 501 140 432 Q92 369 92 260 Q92 137 155 72 Q205 19 284 19 Q377 19 429 88 Q476 151 476 260 Q476 385 415 449 Q364 501 284 501 Z " />
<glyph glyph-name="afii10081" unicode="&#x43f;" horiz-adv-x="554" d="M121 0 L79 0 L79 520 L475 520 L475 0 L433 0 L433 483 L121 483 L121 0 Z " />
<glyph glyph-name="afii10082" unicode="&#x440;" horiz-adv-x="572" d="M79 520 L113 520 L120 415 Q146 474 197 505 Q245 535 306 535 Q411 535 468 460 Q522 390 522 267 Q522 124 449 47 Q391 -15 301 -15 Q234 -15 184 21 Q143 51 121 101 L121 -180 L79 -180 L79 520 Z M299 500 Q217 500 168 438 Q117 375 117 259 Q117 135 174 71 Q221 20 295 20 Q382 20 433 89 Q480 155 480 268 Q480 391 422 451 Q375 500 299 500 Z " />
<glyph glyph-name="afii10083" unicode="&#x441;" horiz-adv-x="536" d="M444 149 L487 149 Q473 71 410 25 Q353 -15 276 -15 Q169 -15 107 63 Q49 136 49 256 Q49 399 125 475 Q186 535 278 535 Q364 535 422 487 Q472 445 484 379 L439 379 Q429 438 380 471 Q338 500 279 500 Q190 500 139 431 Q91 366 91 254 Q91 132 154 70 Q203 21 278 21 Q347 21 394 62 Q435 96 444 149 Z " />
<glyph glyph-name="afii10084" unicode="&#x442;" horiz-adv-x="473" d="M257 0 L216 0 L216 483 L15 483 L15 520 L458 520 L458 483 L257 483 L257 0 Z " />
<glyph glyph-name="afii10085" unicode="&#x443;" horiz-adv-x="492" d="M473 520 L288 -3 Q242 -132 220 -161 Q195 -195 149 -195 Q127 -195 97 -185 L97 -151 Q123 -160 149 -160 Q179 -160 196 -132.5 Q213 -105 248 0 L229 0 L19 520 L64 520 L259 31 L431 520 L473 520 Z " />
<glyph glyph-name="afii10086" unicode="&#x444;" horiz-adv-x="829" d="M394 720 L435 720 L435 417 Q459 474 502 506 Q543 535 594 535 Q683 535 733 460 Q780 389 780 267 Q780 124 716 47 Q665 -15 589 -15 Q532 -15 490 21 Q454 50 435 100 L435 -180 L394 -180 L394 100 Q371 43 328 13 Q289 -15 240 -15 Q152 -15 99 66 Q49 142 49 267 Q49 406 109 477 Q158 535 235 535 Q293 535 337 497 Q373 467 394 417 L394 720 Z M586 500 Q521 500 478 438 Q434 374 434 259 Q434 135 482 71 Q522 20 583 20 Q654 20 696 89 Q737 156 737 268 Q737 390 688 451 Q649 500 586 500 Z M243 500 Q171 500 130 436 Q91 375 91 268 Q91 140 144 73 Q185 20 246 20 Q316 20 357 87 Q395 151 395 259 Q395 389 339 454 Q299 500 243 500 Z " />
<glyph glyph-name="afii10087" unicode="&#x445;" horiz-adv-x="506" d="M456 520 L275 274 L487 0 L436 0 L248 244 L68 0 L19 0 L223 274 L28 520 L81 520 L251 304 L408 520 L456 520 Z " />
<glyph glyph-name="afii10088" unicode="&#x446;" horiz-adv-x="554" d="M433 520 L475 520 L475 37 L516 37 L516 -140 L476 -140 L476 0 L79 0 L79 520 L121 520 L121 37 L433 37 L433 520 Z " />
<glyph glyph-name="afii10089" unicode="&#x447;" horiz-adv-x="539" d="M69 520 L111 520 L111 326 Q111 250 155 212 Q192 181 255 181 Q328 181 377 238 Q419 287 419 356 L419 520 L460 520 L460 0 L419 0 L419 248 Q391 194 337 167 Q294 146 246 146 Q161 146 113 197 Q69 244 69 325 L69 520 Z " />
<glyph glyph-name="afii10090" unicode="&#x448;" horiz-adv-x="807" d="M686 520 L728 520 L728 0 L79 0 L79 520 L121 520 L121 37 L383 37 L383 520 L425 520 L425 37 L686 37 L686 520 Z " />
<glyph glyph-name="afii10091" unicode="&#x449;" horiz-adv-x="807" d="M686 520 L728 520 L728 37 L769 37 L769 -140 L730 -140 L730 0 L79 0 L79 520 L121 520 L121 37 L383 37 L383 520 L425 520 L425 37 L686 37 L686 520 Z " />
<glyph glyph-name="afii10092" unicode="&#x44a;" horiz-adv-x="630" d="M10 520 L247 520 L247 336 L372 336 Q481 336 537 283 Q582 241 582 176 Q582 0 362 0 L205 0 L205 483 L10 483 L10 520 Z M247 36 L365 36 Q463 36 504 76 Q539 110 539 175 Q539 236 495 268 Q452 300 370 300 L247 300 L247 36 Z " />
<glyph glyph-name="afii10093" unicode="&#x44b;" horiz-adv-x="622" d="M79 520 L121 520 L121 336 L246 336 Q355 336 410 283 Q455 241 455 176 Q455 0 236 0 L79 0 L79 520 Z M121 36 L239 36 Q337 36 378 76 Q413 110 413 175 Q413 236 369 268 Q325 300 244 300 L121 300 L121 36 Z M542 0 L500 0 L500 520 L542 520 L542 0 Z " />
<glyph glyph-name="afii10094" unicode="&#x44c;" horiz-adv-x="505" d="M79 520 L121 520 L121 336 L246 336 Q355 336 410 283 Q455 241 455 176 Q455 0 236 0 L79 0 L79 520 Z M121 36 L239 36 Q337 36 378 76 Q413 110 413 175 Q413 236 369 268 Q325 300 244 300 L121 300 L121 36 Z " />
<glyph glyph-name="afii10095" unicode="&#x44d;" horiz-adv-x="536" d="M49 149 L92 149 Q102 89 157 52 Q204 21 267 21 Q354 21 400 84 Q443 144 444 251 L202 251 L202 287 L443 287 Q436 400 383 455 Q339 500 269 500 Q194 500 146 463 Q105 430 96 379 L52 379 Q66 455 130 498 Q188 535 270 535 Q374 535 432 456 Q486 383 487 256 Q487 118 417 45 Q359 -15 266 -15 Q176 -15 114 37 Q61 82 49 149 Z " />
<glyph glyph-name="afii10096" unicode="&#x44e;" horiz-adv-x="770" d="M121 0 L79 0 L79 520 L121 520 L121 288 L272 288 Q280 415 351 481 Q409 535 497 535 Q606 535 666 456 Q721 383 721 260 Q721 119 650 46 Q592 -15 498 -15 Q392 -15 330 62 Q273 133 271 251 L121 251 L121 0 Z M497 501 Q409 501 359 432 Q314 369 314 260 Q314 137 374 72 Q422 19 497 19 Q585 19 634 88 Q679 151 679 260 Q679 385 622 449 Q574 501 497 501 Z " />
<glyph glyph-name="afii10097" unicode="&#x44f;" horiz-adv-x="524" d="M66 0 L19 0 L183 209 Q130 221 97 264 Q68 303 68 355 Q68 520 270 520 L445 520 L445 0 L404 0 L404 206 L228 206 L66 0 Z M404 484 L267 484 Q178 484 141 446 Q111 416 111 357 Q111 300 147 269 Q179 242 230 242 L404 242 L404 484 Z " />
<glyph glyph-name="uni0450" unicode="&#x450;" horiz-adv-x="569" d="M461 139 L505 139 Q485 63 422 22 Q367 -15 293 -15 Q178 -15 110 66 Q49 139 49 260 Q49 398 125 473 Q187 535 282 535 Q392 535 455 456 Q515 380 515 250 L91 250 Q95 130 161 69 Q214 21 294 21 Q361 21 406 56 Q447 87 461 139 Z M92 285 L471 285 Q466 396 405 454 Q356 501 282 501 Q198 501 146 438 Q97 381 92 285 Z M219 735 L322 598 L284 598 L160 735 L219 735 Z " />
<glyph glyph-name="afii10071" unicode="&#x451;" horiz-adv-x="569" d="M461 139 L505 139 Q485 63 422 22 Q367 -15 293 -15 Q178 -15 110 66 Q49 139 49 260 Q49 398 125 473 Q187 535 282 535 Q392 535 455 456 Q515 380 515 250 L91 250 Q95 130 161 69 Q214 21 294 21 Q361 21 406 56 Q447 87 461 139 Z M92 285 L471 285 Q466 396 405 454 Q356 501 282 501 Q198 501 146 438 Q97 381 92 285 Z M207 659 L156 659 L156 720 L207 720 L207 659 Z M406 659 L355 659 L355 720 L406 720 L406 659 Z " />
<glyph glyph-name="afii10099" unicode="&#x452;" horiz-adv-x="551" d="M123 0 L81 0 L81 617 L25 617 L25 652 L81 652 L81 720 L123 720 L123 652 L297 652 L297 617 L123 617 L123 425 Q149 481 202 510 Q246 535 298 535 Q386 535 434 481 Q477 434 477 358 L477 -75 Q477 -138 446 -169 Q419 -195 372 -195 Q336 -195 303 -184 L303 -147 Q336 -159 368 -159 Q403 -159 419 -138 Q435 -117 435 -72 L435 356 Q435 429 391 467 Q353 500 289 500 Q220 500 170 447 Q123 397 123 324 L123 0 Z " />
<glyph glyph-name="afii10100" unicode="&#x453;" horiz-adv-x="380" d="M121 0 L79 0 L79 520 L361 520 L361 483 L121 483 L121 0 Z M147 598 L250 735 L309 735 L186 598 L147 598 Z " />
<glyph glyph-name="afii10101" unicode="&#x454;" horiz-adv-x="536" d="M444 149 L487 149 Q473 71 410 25 Q353 -15 276 -15 Q169 -15 107 63 Q49 136 49 256 Q49 399 125 475 Q186 535 278 535 Q364 535 422 487 Q472 445 484 379 L439 379 Q429 438 380 471 Q338 500 279 500 Q196 500 146 441 Q99 385 92 287 L333 287 L333 251 L91 251 Q92 130 154 69 Q203 21 278 21 Q347 21 394 62 Q435 96 444 149 Z " />
<glyph glyph-name="afii10102" unicode="&#x455;" horiz-adv-x="493" d="M39 135 L82 135 Q89 80 137 48 Q180 20 245 20 Q322 20 365 60 Q400 92 400 137 Q400 191 353 219 Q313 243 224 257 Q56 284 56 400 Q56 464 108 500 Q158 535 241 535 Q326 535 382 491 Q431 453 441 394 L398 394 Q391 444 342 474 Q298 501 238 501 Q165 501 128 468 Q98 443 98 404 Q98 356 132.5 331 Q167 306 251 291 Q360 271 405 232 Q444 197 444 138 Q444 70 384 26 Q328 -15 244 -15 Q150 -15 95 32 Q48 72 39 135 Z " />
<glyph glyph-name="afii10103" unicode="&#x456;" horiz-adv-x="191" d="M116 0 L75 0 L75 520 L116 520 L116 0 Z M122 658 L70 658 L70 720 L122 720 L122 658 Z " />
<glyph glyph-name="afii10104" unicode="&#x457;" horiz-adv-x="191" d="M116 0 L75 0 L75 520 L116 520 L116 0 Z M22 659 L-29 659 L-29 720 L22 720 L22 659 Z M221 659 L170 659 L170 720 L221 720 L221 659 Z " />
<glyph glyph-name="afii10105" unicode="&#x458;" horiz-adv-x="191" d="M-57 -184 L-57 -148 Q-22 -158 7 -158 Q75 -158 75 -73 L75 520 L116 520 L116 -75 Q116 -137 86 -168 Q59 -195 13 -195 Q-23 -195 -57 -184 Z M121 658 L69 658 L69 720 L121 720 L121 658 Z " />
<glyph glyph-name="afii10106" unicode="&#x459;" horiz-adv-x="789" d="M106 520 L405 520 L405 336 L530 336 Q639 336 695 283 Q740 241 740 176 Q740 0 520 0 L364 0 L364 483 L145 483 L116 118 Q110 51 89 26 Q67 0 19 0 L19 38 Q47 38 57 50 Q70 66 74 113 L106 520 Z M405 36 L524 36 Q621 36 662 76 Q697 110 697 175 Q697 236 653 268 Q610 300 529 300 L405 300 L405 36 Z " />
<glyph glyph-name="afii10107" unicode="&#x45a;" horiz-adv-x="830" d="M121 0 L79 0 L79 520 L121 520 L121 288 L404 288 L404 520 L446 520 L446 336 L571 336 Q680 336 736 283 Q781 241 781 176 Q781 0 561 0 L404 0 L404 251 L121 251 L121 0 Z M446 36 L564 36 Q662 36 703 76 Q738 110 738 175 Q738 236 694 268 Q650 300 569 300 L446 300 L446 36 Z " />
<glyph glyph-name="afii10108" unicode="&#x45b;" horiz-adv-x="551" d="M123 0 L81 0 L81 617 L25 617 L25 652 L81 652 L81 720 L123 720 L123 652 L297 652 L297 617 L123 617 L123 426 Q149 481 202 510 Q246 535 298 535 Q385 535 434 481 Q477 434 477 358 L477 0 L435 0 L435 356 Q435 428 391 467 Q353 500 288 500 Q220 500 170 446 Q123 396 123 324 L123 0 Z " />
<glyph glyph-name="afii10109" unicode="&#x45c;" horiz-adv-x="478" d="M121 0 L79 0 L79 520 L121 520 L121 300 L174 300 L387 520 L440 520 L210 282 L474 0 L422 0 L173 264 L121 264 L121 0 Z M189 598 L292 735 L351 735 L228 598 L189 598 Z " />
<glyph glyph-name="uni045D" unicode="&#x45d;" horiz-adv-x="549" d="M120 0 L79 0 L79 520 L120 520 L120 81 L429 497 L429 520 L470 520 L470 0 L429 0 L429 439 L120 23 L120 0 Z M206 735 L309 598 L271 598 L147 735 L206 735 Z " />
<glyph glyph-name="afii10110" unicode="&#x45e;" horiz-adv-x="492" d="M473 520 L288 -3 Q242 -132 220 -161 Q195 -195 149 -195 Q127 -195 97 -185 L97 -151 Q123 -160 149 -160 Q179 -160 196 -132.5 Q213 -105 248 0 L229 0 L19 520 L64 520 L259 31 L431 520 L473 520 Z M347 709 L385 709 Q378 599 251 597 Q125 599 117 709 L156 709 Q160 630 251 630 Q343 630 347 709 Z " />
<glyph glyph-name="afii10193" unicode="&#x45f;" horiz-adv-x="554" d="M433 520 L475 520 L475 0 L296 0 L296 -140 L257 -140 L257 0 L79 0 L79 520 L121 520 L121 38 L433 38 L433 520 Z " />
<glyph glyph-name="uni0462" unicode="&#x462;" horiz-adv-x="781" d="M284 438 L470 438 Q605 438 672 374 Q732 317 732 215 Q732 110 653 50 Q586 0 483 0 L241 0 L241 682 L19 682 L19 720 L506 720 L506 682 L284 682 L284 438 Z M284 38 L483 38 Q584 38 639 92 Q687 138 687 215 Q687 308 628 358 Q576 401 488 401 L284 401 L284 38 Z " />
<glyph glyph-name="uni0463" unicode="&#x463;" horiz-adv-x="505" d="M244 490 L121 490 L121 336 L246 336 Q355 336 411 283 Q456 240 456 175 Q456 0 236 0 L79 0 L79 490 L4 490 L4 526 L79 526 L79 647 L121 647 L121 526 L244 526 L244 490 Z M121 36 L239 36 Q336 36 378 76 Q413 109 413 174 Q413 235 369 268 Q326 300 244 300 L121 300 L121 36 Z " />
<glyph glyph-name="uni0472" unicode="&#x472;" horiz-adv-x="747" d="M373 735 Q521 735 611 625 Q693 523 693 359 Q693 170 588 68 Q502 -15 373 -15 Q224 -15 136 95 Q54 196 54 359 Q54 546 159 650 Q246 735 373 735 Z M649 349 L98 349 Q101 181 193 93 Q266 22 373 22 Q498 22 573 112 Q646 199 649 349 Z M98 387 L648 387 Q640 544 552 628 Q480 697 373 697 Q249 697 174 607 Q105 524 98 387 Z " />
<glyph glyph-name="uni0473" unicode="&#x473;" horiz-adv-x="567" d="M284 535 Q398 535 460 456 Q518 383 518 260 Q518 120 443 46 Q382 -15 286 -15 Q174 -15 109 65 Q49 139 49 260 Q49 401 125 475 Q188 535 284 535 Z M476 249 L92 249 Q95 131 157 69 Q208 19 284 19 Q375 19 426 85 Q473 145 476 249 Z M92 284 L475 284 Q469 397 409 454 Q360 501 284 501 Q196 501 145 439 Q97 382 92 284 Z " />
<glyph glyph-name="uni0474" unicode="&#x474;" horiz-adv-x="621" d="M9 720 L53 720 L309 35 L570 720 L611 720 L340 0 L279 0 L9 720 Z " />
<glyph glyph-name="uni0475" unicode="&#x475;" horiz-adv-x="492" d="M430 520 L473 520 L274 0 L218 0 L19 520 L64 520 L246 36 L430 520 Z " />
<glyph glyph-name="afii10050" unicode="&#x490;" horiz-adv-x="486" d="M84 720 L427 720 L427 860 L467 860 L467 683 L127 683 L127 0 L84 0 L84 720 Z " />
<glyph glyph-name="afii10098" unicode="&#x491;" horiz-adv-x="380" d="M121 0 L79 0 L79 520 L322 520 L322 659 L361 659 L361 483 L121 483 L121 0 Z " />
<glyph glyph-name="uni0492" unicode="&#x492;" horiz-adv-x="486" d="M467 720 L467 683 L127 683 L127 385 L347 385 L347 348 L127 348 L127 0 L84 0 L84 348 L-6 348 L-6 385 L84 385 L84 720 L467 720 Z " />
<glyph glyph-name="uni0493" unicode="&#x493;" horiz-adv-x="380" d="M361 483 L120 483 L120 288 L278 288 L278 251 L120 251 L120 0 L79 0 L79 251 L29 251 L29 288 L79 288 L79 520 L361 520 L361 483 Z " />
<glyph glyph-name="uni0496" unicode="&#x496;" horiz-adv-x="826" d="M43 720 L91 720 L286 386 L393 386 L393 720 L435 720 L435 386 L541 386 L737 720 L785 720 L578 372 L789 39 L836 39 L836 -140 L797 -140 L797 0 L765 0 L546 348 L435 348 L435 0 L393 0 L393 348 L282 348 L63 0 L14 0 L250 372 L43 720 Z " />
<glyph glyph-name="uni0497" unicode="&#x497;" horiz-adv-x="703" d="M38 520 L86 520 L244 300 L331 300 L331 520 L370 520 L370 300 L456 300 L615 520 L663 520 L489 282 L671 37 L710 37 L710 -140 L671 -140 L671 0 L648 0 L455 264 L370 264 L370 0 L331 0 L331 264 L247 264 L53 0 L4 0 L212 282 L38 520 Z " />
<glyph glyph-name="uni0498" unicode="&#x498;" horiz-adv-x="589" d="M320 -14 L320 -51 Q377 -57 406 -85 Q430 -108 430 -143 Q430 -186 396 -214 Q365 -239 321 -239 Q271 -239 240 -215 Q211 -193 206 -155 L242 -155 Q245 -179 266 -193 Q287 -207 321 -207 Q354 -207 374.5 -189 Q395 -171 395 -143 Q395 -78 281 -78 L286 -15 Q184 -13 120 37 Q63 82 49 155 L93 155 Q107 87 168 51 Q219 21 295 21 Q392 21 445 75 Q492 123 492 200 Q492 282 437 325 Q391 362 317 362 L236 362 L236 400 L313 400 Q391 400 435 449 Q473 490 473 553 Q473 626 419 665 Q373 699 296 699 Q210 699 160 660 Q116 626 103 566 L58 566 Q75 651 144 696 Q206 735 298 735 Q403 735 464 681 Q517 633 517 557 Q517 414 384 382 Q456 373 498 320 Q536 272 536 201 Q536 101 469 42 Q413 -7 320 -14 Z " />
<glyph glyph-name="uni0499" unicode="&#x499;" horiz-adv-x="473" d="M256 -15 L256 -51 Q313 -57 342 -85 Q366 -108 366 -143 Q366 -186 331 -214 Q300 -239 256 -239 Q206 -239 175 -215 Q146 -193 141 -155 L178 -155 Q181 -179 202 -193 Q223 -207 257 -207 Q289 -207 309.5 -189 Q330 -171 330 -143 Q330 -78 217 -78 L222 -14 Q139 -9 89 41 Q48 83 36 149 L78 149 Q89 87 134 52 Q176 21 238 21 Q308 21 349 52 Q391 84 391 141 Q391 196 340 227 Q300 252 245 252 L199 252 L199 290 L243 290 Q297 290 337 322 Q374 353 374 396 Q374 447 336 475 Q302 501 242 501 Q171 501 128 463 Q91 431 82 379 L39 379 Q53 455 113 498 Q166 535 243 535 Q326 535 373 494 Q414 458 414 400 Q414 303 307 273 Q366 261 400 226 Q433 192 433 143 Q433 68 377 25 Q329 -11 256 -15 Z " />
<glyph glyph-name="uni049A" unicode="&#x49a;" horiz-adv-x="585" d="M490 720 L540 720 L226 369 L534 39 L584 39 L584 -140 L544 -140 L544 0 L512 0 L188 348 L127 348 L127 0 L84 0 L84 720 L127 720 L127 386 L191 386 L490 720 Z " />
<glyph glyph-name="uni049B" unicode="&#x49b;" horiz-adv-x="479" d="M121 0 L79 0 L79 520 L121 520 L121 300 L174 300 L387 520 L440 520 L210 282 L440 37 L483 37 L483 -140 L445 -140 L445 0 L421 0 L173 263 L121 263 L121 0 Z " />
<glyph glyph-name="uni049C" unicode="&#x49c;" horiz-adv-x="613" d="M218 66 L184 66 L184 347 L127 347 L127 0 L84 0 L84 720 L127 720 L127 386 L184 386 L184 591 L218 591 L218 386 L519 720 L569 720 L255 369 L599 0 L543 0 L218 347 L218 66 Z " />
<glyph glyph-name="uni049D" unicode="&#x49d;" horiz-adv-x="500" d="M157 263 L121 263 L121 0 L79 0 L79 520 L121 520 L121 300 L157 300 L157 402 L191 402 L191 300 L193 300 L406 520 L458 520 L229 282 L493 -1 L440 0 L192 263 L191 263 L191 54 L157 54 L157 263 Z " />
<glyph glyph-name="uni04A0" unicode="&#x4a0;" horiz-adv-x="763" d="M749 0 L691 0 L367 348 L305 348 L305 0 L262 0 L262 683 L9 683 L9 720 L305 720 L305 386 L369 386 L669 720 L719 720 L404 369 L749 0 Z " />
<glyph glyph-name="uni04A1" unicode="&#x4a1;" horiz-adv-x="604" d="M247 0 L205 0 L205 483 L10 483 L10 520 L247 520 L247 300 L301 300 L514 520 L566 520 L337 282 L600 0 L548 0 L300 264 L247 264 L247 0 Z " />
<glyph glyph-name="uni04A2" unicode="&#x4a2;" horiz-adv-x="679" d="M552 720 L595 720 L595 39 L646 39 L646 -140 L606 -140 L606 0 L552 0 L552 349 L127 349 L127 0 L84 0 L84 720 L127 720 L127 387 L552 387 L552 720 Z " />
<glyph glyph-name="uni04A3" unicode="&#x4a3;" horiz-adv-x="554" d="M121 0 L79 0 L79 520 L121 520 L121 288 L433 288 L433 520 L475 520 L475 37 L516 37 L516 -140 L476 -140 L476 0 L433 0 L433 251 L121 251 L121 0 Z " />
<glyph glyph-name="uni04AA" unicode="&#x4aa;" horiz-adv-x="716" d="M518 -149 L557 -149 Q545 -189 512.5 -212.5 Q480 -236 437 -236 Q384 -236 354 -206 Q327 -178 327 -135 Q327 -66 414 -12 Q398 -15 378 -15 Q223 -15 133 99 Q54 198 54 353 Q54 545 159 649 Q245 735 375 735 Q499 735 579 669 Q651 608 667 507 L625 507 Q605 607 530 656 Q467 698 375 698 Q245 698 168 596 Q98 503 98 353 Q98 192 188 100 Q264 22 378 22 Q485 22 552 86 Q611 142 623 235 L666 235 Q657 160 614 99 Q576 46 524 21 Q442 -19 407 -51 Q365 -89 365 -131 Q365 -165 384.5 -184 Q404 -203 440 -203 Q499 -203 518 -149 Z " />
<glyph glyph-name="uni04AB" unicode="&#x4ab;" horiz-adv-x="536" d="M392 -149 L431 -149 Q419 -189 386.5 -212.5 Q354 -236 311 -236 Q258 -236 228 -206 Q201 -178 201 -135 Q201 -67 285 -15 L277 -15 Q169 -15 107 63 Q49 135 49 256 Q49 399 125 475 Q186 535 278 535 Q364 535 422 486 Q471 444 483 378 L439 378 Q429 437 380 471 Q337 500 278 500 Q190 500 139 431 Q91 366 91 254 Q91 132 153 70 Q202 21 278 21 Q347 21 394 62 Q435 96 443 149 L487 149 Q467 40 358 -1 Q301 -23 268 -61 Q238 -95 238 -131 Q238 -165 257.5 -184 Q277 -203 313 -203 Q373 -203 392 -149 Z " />
<glyph glyph-name="uni04AE" unicode="&#x4ae;" horiz-adv-x="621" d="M9 720 L55 720 L309 322 Q210 223 201 223 Q200 223 200 225 Q200 242 567 720 L611 720 L331 281 L331 0 L288 0 L288 283 L9 720 Z " />
<glyph glyph-name="uni04AF" unicode="&#x4af;" horiz-adv-x="492" d="M267 -180 L225 -180 L225 0 L19 520 L64 520 L246 41 L430 520 L473 520 L267 0 L267 -180 Z " />
<glyph glyph-name="uni04B0" unicode="&#x4b0;" horiz-adv-x="621" d="M9 720 L55 720 L309 322 L567 720 L611 720 L350 311 L481 311 L481 273 L331 273 L331 0 L288 0 L288 273 L138 273 L138 311 L271 311 L9 720 Z " />
<glyph glyph-name="uni04B1" unicode="&#x4b1;" horiz-adv-x="492" d="M430 520 L473 520 L280 37 L379 37 L379 0 L267 0 L267 -180 L225 -180 L225 0 L110 0 L110 37 L211 37 L19 520 L64 520 L246 41 L430 520 Z " />
<glyph glyph-name="uni04B2" unicode="&#x4b2;" horiz-adv-x="600" d="M573 720 L328 372 L555 39 L602 39 L602 -140 L562 -140 L562 0 L531 0 L300 340 L68 0 L19 0 L275 374 L39 720 L89 720 L303 406 L525 720 L573 720 Z " />
<glyph glyph-name="uni04B3" unicode="&#x4b3;" horiz-adv-x="505" d="M456 520 L275 274 L459 37 L498 37 L498 -140 L459 -140 L459 0 L436 0 L248 244 L68 0 L19 0 L223 274 L28 520 L81 520 L251 304 L408 520 L456 520 Z " />
<glyph glyph-name="uni04B6" unicode="&#x4b6;" horiz-adv-x="628" d="M501 720 L544 720 L544 39 L595 39 L595 -140 L555 -140 L555 0 L501 0 L501 368 Q472 310 414 280 Q364 255 297 255 Q182 255 122 320 Q69 379 69 482 L69 720 L112 720 L112 478 Q112 379 171 332 Q220 292 309 292 Q407 292 458 352 Q501 403 501 487 L501 720 Z " />
<glyph glyph-name="uni04B7" unicode="&#x4b7;" horiz-adv-x="539" d="M69 520 L111 520 L111 326 Q111 250 155 212 Q192 181 255 181 Q327 181 376 239 Q418 289 418 358 L418 520 L460 520 L460 37 L501 37 L501 -140 L462 -140 L462 0 L418 0 L418 248 Q391 194 337 167 Q294 146 246 146 Q161 146 113 197 Q69 244 69 325 L69 520 Z " />
<glyph glyph-name="uni04B8" unicode="&#x4b8;" horiz-adv-x="628" d="M327 66 L293 66 L293 255 Q180 256 121 321 Q69 379 69 482 L69 720 L112 720 L112 484 Q112 302 293 293 L293 591 L327 591 L327 293 Q414 299 461 355 Q501 404 501 479 L501 720 L544 720 L544 0 L501 0 L501 368 Q453 268 327 257 L327 66 Z " />
<glyph glyph-name="uni04B9" unicode="&#x4b9;" horiz-adv-x="539" d="M244 401 L279 401 L279 182 Q344 193 383 248 Q418 296 418 361 L418 520 L460 520 L460 0 L418 0 L418 248 Q376 165 279 149 L279 53 L244 53 L244 146 Q160 147 113 197 Q69 245 69 325 L69 520 L111 520 L111 326 Q111 253 151 215 Q185 184 244 181 L244 401 Z " />
<glyph glyph-name="uni04BA" unicode="&#x4ba;" horiz-adv-x="627" d="M127 0 L84 0 L84 720 L127 720 L127 356 Q156 412 214 441 Q265 465 331 465 Q443 465 503 401 Q559 342 559 238 L559 0 L516 0 L516 242 Q516 341 455 389 Q405 428 320 428 Q224 428 172 368 Q127 316 127 235 L127 0 Z " />
<glyph glyph-name="uni04BB" unicode="&#x4bb;" horiz-adv-x="549" d="M121 0 L79 0 L79 720 L121 720 L121 336 Q147 391 200 420 Q244 445 296 445 Q384 445 432 391 Q475 344 475 268 L475 0 L433 0 L433 266 Q433 338 389 377 Q351 411 287 411 Q218 411 168 357 Q121 307 121 234 L121 0 Z " />
<glyph glyph-name="uni04C0" unicode="&#x4c0;" horiz-adv-x="211" d="M84 720 L127 720 L127 0 L84 0 L84 720 Z " />
<glyph glyph-name="uni04CB" unicode="&#x4cb;" horiz-adv-x="628" d="M501 39 L501 368 Q472 310 414 280 Q364 255 297 255 Q182 255 122 320 Q69 379 69 482 L69 720 L112 720 L112 478 Q112 379 171 332 Q220 292 309 292 Q407 292 458 352 Q501 403 501 487 L501 720 L544 720 L544 0 L515 0 L515 -140 L475 -140 L475 39 L501 39 Z " />
<glyph glyph-name="uni04CC" unicode="&#x4cc;" horiz-adv-x="539" d="M418 37 L418 248 Q391 194 337 167 Q294 146 246 146 Q161 146 113 197 Q69 244 69 325 L69 520 L111 520 L111 326 Q111 250 155 212 Q192 181 255 181 Q327 181 376 239 Q418 289 418 358 L418 520 L460 520 L460 0 L436 0 L436 -140 L397 -140 L397 37 L418 37 Z " />
<glyph glyph-name="uni04CF" unicode="&#x4cf;" horiz-adv-x="211" d="M84 720 L127 720 L127 0 L84 0 L84 720 Z " />
<glyph glyph-name="uni04D4" unicode="&#x4d4;" horiz-adv-x="922" d="M835 385 L835 348 L507 348 L507 38 L864 38 L864 0 L464 0 L464 210 L173 210 L45 0 L0 0 L437 720 L864 720 L864 683 L507 683 L507 385 L835 385 Z M196 247 L464 247 L464 690 L196 247 Z " />
<glyph glyph-name="uni04D5" unicode="&#x4d5;" horiz-adv-x="927" d="M817 144 L861 144 Q840 65 776 22 Q721 -15 649 -15 Q573 -15 514 25 Q456 64 429 134 Q411 66 357 26 Q303 -15 222 -15 Q141 -15 93 26 Q49 64 49 128 Q49 198 101 236 Q152 274 255 285 L407 302 L407 372 Q407 435 362 470 Q323 501 259 501 Q192 501 149 465 Q112 434 107 388 L65 388 Q72 458 132 499 Q185 535 261 535 Q334 535 383 499 Q426 467 440 413 Q474 478 534 510 Q582 535 638 535 Q741 535 805 465 Q868 394 871 270 L447 270 L447 249 Q448 131 519 68 Q573 20 650 20 Q712 20 759 55 Q802 88 817 144 Z M407 268 L269 253 Q167 242 125 206 Q92 178 92 131 Q92 73 136 44 Q173 20 233 20 Q303 20 356 69 Q404 113 407 176 L407 268 Z M450 305 L827 305 Q817 402 760 455 Q711 501 638 501 Q560 501 507 443 Q460 390 450 305 Z " />
<glyph glyph-name="uni04D8" unicode="&#x4d8;" horiz-adv-x="741" d="M93 519 L50 519 Q74 633 165 689 Q241 735 352 735 Q501 735 585 627 Q662 528 662 360 Q662 180 566 76 Q481 -15 348 -15 Q65 -15 43 356 L618 356 Q617 532 533 623 Q464 697 352 697 Q140 697 93 519 Z M615 318 L92 318 Q101 162 179 86 Q244 22 348 22 Q468 22 541 113 Q605 192 615 318 Z " />
<glyph glyph-name="afii10846" unicode="&#x4d9;" horiz-adv-x="569" d="M107 381 L63 381 Q83 456 151 498 Q209 535 284 535 Q397 535 461 454 Q519 381 519 260 Q519 122 444 47 Q382 -15 288 -15 Q177 -15 113 64 Q53 140 53 270 L476 270 Q473 391 412 451 Q362 500 283 500 Q215 500 166 464 Q121 432 107 381 Z M475 235 L95 235 Q101 124 163 66 Q214 19 288 19 Q371 19 423 82 Q470 140 475 235 Z " />
<glyph glyph-name="uni04E2" unicode="&#x4e2;" horiz-adv-x="677" d="M551 684 L551 720 L593 720 L593 0 L551 0 L551 623 L124 37 L124 0 L84 0 L84 720 L124 720 L124 97 L551 684 Z M455 829 L222 829 L222 865 L455 865 L455 829 Z " />
<glyph glyph-name="uni04E3" unicode="&#x4e3;" horiz-adv-x="549" d="M120 0 L79 0 L79 520 L120 520 L120 81 L429 497 L429 520 L470 520 L470 0 L429 0 L429 439 L120 23 L120 0 Z M390 659 L157 659 L157 695 L390 695 L390 659 Z " />
<glyph glyph-name="uni04E8" unicode="&#x4e8;" horiz-adv-x="747" d="M373 735 Q521 735 611 625 Q693 523 693 359 Q693 170 588 68 Q502 -15 373 -15 Q224 -15 136 95 Q54 196 54 359 Q54 546 159 650 Q246 735 373 735 Z M649 349 L98 349 Q101 181 193 93 Q266 22 373 22 Q498 22 573 112 Q646 199 649 349 Z M98 387 L648 387 Q640 544 552 628 Q480 697 373 697 Q249 697 174 607 Q105 524 98 387 Z " />
<glyph glyph-name="uni04E9" unicode="&#x4e9;" horiz-adv-x="567" d="M284 535 Q398 535 460 456 Q518 383 518 260 Q518 120 443 46 Q382 -15 286 -15 Q174 -15 109 65 Q49 139 49 260 Q49 401 125 475 Q188 535 284 535 Z M476 249 L92 249 Q95 131 157 69 Q208 19 284 19 Q375 19 426 85 Q473 145 476 249 Z M92 284 L475 284 Q469 397 409 454 Q360 501 284 501 Q196 501 145 439 Q97 382 92 284 Z " />
<glyph glyph-name="uni04EE" unicode="&#x4ee;" horiz-adv-x="547" d="M538 720 L298 151 L288 128 Q252 41 234 18 Q209 -15 167 -15 Q149 -15 125 -9 L125 27 Q148 21 168 21 Q196 21 213 47.5 Q230 74 264 171 L247 171 L9 720 L54 720 L276 205 L495 720 L538 720 Z M390 829 L157 829 L157 865 L390 865 L390 829 Z " />
<glyph glyph-name="uni04EF" unicode="&#x4ef;" horiz-adv-x="492" d="M473 520 L288 -3 Q242 -132 220 -161 Q195 -195 149 -195 Q127 -195 97 -185 L97 -151 Q123 -160 149 -160 Q179 -160 196 -132.5 Q213 -105 248 0 L229 0 L19 520 L64 520 L259 31 L431 520 L473 520 Z M362 659 L129 659 L129 695 L362 695 L362 659 Z " />
<glyph glyph-name="Wgrave" unicode="&#x1e80;" horiz-adv-x="951" d="M896 720 L937 720 L735 0 L675 0 L476 683 L278 0 L216 0 L14 720 L59 720 L248 37 L447 720 L508 720 L705 39 L896 720 Z M394 905 L497 768 L458 768 L335 905 L394 905 Z " />
<glyph glyph-name="wgrave" unicode="&#x1e81;" horiz-adv-x="757" d="M693 520 L733 520 L584 0 L532 0 L380 481 L237 0 L185 0 L24 520 L66 520 L212 41 L355 520 L409 520 L558 43 L693 520 Z M296 735 L399 598 L361 598 L237 735 L296 735 Z " />
<glyph glyph-name="Wacute" unicode="&#x1e82;" horiz-adv-x="951" d="M896 720 L937 720 L735 0 L675 0 L476 683 L278 0 L216 0 L14 720 L59 720 L248 37 L447 720 L508 720 L705 39 L896 720 Z M457 768 L560 905 L620 905 L496 768 L457 768 Z " />
<glyph glyph-name="wacute" unicode="&#x1e83;" horiz-adv-x="757" d="M693 520 L733 520 L584 0 L532 0 L380 481 L237 0 L185 0 L24 520 L66 520 L212 41 L355 520 L409 520 L558 43 L693 520 Z M359 598 L462 735 L521 735 L398 598 L359 598 Z " />
<glyph glyph-name="Wdieresis" unicode="&#x1e84;" horiz-adv-x="951" d="M896 720 L937 720 L735 0 L675 0 L476 683 L278 0 L216 0 L14 720 L59 720 L248 37 L447 720 L508 720 L705 39 L896 720 Z M402 829 L350 829 L350 890 L402 890 L402 829 Z M600 829 L549 829 L549 890 L600 890 L600 829 Z " />
<glyph glyph-name="wdieresis" unicode="&#x1e85;" horiz-adv-x="757" d="M693 520 L733 520 L584 0 L532 0 L380 481 L237 0 L185 0 L24 520 L66 520 L212 41 L355 520 L409 520 L558 43 L693 520 Z M305 659 L253 659 L253 720 L305 720 L305 659 Z M503 659 L452 659 L452 720 L503 720 L503 659 Z " />
<glyph glyph-name="uni1EA0" unicode="&#x1ea0;" horiz-adv-x="648" d="M639 0 L591 0 L508 210 L138 210 L54 0 L9 0 L296 720 L353 720 L639 0 Z M325 680 L152 247 L494 247 L325 680 Z M334 -157 L282 -157 L282 -95 L334 -95 L334 -157 Z " />
<glyph glyph-name="uni1EA1" unicode="&#x1ea1;" horiz-adv-x="523" d="M107 389 L65 389 Q71 459 132 500 Q184 535 261 535 Q351 535 402 484 Q448 439 448 367 L448 0 L415 0 L408 91 Q380 41 333 13 Q284 -15 221 -15 Q140 -15 93 28 Q49 67 49 131 Q49 203 101 243 Q149 280 250 297 L407 323 L407 374 Q407 436 362 471 Q323 501 259 501 Q191 501 148 465 Q112 435 107 389 Z M407 289 L264 265 Q162 248 123 212 Q92 183 92 134 Q92 75 137 45 Q174 21 233 21 Q306 21 359 72 Q407 118 407 184 L407 289 Z M253 -155 L201 -155 L201 -93 L253 -93 L253 -155 Z " />
<glyph glyph-name="uni1EA2" unicode="&#x1ea2;" horiz-adv-x="648" d="M639 0 L591 0 L508 210 L138 210 L54 0 L9 0 L296 720 L353 720 L639 0 Z M325 680 L152 247 L494 247 L325 680 Z M340 748 L309 748 L308 804 Q421 804 421 861 Q421 885 400.5 901 Q380 917 348 917 Q315 917 294.5 905 Q274 893 271 871 L234 871 Q239 906 269.5 925.5 Q300 945 347 945 Q398 945 430 917 Q457 894 457 861 Q457 827 428 806 Q399 785 346 780 L340 748 Z " />
<glyph glyph-name="uni1EA3" unicode="&#x1ea3;" horiz-adv-x="523" d="M107 389 L65 389 Q71 459 132 500 Q184 535 261 535 Q351 535 402 484 Q448 439 448 367 L448 0 L415 0 L408 91 Q380 41 333 13 Q284 -15 221 -15 Q140 -15 93 28 Q49 67 49 131 Q49 203 101 243 Q149 280 250 297 L407 323 L407 374 Q407 436 362 471 Q323 501 259 501 Q191 501 148 465 Q112 435 107 389 Z M407 289 L264 265 Q162 248 123 212 Q92 183 92 134 Q92 75 137 45 Q174 21 233 21 Q306 21 359 72 Q407 118 407 184 L407 289 Z M281 590 L250 590 L248 645 Q361 645 361 703 Q361 727 340.5 743 Q320 759 288 759 Q255 759 234.5 747 Q214 735 211 713 L174 713 Q180 748 210 767.5 Q240 787 287 787 Q338 787 370 759 Q397 735 397 703 Q397 669 368 648 Q339 627 286 622 L281 590 Z " />
<glyph glyph-name="uni1EA4" unicode="&#x1ea4;" horiz-adv-x="648" d="M639 0 L591 0 L508 210 L138 210 L54 0 L9 0 L296 720 L353 720 L639 0 Z M325 680 L152 247 L494 247 L325 680 Z M441 806 L544 927 L603 927 L480 806 L441 806 Z M357 867 L462 747 L422 747 L332 843 L244 747 L203 747 L309 867 L357 867 Z " />
<glyph glyph-name="uni1EA5" unicode="&#x1ea5;" horiz-adv-x="523" d="M107 389 L65 389 Q71 459 132 500 Q184 535 261 535 Q351 535 402 484 Q448 439 448 367 L448 0 L415 0 L408 91 Q380 41 333 13 Q284 -15 221 -15 Q140 -15 93 28 Q49 67 49 131 Q49 203 101 243 Q149 280 250 297 L407 323 L407 374 Q407 436 362 471 Q323 501 259 501 Q191 501 148 465 Q112 435 107 389 Z M407 289 L264 265 Q162 248 123 212 Q92 183 92 134 Q92 75 137 45 Q174 21 233 21 Q306 21 359 72 Q407 118 407 184 L407 289 Z M363 673 L466 810 L525 810 L402 673 L363 673 Z M301 737 L406 600 L366 600 L276 710 L188 600 L147 600 L253 737 L301 737 Z " />
<glyph glyph-name="uni1EA6" unicode="&#x1ea6;" horiz-adv-x="648" d="M639 0 L591 0 L508 210 L138 210 L54 0 L9 0 L296 720 L353 720 L639 0 Z M325 680 L152 247 L494 247 L325 680 Z M391 923 L494 803 L456 803 L332 923 L391 923 Z M349 883 L457 763 L414 763 L324 859 L236 763 L195 763 L301 883 L349 883 Z " />
<glyph glyph-name="uni1EA7" unicode="&#x1ea7;" horiz-adv-x="523" d="M107 389 L65 389 Q71 459 132 500 Q184 535 261 535 Q351 535 402 484 Q448 439 448 367 L448 0 L415 0 L408 91 Q380 41 333 13 Q284 -15 221 -15 Q140 -15 93 28 Q49 67 49 131 Q49 203 101 243 Q149 280 250 297 L407 323 L407 374 Q407 436 362 471 Q323 501 259 501 Q191 501 148 465 Q112 435 107 389 Z M407 289 L264 265 Q162 248 123 212 Q92 183 92 134 Q92 75 137 45 Q174 21 233 21 Q306 21 359 72 Q407 118 407 184 L407 289 Z M305 824 L408 687 L370 687 L246 824 L305 824 Z M289 735 L394 598 L354 598 L264 708 L176 598 L135 598 L241 735 L289 735 Z " />
<glyph glyph-name="uni1EA8" unicode="&#x1ea8;" horiz-adv-x="648" d="M639 0 L591 0 L508 210 L138 210 L54 0 L9 0 L296 720 L353 720 L639 0 Z M325 680 L152 247 L494 247 L325 680 Z M497 775 L466 775 L465 824 Q578 824 578 874 Q578 895 557.5 909 Q537 923 505 923 Q472 923 451.5 912.5 Q431 902 428 883 L391 883 Q396 914 426.5 931 Q457 948 504 948 Q555 948 587 924 Q614 903 614 874 Q614 845 585 826 Q556 807 503 803 L497 775 Z M361 879 L466 742 L426 742 L336 852 L248 742 L207 742 L313 879 L361 879 Z " />
<glyph glyph-name="uni1EA9" unicode="&#x1ea9;" horiz-adv-x="523" d="M107 389 L65 389 Q71 459 132 500 Q184 535 261 535 Q351 535 402 484 Q448 439 448 367 L448 0 L415 0 L408 91 Q380 41 333 13 Q284 -15 221 -15 Q140 -15 93 28 Q49 67 49 131 Q49 203 101 243 Q149 280 250 297 L407 323 L407 374 Q407 436 362 471 Q323 501 259 501 Q191 501 148 465 Q112 435 107 389 Z M407 289 L264 265 Q162 248 123 212 Q92 183 92 134 Q92 75 137 45 Q174 21 233 21 Q306 21 359 72 Q407 118 407 184 L407 289 Z M408 670 L377 670 L375 725 Q488 725 488 782 Q488 806 467.5 822 Q447 838 415 838 Q382 838 361.5 826 Q341 814 338 792 L301 792 Q307 827 337 846.5 Q367 866 414 866 Q465 866 497 838 Q524 815 524 782 Q524 748 495 727 Q466 706 413 701 L408 670 Z M294 735 L399 598 L359 598 L269 708 L181 598 L140 598 L246 735 L294 735 Z " />
<glyph glyph-name="uni1EAA" unicode="&#x1eaa;" horiz-adv-x="648" d="M639 0 L591 0 L508 210 L138 210 L54 0 L9 0 L296 720 L353 720 L639 0 Z M325 680 L152 247 L494 247 L325 680 Z M463 931 L463 891 Q424 862 388 862 Q359 862 327 880 Q300 894 280 894 Q246 894 206 862 L206 902 Q245 931 281 931 Q310 931 342 913 Q369 899 389 899 Q423 899 463 931 Z M356 853 L461 733 L421 733 L331 829 L243 733 L202 733 L308 853 L356 853 Z " />
<glyph glyph-name="uni1EAB" unicode="&#x1eab;" horiz-adv-x="523" d="M107 389 L65 389 Q71 459 132 500 Q184 535 261 535 Q351 535 402 484 Q448 439 448 367 L448 0 L415 0 L408 91 Q380 41 333 13 Q284 -15 221 -15 Q140 -15 93 28 Q49 67 49 131 Q49 203 101 243 Q149 280 250 297 L407 323 L407 374 Q407 436 362 471 Q323 501 259 501 Q191 501 148 465 Q112 435 107 389 Z M407 289 L264 265 Q162 248 123 212 Q92 183 92 134 Q92 75 137 45 Q174 21 233 21 Q306 21 359 72 Q407 118 407 184 L407 289 Z M409 784 L409 744 Q370 715 334 715 Q305 715 273 733 Q246 747 226 747 Q192 747 152 715 L152 755 Q191 784 227 784 Q256 784 288 766 Q315 752 335 752 Q369 752 409 784 Z M296 705 L401 568 L361 568 L271 678 L183 568 L142 568 L248 705 L296 705 Z " />
<glyph glyph-name="uni1EAC" unicode="&#x1eac;" horiz-adv-x="648" d="M639 0 L591 0 L508 210 L138 210 L54 0 L9 0 L296 720 L353 720 L639 0 Z M325 680 L152 247 L494 247 L325 680 Z M364 902 L469 765 L429 765 L339 875 L251 765 L210 765 L316 902 L364 902 Z M334 -155 L282 -155 L282 -93 L334 -93 L334 -155 Z " />
<glyph glyph-name="uni1EAD" unicode="&#x1ead;" horiz-adv-x="523" d="M107 389 L65 389 Q71 459 132 500 Q184 535 261 535 Q351 535 402 484 Q448 439 448 367 L448 0 L415 0 L408 91 Q380 41 333 13 Q284 -15 221 -15 Q140 -15 93 28 Q49 67 49 131 Q49 203 101 243 Q149 280 250 297 L407 323 L407 374 Q407 436 362 471 Q323 501 259 501 Q191 501 148 465 Q112 435 107 389 Z M407 289 L264 265 Q162 248 123 212 Q92 183 92 134 Q92 75 137 45 Q174 21 233 21 Q306 21 359 72 Q407 118 407 184 L407 289 Z M298 735 L403 598 L363 598 L273 708 L185 598 L144 598 L250 735 L298 735 Z M252 -159 L200 -159 L200 -97 L252 -97 L252 -159 Z " />
<glyph glyph-name="uni1EAE" unicode="&#x1eae;" horiz-adv-x="648" d="M639 0 L591 0 L508 210 L138 210 L54 0 L9 0 L296 720 L353 720 L639 0 Z M325 680 L152 247 L494 247 L325 680 Z M285 833 L388 954 L447 954 L324 833 L285 833 Z M420 863 L457 863 Q452 805 415 775 Q382 748 328 747 Q266 748 231 783 Q202 813 198 863 L236 863 Q239 821 263 798 Q286 775 328 775 Q375 775 399 804 Q418 827 420 863 Z " />
</font>
</svg>
