<?xml version="1.0" encoding="UTF-8"?>
<svg xmlns="http://www.w3.org/2000/svg" xmlns:xlink="http://www.w3.org/1999/xlink" version="1.2" >
<font id="CiscoSansTT ThinOblique">
<font-face  font-family="CiscoSansTT" units-per-em="1000" ascent="905" descent="-212" font-style="italic" font-weight="250" font-stretch="normal" slope="-11" cap-height="720" x-height="520" underline-position="-48" underline-thickness="85" />
<missing-glyph  horiz-adv-x="300" d="M30 0 L30 667 L270 667 L270 0 L30 0 Z M240 30 L240 637 L60 637 L60 30 L240 30 Z " />
<glyph glyph-name="space" unicode="&#x20;" horiz-adv-x="300" d="" />
<glyph glyph-name="exclam" unicode="&#x21;" horiz-adv-x="250" d="M147 220 L108 220 L215 720 L254 720 L147 220 Z M112 0 L58 0 L71 64 L125 64 L112 0 Z " />
<glyph glyph-name="quotedbl" unicode="&#x22;" horiz-adv-x="400" d="M251 643 L212 490 L187 490 L211 643 L231 735 L271 735 L251 643 Z M381 643 L342 490 L317 490 L341 643 L361 735 L401 735 L381 643 Z " />
<glyph glyph-name="numbersign" unicode="&#x23;" horiz-adv-x="600" d="M134 467 L141 500 L234 500 L294 700 L330 700 L270 500 L487 500 L547 700 L583 700 L523 500 L611 500 L604 467 L513 467 L443 234 L534 234 L527 201 L433 201 L374 0 L338 0 L397 201 L180 201 L121 0 L85 0 L144 201 L57 201 L64 234 L154 234 L224 467 L134 467 Z M260 467 L190 234 L407 234 L477 467 L260 467 Z " />
<glyph glyph-name="dollar" unicode="&#x24;" horiz-adv-x="600" d="M270 25 Q384 25 456 80 Q523 132 523 214 Q523 268 476 302 Q428 336 324 358 Q143 395 143 510 Q143 604 223 661 Q292 710 398 714 L423 830 L458 830 L433 714 Q529 710 585 659 Q635 613 636 542 L598 542 Q595 612 540 649 Q492 682 415 682 Q300 682 235 627 Q181 581 181 511 Q181 463 221.5 434 Q262 405 355 386 Q472 361 522 312 Q561 274 561 217 Q561 112 474 49 Q397 -6 279 -9 L253 -135 L218 -135 L245 -8 Q142 -3 87 51 Q38 100 38 181 L75 181 Q75 98 135 58 Q185 25 270 25 Z " />
<glyph glyph-name="percent" unicode="&#x25;" horiz-adv-x="824" d="M693 700 L235 0 L197 0 L655 700 L693 700 Z M299 686 Q229 686 190 632 Q157 588 157 522 Q157 460 194 430 Q223 406 270 406 Q331 406 372 450 Q413 494 413 568 Q413 631 376 662 Q346 686 299 686 Z M447 569 Q447 480 394 426 Q345 377 269 377 Q201 377 161 418 Q124 457 124 522 Q124 620 185 673 Q233 715 300 715 Q369 715 409 673 Q447 634 447 569 Z M620 294 Q550 294 511 240 Q478 196 478 130 Q478 68 515 38 Q544 14 591 14 Q652 14 693 58 Q734 102 734 176 Q734 239 697 269 Q667 294 620 294 Z M768 177 Q768 88 715 34 Q666 -15 590 -15 Q522 -15 482 26 Q445 65 445 130 Q445 228 506 281 Q554 323 621 323 Q690 323 730 281 Q768 242 768 177 Z " />
<glyph glyph-name="ampersand" unicode="&#x26;" horiz-adv-x="605" d="M559 335 L594 330 Q551 204 470 111 L554 5 L526 -15 L446 86 Q343 -15 216 -15 Q117 -15 66 31 Q23 70 23 130 Q23 203 66.5 253 Q110 303 227 365 Q174 433 155.5 468 Q137 503 136 539 Q136 614 196 665 Q254 715 344 715 Q426 715 468 671 Q501 638 501 588 Q501 522 438 463 Q386 414 275 356 L449 137 Q522 222 559 335 Z M218 15 Q329 15 425 113 L246 341 Q143 287 105 246 Q60 197 60 131 Q60 73 107 42 Q148 15 218 15 Z M171 542 Q171 511 189 477.5 Q207 444 257 380 Q373 442 421 490 Q467 536 467 587 Q467 632 435 658 Q402 685 342 685 Q259 685 210 635 Q171 595 171 542 Z " />
<glyph glyph-name="quotesingle" unicode="&#x27;" horiz-adv-x="270" d="M251 643 L212 490 L187 490 L211 643 L231 735 L271 735 L251 643 Z " />
<glyph glyph-name="parenleft" unicode="&#x28;" horiz-adv-x="340" d="M417 810 Q264 625 200 474 Q135 320 135 149 Q135 -6 208 -170 L176 -170 Q99 -29 99 154 Q99 364 207 567 Q278 702 383 810 L417 810 Z " />
<glyph glyph-name="parenright" unicode="&#x29;" horiz-adv-x="340" d="M12 -170 L-22 -170 Q131 15 195 166 Q260 320 260 491 Q260 646 187 810 L219 810 Q296 669 296 486 Q296 276 188 73 Q117 -62 12 -170 Z " />
<glyph glyph-name="asterisk" unicode="&#x2a;" horiz-adv-x="470" d="M418 389 L324 531 L230 389 L202 411 L309 545 L143 591 L154 624 L314 564 L306 735 L342 735 L334 564 L494 624 L505 591 L339 545 L446 411 L418 389 Z " />
<glyph glyph-name="plus" unicode="&#x2b;" horiz-adv-x="600" d="M352 522 L388 522 L350 339 L532 339 L524 305 L342 305 L303 122 L267 122 L306 305 L124 305 L132 339 L314 339 L352 522 Z " />
<glyph glyph-name="comma" unicode="&#x2c;" horiz-adv-x="270" d="M139 64 L124 -7 Q112 -66 78 -97 Q51 -122 4 -135 L10 -104 Q43 -92 61 -68 Q79 -44 88 0 L70 0 L83 64 L139 64 Z " />
<glyph glyph-name="hyphen" unicode="&#x2d;" horiz-adv-x="540" d="M472 339 L464 305 L124 305 L132 339 L472 339 Z " />
<glyph glyph-name="period" unicode="&#x2e;" horiz-adv-x="278" d="M126 0 L72 0 L85 64 L139 64 L126 0 Z " />
<glyph glyph-name="slash" unicode="&#x2f;" horiz-adv-x="340" d="M409 735 L24 -90 L-13 -90 L372 735 L409 735 Z " />
<glyph glyph-name="zero" unicode="0" horiz-adv-x="600" d="M405 683 Q254 683 172 475 Q148 414 133 340 Q118 266 118 206 Q118 106 161 58 Q198 17 263 17 Q413 17 495 225 Q519 286 534 360 Q549 434 549 494 Q549 594 506 642 Q470 683 405 683 Z M260 -15 Q172 -15 125 47 Q81 105 81 210 Q81 303 110 408 Q146 539 212 618 Q293 715 407 715 Q495 715 542 653 Q586 595 586 490 Q586 397 557 292 Q521 161 455 82 Q374 -15 260 -15 Z " />
<glyph glyph-name="one" unicode="1" horiz-adv-x="600" d="M321 0 L284 0 L424 659 L239 562 L247 602 L433 700 L469 700 L321 0 Z " />
<glyph glyph-name="two" unicode="2" horiz-adv-x="600" d="M188 537 L149 537 Q182 627 259 675 Q324 715 405 715 Q488 715 536 670 Q580 630 580 567 Q580 494 539.5 433 Q499 372 389 280 L97 34 L469 34 L462 0 L38 0 L45 34 L379 317 Q470 394 504 444 Q543 501 543 564 Q543 623 500 655 Q463 683 401 683 Q320 683 260 637 Q209 598 188 537 Z " />
<glyph glyph-name="three" unicode="3" horiz-adv-x="600" d="M247 -15 Q150 -15 97 34 Q50 79 50 153 L87 153 Q87 83 136 48 Q178 17 252 17 Q366 17 433 94 Q484 155 484 233 Q484 296 440 328 Q403 355 339 355 L261 355 L268 388 L342 388 Q440 388 496 456 Q538 506 538 569 Q538 626 494 657 Q456 683 393 683 Q311 683 252 643 Q201 608 175 547 L136 547 Q169 631 245 676 Q311 715 396 715 Q482 715 532 670 Q575 631 575 570 Q575 492 522 436 Q476 386 402 372 Q460 365 492 324 Q520 288 520 233 Q520 125 442 53 Q367 -15 247 -15 Z " />
<glyph glyph-name="four" unicode="4" horiz-adv-x="600" d="M501 700 L546 700 L432 164 L538 164 L532 132 L426 132 L398 0 L361 0 L389 132 L62 132 L70 171 L501 700 Z M107 164 L395 164 L497 644 L107 164 Z " />
<glyph glyph-name="five" unicode="5" horiz-adv-x="600" d="M252 -15 Q160 -15 107 37 Q59 83 59 160 L96 160 Q96 85 148 47 Q190 17 257 17 Q370 17 442 109 Q500 183 500 274 Q500 346 452 384 Q411 416 343 416 Q285 416 230 392 Q175 368 139 327 L111 327 L203 700 L591 700 L584 668 L231 668 L157 376 Q243 448 351 448 Q442 448 491 397 Q535 352 535 276 Q535 202 501 136 Q465 68 404 28 Q337 -15 252 -15 Z " />
<glyph glyph-name="six" unicode="6" horiz-adv-x="600" d="M579 581 L543 581 Q538 633 501 660 Q468 683 416 683 Q318 683 246 601 Q169 511 128 327 Q163 386 227 421 Q287 454 352 454 Q440 454 489 402 Q533 355 533 278 Q533 140 437 54 Q359 -15 259 -15 Q159 -15 112 53 Q77 105 77 190 Q77 281 107 391 Q145 528 213 611 Q298 715 418 715 Q490 715 535 674 Q576 638 579 581 Z M345 422 Q289 422 236 393 Q181 363 147 313 Q111 257 111 190 Q111 18 264 18 Q319 18 372 49 Q428 82 461 138 Q498 200 498 277 Q498 351 451 389 Q411 422 345 422 Z " />
<glyph glyph-name="seven" unicode="7" horiz-adv-x="600" d="M613 667 L149 0 L107 0 L572 667 L171 667 L178 700 L620 700 L613 667 Z " />
<glyph glyph-name="eight" unicode="8" horiz-adv-x="600" d="M598 576 Q598 425 399 371 Q546 328 546 216 Q546 112 454 44 Q374 -15 260 -15 Q156 -15 98 39 Q50 83 50 148 Q50 312 269 370 Q215 388 184 422 Q151 459 151 509 Q151 613 245 671 Q316 715 407 715 Q495 715 548 676 Q598 639 598 576 Z M508 215 Q508 280 445 318 Q402 345 334 357 Q86 308 86 149 Q86 85 142 48 Q190 17 263 17 Q369 17 441 78 Q508 134 508 215 Z M188 510 Q188 413 338 385 Q445 406 498 446 Q561 494 561 573 Q561 632 508 661 Q467 684 405 684 Q316 684 253 638 Q188 590 188 510 Z " />
<glyph glyph-name="nine" unicode="9" horiz-adv-x="600" d="M71 119 L106 119 Q110 68 154 40 Q190 17 242 17 Q344 17 418 109 Q491 200 527 373 Q489 314 427 279 Q368 246 303 246 Q217 246 167 297 Q120 345 120 423 Q120 557 216 644 Q294 715 390 715 Q493 715 540 645 Q576 592 576 506 Q576 429 555 337 Q534 245 501 176 Q408 -15 239 -15 Q166 -15 117 26 Q73 63 71 119 Z M309 278 Q365 278 418 307 Q473 337 506 388 Q542 444 542 511 Q542 588 506 633 Q466 682 389 682 Q330 682 276 648 Q222 614 190 557 Q156 496 156 423 Q156 347 205 309 Q244 278 309 278 Z " />
<glyph glyph-name="colon" unicode="&#x3a;" horiz-adv-x="278" d="M126 0 L72 0 L85 64 L139 64 L126 0 Z M222 456 L168 456 L182 520 L236 520 L222 456 Z " />
<glyph glyph-name="semicolon" unicode="&#x3b;" horiz-adv-x="278" d="M222 456 L168 456 L182 520 L236 520 L222 456 Z M139 64 L124 -7 Q112 -66 78 -97 Q51 -122 4 -135 L10 -104 Q43 -92 61 -68 Q79 -44 88 0 L70 0 L83 64 L139 64 Z " />
<glyph glyph-name="less" unicode="&#x3c;" horiz-adv-x="600" d="M170 321 L170 319 L490 143 L482 105 L125 308 L131 337 L574 540 L566 498 L170 321 Z " />
<glyph glyph-name="equal" unicode="&#x3d;" horiz-adv-x="600" d="M554 444 L547 410 L147 410 L154 444 L554 444 Z M509 234 L502 200 L102 200 L109 234 L509 234 Z " />
<glyph glyph-name="greater" unicode="&#x3e;" horiz-adv-x="600" d="M486 324 L486 326 L166 503 L174 540 L531 337 L525 308 L82 105 L90 147 L486 324 Z " />
<glyph glyph-name="question" unicode="&#x3f;" horiz-adv-x="493" d="M177 573 L138 573 Q168 649 233 693 Q295 735 372 735 Q452 735 500 692 Q540 655 540 602 Q540 538 490 483 Q466 457 372 378 Q317 332 300.5 304 Q284 276 268 200 L232 200 Q251 287 270 321 Q289 355 349 403 L369 420 Q447 483 471 512 Q503 552 503 600 Q503 648 464 677 Q428 704 369 704 Q300 704 245 662 Q199 627 177 573 Z M235 0 L181 0 L194 64 L248 64 L235 0 Z " />
<glyph glyph-name="at" unicode="&#x40;" horiz-adv-x="930" d="M712 105 Q665 105 639 139 Q616 168 616 215 Q597 176 550 144 Q499 110 441 110 Q373 110 330 159 Q289 205 289 278 Q289 412 372 493 Q438 558 525 558 Q570 558 606 534 Q642 510 653 472 L676 551 L703 551 L647 271 Q641 241 641 222 Q641 182 660.5 159 Q680 136 714 136 Q784 136 831 217 Q877 295 877 417 Q877 553 777 632 Q687 703 542 703 Q447 703 360 664 Q259 618 201 532 Q132 432 132 288 Q132 120 252 27 Q350 -48 493 -48 Q575 -48 651 -24 L659 -54 Q583 -81 490 -81 Q385 -81 297 -40 Q205 4 153 83 Q96 169 96 285 Q96 524 265 647 Q386 735 544 735 Q728 735 830 631 Q913 546 913 420 Q913 269 843 178 Q787 105 712 105 Z M449 141 Q510 141 558 184 Q604 224 617 290 L632 363 Q636 384 636 410 Q636 473 596 505 Q567 528 522 528 Q475 528 431 500 Q383 471 355 418 Q324 359 324 282 Q324 211 364 173 Q398 141 449 141 Z " />
<glyph glyph-name="A" unicode="A" horiz-adv-x="642" d="M592 0 L553 0 L514 213 L141 213 L11 0 L-30 0 L409 720 L460 720 L592 0 Z M429 686 L160 245 L509 245 L429 686 Z " />
<glyph glyph-name="B" unicode="B" horiz-adv-x="632" d="M198 720 L434 720 Q533 720 583 678 Q626 642 626 581 Q626 507 571 447 Q523 394 452 378 Q516 369 552 328 Q584 290 584 236 Q584 134 509 68 Q432 0 297 0 L45 0 L198 720 Z M381 364 L159 364 L89 33 L305 33 Q430 33 496 106 Q545 161 545 236 Q545 299 497 333 Q453 364 381 364 Z M439 687 L228 687 L166 396 L385 396 Q490 396 547 467 Q589 517 589 578 Q589 634 546 662 Q507 687 439 687 Z " />
<glyph glyph-name="C" unicode="C" horiz-adv-x="715" d="M339 -15 Q211 -15 140 70 Q79 144 79 261 Q79 359 120 462 Q167 580 251 651 Q351 735 486 735 Q608 735 671 675 Q732 618 732 509 L695 509 Q695 702 482 702 Q360 702 270 622 Q196 555 153 444 Q117 349 117 263 Q117 142 186 76 Q245 18 340 18 Q450 18 531 82 Q602 138 635 233 L672 233 Q635 114 538 46 Q450 -15 339 -15 Z " />
<glyph glyph-name="D" unicode="D" horiz-adv-x="674" d="M198 720 L382 720 Q521 720 597 641 Q665 570 665 453 Q665 341 617 240 Q566 133 475 70 Q374 0 240 0 L45 0 L198 720 Z M383 687 L228 687 L89 33 L246 33 Q442 33 550 197 Q593 263 613 344 Q627 400 627 452 Q627 573 551 635 Q487 687 383 687 Z " />
<glyph glyph-name="E" unicode="E" horiz-adv-x="561" d="M513 383 L506 350 L156 350 L89 33 L468 33 L461 0 L45 0 L198 720 L614 720 L607 687 L228 687 L163 383 L513 383 Z " />
<glyph glyph-name="F" unicode="F" horiz-adv-x="550" d="M198 720 L608 720 L601 687 L228 687 L159 363 L495 363 L488 330 L152 330 L82 0 L45 0 L198 720 Z " />
<glyph glyph-name="G" unicode="G" horiz-adv-x="728" d="M690 374 L611 0 L584 0 L606 127 Q556 53 481 17 Q415 -15 339 -15 Q218 -15 146 63 Q80 135 80 256 Q80 366 125 472 Q174 588 260 657 Q357 735 485 735 Q604 735 668 675 Q724 622 726 530 L688 530 Q686 620 623 665 Q571 702 482 702 Q368 702 280 630 Q202 566 158 458 Q117 360 117 258 Q117 136 190 71 Q249 18 341 18 Q449 18 534 88 Q609 149 628 235 L651 341 L408 341 L415 374 L690 374 Z " />
<glyph glyph-name="H" unicode="H" horiz-adv-x="676" d="M667 720 L704 720 L551 0 L514 0 L588 351 L156 351 L82 0 L45 0 L198 720 L235 720 L163 385 L595 385 L667 720 Z " />
<glyph glyph-name="I" unicode="I" horiz-adv-x="207" d="M198 720 L235 720 L82 0 L45 0 L198 720 Z " />
<glyph glyph-name="J" unicode="J" horiz-adv-x="517" d="M34 186 L69 186 Q66 164 66 146 Q66 80 107 47 Q142 18 201 18 Q282 18 336 70 Q384 116 401 196 L513 720 L550 720 L437 192 Q415 89 347 34 Q286 -15 200 -15 Q114 -15 69 33 Q30 74 30 142 Q30 165 34 186 Z " />
<glyph glyph-name="K" unicode="K" horiz-adv-x="580" d="M525 0 L478 0 L158 360 L82 0 L45 0 L198 720 L235 720 L162 379 L601 720 L649 720 L200 367 L525 0 Z " />
<glyph glyph-name="L" unicode="L" horiz-adv-x="546" d="M198 720 L235 720 L89 33 L468 33 L461 0 L45 0 L198 720 Z " />
<glyph glyph-name="M" unicode="M" horiz-adv-x="829" d="M405 0 L360 0 L225 682 L81 0 L45 0 L198 720 L254 720 L388 35 L799 720 L857 720 L704 0 L668 0 L811 677 L405 0 Z " />
<glyph glyph-name="N" unicode="N" horiz-adv-x="709" d="M702 720 L737 720 L584 0 L548 0 L222 668 L81 0 L45 0 L198 720 L236 720 L561 57 L702 720 Z " />
<glyph glyph-name="O" unicode="O" horiz-adv-x="744" d="M481 702 Q287 702 186 519 Q147 448 129 362 Q117 306 117 255 Q117 134 185 71 Q242 18 335 18 Q527 18 630 201 Q669 272 687 358 Q699 415 699 465 Q699 586 630 649 Q573 702 481 702 Z M333 -15 Q211 -15 142 65 Q80 137 80 257 Q80 357 119 460 Q165 579 248 650 Q347 735 483 735 Q605 735 674 655 Q736 583 736 463 Q736 363 697 260 Q651 141 568 70 Q469 -15 333 -15 Z " />
<glyph glyph-name="P" unicode="P" horiz-adv-x="624" d="M198 720 L439 720 Q545 720 598 668 Q644 624 644 549 Q644 480 611 421 Q576 359 513 323 Q444 284 352 284 L142 284 L82 0 L45 0 L198 720 Z M439 687 L228 687 L149 318 L355 318 Q480 318 551 398 Q606 462 606 548 Q606 619 558 655 Q515 687 439 687 Z " />
<glyph glyph-name="Q" unicode="Q" horiz-adv-x="744" d="M333 -15 Q211 -15 142 65 Q80 137 80 257 Q80 357 119 460 Q165 579 248 650 Q347 735 483 735 Q605 735 674 655 Q736 583 736 463 Q736 346 685 232 Q633 115 544 51 L623 -81 L586 -103 L514 32 Q433 -15 333 -15 Z M481 702 Q287 702 186 519 Q147 448 129 362 Q117 306 117 255 Q117 134 185 71 Q242 18 335 18 Q527 18 630 201 Q669 272 687 358 Q699 415 699 465 Q699 586 630 649 Q573 702 481 702 Z " />
<glyph glyph-name="R" unicode="R" horiz-adv-x="619" d="M559 0 L516 0 L376 305 L146 305 L82 0 L45 0 L198 720 L445 720 Q550 720 603 670 Q648 628 648 556 Q648 454 576 386 Q515 329 416 309 L559 0 Z M445 687 L228 687 L153 338 L362 338 Q478 338 549 409 Q609 470 609 556 Q609 623 562 657 Q520 687 445 687 Z " />
<glyph glyph-name="S" unicode="S" horiz-adv-x="643" d="M286 19 Q417 19 488 82 Q550 137 550 223 Q550 281 497 314 Q450 344 340 367 Q153 405 153 525 Q153 626 235 683 Q309 735 432 735 Q543 735 605 683 Q661 637 662 562 L624 562 Q621 633 566 669 Q516 702 431 702 Q306 702 242 644 Q190 598 190 524 Q190 472 236 443 Q277 416 371 396 Q494 370 544 325 Q588 285 588 222 Q588 110 497 44 Q415 -15 283 -15 Q163 -15 100 41 Q44 90 44 176 L81 176 Q81 92 143 52 Q195 19 286 19 Z " />
<glyph glyph-name="T" unicode="T" horiz-adv-x="563" d="M656 720 L649 687 L406 687 L260 0 L223 0 L369 687 L126 687 L133 720 L656 720 Z " />
<glyph glyph-name="U" unicode="U" horiz-adv-x="700" d="M310 -15 Q195 -15 133 51 Q84 105 84 186 Q84 213 90 240 L193 720 L229 720 L125 234 Q120 214 120 187 Q120 106 180 59 Q232 18 313 18 Q423 18 504 86 Q574 146 593 234 L697 720 L733 720 L628 230 Q604 117 511 49 Q425 -15 310 -15 Z " />
<glyph glyph-name="V" unicode="V" horiz-adv-x="618" d="M123 720 L159 720 L273 28 L682 720 L721 720 L296 0 L241 0 L123 720 Z " />
<glyph glyph-name="W" unicode="W" horiz-adv-x="950" d="M1010 720 L1048 720 L692 0 L637 0 L581 690 L234 0 L178 0 L128 720 L165 720 L211 29 L560 720 L615 720 L669 31 L1010 720 Z " />
<glyph glyph-name="X" unicode="X" horiz-adv-x="596" d="M680 720 L361 371 L536 0 L495 0 L333 344 L27 0 L-20 0 L315 374 L153 720 L194 720 L342 401 L635 720 L680 720 Z " />
<glyph glyph-name="Y" unicode="Y" horiz-adv-x="620" d="M123 720 L161 720 L334 314 L682 720 L723 720 L347 281 L288 0 L251 0 L311 283 L123 720 Z " />
<glyph glyph-name="Z" unicode="Z" horiz-adv-x="639" d="M695 689 L64 33 L546 33 L539 0 L10 0 L17 34 L647 687 L179 687 L186 720 L702 720 L695 689 Z " />
<glyph glyph-name="bracketleft" unicode="&#x5b;" horiz-adv-x="230" d="M130 -138 L123 -170 L-46 -170 L162 810 L332 810 L325 778 L191 778 L-4 -138 L130 -138 Z " />
<glyph glyph-name="backslash" unicode="&#x5c;" horiz-adv-x="304" d="M180 -90 L147 735 L180 735 L213 -90 L180 -90 Z " />
<glyph glyph-name="bracketright" unicode="&#x5d;" horiz-adv-x="230" d="M-46 -170 L-40 -138 L94 -138 L289 778 L155 778 L162 810 L332 810 L123 -170 L-46 -170 Z " />
<glyph glyph-name="asciicircum" unicode="&#x5e;" horiz-adv-x="480" d="M349 692 L130 400 L91 400 L333 720 L373 720 L479 400 L444 400 L349 692 Z " />
<glyph glyph-name="underscore" unicode="&#x5f;" horiz-adv-x="604" d="M519 -70 L511 -104 L-33 -104 L-25 -70 L519 -70 Z " />
<glyph glyph-name="grave" unicode="&#x60;" horiz-adv-x="216" d="M198 735 L272 598 L240 598 L147 735 L198 735 Z " />
<glyph glyph-name="a" unicode="a" horiz-adv-x="520" d="M145 390 L109 390 Q131 460 196 500 Q254 535 329 535 Q406 535 449 497 Q487 462 487 406 Q487 385 483 368 L405 0 L376 0 L389 93 Q308 -15 183 -15 Q112 -15 71 20 Q33 51 33 103 Q33 194 110 243 Q166 279 271 296 L437 322 L448 375 Q451 392 451 406 Q451 455 414 482 Q381 505 325 505 Q256 505 204 468 Q161 437 145 390 Z M407 183 L431 292 L281 268 Q161 249 112 203 Q72 166 72 105 Q72 58 110 35 Q142 16 195 16 Q269 16 333 68 Q392 116 407 183 Z " />
<glyph glyph-name="b" unicode="b" horiz-adv-x="568" d="M69 0 L40 0 L193 720 L229 720 L163 413 Q203 473 258 505 Q311 535 372 535 Q457 535 502 483 Q543 435 543 351 Q543 272 515 193 Q482 102 423 48 Q354 -15 260 -15 Q191 -15 146 26 Q110 59 98 111 L69 0 Z M258 15 Q386 15 458 155 Q507 252 507 352 Q507 433 463 472 Q426 505 364 505 Q243 505 171 380 Q116 286 116 173 Q116 90 160 49 Q197 15 258 15 Z " />
<glyph glyph-name="c" unicode="c" horiz-adv-x="534" d="M438 147 L475 147 Q447 70 375 25 Q311 -15 235 -15 Q148 -15 99 41 Q55 92 55 178 Q55 261 88 341 Q123 427 185 478 Q255 535 346 535 Q433 535 481 487 Q521 446 521 380 L483 380 Q483 441 443 475 Q406 505 345 505 Q219 505 144 377 Q90 284 90 178 Q90 93 138 51 Q177 16 240 16 Q310 16 368 58 Q418 94 438 147 Z " />
<glyph glyph-name="d" unicode="d" horiz-adv-x="568" d="M448 0 L419 0 L436 107 Q356 -15 226 -15 Q144 -15 98 39 Q54 89 54 174 Q54 249 82 327 Q115 417 174 471 Q243 535 337 535 Q404 535 450 495 Q489 462 501 412 L565 720 L601 720 L448 0 Z M340 505 Q214 505 142 372 Q91 278 91 174 Q91 91 137 49 Q174 15 235 15 Q354 15 426 140 Q481 234 481 346 Q481 429 437 471 Q400 505 340 505 Z " />
<glyph glyph-name="e" unicode="e" horiz-adv-x="568" d="M454 138 L492 138 Q458 63 388 21 Q326 -15 253 -15 Q157 -15 104 45 Q57 98 57 187 Q57 267 89 343 Q124 428 186 478 Q256 535 350 535 Q440 535 490 480 Q536 429 536 340 Q536 297 526 251 L100 251 Q93 217 93 184 Q93 95 145 52 Q188 16 257 16 Q325 16 379 52 Q428 84 454 138 Z M348 505 Q262 505 194 440 Q132 380 106 282 L494 282 Q499 317 499 340 Q499 426 451 469 Q412 505 348 505 Z " />
<glyph glyph-name="f" unicode="f" horiz-adv-x="291" d="M409 720 L403 690 Q363 705 329 705 Q253 705 233 615 L213 520 L340 520 L333 489 L206 489 L103 0 L67 0 L170 489 L93 489 L100 520 L177 520 L198 619 Q211 680 250 710 Q283 735 332 735 Q370 735 409 720 Z " />
<glyph glyph-name="g" unicode="g" horiz-adv-x="568" d="M22 -54 L58 -54 Q58 -114 103 -142 Q140 -165 202 -165 Q287 -165 346 -114 Q397 -69 412 0 L440 130 Q363 20 235 20 Q154 20 105 75 Q60 125 60 207 Q60 276 89 348 Q121 429 179 478 Q247 535 337 535 Q404 535 450 497 Q489 465 501 415 L529 520 L558 520 L447 -5 Q427 -96 355 -148 Q290 -195 201 -195 Q111 -195 64 -154 Q22 -118 22 -54 Z M339 505 Q216 505 146 386 Q97 301 97 205 Q97 125 143 84 Q181 50 243 50 Q369 50 436 168 Q483 252 483 353 Q483 433 437 473 Q400 505 339 505 Z " />
<glyph glyph-name="h" unicode="h" horiz-adv-x="547" d="M76 0 L40 0 L193 720 L229 720 L165 422 Q204 480 261 510 Q310 535 363 535 Q437 535 478 495 Q513 460 513 403 Q513 385 508 360 L432 0 L396 0 L472 358 Q477 379 477 399 Q477 453 441 480 Q409 505 353 505 Q283 505 219 449 Q159 397 144 323 L76 0 Z " />
<glyph glyph-name="i" unicode="i" horiz-adv-x="192" d="M74 0 L38 0 L148 520 L184 520 L74 0 Z M219 663 L173 663 L186 720 L232 720 L219 663 Z " />
<glyph glyph-name="j" unicode="j" horiz-adv-x="192" d="M-134 -179 L-127 -149 Q-93 -163 -64 -163 Q3 -163 22 -75 L148 520 L184 520 L56 -82 Q31 -195 -62 -195 Q-102 -195 -134 -179 Z M219 663 L173 663 L186 720 L232 720 L219 663 Z " />
<glyph glyph-name="k" unicode="k" horiz-adv-x="474" d="M76 0 L40 0 L193 720 L229 720 L140 304 L452 520 L504 520 L173 290 L429 0 L382 0 L135 280 L76 0 Z " />
<glyph glyph-name="l" unicode="l" horiz-adv-x="196" d="M229 720 L76 0 L40 0 L193 720 L229 720 Z " />
<glyph glyph-name="m" unicode="m" horiz-adv-x="843" d="M76 0 L40 0 L150 520 L180 520 L166 431 Q203 486 258 513 Q301 535 347 535 Q412 535 448 502 Q479 473 481 423 Q519 482 578 512 Q625 535 673 535 Q742 535 778 498 Q810 466 810 411 Q810 388 804 361 L728 0 L692 0 L768 359 Q774 386 774 408 Q774 505 665 505 Q593 505 535 446 Q485 395 470 324 L402 0 L366 0 L442 359 Q448 386 448 408 Q448 505 341 505 Q267 505 209 446 Q159 395 144 324 L76 0 Z " />
<glyph glyph-name="n" unicode="n" horiz-adv-x="547" d="M353 505 Q283 505 219 450 Q159 398 144 324 L76 0 L40 0 L150 520 L180 520 L164 421 Q204 479 261 509 Q310 535 363 535 Q437 535 478 495 Q513 460 513 403 Q513 385 508 360 L432 0 L396 0 L472 358 Q477 379 477 399 Q477 453 441 480 Q409 505 353 505 Z " />
<glyph glyph-name="o" unicode="o" horiz-adv-x="565" d="M247 15 Q383 15 455 152 Q503 243 503 339 Q503 426 457 469 Q417 505 350 505 Q211 505 140 368 Q93 279 93 181 Q93 95 140 51 Q180 15 247 15 Z M245 -15 Q152 -15 101 43 Q56 95 56 182 Q56 255 83 329 Q116 418 176 471 Q249 535 353 535 Q446 535 496 477 Q540 425 540 338 Q540 266 512 191 Q480 102 419 49 Q347 -15 245 -15 Z " />
<glyph glyph-name="p" unicode="p" horiz-adv-x="568" d="M372 535 Q457 535 502 483 Q543 435 543 351 Q543 272 514 193 Q482 102 423 48 Q353 -15 258 -15 Q190 -15 146 25 Q109 58 99 109 L37 -180 L1 -180 L150 520 L179 520 L162 411 Q201 472 257 504 Q311 535 372 535 Z M256 15 Q385 15 457 155 Q507 252 507 352 Q507 433 463 472 Q426 505 364 505 Q243 505 171 380 Q116 286 116 173 Q116 91 160 49 Q196 15 256 15 Z " />
<glyph glyph-name="q" unicode="q" horiz-adv-x="568" d="M226 -15 Q144 -15 98 39 Q54 89 54 174 Q54 249 82 327 Q115 417 174 471 Q243 535 337 535 Q405 535 450 494 Q487 461 499 409 L529 520 L558 520 L409 -180 L373 -180 L434 106 Q395 46 339 14 Q286 -15 226 -15 Z M340 505 Q214 505 142 372 Q91 278 91 174 Q91 91 137 49 Q174 15 235 15 Q355 15 426 137 Q481 231 481 346 Q481 429 437 471 Q400 505 340 505 Z " />
<glyph glyph-name="r" unicode="r" horiz-adv-x="334" d="M76 0 L40 0 L150 520 L179 520 L162 410 Q227 535 336 535 Q360 535 391 526 L383 491 Q355 501 330 501 Q264 501 207 436 Q156 378 138 294 L76 0 Z " />
<glyph glyph-name="s" unicode="s" horiz-adv-x="491" d="M207 16 Q291 16 345 59 Q394 99 394 160 Q394 205 351 228 Q316 247 237 259 Q168 270 131 304 Q98 335 98 381 Q98 453 158 496 Q214 535 307 535 Q392 535 438 491 Q478 454 478 395 L442 395 L442 405 Q442 452 401 480 Q364 505 302 505 Q213 505 169 462 Q135 429 135 379 Q135 342 165.5 321 Q196 300 269 288 Q433 261 433 161 Q433 83 368 33 Q305 -15 205 -15 Q118 -15 70 28 Q30 63 30 117 Q30 124 31 133 L67 133 Q66 126 66 119 Q66 69 107 41 Q145 16 207 16 Z " />
<glyph glyph-name="t" unicode="t" horiz-adv-x="294" d="M323 489 L199 489 L116 95 Q112 75 112 66 Q112 15 173 15 Q200 15 239 27 L232 -4 Q197 -15 167 -15 Q76 -15 76 63 Q76 80 80 96 L163 489 L88 489 L95 520 L170 520 L201 645 L233 645 L206 520 L330 520 L323 489 Z " />
<glyph glyph-name="u" unicode="u" horiz-adv-x="542" d="M145 520 L181 520 L107 173 Q100 146 100 119 Q100 15 222 15 Q297 15 359 75 Q412 126 428 200 L496 520 L532 520 L422 0 L392 0 L406 93 Q366 36 307 7 Q260 -15 211 -15 Q139 -15 100 22 Q64 56 64 115 Q64 141 69 162 L145 520 Z " />
<glyph glyph-name="v" unicode="v" horiz-adv-x="490" d="M501 520 L540 520 L229 0 L181 0 L90 520 L127 520 L210 31 L501 520 Z " />
<glyph glyph-name="w" unicode="w" horiz-adv-x="752" d="M760 520 L797 520 L538 0 L492 0 L441 488 L193 0 L147 0 L95 520 L129 520 L176 35 L423 520 L471 520 L520 37 L760 520 Z " />
<glyph glyph-name="x" unicode="x" horiz-adv-x="504" d="M523 520 L289 274 L444 0 L403 0 L262 249 L27 0 L-20 0 L242 275 L99 520 L141 520 L269 300 L477 520 L523 520 Z " />
<glyph glyph-name="y" unicode="y" horiz-adv-x="490" d="M540 520 L244 -3 Q170 -134 144 -162 Q114 -195 70 -195 Q43 -195 17 -183 L24 -154 Q48 -165 73 -165 Q103 -165 124.5 -138.5 Q146 -112 207 0 L193 0 L90 520 L126 520 L223 26 L501 520 L540 520 Z " />
<glyph glyph-name="z" unicode="z" horiz-adv-x="478" d="M500 482 L50 31 L404 31 L398 0 L0 0 L7 36 L459 489 L118 489 L125 520 L508 520 L500 482 Z " />
<glyph glyph-name="braceleft" unicode="&#x7b;" horiz-adv-x="340" d="M94 349 Q140 349 172 379 Q200 406 210 450 L261 688 Q276 756 316 784 Q353 810 422 810 L415 778 Q361 778 334 756.5 Q307 735 296 683 L247 451 Q236 399 200 365 Q169 337 129 329 Q162 322 180 298.5 Q198 275 198 239 Q198 223 195 207 L145 -29 Q139 -58 139 -76 Q139 -107 158.5 -121.5 Q178 -136 221 -136 L214 -168 Q103 -168 103 -76 Q103 -50 111 -16 L159 212 Q162 227 162 241 Q162 275 142 294 Q122 313 86 313 L94 349 Z " />
<glyph glyph-name="bar" unicode="&#x7c;" horiz-adv-x="340" d="M279 785 L313 785 L117 -140 L83 -140 L279 785 Z " />
<glyph glyph-name="braceright" unicode="&#x7d;" horiz-adv-x="340" d="M310 329 L302 293 Q256 293 224 263 Q196 236 186 192 L135 -46 Q120 -114 80 -142 Q43 -168 -26 -168 L-19 -136 Q35 -136 62 -114.5 Q89 -93 100 -41 L149 191 Q160 243 196 277 Q227 305 267 313 Q234 320 216 343.5 Q198 367 198 403 Q198 419 201 435 L251 671 Q257 700 257 718 Q257 749 237.5 763.5 Q218 778 175 778 L182 810 Q293 810 293 718 Q293 692 285 658 L237 430 Q234 415 234 401 Q234 367 254 348 Q274 329 310 329 Z " />
<glyph glyph-name="asciitilde" unicode="&#x7e;" horiz-adv-x="600" d="M418 314 Q469 314 537 364 L528 323 Q466 282 414 282 Q389 282 369 288.5 Q349 295 317 314 Q273 341 240 341 Q190 341 122 290 L130 332 Q192 373 244 373 Q269 373 289 366.5 Q309 360 341 341 Q385 314 418 314 Z " />
<glyph glyph-name="Adieresis" unicode="&#xc4;" horiz-adv-x="642" d="M592 0 L553 0 L514 213 L141 213 L11 0 L-30 0 L409 720 L460 720 L592 0 Z M429 686 L160 245 L509 245 L429 686 Z M377 833 L331 833 L344 890 L390 890 L377 833 Z M573 833 L527 833 L540 890 L586 890 L573 833 Z " />
<glyph glyph-name="Aring" unicode="&#xc5;" horiz-adv-x="642" d="M592 0 L553 0 L514 213 L141 213 L11 0 L-30 0 L398 702 Q369 713 352.5 737.5 Q336 762 336 795 Q336 850 372 888 Q407 925 462 925 Q512 925 542 894 Q567 866 567 825 Q567 777 537 740 Q509 704 464 697 L592 0 Z M429 686 L160 245 L509 245 L429 686 Z M461 898 Q416 898 390 864 Q368 836 368 797 Q368 762 388 742 Q408 722 442 722 Q487 722 513 756 Q535 784 535 823 Q535 858 515 878 Q495 898 461 898 Z " />
<glyph glyph-name="Ccedilla" unicode="&#xc7;" horiz-adv-x="715" d="M439 -126 Q439 -170 399 -205 Q361 -238 309 -238 Q262 -238 237 -216 Q214 -195 214 -161 L214 -156 L246 -156 L246 -160 Q246 -209 316 -209 Q356 -209 383 -183 Q406 -161 406 -131 Q406 -77 304 -77 L322 -14 Q201 -8 136 76 Q79 148 79 261 Q79 359 120 462 Q167 580 251 651 Q351 735 486 735 Q608 735 671 675 Q732 618 732 509 L695 509 Q695 702 482 702 Q360 702 270 622 Q196 555 153 444 Q117 349 117 263 Q117 142 186 76 Q245 18 340 18 Q450 18 531 82 Q602 138 635 233 L672 233 Q636 117 543 50 Q459 -11 352 -15 L344 -52 Q389 -56 414 -75.5 Q439 -95 439 -126 Z " />
<glyph glyph-name="Eacute" unicode="&#xc9;" horiz-adv-x="561" d="M513 383 L506 350 L156 350 L89 33 L468 33 L461 0 L45 0 L198 720 L614 720 L607 687 L228 687 L163 383 L513 383 Z M356 768 L488 905 L543 905 L392 768 L356 768 Z " />
<glyph glyph-name="Ntilde" unicode="&#xd1;" horiz-adv-x="709" d="M702 720 L737 720 L584 0 L548 0 L222 668 L81 0 L45 0 L198 720 L236 720 L561 57 L702 720 Z M538 803 Q510 803 480 821 Q456 835 436 835 Q408 835 356 800 L364 839 Q409 868 441 868 Q469 868 499 850 Q523 836 543 836 Q572 836 624 871 L616 832 Q571 803 538 803 Z " />
<glyph glyph-name="Odieresis" unicode="&#xd6;" horiz-adv-x="744" d="M481 702 Q287 702 186 519 Q147 448 129 362 Q117 306 117 255 Q117 134 185 71 Q242 18 335 18 Q527 18 630 201 Q669 272 687 358 Q699 415 699 465 Q699 586 630 649 Q573 702 481 702 Z M333 -15 Q211 -15 142 65 Q80 137 80 257 Q80 357 119 460 Q165 579 248 650 Q347 735 483 735 Q605 735 674 655 Q736 583 736 463 Q736 363 697 260 Q651 141 568 70 Q469 -15 333 -15 Z M429 833 L383 833 L396 890 L442 890 L429 833 Z M625 833 L579 833 L592 890 L638 890 L625 833 Z " />
<glyph glyph-name="Udieresis" unicode="&#xdc;" horiz-adv-x="700" d="M310 -15 Q195 -15 133 51 Q84 105 84 186 Q84 213 90 240 L193 720 L229 720 L125 234 Q120 214 120 187 Q120 106 180 59 Q232 18 313 18 Q423 18 504 86 Q574 146 593 234 L697 720 L733 720 L628 230 Q604 117 511 49 Q425 -15 310 -15 Z M405 833 L359 833 L372 890 L418 890 L405 833 Z M601 833 L555 833 L568 890 L614 890 L601 833 Z " />
<glyph glyph-name="aacute" unicode="&#xe1;" horiz-adv-x="520" d="M145 390 L109 390 Q131 460 196 500 Q254 535 329 535 Q406 535 449 497 Q487 462 487 406 Q487 385 483 368 L405 0 L376 0 L389 93 Q308 -15 183 -15 Q112 -15 71 20 Q33 51 33 103 Q33 194 110 243 Q166 279 271 296 L437 322 L448 375 Q451 392 451 406 Q451 455 414 482 Q381 505 325 505 Q256 505 204 468 Q161 437 145 390 Z M407 183 L431 292 L281 268 Q161 249 112 203 Q72 166 72 105 Q72 58 110 35 Q142 16 195 16 Q269 16 333 68 Q392 116 407 183 Z M312 598 L444 735 L499 735 L348 598 L312 598 Z " />
<glyph glyph-name="agrave" unicode="&#xe0;" horiz-adv-x="520" d="M145 390 L109 390 Q131 460 196 500 Q254 535 329 535 Q406 535 449 497 Q487 462 487 406 Q487 385 483 368 L405 0 L376 0 L389 93 Q308 -15 183 -15 Q112 -15 71 20 Q33 51 33 103 Q33 194 110 243 Q166 279 271 296 L437 322 L448 375 Q451 392 451 406 Q451 455 414 482 Q381 505 325 505 Q256 505 204 468 Q161 437 145 390 Z M407 183 L431 292 L281 268 Q161 249 112 203 Q72 166 72 105 Q72 58 110 35 Q142 16 195 16 Q269 16 333 68 Q392 116 407 183 Z M306 735 L380 598 L348 598 L255 735 L306 735 Z " />
<glyph glyph-name="acircumflex" unicode="&#xe2;" horiz-adv-x="520" d="M145 390 L109 390 Q131 460 196 500 Q254 535 329 535 Q406 535 449 497 Q487 462 487 406 Q487 385 483 368 L405 0 L376 0 L389 93 Q308 -15 183 -15 Q112 -15 71 20 Q33 51 33 103 Q33 194 110 243 Q166 279 271 296 L437 322 L448 375 Q451 392 451 406 Q451 455 414 482 Q381 505 325 505 Q256 505 204 468 Q161 437 145 390 Z M407 183 L431 292 L281 268 Q161 249 112 203 Q72 166 72 105 Q72 58 110 35 Q142 16 195 16 Q269 16 333 68 Q392 116 407 183 Z M403 735 L477 598 L443 598 L376 711 L262 598 L223 598 L356 735 L403 735 Z " />
<glyph glyph-name="adieresis" unicode="&#xe4;" horiz-adv-x="520" d="M145 390 L109 390 Q131 460 196 500 Q254 535 329 535 Q406 535 449 497 Q487 462 487 406 Q487 385 483 368 L405 0 L376 0 L389 93 Q308 -15 183 -15 Q112 -15 71 20 Q33 51 33 103 Q33 194 110 243 Q166 279 271 296 L437 322 L448 375 Q451 392 451 406 Q451 455 414 482 Q381 505 325 505 Q256 505 204 468 Q161 437 145 390 Z M407 183 L431 292 L281 268 Q161 249 112 203 Q72 166 72 105 Q72 58 110 35 Q142 16 195 16 Q269 16 333 68 Q392 116 407 183 Z M285 663 L239 663 L252 720 L298 720 L285 663 Z M481 663 L435 663 L448 720 L494 720 L481 663 Z " />
<glyph glyph-name="atilde" unicode="&#xe3;" horiz-adv-x="520" d="M145 390 L109 390 Q131 460 196 500 Q254 535 329 535 Q406 535 449 497 Q487 462 487 406 Q487 385 483 368 L405 0 L376 0 L389 93 Q308 -15 183 -15 Q112 -15 71 20 Q33 51 33 103 Q33 194 110 243 Q166 279 271 296 L437 322 L448 375 Q451 392 451 406 Q451 455 414 482 Q381 505 325 505 Q256 505 204 468 Q161 437 145 390 Z M407 183 L431 292 L281 268 Q161 249 112 203 Q72 166 72 105 Q72 58 110 35 Q142 16 195 16 Q269 16 333 68 Q392 116 407 183 Z M409 633 Q381 633 351 651 Q327 665 307 665 Q279 665 227 630 L235 669 Q280 698 312 698 Q340 698 370 680 Q394 666 414 666 Q443 666 495 701 L487 662 Q442 633 409 633 Z " />
<glyph glyph-name="aring" unicode="&#xe5;" horiz-adv-x="520" d="M145 390 L109 390 Q131 460 196 500 Q254 535 329 535 Q406 535 449 497 Q487 462 487 406 Q487 385 483 368 L405 0 L376 0 L389 93 Q308 -15 183 -15 Q112 -15 71 20 Q33 51 33 103 Q33 194 110 243 Q166 279 271 296 L437 322 L448 375 Q451 392 451 406 Q451 455 414 482 Q381 505 325 505 Q256 505 204 468 Q161 437 145 390 Z M407 183 L431 292 L281 268 Q161 249 112 203 Q72 166 72 105 Q72 58 110 35 Q142 16 195 16 Q269 16 333 68 Q392 116 407 183 Z M373 788 Q328 788 302 754 Q280 726 280 687 Q280 652 300 632 Q320 612 354 612 Q399 612 425 646 Q447 674 447 713 Q447 748 427 768 Q407 788 373 788 Z M353 585 Q303 585 273 616 Q248 644 248 685 Q248 740 284 778 Q319 815 374 815 Q424 815 454 784 Q479 756 479 715 Q479 660 443 622 Q408 585 353 585 Z " />
<glyph glyph-name="ccedilla" unicode="&#xe7;" horiz-adv-x="534" d="M438 147 L475 147 Q448 73 380 29 Q320 -11 248 -14 L240 -52 Q289 -57 315 -81 Q335 -101 335 -129 Q335 -173 297 -206 Q260 -238 205 -238 Q158 -238 133 -216 Q110 -195 110 -161 L110 -156 L142 -156 L142 -160 Q142 -209 212 -209 Q252 -209 279 -183 Q302 -161 302 -131 Q302 -77 200 -77 L218 -14 Q139 -9 95 46 Q55 96 55 178 Q55 261 88 341 Q123 427 185 478 Q255 535 346 535 Q433 535 481 487 Q521 446 521 380 L483 380 Q483 441 443 475 Q406 505 345 505 Q219 505 144 377 Q90 284 90 178 Q90 93 138 51 Q177 16 240 16 Q310 16 368 58 Q418 94 438 147 Z " />
<glyph glyph-name="eacute" unicode="&#xe9;" horiz-adv-x="568" d="M454 138 L492 138 Q458 63 388 21 Q326 -15 253 -15 Q157 -15 104 45 Q57 98 57 187 Q57 267 89 343 Q124 428 186 478 Q256 535 350 535 Q440 535 490 480 Q536 429 536 340 Q536 297 526 251 L100 251 Q93 217 93 184 Q93 95 145 52 Q188 16 257 16 Q325 16 379 52 Q428 84 454 138 Z M348 505 Q262 505 194 440 Q132 380 106 282 L494 282 Q499 317 499 340 Q499 426 451 469 Q412 505 348 505 Z M335 598 L467 735 L522 735 L371 598 L335 598 Z " />
<glyph glyph-name="egrave" unicode="&#xe8;" horiz-adv-x="568" d="M454 138 L492 138 Q458 63 388 21 Q326 -15 253 -15 Q157 -15 104 45 Q57 98 57 187 Q57 267 89 343 Q124 428 186 478 Q256 535 350 535 Q440 535 490 480 Q536 429 536 340 Q536 297 526 251 L100 251 Q93 217 93 184 Q93 95 145 52 Q188 16 257 16 Q325 16 379 52 Q428 84 454 138 Z M348 505 Q262 505 194 440 Q132 380 106 282 L494 282 Q499 317 499 340 Q499 426 451 469 Q412 505 348 505 Z M331 735 L405 598 L373 598 L280 735 L331 735 Z " />
<glyph glyph-name="ecircumflex" unicode="&#xea;" horiz-adv-x="568" d="M454 138 L492 138 Q458 63 388 21 Q326 -15 253 -15 Q157 -15 104 45 Q57 98 57 187 Q57 267 89 343 Q124 428 186 478 Q256 535 350 535 Q440 535 490 480 Q536 429 536 340 Q536 297 526 251 L100 251 Q93 217 93 184 Q93 95 145 52 Q188 16 257 16 Q325 16 379 52 Q428 84 454 138 Z M348 505 Q262 505 194 440 Q132 380 106 282 L494 282 Q499 317 499 340 Q499 426 451 469 Q412 505 348 505 Z M420 735 L494 598 L460 598 L393 711 L279 598 L240 598 L373 735 L420 735 Z " />
<glyph glyph-name="edieresis" unicode="&#xeb;" horiz-adv-x="568" d="M454 138 L492 138 Q458 63 388 21 Q326 -15 253 -15 Q157 -15 104 45 Q57 98 57 187 Q57 267 89 343 Q124 428 186 478 Q256 535 350 535 Q440 535 490 480 Q536 429 536 340 Q536 297 526 251 L100 251 Q93 217 93 184 Q93 95 145 52 Q188 16 257 16 Q325 16 379 52 Q428 84 454 138 Z M348 505 Q262 505 194 440 Q132 380 106 282 L494 282 Q499 317 499 340 Q499 426 451 469 Q412 505 348 505 Z M306 663 L260 663 L273 720 L319 720 L306 663 Z M502 663 L456 663 L469 720 L515 720 L502 663 Z " />
<glyph glyph-name="iacute" unicode="&#xed;" horiz-adv-x="192" d="M74 0 L38 0 L148 520 L184 520 L74 0 Z M134 598 L266 735 L321 735 L170 598 L134 598 Z " />
<glyph glyph-name="igrave" unicode="&#xec;" horiz-adv-x="192" d="M74 0 L38 0 L148 520 L184 520 L74 0 Z M156 735 L230 598 L198 598 L105 735 L156 735 Z " />
<glyph glyph-name="icircumflex" unicode="&#xee;" horiz-adv-x="192" d="M74 0 L38 0 L148 520 L184 520 L74 0 Z M236 735 L310 598 L276 598 L209 711 L95 598 L56 598 L189 735 L236 735 Z " />
<glyph glyph-name="idieresis" unicode="&#xef;" horiz-adv-x="192" d="M74 0 L38 0 L148 520 L184 520 L74 0 Z M121 663 L75 663 L88 720 L134 720 L121 663 Z M317 663 L271 663 L284 720 L330 720 L317 663 Z " />
<glyph glyph-name="ntilde" unicode="&#xf1;" horiz-adv-x="547" d="M353 505 Q283 505 219 450 Q159 398 144 324 L76 0 L40 0 L150 520 L180 520 L164 421 Q204 479 261 509 Q310 535 363 535 Q437 535 478 495 Q513 460 513 403 Q513 385 508 360 L432 0 L396 0 L472 358 Q477 379 477 399 Q477 453 441 480 Q409 505 353 505 Z M433 633 Q405 633 375 651 Q351 665 331 665 Q303 665 251 630 L259 669 Q304 698 336 698 Q364 698 394 680 Q418 666 438 666 Q467 666 519 701 L511 662 Q466 633 433 633 Z " />
<glyph glyph-name="oacute" unicode="&#xf3;" horiz-adv-x="565" d="M247 15 Q383 15 455 152 Q503 243 503 339 Q503 426 457 469 Q417 505 350 505 Q211 505 140 368 Q93 279 93 181 Q93 95 140 51 Q180 15 247 15 Z M245 -15 Q152 -15 101 43 Q56 95 56 182 Q56 255 83 329 Q116 418 176 471 Q249 535 353 535 Q446 535 496 477 Q540 425 540 338 Q540 266 512 191 Q480 102 419 49 Q347 -15 245 -15 Z M331 598 L463 735 L518 735 L367 598 L331 598 Z " />
<glyph glyph-name="ograve" unicode="&#xf2;" horiz-adv-x="565" d="M247 15 Q383 15 455 152 Q503 243 503 339 Q503 426 457 469 Q417 505 350 505 Q211 505 140 368 Q93 279 93 181 Q93 95 140 51 Q180 15 247 15 Z M245 -15 Q152 -15 101 43 Q56 95 56 182 Q56 255 83 329 Q116 418 176 471 Q249 535 353 535 Q446 535 496 477 Q540 425 540 338 Q540 266 512 191 Q480 102 419 49 Q347 -15 245 -15 Z M331 735 L405 598 L373 598 L280 735 L331 735 Z " />
<glyph glyph-name="ocircumflex" unicode="&#xf4;" horiz-adv-x="565" d="M247 15 Q383 15 455 152 Q503 243 503 339 Q503 426 457 469 Q417 505 350 505 Q211 505 140 368 Q93 279 93 181 Q93 95 140 51 Q180 15 247 15 Z M245 -15 Q152 -15 101 43 Q56 95 56 182 Q56 255 83 329 Q116 418 176 471 Q249 535 353 535 Q446 535 496 477 Q540 425 540 338 Q540 266 512 191 Q480 102 419 49 Q347 -15 245 -15 Z M423 735 L497 598 L463 598 L396 711 L282 598 L243 598 L376 735 L423 735 Z " />
<glyph glyph-name="odieresis" unicode="&#xf6;" horiz-adv-x="565" d="M247 15 Q383 15 455 152 Q503 243 503 339 Q503 426 457 469 Q417 505 350 505 Q211 505 140 368 Q93 279 93 181 Q93 95 140 51 Q180 15 247 15 Z M245 -15 Q152 -15 101 43 Q56 95 56 182 Q56 255 83 329 Q116 418 176 471 Q249 535 353 535 Q446 535 496 477 Q540 425 540 338 Q540 266 512 191 Q480 102 419 49 Q347 -15 245 -15 Z M308 663 L262 663 L275 720 L321 720 L308 663 Z M504 663 L458 663 L471 720 L517 720 L504 663 Z " />
<glyph glyph-name="otilde" unicode="&#xf5;" horiz-adv-x="565" d="M247 15 Q383 15 455 152 Q503 243 503 339 Q503 426 457 469 Q417 505 350 505 Q211 505 140 368 Q93 279 93 181 Q93 95 140 51 Q180 15 247 15 Z M245 -15 Q152 -15 101 43 Q56 95 56 182 Q56 255 83 329 Q116 418 176 471 Q249 535 353 535 Q446 535 496 477 Q540 425 540 338 Q540 266 512 191 Q480 102 419 49 Q347 -15 245 -15 Z M431 633 Q403 633 373 651 Q349 665 329 665 Q301 665 249 630 L257 669 Q302 698 334 698 Q362 698 392 680 Q416 666 436 666 Q465 666 517 701 L509 662 Q464 633 431 633 Z " />
<glyph glyph-name="uacute" unicode="&#xfa;" horiz-adv-x="542" d="M145 520 L181 520 L107 173 Q100 146 100 119 Q100 15 222 15 Q297 15 359 75 Q412 126 428 200 L496 520 L532 520 L422 0 L392 0 L406 93 Q366 36 307 7 Q260 -15 211 -15 Q139 -15 100 22 Q64 56 64 115 Q64 141 69 162 L145 520 Z M314 598 L446 735 L501 735 L350 598 L314 598 Z " />
<glyph glyph-name="ugrave" unicode="&#xf9;" horiz-adv-x="542" d="M145 520 L181 520 L107 173 Q100 146 100 119 Q100 15 222 15 Q297 15 359 75 Q412 126 428 200 L496 520 L532 520 L422 0 L392 0 L406 93 Q366 36 307 7 Q260 -15 211 -15 Q139 -15 100 22 Q64 56 64 115 Q64 141 69 162 L145 520 Z M321 735 L395 598 L363 598 L270 735 L321 735 Z " />
<glyph glyph-name="ucircumflex" unicode="&#xfb;" horiz-adv-x="542" d="M145 520 L181 520 L107 173 Q100 146 100 119 Q100 15 222 15 Q297 15 359 75 Q412 126 428 200 L496 520 L532 520 L422 0 L392 0 L406 93 Q366 36 307 7 Q260 -15 211 -15 Q139 -15 100 22 Q64 56 64 115 Q64 141 69 162 L145 520 Z M409 735 L483 598 L449 598 L382 711 L268 598 L229 598 L362 735 L409 735 Z " />
<glyph glyph-name="udieresis" unicode="&#xfc;" horiz-adv-x="542" d="M145 520 L181 520 L107 173 Q100 146 100 119 Q100 15 222 15 Q297 15 359 75 Q412 126 428 200 L496 520 L532 520 L422 0 L392 0 L406 93 Q366 36 307 7 Q260 -15 211 -15 Q139 -15 100 22 Q64 56 64 115 Q64 141 69 162 L145 520 Z M294 663 L248 663 L261 720 L307 720 L294 663 Z M490 663 L444 663 L457 720 L503 720 L490 663 Z " />
<glyph glyph-name="dagger" unicode="&#x2020;" horiz-adv-x="600" d="M395 720 L431 720 L385 508 L587 508 L580 474 L378 474 L278 0 L242 0 L342 474 L140 474 L147 508 L349 508 L395 720 Z " />
<glyph glyph-name="degree" unicode="&#xb0;" horiz-adv-x="600" d="M314 680 Q249 680 211 630 Q180 590 180 533 Q180 479 214 449 Q243 424 287 424 Q351 424 389 474 Q420 514 420 571 Q420 625 386 655 Q358 680 314 680 Z M285 394 Q222 394 182 433 Q144 470 144 530 Q144 609 194 661 Q241 710 315 710 Q378 710 418 671 Q456 634 456 574 Q456 495 406 443 Q359 394 285 394 Z " />
<glyph glyph-name="cent" unicode="&#xa2;" horiz-adv-x="600" d="M450 147 L487 147 Q459 72 391 27 Q330 -12 257 -15 L232 -135 L197 -135 L223 -14 Q147 -6 105 49 Q67 99 67 178 Q67 258 98 335 Q130 418 188 470 Q254 528 339 534 L366 660 L401 660 L374 534 Q454 529 496 482 Q533 442 533 380 L495 380 Q495 441 455 475 Q418 505 357 505 Q231 505 156 377 Q102 284 102 178 Q102 93 150 51 Q189 16 252 16 Q322 16 380 58 Q430 94 450 147 Z " />
<glyph glyph-name="sterling" unicode="&#xa3;" horiz-adv-x="600" d="M426 367 L419 335 L196 335 L152 131 Q138 69 80 33 L472 33 L465 0 L20 0 L27 33 Q101 60 118 136 L161 335 L116 335 L123 367 L168 367 L202 530 Q222 626 286 674 Q340 715 418 715 Q492 715 538 670 Q577 632 578 578 L544 578 Q542 627 503 657 Q468 684 416 684 Q341 684 293 637 Q251 596 236 525 L203 367 L426 367 Z " />
<glyph glyph-name="section" unicode="&#xa7;" horiz-adv-x="580" d="M514 326 Q514 211 346 164 Q419 128 419 67 Q419 2 368 -43 Q315 -90 225 -90 Q155 -90 112 -54 Q77 -26 73 14 L112 14 Q118 -24 157 -44 Q187 -60 230 -60 Q309 -60 352 -12 Q383 22 383 63 Q383 96 359 117 Q335 138 269 163 Q183 194 148 228 Q117 258 117 298 Q117 415 285 460 Q213 496 213 558 Q213 623 264 668 Q318 715 407 715 Q476 715 518 679 Q552 651 556 611 L517 611 Q511 645 480.5 665 Q450 685 402 685 Q322 685 279 637 Q248 602 248 562 Q248 528 272.5 506.5 Q297 485 363 462 Q449 430 484 396 Q514 366 514 326 Z M338 438 Q334 439 326 442 Q321 444 319 445 Q220 417 184 381 Q154 351 154 302 Q154 263 191 236 Q221 215 294 187 L313 179 Q412 207 448 243 Q478 273 478 323 Q478 362 440 389 Q411 410 338 438 Z " />
<glyph glyph-name="bullet" unicode="&#x2022;" horiz-adv-x="295" d="M220 260 L105 260 L129 376 L244 376 L220 260 Z " />
<glyph glyph-name="paragraph" unicode="&#xb6;" horiz-adv-x="550" d="M176 -180 L142 -180 L264 395 Q218 395 182 426 Q143 461 143 518 Q143 602 204 664 Q259 720 334 720 L368 720 L176 -180 Z M519 720 L553 720 L361 -180 L327 -180 L519 720 Z " />
<glyph glyph-name="germandbls" unicode="&#xdf;" horiz-adv-x="545" d="M162 86 L200 86 Q208 53 239 34 Q270 15 317 15 Q383 15 428 62 Q470 106 470 170 Q470 231 391 280 Q350 305 332.5 328.5 Q315 352 315 380 Q315 419 342 450 Q354 464 400 501 Q438 532 453 557 Q469 584 469 618 Q469 663 435 686 Q406 705 360 705 Q226 705 193 551 L76 0 L40 0 L157 554 Q195 735 363 735 Q429 735 468 703 Q503 672 503 621 Q503 564 463 519 Q449 504 403 467 Q373 442 361 424.5 Q349 407 349 386 Q349 343 413 305 Q508 248 508 171 Q508 87 445 32 Q390 -15 311 -15 Q244 -15 204 19 Q172 45 162 86 Z " />
<glyph glyph-name="registered" unicode="&#xae;" horiz-adv-x="614" d="M140 493 Q140 614 225 680 Q289 730 372 730 Q470 730 537 665 Q604 600 604 493 Q604 372 519 306 Q455 256 372 256 Q274 256 207 321 Q140 386 140 493 Z M168 493 Q168 388 239 328 Q295 281 372 281 Q461 281 520 343 Q576 401 576 493 Q576 598 505 658 Q449 705 372 705 Q283 705 224 643 Q168 585 168 493 Z M475 366 L444 366 L381 470 L323 470 L323 366 L297 366 L297 624 L374 624 Q418 624 442 604 Q465 585 465 550 Q465 493 408 475 L475 366 Z M375 602 L323 602 L323 492 L378 492 Q404 492 421 508.5 Q438 525 438 550 Q438 575 421.5 588.5 Q405 602 375 602 Z " />
<glyph glyph-name="copyright" unicode="&#xa9;" horiz-adv-x="843" d="M126 360 Q126 179 243 85 Q331 14 456 14 Q542 14 614 50 Q692 89 737 163 Q786 245 786 360 Q786 541 669 635 Q581 706 456 706 Q370 706 298 670 Q220 631 175 557 Q126 475 126 360 Z M818 360 Q818 165 689 62 Q592 -15 456 -15 Q363 -15 283 24 Q197 66 149 146 Q94 236 94 360 Q94 555 223 658 Q320 735 456 735 Q549 735 629 696 Q715 654 763 574 Q818 484 818 360 Z M583 280 L618 280 Q607 219 558 185 Q515 154 455 154 Q373 154 325 214 Q280 270 280 361 Q280 470 339 528 Q386 574 456 574 Q524 574 568 537 Q606 504 616 453 L580 453 Q571 498 534 523 Q502 544 457 544 Q391 544 352 492 Q315 443 315 360 Q315 269 363 222 Q400 185 456 185 Q509 185 544 215 Q575 240 583 280 Z " />
<glyph glyph-name="trademark" unicode="&#x2122;" horiz-adv-x="820" d="M674 324 L645 324 L504 684 L504 324 L474 324 L474 691 L326 691 L326 324 L295 324 L295 691 L141 691 L141 720 L521 720 L660 362 L796 720 L841 720 L841 324 L810 324 L810 684 L674 324 Z " />
<glyph glyph-name="acute" unicode="&#xb4;" horiz-adv-x="216" d="M116 598 L248 735 L303 735 L152 598 L116 598 Z " />
<glyph glyph-name="dieresis" unicode="&#xa8;" horiz-adv-x="370" d="M206 663 L160 663 L173 720 L219 720 L206 663 Z M402 663 L356 663 L369 720 L415 720 L402 663 Z " />
<glyph glyph-name="notequal" unicode="&#x2260;" horiz-adv-x="600" d="M509 234 L502 200 L248 200 L112 40 L68 40 L203 200 L102 200 L109 234 L232 234 L382 410 L147 410 L154 444 L410 444 L543 600 L587 600 L455 444 L554 444 L547 410 L426 410 L276 234 L509 234 Z " />
<glyph glyph-name="AE" unicode="&#xc6;" horiz-adv-x="917" d="M466 213 L176 213 L3 0 L-40 0 L546 720 L970 720 L963 687 L604 687 L539 383 L869 383 L862 350 L532 350 L465 33 L824 33 L817 0 L421 0 L466 213 Z M568 695 L202 245 L473 245 L568 695 Z " />
<glyph glyph-name="Oslash" unicode="&#xd8;" horiz-adv-x="744" d="M333 -15 Q271 -15 223 6 L156 -110 L119 -110 L194 20 Q136 55 107 120 Q80 179 80 257 Q80 357 119 460 Q165 579 248 650 Q347 735 483 735 Q544 735 595 712 L658 820 L695 820 L624 697 Q681 662 710 598 Q736 539 736 463 Q736 363 697 260 Q651 141 568 70 Q469 -15 333 -15 Z M481 702 Q287 702 186 519 Q147 448 129 362 Q117 306 117 255 Q117 109 211 50 L578 683 Q534 702 481 702 Z M699 465 Q699 608 606 667 L240 35 Q283 18 335 18 Q527 18 630 201 Q669 272 687 358 Q699 415 699 465 Z " />
<glyph glyph-name="infinity" unicode="&#x221e;" horiz-adv-x="720" d="M231 523 Q285 523 329 491 Q370 461 392 409 Q435 523 552 523 Q637 523 684 462 Q720 415 720 350 Q720 277 673 227 Q625 177 549 177 Q494 177 451 209 Q410 239 388 290 Q345 177 228 177 Q143 177 96 238 Q60 285 60 350 Q60 423 107 473 Q155 523 231 523 Z M549 211 Q618 211 654 258 Q682 295 682 350 Q682 412 644 452 Q608 489 551 489 Q478 489 437 432 Q409 394 404 343 Q409 303 443 262 Q485 211 549 211 Z M231 489 Q162 489 126 442 Q98 405 98 350 Q98 288 136 248 Q172 211 229 211 Q302 211 343 268 Q371 306 376 357 Q371 397 337 438 Q295 489 231 489 Z " />
<glyph glyph-name="plusminus" unicode="&#xb1;" horiz-adv-x="600" d="M352 522 L388 522 L350 339 L532 339 L524 305 L342 305 L306 132 L270 132 L306 305 L124 305 L132 339 L314 339 L352 522 Z M467 34 L460 0 L60 0 L67 34 L467 34 Z " />
<glyph glyph-name="lessequal" unicode="&#x2264;" horiz-adv-x="600" d="M172 331 L172 329 L497 173 L488 135 L127 318 L133 347 L574 540 L566 498 L172 331 Z M467 34 L460 0 L60 0 L67 34 L467 34 Z " />
<glyph glyph-name="greaterequal" unicode="&#x2265;" horiz-adv-x="600" d="M488 334 L488 336 L166 502 L174 540 L533 347 L527 318 L88 135 L97 177 L488 334 Z M60 0 L67 34 L467 34 L460 0 L60 0 Z " />
<glyph glyph-name="yen" unicode="&#xa5;" horiz-adv-x="600" d="M447 182 L440 150 L287 150 L256 0 L219 0 L250 150 L99 150 L106 182 L257 182 L279 284 L128 284 L135 316 L266 316 L99 700 L137 700 L302 317 L632 700 L673 700 L344 316 L476 316 L469 284 L316 284 L294 182 L447 182 Z " />
<glyph glyph-name="mu" unicode="&#xb5;" horiz-adv-x="547" d="M186 520 L108 155 Q103 132 103 117 Q103 64 141 38 Q172 15 227 15 Q302 15 364 75 Q417 126 433 200 L501 520 L537 520 L427 0 L397 0 L411 93 Q371 36 313 7 Q267 -15 218 -15 Q120 -15 87 57 L37 -180 L1 -180 L150 520 L186 520 Z " />
<glyph glyph-name="partialdiff" unicode="&#x2202;" horiz-adv-x="536" d="M243 697 L256 725 Q374 702 443 633 Q523 553 523 420 Q523 351 505.5 274.5 Q488 198 458 142 Q377 -15 222 -15 Q136 -15 90 43 Q52 92 52 170 Q52 250 85 321 Q118 392 176 434 Q237 478 312 478 Q395 478 441 428 Q476 390 480 335 Q488 379 488 425 Q488 649 243 697 Z M223 18 Q345 18 414 134 Q460 212 460 289 Q460 361 420 405 Q381 446 315 446 Q205 446 140 347 Q89 270 89 169 Q89 95 128 55 Q163 18 223 18 Z " />
<glyph glyph-name="summation" unicode="&#x2211;" horiz-adv-x="641" d="M5 -138 L348 275 L181 688 L188 720 L704 720 L697 688 L219 688 L389 270 L49 -138 L521 -138 L514 -170 L-2 -170 L5 -138 Z " />
<glyph glyph-name="product" unicode="&#x220f;" horiz-adv-x="600" d="M100 0 L64 0 L205 668 L146 668 L153 700 L663 700 L656 668 L595 668 L454 0 L418 0 L559 668 L241 668 L100 0 Z " />
<glyph glyph-name="pi" unicode="&#x3c0;" horiz-adv-x="608" d="M122 0 L86 0 L189 488 L108 488 L115 520 L633 520 L626 488 L545 488 L442 0 L406 0 L509 488 L225 488 L122 0 Z " />
<glyph glyph-name="integral" unicode="&#x222b;" horiz-adv-x="600" d="M321 -74 Q308 -135 267 -167 Q231 -195 180 -195 Q141 -195 96 -187 L102 -158 Q151 -165 180 -165 Q220 -165 247.5 -141.5 Q275 -118 284 -75 L470 804 Q483 865 524 897 Q560 925 611 925 Q650 925 695 917 L689 888 Q640 895 611 895 Q571 895 543.5 871.5 Q516 848 507 805 L321 -74 Z " />
<glyph glyph-name="ordfeminine" unicode="&#xaa;" horiz-adv-x="440" d="M218 638 L183 638 Q199 687 249 713 Q289 734 338 734 Q395 734 426 703 Q453 677 453 634 Q453 624 449 602 L386 307 L360 307 L368 374 Q310 299 227 299 Q176 299 146 329 Q120 355 120 396 Q120 516 293 546 L408 566 L417 609 Q420 624 420 637 Q420 707 333 707 Q291 707 259.5 688 Q228 669 218 638 Z M383 449 L402 537 L299 519 Q227 507 193 480 Q154 449 154 396 Q154 363 176 345 Q198 327 238 327 Q290 327 336 370 Q374 406 383 449 Z M338 34 L331 0 L29 0 L36 34 L338 34 Z " />
<glyph glyph-name="ordmasculine" unicode="&#xba;" horiz-adv-x="384" d="M303 706 Q208 706 160 588 Q129 513 129 437 Q129 377 160 349 Q184 327 222 327 Q318 327 365 445 Q394 518 394 596 Q394 706 303 706 Z M220 299 Q158 299 125 339 Q96 375 96 438 Q96 488 109.5 540.5 Q123 593 145 633 Q203 734 307 734 Q369 734 399 694 Q427 659 427 595 Q427 485 380 400 Q324 299 220 299 Z M301 34 L294 0 L0 0 L7 34 L301 34 Z " />
<glyph glyph-name="Omega" unicode="&#x2126;" horiz-adv-x="744" d="M373 0 L380 34 Q553 40 641 223 Q675 291 690 372 Q699 423 699 467 Q699 587 631 650 Q574 702 481 702 Q288 702 186 519 Q146 447 128 359 Q116 301 116 248 Q116 138 173 82 Q220 37 298 34 L291 0 L55 0 L62 34 L197 34 Q139 61 107 125 Q79 182 79 259 Q79 361 119 464 Q165 582 249 652 Q348 735 484 735 Q605 735 674 656 Q737 585 737 467 Q737 327 674 206 Q608 80 494 34 L616 34 L609 0 L373 0 Z " />
<glyph glyph-name="ae" unicode="&#xe6;" horiz-adv-x="927" d="M183 -15 Q112 -15 71 20 Q33 51 33 103 Q33 259 271 296 L437 322 L448 375 Q451 392 451 406 Q451 455 414 482 Q381 505 325 505 Q256 505 204 468 Q161 437 145 390 L109 390 Q131 460 196 500 Q254 535 329 535 Q405 535 445 497 Q481 463 481 405 Q524 475 589 510 Q644 540 708 540 Q798 540 849 484 Q895 433 895 348 Q895 308 887 272 L461 272 Q451 228 451 189 Q451 98 504 55 Q546 21 615 21 Q683 21 737 57 Q786 89 812 143 L850 143 Q816 68 746 26 Q684 -10 611 -10 Q530 -10 480 34 Q437 72 424 138 Q381 54 304 14 Q248 -15 183 -15 Z M431 292 L281 268 Q161 249 112 203 Q72 166 72 105 Q72 58 110 35 Q142 16 195 16 Q269 16 333 68 Q392 116 407 183 L431 292 Z M706 510 Q623 510 551 442 Q489 384 467 303 L855 303 Q859 326 859 351 Q859 432 811 474 Q771 510 706 510 Z " />
<glyph glyph-name="oslash" unicode="&#xf8;" horiz-adv-x="565" d="M245 -15 Q193 -15 148 6 L72 -110 L34 -110 L122 23 Q56 75 56 182 Q56 255 83 329 Q116 418 176 471 Q249 535 353 535 Q406 535 446 515 L522 630 L560 630 L473 498 Q540 445 540 338 Q540 266 512 191 Q480 102 419 49 Q347 -15 245 -15 Z M247 15 Q383 15 455 152 Q503 243 503 339 Q503 427 454 470 L166 33 Q199 15 247 15 Z M93 181 Q93 95 140 51 L428 488 Q394 505 350 505 Q211 505 140 368 Q93 279 93 181 Z " />
<glyph glyph-name="questiondown" unicode="&#xbf;" horiz-adv-x="493" d="M350 -33 L389 -33 Q359 -110 295 -153 Q233 -195 155 -195 Q75 -195 27 -152 Q-13 -115 -13 -62 Q-13 -2 25 45 Q49 75 134 145 Q146 155 155 162 Q210 208 226.5 236 Q243 264 259 340 L295 340 Q276 253 257 219 Q238 185 178 137 L158 120 Q80 57 56 29 Q24 -11 24 -60 Q24 -108 63 -137 Q99 -164 158 -164 Q227 -164 282 -122 Q328 -87 350 -33 Z M292 540 L346 540 L333 476 L279 476 L292 540 Z " />
<glyph glyph-name="exclamdown" unicode="&#xa1;" horiz-adv-x="250" d="M130 320 L169 320 L62 -180 L23 -180 L130 320 Z M172 540 L226 540 L213 476 L159 476 L172 540 Z " />
<glyph glyph-name="logicalnot" unicode="&#xac;" horiz-adv-x="600" d="M132 339 L532 339 L485 122 L449 122 L488 305 L124 305 L132 339 Z " />
<glyph glyph-name="radical" unicode="&#x221a;" horiz-adv-x="596" d="M227 0 L179 0 L87 460 L123 460 L205 31 L617 802 L776 802 L769 770 L638 770 L227 0 Z " />
<glyph glyph-name="florin" unicode="&#x192;" horiz-adv-x="291" d="M409 720 L403 690 Q363 705 329 705 Q253 705 233 615 L213 520 L340 520 L333 489 L206 489 L64 -180 L28 -180 L170 489 L93 489 L100 520 L177 520 L198 619 Q211 680 250 710 Q283 735 332 735 Q370 735 409 720 Z " />
<glyph glyph-name="approxequal" unicode="&#x2248;" horiz-adv-x="600" d="M440 418 Q491 418 559 468 L550 427 Q488 386 436 386 Q411 386 391 392.5 Q371 399 339 418 Q295 445 262 445 Q212 445 144 394 L152 436 Q214 477 266 477 Q291 477 311 470.5 Q331 464 363 445 Q407 418 440 418 Z M396 214 Q447 214 515 264 L506 223 Q444 182 392 182 Q367 182 347 188.5 Q327 195 295 214 Q251 241 218 241 Q168 241 100 190 L108 232 Q170 273 222 273 Q247 273 267 266.5 Q287 260 319 241 Q363 214 396 214 Z " />
<glyph glyph-name="increment" unicode="&#x2206;" horiz-adv-x="642" d="M592 0 L-30 0 L409 720 L460 720 L592 0 Z M429 688 L30 32 L547 32 L429 688 Z " />
<glyph glyph-name="guillemotleft" unicode="&#xab;" horiz-adv-x="459" d="M153 90 L91 315 L250 520 L284 520 L134 313 L183 90 L153 90 Z M333 90 L271 315 L430 520 L464 520 L314 313 L363 90 L333 90 Z " />
<glyph glyph-name="guillemotright" unicode="&#xbb;" horiz-adv-x="459" d="M420 315 L268 90 L234 90 L377 313 L315 520 L345 520 L420 315 Z M240 315 L88 90 L54 90 L197 313 L135 520 L165 520 L240 315 Z " />
<glyph glyph-name="ellipsis" unicode="&#x2026;" horiz-adv-x="586" d="M118 0 L72 0 L85 64 L131 64 L118 0 Z M276 0 L230 0 L243 64 L289 64 L276 0 Z M434 0 L388 0 L401 64 L447 64 L434 0 Z " />
<glyph glyph-name="Agrave" unicode="&#xc0;" horiz-adv-x="642" d="M592 0 L553 0 L514 213 L141 213 L11 0 L-30 0 L409 720 L460 720 L592 0 Z M429 686 L160 245 L509 245 L429 686 Z M411 905 L485 768 L453 768 L360 905 L411 905 Z " />
<glyph glyph-name="Atilde" unicode="&#xc3;" horiz-adv-x="642" d="M592 0 L553 0 L514 213 L141 213 L11 0 L-30 0 L409 720 L460 720 L592 0 Z M429 686 L160 245 L509 245 L429 686 Z M501 803 Q473 803 443 821 Q419 835 399 835 Q371 835 319 800 L327 839 Q372 868 404 868 Q432 868 462 850 Q486 836 506 836 Q535 836 587 871 L579 832 Q534 803 501 803 Z " />
<glyph glyph-name="Otilde" unicode="&#xd5;" horiz-adv-x="744" d="M481 702 Q287 702 186 519 Q147 448 129 362 Q117 306 117 255 Q117 134 185 71 Q242 18 335 18 Q527 18 630 201 Q669 272 687 358 Q699 415 699 465 Q699 586 630 649 Q573 702 481 702 Z M333 -15 Q211 -15 142 65 Q80 137 80 257 Q80 357 119 460 Q165 579 248 650 Q347 735 483 735 Q605 735 674 655 Q736 583 736 463 Q736 363 697 260 Q651 141 568 70 Q469 -15 333 -15 Z M553 803 Q525 803 495 821 Q471 835 451 835 Q423 835 371 800 L379 839 Q424 868 456 868 Q484 868 514 850 Q538 836 558 836 Q587 836 639 871 L631 832 Q586 803 553 803 Z " />
<glyph glyph-name="OE" unicode="&#x152;" horiz-adv-x="927" d="M334 -10 Q211 -10 142 68 Q80 139 80 259 Q80 362 121 465 Q167 583 252 653 Q352 735 489 735 Q537 735 587 720 L980 720 L973 687 L614 687 L549 383 L879 383 L872 350 L542 350 L475 33 L834 33 L827 0 L431 0 Q385 -10 334 -10 Z M336 23 Q395 23 438 35 L577 688 Q539 702 486 702 Q291 702 188 522 Q148 452 129 366 Q117 309 117 257 Q117 136 186 74 Q243 23 336 23 Z " />
<glyph glyph-name="oe" unicode="&#x153;" horiz-adv-x="995" d="M880 138 L918 138 Q884 63 814 21 Q752 -15 679 -15 Q593 -15 542 35 Q497 79 489 153 Q448 65 378 22 Q318 -15 245 -15 Q152 -15 101 43 Q56 95 56 182 Q56 255 83 329 Q116 418 176 471 Q249 535 353 535 Q435 535 483 488 Q526 445 532 369 Q574 455 645 498 Q705 535 776 535 Q866 535 916 480 Q962 429 962 340 Q962 297 952 251 L526 251 Q519 217 519 184 Q519 95 571 52 Q614 16 683 16 Q751 16 805 52 Q854 84 880 138 Z M350 505 Q211 505 140 368 Q93 279 93 181 Q93 95 140 51 Q180 15 247 15 Q340 15 407 85 Q469 149 493 260 Q502 305 502 342 Q502 427 455 470 Q416 505 350 505 Z M774 505 Q688 505 620 440 Q558 380 532 282 L920 282 Q925 317 925 340 Q925 426 877 469 Q838 505 774 505 Z " />
<glyph glyph-name="endash" unicode="&#x2013;" horiz-adv-x="540" d="M502 339 L494 305 L94 305 L102 339 L502 339 Z " />
<glyph glyph-name="emdash" unicode="&#x2014;" horiz-adv-x="600" d="M632 339 L624 305 L24 305 L32 339 L632 339 Z " />
<glyph glyph-name="quotedblleft" unicode="&#x201c;" horiz-adv-x="398" d="M302 521 L317 592 Q329 651 363 682 Q390 707 437 720 L431 689 Q398 677 380 653 Q362 629 353 585 L371 585 L358 521 L302 521 Z M177 521 L192 592 Q204 651 238 682 Q265 707 312 720 L306 689 Q273 677 255 653 Q237 629 228 585 L246 585 L233 521 L177 521 Z " />
<glyph glyph-name="quotedblright" unicode="&#x201d;" horiz-adv-x="395" d="M403 720 L388 649 Q376 590 342 559 Q315 534 268 521 L274 552 Q307 564 325 588 Q343 612 352 656 L334 656 L347 720 L403 720 Z M278 720 L263 649 Q251 590 217 559 Q190 534 143 521 L149 552 Q182 564 200 588 Q218 612 227 656 L209 656 L222 720 L278 720 Z " />
<glyph glyph-name="quoteleft" unicode="&#x2018;" horiz-adv-x="270" d="M174 521 L189 592 Q201 651 235 682 Q262 707 309 720 L303 689 Q270 677 252 653 Q234 629 225 585 L243 585 L230 521 L174 521 Z " />
<glyph glyph-name="quoteright" unicode="&#x2019;" horiz-adv-x="270" d="M278 720 L263 649 Q251 590 217 559 Q190 534 143 521 L149 552 Q182 564 200 588 Q218 612 227 656 L209 656 L222 720 L278 720 Z " />
<glyph glyph-name="divide" unicode="&#xf7;" horiz-adv-x="600" d="M298 64 L248 64 L262 128 L312 128 L298 64 Z M394 516 L344 516 L358 580 L408 580 L394 516 Z M532 339 L524 305 L124 305 L132 339 L532 339 Z " />
<glyph glyph-name="lozenge" unicode="&#x25ca;" horiz-adv-x="540" d="M477 355 L371 673 L123 349 L229 27 L477 355 Z M517 350 L249 0 L203 0 L83 350 L351 700 L397 700 L517 350 Z " />
<glyph glyph-name="ydieresis" unicode="&#xff;" horiz-adv-x="490" d="M540 520 L244 -3 Q170 -134 144 -162 Q114 -195 70 -195 Q43 -195 17 -183 L24 -154 Q48 -165 73 -165 Q103 -165 124.5 -138.5 Q146 -112 207 0 L193 0 L90 520 L126 520 L223 26 L501 520 L540 520 Z M274 663 L228 663 L241 720 L287 720 L274 663 Z M470 663 L424 663 L437 720 L483 720 L470 663 Z " />
<glyph glyph-name="Ydieresis" unicode="&#x178;" horiz-adv-x="620" d="M123 720 L161 720 L334 314 L682 720 L723 720 L347 281 L288 0 L251 0 L311 283 L123 720 Z M364 833 L318 833 L331 890 L377 890 L364 833 Z M560 833 L514 833 L527 890 L573 890 L560 833 Z " />
<glyph glyph-name="fraction" unicode="&#x2044;" horiz-adv-x="241" d="M-109 -93 L-149 -93 L447 787 L488 787 L-109 -93 Z " />
<glyph glyph-name="Euro" unicode="&#x20ac;" horiz-adv-x="600" d="M58 295 L126 295 Q132 350 149 410 L75 410 L89 442 L158 442 Q200 571 273 641 Q349 715 452 715 Q537 715 589 674 Q643 630 646 547 L609 547 Q608 622 556 657 Q516 683 453 683 Q350 683 279 600 Q228 540 196 442 L512 442 L498 410 L186 410 Q172 360 163 295 L441 295 L426 263 L160 263 Q157 229 157 203 Q157 17 311 17 Q382 17 436 48 Q497 82 527 153 L564 153 Q530 64 455 21 Q393 -15 309 -15 Q120 -15 120 204 Q120 242 122 263 L43 263 L58 295 Z " />
<glyph glyph-name="guilsinglleft" unicode="&#x2039;" horiz-adv-x="279" d="M153 90 L91 315 L250 520 L284 520 L134 313 L183 90 L153 90 Z " />
<glyph glyph-name="guilsinglright" unicode="&#x203a;" horiz-adv-x="279" d="M240 315 L88 90 L54 90 L197 313 L135 520 L165 520 L240 315 Z " />
<glyph glyph-name="fi" unicode="&#xfb01;" horiz-adv-x="545" d="M425 0 L389 0 L492 489 L206 489 L103 0 L67 0 L170 489 L93 489 L100 520 L177 520 L196 609 Q222 735 369 735 Q430 735 492 711 L483 682 Q420 705 366 705 Q252 705 231 605 L213 520 L535 520 L425 0 Z " />
<glyph glyph-name="fl" unicode="&#xfb02;" horiz-adv-x="545" d="M425 0 L389 0 L533 682 Q466 705 386 705 Q306 705 269 668 Q239 639 225 575 L213 520 L335 520 L328 489 L206 489 L103 0 L67 0 L170 489 L93 489 L100 520 L177 520 L190 579 Q208 663 254 699 Q301 735 389 735 Q453 735 541 712 L578 720 L425 0 Z " />
<glyph glyph-name="daggerdbl" unicode="&#x2021;" horiz-adv-x="600" d="M395 720 L431 720 L390 528 L592 528 L585 494 L383 494 L326 226 L528 226 L520 192 L318 192 L278 0 L242 0 L282 192 L80 192 L88 226 L290 226 L347 494 L145 494 L152 528 L354 528 L395 720 Z " />
<glyph glyph-name="periodcentered" unicode="&#xb7;" horiz-adv-x="278" d="M187 289 L133 289 L147 353 L201 353 L187 289 Z " />
<glyph glyph-name="quotesinglbase" unicode="&#x201a;" horiz-adv-x="270" d="M139 64 L124 -7 Q112 -66 78 -97 Q51 -122 4 -135 L10 -104 Q43 -92 61 -68 Q79 -44 88 0 L70 0 L83 64 L139 64 Z " />
<glyph glyph-name="quotedblbase" unicode="&#x201e;" horiz-adv-x="395" d="M264 64 L249 -7 Q237 -66 203 -97 Q176 -122 129 -135 L135 -104 Q168 -92 186 -68 Q204 -44 213 0 L195 0 L208 64 L264 64 Z M139 64 L124 -7 Q112 -66 78 -97 Q51 -122 4 -135 L10 -104 Q43 -92 61 -68 Q79 -44 88 0 L70 0 L83 64 L139 64 Z " />
<glyph glyph-name="perthousand" unicode="&#x2030;" horiz-adv-x="1194" d="M693 700 L235 0 L197 0 L655 700 L693 700 Z M299 686 Q229 686 190 632 Q157 588 157 522 Q157 460 194 430 Q223 406 270 406 Q331 406 372 450 Q413 494 413 568 Q413 631 376 662 Q346 686 299 686 Z M447 569 Q447 480 394 426 Q345 377 269 377 Q201 377 161 418 Q124 457 124 522 Q124 620 185 673 Q233 715 300 715 Q369 715 409 673 Q447 634 447 569 Z M620 294 Q550 294 511 240 Q478 196 478 130 Q478 68 515 38 Q544 14 591 14 Q652 14 693 58 Q734 102 734 176 Q734 239 697 269 Q667 294 620 294 Z M768 177 Q768 88 715 34 Q666 -15 590 -15 Q522 -15 482 26 Q445 65 445 130 Q445 228 506 281 Q554 323 621 323 Q690 323 730 281 Q768 242 768 177 Z M1000 294 Q930 294 891 240 Q858 196 858 130 Q858 68 895 38 Q924 14 971 14 Q1032 14 1073 58 Q1114 102 1114 176 Q1114 239 1077 269 Q1047 294 1000 294 Z M1148 177 Q1148 88 1095 34 Q1046 -15 970 -15 Q902 -15 862 26 Q825 65 825 130 Q825 228 886 281 Q934 323 1001 323 Q1070 323 1110 281 Q1148 242 1148 177 Z " />
<glyph glyph-name="Acircumflex" unicode="&#xc2;" horiz-adv-x="642" d="M592 0 L553 0 L514 213 L141 213 L11 0 L-30 0 L409 720 L460 720 L592 0 Z M429 686 L160 245 L509 245 L429 686 Z M491 905 L565 768 L531 768 L464 881 L350 768 L311 768 L444 905 L491 905 Z " />
<glyph glyph-name="Ecircumflex" unicode="&#xca;" horiz-adv-x="561" d="M513 383 L506 350 L156 350 L89 33 L468 33 L461 0 L45 0 L198 720 L614 720 L607 687 L228 687 L163 383 L513 383 Z M466 905 L540 768 L506 768 L439 881 L325 768 L286 768 L419 905 L466 905 Z " />
<glyph glyph-name="Aacute" unicode="&#xc1;" horiz-adv-x="642" d="M592 0 L553 0 L514 213 L141 213 L11 0 L-30 0 L409 720 L460 720 L592 0 Z M429 686 L160 245 L509 245 L429 686 Z M387 768 L519 905 L574 905 L423 768 L387 768 Z " />
<glyph glyph-name="Edieresis" unicode="&#xcb;" horiz-adv-x="561" d="M513 383 L506 350 L156 350 L89 33 L468 33 L461 0 L45 0 L198 720 L614 720 L607 687 L228 687 L163 383 L513 383 Z M340 833 L294 833 L307 890 L353 890 L340 833 Z M536 833 L490 833 L503 890 L549 890 L536 833 Z " />
<glyph glyph-name="Egrave" unicode="&#xc8;" horiz-adv-x="561" d="M513 383 L506 350 L156 350 L89 33 L468 33 L461 0 L45 0 L198 720 L614 720 L607 687 L228 687 L163 383 L513 383 Z M393 905 L467 768 L435 768 L342 905 L393 905 Z " />
<glyph glyph-name="Iacute" unicode="&#xcd;" horiz-adv-x="207" d="M198 720 L235 720 L82 0 L45 0 L198 720 Z M174 768 L306 905 L361 905 L210 768 L174 768 Z " />
<glyph glyph-name="Icircumflex" unicode="&#xce;" horiz-adv-x="207" d="M198 720 L235 720 L82 0 L45 0 L198 720 Z M273 905 L347 768 L313 768 L246 881 L132 768 L93 768 L226 905 L273 905 Z " />
<glyph glyph-name="Idieresis" unicode="&#xcf;" horiz-adv-x="207" d="M198 720 L235 720 L82 0 L45 0 L198 720 Z M155 833 L109 833 L122 890 L168 890 L155 833 Z M351 833 L305 833 L318 890 L364 890 L351 833 Z " />
<glyph glyph-name="Igrave" unicode="&#xcc;" horiz-adv-x="207" d="M198 720 L235 720 L82 0 L45 0 L198 720 Z M191 905 L265 768 L233 768 L140 905 L191 905 Z " />
<glyph glyph-name="Oacute" unicode="&#xd3;" horiz-adv-x="744" d="M481 702 Q287 702 186 519 Q147 448 129 362 Q117 306 117 255 Q117 134 185 71 Q242 18 335 18 Q527 18 630 201 Q669 272 687 358 Q699 415 699 465 Q699 586 630 649 Q573 702 481 702 Z M333 -15 Q211 -15 142 65 Q80 137 80 257 Q80 357 119 460 Q165 579 248 650 Q347 735 483 735 Q605 735 674 655 Q736 583 736 463 Q736 363 697 260 Q651 141 568 70 Q469 -15 333 -15 Z M443 768 L575 905 L630 905 L479 768 L443 768 Z " />
<glyph glyph-name="Ocircumflex" unicode="&#xd4;" horiz-adv-x="744" d="M481 702 Q287 702 186 519 Q147 448 129 362 Q117 306 117 255 Q117 134 185 71 Q242 18 335 18 Q527 18 630 201 Q669 272 687 358 Q699 415 699 465 Q699 586 630 649 Q573 702 481 702 Z M333 -15 Q211 -15 142 65 Q80 137 80 257 Q80 357 119 460 Q165 579 248 650 Q347 735 483 735 Q605 735 674 655 Q736 583 736 463 Q736 363 697 260 Q651 141 568 70 Q469 -15 333 -15 Z M544 905 L618 768 L584 768 L517 881 L403 768 L364 768 L497 905 L544 905 Z " />
<glyph glyph-name="Ograve" unicode="&#xd2;" horiz-adv-x="744" d="M481 702 Q287 702 186 519 Q147 448 129 362 Q117 306 117 255 Q117 134 185 71 Q242 18 335 18 Q527 18 630 201 Q669 272 687 358 Q699 415 699 465 Q699 586 630 649 Q573 702 481 702 Z M333 -15 Q211 -15 142 65 Q80 137 80 257 Q80 357 119 460 Q165 579 248 650 Q347 735 483 735 Q605 735 674 655 Q736 583 736 463 Q736 363 697 260 Q651 141 568 70 Q469 -15 333 -15 Z M449 905 L523 768 L491 768 L398 905 L449 905 Z " />
<glyph glyph-name="Uacute" unicode="&#xda;" horiz-adv-x="700" d="M310 -15 Q195 -15 133 51 Q84 105 84 186 Q84 213 90 240 L193 720 L229 720 L125 234 Q120 214 120 187 Q120 106 180 59 Q232 18 313 18 Q423 18 504 86 Q574 146 593 234 L697 720 L733 720 L628 230 Q604 117 511 49 Q425 -15 310 -15 Z M416 768 L548 905 L603 905 L452 768 L416 768 Z " />
<glyph glyph-name="Ucircumflex" unicode="&#xdb;" horiz-adv-x="700" d="M310 -15 Q195 -15 133 51 Q84 105 84 186 Q84 213 90 240 L193 720 L229 720 L125 234 Q120 214 120 187 Q120 106 180 59 Q232 18 313 18 Q423 18 504 86 Q574 146 593 234 L697 720 L733 720 L628 230 Q604 117 511 49 Q425 -15 310 -15 Z M524 905 L598 768 L564 768 L497 881 L383 768 L344 768 L477 905 L524 905 Z " />
<glyph glyph-name="Ugrave" unicode="&#xd9;" horiz-adv-x="700" d="M310 -15 Q195 -15 133 51 Q84 105 84 186 Q84 213 90 240 L193 720 L229 720 L125 234 Q120 214 120 187 Q120 106 180 59 Q232 18 313 18 Q423 18 504 86 Q574 146 593 234 L697 720 L733 720 L628 230 Q604 117 511 49 Q425 -15 310 -15 Z M448 905 L522 768 L490 768 L397 905 L448 905 Z " />
<glyph glyph-name="dotlessi" unicode="&#x131;" horiz-adv-x="192" d="M74 0 L38 0 L148 520 L184 520 L74 0 Z " />
<glyph glyph-name="circumflex" unicode="&#x2c6;" horiz-adv-x="310" d="M295 735 L369 598 L335 598 L268 711 L154 598 L115 598 L248 735 L295 735 Z " />
<glyph glyph-name="tilde" unicode="&#x2dc;" horiz-adv-x="314" d="M306 633 Q278 633 248 651 Q224 665 204 665 Q176 665 124 630 L132 669 Q177 698 209 698 Q237 698 267 680 Q291 666 311 666 Q340 666 392 701 L384 662 Q339 633 306 633 Z " />
<glyph glyph-name="overscore" unicode="&#xaf;" horiz-adv-x="290" d="M360 661 L130 661 L137 693 L367 693 L360 661 Z " />
<glyph glyph-name="breve" unicode="&#x2d8;" horiz-adv-x="316" d="M248 588 Q194 589 166 620 Q142 647 142 692 Q142 710 144 720 L175 720 Q173 709 173 695 Q173 617 249 617 Q292 617 323 644 Q354 671 367 720 L399 720 Q384 654 341 620 Q303 589 248 588 Z " />
<glyph glyph-name="dotaccent" unicode="&#x2d9;" horiz-adv-x="106" d="M176 663 L130 663 L143 720 L189 720 L176 663 Z " />
<glyph glyph-name="ring" unicode="&#x2da;" horiz-adv-x="290" d="M261 788 Q216 788 190 754 Q168 726 168 687 Q168 652 188 632 Q208 612 242 612 Q287 612 313 646 Q335 674 335 713 Q335 748 315 768 Q295 788 261 788 Z M241 585 Q191 585 161 616 Q136 644 136 685 Q136 740 172 778 Q207 815 262 815 Q312 815 342 784 Q367 756 367 715 Q367 660 331 622 Q296 585 241 585 Z " />
<glyph glyph-name="cedilla" unicode="&#xb8;" horiz-adv-x="281" d="M182 -131 Q182 -174 142 -207 Q104 -238 52 -238 Q5 -238 -20 -216 Q-43 -195 -43 -161 L-43 -156 L-11 -156 L-11 -160 Q-11 -209 59 -209 Q99 -209 126 -183 Q149 -161 149 -131 Q149 -77 47 -77 L74 15 L102 15 L87 -52 Q136 -57 162 -82 Q182 -102 182 -131 Z " />
<glyph glyph-name="hungarumlaut" unicode="&#x2dd;" horiz-adv-x="339" d="M117 598 L221 735 L272 735 L149 598 L117 598 Z M270 598 L374 735 L425 735 L302 598 L270 598 Z " />
<glyph glyph-name="ogonek" unicode="&#x2db;" horiz-adv-x="287" d="M149 -149 L185 -149 Q167 -188 130.5 -211.5 Q94 -235 52 -235 Q7 -235 -19 -211 Q-41 -189 -41 -156 Q-41 -96 22 -46 Q71 -5 148 19 L190 19 Q90 -20 43 -58 Q-8 -100 -8 -151 Q-8 -205 56 -205 Q118 -205 149 -149 Z " />
<glyph glyph-name="caron" unicode="&#x2c7;" horiz-adv-x="310" d="M218 598 L144 735 L178 735 L245 622 L359 735 L398 735 L265 598 L218 598 Z " />
<glyph glyph-name="CR" unicode="&#xd;" horiz-adv-x="300" d="" />
<glyph glyph-name="nbspace" unicode="&#xa0;" horiz-adv-x="300" d="" />
<glyph glyph-name="currency" unicode="&#xa4;" horiz-adv-x="600" d="M101 340 Q101 426 150 486 L85 551 L109 575 L173 510 Q238 569 324 569 Q411 569 475 509 L541 575 L565 551 L498 484 Q547 423 547 340 Q547 253 497 193 L565 125 L541 101 L473 168 Q408 111 324 111 Q240 111 175 167 L109 101 L85 125 L152 192 Q101 251 101 340 Z M137 340 Q137 248 199 191 Q252 143 325 143 Q408 143 462 205 Q511 260 511 340 Q511 432 449 489 Q396 537 325 537 Q241 537 186 475 Q137 420 137 340 Z " />
<glyph glyph-name="brokenbar" unicode="&#xa6;" horiz-adv-x="340" d="M165 245 L199 245 L117 -140 L83 -140 L165 245 Z M279 785 L313 785 L232 400 L199 400 L279 785 Z " />
<glyph glyph-name="uni00AD" unicode="&#xad;" horiz-adv-x="540" d="M472 339 L464 305 L124 305 L132 339 L472 339 Z " />
<glyph glyph-name="twosuperior" unicode="&#xb2;" horiz-adv-x="403" d="M156 628 L118 628 Q138 686 189 717 Q234 745 291 745 Q351 745 384 716 Q413 691 413 648 Q413 602 384.5 562.5 Q356 523 278 462 L106 327 L345 327 L338 294 L52 294 L59 327 L264 491 Q329 545 352 577.5 Q375 610 375 645 Q375 713 288 713 Q236 713 200 687 Q169 664 156 628 Z " />
<glyph glyph-name="threesuperior" unicode="&#xb3;" horiz-adv-x="423" d="M300 745 Q360 745 395 719 Q426 695 426 656 Q426 607 396 573 Q367 540 313 528 Q349 523 370.5 499.5 Q392 476 392 441 Q392 377 345 332 Q296 285 212 285 Q141 285 104 318 Q70 347 72 395 L110 395 Q112 316 212 316 Q287 316 326 362 Q354 395 354 439 Q354 473 330.5 492 Q307 511 264 511 L216 511 L223 543 L270 543 Q328 543 361 583 Q386 613 386 650 Q386 713 297 713 Q201 713 166 636 L130 636 Q172 745 300 745 Z " />
<glyph glyph-name="onesuperior" unicode="&#xb9;" horiz-adv-x="226" d="M257 735 L163 294 L125 294 L211 697 L94 640 L101 677 L221 735 L257 735 Z " />
<glyph glyph-name="onequarter" unicode="&#xbc;" horiz-adv-x="779" d="M130 -93 L90 -93 L686 787 L727 787 L130 -93 Z M271 735 L177 294 L139 294 L225 697 L108 640 L115 677 L235 735 L271 735 Z M769 441 L699 114 L769 114 L763 83 L693 83 L675 0 L641 0 L659 83 L444 83 L451 119 L730 441 L769 441 Z M724 389 L482 114 L665 114 L724 389 Z " />
<glyph glyph-name="onehalf" unicode="&#xbd;" horiz-adv-x="862" d="M130 -93 L90 -93 L686 787 L727 787 L130 -93 Z M271 735 L177 294 L139 294 L225 697 L108 640 L115 677 L235 735 L271 735 Z M595 334 L557 334 Q577 392 628 423 Q673 451 730 451 Q790 451 823 422 Q852 397 852 354 Q852 308 823.5 268.5 Q795 229 717 168 L545 33 L784 33 L777 0 L491 0 L498 33 L703 197 Q768 251 791 283.5 Q814 316 814 351 Q814 419 727 419 Q675 419 639 393 Q608 370 595 334 Z " />
<glyph glyph-name="threequarters" unicode="&#xbe;" horiz-adv-x="936" d="M289 -93 L249 -93 L845 787 L886 787 L289 -93 Z M321 745 Q381 745 416 719 Q447 695 447 656 Q447 607 417 573 Q388 540 334 528 Q370 523 391.5 499.5 Q413 476 413 441 Q413 377 366 332 Q317 285 233 285 Q162 285 125 318 Q91 347 93 395 L131 395 Q133 316 233 316 Q308 316 347 362 Q375 395 375 439 Q375 473 351.5 492 Q328 511 285 511 L237 511 L244 543 L291 543 Q349 543 382 583 Q407 613 407 650 Q407 713 318 713 Q222 713 187 636 L151 636 Q193 745 321 745 Z M928 441 L858 114 L928 114 L922 83 L852 83 L834 0 L800 0 L818 83 L603 83 L610 119 L889 441 L928 441 Z M883 389 L641 114 L824 114 L883 389 Z " />
<glyph glyph-name="Eth" unicode="&#xd0;" horiz-adv-x="674" d="M198 720 L382 720 Q521 720 597 641 Q665 570 665 453 Q665 341 617 240 Q566 133 475 70 Q374 0 240 0 L45 0 L122 362 L61 362 L68 395 L129 395 L198 720 Z M383 687 L228 687 L166 395 L403 395 L396 362 L159 362 L89 33 L246 33 Q442 33 550 197 Q593 263 613 344 Q627 400 627 452 Q627 573 551 635 Q487 687 383 687 Z " />
<glyph glyph-name="multiply" unicode="&#xd7;" horiz-adv-x="600" d="M203 452 L231 475 L332 344 L487 473 L508 447 L353 319 L452 192 L424 169 L324 299 L168 170 L148 196 L303 324 L203 452 Z " />
<glyph glyph-name="Yacute" unicode="&#xdd;" horiz-adv-x="620" d="M123 720 L161 720 L334 314 L682 720 L723 720 L347 281 L288 0 L251 0 L311 283 L123 720 Z M381 768 L513 905 L568 905 L417 768 L381 768 Z " />
<glyph glyph-name="Thorn" unicode="&#xde;" horiz-adv-x="624" d="M206 587 L411 587 Q517 587 570 535 Q616 491 616 416 Q616 291 523 216 Q442 151 324 151 L114 151 L82 0 L45 0 L198 720 L235 720 L206 587 Z M411 554 L200 554 L121 185 L327 185 Q446 185 517 259 Q578 322 578 415 Q578 486 529 522 Q486 554 411 554 Z " />
<glyph glyph-name="eth" unicode="&#xf0;" horiz-adv-x="536" d="M243 697 L256 725 Q348 707 413 658 L485 720 L528 720 L435 640 Q523 559 523 420 Q523 351 505.5 274.5 Q488 198 458 142 Q377 -15 222 -15 Q136 -15 90 43 Q52 92 52 170 Q52 250 85 321 Q118 392 176 434 Q237 478 312 478 Q395 478 441 428 Q476 390 480 335 Q488 379 488 425 Q488 551 412 620 L337 556 L294 556 L390 638 Q334 679 243 697 Z M223 18 Q345 18 414 134 Q460 212 460 289 Q460 361 420 405 Q381 446 315 446 Q205 446 140 347 Q89 270 89 169 Q89 95 128 55 Q163 18 223 18 Z " />
<glyph glyph-name="yacute" unicode="&#xfd;" horiz-adv-x="490" d="M540 520 L244 -3 Q170 -134 144 -162 Q114 -195 70 -195 Q43 -195 17 -183 L24 -154 Q48 -165 73 -165 Q103 -165 124.5 -138.5 Q146 -112 207 0 L193 0 L90 520 L126 520 L223 26 L501 520 L540 520 Z M282 598 L414 735 L469 735 L318 598 L282 598 Z " />
<glyph glyph-name="thorn" unicode="&#xfe;" horiz-adv-x="568" d="M258 15 Q386 15 458 155 Q507 252 507 352 Q507 433 463 472 Q426 505 364 505 Q243 505 171 380 Q116 286 116 173 Q116 90 160 49 Q197 15 258 15 Z M260 -15 Q191 -15 147 25 Q111 57 99 109 L37 -180 L1 -180 L193 720 L229 720 L163 413 Q203 473 258 505 Q311 535 372 535 Q457 535 502 483 Q543 435 543 351 Q543 272 515 193 Q482 102 423 48 Q354 -15 260 -15 Z " />
<glyph glyph-name="Amacron" unicode="&#x100;" horiz-adv-x="642" d="M592 0 L553 0 L514 213 L141 213 L11 0 L-30 0 L409 720 L460 720 L592 0 Z M429 686 L160 245 L509 245 L429 686 Z M566 831 L336 831 L343 863 L573 863 L566 831 Z " />
<glyph glyph-name="amacron" unicode="&#x101;" horiz-adv-x="520" d="M145 390 L109 390 Q131 460 196 500 Q254 535 329 535 Q406 535 449 497 Q487 462 487 406 Q487 385 483 368 L405 0 L376 0 L389 93 Q308 -15 183 -15 Q112 -15 71 20 Q33 51 33 103 Q33 194 110 243 Q166 279 271 296 L437 322 L448 375 Q451 392 451 406 Q451 455 414 482 Q381 505 325 505 Q256 505 204 468 Q161 437 145 390 Z M407 183 L431 292 L281 268 Q161 249 112 203 Q72 166 72 105 Q72 58 110 35 Q142 16 195 16 Q269 16 333 68 Q392 116 407 183 Z M472 661 L242 661 L249 693 L479 693 L472 661 Z " />
<glyph glyph-name="Abreve" unicode="&#x102;" horiz-adv-x="642" d="M592 0 L553 0 L514 213 L141 213 L11 0 L-30 0 L409 720 L460 720 L592 0 Z M429 686 L160 245 L509 245 L429 686 Z M442 758 Q388 759 360 790 Q336 817 336 862 Q336 880 338 890 L369 890 Q367 879 367 865 Q367 787 443 787 Q486 787 517 814 Q548 841 561 890 L593 890 Q578 824 535 790 Q497 759 442 758 Z " />
<glyph glyph-name="abreve" unicode="&#x103;" horiz-adv-x="520" d="M145 390 L109 390 Q131 460 196 500 Q254 535 329 535 Q406 535 449 497 Q487 462 487 406 Q487 385 483 368 L405 0 L376 0 L389 93 Q308 -15 183 -15 Q112 -15 71 20 Q33 51 33 103 Q33 194 110 243 Q166 279 271 296 L437 322 L448 375 Q451 392 451 406 Q451 455 414 482 Q381 505 325 505 Q256 505 204 468 Q161 437 145 390 Z M407 183 L431 292 L281 268 Q161 249 112 203 Q72 166 72 105 Q72 58 110 35 Q142 16 195 16 Q269 16 333 68 Q392 116 407 183 Z M344 588 Q290 589 262 620 Q238 647 238 692 Q238 710 240 720 L271 720 Q269 709 269 695 Q269 617 345 617 Q388 617 419 644 Q450 671 463 720 L495 720 Q480 654 437 620 Q399 589 344 588 Z " />
<glyph glyph-name="Aogonek" unicode="&#x104;" horiz-adv-x="642" d="M589 -149 L625 -149 Q607 -188 570.5 -211.5 Q534 -235 492 -235 Q447 -235 421 -211 Q399 -189 399 -156 Q399 -103 448 -57 Q488 -20 552 6 L514 213 L141 213 L11 0 L-30 0 L409 720 L460 720 L592 0 L584 0 Q432 -66 432 -151 Q432 -205 496 -205 Q558 -205 589 -149 Z M429 686 L160 245 L509 245 L429 686 Z " />
<glyph glyph-name="aogonek" unicode="&#x105;" horiz-adv-x="520" d="M404 -149 L440 -149 Q422 -188 385.5 -211.5 Q349 -235 307 -235 Q262 -235 236 -211 Q214 -189 214 -156 Q214 -101 267 -54 Q309 -16 377 10 L389 93 Q308 -15 183 -15 Q112 -15 71 20 Q33 51 33 103 Q33 194 110 243 Q166 279 271 296 L437 322 L448 375 Q451 392 451 406 Q451 455 414 482 Q381 505 325 505 Q256 505 204 468 Q161 437 145 390 L109 390 Q131 460 196 500 Q254 535 329 535 Q406 535 449 497 Q487 462 487 406 Q487 385 483 368 L405 0 L399 0 Q247 -66 247 -151 Q247 -205 311 -205 Q373 -205 404 -149 Z M407 183 L431 292 L281 268 Q161 249 112 203 Q72 166 72 105 Q72 58 110 35 Q142 16 195 16 Q269 16 333 68 Q392 116 407 183 Z " />
<glyph glyph-name="Cacute" unicode="&#x106;" horiz-adv-x="715" d="M339 -15 Q211 -15 140 70 Q79 144 79 261 Q79 359 120 462 Q167 580 251 651 Q351 735 486 735 Q608 735 671 675 Q732 618 732 509 L695 509 Q695 702 482 702 Q360 702 270 622 Q196 555 153 444 Q117 349 117 263 Q117 142 186 76 Q245 18 340 18 Q450 18 531 82 Q602 138 635 233 L672 233 Q635 114 538 46 Q450 -15 339 -15 Z M452 768 L584 905 L639 905 L488 768 L452 768 Z " />
<glyph glyph-name="cacute" unicode="&#x107;" horiz-adv-x="534" d="M438 147 L475 147 Q447 70 375 25 Q311 -15 235 -15 Q148 -15 99 41 Q55 92 55 178 Q55 261 88 341 Q123 427 185 478 Q255 535 346 535 Q433 535 481 487 Q521 446 521 380 L483 380 Q483 441 443 475 Q406 505 345 505 Q219 505 144 377 Q90 284 90 178 Q90 93 138 51 Q177 16 240 16 Q310 16 368 58 Q418 94 438 147 Z M337 598 L469 735 L524 735 L373 598 L337 598 Z " />
<glyph glyph-name="Ccircumflex" unicode="&#x108;" horiz-adv-x="715" d="M339 -15 Q211 -15 140 70 Q79 144 79 261 Q79 359 120 462 Q167 580 251 651 Q351 735 486 735 Q608 735 671 675 Q732 618 732 509 L695 509 Q695 702 482 702 Q360 702 270 622 Q196 555 153 444 Q117 349 117 263 Q117 142 186 76 Q245 18 340 18 Q450 18 531 82 Q602 138 635 233 L672 233 Q635 114 538 46 Q450 -15 339 -15 Z M535 905 L609 768 L575 768 L508 881 L394 768 L355 768 L488 905 L535 905 Z " />
<glyph glyph-name="ccircumflex" unicode="&#x109;" horiz-adv-x="534" d="M438 147 L475 147 Q447 70 375 25 Q311 -15 235 -15 Q148 -15 99 41 Q55 92 55 178 Q55 261 88 341 Q123 427 185 478 Q255 535 346 535 Q433 535 481 487 Q521 446 521 380 L483 380 Q483 441 443 475 Q406 505 345 505 Q219 505 144 377 Q90 284 90 178 Q90 93 138 51 Q177 16 240 16 Q310 16 368 58 Q418 94 438 147 Z M407 735 L481 598 L447 598 L380 711 L266 598 L227 598 L360 735 L407 735 Z " />
<glyph glyph-name="Cdotaccent" unicode="&#x10a;" horiz-adv-x="715" d="M339 -15 Q211 -15 140 70 Q79 144 79 261 Q79 359 120 462 Q167 580 251 651 Q351 735 486 735 Q608 735 671 675 Q732 618 732 509 L695 509 Q695 702 482 702 Q360 702 270 622 Q196 555 153 444 Q117 349 117 263 Q117 142 186 76 Q245 18 340 18 Q450 18 531 82 Q602 138 635 233 L672 233 Q635 114 538 46 Q450 -15 339 -15 Z M527 833 L481 833 L494 890 L540 890 L527 833 Z " />
<glyph glyph-name="cdotaccent" unicode="&#x10b;" horiz-adv-x="534" d="M438 147 L475 147 Q447 70 375 25 Q311 -15 235 -15 Q148 -15 99 41 Q55 92 55 178 Q55 261 88 341 Q123 427 185 478 Q255 535 346 535 Q433 535 481 487 Q521 446 521 380 L483 380 Q483 441 443 475 Q406 505 345 505 Q219 505 144 377 Q90 284 90 178 Q90 93 138 51 Q177 16 240 16 Q310 16 368 58 Q418 94 438 147 Z M397 663 L351 663 L364 720 L410 720 L397 663 Z " />
<glyph glyph-name="Ccaron" unicode="&#x10c;" horiz-adv-x="715" d="M339 -15 Q211 -15 140 70 Q79 144 79 261 Q79 359 120 462 Q167 580 251 651 Q351 735 486 735 Q608 735 671 675 Q732 618 732 509 L695 509 Q695 702 482 702 Q360 702 270 622 Q196 555 153 444 Q117 349 117 263 Q117 142 186 76 Q245 18 340 18 Q450 18 531 82 Q602 138 635 233 L672 233 Q635 114 538 46 Q450 -15 339 -15 Z M456 768 L382 905 L416 905 L483 792 L597 905 L636 905 L503 768 L456 768 Z " />
<glyph glyph-name="ccaron" unicode="&#x10d;" horiz-adv-x="534" d="M438 147 L475 147 Q447 70 375 25 Q311 -15 235 -15 Q148 -15 99 41 Q55 92 55 178 Q55 261 88 341 Q123 427 185 478 Q255 535 346 535 Q433 535 481 487 Q521 446 521 380 L483 380 Q483 441 443 475 Q406 505 345 505 Q219 505 144 377 Q90 284 90 178 Q90 93 138 51 Q177 16 240 16 Q310 16 368 58 Q418 94 438 147 Z M337 598 L263 735 L297 735 L364 622 L478 735 L517 735 L384 598 L337 598 Z " />
<glyph glyph-name="Dcaron" unicode="&#x10e;" horiz-adv-x="674" d="M198 720 L382 720 Q521 720 597 641 Q665 570 665 453 Q665 341 617 240 Q566 133 475 70 Q374 0 240 0 L45 0 L198 720 Z M383 687 L228 687 L89 33 L246 33 Q442 33 550 197 Q593 263 613 344 Q627 400 627 452 Q627 573 551 635 Q487 687 383 687 Z M382 768 L308 905 L342 905 L409 792 L523 905 L562 905 L429 768 L382 768 Z " />
<glyph glyph-name="dcaron" unicode="&#x10f;" horiz-adv-x="611" d="M448 0 L419 0 L436 107 Q356 -15 226 -15 Q144 -15 98 39 Q54 89 54 174 Q54 249 82 327 Q115 417 174 471 Q243 535 337 535 Q404 535 450 495 Q489 462 501 412 L565 720 L601 720 L448 0 Z M340 505 Q214 505 142 372 Q91 278 91 174 Q91 91 137 49 Q174 15 235 15 Q354 15 426 140 Q481 234 481 346 Q481 429 437 471 Q400 505 340 505 Z M714 720 L699 649 Q690 607 669.5 586 Q649 565 601 549 L606 573 Q632 584 645.5 602.5 Q659 621 666 656 L650 656 L664 720 L714 720 Z " />
<glyph glyph-name="Dcroat" unicode="&#x110;" horiz-adv-x="674" d="M198 720 L382 720 Q521 720 597 641 Q665 570 665 453 Q665 341 617 240 Q566 133 475 70 Q374 0 240 0 L45 0 L122 362 L61 362 L68 395 L129 395 L198 720 Z M383 687 L228 687 L166 395 L403 395 L396 362 L159 362 L89 33 L246 33 Q442 33 550 197 Q593 263 613 344 Q627 400 627 452 Q627 573 551 635 Q487 687 383 687 Z " />
<glyph glyph-name="dcroat" unicode="&#x111;" horiz-adv-x="568" d="M448 0 L419 0 L436 107 Q356 -15 226 -15 Q144 -15 98 39 Q54 89 54 174 Q54 249 82 327 Q115 417 174 471 Q243 535 337 535 Q404 535 450 495 Q489 462 501 412 L544 620 L358 620 L365 651 L550 651 L565 720 L601 720 L586 651 L636 651 L629 620 L579 620 L448 0 Z M340 505 Q214 505 142 372 Q91 278 91 174 Q91 91 137 49 Q174 15 235 15 Q354 15 426 140 Q481 234 481 346 Q481 429 437 471 Q400 505 340 505 Z " />
<glyph glyph-name="Emacron" unicode="&#x112;" horiz-adv-x="561" d="M513 383 L506 350 L156 350 L89 33 L468 33 L461 0 L45 0 L198 720 L614 720 L607 687 L228 687 L163 383 L513 383 Z M534 831 L304 831 L311 863 L541 863 L534 831 Z " />
<glyph glyph-name="emacron" unicode="&#x113;" horiz-adv-x="568" d="M454 138 L492 138 Q458 63 388 21 Q326 -15 253 -15 Q157 -15 104 45 Q57 98 57 187 Q57 267 89 343 Q124 428 186 478 Q256 535 350 535 Q440 535 490 480 Q536 429 536 340 Q536 297 526 251 L100 251 Q93 217 93 184 Q93 95 145 52 Q188 16 257 16 Q325 16 379 52 Q428 84 454 138 Z M348 505 Q262 505 194 440 Q132 380 106 282 L494 282 Q499 317 499 340 Q499 426 451 469 Q412 505 348 505 Z M495 661 L265 661 L272 693 L502 693 L495 661 Z " />
<glyph glyph-name="Ebreve" unicode="&#x114;" horiz-adv-x="561" d="M513 383 L506 350 L156 350 L89 33 L468 33 L461 0 L45 0 L198 720 L614 720 L607 687 L228 687 L163 383 L513 383 Z M413 758 Q359 759 331 790 Q307 817 307 862 Q307 880 309 890 L340 890 Q338 879 338 865 Q338 787 414 787 Q457 787 488 814 Q519 841 532 890 L564 890 Q549 824 506 790 Q468 759 413 758 Z " />
<glyph glyph-name="ebreve" unicode="&#x115;" horiz-adv-x="568" d="M454 138 L492 138 Q458 63 388 21 Q326 -15 253 -15 Q157 -15 104 45 Q57 98 57 187 Q57 267 89 343 Q124 428 186 478 Q256 535 350 535 Q440 535 490 480 Q536 429 536 340 Q536 297 526 251 L100 251 Q93 217 93 184 Q93 95 145 52 Q188 16 257 16 Q325 16 379 52 Q428 84 454 138 Z M348 505 Q262 505 194 440 Q132 380 106 282 L494 282 Q499 317 499 340 Q499 426 451 469 Q412 505 348 505 Z M371 588 Q317 589 289 620 Q265 647 265 692 Q265 710 267 720 L298 720 Q296 709 296 695 Q296 617 372 617 Q415 617 446 644 Q477 671 490 720 L522 720 Q507 654 464 620 Q426 589 371 588 Z " />
<glyph glyph-name="Edotaccent" unicode="&#x116;" horiz-adv-x="561" d="M513 383 L506 350 L156 350 L89 33 L468 33 L461 0 L45 0 L198 720 L614 720 L607 687 L228 687 L163 383 L513 383 Z M441 833 L395 833 L408 890 L454 890 L441 833 Z " />
<glyph glyph-name="edotaccent" unicode="&#x117;" horiz-adv-x="568" d="M454 138 L492 138 Q458 63 388 21 Q326 -15 253 -15 Q157 -15 104 45 Q57 98 57 187 Q57 267 89 343 Q124 428 186 478 Q256 535 350 535 Q440 535 490 480 Q536 429 536 340 Q536 297 526 251 L100 251 Q93 217 93 184 Q93 95 145 52 Q188 16 257 16 Q325 16 379 52 Q428 84 454 138 Z M348 505 Q262 505 194 440 Q132 380 106 282 L494 282 Q499 317 499 340 Q499 426 451 469 Q412 505 348 505 Z M402 663 L356 663 L369 720 L415 720 L402 663 Z " />
<glyph glyph-name="Eogonek" unicode="&#x118;" horiz-adv-x="561" d="M385 -149 L421 -149 Q403 -188 366.5 -211.5 Q330 -235 288 -235 Q243 -235 217 -211 Q195 -189 195 -156 Q195 -106 241 -62 Q278 -26 337 0 L45 0 L198 720 L614 720 L607 687 L228 687 L163 383 L513 383 L506 350 L156 350 L89 33 L468 33 L461 0 L380 0 Q228 -66 228 -151 Q228 -205 292 -205 Q354 -205 385 -149 Z " />
<glyph glyph-name="eogonek" unicode="&#x119;" horiz-adv-x="568" d="M343 -149 L379 -149 Q361 -188 324.5 -211.5 Q288 -235 246 -235 Q201 -235 175 -211 Q153 -189 153 -156 Q153 -75 262 -15 L253 -15 Q157 -15 104 45 Q57 98 57 187 Q57 267 89 343 Q124 428 186 478 Q256 535 350 535 Q440 535 490 480 Q536 429 536 340 Q536 297 526 251 L100 251 Q93 217 93 184 Q93 95 145 52 Q188 16 257 16 Q325 16 379 52 Q428 84 454 138 L492 138 Q447 39 328 -4 Q258 -29 221 -70 Q186 -107 186 -151 Q186 -205 250 -205 Q312 -205 343 -149 Z M348 505 Q262 505 194 440 Q132 380 106 282 L494 282 Q499 317 499 340 Q499 426 451 469 Q412 505 348 505 Z " />
<glyph glyph-name="Ecaron" unicode="&#x11a;" horiz-adv-x="561" d="M513 383 L506 350 L156 350 L89 33 L468 33 L461 0 L45 0 L198 720 L614 720 L607 687 L228 687 L163 383 L513 383 Z M386 768 L312 905 L346 905 L413 792 L527 905 L566 905 L433 768 L386 768 Z " />
<glyph glyph-name="ecaron" unicode="&#x11b;" horiz-adv-x="568" d="M454 138 L492 138 Q458 63 388 21 Q326 -15 253 -15 Q157 -15 104 45 Q57 98 57 187 Q57 267 89 343 Q124 428 186 478 Q256 535 350 535 Q440 535 490 480 Q536 429 536 340 Q536 297 526 251 L100 251 Q93 217 93 184 Q93 95 145 52 Q188 16 257 16 Q325 16 379 52 Q428 84 454 138 Z M348 505 Q262 505 194 440 Q132 380 106 282 L494 282 Q499 317 499 340 Q499 426 451 469 Q412 505 348 505 Z M348 598 L274 735 L308 735 L375 622 L489 735 L528 735 L395 598 L348 598 Z " />
<glyph glyph-name="Gcircumflex" unicode="&#x11c;" horiz-adv-x="728" d="M690 374 L611 0 L584 0 L606 127 Q556 53 481 17 Q415 -15 339 -15 Q218 -15 146 63 Q80 135 80 256 Q80 366 125 472 Q174 588 260 657 Q357 735 485 735 Q604 735 668 675 Q724 622 726 530 L688 530 Q686 620 623 665 Q571 702 482 702 Q368 702 280 630 Q202 566 158 458 Q117 360 117 258 Q117 136 190 71 Q249 18 341 18 Q449 18 534 88 Q609 149 628 235 L651 341 L408 341 L415 374 L690 374 Z M538 905 L612 768 L578 768 L511 881 L397 768 L358 768 L491 905 L538 905 Z " />
<glyph glyph-name="gcircumflex" unicode="&#x11d;" horiz-adv-x="568" d="M22 -54 L58 -54 Q58 -114 103 -142 Q140 -165 202 -165 Q287 -165 346 -114 Q397 -69 412 0 L440 130 Q363 20 235 20 Q154 20 105 75 Q60 125 60 207 Q60 276 89 348 Q121 429 179 478 Q247 535 337 535 Q404 535 450 497 Q489 465 501 415 L529 520 L558 520 L447 -5 Q427 -96 355 -148 Q290 -195 201 -195 Q111 -195 64 -154 Q22 -118 22 -54 Z M339 505 Q216 505 146 386 Q97 301 97 205 Q97 125 143 84 Q181 50 243 50 Q369 50 436 168 Q483 252 483 353 Q483 433 437 473 Q400 505 339 505 Z M417 735 L491 598 L457 598 L390 711 L276 598 L237 598 L370 735 L417 735 Z " />
<glyph glyph-name="Gbreve" unicode="&#x11e;" horiz-adv-x="728" d="M690 374 L611 0 L584 0 L606 127 Q556 53 481 17 Q415 -15 339 -15 Q218 -15 146 63 Q80 135 80 256 Q80 366 125 472 Q174 588 260 657 Q357 735 485 735 Q604 735 668 675 Q724 622 726 530 L688 530 Q686 620 623 665 Q571 702 482 702 Q368 702 280 630 Q202 566 158 458 Q117 360 117 258 Q117 136 190 71 Q249 18 341 18 Q449 18 534 88 Q609 149 628 235 L651 341 L408 341 L415 374 L690 374 Z M490 758 Q436 759 408 790 Q384 817 384 862 Q384 880 386 890 L417 890 Q415 879 415 865 Q415 787 491 787 Q534 787 565 814 Q596 841 609 890 L641 890 Q626 824 583 790 Q545 759 490 758 Z " />
<glyph glyph-name="gbreve" unicode="&#x11f;" horiz-adv-x="568" d="M22 -54 L58 -54 Q58 -114 103 -142 Q140 -165 202 -165 Q287 -165 346 -114 Q397 -69 412 0 L440 130 Q363 20 235 20 Q154 20 105 75 Q60 125 60 207 Q60 276 89 348 Q121 429 179 478 Q247 535 337 535 Q404 535 450 497 Q489 465 501 415 L529 520 L558 520 L447 -5 Q427 -96 355 -148 Q290 -195 201 -195 Q111 -195 64 -154 Q22 -118 22 -54 Z M339 505 Q216 505 146 386 Q97 301 97 205 Q97 125 143 84 Q181 50 243 50 Q369 50 436 168 Q483 252 483 353 Q483 433 437 473 Q400 505 339 505 Z M364 588 Q310 589 282 620 Q258 647 258 692 Q258 710 260 720 L291 720 Q289 709 289 695 Q289 617 365 617 Q408 617 439 644 Q470 671 483 720 L515 720 Q500 654 457 620 Q419 589 364 588 Z " />
<glyph glyph-name="Gdotaccent" unicode="&#x120;" horiz-adv-x="728" d="M690 374 L611 0 L584 0 L606 127 Q556 53 481 17 Q415 -15 339 -15 Q218 -15 146 63 Q80 135 80 256 Q80 366 125 472 Q174 588 260 657 Q357 735 485 735 Q604 735 668 675 Q724 622 726 530 L688 530 Q686 620 623 665 Q571 702 482 702 Q368 702 280 630 Q202 566 158 458 Q117 360 117 258 Q117 136 190 71 Q249 18 341 18 Q449 18 534 88 Q609 149 628 235 L651 341 L408 341 L415 374 L690 374 Z M521 833 L475 833 L488 890 L534 890 L521 833 Z " />
<glyph glyph-name="gdotaccent" unicode="&#x121;" horiz-adv-x="568" d="M22 -54 L58 -54 Q58 -114 103 -142 Q140 -165 202 -165 Q287 -165 346 -114 Q397 -69 412 0 L440 130 Q363 20 235 20 Q154 20 105 75 Q60 125 60 207 Q60 276 89 348 Q121 429 179 478 Q247 535 337 535 Q404 535 450 497 Q489 465 501 415 L529 520 L558 520 L447 -5 Q427 -96 355 -148 Q290 -195 201 -195 Q111 -195 64 -154 Q22 -118 22 -54 Z M339 505 Q216 505 146 386 Q97 301 97 205 Q97 125 143 84 Q181 50 243 50 Q369 50 436 168 Q483 252 483 353 Q483 433 437 473 Q400 505 339 505 Z M393 663 L347 663 L360 720 L406 720 L393 663 Z " />
<glyph glyph-name="Gcommaaccent" unicode="&#x122;" horiz-adv-x="728" d="M690 374 L611 0 L584 0 L606 127 Q556 53 481 17 Q415 -15 339 -15 Q218 -15 146 63 Q80 135 80 256 Q80 366 125 472 Q174 588 260 657 Q357 735 485 735 Q604 735 668 675 Q724 622 726 530 L688 530 Q686 620 623 665 Q571 702 482 702 Q368 702 280 630 Q202 566 158 458 Q117 360 117 258 Q117 136 190 71 Q249 18 341 18 Q449 18 534 88 Q609 149 628 235 L651 341 L408 341 L415 374 L690 374 Z M335 -97 L320 -168 Q311 -210 290.5 -231 Q270 -252 222 -268 L227 -244 Q253 -233 266.5 -214.5 Q280 -196 287 -161 L271 -161 L285 -97 L335 -97 Z " />
<glyph glyph-name="gcommaaccent" unicode="&#x123;" horiz-adv-x="568" d="M22 -54 L58 -54 Q58 -114 103 -142 Q140 -165 202 -165 Q287 -165 346 -114 Q397 -69 412 0 L440 130 Q363 20 235 20 Q154 20 105 75 Q60 125 60 207 Q60 276 89 348 Q121 429 179 478 Q247 535 337 535 Q404 535 450 497 Q489 465 501 415 L529 520 L558 520 L447 -5 Q427 -96 355 -148 Q290 -195 201 -195 Q111 -195 64 -154 Q22 -118 22 -54 Z M339 505 Q216 505 146 386 Q97 301 97 205 Q97 125 143 84 Q181 50 243 50 Q369 50 436 168 Q483 252 483 353 Q483 433 437 473 Q400 505 339 505 Z M325 610 L340 681 Q349 723 369.5 744 Q390 765 438 781 L433 757 Q407 746 393.5 727.5 Q380 709 373 674 L389 674 L375 610 L325 610 Z " />
<glyph glyph-name="Hcircumflex" unicode="&#x124;" horiz-adv-x="676" d="M667 720 L704 720 L551 0 L514 0 L588 351 L156 351 L82 0 L45 0 L198 720 L235 720 L163 385 L595 385 L667 720 Z M510 905 L584 768 L550 768 L483 881 L369 768 L330 768 L463 905 L510 905 Z " />
<glyph glyph-name="hcircumflex" unicode="&#x125;" horiz-adv-x="547" d="M76 0 L40 0 L193 720 L229 720 L165 422 Q204 480 261 510 Q310 535 363 535 Q437 535 478 495 Q513 460 513 403 Q513 385 508 360 L432 0 L396 0 L472 358 Q477 379 477 399 Q477 453 441 480 Q409 505 353 505 Q283 505 219 449 Q159 397 144 323 L76 0 Z M384 905 L458 768 L424 768 L357 881 L243 768 L204 768 L337 905 L384 905 Z " />
<glyph glyph-name="Hbar" unicode="&#x126;" horiz-adv-x="676" d="M198 720 L235 720 L210 605 L642 605 L667 720 L704 720 L679 605 L739 605 L733 574 L673 574 L551 0 L514 0 L588 351 L156 351 L82 0 L45 0 L167 574 L107 574 L113 605 L173 605 L198 720 Z M163 385 L595 385 L636 574 L204 574 L163 385 Z " />
<glyph glyph-name="hbar" unicode="&#x127;" horiz-adv-x="547" d="M76 0 L40 0 L171 620 L117 620 L124 651 L178 651 L193 720 L229 720 L214 651 L395 651 L388 620 L207 620 L165 422 Q204 480 261 510 Q310 535 363 535 Q437 535 478 495 Q513 460 513 403 Q513 385 508 360 L432 0 L396 0 L472 358 Q477 379 477 399 Q477 453 441 480 Q409 505 353 505 Q283 505 219 449 Q159 397 144 323 L76 0 Z " />
<glyph glyph-name="Itilde" unicode="&#x128;" horiz-adv-x="207" d="M198 720 L235 720 L82 0 L45 0 L198 720 Z M280 803 Q252 803 222 821 Q198 835 178 835 Q150 835 98 800 L106 839 Q151 868 183 868 Q211 868 241 850 Q265 836 285 836 Q314 836 366 871 L358 832 Q313 803 280 803 Z " />
<glyph glyph-name="itilde" unicode="&#x129;" horiz-adv-x="192" d="M74 0 L38 0 L148 520 L184 520 L74 0 Z M245 633 Q217 633 187 651 Q163 665 143 665 Q115 665 63 630 L71 669 Q116 698 148 698 Q176 698 206 680 Q230 666 250 666 Q279 666 331 701 L323 662 Q278 633 245 633 Z " />
<glyph glyph-name="Imacron" unicode="&#x12a;" horiz-adv-x="207" d="M198 720 L235 720 L82 0 L45 0 L198 720 Z M346 831 L116 831 L123 863 L353 863 L346 831 Z " />
<glyph glyph-name="imacron" unicode="&#x12b;" horiz-adv-x="192" d="M74 0 L38 0 L148 520 L184 520 L74 0 Z M311 661 L81 661 L88 693 L318 693 L311 661 Z " />
<glyph glyph-name="Ibreve" unicode="&#x12c;" horiz-adv-x="207" d="M198 720 L235 720 L82 0 L45 0 L198 720 Z M214 758 Q160 759 132 790 Q108 817 108 862 Q108 880 110 890 L141 890 Q139 879 139 865 Q139 787 215 787 Q258 787 289 814 Q320 841 333 890 L365 890 Q350 824 307 790 Q269 759 214 758 Z " />
<glyph glyph-name="ibreve" unicode="&#x12d;" horiz-adv-x="192" d="M74 0 L38 0 L148 520 L184 520 L74 0 Z M170 588 Q116 589 88 620 Q64 647 64 692 Q64 710 66 720 L97 720 Q95 709 95 695 Q95 617 171 617 Q214 617 245 644 Q276 671 289 720 L321 720 Q306 654 263 620 Q225 589 170 588 Z " />
<glyph glyph-name="Iogonek" unicode="&#x12e;" horiz-adv-x="207" d="M86 -149 L122 -149 Q104 -188 67.5 -211.5 Q31 -235 -11 -235 Q-56 -235 -82 -211 Q-104 -189 -104 -156 Q-104 -104 -55 -58 Q-17 -22 46 4 L198 720 L235 720 L82 0 L81 0 Q-71 -67 -71 -151 Q-71 -205 -7 -205 Q55 -205 86 -149 Z " />
<glyph glyph-name="iogonek" unicode="&#x12f;" horiz-adv-x="192" d="M79 -149 L115 -149 Q97 -188 60.5 -211.5 Q24 -235 -18 -235 Q-63 -235 -89 -211 Q-111 -189 -111 -156 Q-111 -104 -62 -58 Q-24 -22 39 4 L148 520 L184 520 L78 19 L120 19 Q20 -20 -27 -58 Q-78 -100 -78 -151 Q-78 -205 -14 -205 Q48 -205 79 -149 Z M219 663 L173 663 L186 720 L232 720 L219 663 Z " />
<glyph glyph-name="Idot" unicode="&#x130;" horiz-adv-x="207" d="M198 720 L235 720 L82 0 L45 0 L198 720 Z M260 833 L214 833 L227 890 L273 890 L260 833 Z " />
<glyph glyph-name="IJ" unicode="&#x132;" horiz-adv-x="724" d="M198 720 L235 720 L82 0 L45 0 L198 720 Z M241 186 L276 186 Q273 164 273 146 Q273 80 314 47 Q349 18 408 18 Q489 18 543 70 Q591 116 608 196 L720 720 L757 720 L644 192 Q622 89 554 34 Q493 -15 407 -15 Q321 -15 276 33 Q237 74 237 142 Q237 165 241 186 Z " />
<glyph glyph-name="ij" unicode="&#x133;" horiz-adv-x="384" d="M74 0 L38 0 L148 520 L184 520 L74 0 Z M219 663 L173 663 L186 720 L232 720 L219 663 Z M58 -179 L65 -149 Q99 -163 128 -163 Q195 -163 214 -75 L340 520 L376 520 L248 -82 Q223 -195 130 -195 Q90 -195 58 -179 Z M411 663 L365 663 L378 720 L424 720 L411 663 Z " />
<glyph glyph-name="Jcircumflex" unicode="&#x134;" horiz-adv-x="517" d="M34 186 L69 186 Q66 164 66 146 Q66 80 107 47 Q142 18 201 18 Q282 18 336 70 Q384 116 401 196 L513 720 L550 720 L437 192 Q415 89 347 34 Q286 -15 200 -15 Q114 -15 69 33 Q30 74 30 142 Q30 165 34 186 Z M581 905 L655 768 L621 768 L554 881 L440 768 L401 768 L534 905 L581 905 Z " />
<glyph glyph-name="jcircumflex" unicode="&#x135;" horiz-adv-x="192" d="M-134 -179 L-127 -149 Q-93 -163 -64 -163 Q3 -163 22 -75 L148 520 L184 520 L56 -82 Q31 -195 -62 -195 Q-102 -195 -134 -179 Z M220 735 L294 598 L260 598 L193 711 L79 598 L40 598 L173 735 L220 735 Z " />
<glyph glyph-name="Kcommaaccent" unicode="&#x136;" horiz-adv-x="580" d="M525 0 L478 0 L158 360 L82 0 L45 0 L198 720 L235 720 L162 379 L601 720 L649 720 L200 367 L525 0 Z M257 -97 L242 -168 Q233 -210 212.5 -231 Q192 -252 144 -268 L149 -244 Q175 -233 188.5 -214.5 Q202 -196 209 -161 L193 -161 L207 -97 L257 -97 Z " />
<glyph glyph-name="kcommaaccent" unicode="&#x137;" horiz-adv-x="474" d="M76 0 L40 0 L193 720 L229 720 L140 304 L452 520 L504 520 L173 290 L429 0 L382 0 L135 280 L76 0 Z M214 -97 L199 -168 Q190 -210 169.5 -231 Q149 -252 101 -268 L106 -244 Q132 -233 145.5 -214.5 Q159 -196 166 -161 L150 -161 L164 -97 L214 -97 Z " />
<glyph glyph-name="kgreenlandic" unicode="&#x138;" horiz-adv-x="474" d="M76 0 L40 0 L150 520 L186 520 L135 281 L459 520 L504 520 L171 273 L429 0 L381 0 L131 262 L76 0 Z " />
<glyph glyph-name="Lacute" unicode="&#x139;" horiz-adv-x="546" d="M198 720 L235 720 L89 33 L468 33 L461 0 L45 0 L198 720 Z M183 768 L315 905 L370 905 L219 768 L183 768 Z " />
<glyph glyph-name="lacute" unicode="&#x13a;" horiz-adv-x="196" d="M229 720 L76 0 L40 0 L193 720 L229 720 Z M178 768 L310 905 L365 905 L214 768 L178 768 Z " />
<glyph glyph-name="Lcommaaccent" unicode="&#x13b;" horiz-adv-x="546" d="M198 720 L235 720 L89 33 L468 33 L461 0 L45 0 L198 720 Z M248 -97 L233 -168 Q224 -210 203.5 -231 Q183 -252 135 -268 L140 -244 Q166 -233 179.5 -214.5 Q193 -196 200 -161 L184 -161 L198 -97 L248 -97 Z " />
<glyph glyph-name="lcommaaccent" unicode="&#x13c;" horiz-adv-x="196" d="M229 720 L76 0 L40 0 L193 720 L229 720 Z M64 -97 L49 -168 Q40 -210 19.5 -231 Q-1 -252 -49 -268 L-44 -244 Q-18 -233 -4.5 -214.5 Q9 -196 16 -161 L0 -161 L14 -97 L64 -97 Z " />
<glyph glyph-name="Lcaron" unicode="&#x13d;" horiz-adv-x="546" d="M198 720 L235 720 L89 33 L468 33 L461 0 L45 0 L198 720 Z M397 720 L382 649 Q373 607 352.5 586 Q332 565 284 549 L289 573 Q315 584 328.5 602.5 Q342 621 349 656 L333 656 L347 720 L397 720 Z " />
<glyph glyph-name="lcaron" unicode="&#x13e;" horiz-adv-x="196" d="M229 720 L76 0 L40 0 L193 720 L229 720 Z M345 720 L330 649 Q321 607 300.5 586 Q280 565 232 549 L237 573 Q263 584 276.5 602.5 Q290 621 297 656 L281 656 L295 720 L345 720 Z " />
<glyph glyph-name="Ldot" unicode="&#x13f;" horiz-adv-x="546" d="M198 720 L235 720 L89 33 L468 33 L461 0 L45 0 L198 720 Z M426 348 L380 348 L393 405 L439 405 L426 348 Z " />
<glyph glyph-name="ldot" unicode="&#x140;" horiz-adv-x="247" d="M229 720 L76 0 L40 0 L193 720 L229 720 Z M274 348 L228 348 L241 405 L287 405 L274 348 Z " />
<glyph glyph-name="Lslash" unicode="&#x141;" horiz-adv-x="546" d="M198 720 L235 720 L165 391 L341 486 L332 445 L156 350 L89 33 L468 33 L461 0 L45 0 L114 328 L45 291 L54 332 L123 369 L198 720 Z " />
<glyph glyph-name="lslash" unicode="&#x142;" horiz-adv-x="196" d="M229 720 L163 413 L251 462 L242 422 L155 373 L76 0 L40 0 L114 350 L26 301 L35 341 L122 390 L193 720 L229 720 Z " />
<glyph glyph-name="Nacute" unicode="&#x143;" horiz-adv-x="709" d="M702 720 L737 720 L584 0 L548 0 L222 668 L81 0 L45 0 L198 720 L236 720 L561 57 L702 720 Z M429 768 L561 905 L616 905 L465 768 L429 768 Z " />
<glyph glyph-name="nacute" unicode="&#x144;" horiz-adv-x="547" d="M353 505 Q283 505 219 450 Q159 398 144 324 L76 0 L40 0 L150 520 L180 520 L164 421 Q204 479 261 509 Q310 535 363 535 Q437 535 478 495 Q513 460 513 403 Q513 385 508 360 L432 0 L396 0 L472 358 Q477 379 477 399 Q477 453 441 480 Q409 505 353 505 Z M322 598 L454 735 L509 735 L358 598 L322 598 Z " />
<glyph glyph-name="Ncommaaccent" unicode="&#x145;" horiz-adv-x="709" d="M702 720 L737 720 L584 0 L548 0 L222 668 L81 0 L45 0 L198 720 L236 720 L561 57 L702 720 Z M325 -97 L310 -168 Q301 -210 280.5 -231 Q260 -252 212 -268 L217 -244 Q243 -233 256.5 -214.5 Q270 -196 277 -161 L261 -161 L275 -97 L325 -97 Z " />
<glyph glyph-name="ncommaaccent" unicode="&#x146;" horiz-adv-x="547" d="M353 505 Q283 505 219 450 Q159 398 144 324 L76 0 L40 0 L150 520 L180 520 L164 421 Q204 479 261 509 Q310 535 363 535 Q437 535 478 495 Q513 460 513 403 Q513 385 508 360 L432 0 L396 0 L472 358 Q477 379 477 399 Q477 453 441 480 Q409 505 353 505 Z M250 -97 L235 -168 Q226 -210 205.5 -231 Q185 -252 137 -268 L142 -244 Q168 -233 181.5 -214.5 Q195 -196 202 -161 L186 -161 L200 -97 L250 -97 Z " />
<glyph glyph-name="Ncaron" unicode="&#x147;" horiz-adv-x="709" d="M702 720 L737 720 L584 0 L548 0 L222 668 L81 0 L45 0 L198 720 L236 720 L561 57 L702 720 Z M456 768 L382 905 L416 905 L483 792 L597 905 L636 905 L503 768 L456 768 Z " />
<glyph glyph-name="ncaron" unicode="&#x148;" horiz-adv-x="547" d="M353 505 Q283 505 219 450 Q159 398 144 324 L76 0 L40 0 L150 520 L180 520 L164 421 Q204 479 261 509 Q310 535 363 535 Q437 535 478 495 Q513 460 513 403 Q513 385 508 360 L432 0 L396 0 L472 358 Q477 379 477 399 Q477 453 441 480 Q409 505 353 505 Z M345 598 L271 735 L305 735 L372 622 L486 735 L525 735 L392 598 L345 598 Z " />
<glyph glyph-name="napostrophe" unicode="&#x149;" horiz-adv-x="547" d="M353 505 Q283 505 219 450 Q159 398 144 324 L76 0 L40 0 L150 520 L180 520 L164 421 Q204 479 261 509 Q310 535 363 535 Q437 535 478 495 Q513 460 513 403 Q513 385 508 360 L432 0 L396 0 L472 358 Q477 379 477 399 Q477 453 441 480 Q409 505 353 505 Z M184 720 L169 649 Q160 607 139.5 586 Q119 565 71 549 L76 573 Q102 584 115.5 602.5 Q129 621 136 656 L120 656 L134 720 L184 720 Z " />
<glyph glyph-name="Eng" unicode="&#x14a;" horiz-adv-x="709" d="M377 -179 L384 -149 Q418 -163 447 -163 Q515 -163 533 -75 L548 0 L222 668 L81 0 L45 0 L198 720 L236 720 L561 57 L702 720 L737 720 L567 -82 Q542 -195 449 -195 Q409 -195 377 -179 Z " />
<glyph glyph-name="eng" unicode="&#x14b;" horiz-adv-x="547" d="M508 360 L414 -82 Q389 -195 296 -195 Q256 -195 224 -179 L231 -149 Q265 -163 294 -163 Q361 -163 380 -75 L472 358 Q477 379 477 399 Q477 453 441 480 Q409 505 353 505 Q283 505 219 450 Q159 398 144 324 L76 0 L40 0 L150 520 L180 520 L164 421 Q204 479 261 509 Q310 535 363 535 Q437 535 478 495 Q513 460 513 403 Q513 385 508 360 Z " />
<glyph glyph-name="Omacron" unicode="&#x14c;" horiz-adv-x="744" d="M481 702 Q287 702 186 519 Q147 448 129 362 Q117 306 117 255 Q117 134 185 71 Q242 18 335 18 Q527 18 630 201 Q669 272 687 358 Q699 415 699 465 Q699 586 630 649 Q573 702 481 702 Z M333 -15 Q211 -15 142 65 Q80 137 80 257 Q80 357 119 460 Q165 579 248 650 Q347 735 483 735 Q605 735 674 655 Q736 583 736 463 Q736 363 697 260 Q651 141 568 70 Q469 -15 333 -15 Z M621 831 L391 831 L398 863 L628 863 L621 831 Z " />
<glyph glyph-name="omacron" unicode="&#x14d;" horiz-adv-x="565" d="M247 15 Q383 15 455 152 Q503 243 503 339 Q503 426 457 469 Q417 505 350 505 Q211 505 140 368 Q93 279 93 181 Q93 95 140 51 Q180 15 247 15 Z M245 -15 Q152 -15 101 43 Q56 95 56 182 Q56 255 83 329 Q116 418 176 471 Q249 535 353 535 Q446 535 496 477 Q540 425 540 338 Q540 266 512 191 Q480 102 419 49 Q347 -15 245 -15 Z M497 661 L267 661 L274 693 L504 693 L497 661 Z " />
<glyph glyph-name="Obreve" unicode="&#x14e;" horiz-adv-x="744" d="M481 702 Q287 702 186 519 Q147 448 129 362 Q117 306 117 255 Q117 134 185 71 Q242 18 335 18 Q527 18 630 201 Q669 272 687 358 Q699 415 699 465 Q699 586 630 649 Q573 702 481 702 Z M333 -15 Q211 -15 142 65 Q80 137 80 257 Q80 357 119 460 Q165 579 248 650 Q347 735 483 735 Q605 735 674 655 Q736 583 736 463 Q736 363 697 260 Q651 141 568 70 Q469 -15 333 -15 Z M499 758 Q445 759 417 790 Q393 817 393 862 Q393 880 395 890 L426 890 Q424 879 424 865 Q424 787 500 787 Q543 787 574 814 Q605 841 618 890 L650 890 Q635 824 592 790 Q554 759 499 758 Z " />
<glyph glyph-name="obreve" unicode="&#x14f;" horiz-adv-x="565" d="M247 15 Q383 15 455 152 Q503 243 503 339 Q503 426 457 469 Q417 505 350 505 Q211 505 140 368 Q93 279 93 181 Q93 95 140 51 Q180 15 247 15 Z M245 -15 Q152 -15 101 43 Q56 95 56 182 Q56 255 83 329 Q116 418 176 471 Q249 535 353 535 Q446 535 496 477 Q540 425 540 338 Q540 266 512 191 Q480 102 419 49 Q347 -15 245 -15 Z M367 588 Q313 589 285 620 Q261 647 261 692 Q261 710 263 720 L294 720 Q292 709 292 695 Q292 617 368 617 Q411 617 442 644 Q473 671 486 720 L518 720 Q503 654 460 620 Q422 589 367 588 Z " />
<glyph glyph-name="Ohungarumlaut" unicode="&#x150;" horiz-adv-x="744" d="M481 702 Q287 702 186 519 Q147 448 129 362 Q117 306 117 255 Q117 134 185 71 Q242 18 335 18 Q527 18 630 201 Q669 272 687 358 Q699 415 699 465 Q699 586 630 649 Q573 702 481 702 Z M333 -15 Q211 -15 142 65 Q80 137 80 257 Q80 357 119 460 Q165 579 248 650 Q347 735 483 735 Q605 735 674 655 Q736 583 736 463 Q736 363 697 260 Q651 141 568 70 Q469 -15 333 -15 Z M394 768 L498 905 L549 905 L426 768 L394 768 Z M547 768 L651 905 L702 905 L579 768 L547 768 Z " />
<glyph glyph-name="ohungarumlaut" unicode="&#x151;" horiz-adv-x="565" d="M247 15 Q383 15 455 152 Q503 243 503 339 Q503 426 457 469 Q417 505 350 505 Q211 505 140 368 Q93 279 93 181 Q93 95 140 51 Q180 15 247 15 Z M245 -15 Q152 -15 101 43 Q56 95 56 182 Q56 255 83 329 Q116 418 176 471 Q249 535 353 535 Q446 535 496 477 Q540 425 540 338 Q540 266 512 191 Q480 102 419 49 Q347 -15 245 -15 Z M275 598 L379 735 L430 735 L307 598 L275 598 Z M428 598 L532 735 L583 735 L460 598 L428 598 Z " />
<glyph glyph-name="Racute" unicode="&#x154;" horiz-adv-x="619" d="M559 0 L516 0 L376 305 L146 305 L82 0 L45 0 L198 720 L445 720 Q550 720 603 670 Q648 628 648 556 Q648 454 576 386 Q515 329 416 309 L559 0 Z M445 687 L228 687 L153 338 L362 338 Q478 338 549 409 Q609 470 609 556 Q609 623 562 657 Q520 687 445 687 Z M373 768 L505 905 L560 905 L409 768 L373 768 Z " />
<glyph glyph-name="racute" unicode="&#x155;" horiz-adv-x="334" d="M76 0 L40 0 L150 520 L179 520 L162 410 Q227 535 336 535 Q360 535 391 526 L383 491 Q355 501 330 501 Q264 501 207 436 Q156 378 138 294 L76 0 Z M248 598 L380 735 L435 735 L284 598 L248 598 Z " />
<glyph glyph-name="Rcommaaccent" unicode="&#x156;" horiz-adv-x="619" d="M559 0 L516 0 L376 305 L146 305 L82 0 L45 0 L198 720 L445 720 Q550 720 603 670 Q648 628 648 556 Q648 454 576 386 Q515 329 416 309 L559 0 Z M445 687 L228 687 L153 338 L362 338 Q478 338 549 409 Q609 470 609 556 Q609 623 562 657 Q520 687 445 687 Z M267 -97 L252 -168 Q243 -210 222.5 -231 Q202 -252 154 -268 L159 -244 Q185 -233 198.5 -214.5 Q212 -196 219 -161 L203 -161 L217 -97 L267 -97 Z " />
<glyph glyph-name="rcommaaccent" unicode="&#x157;" horiz-adv-x="334" d="M76 0 L40 0 L150 520 L179 520 L162 410 Q227 535 336 535 Q360 535 391 526 L383 491 Q355 501 330 501 Q264 501 207 436 Q156 378 138 294 L76 0 Z M67 -97 L52 -168 Q43 -210 22.5 -231 Q2 -252 -46 -268 L-41 -244 Q-15 -233 -1.5 -214.5 Q12 -196 19 -161 L3 -161 L17 -97 L67 -97 Z " />
<glyph glyph-name="Rcaron" unicode="&#x158;" horiz-adv-x="619" d="M559 0 L516 0 L376 305 L146 305 L82 0 L45 0 L198 720 L445 720 Q550 720 603 670 Q648 628 648 556 Q648 454 576 386 Q515 329 416 309 L559 0 Z M445 687 L228 687 L153 338 L362 338 Q478 338 549 409 Q609 470 609 556 Q609 623 562 657 Q520 687 445 687 Z M377 768 L303 905 L337 905 L404 792 L518 905 L557 905 L424 768 L377 768 Z " />
<glyph glyph-name="rcaron" unicode="&#x159;" horiz-adv-x="334" d="M76 0 L40 0 L150 520 L179 520 L162 410 Q227 535 336 535 Q360 535 391 526 L383 491 Q355 501 330 501 Q264 501 207 436 Q156 378 138 294 L76 0 Z M253 598 L179 735 L213 735 L280 622 L394 735 L433 735 L300 598 L253 598 Z " />
<glyph glyph-name="Sacute" unicode="&#x15a;" horiz-adv-x="643" d="M286 19 Q417 19 488 82 Q550 137 550 223 Q550 281 497 314 Q450 344 340 367 Q153 405 153 525 Q153 626 235 683 Q309 735 432 735 Q543 735 605 683 Q661 637 662 562 L624 562 Q621 633 566 669 Q516 702 431 702 Q306 702 242 644 Q190 598 190 524 Q190 472 236 443 Q277 416 371 396 Q494 370 544 325 Q588 285 588 222 Q588 110 497 44 Q415 -15 283 -15 Q163 -15 100 41 Q44 90 44 176 L81 176 Q81 92 143 52 Q195 19 286 19 Z M400 768 L532 905 L587 905 L436 768 L400 768 Z " />
<glyph glyph-name="sacute" unicode="&#x15b;" horiz-adv-x="491" d="M207 16 Q291 16 345 59 Q394 99 394 160 Q394 205 351 228 Q316 247 237 259 Q168 270 131 304 Q98 335 98 381 Q98 453 158 496 Q214 535 307 535 Q392 535 438 491 Q478 454 478 395 L442 395 L442 405 Q442 452 401 480 Q364 505 302 505 Q213 505 169 462 Q135 429 135 379 Q135 342 165.5 321 Q196 300 269 288 Q433 261 433 161 Q433 83 368 33 Q305 -15 205 -15 Q118 -15 70 28 Q30 63 30 117 Q30 124 31 133 L67 133 Q66 126 66 119 Q66 69 107 41 Q145 16 207 16 Z M297 598 L429 735 L484 735 L333 598 L297 598 Z " />
<glyph glyph-name="Scircumflex" unicode="&#x15c;" horiz-adv-x="643" d="M286 19 Q417 19 488 82 Q550 137 550 223 Q550 281 497 314 Q450 344 340 367 Q153 405 153 525 Q153 626 235 683 Q309 735 432 735 Q543 735 605 683 Q661 637 662 562 L624 562 Q621 633 566 669 Q516 702 431 702 Q306 702 242 644 Q190 598 190 524 Q190 472 236 443 Q277 416 371 396 Q494 370 544 325 Q588 285 588 222 Q588 110 497 44 Q415 -15 283 -15 Q163 -15 100 41 Q44 90 44 176 L81 176 Q81 92 143 52 Q195 19 286 19 Z M490 905 L564 768 L530 768 L463 881 L349 768 L310 768 L443 905 L490 905 Z " />
<glyph glyph-name="scircumflex" unicode="&#x15d;" horiz-adv-x="491" d="M207 16 Q291 16 345 59 Q394 99 394 160 Q394 205 351 228 Q316 247 237 259 Q168 270 131 304 Q98 335 98 381 Q98 453 158 496 Q214 535 307 535 Q392 535 438 491 Q478 454 478 395 L442 395 L442 405 Q442 452 401 480 Q364 505 302 505 Q213 505 169 462 Q135 429 135 379 Q135 342 165.5 321 Q196 300 269 288 Q433 261 433 161 Q433 83 368 33 Q305 -15 205 -15 Q118 -15 70 28 Q30 63 30 117 Q30 124 31 133 L67 133 Q66 126 66 119 Q66 69 107 41 Q145 16 207 16 Z M377 735 L451 598 L417 598 L350 711 L236 598 L197 598 L330 735 L377 735 Z " />
<glyph glyph-name="Scedilla" unicode="&#x15e;" horiz-adv-x="643" d="M397 -131 Q397 -174 357 -207 Q319 -238 267 -238 Q220 -238 195 -216 Q172 -195 172 -161 L172 -156 L204 -156 L204 -160 Q204 -209 274 -209 Q314 -209 341 -183 Q364 -161 364 -131 Q364 -77 262 -77 L280 -15 Q161 -14 99 41 Q44 91 44 176 L81 176 Q81 92 143 52 Q195 19 286 19 Q417 19 488 82 Q550 137 550 223 Q550 281 497 314 Q450 344 340 367 Q153 405 153 525 Q153 626 235 683 Q309 735 432 735 Q543 735 605 683 Q661 637 662 562 L624 562 Q621 633 566 669 Q516 702 431 702 Q306 702 242 644 Q190 598 190 524 Q190 472 236 443 Q277 416 371 396 Q494 370 544 325 Q588 285 588 222 Q588 115 505 51 Q431 -8 310 -14 L302 -52 Q351 -57 377 -82 Q397 -102 397 -131 Z " />
<glyph glyph-name="scedilla" unicode="&#x15f;" horiz-adv-x="491" d="M313 -131 Q313 -174 273 -207 Q235 -238 183 -238 Q136 -238 111 -216 Q88 -195 88 -161 L88 -156 L120 -156 L120 -160 Q120 -209 190 -209 Q230 -209 257 -183 Q280 -161 280 -131 Q280 -77 178 -77 L196 -15 Q113 -13 67 30 Q30 65 30 117 Q30 124 31 133 L67 133 Q66 126 66 119 Q66 69 107 41 Q145 16 207 16 Q291 16 345 59 Q394 99 394 160 Q394 205 351 228 Q316 247 237 259 Q168 270 131 304 Q98 335 98 381 Q98 453 158 496 Q214 535 307 535 Q392 535 438 491 Q478 454 478 395 L442 395 L442 405 Q442 452 401 480 Q364 505 302 505 Q213 505 169 462 Q135 429 135 379 Q135 342 165.5 321 Q196 300 269 288 Q433 261 433 161 Q433 87 374 38 Q318 -9 226 -14 L218 -52 Q267 -57 293 -82 Q313 -102 313 -131 Z " />
<glyph glyph-name="Scaron" unicode="&#x160;" horiz-adv-x="643" d="M286 19 Q417 19 488 82 Q550 137 550 223 Q550 281 497 314 Q450 344 340 367 Q153 405 153 525 Q153 626 235 683 Q309 735 432 735 Q543 735 605 683 Q661 637 662 562 L624 562 Q621 633 566 669 Q516 702 431 702 Q306 702 242 644 Q190 598 190 524 Q190 472 236 443 Q277 416 371 396 Q494 370 544 325 Q588 285 588 222 Q588 110 497 44 Q415 -15 283 -15 Q163 -15 100 41 Q44 90 44 176 L81 176 Q81 92 143 52 Q195 19 286 19 Z M412 768 L338 905 L372 905 L439 792 L553 905 L592 905 L459 768 L412 768 Z " />
<glyph glyph-name="scaron" unicode="&#x161;" horiz-adv-x="491" d="M207 16 Q291 16 345 59 Q394 99 394 160 Q394 205 351 228 Q316 247 237 259 Q168 270 131 304 Q98 335 98 381 Q98 453 158 496 Q214 535 307 535 Q392 535 438 491 Q478 454 478 395 L442 395 L442 405 Q442 452 401 480 Q364 505 302 505 Q213 505 169 462 Q135 429 135 379 Q135 342 165.5 321 Q196 300 269 288 Q433 261 433 161 Q433 83 368 33 Q305 -15 205 -15 Q118 -15 70 28 Q30 63 30 117 Q30 124 31 133 L67 133 Q66 126 66 119 Q66 69 107 41 Q145 16 207 16 Z M303 598 L229 735 L263 735 L330 622 L444 735 L483 735 L350 598 L303 598 Z " />
<glyph glyph-name="Tcommaaccent" unicode="&#x162;" horiz-adv-x="563" d="M656 720 L649 687 L406 687 L260 0 L223 0 L369 687 L126 687 L133 720 L656 720 Z M252 -97 L237 -168 Q228 -210 207.5 -231 Q187 -252 139 -268 L144 -244 Q170 -233 183.5 -214.5 Q197 -196 204 -161 L188 -161 L202 -97 L252 -97 Z " />
<glyph glyph-name="tcommaaccent" unicode="&#x163;" horiz-adv-x="294" d="M323 489 L199 489 L116 95 Q112 75 112 66 Q112 15 173 15 Q200 15 239 27 L232 -4 Q197 -15 167 -15 Q76 -15 76 63 Q76 80 80 96 L163 489 L88 489 L95 520 L170 520 L201 645 L233 645 L206 520 L330 520 L323 489 Z M134 -97 L119 -168 Q110 -210 89.5 -231 Q69 -252 21 -268 L26 -244 Q52 -233 65.5 -214.5 Q79 -196 86 -161 L70 -161 L84 -97 L134 -97 Z " />
<glyph glyph-name="Tcaron" unicode="&#x164;" horiz-adv-x="563" d="M656 720 L649 687 L406 687 L260 0 L223 0 L369 687 L126 687 L133 720 L656 720 Z M374 768 L300 905 L334 905 L401 792 L515 905 L554 905 L421 768 L374 768 Z " />
<glyph glyph-name="tcaron" unicode="&#x165;" horiz-adv-x="321" d="M323 489 L199 489 L116 95 Q112 75 112 66 Q112 15 173 15 Q200 15 239 27 L232 -4 Q197 -15 167 -15 Q76 -15 76 63 Q76 80 80 96 L163 489 L88 489 L95 520 L170 520 L201 645 L233 645 L206 520 L330 520 L323 489 Z M424 720 L409 649 Q400 607 379.5 586 Q359 565 311 549 L316 573 Q342 584 355.5 602.5 Q369 621 376 656 L360 656 L374 720 L424 720 Z " />
<glyph glyph-name="Tbar" unicode="&#x166;" horiz-adv-x="563" d="M656 720 L649 687 L406 687 L350 425 L474 425 L467 392 L343 392 L260 0 L223 0 L306 392 L182 392 L189 425 L313 425 L369 687 L126 687 L133 720 L656 720 Z " />
<glyph glyph-name="tbar" unicode="&#x167;" horiz-adv-x="294" d="M323 489 L199 489 L176 381 L291 381 L284 350 L169 350 L116 95 Q112 75 112 66 Q112 15 173 15 Q200 15 239 27 L232 -4 Q197 -15 167 -15 Q76 -15 76 63 Q76 80 80 96 L133 350 L66 350 L73 381 L140 381 L163 489 L88 489 L95 520 L170 520 L201 645 L233 645 L206 520 L330 520 L323 489 Z " />
<glyph glyph-name="Utilde" unicode="&#x168;" horiz-adv-x="700" d="M310 -15 Q195 -15 133 51 Q84 105 84 186 Q84 213 90 240 L193 720 L229 720 L125 234 Q120 214 120 187 Q120 106 180 59 Q232 18 313 18 Q423 18 504 86 Q574 146 593 234 L697 720 L733 720 L628 230 Q604 117 511 49 Q425 -15 310 -15 Z M529 803 Q501 803 471 821 Q447 835 427 835 Q399 835 347 800 L355 839 Q400 868 432 868 Q460 868 490 850 Q514 836 534 836 Q563 836 615 871 L607 832 Q562 803 529 803 Z " />
<glyph glyph-name="utilde" unicode="&#x169;" horiz-adv-x="542" d="M145 520 L181 520 L107 173 Q100 146 100 119 Q100 15 222 15 Q297 15 359 75 Q412 126 428 200 L496 520 L532 520 L422 0 L392 0 L406 93 Q366 36 307 7 Q260 -15 211 -15 Q139 -15 100 22 Q64 56 64 115 Q64 141 69 162 L145 520 Z M413 633 Q385 633 355 651 Q331 665 311 665 Q283 665 231 630 L239 669 Q284 698 316 698 Q344 698 374 680 Q398 666 418 666 Q447 666 499 701 L491 662 Q446 633 413 633 Z " />
<glyph glyph-name="Umacron" unicode="&#x16a;" horiz-adv-x="700" d="M310 -15 Q195 -15 133 51 Q84 105 84 186 Q84 213 90 240 L193 720 L229 720 L125 234 Q120 214 120 187 Q120 106 180 59 Q232 18 313 18 Q423 18 504 86 Q574 146 593 234 L697 720 L733 720 L628 230 Q604 117 511 49 Q425 -15 310 -15 Z M595 831 L365 831 L372 863 L602 863 L595 831 Z " />
<glyph glyph-name="umacron" unicode="&#x16b;" horiz-adv-x="542" d="M145 520 L181 520 L107 173 Q100 146 100 119 Q100 15 222 15 Q297 15 359 75 Q412 126 428 200 L496 520 L532 520 L422 0 L392 0 L406 93 Q366 36 307 7 Q260 -15 211 -15 Q139 -15 100 22 Q64 56 64 115 Q64 141 69 162 L145 520 Z M478 661 L248 661 L255 693 L485 693 L478 661 Z " />
<glyph glyph-name="Ubreve" unicode="&#x16c;" horiz-adv-x="700" d="M310 -15 Q195 -15 133 51 Q84 105 84 186 Q84 213 90 240 L193 720 L229 720 L125 234 Q120 214 120 187 Q120 106 180 59 Q232 18 313 18 Q423 18 504 86 Q574 146 593 234 L697 720 L733 720 L628 230 Q604 117 511 49 Q425 -15 310 -15 Z M472 758 Q418 759 390 790 Q366 817 366 862 Q366 880 368 890 L399 890 Q397 879 397 865 Q397 787 473 787 Q516 787 547 814 Q578 841 591 890 L623 890 Q608 824 565 790 Q527 759 472 758 Z " />
<glyph glyph-name="ubreve" unicode="&#x16d;" horiz-adv-x="542" d="M145 520 L181 520 L107 173 Q100 146 100 119 Q100 15 222 15 Q297 15 359 75 Q412 126 428 200 L496 520 L532 520 L422 0 L392 0 L406 93 Q366 36 307 7 Q260 -15 211 -15 Q139 -15 100 22 Q64 56 64 115 Q64 141 69 162 L145 520 Z M357 588 Q303 589 275 620 Q251 647 251 692 Q251 710 253 720 L284 720 Q282 709 282 695 Q282 617 358 617 Q401 617 432 644 Q463 671 476 720 L508 720 Q493 654 450 620 Q412 589 357 588 Z " />
<glyph glyph-name="Uring" unicode="&#x16e;" horiz-adv-x="700" d="M310 -15 Q195 -15 133 51 Q84 105 84 186 Q84 213 90 240 L193 720 L229 720 L125 234 Q120 214 120 187 Q120 106 180 59 Q232 18 313 18 Q423 18 504 86 Q574 146 593 234 L697 720 L733 720 L628 230 Q604 117 511 49 Q425 -15 310 -15 Z M495 958 Q450 958 424 924 Q402 896 402 857 Q402 822 422 802 Q442 782 476 782 Q521 782 547 816 Q569 844 569 883 Q569 918 549 938 Q529 958 495 958 Z M475 755 Q425 755 395 786 Q370 814 370 855 Q370 910 406 948 Q441 985 496 985 Q546 985 576 954 Q601 926 601 885 Q601 830 565 792 Q530 755 475 755 Z " />
<glyph glyph-name="uring" unicode="&#x16f;" horiz-adv-x="542" d="M145 520 L181 520 L107 173 Q100 146 100 119 Q100 15 222 15 Q297 15 359 75 Q412 126 428 200 L496 520 L532 520 L422 0 L392 0 L406 93 Q366 36 307 7 Q260 -15 211 -15 Q139 -15 100 22 Q64 56 64 115 Q64 141 69 162 L145 520 Z M383 788 Q338 788 312 754 Q290 726 290 687 Q290 652 310 632 Q330 612 364 612 Q409 612 435 646 Q457 674 457 713 Q457 748 437 768 Q417 788 383 788 Z M363 585 Q313 585 283 616 Q258 644 258 685 Q258 740 294 778 Q329 815 384 815 Q434 815 464 784 Q489 756 489 715 Q489 660 453 622 Q418 585 363 585 Z " />
<glyph glyph-name="Uhungarumlaut" unicode="&#x170;" horiz-adv-x="700" d="M310 -15 Q195 -15 133 51 Q84 105 84 186 Q84 213 90 240 L193 720 L229 720 L125 234 Q120 214 120 187 Q120 106 180 59 Q232 18 313 18 Q423 18 504 86 Q574 146 593 234 L697 720 L733 720 L628 230 Q604 117 511 49 Q425 -15 310 -15 Z M357 768 L461 905 L512 905 L389 768 L357 768 Z M510 768 L614 905 L665 905 L542 768 L510 768 Z " />
<glyph glyph-name="uhungarumlaut" unicode="&#x171;" horiz-adv-x="542" d="M145 520 L181 520 L107 173 Q100 146 100 119 Q100 15 222 15 Q297 15 359 75 Q412 126 428 200 L496 520 L532 520 L422 0 L392 0 L406 93 Q366 36 307 7 Q260 -15 211 -15 Q139 -15 100 22 Q64 56 64 115 Q64 141 69 162 L145 520 Z M262 598 L366 735 L417 735 L294 598 L262 598 Z M415 598 L519 735 L570 735 L447 598 L415 598 Z " />
<glyph glyph-name="Uogonek" unicode="&#x172;" horiz-adv-x="700" d="M420 -149 L456 -149 Q438 -188 401.5 -211.5 Q365 -235 323 -235 Q278 -235 252 -211 Q230 -189 230 -156 Q230 -74 342 -13 L338 -13 Q320 -15 310 -15 Q195 -15 133 51 Q84 105 84 186 Q84 213 90 240 L193 720 L229 720 L125 234 Q120 214 120 187 Q120 106 180 59 Q232 18 313 18 Q423 18 504 86 Q574 146 593 234 L697 720 L733 720 L628 230 Q609 146 548 83 Q494 27 418 1 Q342 -25 301 -66 Q263 -105 263 -151 Q263 -205 327 -205 Q389 -205 420 -149 Z " />
<glyph glyph-name="uogonek" unicode="&#x173;" horiz-adv-x="542" d="M427 -149 L463 -149 Q445 -188 408.5 -211.5 Q372 -235 330 -235 Q285 -235 259 -211 Q237 -189 237 -156 Q237 -102 287 -56 Q328 -19 393 7 L406 93 Q366 36 307 7 Q260 -15 211 -15 Q139 -15 100 22 Q64 56 64 115 Q64 141 69 162 L145 520 L181 520 L107 173 Q100 141 100 119 Q100 15 222 15 Q297 15 359 75 Q412 126 428 200 L496 520 L532 520 L422 0 Q270 -66 270 -151 Q270 -205 334 -205 Q396 -205 427 -149 Z " />
<glyph glyph-name="Wcircumflex" unicode="&#x174;" horiz-adv-x="950" d="M1010 720 L1048 720 L692 0 L637 0 L581 690 L234 0 L178 0 L128 720 L165 720 L211 29 L560 720 L615 720 L669 31 L1010 720 Z M644 905 L718 768 L684 768 L617 881 L503 768 L464 768 L597 905 L644 905 Z " />
<glyph glyph-name="wcircumflex" unicode="&#x175;" horiz-adv-x="752" d="M760 520 L797 520 L538 0 L492 0 L441 488 L193 0 L147 0 L95 520 L129 520 L176 35 L423 520 L471 520 L520 37 L760 520 Z M518 735 L592 598 L558 598 L491 711 L377 598 L338 598 L471 735 L518 735 Z " />
<glyph glyph-name="Ycircumflex" unicode="&#x176;" horiz-adv-x="620" d="M123 720 L161 720 L334 314 L682 720 L723 720 L347 281 L288 0 L251 0 L311 283 L123 720 Z M483 905 L557 768 L523 768 L456 881 L342 768 L303 768 L436 905 L483 905 Z " />
<glyph glyph-name="ycircumflex" unicode="&#x177;" horiz-adv-x="490" d="M540 520 L244 -3 Q170 -134 144 -162 Q114 -195 70 -195 Q43 -195 17 -183 L24 -154 Q48 -165 73 -165 Q103 -165 124.5 -138.5 Q146 -112 207 0 L193 0 L90 520 L126 520 L223 26 L501 520 L540 520 Z M378 735 L452 598 L418 598 L351 711 L237 598 L198 598 L331 735 L378 735 Z " />
<glyph glyph-name="Zacute" unicode="&#x179;" horiz-adv-x="639" d="M695 689 L64 33 L546 33 L539 0 L10 0 L17 34 L647 687 L179 687 L186 720 L702 720 L695 689 Z M391 768 L523 905 L578 905 L427 768 L391 768 Z " />
<glyph glyph-name="zacute" unicode="&#x17a;" horiz-adv-x="478" d="M500 482 L50 31 L404 31 L398 0 L0 0 L7 36 L459 489 L118 489 L125 520 L508 520 L500 482 Z M288 598 L420 735 L475 735 L324 598 L288 598 Z " />
<glyph glyph-name="Zdotaccent" unicode="&#x17b;" horiz-adv-x="639" d="M695 689 L64 33 L546 33 L539 0 L10 0 L17 34 L647 687 L179 687 L186 720 L702 720 L695 689 Z M475 833 L429 833 L442 890 L488 890 L475 833 Z " />
<glyph glyph-name="zdotaccent" unicode="&#x17c;" horiz-adv-x="478" d="M500 482 L50 31 L404 31 L398 0 L0 0 L7 36 L459 489 L118 489 L125 520 L508 520 L500 482 Z M366 663 L320 663 L333 720 L379 720 L366 663 Z " />
<glyph glyph-name="Zcaron" unicode="&#x17d;" horiz-adv-x="639" d="M695 689 L64 33 L546 33 L539 0 L10 0 L17 34 L647 687 L179 687 L186 720 L702 720 L695 689 Z M420 768 L346 905 L380 905 L447 792 L561 905 L600 905 L467 768 L420 768 Z " />
<glyph glyph-name="zcaron" unicode="&#x17e;" horiz-adv-x="478" d="M500 482 L50 31 L404 31 L398 0 L0 0 L7 36 L459 489 L118 489 L125 520 L508 520 L500 482 Z M304 598 L230 735 L264 735 L331 622 L445 735 L484 735 L351 598 L304 598 Z " />
<glyph glyph-name="longs" unicode="&#x17f;" horiz-adv-x="291" d="M103 0 L67 0 L170 489 L93 489 L100 520 L177 520 L198 619 Q211 680 250 710 Q283 735 332 735 Q370 735 409 720 L403 690 Q363 705 329 705 Q253 705 233 615 L103 0 Z " />
<glyph glyph-name="uni018F" unicode="&#x18f;" horiz-adv-x="715" d="M308 -15 Q72 -15 72 245 Q72 290 82 355 L657 355 Q670 419 670 475 Q670 594 607 652 Q554 702 461 702 Q244 702 158 519 L119 519 Q209 735 464 735 Q585 735 650 660 Q709 592 709 475 Q709 377 671 272 Q626 148 544 74 Q445 -15 308 -15 Z M311 18 Q434 18 529 112 Q612 193 648 322 L117 322 Q110 279 110 237 Q110 120 171 65 Q222 18 311 18 Z " />
<glyph glyph-name="Ohorn" unicode="&#x1a0;" horiz-adv-x="744" d="M680 647 L685 646 Q693 644 704 644 L710 644 Q738 645 751.5 663.5 Q765 682 774 732 L784 788 L818 788 L806 721 Q795 656 753 632 Q733 620 715 620 L698 621 Q733 562 736 463 Q736 363 697 260 Q651 141 568 70 Q469 -15 333 -15 Q211 -15 142 65 Q80 137 80 257 Q80 357 119 460 Q165 579 248 650 Q347 735 483 735 Q565 732 618 701 Q654 680 680 647 Z M481 702 Q287 702 186 519 Q147 448 129 362 Q117 306 117 255 Q117 134 185 71 Q242 18 335 18 Q527 18 630 201 Q669 272 687 358 Q699 415 699 465 Q699 586 630 649 Q573 702 481 702 Z " />
<glyph glyph-name="ohorn" unicode="&#x1a1;" horiz-adv-x="565" d="M508 460 L512 459 Q520 457 532 457 L537 457 Q565 458 578.5 477 Q592 496 601 545 L611 601 L645 601 L634 534 Q622 469 580 445 Q560 433 543 434 L522 434 Q538 395 540 338 Q540 266 512 191 Q480 102 419 49 Q347 -15 245 -15 Q152 -15 101 43 Q56 95 56 182 Q56 255 83 329 Q116 418 176 471 Q249 535 353 535 Q461 531 508 460 Z M247 15 Q383 15 455 152 Q503 243 503 339 Q503 426 457 469 Q417 505 350 505 Q211 505 140 368 Q93 279 93 181 Q93 95 140 51 Q180 15 247 15 Z " />
<glyph glyph-name="Uhorn" unicode="&#x1af;" horiz-adv-x="714" d="M712 622 L628 230 Q604 117 511 49 Q425 -15 310 -15 Q195 -15 133 51 Q84 105 84 186 Q84 213 90 240 L193 720 L229 720 L125 234 Q120 214 120 187 Q120 106 180 59 Q232 18 313 18 Q423 18 504 86 Q574 146 593 234 L697 720 L733 720 L717 647 L721 646 Q728 644 740 644 L745 644 Q773 645 787 664 Q801 683 809 732 L819 788 L853 788 L842 721 Q830 656 788 632 Q768 620 751 621 L712 622 Z " />
<glyph glyph-name="uhorn" unicode="&#x1b0;" horiz-adv-x="547" d="M514 433 L422 0 L392 0 L406 93 Q366 36 307 7 Q260 -15 211 -15 Q139 -15 100 22 Q64 56 64 115 Q64 141 69 162 L145 520 L181 520 L107 173 Q100 146 100 119 Q100 15 222 15 Q297 15 359 75 Q412 126 428 200 L496 520 L532 520 L519 459 L525 457 Q532 455 544 456 L549 456 Q577 456 591 475 Q605 494 614 543 L623 600 L658 600 L646 533 Q634 467 593 443 Q572 431 555 432 L514 433 Z " />
<glyph glyph-name="uni01DD" unicode="&#x1dd;" horiz-adv-x="568" d="M142 382 L104 382 Q138 458 208 499 Q269 535 342 535 Q438 535 491 475 Q539 421 539 332 Q539 261 511 186 Q477 99 418 47 Q347 -15 250 -15 Q159 -15 108 41 Q60 93 60 183 Q60 220 71 269 L496 269 Q503 311 503 336 Q503 424 451 468 Q408 504 339 504 Q271 504 217 468 Q168 436 142 382 Z M248 15 Q334 15 402 80 Q464 140 490 238 L102 238 Q97 211 97 178 Q97 93 144 51 Q183 15 248 15 Z " />
<glyph glyph-name="Aringacute" unicode="&#x1fa;" horiz-adv-x="645" d="M478 847 L444 847 L561 957 L614 957 L478 847 Z M459 822 Q507 822 535 795 Q558 772 558 738 Q558 689 526 655 Q497 625 448 616 L595 -3 L557 -3 L507 209 L151 209 L12 -3 L-30 -3 L382 622 Q354 630 338 651 Q322 672 322 701 Q322 750 359 785 Q397 822 459 822 Z M456 798 Q404 798 376 761 Q355 733 355 699 Q355 640 423 640 Q479 640 506 678 Q525 704 525 738 Q525 766 507 782 Q489 798 456 798 Z M172 241 L502 241 L414 610 L172 241 Z " />
<glyph glyph-name="aringacute" unicode="&#x1fb;" horiz-adv-x="520" d="M145 390 L109 390 Q131 460 196 500 Q254 535 329 535 Q406 535 449 497 Q487 462 487 406 Q487 385 483 368 L405 0 L376 0 L389 93 Q308 -15 183 -15 Q112 -15 71 20 Q33 51 33 103 Q33 194 110 243 Q166 279 271 296 L437 322 L448 375 Q451 392 451 406 Q451 455 414 482 Q381 505 325 505 Q256 505 204 468 Q161 437 145 390 Z M407 183 L431 292 L281 268 Q161 249 112 203 Q72 166 72 105 Q72 58 110 35 Q142 16 195 16 Q269 16 333 68 Q392 116 407 183 Z M348 733 Q303 733 277 702 Q255 677 255 642 Q255 611 275 593 Q295 575 329 575 Q374 575 400 606 Q422 631 422 666 Q422 697 402 715 Q382 733 348 733 Z M328 550 Q278 550 248 578 Q223 603 223 640 Q223 689 259 724 Q294 757 349 757 Q400 757 429 729 Q454 705 454 667 Q454 618 418 584 Q383 550 328 550 Z M324 778 L456 901 L511 901 L360 778 L324 778 Z " />
<glyph glyph-name="AEacute" unicode="&#x1fc;" horiz-adv-x="917" d="M466 213 L176 213 L3 0 L-40 0 L546 720 L970 720 L963 687 L604 687 L539 383 L869 383 L862 350 L532 350 L465 33 L824 33 L817 0 L421 0 L466 213 Z M568 695 L202 245 L473 245 L568 695 Z M705 768 L837 905 L892 905 L741 768 L705 768 Z " />
<glyph glyph-name="aeacute" unicode="&#x1fd;" horiz-adv-x="927" d="M183 -15 Q112 -15 71 20 Q33 51 33 103 Q33 259 271 296 L437 322 L448 375 Q451 392 451 406 Q451 455 414 482 Q381 505 325 505 Q256 505 204 468 Q161 437 145 390 L109 390 Q131 460 196 500 Q254 535 329 535 Q405 535 445 497 Q481 463 481 405 Q524 475 589 510 Q644 540 708 540 Q798 540 849 484 Q895 433 895 348 Q895 308 887 272 L461 272 Q451 228 451 189 Q451 98 504 55 Q546 21 615 21 Q683 21 737 57 Q786 89 812 143 L850 143 Q816 68 746 26 Q684 -10 611 -10 Q530 -10 480 34 Q437 72 424 138 Q381 54 304 14 Q248 -15 183 -15 Z M431 292 L281 268 Q161 249 112 203 Q72 166 72 105 Q72 58 110 35 Q142 16 195 16 Q269 16 333 68 Q392 116 407 183 L431 292 Z M706 510 Q623 510 551 442 Q489 384 467 303 L855 303 Q859 326 859 351 Q859 432 811 474 Q771 510 706 510 Z M493 598 L625 735 L680 735 L529 598 L493 598 Z " />
<glyph glyph-name="Oslashacute" unicode="&#x1fe;" horiz-adv-x="744" d="M333 -15 Q271 -15 223 6 L156 -110 L119 -110 L194 20 Q136 55 107 120 Q80 179 80 257 Q80 357 119 460 Q165 579 248 650 Q347 735 483 735 Q544 735 595 712 L658 820 L695 820 L624 697 Q681 662 710 598 Q736 539 736 463 Q736 363 697 260 Q651 141 568 70 Q469 -15 333 -15 Z M481 702 Q287 702 186 519 Q147 448 129 362 Q117 306 117 255 Q117 109 211 50 L578 683 Q534 702 481 702 Z M699 465 Q699 608 606 667 L240 35 Q283 18 335 18 Q527 18 630 201 Q669 272 687 358 Q699 415 699 465 Z M438 768 L570 905 L625 905 L474 768 L438 768 Z " />
<glyph glyph-name="oslashacute" unicode="&#x1ff;" horiz-adv-x="565" d="M245 -15 Q193 -15 148 6 L72 -110 L34 -110 L122 23 Q56 75 56 182 Q56 255 83 329 Q116 418 176 471 Q249 535 353 535 Q406 535 446 515 L522 630 L560 630 L473 498 Q540 445 540 338 Q540 266 512 191 Q480 102 419 49 Q347 -15 245 -15 Z M247 15 Q383 15 455 152 Q503 243 503 339 Q503 427 454 470 L166 33 Q199 15 247 15 Z M93 181 Q93 95 140 51 L428 488 Q394 505 350 505 Q211 505 140 368 Q93 279 93 181 Z M329 598 L461 735 L516 735 L365 598 L329 598 Z " />
<glyph glyph-name="Scommaaccent" unicode="&#x218;" horiz-adv-x="643" d="M286 19 Q417 19 488 82 Q550 137 550 223 Q550 281 497 314 Q450 344 340 367 Q153 405 153 525 Q153 626 235 683 Q309 735 432 735 Q543 735 605 683 Q661 637 662 562 L624 562 Q621 633 566 669 Q516 702 431 702 Q306 702 242 644 Q190 598 190 524 Q190 472 236 443 Q277 416 371 396 Q494 370 544 325 Q588 285 588 222 Q588 110 497 44 Q415 -15 283 -15 Q163 -15 100 41 Q44 90 44 176 L81 176 Q81 92 143 52 Q195 19 286 19 Z M306 -97 L291 -168 Q282 -210 261.5 -231 Q241 -252 193 -268 L198 -244 Q224 -233 237.5 -214.5 Q251 -196 258 -161 L242 -161 L256 -97 L306 -97 Z " />
<glyph glyph-name="scommaaccent" unicode="&#x219;" horiz-adv-x="491" d="M207 16 Q291 16 345 59 Q394 99 394 160 Q394 205 351 228 Q316 247 237 259 Q168 270 131 304 Q98 335 98 381 Q98 453 158 496 Q214 535 307 535 Q392 535 438 491 Q478 454 478 395 L442 395 L442 405 Q442 452 401 480 Q364 505 302 505 Q213 505 169 462 Q135 429 135 379 Q135 342 165.5 321 Q196 300 269 288 Q433 261 433 161 Q433 83 368 33 Q305 -15 205 -15 Q118 -15 70 28 Q30 63 30 117 Q30 124 31 133 L67 133 Q66 126 66 119 Q66 69 107 41 Q145 16 207 16 Z M225 -97 L210 -168 Q201 -210 180.5 -231 Q160 -252 112 -268 L117 -244 Q143 -233 156.5 -214.5 Q170 -196 177 -161 L161 -161 L175 -97 L225 -97 Z " />
<glyph glyph-name="uni021A" unicode="&#x21a;" horiz-adv-x="563" d="M656 720 L649 687 L406 687 L260 0 L223 0 L369 687 L126 687 L133 720 L656 720 Z M252 -97 L237 -168 Q228 -210 207.5 -231 Q187 -252 139 -268 L144 -244 Q170 -233 183.5 -214.5 Q197 -196 204 -161 L188 -161 L202 -97 L252 -97 Z " />
<glyph glyph-name="uni021B" unicode="&#x21b;" horiz-adv-x="294" d="M323 489 L199 489 L116 95 Q112 75 112 66 Q112 15 173 15 Q200 15 239 27 L232 -4 Q197 -15 167 -15 Q76 -15 76 63 Q76 80 80 96 L163 489 L88 489 L95 520 L170 520 L201 645 L233 645 L206 520 L330 520 L323 489 Z M134 -97 L119 -168 Q110 -210 89.5 -231 Q69 -252 21 -268 L26 -244 Q52 -233 65.5 -214.5 Q79 -196 86 -161 L70 -161 L84 -97 L134 -97 Z " />
<glyph glyph-name="uni0237" unicode="&#x237;" horiz-adv-x="192" d="M-134 -179 L-127 -149 Q-93 -163 -64 -163 Q3 -163 22 -75 L148 520 L184 520 L56 -82 Q31 -195 -62 -195 Q-102 -195 -134 -179 Z " />
<glyph glyph-name="uni0259" unicode="&#x259;" horiz-adv-x="568" d="M142 382 L104 382 Q138 458 208 499 Q269 535 342 535 Q438 535 491 475 Q539 421 539 332 Q539 261 511 186 Q477 99 418 47 Q347 -15 250 -15 Q159 -15 108 41 Q60 93 60 183 Q60 220 71 269 L496 269 Q503 311 503 336 Q503 424 451 468 Q408 504 339 504 Q271 504 217 468 Q168 436 142 382 Z M248 15 Q334 15 402 80 Q464 140 490 238 L102 238 Q97 211 97 178 Q97 93 144 51 Q183 15 248 15 Z " />
<glyph glyph-name="uni02C0" unicode="&#x2c0;" horiz-adv-x="281" d="M43 723 L31 745 Q36 748 60 762 Q84 775 93.5 778 Q103 781 125 781 Q182 781 207 761 Q230 743 230 706 Q230 664 211 647 Q194 632 130 606 L125 574 L90 574 L99 632 L115 635 Q170 647 182 656 Q194 665 194 693 Q194 718 174 732.5 Q154 747 118 747 Q98 747 90.5 745 Q83 743 59 731 Q50 726 43 723 Z " />
<glyph glyph-name="uni02C9" unicode="&#x2c9;" horiz-adv-x="290" d="M360 661 L130 661 L137 693 L367 693 L360 661 Z " />
<glyph glyph-name="uni0309" unicode="&#x309;" horiz-adv-x="281" d="M43 723 L31 745 Q36 748 60 762 Q84 775 93.5 778 Q103 781 125 781 Q182 781 207 761 Q230 743 230 706 Q230 664 211 647 Q194 632 130 606 L125 574 L90 574 L99 632 L115 635 Q170 647 182 656 Q194 665 194 693 Q194 718 174 732.5 Q154 747 118 747 Q98 747 90.5 745 Q83 743 59 731 Q50 726 43 723 Z " />
<glyph glyph-name="uni0312" unicode="&#x312;" horiz-adv-x="119" d="M124 610 L139 681 Q148 723 168.5 744 Q189 765 237 781 L232 757 Q206 746 192.5 727.5 Q179 709 172 674 L188 674 L174 610 L124 610 Z " />
<glyph glyph-name="uni0313" unicode="&#x313;" horiz-adv-x="119" d="M237 781 L222 710 Q213 668 192.5 647 Q172 626 124 610 L129 634 Q155 645 168.5 663.5 Q182 682 189 717 L173 717 L187 781 L237 781 Z " />
<glyph glyph-name="uni031B" unicode="&#x31b;" horiz-adv-x="119" d="M237 781 L222 710 Q213 668 192.5 647 Q172 626 124 610 L129 634 Q155 645 168.5 663.5 Q182 682 189 717 L173 717 L187 781 L237 781 Z " />
<glyph glyph-name="uni0323" unicode="&#x323;" horiz-adv-x="106" d="M-3 -180 L-48 -180 L-37 -123 L9 -123 L-3 -180 Z " />
<glyph glyph-name="commaaccent" unicode="&#x326;" horiz-adv-x="119" d="M182 -53 L167 -124 Q158 -166 137.5 -187 Q117 -208 69 -224 L74 -200 Q100 -189 113.5 -170.5 Q127 -152 134 -117 L118 -117 L132 -53 L182 -53 Z " />
<glyph glyph-name="uni037E" unicode="&#x37e;" horiz-adv-x="278" d="M222 456 L168 456 L182 520 L236 520 L222 456 Z M139 64 L124 -7 Q112 -66 78 -97 Q51 -122 4 -135 L10 -104 Q43 -92 61 -68 Q79 -44 88 0 L70 0 L83 64 L139 64 Z " />
<glyph glyph-name="tonos" unicode="&#x384;" horiz-adv-x="136" d="M111 573 L172 720 L219 720 L142 573 L111 573 Z " />
<glyph glyph-name="dieresistonos" unicode="&#x385;" horiz-adv-x="302" d="M176 663 L130 663 L143 720 L189 720 L176 663 Z M372 663 L326 663 L339 720 L385 720 L372 663 Z M249 735 L309 882 L357 882 L278 735 L249 735 Z " />
<glyph glyph-name="Alphatonos" unicode="&#x386;" horiz-adv-x="642" d="M592 0 L553 0 L514 213 L141 213 L11 0 L-30 0 L409 720 L460 720 L592 0 Z M429 686 L160 245 L509 245 L429 686 Z M231 573 L292 720 L339 720 L262 573 L231 573 Z " />
<glyph glyph-name="uni0387" unicode="&#x387;" horiz-adv-x="278" d="M187 289 L133 289 L147 353 L201 353 L187 289 Z " />
<glyph glyph-name="Epsilontonos" unicode="&#x388;" horiz-adv-x="581" d="M533 383 L526 350 L176 350 L109 33 L488 33 L481 0 L65 0 L218 720 L634 720 L627 687 L248 687 L183 383 L533 383 Z M65 573 L126 720 L173 720 L96 573 L65 573 Z " />
<glyph glyph-name="Etatonos" unicode="&#x389;" horiz-adv-x="696" d="M687 720 L724 720 L571 0 L534 0 L608 351 L176 351 L102 0 L65 0 L218 720 L255 720 L183 385 L615 385 L687 720 Z M65 573 L126 720 L173 720 L96 573 L65 573 Z " />
<glyph glyph-name="Iotatonos" unicode="&#x38a;" horiz-adv-x="227" d="M218 720 L255 720 L102 0 L65 0 L218 720 Z M65 573 L126 720 L173 720 L96 573 L65 573 Z " />
<glyph glyph-name="Omicrontonos" unicode="&#x38c;" horiz-adv-x="744" d="M85 573 L146 720 L193 720 L116 573 L85 573 Z M481 702 Q287 702 186 519 Q147 448 129 362 Q117 306 117 255 Q117 134 185 71 Q242 18 335 18 Q527 18 630 201 Q669 272 687 358 Q699 415 699 465 Q699 586 630 649 Q573 702 481 702 Z M333 -15 Q211 -15 142 65 Q80 137 80 257 Q80 357 119 460 Q165 579 248 650 Q347 735 483 735 Q605 735 674 655 Q736 583 736 463 Q736 363 697 260 Q651 141 568 70 Q469 -15 333 -15 Z " />
<glyph glyph-name="Upsilontonos" unicode="&#x38e;" horiz-adv-x="686" d="M189 720 L227 720 L400 314 L748 720 L789 720 L413 281 L354 0 L317 0 L377 283 L189 720 Z M45 573 L106 720 L153 720 L76 573 L45 573 Z " />
<glyph glyph-name="Omegatonos" unicode="&#x38f;" horiz-adv-x="744" d="M373 0 L380 34 Q553 40 641 223 Q675 291 690 372 Q699 423 699 467 Q699 587 631 650 Q574 702 481 702 Q288 702 186 519 Q146 447 128 359 Q116 301 116 248 Q116 138 173 82 Q220 37 298 34 L291 0 L55 0 L62 34 L197 34 Q139 61 107 125 Q79 182 79 259 Q79 361 119 464 Q165 582 249 652 Q348 735 484 735 Q605 735 674 656 Q737 585 737 467 Q737 327 674 206 Q608 80 494 34 L616 34 L609 0 L373 0 Z M85 573 L146 720 L193 720 L116 573 L85 573 Z " />
<glyph glyph-name="iotadieresistonos" unicode="&#x390;" horiz-adv-x="192" d="M74 0 L38 0 L148 520 L184 520 L74 0 Z M121 663 L75 663 L88 720 L134 720 L121 663 Z M317 663 L271 663 L284 720 L330 720 L317 663 Z M194 735 L254 882 L302 882 L223 735 L194 735 Z " />
<glyph glyph-name="Alpha" unicode="&#x391;" horiz-adv-x="642" d="M592 0 L553 0 L514 213 L141 213 L11 0 L-30 0 L409 720 L460 720 L592 0 Z M429 686 L160 245 L509 245 L429 686 Z " />
<glyph glyph-name="Beta" unicode="&#x392;" horiz-adv-x="632" d="M198 720 L434 720 Q533 720 583 678 Q626 642 626 581 Q626 507 571 447 Q523 394 452 378 Q516 369 552 328 Q584 290 584 236 Q584 134 509 68 Q432 0 297 0 L45 0 L198 720 Z M381 364 L159 364 L89 33 L305 33 Q430 33 496 106 Q545 161 545 236 Q545 299 497 333 Q453 364 381 364 Z M439 687 L228 687 L166 396 L385 396 Q490 396 547 467 Q589 517 589 578 Q589 634 546 662 Q507 687 439 687 Z " />
<glyph glyph-name="Gamma" unicode="&#x393;" horiz-adv-x="485" d="M198 720 L578 720 L571 687 L228 687 L82 0 L45 0 L198 720 Z " />
<glyph glyph-name="uni0394" unicode="&#x394;" horiz-adv-x="642" d="M592 0 L-30 0 L409 720 L460 720 L592 0 Z M429 688 L30 32 L547 32 L429 688 Z " />
<glyph glyph-name="Epsilon" unicode="&#x395;" horiz-adv-x="561" d="M513 383 L506 350 L156 350 L89 33 L468 33 L461 0 L45 0 L198 720 L614 720 L607 687 L228 687 L163 383 L513 383 Z " />
<glyph glyph-name="Zeta" unicode="&#x396;" horiz-adv-x="639" d="M695 689 L64 33 L546 33 L539 0 L10 0 L17 34 L647 687 L179 687 L186 720 L702 720 L695 689 Z " />
<glyph glyph-name="Eta" unicode="&#x397;" horiz-adv-x="676" d="M667 720 L704 720 L551 0 L514 0 L588 351 L156 351 L82 0 L45 0 L198 720 L235 720 L163 385 L595 385 L667 720 Z " />
<glyph glyph-name="Theta" unicode="&#x398;" horiz-adv-x="744" d="M597 383 L590 350 L223 350 L230 383 L597 383 Z M481 702 Q287 702 186 519 Q147 448 129 362 Q117 306 117 255 Q117 134 185 71 Q242 18 335 18 Q527 18 630 201 Q669 272 687 358 Q699 415 699 465 Q699 586 630 649 Q573 702 481 702 Z M333 -15 Q211 -15 142 65 Q80 137 80 257 Q80 357 119 460 Q165 579 248 650 Q347 735 483 735 Q605 735 674 655 Q736 583 736 463 Q736 363 697 260 Q651 141 568 70 Q469 -15 333 -15 Z " />
<glyph glyph-name="Iota" unicode="&#x399;" horiz-adv-x="207" d="M198 720 L235 720 L82 0 L45 0 L198 720 Z " />
<glyph glyph-name="Kappa" unicode="&#x39a;" horiz-adv-x="580" d="M525 0 L478 0 L158 360 L82 0 L45 0 L198 720 L235 720 L162 379 L601 720 L649 720 L200 367 L525 0 Z " />
<glyph glyph-name="Lambda" unicode="&#x39b;" horiz-adv-x="632" d="M582 0 L541 0 L422 686 L9 0 L-30 0 L404 720 L455 720 L582 0 Z " />
<glyph glyph-name="Mu" unicode="&#x39c;" horiz-adv-x="829" d="M405 0 L360 0 L225 682 L81 0 L45 0 L198 720 L254 720 L388 35 L799 720 L857 720 L704 0 L668 0 L811 677 L405 0 Z " />
<glyph glyph-name="Nu" unicode="&#x39d;" horiz-adv-x="709" d="M702 720 L737 720 L584 0 L548 0 L222 668 L81 0 L45 0 L198 720 L236 720 L561 57 L702 720 Z " />
<glyph glyph-name="Xi" unicode="&#x39e;" horiz-adv-x="589" d="M20 0 L27 36 L496 36 L489 0 L20 0 Z M642 720 L634 685 L166 685 L174 720 L642 720 Z M492 340 L162 340 L169 374 L499 374 L492 340 Z " />
<glyph glyph-name="Omicron" unicode="&#x39f;" horiz-adv-x="744" d="M481 702 Q287 702 186 519 Q147 448 129 362 Q117 306 117 255 Q117 134 185 71 Q242 18 335 18 Q527 18 630 201 Q669 272 687 358 Q699 415 699 465 Q699 586 630 649 Q573 702 481 702 Z M333 -15 Q211 -15 142 65 Q80 137 80 257 Q80 357 119 460 Q165 579 248 650 Q347 735 483 735 Q605 735 674 655 Q736 583 736 463 Q736 363 697 260 Q651 141 568 70 Q469 -15 333 -15 Z " />
<glyph glyph-name="Pi" unicode="&#x3a0;" horiz-adv-x="676" d="M198 720 L704 720 L551 0 L514 0 L659 686 L227 686 L82 0 L45 0 L198 720 Z " />
<glyph glyph-name="Rho" unicode="&#x3a1;" horiz-adv-x="624" d="M198 720 L439 720 Q545 720 598 668 Q644 624 644 549 Q644 480 611 421 Q576 359 513 323 Q444 284 352 284 L142 284 L82 0 L45 0 L198 720 Z M439 687 L228 687 L149 318 L355 318 Q480 318 551 398 Q606 462 606 548 Q606 619 558 655 Q515 687 439 687 Z " />
<glyph glyph-name="Sigma" unicode="&#x3a3;" horiz-adv-x="559" d="M185 687 L406 378 L400 347 L51 33 L486 33 L479 0 L0 0 L7 34 L371 366 L145 686 L153 720 L632 720 L625 687 L185 687 Z " />
<glyph glyph-name="Tau" unicode="&#x3a4;" horiz-adv-x="563" d="M656 720 L649 687 L406 687 L260 0 L223 0 L369 687 L126 687 L133 720 L656 720 Z " />
<glyph glyph-name="Upsilon" unicode="&#x3a5;" horiz-adv-x="620" d="M123 720 L161 720 L334 314 L682 720 L723 720 L347 281 L288 0 L251 0 L311 283 L123 720 Z " />
<glyph glyph-name="Phi" unicode="&#x3a6;" horiz-adv-x="771" d="M480 720 L517 720 L513 700 Q630 698 699 617 Q760 546 760 439 Q760 337 715 244 Q667 145 582 86 Q488 21 368 20 L364 0 L327 0 L331 20 Q214 22 144 103 Q83 174 83 281 Q83 383 128 476 Q176 575 261 634 Q355 699 475 700 L480 720 Z M120 281 Q120 170 191 106 Q249 53 338 52 L469 668 Q367 667 285 611 Q208 558 164 470 Q120 382 120 281 Z M723 439 Q723 549 653 613 Q594 666 506 668 L375 52 Q476 53 558 109 Q635 161 679 250 Q723 338 723 439 Z " />
<glyph glyph-name="Chi" unicode="&#x3a7;" horiz-adv-x="596" d="M680 720 L361 371 L536 0 L495 0 L333 344 L27 0 L-20 0 L315 374 L153 720 L194 720 L342 401 L635 720 L680 720 Z " />
<glyph glyph-name="Psi" unicode="&#x3a8;" horiz-adv-x="726" d="M183 720 L220 720 L154 413 Q148 388 148 367 Q148 296 215 257 Q270 226 354 223 L460 720 L496 720 L390 223 Q505 227 579 277 Q648 323 665 401 L733 720 L769 720 L701 400 Q679 294 579 238 Q497 193 383 190 L343 0 L307 0 L347 190 Q235 195 171 246 Q112 293 112 367 Q112 385 117 410 L183 720 Z " />
<glyph glyph-name="uni03A9" unicode="&#x3a9;" horiz-adv-x="744" d="M373 0 L380 34 Q553 40 641 223 Q675 291 690 372 Q699 423 699 467 Q699 587 631 650 Q574 702 481 702 Q288 702 186 519 Q146 447 128 359 Q116 301 116 248 Q116 138 173 82 Q220 37 298 34 L291 0 L55 0 L62 34 L197 34 Q139 61 107 125 Q79 182 79 259 Q79 361 119 464 Q165 582 249 652 Q348 735 484 735 Q605 735 674 656 Q737 585 737 467 Q737 327 674 206 Q608 80 494 34 L616 34 L609 0 L373 0 Z " />
<glyph glyph-name="Iotadieresis" unicode="&#x3aa;" horiz-adv-x="206" d="M198 720 L235 720 L82 0 L45 0 L198 720 Z M155 833 L109 833 L122 890 L168 890 L155 833 Z M351 833 L305 833 L318 890 L364 890 L351 833 Z " />
<glyph glyph-name="Upsilondieresis" unicode="&#x3ab;" horiz-adv-x="620" d="M123 720 L161 720 L334 314 L682 720 L723 720 L347 281 L288 0 L251 0 L311 283 L123 720 Z M364 833 L318 833 L331 890 L377 890 L364 833 Z M560 833 L514 833 L527 890 L573 890 L560 833 Z " />
<glyph glyph-name="alphatonos" unicode="&#x3ac;" horiz-adv-x="563" d="M443 0 L414 0 L431 108 Q391 47 334 15 Q282 -15 222 -15 Q142 -15 97 39 Q54 89 54 175 Q54 247 82 325 Q115 416 173 470 Q241 535 334 535 Q401 535 446 495 Q483 461 495 410 L524 520 L553 520 L443 0 Z M337 505 Q215 505 143 371 Q91 275 91 173 Q91 90 136 48 Q172 15 231 15 Q350 15 421 140 Q476 235 476 346 Q476 429 432 471 Q396 505 337 505 Z M343 573 L404 720 L451 720 L374 573 L343 573 Z " />
<glyph glyph-name="epsilontonos" unicode="&#x3ad;" horiz-adv-x="467" d="M292 505 Q219 505 175 465 Q136 430 136 378 Q136 336 173 310 Q204 288 248 288 L291 288 L284 255 L239 255 Q157 255 105 206 Q61 164 61 108 Q61 61 100 37 Q135 16 194 16 Q263 16 317 54 Q366 88 387 143 L424 143 Q394 65 327 23 Q267 -15 188 -15 Q106 -15 62 22 Q25 53 25 106 Q25 171 71 217 Q113 260 185 274 Q101 300 101 375 Q101 450 161 495 Q214 535 293 535 Q383 535 428 487 Q465 448 465 384 L431 384 Q431 445 390 477 Q354 505 292 505 Z M288 573 L349 720 L396 720 L319 573 L288 573 Z " />
<glyph glyph-name="etatonos" unicode="&#x3ae;" horiz-adv-x="547" d="M353 505 Q283 505 219 450 Q159 398 144 324 L76 0 L40 0 L150 520 L180 520 L164 421 Q204 479 261 509 Q310 535 363 535 Q437 535 478 495 Q513 460 513 403 Q513 385 508 360 L393 -180 L357 -180 L472 358 Q477 379 477 399 Q477 453 441 480 Q409 505 353 505 Z M334 573 L395 720 L442 720 L365 573 L334 573 Z " />
<glyph glyph-name="iotatonos" unicode="&#x3af;" horiz-adv-x="192" d="M74 0 L38 0 L148 520 L184 520 L74 0 Z M163 573 L224 720 L271 720 L194 573 L163 573 Z " />
<glyph glyph-name="upsilondieresistonos" unicode="&#x3b0;" horiz-adv-x="538" d="M229 -15 Q143 -15 100 26 Q65 61 65 120 Q65 146 70 167 L145 520 L181 520 L106 166 Q101 139 101 122 Q101 15 232 15 Q318 15 368 63 Q408 101 422 166 L497 520 L533 520 L456 157 Q420 -15 229 -15 Z M294 663 L248 663 L261 720 L307 720 L294 663 Z M490 663 L444 663 L457 720 L503 720 L490 663 Z M367 735 L427 882 L475 882 L396 735 L367 735 Z " />
<glyph glyph-name="alpha" unicode="&#x3b1;" horiz-adv-x="563" d="M443 0 L414 0 L431 108 Q391 47 334 15 Q282 -15 222 -15 Q142 -15 97 39 Q54 89 54 175 Q54 247 82 325 Q115 416 173 470 Q241 535 334 535 Q401 535 446 495 Q483 461 495 410 L524 520 L553 520 L443 0 Z M337 505 Q215 505 143 371 Q91 275 91 173 Q91 90 136 48 Q172 15 231 15 Q350 15 421 140 Q476 235 476 346 Q476 429 432 471 Q396 505 337 505 Z " />
<glyph glyph-name="beta" unicode="&#x3b2;" horiz-adv-x="545" d="M529 600 Q529 524 472 463 Q425 413 355 392 Q407 381 441 341 Q475 301 475 243 Q475 198 458 150.5 Q441 103 413 67 Q348 -15 244 -15 Q187 -15 145 18 Q109 47 95 92 L37 -180 L1 -180 L147 504 Q196 735 372 735 Q452 735 494 692 Q529 656 529 600 Z M182 500 L113 178 Q110 165 110 152 Q110 95 149 55 Q187 17 243 17 Q342 17 398 109 Q437 173 437 242 Q437 309 389 346 Q352 375 303 375 L258 375 L265 408 L308 408 Q338 408 372 424 Q406 440 434 466 Q492 523 492 600 Q492 652 458 680 Q426 705 369 705 Q226 705 182 500 Z " />
<glyph glyph-name="gamma" unicode="&#x3b3;" horiz-adv-x="490" d="M184 -180 L148 -180 L187 0 L90 520 L127 520 L212 36 L501 520 L540 520 L223 0 L184 -180 Z " />
<glyph glyph-name="delta" unicode="&#x3b4;" horiz-adv-x="533" d="M257 697 L262 720 L567 720 L560 689 L342 689 Q428 666 475 591 Q519 521 519 418 Q519 342 502 266.5 Q485 191 455 135 Q376 -15 220 -15 Q136 -15 91 43 Q52 91 52 168 Q52 249 85 320 Q118 392 176 433 Q237 478 312 478 Q395 478 441 428 Q476 390 480 335 Q488 385 488 422 Q488 642 257 697 Z M223 18 Q352 18 420 139 Q439 173 451 214.5 Q463 256 463 288 Q463 359 421 403 Q381 446 315 446 Q202 446 138 343 Q89 266 89 169 Q89 95 128 55 Q163 18 223 18 Z " />
<glyph glyph-name="epsilon" unicode="&#x3b5;" horiz-adv-x="467" d="M292 505 Q219 505 175 465 Q136 430 136 378 Q136 336 173 310 Q204 288 248 288 L291 288 L284 255 L239 255 Q157 255 105 206 Q61 164 61 108 Q61 61 100 37 Q135 16 194 16 Q263 16 317 54 Q366 88 387 143 L424 143 Q394 65 327 23 Q267 -15 188 -15 Q106 -15 62 22 Q25 53 25 106 Q25 171 71 217 Q113 260 185 274 Q101 300 101 375 Q101 450 161 495 Q214 535 293 535 Q383 535 428 487 Q465 448 465 384 L431 384 Q431 445 390 477 Q354 505 292 505 Z " />
<glyph glyph-name="zeta" unicode="&#x3b6;" horiz-adv-x="454" d="M516 696 Q397 670 293 594 Q192 520 132 417 Q70 311 70 202 Q70 129 116 87 Q154 51 230 32 Q302 14 331 -6.5 Q360 -27 360 -58 Q360 -91 339 -121.5 Q318 -152 266 -195 L246 -176 Q324 -112 324 -66 Q324 -44 301 -29.5 Q278 -15 221 -1 Q34 44 34 198 Q34 379 169 526 Q279 644 427 689 L148 689 L155 720 L522 720 L516 696 Z " />
<glyph glyph-name="eta" unicode="&#x3b7;" horiz-adv-x="547" d="M353 505 Q283 505 219 450 Q159 398 144 324 L76 0 L40 0 L150 520 L180 520 L164 421 Q204 479 261 509 Q310 535 363 535 Q437 535 478 495 Q513 460 513 403 Q513 385 508 360 L393 -180 L357 -180 L472 358 Q477 379 477 399 Q477 453 441 480 Q409 505 353 505 Z " />
<glyph glyph-name="theta" unicode="&#x3b8;" horiz-adv-x="570" d="M245 -15 Q158 -15 112 50 Q69 109 69 215 Q69 310 99 420 Q136 554 203 635 Q284 735 397 735 Q484 735 530 670 Q573 610 573 504 Q573 406 541 294 Q504 162 437 82 Q356 -15 245 -15 Z M248 17 Q345 17 417 111 Q482 196 516 346 L120 346 Q105 270 105 210 Q105 109 147 59 Q184 17 248 17 Z M394 703 Q298 703 226 609 Q161 525 127 378 L523 378 Q536 447 536 506 Q536 609 494 660 Q458 703 394 703 Z " />
<glyph glyph-name="iota" unicode="&#x3b9;" horiz-adv-x="192" d="M74 0 L38 0 L148 520 L184 520 L74 0 Z " />
<glyph glyph-name="kappa" unicode="&#x3ba;" horiz-adv-x="474" d="M76 0 L40 0 L150 520 L186 520 L136 284 L454 520 L504 520 L171 270 L429 0 L382 0 L131 260 L76 0 Z " />
<glyph glyph-name="lambda" unicode="&#x3bb;" horiz-adv-x="490" d="M356 523 L430 0 L394 0 L325 494 L20 0 L-20 0 L302 520 L321 520 Q307 635 292.5 670 Q278 705 245 705 Q220 705 180 690 L186 721 Q220 735 249 735 Q278 735 292 727 Q306 719 317 698 Q337 656 356 523 Z " />
<glyph glyph-name="uni03BC" unicode="&#x3bc;" horiz-adv-x="547" d="M186 520 L108 155 Q103 132 103 117 Q103 64 141 38 Q172 15 227 15 Q302 15 364 75 Q417 126 433 200 L501 520 L537 520 L427 0 L397 0 L411 93 Q371 36 313 7 Q267 -15 218 -15 Q120 -15 87 57 L37 -180 L1 -180 L150 520 L186 520 Z " />
<glyph glyph-name="nu" unicode="&#x3bd;" horiz-adv-x="490" d="M501 520 L540 520 L229 0 L181 0 L90 520 L127 520 L210 31 L501 520 Z " />
<glyph glyph-name="xi" unicode="&#x3be;" horiz-adv-x="438" d="M220 -12 Q16 32 16 159 Q16 250 78 305 Q129 351 214 363 Q104 383 104 481 Q104 562 169 620 Q226 672 320 689 L148 689 L155 720 L512 720 L506 694 L491 694 Q313 694 217 624 Q139 567 139 485 Q139 430 187 401 Q226 378 287 378 L330 378 L323 345 L278 345 Q168 345 106 287 Q52 237 52 158 Q52 104 98 71 Q139 42 227 20 Q300 2 328.5 -16.5 Q357 -35 357 -63 Q357 -95 336 -125 Q315 -155 265 -195 L247 -176 Q321 -115 321 -73 Q321 -51 298 -37.5 Q275 -24 220 -12 Z " />
<glyph glyph-name="omicron" unicode="&#x3bf;" horiz-adv-x="565" d="M247 15 Q383 15 455 152 Q503 243 503 339 Q503 426 457 469 Q417 505 350 505 Q211 505 140 368 Q93 279 93 181 Q93 95 140 51 Q180 15 247 15 Z M245 -15 Q152 -15 101 43 Q56 95 56 182 Q56 255 83 329 Q116 418 176 471 Q249 535 353 535 Q446 535 496 477 Q540 425 540 338 Q540 266 512 191 Q480 102 419 49 Q347 -15 245 -15 Z " />
<glyph glyph-name="rho" unicode="&#x3c1;" horiz-adv-x="568" d="M1 -180 L99 277 Q128 410 203 477 Q268 535 361 535 Q450 535 498 482 Q543 432 543 346 Q543 276 516 199 Q484 107 426 52 Q355 -15 258 -15 Q187 -15 144 28 Q110 61 100 114 L37 -180 L1 -180 Z M256 15 Q386 15 458 156 Q506 251 506 348 Q506 431 460 472 Q422 505 359 505 Q226 505 161 367 Q119 279 119 176 Q119 93 161 51 Q196 15 256 15 Z " />
<glyph glyph-name="uni03C2" unicode="&#x3c2;" horiz-adv-x="521" d="M59 203 Q60 280 91 354 Q126 434 186 481 Q256 535 346 535 Q433 535 481 487 Q521 446 521 380 L483 380 Q483 441 443 475 Q406 505 345 505 Q220 505 147 385 Q95 299 95 204 Q95 68 261 30 Q350 9 380.5 -9 Q411 -27 411 -58 Q411 -121 320 -195 L302 -176 Q334 -150 354 -120 Q374 -90 374 -68 Q374 -44 344 -29 Q320 -18 254 -3 Q59 42 59 203 Z " />
<glyph glyph-name="sigma" unicode="&#x3c3;" horiz-adv-x="565" d="M65 263 Q94 404 181 476 Q253 535 349 535 Q405 535 452 520 L650 520 L643 488 L485 492 Q538 439 538 336 Q538 293 530 257 Q501 117 413 44 Q340 -15 245 -15 Q153 -15 102 42 Q56 94 56 182 Q56 220 65 263 Z M102 260 Q93 217 93 181 Q93 95 141 51 Q181 15 246 15 Q340 15 407 85 Q469 149 493 260 Q502 302 502 342 Q502 444 443 493 Q402 505 347 505 Q256 505 188 435 Q125 370 102 260 Z " />
<glyph glyph-name="tau" unicode="&#x3c4;" horiz-adv-x="472" d="M214 0 L178 0 L281 488 L78 488 L85 520 L527 520 L520 488 L317 488 L214 0 Z " />
<glyph glyph-name="upsilon" unicode="&#x3c5;" horiz-adv-x="538" d="M229 -15 Q143 -15 100 26 Q65 61 65 120 Q65 146 70 167 L145 520 L181 520 L106 166 Q101 139 101 122 Q101 15 232 15 Q318 15 368 63 Q408 101 422 166 L497 520 L533 520 L456 157 Q420 -15 229 -15 Z " />
<glyph glyph-name="phi" unicode="&#x3c6;" horiz-adv-x="759" d="M710 267 Q679 119 580 50 Q491 -12 342 -15 L307 -180 L271 -180 L306 -14 Q64 -8 64 160 Q64 288 200 520 L238 520 Q102 286 102 163 Q102 87 160 51 Q212 19 312 16 L370 288 Q398 421 454 480 Q505 535 588 535 Q656 535 691 489 Q723 448 723 373 Q723 332 710 267 Z M401 265 L348 16 Q497 19 578 90 Q648 151 673 268 Q686 327 686 374 Q686 505 584 505 Q511 505 469 446 Q427 390 401 265 Z " />
<glyph glyph-name="chi" unicode="&#x3c7;" horiz-adv-x="504" d="M523 520 L270 188 L405 -180 L365 -180 L242 159 L-12 -180 L-58 -180 L225 192 L99 520 L140 520 L252 220 L478 520 L523 520 Z " />
<glyph glyph-name="psi" unicode="&#x3c8;" horiz-adv-x="706" d="M145 520 L182 520 L113 198 Q109 180 109 156 Q109 86 167 50 Q216 20 300 17 L407 520 L443 520 L336 17 Q445 21 515 71 Q579 118 596 196 L665 520 L701 520 L632 195 Q609 88 517 33 Q441 -12 329 -15 L294 -179 L258 -179 L293 -14 Q185 -9 126 40 Q73 85 73 158 Q73 184 78 205 L145 520 Z " />
<glyph glyph-name="omega" unicode="&#x3c9;" horiz-adv-x="772" d="M677 520 L712 520 Q726 428 726 348 Q726 157 650 60 Q592 -15 507 -15 Q373 -15 373 121 Q319 -15 185 -15 Q123 -15 91 26 Q61 64 61 133 Q61 209 94 300.5 Q127 392 200 520 L237 520 Q165 395 134 312 Q98 216 98 134 Q98 15 195 15 Q260 15 309 65 Q353 109 367 179 L409 380 L443 380 L401 179 Q395 152 395 128 Q395 71 427 41 Q454 15 501 15 Q585 15 639 107 Q693 199 693 354 Q693 413 677 520 Z " />
<glyph glyph-name="iotadieresis" unicode="&#x3ca;" horiz-adv-x="192" d="M74 0 L38 0 L148 520 L184 520 L74 0 Z M121 663 L75 663 L88 720 L134 720 L121 663 Z M317 663 L271 663 L284 720 L330 720 L317 663 Z " />
<glyph glyph-name="upsilondieresis" unicode="&#x3cb;" horiz-adv-x="538" d="M229 -15 Q143 -15 100 26 Q65 61 65 120 Q65 146 70 167 L145 520 L181 520 L106 166 Q101 139 101 122 Q101 15 232 15 Q318 15 368 63 Q408 101 422 166 L497 520 L533 520 L456 157 Q420 -15 229 -15 Z M293 663 L247 663 L260 720 L306 720 L293 663 Z M489 663 L443 663 L456 720 L502 720 L489 663 Z " />
<glyph glyph-name="omicrontonos" unicode="&#x3cc;" horiz-adv-x="565" d="M247 15 Q383 15 455 152 Q503 243 503 339 Q503 426 457 469 Q417 505 350 505 Q211 505 140 368 Q93 279 93 181 Q93 95 140 51 Q180 15 247 15 Z M245 -15 Q152 -15 101 43 Q56 95 56 182 Q56 255 83 329 Q116 418 176 471 Q249 535 353 535 Q446 535 496 477 Q540 425 540 338 Q540 266 512 191 Q480 102 419 49 Q347 -15 245 -15 Z M350 573 L411 720 L458 720 L381 573 L350 573 Z " />
<glyph glyph-name="upsilontonos" unicode="&#x3cd;" horiz-adv-x="538" d="M229 -15 Q143 -15 100 26 Q65 61 65 120 Q65 146 70 167 L145 520 L181 520 L106 166 Q101 139 101 122 Q101 15 232 15 Q318 15 368 63 Q408 101 422 166 L497 520 L533 520 L456 157 Q420 -15 229 -15 Z M319 573 L380 720 L427 720 L350 573 L319 573 Z " />
<glyph glyph-name="omegatonos" unicode="&#x3ce;" horiz-adv-x="772" d="M677 520 L712 520 Q726 428 726 348 Q726 157 650 60 Q592 -15 507 -15 Q373 -15 373 121 Q319 -15 185 -15 Q123 -15 91 26 Q61 64 61 133 Q61 209 94 300.5 Q127 392 200 520 L237 520 Q165 395 134 312 Q98 216 98 134 Q98 15 195 15 Q260 15 309 65 Q353 109 367 179 L409 380 L443 380 L401 179 Q395 152 395 128 Q395 71 427 41 Q454 15 501 15 Q585 15 639 107 Q693 199 693 354 Q693 413 677 520 Z M452 573 L513 720 L560 720 L483 573 L452 573 Z " />
<glyph glyph-name="uni0400" unicode="&#x400;" horiz-adv-x="561" d="M513 383 L506 350 L156 350 L89 33 L468 33 L461 0 L45 0 L198 720 L614 720 L607 687 L228 687 L163 383 L513 383 Z M369 905 L443 768 L411 768 L318 905 L369 905 Z " />
<glyph glyph-name="afii10023" unicode="&#x401;" horiz-adv-x="561" d="M513 383 L506 350 L156 350 L89 33 L468 33 L461 0 L45 0 L198 720 L614 720 L607 687 L228 687 L163 383 L513 383 Z M340 833 L294 833 L307 890 L353 890 L340 833 Z M536 833 L490 833 L503 890 L549 890 L536 833 Z " />
<glyph glyph-name="afii10051" unicode="&#x402;" horiz-adv-x="783" d="M503 1 L510 31 Q544 17 573 17 Q640 17 659 105 L688 241 Q694 271 694 297 Q694 429 527 429 Q428 429 363 370 Q308 319 291 238 L240 0 L203 0 L349 687 L126 687 L133 720 L616 720 L609 687 L386 687 L314 348 Q392 462 539 462 Q637 462 686 415 Q731 374 731 299 Q731 268 724 237 L694 98 Q669 -15 575 -15 Q535 -15 503 1 Z " />
<glyph glyph-name="afii10052" unicode="&#x403;" horiz-adv-x="485" d="M198 720 L578 720 L571 687 L228 687 L82 0 L45 0 L198 720 Z M323 768 L455 905 L510 905 L359 768 L323 768 Z " />
<glyph glyph-name="afii10053" unicode="&#x404;" horiz-adv-x="715" d="M344 -15 Q216 -15 145 70 Q84 144 84 261 Q84 359 125 462 Q172 580 256 651 Q356 735 491 735 Q613 735 676 675 Q737 618 737 509 L700 509 Q700 702 487 702 Q339 702 240 585 Q170 503 138 383 L500 383 L493 350 L131 350 Q122 302 122 263 Q122 142 191 76 Q250 18 345 18 Q455 18 536 82 Q607 138 640 233 L677 233 Q640 114 543 46 Q455 -15 344 -15 Z " />
<glyph glyph-name="afii10054" unicode="&#x405;" horiz-adv-x="643" d="M286 19 Q417 19 488 82 Q550 137 550 223 Q550 281 497 314 Q450 344 340 367 Q153 405 153 525 Q153 626 235 683 Q309 735 432 735 Q543 735 605 683 Q661 637 662 562 L624 562 Q621 633 566 669 Q516 702 431 702 Q306 702 242 644 Q190 598 190 524 Q190 472 236 443 Q277 416 371 396 Q494 370 544 325 Q588 285 588 222 Q588 110 497 44 Q415 -15 283 -15 Q163 -15 100 41 Q44 90 44 176 L81 176 Q81 92 143 52 Q195 19 286 19 Z " />
<glyph glyph-name="afii10055" unicode="&#x406;" horiz-adv-x="207" d="M198 720 L235 720 L82 0 L45 0 L198 720 Z " />
<glyph glyph-name="afii10056" unicode="&#x407;" horiz-adv-x="207" d="M198 720 L235 720 L82 0 L45 0 L198 720 Z M129 833 L83 833 L96 890 L142 890 L129 833 Z M325 833 L279 833 L292 890 L338 890 L325 833 Z " />
<glyph glyph-name="afii10057" unicode="&#x408;" horiz-adv-x="517" d="M34 186 L69 186 Q66 164 66 146 Q66 80 107 47 Q142 18 201 18 Q282 18 336 70 Q384 116 401 196 L513 720 L550 720 L437 192 Q415 89 347 34 Q286 -15 200 -15 Q114 -15 69 33 Q30 74 30 142 Q30 165 34 186 Z " />
<glyph glyph-name="afii10058" unicode="&#x409;" horiz-adv-x="1027" d="M695 0 L448 0 L594 686 L281 686 L114 125 Q91 47 59 21 Q32 0 -20 0 L-12 38 Q24 38 41 54 Q58 70 72 115 L255 720 L638 720 L577 436 L782 436 Q888 436 941 384 Q987 340 987 265 Q987 147 900 70 Q819 0 695 0 Z M492 34 L698 34 Q828 34 897 119 Q949 182 949 264 Q949 335 900 371 Q857 403 782 403 L571 403 L492 34 Z " />
<glyph glyph-name="afii10059" unicode="&#x40a;" horiz-adv-x="1073" d="M619 416 L824 416 Q930 416 986 365 Q1034 322 1034 251 Q1034 193 1004 138 Q970 77 909 41 Q838 0 741 0 L494 0 L575 383 L163 383 L82 0 L45 0 L198 720 L235 720 L170 416 L582 416 L647 720 L684 720 L619 416 Z M824 383 L612 383 L538 34 L744 34 Q880 34 950 126 Q995 186 995 251 Q995 317 944 352 Q900 383 824 383 Z " />
<glyph glyph-name="afii10060" unicode="&#x40b;" horiz-adv-x="783" d="M240 0 L203 0 L349 687 L126 687 L133 720 L616 720 L609 687 L386 687 L314 348 Q392 462 539 462 Q636 462 686 416 Q731 374 731 300 Q731 269 724 237 L673 0 L636 0 L688 241 Q694 271 694 297 Q694 429 527 429 Q428 429 363 370 Q308 319 291 238 L240 0 Z " />
<glyph glyph-name="afii10061" unicode="&#x40c;" horiz-adv-x="580" d="M525 0 L480 0 L215 350 L156 350 L82 0 L45 0 L198 720 L235 720 L163 383 L219 383 L602 720 L649 720 L247 366 L525 0 Z M334 768 L466 905 L521 905 L370 768 L334 768 Z " />
<glyph glyph-name="uni040D" unicode="&#x40d;" horiz-adv-x="673" d="M657 684 L665 720 L701 720 L548 0 L512 0 L645 625 L86 37 L79 0 L45 0 L198 720 L232 720 L98 95 L657 684 Z M400 905 L474 768 L442 768 L349 905 L400 905 Z " />
<glyph glyph-name="afii10062" unicode="&#x40e;" horiz-adv-x="543" d="M646 720 L297 171 Q286 154 266 122 Q211 34 188 12 Q159 -15 120 -15 Q100 -15 78 -7 L84 23 Q105 17 123 17 Q153 17 184 56 Q208 86 257 172 L244 172 L123 720 L160 720 L275 201 L607 720 L646 720 Z M389 768 Q333 769 303 793 Q274 816 274 859 Q274 864 276 878 L276 880 L308 880 Q307 872 307 863 Q307 798 391 798 Q487 798 508 880 L541 880 Q513 770 389 768 Z " />
<glyph glyph-name="afii10145" unicode="&#x40f;" horiz-adv-x="676" d="M551 0 L315 0 L285 -140 L251 -140 L281 0 L45 0 L198 720 L235 720 L89 34 L521 34 L667 720 L704 720 L551 0 Z " />
<glyph glyph-name="afii10017" unicode="&#x410;" horiz-adv-x="642" d="M592 0 L553 0 L514 213 L141 213 L11 0 L-30 0 L409 720 L460 720 L592 0 Z M429 686 L160 245 L509 245 L429 686 Z " />
<glyph glyph-name="afii10018" unicode="&#x411;" horiz-adv-x="624" d="M174 436 L379 436 Q485 436 538 384 Q584 340 584 265 Q584 147 497 70 Q416 0 292 0 L45 0 L198 720 L588 720 L581 687 L228 687 L174 436 Z M379 403 L168 403 L89 34 L295 34 Q425 34 494 119 Q546 182 546 264 Q546 335 497 371 Q454 403 379 403 Z " />
<glyph glyph-name="afii10019" unicode="&#x412;" horiz-adv-x="632" d="M198 720 L434 720 Q533 720 583 678 Q626 642 626 581 Q626 507 571 447 Q523 394 452 378 Q516 369 552 328 Q584 290 584 236 Q584 134 509 68 Q432 0 297 0 L45 0 L198 720 Z M381 364 L159 364 L89 33 L305 33 Q430 33 496 106 Q545 161 545 236 Q545 299 497 333 Q453 364 381 364 Z M439 687 L228 687 L166 396 L385 396 Q490 396 547 467 Q589 517 589 578 Q589 634 546 662 Q507 687 439 687 Z " />
<glyph glyph-name="afii10020" unicode="&#x413;" horiz-adv-x="485" d="M198 720 L578 720 L571 687 L228 687 L82 0 L45 0 L198 720 Z " />
<glyph glyph-name="afii10021" unicode="&#x414;" horiz-adv-x="602" d="M248 720 L630 720 L484 34 L534 34 L497 -140 L463 -140 L493 0 L4 0 L-26 -140 L-59 -140 L-23 34 L18 34 Q81 66 108 173 L248 720 Z M148 179 Q122 78 57 34 L447 34 L585 686 L276 686 L148 179 Z " />
<glyph glyph-name="afii10022" unicode="&#x415;" horiz-adv-x="561" d="M513 383 L506 350 L156 350 L89 33 L468 33 L461 0 L45 0 L198 720 L614 720 L607 687 L228 687 L163 383 L513 383 Z " />
<glyph glyph-name="afii10024" unicode="&#x416;" horiz-adv-x="822" d="M157 720 L193 720 L326 383 L434 383 L506 720 L542 720 L470 383 L576 383 L850 720 L891 720 L606 367 L767 0 L728 0 L575 350 L463 350 L389 0 L353 0 L427 350 L318 350 L19 0 L-25 0 L293 375 L157 720 Z " />
<glyph glyph-name="afii10025" unicode="&#x417;" horiz-adv-x="588" d="M255 -15 Q151 -15 96 34 Q48 78 48 153 L85 153 Q85 83 136 48 Q181 17 259 17 Q388 17 455 107 Q501 169 501 242 Q501 305 456 337 Q417 365 353 365 L271 365 L278 398 L356 398 Q447 398 506 462 Q557 516 557 589 Q557 647 512 677 Q472 703 405 703 Q318 703 258 663 Q206 629 179 567 L138 567 Q172 652 249 696 Q318 735 409 735 Q500 735 551 691 Q596 652 596 591 Q596 505 539 445 Q491 393 419 380 Q477 373 509 332 Q539 296 539 242 Q539 187 513 133 Q482 68 424 30 Q355 -15 255 -15 Z " />
<glyph glyph-name="afii10026" unicode="&#x418;" horiz-adv-x="673" d="M657 684 L665 720 L701 720 L548 0 L512 0 L645 625 L86 37 L79 0 L45 0 L198 720 L232 720 L98 95 L657 684 Z " />
<glyph glyph-name="afii10027" unicode="&#x419;" horiz-adv-x="673" d="M657 684 L665 720 L701 720 L548 0 L512 0 L645 625 L86 37 L79 0 L45 0 L198 720 L232 720 L98 95 L657 684 Z M458 768 Q402 769 372 793 Q343 816 343 859 Q343 864 345 878 L345 880 L377 880 Q376 872 376 863 Q376 798 460 798 Q556 798 577 880 L610 880 Q582 770 458 768 Z " />
<glyph glyph-name="afii10028" unicode="&#x41a;" horiz-adv-x="580" d="M525 0 L480 0 L215 350 L156 350 L82 0 L45 0 L198 720 L235 720 L163 383 L219 383 L602 720 L649 720 L247 366 L525 0 Z " />
<glyph glyph-name="afii10029" unicode="&#x41b;" horiz-adv-x="620" d="M648 720 L495 0 L458 0 L603 686 L281 686 L114 125 Q91 47 59 21 Q32 0 -20 0 L-12 38 Q24 38 41 54 Q58 70 72 115 L255 720 L648 720 Z " />
<glyph glyph-name="afii10030" unicode="&#x41c;" horiz-adv-x="829" d="M405 0 L360 0 L225 682 L81 0 L45 0 L198 720 L254 720 L388 35 L799 720 L857 720 L704 0 L668 0 L811 677 L405 0 Z " />
<glyph glyph-name="afii10031" unicode="&#x41d;" horiz-adv-x="676" d="M667 720 L704 720 L551 0 L514 0 L588 351 L156 351 L82 0 L45 0 L198 720 L235 720 L163 385 L595 385 L667 720 Z " />
<glyph glyph-name="afii10032" unicode="&#x41e;" horiz-adv-x="744" d="M481 702 Q287 702 186 519 Q147 448 129 362 Q117 306 117 255 Q117 134 185 71 Q242 18 335 18 Q527 18 630 201 Q669 272 687 358 Q699 415 699 465 Q699 586 630 649 Q573 702 481 702 Z M333 -15 Q211 -15 142 65 Q80 137 80 257 Q80 357 119 460 Q165 579 248 650 Q347 735 483 735 Q605 735 674 655 Q736 583 736 463 Q736 363 697 260 Q651 141 568 70 Q469 -15 333 -15 Z " />
<glyph glyph-name="afii10033" unicode="&#x41f;" horiz-adv-x="676" d="M198 720 L704 720 L551 0 L514 0 L659 686 L227 686 L82 0 L45 0 L198 720 Z " />
<glyph glyph-name="afii10034" unicode="&#x420;" horiz-adv-x="624" d="M198 720 L439 720 Q545 720 598 668 Q644 624 644 549 Q644 480 611 421 Q576 359 513 323 Q444 284 352 284 L142 284 L82 0 L45 0 L198 720 Z M439 687 L228 687 L149 318 L355 318 Q480 318 551 398 Q606 462 606 548 Q606 619 558 655 Q515 687 439 687 Z " />
<glyph glyph-name="afii10035" unicode="&#x421;" horiz-adv-x="715" d="M339 -15 Q211 -15 140 70 Q79 144 79 261 Q79 359 120 462 Q167 580 251 651 Q351 735 486 735 Q608 735 671 675 Q732 618 732 509 L695 509 Q695 702 482 702 Q360 702 270 622 Q196 555 153 444 Q117 349 117 263 Q117 142 186 76 Q245 18 340 18 Q450 18 531 82 Q602 138 635 233 L672 233 Q635 114 538 46 Q450 -15 339 -15 Z " />
<glyph glyph-name="afii10036" unicode="&#x422;" horiz-adv-x="563" d="M656 720 L649 687 L406 687 L260 0 L223 0 L369 687 L126 687 L133 720 L656 720 Z " />
<glyph glyph-name="afii10037" unicode="&#x423;" horiz-adv-x="543" d="M646 720 L297 171 Q286 154 266 122 Q211 34 188 12 Q159 -15 120 -15 Q100 -15 78 -7 L84 23 Q105 17 123 17 Q153 17 184 56 Q208 86 257 172 L244 172 L123 720 L160 720 L275 201 L607 720 L646 720 Z " />
<glyph glyph-name="afii10038" unicode="&#x424;" horiz-adv-x="771" d="M480 720 L517 720 L513 700 Q630 698 699 617 Q760 546 760 439 Q760 337 715 244 Q667 145 582 86 Q488 21 368 20 L364 0 L327 0 L331 20 Q214 22 144 103 Q83 174 83 281 Q83 383 128 476 Q176 575 261 634 Q355 699 475 700 L480 720 Z M120 281 Q120 170 191 106 Q249 53 338 52 L469 668 Q367 667 285 611 Q208 558 164 470 Q120 382 120 281 Z M723 439 Q723 549 653 613 Q594 666 506 668 L375 52 Q476 53 558 109 Q635 161 679 250 Q723 338 723 439 Z " />
<glyph glyph-name="afii10039" unicode="&#x425;" horiz-adv-x="596" d="M680 720 L361 371 L536 0 L495 0 L333 344 L27 0 L-20 0 L315 374 L153 720 L194 720 L342 401 L635 720 L680 720 Z " />
<glyph glyph-name="afii10040" unicode="&#x426;" horiz-adv-x="676" d="M45 0 L198 720 L235 720 L89 34 L521 34 L667 720 L704 720 L558 34 L608 34 L571 -140 L537 -140 L567 0 L45 0 Z " />
<glyph glyph-name="afii10041" unicode="&#x427;" horiz-adv-x="625" d="M616 720 L653 720 L500 0 L463 0 L542 372 Q464 258 315 258 Q219 258 169 306 Q125 348 125 423 Q125 451 133 488 L183 720 L220 720 L168 479 Q162 453 162 424 Q162 291 329 291 Q427 291 492 350 Q547 401 565 482 L616 720 Z " />
<glyph glyph-name="afii10042" unicode="&#x428;" horiz-adv-x="987" d="M978 720 L1015 720 L862 0 L45 0 L198 720 L235 720 L89 34 L442 34 L588 720 L625 720 L479 34 L832 34 L978 720 Z " />
<glyph glyph-name="afii10043" unicode="&#x429;" horiz-adv-x="987" d="M978 720 L1015 720 L869 34 L919 34 L882 -140 L848 -140 L878 0 L45 0 L198 720 L235 720 L89 34 L442 34 L588 720 L625 720 L479 34 L832 34 L978 720 Z " />
<glyph glyph-name="afii10044" unicode="&#x42a;" horiz-adv-x="804" d="M472 0 L225 0 L371 687 L116 687 L123 720 L415 720 L354 436 L559 436 Q665 436 718 384 Q764 340 764 265 Q764 147 677 70 Q596 0 472 0 Z M269 34 L475 34 Q605 34 674 119 Q726 182 726 264 Q726 335 677 371 Q634 403 559 403 L348 403 L269 34 Z " />
<glyph glyph-name="afii10045" unicode="&#x42b;" horiz-adv-x="742" d="M89 34 L295 34 Q425 34 494 119 Q546 182 546 264 Q546 335 497 371 Q454 403 379 403 L168 403 L89 34 Z M292 0 L45 0 L198 720 L235 720 L174 436 L379 436 Q485 436 538 384 Q584 340 584 265 Q584 147 497 70 Q416 0 292 0 Z M733 720 L770 720 L617 0 L580 0 L733 720 Z " />
<glyph glyph-name="afii10046" unicode="&#x42c;" horiz-adv-x="624" d="M89 34 L295 34 Q425 34 494 119 Q546 182 546 264 Q546 335 497 371 Q454 403 379 403 L168 403 L89 34 Z M292 0 L45 0 L198 720 L235 720 L174 436 L379 436 Q485 436 538 384 Q584 340 584 265 Q584 147 497 70 Q416 0 292 0 Z " />
<glyph glyph-name="afii10047" unicode="&#x42d;" horiz-adv-x="715" d="M310 -15 Q183 -15 117 54 Q62 112 62 206 Q62 224 63 233 L99 233 Q98 225 98 211 Q98 113 163 62 Q219 18 313 18 Q447 18 542 120 Q624 208 656 350 L290 350 L297 383 L662 383 Q670 431 670 468 Q670 589 602 650 Q546 702 452 702 Q343 702 265 647 Q193 598 157 509 L118 509 Q161 625 263 685 Q347 735 455 735 Q578 735 646 658 Q708 588 708 469 Q708 357 665 251 Q619 133 535 64 Q438 -15 310 -15 Z " />
<glyph glyph-name="afii10048" unicode="&#x42e;" horiz-adv-x="1004" d="M603 -15 Q482 -15 417 65 Q360 136 360 257 Q360 300 369 351 L151 351 L77 0 L40 0 L193 720 L230 720 L158 385 L376 385 Q413 540 508 635 Q609 735 753 735 Q873 735 938 655 Q996 584 996 463 Q996 363 957 260 Q912 141 831 70 Q735 -15 603 -15 Z M751 702 Q564 702 465 519 Q426 448 409 362 Q397 305 397 255 Q397 132 460 71 Q513 18 605 18 Q791 18 891 201 Q929 272 947 358 Q959 415 959 465 Q959 587 896 649 Q842 702 751 702 Z " />
<glyph glyph-name="afii10049" unicode="&#x42f;" horiz-adv-x="633" d="M26 0 L-20 0 L245 309 Q120 344 120 459 Q120 522 150 580 Q182 642 239 679 Q303 720 387 720 L661 720 L508 0 L471 0 L535 304 L285 304 L26 0 Z M159 461 Q159 399 203 366 Q240 338 299 338 L542 338 L616 687 L378 687 Q271 687 207 602 Q159 538 159 461 Z " />
<glyph glyph-name="afii10065" unicode="&#x430;" horiz-adv-x="520" d="M145 390 L109 390 Q131 460 196 500 Q254 535 329 535 Q406 535 449 497 Q487 462 487 406 Q487 385 483 368 L405 0 L376 0 L389 93 Q308 -15 183 -15 Q112 -15 71 20 Q33 51 33 103 Q33 194 110 243 Q166 279 271 296 L437 322 L448 375 Q451 392 451 406 Q451 455 414 482 Q381 505 325 505 Q256 505 204 468 Q161 437 145 390 Z M407 183 L431 292 L281 268 Q161 249 112 203 Q72 166 72 105 Q72 58 110 35 Q142 16 195 16 Q269 16 333 68 Q392 116 407 183 Z " />
<glyph glyph-name="afii10066" unicode="&#x431;" horiz-adv-x="565" d="M344 453 Q230 453 156 365 Q93 289 93 184 Q93 100 138 55 Q177 15 245 15 Q359 15 434 115 Q494 196 494 295 Q494 373 449 416 Q409 453 344 453 Z M117 350 Q157 415 225 452 Q284 483 346 483 Q437 483 487 424 Q531 374 531 294 Q531 215 494 144 Q456 73 392 30 Q325 -15 245 -15 Q154 -15 105 38 Q58 89 58 184 Q58 225 71 290 Q105 456 163 536 Q227 625 341 652 Q443 676 473.5 688 Q504 700 508 720 L550 720 Q543 684 491 662 Q463 650 379 632 Q369 630 362 628 Q260 605 205 537 Q155 477 117 350 Z " />
<glyph glyph-name="afii10067" unicode="&#x432;" horiz-adv-x="498" d="M239 0 L40 0 L150 520 L342 520 Q413 520 451 491 Q487 465 487 419 Q487 356 440 316 Q404 285 346 271 Q395 262 423 232 Q450 204 450 164 Q450 92 397 47 Q341 0 239 0 Z M238 32 Q338 32 382 80 Q413 112 413 162 Q413 208 370 234 Q335 255 287 255 L130 255 L82 32 L238 32 Z M292 288 Q354 288 402 325 Q450 362 450 416 Q450 488 338 488 L179 488 L137 288 L292 288 Z " />
<glyph glyph-name="afii10068" unicode="&#x433;" horiz-adv-x="379" d="M76 0 L40 0 L150 520 L429 520 L422 488 L179 488 L76 0 Z " />
<glyph glyph-name="afii10069" unicode="&#x434;" horiz-adv-x="521" d="M-14 32 L27 32 L31 35 Q51 50 60 64.5 Q69 79 77 107 L185 520 L511 520 L407 32 L447 32 L411 -140 L377 -140 L407 0 L14 0 L-16 -140 L-49 -140 L-14 32 Z M115 114 Q102 64 62 32 L371 32 L468 488 L212 488 L115 114 Z " />
<glyph glyph-name="afii10070" unicode="&#x435;" horiz-adv-x="568" d="M454 138 L492 138 Q458 63 388 21 Q326 -15 253 -15 Q157 -15 104 45 Q57 98 57 187 Q57 267 89 343 Q124 428 186 478 Q256 535 350 535 Q440 535 490 480 Q536 429 536 340 Q536 297 526 251 L100 251 Q93 217 93 184 Q93 95 145 52 Q188 16 257 16 Q325 16 379 52 Q428 84 454 138 Z M348 505 Q262 505 194 440 Q132 380 106 282 L494 282 Q499 317 499 340 Q499 426 451 469 Q412 505 348 505 Z " />
<glyph glyph-name="afii10072" unicode="&#x436;" horiz-adv-x="698" d="M110 520 L149 520 L266 299 L355 299 L402 520 L436 520 L389 299 L475 299 L686 520 L728 520 L500 280 L653 0 L613 0 L468 267 L382 267 L326 0 L292 0 L348 267 L265 267 L10 0 L-35 0 L236 286 L110 520 Z " />
<glyph glyph-name="afii10073" unicode="&#x437;" horiz-adv-x="467" d="M306 505 Q234 505 182 466 Q138 433 117 380 L79 380 Q107 456 173 498 Q233 535 309 535 Q381 535 421 501 Q456 472 456 425 Q456 363 409 320 Q372 286 314 271 Q362 261 391 232 Q419 202 419 162 Q419 85 357 34 Q298 -15 204 -15 Q116 -15 71 33 Q33 73 33 138 L33 147 L68 147 L68 139 Q68 78 105 46 Q140 16 203 16 Q292 16 342 65 Q382 104 382 161 Q382 207 339 234 Q304 255 256 255 L211 255 L218 288 L261 288 Q323 288 373 329 Q420 369 420 422 Q420 462 390.5 483.5 Q361 505 306 505 Z " />
<glyph glyph-name="afii10074" unicode="&#x438;" horiz-adv-x="547" d="M76 0 L40 0 L150 520 L186 520 L92 78 L496 498 L501 520 L537 520 L427 0 L391 0 L485 442 L80 22 L76 0 Z " />
<glyph glyph-name="afii10075" unicode="&#x439;" horiz-adv-x="547" d="M76 0 L40 0 L150 520 L186 520 L92 78 L496 498 L501 520 L537 520 L427 0 L391 0 L485 442 L80 22 L76 0 Z M369 598 Q313 599 283 623 Q254 646 254 689 Q254 694 256 708 L256 710 L288 710 Q287 702 287 693 Q287 628 371 628 Q467 628 488 710 L521 710 Q493 600 369 598 Z " />
<glyph glyph-name="afii10076" unicode="&#x43a;" horiz-adv-x="474" d="M76 0 L40 0 L150 520 L186 520 L139 299 L194 299 L457 520 L504 520 L221 280 L429 0 L387 0 L187 267 L132 267 L76 0 Z " />
<glyph glyph-name="afii10077" unicode="&#x43b;" horiz-adv-x="508" d="M388 0 L352 0 L455 488 L202 488 L94 113 Q75 48 50.5 24 Q26 0 -20 0 L-13 33 Q14 33 26 45 Q43 61 57 109 L176 520 L498 520 L388 0 Z " />
<glyph glyph-name="afii10078" unicode="&#x43c;" horiz-adv-x="637" d="M300 0 L256 0 L176 479 L75 0 L40 0 L150 520 L205 520 L285 38 L569 520 L627 520 L517 0 L481 0 L581 474 L300 0 Z " />
<glyph glyph-name="afii10079" unicode="&#x43d;" horiz-adv-x="552" d="M76 0 L40 0 L150 520 L186 520 L136 285 L456 285 L506 520 L542 520 L432 0 L396 0 L449 253 L129 253 L76 0 Z " />
<glyph glyph-name="afii10080" unicode="&#x43e;" horiz-adv-x="565" d="M247 15 Q383 15 455 152 Q503 243 503 339 Q503 426 457 469 Q417 505 350 505 Q211 505 140 368 Q93 279 93 181 Q93 95 140 51 Q180 15 247 15 Z M245 -15 Q152 -15 101 43 Q56 95 56 182 Q56 255 83 329 Q116 418 176 471 Q249 535 353 535 Q446 535 496 477 Q540 425 540 338 Q540 266 512 191 Q480 102 419 49 Q347 -15 245 -15 Z " />
<glyph glyph-name="afii10081" unicode="&#x43f;" horiz-adv-x="552" d="M76 0 L40 0 L150 520 L542 520 L432 0 L396 0 L499 488 L179 488 L76 0 Z " />
<glyph glyph-name="afii10082" unicode="&#x440;" horiz-adv-x="568" d="M372 535 Q457 535 502 483 Q543 435 543 351 Q543 272 514 193 Q482 102 423 48 Q353 -15 258 -15 Q190 -15 146 25 Q109 58 99 109 L37 -180 L1 -180 L150 520 L179 520 L162 411 Q201 472 257 504 Q311 535 372 535 Z M256 15 Q385 15 457 155 Q507 252 507 352 Q507 433 463 472 Q426 505 364 505 Q243 505 171 380 Q116 286 116 173 Q116 91 160 49 Q196 15 256 15 Z " />
<glyph glyph-name="afii10083" unicode="&#x441;" horiz-adv-x="534" d="M438 147 L475 147 Q447 70 375 25 Q311 -15 235 -15 Q148 -15 99 41 Q55 92 55 178 Q55 261 88 341 Q123 427 185 478 Q255 535 346 535 Q433 535 481 487 Q521 446 521 380 L483 380 Q483 441 443 475 Q406 505 345 505 Q219 505 144 377 Q90 284 90 178 Q90 93 138 51 Q177 16 240 16 Q310 16 368 58 Q418 94 438 147 Z " />
<glyph glyph-name="afii10084" unicode="&#x442;" horiz-adv-x="472" d="M214 0 L178 0 L281 488 L78 488 L85 520 L527 520 L520 488 L317 488 L214 0 Z " />
<glyph glyph-name="afii10085" unicode="&#x443;" horiz-adv-x="490" d="M540 520 L244 -3 Q170 -134 144 -162 Q114 -195 70 -195 Q43 -195 17 -183 L24 -154 Q48 -165 73 -165 Q103 -165 124.5 -138.5 Q146 -112 207 0 L193 0 L90 520 L126 520 L223 26 L501 520 L540 520 Z " />
<glyph glyph-name="afii10086" unicode="&#x444;" horiz-adv-x="826" d="M508 720 L544 720 L479 416 Q514 474 563 505 Q609 535 660 535 Q730 535 767 485 Q802 439 802 359 Q802 283 775 202 Q745 108 691 52 Q629 -15 546 -15 Q488 -15 452 25 Q423 58 414 112 L352 -180 L316 -180 L376 102 Q341 44 293 13 Q248 -15 200 -15 Q131 -15 91 39 Q55 89 55 173 Q55 249 80 327 Q110 417 161 471 Q222 535 304 535 Q364 535 402 492 Q432 458 441 403 L508 720 Z M308 505 Q200 505 137 372 Q92 277 92 172 Q92 90 129 49 Q159 15 208 15 Q313 15 376 152 Q421 250 421 352 Q421 435 381 475 Q351 505 308 505 Z M544 15 Q652 15 718 155 Q766 257 766 361 Q766 437 730 474 Q701 505 652 505 Q545 505 480 366 Q433 267 433 163 Q433 86 468 47 Q497 15 544 15 Z " />
<glyph glyph-name="afii10087" unicode="&#x445;" horiz-adv-x="504" d="M523 520 L289 274 L444 0 L403 0 L262 249 L27 0 L-20 0 L242 275 L99 520 L141 520 L269 300 L477 520 L523 520 Z " />
<glyph glyph-name="afii10088" unicode="&#x446;" horiz-adv-x="552" d="M506 520 L542 520 L438 32 L478 32 L442 -140 L408 -140 L438 0 L40 0 L150 520 L186 520 L82 32 L402 32 L506 520 Z " />
<glyph glyph-name="afii10089" unicode="&#x447;" horiz-adv-x="537" d="M140 520 L176 520 L135 327 Q130 307 130 282 Q130 178 251 178 Q324 178 387 236 Q442 288 457 358 L491 520 L527 520 L417 0 L381 0 L435 257 Q396 200 337 171 Q289 148 241 148 Q170 148 131 186 Q94 222 94 281 Q94 305 100 330 L140 520 Z " />
<glyph glyph-name="afii10090" unicode="&#x448;" horiz-adv-x="807" d="M761 520 L797 520 L687 0 L40 0 L150 520 L186 520 L82 32 L352 32 L456 520 L492 520 L388 32 L657 32 L761 520 Z " />
<glyph glyph-name="afii10091" unicode="&#x449;" horiz-adv-x="807" d="M761 520 L797 520 L693 32 L733 32 L697 -140 L663 -140 L693 0 L40 0 L150 520 L186 520 L82 32 L352 32 L456 520 L492 520 L388 32 L657 32 L761 520 Z " />
<glyph glyph-name="afii10092" unicode="&#x44a;" horiz-adv-x="632" d="M80 520 L315 520 L275 333 L410 333 Q503 333 547 290 Q582 256 582 202 Q582 116 527 63 Q461 0 325 0 L169 0 L272 488 L73 488 L80 520 Z M406 301 L268 301 L211 32 L331 32 Q465 32 516 103 Q545 143 545 202 Q545 301 406 301 Z " />
<glyph glyph-name="afii10093" unicode="&#x44b;" horiz-adv-x="614" d="M150 520 L186 520 L146 333 L281 333 Q374 333 418 290 Q453 256 453 202 Q453 116 398 63 Q332 0 196 0 L40 0 L150 520 Z M277 301 L139 301 L82 32 L202 32 Q336 32 387 103 Q416 143 416 202 Q416 301 277 301 Z M494 0 L458 0 L568 520 L604 520 L494 0 Z " />
<glyph glyph-name="afii10094" unicode="&#x44c;" horiz-adv-x="503" d="M150 520 L186 520 L146 333 L281 333 Q374 333 418 290 Q453 256 453 202 Q453 116 398 63 Q332 0 196 0 L40 0 L150 520 Z M277 301 L139 301 L82 32 L202 32 Q336 32 387 103 Q416 143 416 202 Q416 301 277 301 Z " />
<glyph glyph-name="afii10095" unicode="&#x44d;" horiz-adv-x="534" d="M45 147 L82 147 Q82 85 127 48 Q167 16 232 16 Q321 16 381 81 Q437 142 461 253 L212 253 L219 285 L467 285 Q472 323 472 348 Q472 431 431 471 Q396 505 336 505 Q257 505 200 466 Q150 433 130 380 L91 380 Q121 456 192 498 Q256 535 339 535 Q423 535 467 481 Q508 432 508 345 Q508 266 482 189 Q452 100 394 47 Q326 -15 229 -15 Q139 -15 88 36 Q45 80 45 147 Z " />
<glyph glyph-name="afii10096" unicode="&#x44e;" horiz-adv-x="767" d="M457 -15 Q366 -15 319 43 Q278 94 278 182 Q278 214 284 253 L129 253 L76 0 L40 0 L150 520 L186 520 L136 285 L291 285 Q320 397 387 464 Q460 535 565 535 Q656 535 702 477 Q742 426 742 338 Q742 266 715 191 Q683 102 624 49 Q554 -15 457 -15 Z M459 15 Q588 15 658 152 Q705 243 705 339 Q705 505 562 505 Q430 505 361 368 Q315 278 315 181 Q315 15 459 15 Z " />
<glyph glyph-name="afii10097" unicode="&#x44f;" horiz-adv-x="523" d="M24 0 L-20 0 L191 212 Q148 224 124 257 Q102 287 102 328 Q102 406 152 457 Q213 520 338 520 L513 520 L403 0 L367 0 L410 207 L232 207 L24 0 Z M242 239 L417 239 L470 488 L331 488 Q214 488 167 423 Q139 384 139 328 Q139 283 170 260 Q197 239 242 239 Z " />
<glyph glyph-name="uni0450" unicode="&#x450;" horiz-adv-x="568" d="M454 138 L492 138 Q458 63 388 21 Q326 -15 253 -15 Q157 -15 104 45 Q57 98 57 187 Q57 267 89 343 Q124 428 186 478 Q256 535 350 535 Q440 535 490 480 Q536 429 536 340 Q536 297 526 251 L100 251 Q93 217 93 184 Q93 95 145 52 Q188 16 257 16 Q325 16 379 52 Q428 84 454 138 Z M348 505 Q262 505 194 440 Q132 380 106 282 L494 282 Q499 317 499 340 Q499 426 451 469 Q412 505 348 505 Z M322 735 L396 598 L364 598 L271 735 L322 735 Z " />
<glyph glyph-name="afii10071" unicode="&#x451;" horiz-adv-x="568" d="M454 138 L492 138 Q458 63 388 21 Q326 -15 253 -15 Q157 -15 104 45 Q57 98 57 187 Q57 267 89 343 Q124 428 186 478 Q256 535 350 535 Q440 535 490 480 Q536 429 536 340 Q536 297 526 251 L100 251 Q93 217 93 184 Q93 95 145 52 Q188 16 257 16 Q325 16 379 52 Q428 84 454 138 Z M348 505 Q262 505 194 440 Q132 380 106 282 L494 282 Q499 317 499 340 Q499 426 451 469 Q412 505 348 505 Z M306 663 L260 663 L273 720 L319 720 L306 663 Z M502 663 L456 663 L469 720 L515 720 L502 663 Z " />
<glyph glyph-name="afii10099" unicode="&#x452;" horiz-adv-x="547" d="M508 360 L414 -82 Q389 -195 296 -195 Q256 -195 224 -179 L231 -149 Q265 -163 294 -163 Q361 -163 380 -75 L472 358 Q477 379 477 399 Q477 453 441 480 Q409 505 353 505 Q283 505 219 449 Q159 397 144 323 L76 0 L40 0 L171 620 L117 620 L124 651 L178 651 L193 720 L229 720 L214 651 L395 651 L388 620 L207 620 L165 422 Q204 480 261 510 Q310 535 363 535 Q437 535 478 495 Q513 460 513 403 Q513 385 508 360 Z " />
<glyph glyph-name="afii10100" unicode="&#x453;" horiz-adv-x="379" d="M76 0 L40 0 L150 520 L429 520 L422 488 L179 488 L76 0 Z M234 598 L366 735 L421 735 L270 598 L234 598 Z " />
<glyph glyph-name="afii10101" unicode="&#x454;" horiz-adv-x="534" d="M438 147 L475 147 Q447 70 375 25 Q311 -15 235 -15 Q148 -15 99 41 Q55 92 55 178 Q55 261 88 341 Q123 427 185 478 Q255 535 346 535 Q433 535 481 487 Q521 446 521 380 L483 380 Q483 441 443 475 Q406 505 345 505 Q249 505 180 428 Q130 371 105 285 L355 285 L348 253 L98 253 Q90 218 90 178 Q90 93 138 51 Q177 16 240 16 Q310 16 368 58 Q418 94 438 147 Z " />
<glyph glyph-name="afii10102" unicode="&#x455;" horiz-adv-x="491" d="M207 16 Q291 16 345 59 Q394 99 394 160 Q394 205 351 228 Q316 247 237 259 Q168 270 131 304 Q98 335 98 381 Q98 453 158 496 Q214 535 307 535 Q392 535 438 491 Q478 454 478 395 L442 395 L442 405 Q442 452 401 480 Q364 505 302 505 Q213 505 169 462 Q135 429 135 379 Q135 342 165.5 321 Q196 300 269 288 Q433 261 433 161 Q433 83 368 33 Q305 -15 205 -15 Q118 -15 70 28 Q30 63 30 117 Q30 124 31 133 L67 133 Q66 126 66 119 Q66 69 107 41 Q145 16 207 16 Z " />
<glyph glyph-name="afii10103" unicode="&#x456;" horiz-adv-x="192" d="M74 0 L38 0 L148 520 L184 520 L74 0 Z M219 663 L173 663 L186 720 L232 720 L219 663 Z " />
<glyph glyph-name="afii10104" unicode="&#x457;" horiz-adv-x="192" d="M74 0 L38 0 L148 520 L184 520 L74 0 Z M121 663 L75 663 L88 720 L134 720 L121 663 Z M317 663 L271 663 L284 720 L330 720 L317 663 Z " />
<glyph glyph-name="afii10105" unicode="&#x458;" horiz-adv-x="192" d="M-134 -179 L-127 -149 Q-93 -163 -64 -163 Q3 -163 22 -75 L148 520 L184 520 L56 -82 Q31 -195 -62 -195 Q-102 -195 -134 -179 Z M219 663 L173 663 L186 720 L232 720 L219 663 Z " />
<glyph glyph-name="afii10106" unicode="&#x459;" horiz-adv-x="785" d="M176 520 L468 520 L428 333 L563 333 Q656 333 700 290 Q735 256 735 202 Q735 116 680 63 Q614 0 478 0 L322 0 L425 488 L202 488 L94 113 Q75 48 50.5 24 Q26 0 -20 0 L-13 33 Q14 33 26 45 Q43 61 57 109 L176 520 Z M559 301 L421 301 L364 32 L484 32 Q618 32 669 103 Q698 143 698 202 Q698 301 559 301 Z " />
<glyph glyph-name="afii10107" unicode="&#x45a;" horiz-adv-x="829" d="M476 520 L512 520 L472 333 L607 333 Q700 333 744 290 Q779 256 779 202 Q779 116 724 63 Q658 0 522 0 L366 0 L419 253 L129 253 L76 0 L40 0 L150 520 L186 520 L136 285 L426 285 L476 520 Z M603 301 L465 301 L408 32 L528 32 Q662 32 713 103 Q742 143 742 202 Q742 301 603 301 Z " />
<glyph glyph-name="afii10108" unicode="&#x45b;" horiz-adv-x="547" d="M76 0 L40 0 L171 620 L117 620 L124 651 L178 651 L193 720 L229 720 L214 651 L395 651 L388 620 L207 620 L165 422 Q204 480 261 510 Q310 535 363 535 Q437 535 478 495 Q513 460 513 403 Q513 385 508 360 L432 0 L396 0 L472 358 Q477 379 477 399 Q477 453 441 480 Q409 505 353 505 Q283 505 219 449 Q159 397 144 323 L76 0 Z " />
<glyph glyph-name="afii10109" unicode="&#x45c;" horiz-adv-x="474" d="M76 0 L40 0 L150 520 L186 520 L139 299 L194 299 L457 520 L504 520 L221 280 L429 0 L387 0 L187 267 L132 267 L76 0 Z M275 598 L407 735 L462 735 L311 598 L275 598 Z " />
<glyph glyph-name="uni045D" unicode="&#x45d;" horiz-adv-x="547" d="M76 0 L40 0 L150 520 L186 520 L92 78 L496 498 L501 520 L537 520 L427 0 L391 0 L485 442 L80 22 L76 0 Z M292 735 L366 598 L334 598 L241 735 L292 735 Z " />
<glyph glyph-name="afii10110" unicode="&#x45e;" horiz-adv-x="490" d="M540 520 L244 -3 Q170 -134 144 -162 Q114 -195 70 -195 Q43 -195 17 -183 L24 -154 Q48 -165 73 -165 Q103 -165 124.5 -138.5 Q146 -112 207 0 L193 0 L90 520 L126 520 L223 26 L501 520 L540 520 Z M342 598 Q286 599 256 623 Q227 646 227 689 Q227 694 229 708 L229 710 L261 710 Q260 702 260 693 Q260 628 344 628 Q440 628 461 710 L494 710 Q466 600 342 598 Z " />
<glyph glyph-name="afii10193" unicode="&#x45f;" horiz-adv-x="552" d="M506 520 L542 520 L432 0 L253 0 L223 -140 L189 -140 L219 0 L40 0 L150 520 L186 520 L83 34 L403 34 L506 520 Z " />
<glyph glyph-name="uni0462" unicode="&#x462;" horiz-adv-x="782" d="M450 0 L203 0 L349 687 L126 687 L133 720 L616 720 L609 687 L386 687 L332 436 L537 436 Q643 436 696 384 Q742 340 742 265 Q742 147 655 70 Q574 0 450 0 Z M247 34 L453 34 Q583 34 652 119 Q704 182 704 264 Q704 335 655 371 Q612 403 537 403 L326 403 L247 34 Z " />
<glyph glyph-name="uni0463" unicode="&#x463;" horiz-adv-x="503" d="M177 645 L213 645 L186 520 L310 520 L303 489 L179 489 L146 333 L281 333 Q374 333 418 290 Q453 256 453 202 Q453 116 398 63 Q332 0 196 0 L40 0 L144 489 L68 489 L75 520 L150 520 L177 645 Z M277 301 L139 301 L82 32 L202 32 Q336 32 387 103 Q416 143 416 202 Q416 301 277 301 Z " />
<glyph glyph-name="uni0472" unicode="&#x472;" horiz-adv-x="744" d="M333 -15 Q211 -15 142 65 Q80 137 80 257 Q80 357 119 460 Q165 579 248 650 Q347 735 483 735 Q605 735 674 655 Q736 583 736 463 Q736 363 697 260 Q651 141 568 70 Q469 -15 333 -15 Z M335 18 Q490 18 588 140 Q657 225 685 350 L126 350 Q117 298 117 255 Q117 134 185 71 Q242 18 335 18 Z M481 702 Q330 702 232 587 Q164 506 134 385 L692 385 Q699 436 699 465 Q699 586 630 649 Q573 702 481 702 Z " />
<glyph glyph-name="uni0473" unicode="&#x473;" horiz-adv-x="565" d="M245 -15 Q152 -15 101 43 Q56 95 56 182 Q56 255 83 329 Q116 418 176 471 Q249 535 353 535 Q446 535 496 477 Q540 425 540 338 Q540 266 512 191 Q480 102 419 49 Q347 -15 245 -15 Z M247 15 Q353 15 422 102 Q470 163 491 251 L100 251 Q93 215 93 181 Q93 95 140 51 Q180 15 247 15 Z M350 505 Q244 505 176 424 Q129 368 107 282 L498 282 Q503 317 503 339 Q503 426 457 469 Q417 505 350 505 Z " />
<glyph glyph-name="uni0474" unicode="&#x474;" horiz-adv-x="618" d="M123 720 L159 720 L273 28 L682 720 L721 720 L296 0 L241 0 L123 720 Z " />
<glyph glyph-name="uni0475" unicode="&#x475;" horiz-adv-x="490" d="M501 520 L540 520 L229 0 L181 0 L90 520 L127 520 L210 31 L501 520 Z " />
<glyph glyph-name="afii10050" unicode="&#x490;" horiz-adv-x="485" d="M198 720 L544 720 L573 860 L607 860 L571 687 L228 687 L82 0 L45 0 L198 720 Z " />
<glyph glyph-name="afii10098" unicode="&#x491;" horiz-adv-x="379" d="M76 0 L40 0 L150 520 L395 520 L425 660 L459 660 L422 488 L179 488 L76 0 Z " />
<glyph glyph-name="uni0492" unicode="&#x492;" horiz-adv-x="485" d="M578 720 L571 687 L228 687 L163 383 L386 383 L379 350 L156 350 L82 0 L45 0 L119 350 L29 350 L36 383 L126 383 L198 720 L578 720 Z " />
<glyph glyph-name="uni0493" unicode="&#x493;" horiz-adv-x="379" d="M422 488 L179 488 L136 285 L295 285 L288 253 L129 253 L76 0 L40 0 L93 253 L43 253 L50 285 L100 285 L150 520 L429 520 L422 488 Z " />
<glyph glyph-name="uni0496" unicode="&#x496;" horiz-adv-x="819" d="M157 720 L193 720 L326 383 L434 383 L506 720 L542 720 L470 383 L576 383 L850 720 L891 720 L606 367 L752 34 L796 34 L759 -140 L725 -140 L755 0 L728 0 L575 350 L463 350 L389 0 L353 0 L427 350 L318 350 L19 0 L-25 0 L293 375 L157 720 Z " />
<glyph glyph-name="uni0497" unicode="&#x497;" horiz-adv-x="699" d="M110 520 L149 520 L266 299 L355 299 L402 520 L436 520 L389 299 L475 299 L686 520 L728 520 L500 280 L635 32 L670 32 L634 -140 L600 -140 L630 0 L613 0 L468 267 L382 267 L326 0 L292 0 L348 267 L265 267 L10 0 L-35 0 L236 286 L110 520 Z " />
<glyph glyph-name="uni0498" unicode="&#x498;" horiz-adv-x="588" d="M367 -131 Q367 -174 327 -207 Q289 -238 237 -238 Q190 -238 165 -216 Q142 -195 142 -161 L142 -156 L174 -156 L174 -160 Q174 -209 244 -209 Q284 -209 311 -183 Q334 -161 334 -131 Q334 -77 232 -77 L250 -15 Q148 -13 95 35 Q48 79 48 153 L85 153 Q85 83 136 48 Q181 17 259 17 Q388 17 455 107 Q501 169 501 242 Q501 305 456 337 Q417 365 353 365 L271 365 L278 398 L356 398 Q447 398 506 462 Q557 516 557 589 Q557 647 512 677 Q472 703 405 703 Q318 703 258 663 Q206 629 179 567 L138 567 Q172 652 249 696 Q318 735 409 735 Q500 735 551 691 Q596 652 596 591 Q596 505 539 445 Q491 393 419 380 Q477 373 509 332 Q539 296 539 242 Q539 198 521.5 153.5 Q504 109 474 74 Q403 -6 280 -14 L272 -52 Q321 -57 347 -82 Q367 -102 367 -131 Z " />
<glyph glyph-name="uni0499" unicode="&#x499;" horiz-adv-x="467" d="M306 505 Q234 505 182 466 Q138 433 117 380 L79 380 Q107 456 173 498 Q233 535 309 535 Q381 535 421 501 Q456 472 456 425 Q456 363 409 320 Q372 286 314 271 Q362 261 391 232 Q419 202 419 162 Q419 87 360 36 Q303 -12 214 -15 L206 -52 Q255 -57 281 -82 Q301 -102 301 -131 Q301 -174 261 -207 Q223 -238 171 -238 Q124 -238 99 -216 Q76 -195 76 -161 L76 -156 L108 -156 L108 -160 Q108 -209 178 -209 Q218 -209 245 -183 Q268 -161 268 -131 Q268 -77 166 -77 L184 -14 Q106 -8 66 38 Q33 77 33 138 L33 147 L68 147 L68 139 Q68 78 105 46 Q140 16 203 16 Q292 16 342 65 Q382 104 382 161 Q382 207 339 234 Q304 255 256 255 L211 255 L218 288 L261 288 Q323 288 373 329 Q420 369 420 422 Q420 462 390.5 483.5 Q361 505 306 505 Z " />
<glyph glyph-name="uni049A" unicode="&#x49a;" horiz-adv-x="580" d="M649 720 L247 366 L499 34 L547 34 L510 -140 L476 -140 L506 0 L480 0 L215 350 L156 350 L82 0 L45 0 L198 720 L235 720 L163 383 L219 383 L602 720 L649 720 Z " />
<glyph glyph-name="uni049B" unicode="&#x49b;" horiz-adv-x="474" d="M76 0 L40 0 L150 520 L186 520 L139 299 L194 299 L457 520 L504 520 L221 280 L405 32 L444 32 L408 -140 L374 -140 L404 0 L387 0 L187 267 L132 267 L76 0 Z " />
<glyph glyph-name="uni049C" unicode="&#x49c;" horiz-adv-x="610" d="M184 63 L154 63 L215 350 L156 350 L82 0 L45 0 L198 720 L235 720 L163 383 L222 383 L266 591 L296 591 L252 386 L632 720 L679 720 L277 366 L555 0 L510 0 L245 350 L184 63 Z " />
<glyph glyph-name="uni049D" unicode="&#x49d;" horiz-adv-x="494" d="M199 401 L231 401 L209 299 L214 299 L477 520 L524 520 L241 280 L449 0 L407 0 L207 267 L202 267 L157 53 L125 53 L170 267 L132 267 L76 0 L40 0 L150 520 L186 520 L139 299 L177 299 L199 401 Z " />
<glyph glyph-name="uni04A0" unicode="&#x4a0;" horiz-adv-x="760" d="M705 0 L660 0 L395 350 L336 350 L262 0 L225 0 L371 687 L116 687 L123 720 L415 720 L343 383 L399 383 L782 720 L829 720 L427 366 L705 0 Z " />
<glyph glyph-name="uni04A1" unicode="&#x4a1;" horiz-adv-x="603" d="M205 0 L169 0 L272 488 L73 488 L80 520 L315 520 L268 299 L323 299 L586 520 L633 520 L350 280 L558 0 L516 0 L316 267 L261 267 L205 0 Z " />
<glyph glyph-name="uni04A2" unicode="&#x4a2;" horiz-adv-x="676" d="M667 720 L704 720 L558 34 L608 34 L571 -140 L537 -140 L567 0 L514 0 L588 351 L156 351 L82 0 L45 0 L198 720 L235 720 L163 385 L595 385 L667 720 Z " />
<glyph glyph-name="uni04A3" unicode="&#x4a3;" horiz-adv-x="552" d="M76 0 L40 0 L150 520 L186 520 L136 285 L456 285 L506 520 L542 520 L438 32 L478 32 L442 -140 L408 -140 L438 0 L396 0 L449 253 L129 253 L76 0 Z " />
<glyph glyph-name="uni04AA" unicode="&#x4aa;" horiz-adv-x="715" d="M442 -149 L478 -149 Q460 -188 423.5 -211.5 Q387 -235 345 -235 Q300 -235 274 -211 Q252 -189 252 -156 Q252 -75 362 -14 Q355 -15 339 -15 Q211 -15 140 70 Q79 144 79 261 Q79 359 120 462 Q167 580 251 651 Q351 735 486 735 Q608 735 671 675 Q732 618 732 509 L695 509 Q695 702 482 702 Q360 702 270 622 Q196 555 153 444 Q117 349 117 263 Q117 142 186 76 Q245 18 340 18 Q450 18 531 82 Q602 138 635 233 L672 233 Q643 139 576 77 Q518 23 439 0 Q379 -18 331 -64 Q285 -108 285 -151 Q285 -205 349 -205 Q411 -205 442 -149 Z " />
<glyph glyph-name="uni04AB" unicode="&#x4ab;" horiz-adv-x="534" d="M323 -149 L359 -149 Q341 -188 304.5 -211.5 Q268 -235 226 -235 Q181 -235 155 -211 Q133 -189 133 -156 Q133 -75 242 -15 L235 -15 Q148 -15 99 41 Q55 92 55 178 Q55 261 88 341 Q123 427 185 478 Q255 535 346 535 Q433 535 481 487 Q521 446 521 380 L483 380 Q483 441 443 475 Q406 505 345 505 Q219 505 144 377 Q90 284 90 178 Q90 93 138 51 Q177 16 240 16 Q310 16 368 58 Q418 94 438 147 L475 147 Q437 42 315 -2 Q243 -28 203 -69 Q166 -108 166 -151 Q166 -205 230 -205 Q292 -205 323 -149 Z " />
<glyph glyph-name="uni04AE" unicode="&#x4ae;" horiz-adv-x="620" d="M123 720 L161 720 L334 314 L682 720 L723 720 L347 281 L288 0 L251 0 L311 283 L123 720 Z " />
<glyph glyph-name="uni04AF" unicode="&#x4af;" horiz-adv-x="490" d="M184 -180 L148 -180 L187 0 L90 520 L127 520 L212 36 L501 520 L540 520 L223 0 L184 -180 Z " />
<glyph glyph-name="uni04B0" unicode="&#x4b0;" horiz-adv-x="620" d="M123 720 L161 720 L334 314 L682 720 L723 720 L368 306 L505 306 L498 273 L345 273 L288 0 L251 0 L309 273 L157 273 L164 306 L301 306 L123 720 Z " />
<glyph glyph-name="uni04B1" unicode="&#x4b1;" horiz-adv-x="490" d="M184 -180 L148 -180 L187 0 L71 0 L77 32 L181 32 L90 520 L127 520 L212 36 L501 520 L540 520 L242 32 L342 32 L336 0 L223 0 L184 -180 Z " />
<glyph glyph-name="uni04B2" unicode="&#x4b2;" horiz-adv-x="595" d="M680 720 L361 371 L520 34 L564 34 L527 -140 L493 -140 L523 0 L495 0 L333 344 L27 0 L-20 0 L315 374 L153 720 L194 720 L342 401 L635 720 L680 720 Z " />
<glyph glyph-name="uni04B3" unicode="&#x4b3;" horiz-adv-x="503" d="M523 520 L289 274 L426 32 L459 32 L423 -140 L389 -140 L419 0 L403 0 L262 249 L27 0 L-20 0 L242 275 L99 520 L141 520 L269 300 L477 520 L523 520 Z " />
<glyph glyph-name="uni04B6" unicode="&#x4b6;" horiz-adv-x="625" d="M616 720 L653 720 L507 34 L557 34 L520 -140 L486 -140 L516 0 L463 0 L542 372 Q464 258 315 258 Q219 258 169 306 Q125 348 125 423 Q125 451 133 488 L183 720 L220 720 L168 479 Q162 446 162 424 Q162 291 329 291 Q427 291 492 350 Q547 401 565 482 L616 720 Z " />
<glyph glyph-name="uni04B7" unicode="&#x4b7;" horiz-adv-x="537" d="M140 520 L176 520 L135 327 Q130 307 130 282 Q130 178 251 178 Q324 178 387 236 Q442 288 457 358 L491 520 L527 520 L424 32 L463 32 L427 -140 L393 -140 L423 0 L381 0 L435 257 Q396 200 337 171 Q289 148 241 148 Q170 148 131 186 Q94 222 94 281 Q94 305 100 330 L140 520 Z " />
<glyph glyph-name="uni04B8" unicode="&#x4b8;" horiz-adv-x="625" d="M296 63 L266 63 L307 258 Q215 260 167 307 Q125 350 125 423 Q125 451 133 488 L183 720 L220 720 L168 479 Q162 446 162 424 Q162 297 314 291 L378 591 L408 591 L344 291 Q436 296 496 354 Q548 404 565 482 L616 720 L653 720 L500 0 L463 0 L542 372 Q471 267 337 258 L296 63 Z " />
<glyph glyph-name="uni04B9" unicode="&#x4b9;" horiz-adv-x="537" d="M289 401 L321 401 L274 180 Q342 190 395 245 Q443 294 457 358 L491 520 L527 520 L417 0 L381 0 L435 257 Q404 212 359.5 184 Q315 156 267 149 L247 53 L215 53 L235 148 Q167 150 129 188 Q94 223 94 281 Q94 305 100 330 L140 520 L176 520 L135 327 Q130 307 130 282 Q130 183 241 178 L289 401 Z " />
<glyph glyph-name="uni04BA" unicode="&#x4ba;" horiz-adv-x="625" d="M82 0 L45 0 L198 720 L235 720 L156 348 Q234 462 381 462 Q478 462 528 416 Q573 374 573 300 Q573 269 566 237 L515 0 L478 0 L530 241 Q536 271 536 297 Q536 429 369 429 Q270 429 205 370 Q150 319 133 238 L82 0 Z " />
<glyph glyph-name="uni04BB" unicode="&#x4bb;" horiz-adv-x="547" d="M76 0 L40 0 L193 720 L229 720 L145 330 Q184 388 241 418 Q290 443 343 443 Q417 443 458 403 Q493 368 493 311 Q493 293 488 268 L432 0 L396 0 L452 266 Q457 287 457 307 Q457 361 421 388 Q389 413 333 413 Q263 413 199 357 Q139 305 124 231 L76 0 Z " />
<glyph glyph-name="uni04C0" unicode="&#x4c0;" horiz-adv-x="207" d="M198 720 L235 720 L82 0 L45 0 L198 720 Z " />
<glyph glyph-name="uni04CB" unicode="&#x4cb;" horiz-adv-x="625" d="M470 34 L542 372 Q464 258 315 258 Q219 258 169 306 Q125 348 125 423 Q125 451 133 488 L183 720 L220 720 L168 479 Q162 446 162 424 Q162 291 329 291 Q427 291 492 350 Q547 401 565 482 L616 720 L653 720 L500 -1 L477 0 L448 -140 L414 -140 L450 34 L470 34 Z " />
<glyph glyph-name="uni04CC" unicode="&#x4cc;" horiz-adv-x="537" d="M388 32 L435 257 Q396 200 337 171 Q289 148 241 148 Q170 148 131 186 Q94 222 94 281 Q94 305 100 330 L140 520 L176 520 L135 327 Q130 307 130 282 Q130 178 251 178 Q324 178 387 236 Q442 288 457 358 L491 520 L527 520 L417 0 L394 0 L365 -140 L331 -140 L367 32 L388 32 Z " />
<glyph glyph-name="uni04CF" unicode="&#x4cf;" horiz-adv-x="207" d="M198 720 L235 720 L82 0 L45 0 L198 720 Z " />
<glyph glyph-name="uni04D4" unicode="&#x4d4;" horiz-adv-x="917" d="M466 213 L176 213 L3 0 L-40 0 L546 720 L970 720 L963 687 L604 687 L539 383 L869 383 L862 350 L532 350 L465 33 L824 33 L817 0 L421 0 L466 213 Z M568 695 L202 245 L473 245 L568 695 Z " />
<glyph glyph-name="uni04D5" unicode="&#x4d5;" horiz-adv-x="927" d="M183 -15 Q112 -15 71 20 Q33 51 33 103 Q33 259 271 296 L437 322 L448 375 Q451 392 451 406 Q451 455 414 482 Q381 505 325 505 Q256 505 204 468 Q161 437 145 390 L109 390 Q131 460 196 500 Q254 535 329 535 Q405 535 445 497 Q481 463 481 405 Q524 475 589 510 Q644 540 708 540 Q798 540 849 484 Q895 433 895 348 Q895 308 887 272 L461 272 Q451 228 451 189 Q451 98 504 55 Q546 21 615 21 Q683 21 737 57 Q786 89 812 143 L850 143 Q816 68 746 26 Q684 -10 611 -10 Q530 -10 480 34 Q437 72 424 138 Q381 54 304 14 Q248 -15 183 -15 Z M431 292 L281 268 Q161 249 112 203 Q72 166 72 105 Q72 58 110 35 Q142 16 195 16 Q269 16 333 68 Q392 116 407 183 L431 292 Z M706 510 Q623 510 551 442 Q489 384 467 303 L855 303 Q859 326 859 351 Q859 432 811 474 Q771 510 706 510 Z " />
<glyph glyph-name="uni04D8" unicode="&#x4d8;" horiz-adv-x="715" d="M308 -15 Q72 -15 72 245 Q72 290 82 355 L657 355 Q670 419 670 475 Q670 594 607 652 Q554 702 461 702 Q244 702 158 519 L119 519 Q209 735 464 735 Q585 735 650 660 Q709 592 709 475 Q709 377 671 272 Q626 148 544 74 Q445 -15 308 -15 Z M311 18 Q434 18 529 112 Q612 193 648 322 L117 322 Q110 279 110 237 Q110 120 171 65 Q222 18 311 18 Z " />
<glyph glyph-name="afii10846" unicode="&#x4d9;" horiz-adv-x="568" d="M142 382 L104 382 Q138 458 208 499 Q269 535 342 535 Q438 535 491 475 Q539 421 539 332 Q539 261 511 186 Q477 99 418 47 Q347 -15 250 -15 Q159 -15 108 41 Q60 93 60 183 Q60 220 71 269 L496 269 Q503 311 503 336 Q503 424 451 468 Q408 504 339 504 Q271 504 217 468 Q168 436 142 382 Z M248 15 Q334 15 402 80 Q464 140 490 238 L102 238 Q97 211 97 178 Q97 93 144 51 Q183 15 248 15 Z " />
<glyph glyph-name="uni04E2" unicode="&#x4e2;" horiz-adv-x="673" d="M657 684 L665 720 L701 720 L548 0 L512 0 L645 625 L86 37 L79 0 L45 0 L198 720 L232 720 L98 95 L657 684 Z M581 831 L351 831 L358 863 L588 863 L581 831 Z " />
<glyph glyph-name="uni04E3" unicode="&#x4e3;" horiz-adv-x="547" d="M76 0 L40 0 L150 520 L186 520 L92 78 L496 498 L501 520 L537 520 L427 0 L391 0 L485 442 L80 22 L76 0 Z M488 661 L258 661 L265 693 L495 693 L488 661 Z " />
<glyph glyph-name="uni04E8" unicode="&#x4e8;" horiz-adv-x="744" d="M333 -15 Q211 -15 142 65 Q80 137 80 257 Q80 357 119 460 Q165 579 248 650 Q347 735 483 735 Q605 735 674 655 Q736 583 736 463 Q736 363 697 260 Q651 141 568 70 Q469 -15 333 -15 Z M335 18 Q490 18 588 140 Q657 225 685 350 L126 350 Q117 298 117 255 Q117 134 185 71 Q242 18 335 18 Z M481 702 Q330 702 232 587 Q164 506 134 385 L692 385 Q699 436 699 465 Q699 586 630 649 Q573 702 481 702 Z " />
<glyph glyph-name="uni04E9" unicode="&#x4e9;" horiz-adv-x="565" d="M245 -15 Q152 -15 101 43 Q56 95 56 182 Q56 255 83 329 Q116 418 176 471 Q249 535 353 535 Q446 535 496 477 Q540 425 540 338 Q540 266 512 191 Q480 102 419 49 Q347 -15 245 -15 Z M247 15 Q353 15 422 102 Q470 163 491 251 L100 251 Q93 215 93 181 Q93 95 140 51 Q180 15 247 15 Z M350 505 Q244 505 176 424 Q129 368 107 282 L498 282 Q503 317 503 339 Q503 426 457 469 Q417 505 350 505 Z " />
<glyph glyph-name="uni04EE" unicode="&#x4ee;" horiz-adv-x="543" d="M646 720 L297 171 Q286 154 266 122 Q211 34 188 12 Q159 -15 120 -15 Q100 -15 78 -7 L84 23 Q105 17 123 17 Q153 17 184 56 Q208 86 257 172 L244 172 L123 720 L160 720 L275 201 L607 720 L646 720 Z M513 831 L283 831 L290 863 L520 863 L513 831 Z " />
<glyph glyph-name="uni04EF" unicode="&#x4ef;" horiz-adv-x="490" d="M540 520 L244 -3 Q170 -134 144 -162 Q114 -195 70 -195 Q43 -195 17 -183 L24 -154 Q48 -165 73 -165 Q103 -165 124.5 -138.5 Q146 -112 207 0 L193 0 L90 520 L126 520 L223 26 L501 520 L540 520 Z M460 661 L230 661 L237 693 L467 693 L460 661 Z " />
</font>
</svg>
