<?xml version="1.0" encoding="UTF-8"?>
<svg xmlns="http://www.w3.org/2000/svg" xmlns:xlink="http://www.w3.org/1999/xlink" version="1.2" >
<font id="CiscoSansTT HeavyOblique">
<font-face  font-family="CiscoSansTT" units-per-em="1000" ascent="905" descent="-212" font-style="italic" font-weight="900" font-stretch="normal" slope="-11" cap-height="720" x-height="520" underline-position="-48" underline-thickness="85" />
<missing-glyph  horiz-adv-x="224" d="M22 0 L22 667 L202 667 L202 0 L22 0 Z M180 22 L180 645 L44 645 L44 22 L180 22 Z " />
<glyph glyph-name="space" unicode="&#x20;" horiz-adv-x="224" d="" />
<glyph glyph-name="exclam" unicode="&#x21;" horiz-adv-x="323" d="M262 242 L82 242 L161 726 L390 726 L262 242 Z M226 0 L16 0 L54 181 L264 181 L226 0 Z " />
<glyph glyph-name="quotedbl" unicode="&#x22;" horiz-adv-x="458" d="M302 626 L253 469 L129 469 L146 626 L168 726 L324 726 L302 626 Z M504 626 L456 469 L331 469 L349 626 L370 726 L526 726 L504 626 Z " />
<glyph glyph-name="numbersign" unicode="&#x23;" horiz-adv-x="600" d="M106 419 L133 547 L191 547 L237 700 L392 700 L346 547 L438 547 L484 700 L639 700 L593 547 L638 547 L611 419 L555 419 L513 281 L561 281 L534 153 L475 153 L430 0 L276 0 L321 153 L229 153 L183 0 L29 0 L74 153 L29 153 L56 281 L111 281 L153 419 L106 419 Z M308 419 L266 281 L358 281 L400 419 L308 419 Z " />
<glyph glyph-name="dollar" unicode="&#x24;" horiz-adv-x="600" d="M611 235 Q611 7 330 -12 L304 -135 L138 -135 L166 -2 Q75 22 32 91 Q1 141 1 205 Q1 207 2 213 Q2 218 2 220 L203 220 Q203 174 235 149 Q263 127 309 127 Q349 127 371 144.5 Q393 162 393 195 Q393 224 364 245 Q335 266 268 284 Q166 312 116 368 Q72 417 72 484 Q72 687 318 711 L343 829 L509 829 L483 704 Q565 685 607 628 Q642 580 642 513 L642 500 L446 500 Q446 530 420.5 549.5 Q395 569 354 569 Q323 569 305.5 554.5 Q288 540 288 514 Q288 461 388 437 Q611 383 611 235 Z " />
<glyph glyph-name="percent" unicode="&#x25;" horiz-adv-x="850" d="M778 700 L287 0 L138 0 L629 700 L778 700 Z M276 715 Q358 715 402 669 Q439 630 439 565 Q439 471 379 417 Q327 369 243 369 Q161 369 118 415 Q81 454 81 519 Q81 614 141 668 Q193 715 276 715 Z M268 618 Q244 618 228.5 590 Q213 562 213 519 Q213 466 251 466 Q276 466 291.5 492.5 Q307 519 307 563 Q307 618 268 618 Z M674 330 Q756 330 800 285 Q837 246 837 181 Q837 87 777 33 Q725 -15 641 -15 Q559 -15 516 30 Q479 69 479 134 Q479 229 539 283 Q592 330 674 330 Z M666 233 Q642 233 626.5 205.5 Q611 178 611 136 Q611 82 650 82 Q675 82 689.5 108 Q704 134 704 179 Q704 233 666 233 Z " />
<glyph glyph-name="ampersand" unicode="&#x26;" horiz-adv-x="685" d="M508 363 L671 341 Q641 250 575 167 L645 85 L507 -21 L448 48 Q362 -15 255 -15 Q137 -15 75 40 Q25 85 25 156 Q25 284 187 359 Q133 422 133 500 Q133 595 198 654 Q265 715 385 715 Q488 715 540 662 Q579 622 579 564 Q579 501 543 454.5 Q507 408 415 351 L473 288 Q488 311 508 363 Z M293 117 Q334 117 368 143 L272 251 Q226 215 226 173 Q226 147 244 132 Q262 117 293 117 Z M309 519 Q309 487 333 455 Q374 482 391 506 Q408 530 408 558 Q408 577 397.5 588 Q387 599 368 599 Q342 599 325.5 577 Q309 555 309 519 Z " />
<glyph glyph-name="quotesingle" unicode="&#x27;" horiz-adv-x="270" d="M303 626 L254 469 L129 469 L147 626 L169 726 L324 726 L303 626 Z " />
<glyph glyph-name="parenleft" unicode="&#x28;" horiz-adv-x="340" d="M474 810 Q319 597 261 453 Q204 310 204 151 Q204 0 261 -170 L102 -170 Q70 -102 51.5 -15 Q33 72 33 160 Q33 480 315 810 L474 810 Z " />
<glyph glyph-name="parenright" unicode="&#x29;" horiz-adv-x="340" d="M123 810 L282 810 Q355 654 355 473 Q355 288 250 84 Q178 -58 77 -170 L-81 -170 Q77 52 135 207 Q183 337 183 478 Q183 634 123 810 Z " />
<glyph glyph-name="asterisk" unicode="&#x2a;" horiz-adv-x="497" d="M364 323 L316 438 L268 323 L132 423 L224 505 L100 515 L152 675 L259 613 L230 735 L398 735 L372 612 L481 675 L533 515 L407 505 L500 422 L364 323 Z " />
<glyph glyph-name="plus" unicode="&#x2b;" horiz-adv-x="600" d="M297 540 L452 540 L420 390 L569 390 L540 249 L390 249 L358 97 L203 97 L236 249 L87 249 L117 390 L265 390 L297 540 Z " />
<glyph glyph-name="comma" unicode="&#x2c;" horiz-adv-x="270" d="M243 181 L209 22 Q186 -84 108 -131 Q46 -169 -61 -176 L-43 -88 Q48 -77 64 0 L-6 0 L32 181 L243 181 Z " />
<glyph glyph-name="hyphen" unicode="&#x2d;" horiz-adv-x="540" d="M504 390 L474 250 L79 250 L109 390 L504 390 Z " />
<glyph glyph-name="period" unicode="&#x2e;" horiz-adv-x="303" d="M217 0 L6 0 L44 181 L255 181 L217 0 Z " />
<glyph glyph-name="slash" unicode="&#x2f;" horiz-adv-x="340" d="M466 735 L88 -90 L-75 -90 L302 735 L466 735 Z " />
<glyph glyph-name="zero" unicode="0" horiz-adv-x="600" d="M289 115 Q359 115 403 284 Q433 398 433 494 Q433 587 377 587 Q312 587 267 422 Q234 303 234 203 Q234 115 289 115 Z M271 -15 Q157 -15 96 56 Q41 121 41 235 Q41 332 68 428 Q103 552 174 625 Q261 715 395 715 Q510 715 570 645 Q626 580 626 466 Q626 368 596 269 Q559 146 487 74 Q399 -15 271 -15 Z " />
<glyph glyph-name="one" unicode="1" horiz-adv-x="600" d="M199 0 L309 519 L138 442 L174 613 L363 700 L540 700 L392 0 L199 0 Z " />
<glyph glyph-name="two" unicode="2" horiz-adv-x="600" d="M296 491 L97 491 Q136 602 228 662 Q309 715 410 715 Q519 715 582 659 Q636 611 636 541 L636 535 Q636 486 614.5 442.5 Q593 399 544 351 Q482 288 291 149 L554 149 L524 0 L13 0 L44 149 L246 302 Q360 388 399 433.5 Q438 479 438 524 Q438 548 424 562 Q410 576 386 576 Q328 576 296 491 Z " />
<glyph glyph-name="three" unicode="3" horiz-adv-x="600" d="M285 120 Q325 120 350 150 Q374 179 374 228 Q374 260 352.5 280 Q331 300 296 300 L215 300 L243 427 L326 427 Q368 427 397 456 Q426 485 426 530 Q426 552 413 564.5 Q400 577 378 577 Q353 577 331 560 Q309 543 296 514 L109 514 Q146 616 230 668 Q305 715 406 715 Q512 715 573 667 Q626 625 626 558 Q626 484 575 432 Q533 389 469 372 Q519 358 547 314 Q571 276 571 229 Q571 166 536 111 Q500 54 434 21 Q362 -15 267 -15 Q149 -15 82 45 Q26 96 26 174 Q26 189 27 197 L219 197 L219 186 Q219 155 236.5 137.5 Q254 120 285 120 Z " />
<glyph glyph-name="four" unicode="4" horiz-adv-x="600" d="M344 700 L615 700 L523 264 L594 264 L566 127 L494 127 L467 0 L281 0 L307 127 L12 127 L43 271 L344 700 Z M336 264 L340 281 L409 537 L228 264 L336 264 Z " />
<glyph glyph-name="five" unicode="5" horiz-adv-x="600" d="M45 196 L232 196 Q233 160 249.5 140.5 Q266 121 296 121 Q340 121 368 176 Q390 220 390 271 Q390 345 322 345 Q280 345 242 307 L88 307 L190 700 L636 700 L608 567 L339 567 L306 444 Q359 471 415 471 Q499 471 548 416 Q592 367 592 290 Q592 206 552 136 Q513 67 443 27 Q370 -15 280 -15 Q166 -15 102 42 Q44 94 44 182 Q44 183 45 190 Q45 195 45 196 Z " />
<glyph glyph-name="six" unicode="6" horiz-adv-x="600" d="M261 413 Q293 442 333.5 459 Q374 476 413 476 Q503 476 552 420 Q595 371 595 293 Q595 148 492 60 Q405 -15 278 -15 Q160 -15 97 59 Q40 124 40 234 Q40 294 56 362 Q96 541 196 633 Q286 715 412 715 Q522 715 587 660 Q642 614 648 542 L444 542 Q443 561 428.5 572 Q414 583 391 583 Q312 583 261 413 Z M336 343 Q292 343 259 301 Q227 261 227 204 Q227 165 246 142 Q263 120 292 120 Q337 120 368 167 Q396 210 396 273 Q396 343 336 343 Z " />
<glyph glyph-name="seven" unicode="7" horiz-adv-x="600" d="M635 566 L265 0 L55 0 L429 559 L123 559 L153 700 L663 700 L635 566 Z " />
<glyph glyph-name="eight" unicode="8" horiz-adv-x="600" d="M399 715 Q502 715 569 667 Q632 623 632 553 Q632 441 492 372 Q536 347 560.5 308.5 Q585 270 585 225 Q585 110 488 43 Q403 -15 271 -15 Q146 -15 75 45 Q17 95 17 168 Q17 236 54.5 282 Q92 328 178 365 Q110 409 110 488 Q110 595 191 657 Q267 715 399 715 Z M314 303 Q222 258 222 184 Q222 156 240.5 138 Q259 120 288 120 Q328 120 356 149 Q382 176 382 217 Q382 270 314 303 Z M382 591 Q348 591 324 563 Q302 537 302 501 Q302 450 360 429 Q396 445 416.5 473.5 Q437 502 437 536 Q437 560 421.5 575.5 Q406 591 382 591 Z " />
<glyph glyph-name="nine" unicode="9" horiz-adv-x="600" d="M343 355 Q389 355 420 405 Q447 448 447 503 Q447 540 429.5 561 Q412 582 382 582 Q332 582 303 534 Q278 492 278 430 Q278 355 343 355 Z M293 115 Q331 115 359.5 155.5 Q388 196 411 283 Q346 221 263 221 Q171 221 122 283 Q80 335 80 416 Q80 565 184 647 Q270 715 401 715 Q521 715 582 645 Q636 583 636 475 Q636 377 609 280 Q574 152 503 78 Q414 -15 277 -15 Q161 -15 93 41 Q33 90 30 166 L235 166 Q235 143 251 129 Q267 115 293 115 Z " />
<glyph glyph-name="colon" unicode="&#x3a;" horiz-adv-x="303" d="M289 339 L78 339 L116 520 L327 520 L289 339 Z M217 0 L6 0 L44 181 L255 181 L217 0 Z " />
<glyph glyph-name="semicolon" unicode="&#x3b;" horiz-adv-x="303" d="M289 339 L78 339 L116 520 L327 520 L289 339 Z M255 181 L221 22 Q198 -84 120 -131 Q58 -169 -49 -176 L-31 -88 Q60 -77 76 0 L6 0 L44 181 L255 181 Z " />
<glyph glyph-name="less" unicode="&#x3c;" horiz-adv-x="600" d="M88 259 L115 382 L613 598 L577 426 L293 315 L531 207 L495 43 L88 259 Z " />
<glyph glyph-name="equal" unicode="&#x3d;" horiz-adv-x="600" d="M590 487 L560 347 L107 347 L137 487 L590 487 Z M548 291 L518 151 L66 151 L95 291 L548 291 Z " />
<glyph glyph-name="greater" unicode="&#x3e;" horiz-adv-x="600" d="M567 382 L541 259 L42 43 L78 215 L362 325 L125 433 L160 598 L567 382 Z " />
<glyph glyph-name="question" unicode="&#x3f;" horiz-adv-x="555" d="M313 535 L112 535 Q142 626 226 683 Q303 735 397 735 Q502 735 560 690 Q609 652 609 591 Q609 520 562 460 Q534 424 443 341 Q408 308 391 238 L204 238 Q220 315 239.5 352 Q259 389 308 435 Q369 493 387.5 517 Q406 541 406 563 Q406 593 374 593 Q337 593 313 535 Z M354 0 L144 0 L182 181 L392 181 L354 0 Z " />
<glyph glyph-name="at" unicode="&#x40;" horiz-adv-x="921" d="M671 87 Q617 87 584 122 Q560 148 559 182 Q543 146 502 121.5 Q461 97 414 97 Q339 97 300 149 Q269 191 269 259 Q269 402 352 483 Q415 545 495 545 Q522 545 543.5 533.5 Q565 522 571 504 L591 536 L711 536 L663 300 Q653 249 653 233 Q653 193 684 193 Q724 193 748 275 Q767 339 767 416 Q767 524 702 573 Q643 617 527 617 Q396 617 311 540 Q213 452 213 279 Q213 19 498 19 Q566 19 655 46 L676 -69 Q586 -101 481 -101 Q366 -101 273 -59 Q176 -16 121 67 Q62 156 62 279 Q62 526 244 649 Q370 735 535 735 Q722 735 826 641 Q919 556 919 416 Q919 270 842 174 Q772 87 671 87 Z M455 204 Q473 204 488.5 226.5 Q504 249 511 286 L525 356 Q531 391 531 400 Q531 435 502 435 Q466 435 441 362 Q421 306 421 250 Q421 204 455 204 Z " />
<glyph glyph-name="A" unicode="A" horiz-adv-x="740" d="M703 0 L487 0 L474 157 L251 157 L172 0 L-43 0 L374 720 L590 720 L703 0 Z M445 539 L320 295 L464 295 L445 539 Z " />
<glyph glyph-name="B" unicode="B" horiz-adv-x="687" d="M170 720 L426 720 Q706 720 706 562 Q706 490 653 440 Q608 397 540 383 Q599 369 634 323 Q666 282 666 232 Q666 0 311 0 L17 0 L170 720 Z M372 312 L291 312 L254 136 L341 136 Q400 136 430 166 Q456 192 456 240 Q456 273 433.5 292.5 Q411 312 372 312 Z M412 584 L349 584 L318 439 L395 439 Q441 439 467 465 Q490 488 490 525 Q490 552 468.5 568 Q447 584 412 584 Z " />
<glyph glyph-name="C" unicode="C" horiz-adv-x="761" d="M383 128 Q444 128 483 169 Q517 204 538 276 L749 276 Q696 118 592 47 Q501 -15 362 -15 Q208 -15 127 77 Q58 155 58 284 Q58 395 96 489 Q141 600 229 662 Q331 735 482 735 Q623 735 708 661 Q785 592 785 481 L785 471 L577 471 Q577 592 470 592 Q367 592 313 469 Q274 383 274 278 Q274 198 309 159 Q337 128 383 128 Z " />
<glyph glyph-name="D" unicode="D" horiz-adv-x="755" d="M170 720 L437 720 Q605 720 692 639 Q769 567 769 442 Q769 253 674 137 Q561 0 328 0 L17 0 L170 720 Z M415 578 L349 578 L256 143 L336 143 Q460 143 519 261 Q556 337 556 429 Q556 507 513 546 Q477 578 415 578 Z " />
<glyph glyph-name="E" unicode="E" horiz-adv-x="614" d="M601 432 L572 294 L288 294 L257 146 L569 146 L539 0 L17 0 L170 720 L692 720 L660 572 L348 572 L318 432 L601 432 Z " />
<glyph glyph-name="F" unicode="F" horiz-adv-x="581" d="M569 418 L539 280 L285 280 L226 0 L17 0 L170 720 L664 720 L633 574 L347 574 L314 418 L569 418 Z " />
<glyph glyph-name="G" unicode="G" horiz-adv-x="771" d="M772 410 L685 0 L542 0 L531 66 Q445 -15 325 -15 Q200 -15 126 72 Q58 150 58 275 Q58 376 92 468 Q135 585 223 653 Q330 735 494 735 Q643 735 723 661 Q790 599 790 498 L583 498 Q581 548 549 572 Q523 592 478 592 Q370 592 313 463 Q275 376 275 279 Q275 199 313 159 Q343 127 391 127 Q458 127 503 165 Q541 197 551 246 L557 275 L404 275 L433 410 L772 410 Z " />
<glyph glyph-name="H" unicode="H" horiz-adv-x="750" d="M598 720 L806 720 L653 0 L445 0 L506 293 L287 293 L226 0 L17 0 L170 720 L379 720 L318 435 L537 435 L598 720 Z " />
<glyph glyph-name="I" unicode="I" horiz-adv-x="323" d="M170 720 L379 720 L226 0 L17 0 L170 720 Z " />
<glyph glyph-name="J" unicode="J" horiz-adv-x="593" d="M23 230 L224 230 Q221 211 221 196 Q221 164 235 146.5 Q249 129 274 129 Q302 129 318 148.5 Q334 168 344 213 L452 720 L654 720 L548 225 Q520 95 448 38 Q380 -15 263 -15 Q145 -15 81 42 Q20 97 20 193 Q20 211 23 230 Z " />
<glyph glyph-name="K" unicode="K" horiz-adv-x="761" d="M721 0 L472 0 L284 276 L226 0 L17 0 L170 720 L379 720 L323 459 L599 720 L840 720 L456 370 L721 0 Z " />
<glyph glyph-name="L" unicode="L" horiz-adv-x="629" d="M170 720 L379 720 L258 151 L600 151 L569 0 L17 0 L170 720 Z " />
<glyph glyph-name="M" unicode="M" horiz-adv-x="916" d="M499 0 L331 0 L280 406 L194 0 L17 0 L170 720 L388 720 L455 197 L740 720 L972 720 L819 0 L632 0 L716 397 L499 0 Z " />
<glyph glyph-name="N" unicode="N" horiz-adv-x="748" d="M626 720 L804 720 L651 0 L447 0 L289 448 L195 0 L17 0 L170 720 L387 720 L535 294 L626 720 Z " />
<glyph glyph-name="O" unicode="O" horiz-adv-x="800" d="M401 132 Q508 132 564 255 Q603 338 603 433 Q603 517 557 558 Q523 589 473 589 Q363 589 307 461 Q270 377 270 286 Q270 203 317 162 Q351 132 401 132 Z M384 -15 Q237 -15 146 68 Q57 149 57 286 Q57 386 91 477 Q134 591 221 656 Q326 735 486 735 Q631 735 723 653 Q814 572 814 435 Q814 332 778 240 Q735 127 647 63 Q542 -15 384 -15 Z " />
<glyph glyph-name="P" unicode="P" horiz-adv-x="691" d="M170 720 L439 720 Q593 720 667 658 Q729 606 729 516 Q729 381 639 307 Q545 230 359 230 L274 230 L226 0 L17 0 L170 720 Z M413 579 L348 579 L304 370 L385 370 Q448 370 484 409 Q515 443 515 496 Q515 536 488.5 557.5 Q462 579 413 579 Z " />
<glyph glyph-name="Q" unicode="Q" horiz-adv-x="812" d="M384 -15 Q237 -15 146 68 Q57 149 57 286 Q57 386 91 477 Q134 591 221 656 Q326 735 486 735 Q631 735 723 653 Q814 572 814 435 Q814 325 774 229 Q731 126 650 65 L732 -46 L538 -160 L477 -7 Q421 -15 384 -15 Z M401 132 Q508 132 564 255 Q603 338 603 433 Q603 517 557 558 Q523 589 473 589 Q363 589 307 461 Q270 377 270 286 Q270 203 317 162 Q351 132 401 132 Z " />
<glyph glyph-name="R" unicode="R" horiz-adv-x="729" d="M684 0 L444 0 L341 250 L279 250 L226 0 L17 0 L170 720 L445 720 Q595 720 670 662 Q733 612 733 528 Q733 353 545 287 L684 0 Z M419 578 L349 578 L309 392 L396 392 Q451 392 484 425 Q515 456 515 505 Q515 540 490 559 Q465 578 419 578 Z " />
<glyph glyph-name="S" unicode="S" horiz-adv-x="679" d="M327 -15 Q168 -15 87 65 Q24 126 24 216 L24 227 L226 227 Q226 127 344 127 Q455 127 455 202 Q455 238 423 260 Q391 282 312 298 Q209 319 152 380 Q101 435 101 510 Q101 735 414 735 Q556 735 637 665 Q707 605 707 509 L510 509 Q510 554 475 576 Q447 593 401 593 Q318 593 318 534 Q318 504 345.5 484.5 Q373 465 433 451 Q670 396 670 234 Q670 -15 327 -15 Z " />
<glyph glyph-name="T" unicode="T" horiz-adv-x="636" d="M744 720 L712 569 L501 569 L381 0 L172 0 L292 569 L86 569 L118 720 L744 720 Z " />
<glyph glyph-name="U" unicode="U" horiz-adv-x="741" d="M163 720 L373 720 L270 238 Q266 220 266 212 Q266 173 292 151.5 Q318 130 365 130 Q473 130 496 234 L599 720 L802 720 L701 246 Q645 -15 351 -15 Q205 -15 126 49 Q57 105 57 197 Q57 223 63 251 L163 720 Z " />
<glyph glyph-name="V" unicode="V" horiz-adv-x="704" d="M607 720 L817 720 L429 0 L197 0 L113 720 L323 720 L348 178 L607 720 Z " />
<glyph glyph-name="W" unicode="W" horiz-adv-x="1019" d="M927 720 L1132 720 L819 0 L588 0 L575 500 L356 0 L132 0 L113 720 L321 720 L308 253 L513 720 L733 720 L745 249 L927 720 Z " />
<glyph glyph-name="X" unicode="X" horiz-adv-x="750" d="M841 720 L530 376 L705 0 L476 0 L385 227 L204 0 L-35 0 L299 375 L135 720 L361 720 L445 519 L611 720 L841 720 Z " />
<glyph glyph-name="Y" unicode="Y" horiz-adv-x="724" d="M422 0 L222 0 L283 288 L113 720 L332 720 L414 446 L625 720 L837 720 L483 288 L422 0 Z " />
<glyph glyph-name="Z" unicode="Z" horiz-adv-x="647" d="M709 586 L278 145 L609 145 L579 0 L-18 0 L11 136 L442 575 L123 575 L154 720 L738 720 L709 586 Z " />
<glyph glyph-name="bracketleft" unicode="&#x5b;" horiz-adv-x="340" d="M265 -49 L239 -170 L-31 -170 L178 810 L448 810 L422 689 L313 689 L157 -49 L265 -49 Z " />
<glyph glyph-name="backslash" unicode="&#x5c;" horiz-adv-x="340" d="M125 -90 L99 735 L262 735 L288 -90 L125 -90 Z " />
<glyph glyph-name="bracketright" unicode="&#x5d;" horiz-adv-x="340" d="M-60 -170 L-34 -49 L75 -49 L231 689 L122 689 L148 810 L419 810 L210 -170 L-60 -170 Z " />
<glyph glyph-name="asciicircum" unicode="&#x5e;" horiz-adv-x="520" d="M334 546 L229 383 L49 383 L282 712 L449 712 L541 383 L368 383 L334 546 Z " />
<glyph glyph-name="underscore" unicode="&#x5f;" horiz-adv-x="588" d="M529 -3 L499 -142 L-52 -142 L-23 -3 L529 -3 Z " />
<glyph glyph-name="grave" unicode="&#x60;" horiz-adv-x="362" d="M340 732 L414 578 L280 578 L152 732 L340 732 Z " />
<glyph glyph-name="a" unicode="a" horiz-adv-x="581" d="M262 358 L69 358 Q144 535 357 535 Q468 535 525 485 Q575 443 575 371 Q575 343 570 322 L502 0 L352 0 L340 58 Q310 25 261.5 5 Q213 -15 161 -15 Q84 -15 44 25 Q9 59 9 115 Q9 201 74 248 Q135 292 266 313 L378 331 L381 345 Q383 353 383 364 Q383 409 333 409 Q308 409 289 395.5 Q270 382 262 358 Z M250 111 Q284 111 311.5 132.5 Q339 154 347 188 L357 232 Q261 214 233 199 Q205 184 205 149 Q205 111 250 111 Z " />
<glyph glyph-name="b" unicode="b" horiz-adv-x="641" d="M159 0 L6 0 L159 720 L353 720 L299 467 Q369 535 459 535 Q548 535 596 476 Q639 424 639 339 Q639 256 609 179 Q576 93 515 43 Q444 -15 348 -15 Q302 -15 261.5 4.5 Q221 24 199 58 L159 0 Z M369 397 Q302 397 268 319 Q245 268 245 210 Q245 123 319 123 Q387 123 420 203 Q442 254 442 308 Q442 350 423 373.5 Q404 397 369 397 Z " />
<glyph glyph-name="c" unicode="c" horiz-adv-x="606" d="M382 195 L581 195 Q540 92 462 38 Q385 -15 278 -15 Q151 -15 87 50 Q34 105 34 198 Q34 279 64 349 Q99 432 167 480 Q247 535 365 535 Q483 535 550 474 Q609 421 610 337 L411 337 Q411 405 351 405 Q286 405 254 319 Q233 264 233 202 Q233 157 254 133 Q270 114 296 114 Q354 114 382 195 Z " />
<glyph glyph-name="d" unicode="d" horiz-adv-x="644" d="M558 0 L404 0 L387 63 Q306 -15 216 -15 Q127 -15 77 47 Q33 101 33 189 Q33 265 61 340 Q94 425 153 476 Q222 535 316 535 Q363 535 403 518 Q443 501 464 471 L517 720 L711 720 L558 0 Z M354 397 Q288 397 254 323 Q232 274 232 217 Q232 169 256 144 Q276 123 307 123 Q371 123 406 203 Q429 256 429 311 Q429 352 409.5 374.5 Q390 397 354 397 Z " />
<glyph glyph-name="e" unicode="e" horiz-adv-x="619" d="M385 165 L581 165 Q542 77 465 30 Q389 -15 286 -15 Q165 -15 96 56 Q37 118 37 213 Q37 294 72 365 Q109 442 177 486 Q254 535 358 535 Q478 535 545 468 Q606 407 606 304 Q606 262 596 218 L230 218 Q229 212 229 200 Q229 117 309 117 Q366 117 385 165 Z M351 414 Q284 414 252 320 L419 320 Q421 329 421 345 Q421 414 351 414 Z " />
<glyph glyph-name="f" unicode="f" horiz-adv-x="388" d="M513 714 L484 579 Q439 595 410 595 Q383 595 369.5 584 Q356 573 351 547 L345 520 L444 520 L416 389 L317 389 L235 0 L42 0 L124 389 L48 389 L76 520 L152 520 L159 553 Q181 657 236 698 Q287 735 383 735 Q453 735 513 714 Z " />
<glyph glyph-name="g" unicode="g" horiz-adv-x="633" d="M-3 -21 L191 -21 Q196 -45 212.5 -55 Q229 -65 263 -65 Q312 -65 332.5 -37.5 Q353 -10 371 81 Q304 22 228 22 Q137 22 85 84 Q39 138 39 223 Q39 369 132 459 Q212 535 324 535 Q370 535 408.5 517 Q447 499 468 469 L507 520 L657 520 L554 36 Q505 -195 245 -195 Q-3 -195 -3 -21 Z M430 314 Q430 353 409.5 375.5 Q389 398 353 398 Q297 398 263 346 Q237 304 237 249 Q237 205 262 181 Q283 161 316 161 Q372 161 404 214 Q430 256 430 314 Z " />
<glyph glyph-name="h" unicode="h" horiz-adv-x="607" d="M6 0 L159 720 L352 720 L300 477 Q366 535 449 535 Q527 535 567 491 Q603 453 603 386 Q603 352 596 322 L527 0 L333 0 L401 321 Q405 341 405 350 Q405 402 356 402 Q322 402 297.5 377 Q273 352 264 308 L199 0 L6 0 Z " />
<glyph glyph-name="i" unicode="i" horiz-adv-x="295" d="M331 574 L127 574 L158 720 L363 720 L331 574 Z M204 0 L11 0 L121 520 L314 520 L204 0 Z " />
<glyph glyph-name="j" unicode="j" horiz-adv-x="291" d="M-121 -178 L-92 -42 Q-65 -52 -44 -52 Q-21 -52 -9.5 -41.5 Q2 -31 7 -7 L119 520 L312 520 L199 -17 Q161 -195 -12 -195 Q-75 -195 -121 -178 Z M329 571 L125 571 L156 717 L360 717 L329 571 Z " />
<glyph glyph-name="k" unicode="k" horiz-adv-x="623" d="M199 0 L6 0 L159 720 L352 720 L275 359 L457 520 L682 520 L409 289 L587 0 L352 0 L241 201 L199 0 Z " />
<glyph glyph-name="l" unicode="l" horiz-adv-x="286" d="M353 720 L200 0 L6 0 L159 720 L353 720 Z " />
<glyph glyph-name="m" unicode="m" horiz-adv-x="914" d="M200 0 L6 0 L116 520 L258 520 L274 461 Q343 535 436 535 Q493 535 532 514 Q569 495 583 461 Q654 535 751 535 Q830 535 872 492 Q910 453 910 385 Q910 354 903 323 L835 0 L642 0 L710 328 Q713 342 713 354 Q713 402 670 402 Q638 402 614 374 Q590 346 579 296 L517 0 L324 0 L392 328 Q395 343 395 355 Q395 402 352 402 Q316 402 291 367 Q271 340 263 299 L200 0 Z " />
<glyph glyph-name="n" unicode="n" horiz-adv-x="607" d="M6 0 L116 520 L280 520 L283 462 Q317 496 361.5 515.5 Q406 535 449 535 Q527 535 567 491 Q603 453 603 386 Q603 353 596 322 L527 0 L333 0 L402 322 Q406 340 406 352 Q406 375 392.5 388.5 Q379 402 356 402 Q322 402 297.5 377 Q273 352 264 308 L199 0 L6 0 Z " />
<glyph glyph-name="o" unicode="o" horiz-adv-x="629" d="M361 535 Q488 535 558 471 Q623 413 623 315 Q623 166 535 75 Q448 -15 295 -15 Q171 -15 100 49 Q36 109 36 208 Q36 345 111 433 Q196 535 361 535 Z M351 407 Q283 407 252 316 Q234 262 234 202 Q234 113 311 113 Q379 113 409 205 Q427 260 427 323 Q427 407 351 407 Z " />
<glyph glyph-name="p" unicode="p" horiz-adv-x="642" d="M350 -15 Q308 -15 269.5 2.5 Q231 20 209 48 L161 -180 L-33 -180 L116 520 L266 520 L285 457 Q361 535 455 535 Q545 535 595 476 Q639 423 639 337 Q639 241 602 160 Q565 80 501 33 Q433 -15 350 -15 Z M368 398 Q302 398 267 320 Q244 268 244 210 Q244 168 264 145 Q284 122 320 122 Q380 122 415 190 Q442 242 442 309 Q442 352 423 375 Q404 398 368 398 Z " />
<glyph glyph-name="q" unicode="q" horiz-adv-x="644" d="M517 520 L668 520 L519 -180 L325 -180 L375 53 Q300 -15 219 -15 Q129 -15 78 47 Q33 102 33 190 Q33 264 60 337 Q91 423 151 474 Q222 535 324 535 Q374 535 414 515 Q454 495 473 460 L517 520 Z M354 397 Q287 397 254 324 Q232 275 232 215 Q232 168 255 144 Q274 123 306 123 Q371 123 405 197 Q429 249 429 309 Q429 397 354 397 Z " />
<glyph glyph-name="r" unicode="r" horiz-adv-x="425" d="M200 0 L6 0 L116 520 L282 520 L282 440 Q342 535 427 535 Q460 535 491 527 L454 355 Q415 367 381 367 Q329 367 292 323 Q259 283 244 210 L200 0 Z " />
<glyph glyph-name="s" unicode="s" horiz-adv-x="563" d="M278 112 Q340 112 340 149 Q340 169 320 181.5 Q300 194 251 203 Q62 238 62 360 Q62 535 318 535 Q433 535 502 482 Q563 435 563 365 L375 365 Q370 409 306 409 Q259 409 259 378 Q259 341 348 324 Q539 287 539 173 Q539 -15 270 -15 Q150 -15 78 39 Q15 87 15 157 L204 157 Q206 137 226 124.5 Q246 112 278 112 Z " />
<glyph glyph-name="t" unicode="t" horiz-adv-x="397" d="M370 131 L343 1 Q279 -15 232 -15 Q152 -15 110 25 Q74 59 74 117 Q74 135 79 160 L128 389 L52 389 L80 520 L155 520 L193 645 L375 645 L349 520 L452 520 L424 389 L321 389 L273 163 Q271 155 271 147 Q271 120 308 120 Q331 120 370 131 Z " />
<glyph glyph-name="u" unicode="u" horiz-adv-x="600" d="M109 520 L302 520 L235 201 Q230 176 230 168 Q230 145 243 131.5 Q256 118 279 118 Q311 118 334 143 Q357 168 367 213 L432 520 L624 520 L514 0 L351 0 L347 53 Q277 -15 185 -15 Q107 -15 67 29 Q33 67 33 132 Q33 160 41 198 L109 520 Z " />
<glyph glyph-name="v" unicode="v" horiz-adv-x="591" d="M454 520 L662 520 L366 0 L144 0 L69 520 L272 520 L287 157 L454 520 Z " />
<glyph glyph-name="w" unicode="w" horiz-adv-x="859" d="M731 520 L925 520 L672 0 L452 0 L459 333 L316 0 L102 0 L74 520 L268 520 L254 189 L399 520 L604 520 L599 191 L731 520 Z " />
<glyph glyph-name="x" unicode="x" horiz-adv-x="610" d="M655 520 L428 275 L571 0 L350 0 L290 142 L172 0 L-41 0 L213 273 L78 520 L295 520 L347 395 L446 520 L655 520 Z " />
<glyph glyph-name="y" unicode="y" horiz-adv-x="594" d="M464 520 L665 520 L365 -7 Q299 -123 244 -162 Q197 -195 126 -195 Q74 -195 19 -179 L47 -49 Q93 -63 118 -63 Q140 -63 155.5 -49 Q171 -35 189 0 L153 0 L70 520 L270 520 L283 138 L464 520 Z " />
<glyph glyph-name="z" unicode="z" horiz-adv-x="527" d="M551 385 L260 138 L490 138 L461 0 L-23 0 L5 135 L301 382 L75 382 L104 520 L580 520 L551 385 Z " />
<glyph glyph-name="braceleft" unicode="&#x7b;" horiz-adv-x="340" d="M16 255 L44 388 Q124 388 140 461 L175 624 Q201 748 282 785 Q336 810 457 810 L431 687 Q382 687 366 676 Q347 663 339 625 L305 461 Q284 359 198 320 Q250 291 250 228 Q250 207 244 178 L210 16 Q210 14 209 10 Q206 -5 206 -11 Q206 -33 220 -40.5 Q234 -48 275 -49 L248 -170 Q133 -170 88 -144 Q39 -115 39 -44 Q39 -11 47 24 L81 182 Q83 196 83 203 Q83 255 16 255 Z " />
<glyph glyph-name="bar" unicode="&#x7c;" horiz-adv-x="340" d="M212 785 L373 785 L177 -140 L16 -140 L212 785 Z " />
<glyph glyph-name="braceright" unicode="&#x7d;" horiz-adv-x="340" d="M371 380 L342 247 Q261 247 246 174 L213 16 Q187 -108 106 -145 Q52 -170 -69 -170 L-42 -47 Q6 -46 21 -35 Q39 -23 48 16 L82 174 Q104 279 190 316 Q137 343 137 408 Q137 429 143 457 L178 625 Q181 640 181 651 Q181 673 167 681 Q153 689 113 689 L139 810 Q254 810 299 784 Q349 755 349 684 Q349 658 341 616 L306 453 Q303 441 303 432 Q303 380 371 380 Z " />
<glyph glyph-name="asciitilde" unicode="&#x7e;" horiz-adv-x="600" d="M394 227 Q365 227 344.5 233 Q324 239 283 261 Q248 279 223 279 Q172 279 83 231 L114 377 Q184 414 261 414 Q290 414 310.5 407.5 Q331 401 372 380 Q408 361 433 361 Q462 361 492.5 371.5 Q523 382 573 410 L542 265 Q474 227 394 227 Z " />
<glyph glyph-name="Adieresis" unicode="&#xc4;" horiz-adv-x="740" d="M703 0 L487 0 L474 157 L251 157 L172 0 L-43 0 L374 720 L590 720 L703 0 Z M445 539 L320 295 L464 295 L445 539 Z M457 781 L285 781 L316 925 L488 925 L457 781 Z M696 781 L523 781 L554 925 L727 925 L696 781 Z " />
<glyph glyph-name="Aring" unicode="&#xc5;" horiz-adv-x="740" d="M505 925 Q581 925 621 884 Q654 851 654 802 Q654 726 595 687 L703 0 L488 0 L475 157 L252 157 L172 0 L-43 0 L363 701 Q334 731 334 779 Q334 847 383 887 Q428 925 505 925 Z M445 539 L321 295 L465 295 L445 539 Z M497 833 Q479 833 468.5 820 Q458 807 458 785 Q458 749 490 749 Q530 749 530 798 Q530 833 497 833 Z " />
<glyph glyph-name="Ccedilla" unicode="&#xc7;" horiz-adv-x="761" d="M387 -35 Q425 -44 446 -68.5 Q467 -93 467 -128 Q467 -196 411 -235 Q363 -268 289 -268 Q210 -268 165 -231 Q126 -198 126 -147 L126 -138 L253 -138 Q253 -155 265 -165 Q277 -175 297 -175 Q339 -175 339 -140 Q339 -100 251 -100 L279 -7 Q166 16 108 102 Q58 176 58 284 Q58 395 96 489 Q141 600 229 662 Q331 735 482 735 Q623 735 708 661 Q785 592 785 481 L785 471 L577 471 Q577 592 470 592 Q367 592 313 469 Q274 383 274 278 Q274 198 309 159 Q337 128 383 128 Q444 128 483 169 Q517 204 538 276 L749 276 Q698 125 602 54 Q517 -8 390 -14 L387 -35 Z " />
<glyph glyph-name="Eacute" unicode="&#xc9;" horiz-adv-x="614" d="M601 432 L572 294 L288 294 L257 146 L569 146 L539 0 L17 0 L170 720 L692 720 L660 572 L348 572 L318 432 L601 432 Z M340 774 L481 928 L681 928 L488 774 L340 774 Z " />
<glyph glyph-name="Ntilde" unicode="&#xd1;" horiz-adv-x="748" d="M626 720 L804 720 L651 0 L447 0 L289 448 L195 0 L17 0 L170 720 L387 720 L535 294 L626 720 Z M569 777 Q549 777 535.5 781 Q522 785 489 800 Q461 813 441 813 Q408 813 343 780 L369 905 Q424 934 471 934 Q502 934 543 914 Q577 897 599 897 Q628 897 694 930 L667 805 Q614 777 569 777 Z " />
<glyph glyph-name="Odieresis" unicode="&#xd6;" horiz-adv-x="800" d="M401 132 Q508 132 564 255 Q603 338 603 433 Q603 517 557 558 Q523 589 473 589 Q363 589 307 461 Q270 377 270 286 Q270 203 317 162 Q351 132 401 132 Z M384 -15 Q237 -15 146 68 Q57 149 57 286 Q57 386 91 477 Q134 591 221 656 Q326 735 486 735 Q631 735 723 653 Q814 572 814 435 Q814 332 778 240 Q735 127 647 63 Q542 -15 384 -15 Z M491 781 L319 781 L350 925 L522 925 L491 781 Z M730 781 L557 781 L588 925 L761 925 L730 781 Z " />
<glyph glyph-name="Udieresis" unicode="&#xdc;" horiz-adv-x="741" d="M163 720 L373 720 L270 238 Q266 220 266 212 Q266 173 292 151.5 Q318 130 365 130 Q473 130 496 234 L599 720 L802 720 L701 246 Q645 -15 351 -15 Q205 -15 126 49 Q57 105 57 197 Q57 223 63 251 L163 720 Z M461 781 L289 781 L320 925 L492 925 L461 781 Z M700 781 L527 781 L558 925 L731 925 L700 781 Z " />
<glyph glyph-name="aacute" unicode="&#xe1;" horiz-adv-x="581" d="M262 358 L69 358 Q144 535 357 535 Q468 535 525 485 Q575 443 575 371 Q575 343 570 322 L502 0 L352 0 L340 58 Q310 25 261.5 5 Q213 -15 161 -15 Q84 -15 44 25 Q9 59 9 115 Q9 201 74 248 Q135 292 266 313 L378 331 L381 345 Q383 353 383 364 Q383 409 333 409 Q308 409 289 395.5 Q270 382 262 358 Z M250 111 Q284 111 311.5 132.5 Q339 154 347 188 L357 232 Q261 214 233 199 Q205 184 205 149 Q205 111 250 111 Z M290 578 L431 732 L631 732 L438 578 L290 578 Z " />
<glyph glyph-name="agrave" unicode="&#xe0;" horiz-adv-x="581" d="M262 358 L69 358 Q144 535 357 535 Q468 535 525 485 Q575 443 575 371 Q575 343 570 322 L502 0 L352 0 L340 58 Q310 25 261.5 5 Q213 -15 161 -15 Q84 -15 44 25 Q9 59 9 115 Q9 201 74 248 Q135 292 266 313 L378 331 L381 345 Q383 353 383 364 Q383 409 333 409 Q308 409 289 395.5 Q270 382 262 358 Z M250 111 Q284 111 311.5 132.5 Q339 154 347 188 L357 232 Q261 214 233 199 Q205 184 205 149 Q205 111 250 111 Z M413 732 L487 578 L353 578 L225 732 L413 732 Z " />
<glyph glyph-name="acircumflex" unicode="&#xe2;" horiz-adv-x="581" d="M262 358 L69 358 Q144 535 357 535 Q468 535 525 485 Q575 443 575 371 Q575 343 570 322 L502 0 L352 0 L340 58 Q310 25 261.5 5 Q213 -15 161 -15 Q84 -15 44 25 Q9 59 9 115 Q9 201 74 248 Q135 292 266 313 L378 331 L381 345 Q383 353 383 364 Q383 409 333 409 Q308 409 289 395.5 Q270 382 262 358 Z M250 111 Q284 111 311.5 132.5 Q339 154 347 188 L357 232 Q261 214 233 199 Q205 184 205 149 Q205 111 250 111 Z M391 641 L344 584 L162 584 L332 738 L485 738 L589 584 L414 584 L391 641 Z " />
<glyph glyph-name="adieresis" unicode="&#xe4;" horiz-adv-x="581" d="M262 358 L69 358 Q144 535 357 535 Q468 535 525 485 Q575 443 575 371 Q575 343 570 322 L502 0 L352 0 L340 58 Q310 25 261.5 5 Q213 -15 161 -15 Q84 -15 44 25 Q9 59 9 115 Q9 201 74 248 Q135 292 266 313 L378 331 L381 345 Q383 353 383 364 Q383 409 333 409 Q308 409 289 395.5 Q270 382 262 358 Z M250 111 Q284 111 311.5 132.5 Q339 154 347 188 L357 232 Q261 214 233 199 Q205 184 205 149 Q205 111 250 111 Z M336 585 L164 585 L195 729 L367 729 L336 585 Z M575 585 L402 585 L433 729 L606 729 L575 585 Z " />
<glyph glyph-name="atilde" unicode="&#xe3;" horiz-adv-x="581" d="M262 358 L69 358 Q144 535 357 535 Q468 535 525 485 Q575 443 575 371 Q575 343 570 322 L502 0 L352 0 L340 58 Q310 25 261.5 5 Q213 -15 161 -15 Q84 -15 44 25 Q9 59 9 115 Q9 201 74 248 Q135 292 266 313 L378 331 L381 345 Q383 353 383 364 Q383 409 333 409 Q308 409 289 395.5 Q270 382 262 358 Z M250 111 Q284 111 311.5 132.5 Q339 154 347 188 L357 232 Q261 214 233 199 Q205 184 205 149 Q205 111 250 111 Z M441 581 Q421 581 407.5 585 Q394 589 361 604 Q333 617 313 617 Q280 617 215 584 L241 709 Q296 738 343 738 Q374 738 415 718 Q449 701 471 701 Q500 701 566 734 L539 609 Q486 581 441 581 Z " />
<glyph glyph-name="aring" unicode="&#xe5;" horiz-adv-x="581" d="M262 358 L69 358 Q144 535 357 535 Q468 535 525 485 Q575 443 575 371 Q575 343 570 322 L502 0 L352 0 L340 58 Q310 25 261.5 5 Q213 -15 161 -15 Q84 -15 44 25 Q9 59 9 115 Q9 201 74 248 Q135 292 266 313 L378 331 L381 345 Q383 353 383 364 Q383 409 333 409 Q308 409 289 395.5 Q270 382 262 358 Z M250 111 Q284 111 311.5 132.5 Q339 154 347 188 L357 232 Q261 214 233 199 Q205 184 205 149 Q205 111 250 111 Z M401 747 Q383 747 372.5 734 Q362 721 362 700 Q362 663 394 663 Q433 663 433 712 Q433 747 401 747 Z M408 840 Q484 840 525 798 Q558 765 558 716 Q558 648 509 608 Q463 571 387 571 Q311 571 270 612 Q238 645 238 694 Q238 761 286 802 Q332 840 408 840 Z " />
<glyph glyph-name="ccedilla" unicode="&#xe7;" horiz-adv-x="606" d="M311 -35 Q348 -43 369.5 -67.5 Q391 -92 391 -127 Q391 -196 335 -234 Q287 -267 213 -267 Q134 -267 89 -230 Q50 -197 50 -146 L50 -137 L177 -137 Q177 -155 188.5 -165 Q200 -175 220 -175 Q263 -175 263 -139 Q263 -100 175 -100 L203 -7 Q114 10 71 70 Q34 121 34 198 Q34 279 64 349 Q99 432 167 480 Q247 535 365 535 Q483 535 550 474 Q609 421 610 337 L411 337 L411 345 Q411 370 395.5 385 Q380 400 353 400 Q287 400 254 316 Q233 262 233 202 Q233 158 255 133 Q273 114 296 114 Q354 114 382 195 L581 195 Q505 4 314 -12 L311 -35 Z " />
<glyph glyph-name="eacute" unicode="&#xe9;" horiz-adv-x="619" d="M385 165 L581 165 Q542 77 465 30 Q389 -15 286 -15 Q165 -15 96 56 Q37 118 37 213 Q37 294 72 365 Q109 442 177 486 Q254 535 358 535 Q478 535 545 468 Q606 407 606 304 Q606 262 596 218 L230 218 Q229 212 229 200 Q229 117 309 117 Q366 117 385 165 Z M351 414 Q284 414 252 320 L419 320 Q421 329 421 345 Q421 414 351 414 Z M283 578 L424 732 L624 732 L431 578 L283 578 Z " />
<glyph glyph-name="egrave" unicode="&#xe8;" horiz-adv-x="619" d="M385 165 L581 165 Q542 77 465 30 Q389 -15 286 -15 Q165 -15 96 56 Q37 118 37 213 Q37 294 72 365 Q109 442 177 486 Q254 535 358 535 Q478 535 545 468 Q606 407 606 304 Q606 262 596 218 L230 218 Q229 212 229 200 Q229 117 309 117 Q366 117 385 165 Z M351 414 Q284 414 252 320 L419 320 Q421 329 421 345 Q421 414 351 414 Z M407 732 L481 578 L347 578 L219 732 L407 732 Z " />
<glyph glyph-name="ecircumflex" unicode="&#xea;" horiz-adv-x="619" d="M385 165 L581 165 Q542 77 465 30 Q389 -15 286 -15 Q165 -15 96 56 Q37 118 37 213 Q37 294 72 365 Q109 442 177 486 Q254 535 358 535 Q478 535 545 468 Q606 407 606 304 Q606 262 596 218 L230 218 Q229 212 229 200 Q229 117 309 117 Q366 117 385 165 Z M351 414 Q284 414 252 320 L419 320 Q421 329 421 345 Q421 414 351 414 Z M400 641 L353 584 L171 584 L341 738 L494 738 L598 584 L423 584 L400 641 Z " />
<glyph glyph-name="edieresis" unicode="&#xeb;" horiz-adv-x="619" d="M385 165 L581 165 Q542 77 465 30 Q389 -15 286 -15 Q165 -15 96 56 Q37 118 37 213 Q37 294 72 365 Q109 442 177 486 Q254 535 358 535 Q478 535 545 468 Q606 407 606 304 Q606 262 596 218 L230 218 Q229 212 229 200 Q229 117 309 117 Q366 117 385 165 Z M351 414 Q284 414 252 320 L419 320 Q421 329 421 345 Q421 414 351 414 Z M352 585 L180 585 L211 729 L383 729 L352 585 Z M591 585 L418 585 L449 729 L622 729 L591 585 Z " />
<glyph glyph-name="iacute" unicode="&#xed;" horiz-adv-x="295" d="M204 0 L11 0 L121 520 L314 520 L204 0 Z M93 578 L234 732 L434 732 L241 578 L93 578 Z " />
<glyph glyph-name="igrave" unicode="&#xec;" horiz-adv-x="295" d="M204 0 L11 0 L121 520 L314 520 L204 0 Z M287 732 L361 578 L227 578 L99 732 L287 732 Z " />
<glyph glyph-name="icircumflex" unicode="&#xee;" horiz-adv-x="295" d="M204 0 L11 0 L121 520 L314 520 L204 0 Z M247 641 L200 584 L18 584 L188 738 L341 738 L445 584 L270 584 L247 641 Z " />
<glyph glyph-name="idieresis" unicode="&#xef;" horiz-adv-x="295" d="M198 585 L26 585 L57 729 L229 729 L198 585 Z M437 585 L264 585 L295 729 L468 729 L437 585 Z M204 0 L11 0 L121 520 L314 520 L204 0 Z " />
<glyph glyph-name="ntilde" unicode="&#xf1;" horiz-adv-x="607" d="M6 0 L116 520 L280 520 L283 462 Q317 496 361.5 515.5 Q406 535 449 535 Q527 535 567 491 Q603 453 603 386 Q603 353 596 322 L527 0 L333 0 L402 322 Q406 340 406 352 Q406 375 392.5 388.5 Q379 402 356 402 Q322 402 297.5 377 Q273 352 264 308 L199 0 L6 0 Z M458 581 Q438 581 424.5 585 Q411 589 378 604 Q350 617 330 617 Q297 617 232 584 L258 709 Q313 738 360 738 Q391 738 432 718 Q466 701 488 701 Q517 701 583 734 L556 609 Q503 581 458 581 Z " />
<glyph glyph-name="oacute" unicode="&#xf3;" horiz-adv-x="629" d="M361 535 Q488 535 558 471 Q623 413 623 315 Q623 166 535 75 Q448 -15 295 -15 Q171 -15 100 49 Q36 109 36 208 Q36 345 111 433 Q196 535 361 535 Z M351 407 Q283 407 252 316 Q234 262 234 202 Q234 113 311 113 Q379 113 409 205 Q427 260 427 323 Q427 407 351 407 Z M287 578 L428 732 L628 732 L435 578 L287 578 Z " />
<glyph glyph-name="ograve" unicode="&#xf2;" horiz-adv-x="629" d="M361 535 Q488 535 558 471 Q623 413 623 315 Q623 166 535 75 Q448 -15 295 -15 Q171 -15 100 49 Q36 109 36 208 Q36 345 111 433 Q196 535 361 535 Z M351 407 Q283 407 252 316 Q234 262 234 202 Q234 113 311 113 Q379 113 409 205 Q427 260 427 323 Q427 407 351 407 Z M418 732 L492 578 L358 578 L230 732 L418 732 Z " />
<glyph glyph-name="ocircumflex" unicode="&#xf4;" horiz-adv-x="629" d="M361 535 Q488 535 558 471 Q623 413 623 315 Q623 166 535 75 Q448 -15 295 -15 Q171 -15 100 49 Q36 109 36 208 Q36 345 111 433 Q196 535 361 535 Z M351 407 Q283 407 252 316 Q234 262 234 202 Q234 113 311 113 Q379 113 409 205 Q427 260 427 323 Q427 407 351 407 Z M400 641 L353 584 L171 584 L341 738 L494 738 L598 584 L423 584 L400 641 Z " />
<glyph glyph-name="odieresis" unicode="&#xf6;" horiz-adv-x="629" d="M361 535 Q488 535 558 471 Q623 413 623 315 Q623 166 535 75 Q448 -15 295 -15 Q171 -15 100 49 Q36 109 36 208 Q36 345 111 433 Q196 535 361 535 Z M351 407 Q283 407 252 316 Q234 262 234 202 Q234 113 311 113 Q379 113 409 205 Q427 260 427 323 Q427 407 351 407 Z M351 585 L179 585 L210 729 L382 729 L351 585 Z M590 585 L417 585 L448 729 L621 729 L590 585 Z " />
<glyph glyph-name="otilde" unicode="&#xf5;" horiz-adv-x="629" d="M361 535 Q488 535 558 471 Q623 413 623 315 Q623 166 535 75 Q448 -15 295 -15 Q171 -15 100 49 Q36 109 36 208 Q36 345 111 433 Q196 535 361 535 Z M351 407 Q283 407 252 316 Q234 262 234 202 Q234 113 311 113 Q379 113 409 205 Q427 260 427 323 Q427 407 351 407 Z M457 581 Q437 581 423.5 585 Q410 589 377 604 Q349 617 329 617 Q296 617 231 584 L257 709 Q312 738 359 738 Q390 738 431 718 Q465 701 487 701 Q516 701 582 734 L555 609 Q502 581 457 581 Z " />
<glyph glyph-name="uacute" unicode="&#xfa;" horiz-adv-x="600" d="M109 520 L302 520 L235 201 Q230 176 230 168 Q230 145 243 131.5 Q256 118 279 118 Q311 118 334 143 Q357 168 367 213 L432 520 L624 520 L514 0 L351 0 L347 53 Q277 -15 185 -15 Q107 -15 67 29 Q33 67 33 132 Q33 160 41 198 L109 520 Z M299 578 L440 732 L640 732 L447 578 L299 578 Z " />
<glyph glyph-name="ugrave" unicode="&#xf9;" horiz-adv-x="600" d="M109 520 L302 520 L235 201 Q230 176 230 168 Q230 145 243 131.5 Q256 118 279 118 Q311 118 334 143 Q357 168 367 213 L432 520 L624 520 L514 0 L351 0 L347 53 Q277 -15 185 -15 Q107 -15 67 29 Q33 67 33 132 Q33 160 41 198 L109 520 Z M382 732 L456 578 L322 578 L194 732 L382 732 Z " />
<glyph glyph-name="ucircumflex" unicode="&#xfb;" horiz-adv-x="600" d="M109 520 L302 520 L235 201 Q230 176 230 168 Q230 145 243 131.5 Q256 118 279 118 Q311 118 334 143 Q357 168 367 213 L432 520 L624 520 L514 0 L351 0 L347 53 Q277 -15 185 -15 Q107 -15 67 29 Q33 67 33 132 Q33 160 41 198 L109 520 Z M393 641 L346 584 L164 584 L334 738 L487 738 L591 584 L416 584 L393 641 Z " />
<glyph glyph-name="udieresis" unicode="&#xfc;" horiz-adv-x="600" d="M109 520 L302 520 L235 201 Q230 176 230 168 Q230 145 243 131.5 Q256 118 279 118 Q311 118 334 143 Q357 168 367 213 L432 520 L624 520 L514 0 L351 0 L347 53 Q277 -15 185 -15 Q107 -15 67 29 Q33 67 33 132 Q33 160 41 198 L109 520 Z M347 585 L175 585 L206 729 L378 729 L347 585 Z M586 585 L413 585 L444 729 L617 729 L586 585 Z " />
<glyph glyph-name="dagger" unicode="&#x2020;" horiz-adv-x="584" d="M298 720 L481 720 L445 556 L611 556 L573 381 L408 381 L328 0 L145 0 L225 381 L61 381 L98 556 L262 556 L298 720 Z " />
<glyph glyph-name="degree" unicode="&#xb0;" horiz-adv-x="540" d="M282 601 Q262 601 249.5 581.5 Q237 562 237 529 Q237 488 269 488 Q290 488 302.5 507 Q315 526 315 558 Q315 601 282 601 Z M460 566 Q460 474 390 418 Q333 373 257 373 Q180 373 134 417 Q92 458 92 523 Q92 617 162 673 Q218 717 294 717 Q371 717 417 673 Q460 632 460 566 Z " />
<glyph glyph-name="cent" unicode="&#xa2;" horiz-adv-x="600" d="M379 195 L578 195 Q507 19 339 -9 L313 -135 L145 -135 L173 0 Q98 21 62 79 Q31 128 31 198 Q31 321 94 410 Q162 506 285 527 L314 659 L482 659 L452 523 Q529 503 569 449 Q605 402 606 337 L408 337 L408 345 Q407 371 391.5 385.5 Q376 400 350 400 Q283 400 251 317 Q230 263 230 202 Q230 158 252 133 Q269 114 292 114 Q351 114 379 195 Z " />
<glyph glyph-name="sterling" unicode="&#xa3;" horiz-adv-x="600" d="M351 491 L332 402 L497 402 L472 282 L306 282 Q298 229 279.5 198.5 Q261 168 227 151 L549 151 L517 0 L2 0 L33 146 Q65 154 78 177 Q91 200 108 282 L54 282 L79 402 L133 402 L154 500 Q179 618 248 669 Q309 715 413 715 Q519 715 584 656 Q639 606 639 535 Q639 525 637 509 L452 509 Q452 572 410 572 Q386 572 373.5 554.5 Q361 537 351 491 Z " />
<glyph glyph-name="section" unicode="&#xa7;" horiz-adv-x="600" d="M208 438 Q162 477 162 536 Q162 619 224 667 Q284 714 390 714 Q485 714 546 657 Q593 613 593 561 Q593 551 592 547 L433 547 Q432 568 418.5 580.5 Q405 593 383 593 Q365 593 354 584 Q343 575 343 559 Q343 536 379 519 Q493 467 528 435 Q566 400 566 348 Q566 294 531 252 Q499 213 446 192 Q487 157 487 95 Q487 15 422 -36 Q359 -84 258 -84 Q157 -84 99 -30 Q53 12 53 67 Q53 76 54 82 L213 82 Q215 37 264 37 Q283 37 294.5 46 Q306 55 306 71 Q306 93 272 110 Q265 113 233 129 Q151 169 122 197 Q85 234 85 285 Q85 341 120 382 Q152 419 208 438 Z M312 373 Q267 339 267 304 Q267 267 335 241 Q381 273 381 309 Q381 347 312 373 Z " />
<glyph glyph-name="bullet" unicode="&#x2022;" horiz-adv-x="335" d="M293 197 L37 197 L87 435 L344 435 L293 197 Z " />
<glyph glyph-name="paragraph" unicode="&#xb6;" horiz-adv-x="706" d="M336 720 L488 720 L296 -180 L113 -180 L217 310 Q155 317 117 367 Q81 415 81 491 Q81 620 168 678 Q232 720 336 720 Z M577 720 L761 720 L569 -180 L385 -180 L577 720 Z " />
<glyph glyph-name="germandbls" unicode="&#xdf;" horiz-adv-x="664" d="M425 -15 Q320 -15 271 37 Q232 79 232 152 L398 152 Q397 146 397 136 Q397 100 429 100 Q448 100 459.5 118.5 Q471 137 471 167 Q471 215 410 249 Q335 291 335 351 Q335 382 347 406 Q359 430 392 466 Q418 496 427 512 Q438 532 438 554 Q438 575 423.5 587.5 Q409 600 384 600 Q351 600 334 577 Q317 554 303 491 L272 348 L164 0 L6 0 L115 516 Q141 638 205 687 Q268 735 390 735 Q503 735 567 688 Q622 648 622 587 Q622 549 608 523.5 Q594 498 551 459 Q512 424 512 397 Q512 364 554 338 Q651 277 651 193 Q651 102 592 44 Q532 -15 425 -15 Z " />
<glyph glyph-name="registered" unicode="&#xae;" horiz-adv-x="628" d="M625 499 Q625 376 538 311 Q472 263 380 263 Q273 263 205 327 Q136 390 136 499 Q136 623 223 687 Q289 735 380 735 Q488 735 556 672 Q625 608 625 499 Z M380 321 Q458 321 505 367 Q554 414 554 499 Q554 596 492 643 Q447 678 380 678 Q302 678 254 632 Q206 584 206 499 Q206 403 267 356 Q313 321 380 321 Z M502 388 L423 388 L372 470 L353 470 L353 388 L286 388 L286 622 L378 622 Q483 622 483 546 Q483 501 438 481 L502 388 Z M378 576 L353 576 L353 515 L380 515 Q414 515 414 546 Q414 576 378 576 Z " />
<glyph glyph-name="copyright" unicode="&#xa9;" horiz-adv-x="843" d="M188 360 Q188 211 282 131 Q357 67 466 67 Q592 67 670 150 Q743 230 743 360 Q743 509 649 589 Q575 653 466 653 Q339 653 262 570 Q188 490 188 360 Z M847 360 Q847 170 713 66 Q609 -15 466 -15 Q367 -15 282 26 Q192 70 141 151 Q84 240 84 360 Q84 550 218 654 Q322 735 466 735 Q565 735 649 694 Q739 650 790 569 Q847 480 847 360 Z M526 315 L673 315 Q656 239 602 199 Q550 159 470 159 Q365 159 312 217 Q265 269 265 359 Q265 462 328 518 Q383 567 472 567 Q557 567 613 521 Q660 482 671 421 L525 421 Q521 443 507 457.5 Q493 472 474 472 Q411 472 411 358 Q411 255 470 255 Q514 255 526 315 Z " />
<glyph glyph-name="trademark" unicode="&#x2122;" horiz-adv-x="854" d="M703 319 L601 319 L546 496 L546 319 L418 319 L418 610 L349 610 L349 319 L214 319 L214 610 L100 610 L100 720 L593 720 L654 521 L711 720 L888 720 L888 319 L758 319 L758 496 L703 319 Z " />
<glyph glyph-name="acute" unicode="&#xb4;" horiz-adv-x="362" d="M106 578 L247 732 L447 732 L254 578 L106 578 Z " />
<glyph glyph-name="dieresis" unicode="&#xa8;" horiz-adv-x="471" d="M286 585 L114 585 L145 729 L317 729 L286 585 Z M525 585 L352 585 L383 729 L556 729 L525 585 Z " />
<glyph glyph-name="notequal" unicode="&#x2260;" horiz-adv-x="600" d="M547 291 L518 151 L270 151 L179 38 L29 38 L119 151 L65 151 L95 291 L231 291 L275 347 L107 347 L136 487 L385 487 L474 596 L625 596 L537 487 L589 487 L559 347 L426 347 L381 291 L547 291 Z " />
<glyph glyph-name="AE" unicode="&#xc6;" horiz-adv-x="1002" d="M475 157 L273 157 L167 0 L-49 0 L456 720 L1080 720 L1049 572 L772 572 L742 432 L990 432 L960 294 L712 294 L681 146 L958 146 L927 0 L441 0 L475 157 Z M567 594 L365 295 L504 295 L567 594 Z " />
<glyph glyph-name="Oslash" unicode="&#xd8;" horiz-adv-x="800" d="M384 -15 Q325 -15 271 0 L198 -110 L49 -110 L161 55 Q57 137 57 286 Q57 386 91 477 Q134 591 221 656 Q326 735 486 735 Q551 735 609 716 L680 820 L828 820 L717 657 Q814 575 814 435 Q814 332 778 240 Q735 127 647 63 Q542 -15 384 -15 Z M270 286 Q270 245 285 215 L523 578 Q501 589 473 589 Q363 589 307 461 Q270 377 270 286 Z M401 132 Q508 132 564 255 Q603 338 603 433 Q603 470 589 501 L352 141 Q376 132 401 132 Z " />
<glyph glyph-name="infinity" unicode="&#x221e;" horiz-adv-x="733" d="M252 532 Q339 532 397 461 Q455 532 550 532 Q655 532 708 471 Q750 422 750 346 Q750 258 695 208 Q641 160 547 160 Q461 160 401 230 Q342 160 249 160 Q144 160 91 222 Q49 270 49 346 Q49 434 104 484 Q158 532 252 532 Z M539 285 Q561 285 573 301 Q585 317 585 346 Q585 374 573 391 Q561 408 542 408 Q492 408 470 345 Q474 321 494.5 303 Q515 285 539 285 Z M260 408 Q238 408 226 391.5 Q214 375 214 346 Q214 318 225.5 301.5 Q237 285 257 285 Q306 285 328 347 Q324 372 304 390 Q284 408 260 408 Z " />
<glyph glyph-name="plusminus" unicode="&#xb1;" horiz-adv-x="600" d="M302 565 L457 565 L425 414 L574 414 L544 274 L395 274 L375 179 L220 179 L240 274 L91 274 L122 414 L270 414 L302 565 Z M516 140 L487 0 L34 0 L64 140 L516 140 Z " />
<glyph glyph-name="lessequal" unicode="&#x2264;" horiz-adv-x="600" d="M100 316 L127 441 L619 626 L584 459 L326 378 L555 321 L520 161 L100 316 Z M516 139 L486 0 L34 0 L63 139 L516 139 Z " />
<glyph glyph-name="greaterequal" unicode="&#x2265;" horiz-adv-x="600" d="M579 441 L553 316 L67 161 L102 328 L356 388 L132 467 L166 626 L579 441 Z M34 0 L63 139 L516 139 L486 0 L34 0 Z " />
<glyph glyph-name="yen" unicode="&#xa5;" horiz-adv-x="600" d="M353 0 L166 0 L188 104 L61 104 L86 220 L212 220 L221 262 L95 262 L120 378 L197 378 L86 700 L293 700 L344 430 L519 700 L730 700 L481 378 L560 378 L535 262 L409 262 L400 220 L526 220 L501 104 L375 104 L353 0 Z " />
<glyph glyph-name="mu" unicode="&#xb5;" horiz-adv-x="605" d="M114 520 L307 520 L238 196 Q235 181 235 168 Q235 144 248 130.5 Q261 117 284 117 Q315 117 338 142.5 Q361 168 371 213 L436 520 L629 520 L519 0 L355 0 L351 53 Q323 25 281 8 Q239 -9 193 -12 L158 -180 L-35 -180 L114 520 Z " />
<glyph glyph-name="partialdiff" unicode="&#x2202;" horiz-adv-x="589" d="M195 624 L223 753 Q408 737 509 631 Q597 539 597 402 Q597 293 561 201 Q522 102 451 46 Q373 -15 268 -15 Q155 -15 91 44 Q33 98 33 190 Q33 325 119 410 Q194 484 304 484 Q330 484 358 475.5 Q386 467 396 456 Q372 532 323 571 Q277 608 195 624 Z M327 354 Q277 354 250 286 Q232 239 232 187 Q232 116 284 116 Q329 116 357 189 Q377 240 377 287 Q377 318 363.5 336 Q350 354 327 354 Z " />
<glyph glyph-name="summation" unicode="&#x2211;" horiz-adv-x="631" d="M690 575 L334 575 L461 273 L217 -29 L562 -29 L531 -172 L-51 -172 L-24 -39 L238 284 L109 586 L138 720 L721 720 L690 575 Z " />
<glyph glyph-name="product" unicode="&#x220f;" horiz-adv-x="660" d="M756 700 L726 556 L682 556 L564 0 L360 0 L478 556 L338 556 L220 0 L16 0 L134 556 L90 556 L120 700 L756 700 Z " />
<glyph glyph-name="pi" unicode="&#x3c0;" horiz-adv-x="593" d="M627 389 L580 389 L497 0 L305 0 L387 389 L291 389 L209 0 L16 0 L98 389 L50 389 L78 520 L655 520 L627 389 Z " />
<glyph glyph-name="integral" unicode="&#x222b;" horiz-adv-x="564" d="M3 -156 L32 -20 Q77 -29 110 -29 Q136 -29 150 -17.5 Q164 -6 170 20 L325 748 Q346 846 414 892 Q470 931 556 931 Q622 931 684 918 L655 782 Q610 791 577 791 Q550 791 536.5 780 Q523 769 517 742 L362 14 Q322 -169 130 -169 Q65 -169 3 -156 Z " />
<glyph glyph-name="ordfeminine" unicode="&#xaa;" horiz-adv-x="510" d="M312 598 L152 598 Q180 664 243 701 Q300 735 370 735 Q453 735 498 696 Q537 663 537 607 Q537 586 533 569 L476 303 L357 303 L351 338 Q299 291 237 291 Q174 291 137 321 Q102 350 102 399 Q102 542 312 565 L368 571 L372 587 Q374 593 374 605 Q374 628 349 628 Q324 628 312 598 Z M446 140 L417 0 L21 0 L50 140 L446 140 Z M298 403 Q313 403 326.5 415.5 Q340 428 343 446 L349 480 L326 476 Q269 466 269 428 Q269 417 277 410 Q285 403 298 403 Z " />
<glyph glyph-name="ordmasculine" unicode="&#xba;" horiz-adv-x="522" d="M351 735 Q439 735 488 694 Q542 650 542 561 Q542 428 468 356 Q404 292 296 292 Q209 292 158 335 Q104 380 104 470 Q104 599 175 670 Q240 735 351 735 Z M339 623 Q308 623 288.5 578.5 Q269 534 269 463 Q269 404 308 404 Q348 404 366 469 Q378 511 378 565 Q378 623 339 623 Z M449 140 L420 0 L12 0 L42 140 L449 140 Z " />
<glyph glyph-name="Omega" unicode="&#x2126;" horiz-adv-x="801" d="M428 133 Q515 133 567 258 Q603 346 603 434 Q603 517 559 558 Q526 589 477 589 Q362 589 305 457 Q267 369 267 259 Q267 192 293 159 Q314 133 347 133 L320 0 L5 0 L34 140 L142 140 Q106 175 86.5 224 Q67 273 67 328 Q67 431 117 523 Q169 619 260 674 Q361 735 489 735 Q634 735 728 653 Q817 574 817 447 Q817 263 659 140 L746 140 L717 0 L401 0 L428 133 Z " />
<glyph glyph-name="ae" unicode="&#xe6;" horiz-adv-x="939" d="M705 165 L902 165 Q820 -15 601 -15 Q527 -15 469 16 Q421 43 392 87 Q308 -15 169 -15 Q86 -15 44 24 Q9 58 9 114 Q9 201 74 248 Q135 292 266 313 L378 331 L382 349 Q384 359 384 364 Q384 409 334 409 Q279 409 263 358 L69 358 Q145 535 358 535 Q453 535 515 488 Q590 535 678 535 Q798 535 865 468 Q926 407 926 304 Q926 263 917 218 L550 218 Q549 212 549 200 Q549 116 629 116 Q686 116 705 165 Z M672 413 Q605 413 574 319 L741 319 Q743 328 743 341 Q743 413 672 413 Z M249 111 Q288 111 317 137 Q342 159 348 190 L357 232 Q263 216 234 200 Q205 184 205 149 Q205 111 249 111 Z " />
<glyph glyph-name="oslash" unicode="&#xf8;" horiz-adv-x="629" d="M361 535 Q408 535 452 524 L527 630 L662 630 L552 475 Q622 417 622 315 Q622 166 534 75 Q447 -15 295 -15 Q249 -15 208 -4 L134 -110 L-4 -110 L106 43 Q35 104 35 207 Q35 344 110 433 Q196 535 361 535 Z M351 406 Q287 406 255 329 Q234 279 234 223 Q234 196 236 185 L387 400 Q371 406 351 406 Z M427 310 Q427 332 426 338 L275 119 Q290 113 311 113 Q375 113 408 203 Q427 258 427 310 Z " />
<glyph glyph-name="questiondown" unicode="&#xbf;" horiz-adv-x="555" d="M276 5 L477 5 Q447 -86 363 -143 Q286 -195 192 -195 Q87 -195 30 -150 Q-19 -112 -19 -51 Q-19 12 11.5 58 Q42 104 146 199 Q181 230 198 302 L385 302 Q369 226 349 188 Q329 150 281 105 Q220 47 201.5 23 Q183 -1 183 -23 Q183 -36 192 -44.5 Q201 -53 215 -53 Q252 -53 276 5 Z M235 540 L445 540 L408 359 L197 359 L235 540 Z " />
<glyph glyph-name="exclamdown" unicode="&#xa1;" horiz-adv-x="323" d="M96 304 L275 304 L197 -180 L-33 -180 L96 304 Z M131 546 L342 546 L303 365 L93 365 L131 546 Z " />
<glyph glyph-name="logicalnot" unicode="&#xac;" horiz-adv-x="600" d="M116 390 L568 390 L506 98 L352 98 L384 250 L87 250 L116 390 Z " />
<glyph glyph-name="radical" unicode="&#x221a;" horiz-adv-x="641" d="M359 0 L128 0 L57 496 L250 496 L273 176 L571 802 L873 802 L843 659 L697 659 L562 395 Q427 132 359 0 Z " />
<glyph glyph-name="florin" unicode="&#x192;" horiz-adv-x="407" d="M532 694 L504 559 Q459 575 430 575 Q402 575 388.5 564 Q375 553 370 527 L365 500 L463 500 L435 369 L337 369 L220 -180 L27 -180 L144 369 L68 369 L95 500 L171 500 L178 533 Q200 637 255 678 Q306 715 402 715 Q474 715 532 694 Z " />
<glyph glyph-name="approxequal" unicode="&#x2248;" horiz-adv-x="600" d="M416 331 Q387 331 367 337 Q347 343 306 365 Q270 383 245 383 Q194 383 105 335 L136 481 Q206 518 284 518 Q313 518 333.5 511.5 Q354 505 395 484 Q430 465 455 465 Q484 465 514.5 475.5 Q545 486 595 514 L564 369 Q496 331 416 331 Z M373 127 Q344 127 324 133 Q304 139 263 161 Q227 179 202 179 Q151 179 62 131 L92 277 Q164 314 240 314 Q269 314 289.5 307.5 Q310 301 351 280 Q386 261 411 261 Q441 261 471.5 271.5 Q502 282 552 310 L521 165 Q453 127 373 127 Z " />
<glyph glyph-name="increment" unicode="&#x2206;" horiz-adv-x="740" d="M703 0 L-43 0 L374 720 L590 720 L703 0 Z M446 539 L242 138 L477 138 L446 539 Z " />
<glyph glyph-name="guillemotleft" unicode="&#xab;" horiz-adv-x="588" d="M136 86 L56 313 L230 520 L380 520 L241 308 L276 86 L136 86 Z M381 86 L302 313 L476 520 L626 520 L486 308 L522 86 L381 86 Z " />
<glyph glyph-name="guillemotright" unicode="&#xbb;" horiz-adv-x="588" d="M584 313 L415 86 L267 86 L398 308 L347 520 L490 520 L584 313 Z M338 313 L170 86 L21 86 L152 308 L102 520 L244 520 L338 313 Z " />
<glyph glyph-name="ellipsis" unicode="&#x2026;" horiz-adv-x="909" d="M823 0 L612 0 L650 181 L861 181 L823 0 Z M217 0 L6 0 L44 181 L255 181 L217 0 Z M520 0 L309 0 L347 181 L558 181 L520 0 Z " />
<glyph glyph-name="Agrave" unicode="&#xc0;" horiz-adv-x="740" d="M703 0 L487 0 L474 157 L251 157 L172 0 L-43 0 L374 720 L590 720 L703 0 Z M445 539 L320 295 L464 295 L445 539 Z M547 928 L621 774 L487 774 L359 928 L547 928 Z " />
<glyph glyph-name="Atilde" unicode="&#xc3;" horiz-adv-x="740" d="M703 0 L487 0 L474 157 L251 157 L172 0 L-43 0 L374 720 L590 720 L703 0 Z M445 539 L320 295 L464 295 L445 539 Z M558 777 Q538 777 524.5 781 Q511 785 478 800 Q450 813 430 813 Q397 813 332 780 L358 905 Q413 934 460 934 Q491 934 532 914 Q566 897 588 897 Q617 897 683 930 L656 805 Q603 777 558 777 Z " />
<glyph glyph-name="Otilde" unicode="&#xd5;" horiz-adv-x="800" d="M401 132 Q508 132 564 255 Q603 338 603 433 Q603 517 557 558 Q523 589 473 589 Q363 589 307 461 Q270 377 270 286 Q270 203 317 162 Q351 132 401 132 Z M384 -15 Q237 -15 146 68 Q57 149 57 286 Q57 386 91 477 Q134 591 221 656 Q326 735 486 735 Q631 735 723 653 Q814 572 814 435 Q814 332 778 240 Q735 127 647 63 Q542 -15 384 -15 Z M586 777 Q566 777 552.5 781 Q539 785 506 800 Q478 813 458 813 Q425 813 360 780 L386 905 Q441 934 488 934 Q519 934 560 914 Q594 897 616 897 Q645 897 711 930 L684 805 Q631 777 586 777 Z " />
<glyph glyph-name="OE" unicode="&#x152;" horiz-adv-x="982" d="M969 432 L939 293 L688 293 L656 146 L937 146 L907 0 L468 0 Q408 -15 353 -15 Q215 -15 134 65 Q56 142 56 276 Q56 398 102 498 Q152 607 247 668 Q353 735 501 735 Q568 735 625 720 L1060 720 L1028 572 L747 572 L717 432 L969 432 Z M388 132 Q418 132 447 143 L538 576 Q516 588 480 588 Q365 588 307 465 Q268 382 268 278 Q268 199 308 161 Q339 132 388 132 Z " />
<glyph glyph-name="oe" unicode="&#x153;" horiz-adv-x="1000" d="M766 165 L962 165 Q922 77 845 30 Q769 -15 666 -15 Q560 -15 491 49 Q410 -15 292 -15 Q169 -15 98 52 Q35 112 35 211 Q35 295 71 367 Q110 444 181 487 Q258 535 363 535 Q474 535 547 470 Q632 535 740 535 Q860 535 926 468 Q987 407 987 304 Q987 270 977 218 L610 218 Q609 212 609 200 Q609 116 689 116 Q745 116 766 165 Z M355 406 Q285 406 253 326 Q233 274 233 209 Q233 113 304 113 Q361 113 396 175 Q427 231 427 322 Q427 406 355 406 Z M730 413 Q663 413 632 319 L800 319 Q802 337 802 344 Q802 377 783.5 395 Q765 413 730 413 Z " />
<glyph glyph-name="endash" unicode="&#x2013;" horiz-adv-x="540" d="M493 390 L463 250 L11 250 L40 390 L493 390 Z " />
<glyph glyph-name="emdash" unicode="&#x2014;" horiz-adv-x="641" d="M666 390 L636 250 L31 250 L60 390 L666 390 Z " />
<glyph glyph-name="quotedblleft" unicode="&#x201c;" horiz-adv-x="533" d="M68 363 L102 522 Q125 628 203 675 Q265 713 374 720 L354 631 Q264 620 248 544 L318 544 L279 363 L68 363 Z M324 363 L358 522 Q380 628 459 675 Q521 713 630 720 L610 631 Q520 620 504 544 L574 544 L535 363 L324 363 Z " />
<glyph glyph-name="quotedblright" unicode="&#x201d;" horiz-adv-x="533" d="M358 720 L324 561 Q302 456 223 408 Q161 370 53 363 L72 451 Q162 462 178 539 L109 539 L147 720 L358 720 Z M614 720 L580 561 Q557 456 478 408 Q416 370 309 363 L328 451 Q418 462 434 539 L365 539 L403 720 L614 720 Z " />
<glyph glyph-name="quoteleft" unicode="&#x2018;" horiz-adv-x="270" d="M61 363 L92 510 Q133 704 367 720 L347 631 Q257 620 241 544 L311 544 L272 363 L61 363 Z " />
<glyph glyph-name="quoteright" unicode="&#x2019;" horiz-adv-x="270" d="M358 720 L324 561 Q301 456 222 408 Q160 370 53 363 L72 451 Q162 462 178 539 L109 539 L147 720 L358 720 Z " />
<glyph glyph-name="divide" unicode="&#xf7;" horiz-adv-x="600" d="M364 60 L181 60 L215 218 L398 218 L364 60 Z M440 422 L258 422 L291 580 L474 580 L440 422 Z M569 390 L539 250 L87 250 L116 390 L569 390 Z " />
<glyph glyph-name="lozenge" unicode="&#x25ca;" horiz-adv-x="600" d="M599 349 L338 0 L172 0 L68 349 L319 700 L481 700 L599 349 Z M424 349 L371 546 L242 349 L288 154 L424 349 Z " />
<glyph glyph-name="ydieresis" unicode="&#xff;" horiz-adv-x="594" d="M464 520 L665 520 L365 -7 Q299 -123 244 -162 Q197 -195 126 -195 Q74 -195 19 -179 L47 -49 Q93 -63 118 -63 Q140 -63 155.5 -49 Q171 -35 189 0 L153 0 L70 520 L270 520 L283 138 L464 520 Z M348 585 L176 585 L207 729 L379 729 L348 585 Z M587 585 L414 585 L445 729 L618 729 L587 585 Z " />
<glyph glyph-name="Ydieresis" unicode="&#x178;" horiz-adv-x="724" d="M422 0 L222 0 L283 288 L113 720 L332 720 L414 446 L625 720 L837 720 L483 288 L422 0 Z M458 781 L286 781 L317 925 L489 925 L458 781 Z M697 781 L524 781 L555 925 L728 925 L697 781 Z " />
<glyph glyph-name="fraction" unicode="&#x2044;" horiz-adv-x="234" d="M-58 -93 L-207 -93 L404 787 L552 787 L-58 -93 Z " />
<glyph glyph-name="Euro" unicode="&#x20ac;" horiz-adv-x="600" d="M341 128 Q396 128 424 188 L609 188 Q571 84 492 32 Q420 -15 319 -15 Q211 -15 142 53 Q75 118 68 231 L1 231 L45 333 L72 333 Q74 350 80 375 L32 375 L76 477 L109 477 Q195 715 430 715 Q545 715 614 656 Q674 603 674 523 L674 511 L489 511 Q488 539 469 555.5 Q450 572 417 572 Q345 572 304 477 L481 477 L437 375 L272 375 Q268 361 264 333 L421 333 L377 231 L258 231 Q265 128 341 128 Z " />
<glyph glyph-name="guilsinglleft" unicode="&#x2039;" horiz-adv-x="342" d="M136 86 L56 313 L230 520 L380 520 L241 308 L276 86 L136 86 Z " />
<glyph glyph-name="guilsinglright" unicode="&#x203a;" horiz-adv-x="342" d="M338 313 L170 86 L21 86 L152 308 L102 520 L244 520 L338 313 Z " />
<glyph glyph-name="fi" unicode="&#xfb01;" horiz-adv-x="631" d="M571 714 L543 579 Q472 595 421 595 Q387 595 370.5 583 Q354 571 349 542 L345 520 L655 520 L545 0 L351 0 L433 389 L317 389 L235 0 L42 0 L124 389 L48 389 L76 520 L152 520 L158 552 Q178 660 240 701 Q293 735 395 735 Q487 735 571 714 Z " />
<glyph glyph-name="fl" unicode="&#xfb02;" horiz-adv-x="637" d="M549 0 L355 0 L479 587 Q441 595 419 595 Q358 595 349 542 L346 520 L414 520 L386 389 L318 389 L235 0 L42 0 L125 389 L49 389 L76 520 L152 520 L159 552 Q183 659 241 700 Q292 735 387 735 Q455 735 519 720 L704 729 L549 0 Z " />
<glyph glyph-name="daggerdbl" unicode="&#x2021;" horiz-adv-x="576" d="M298 720 L481 720 L453 592 L618 592 L581 417 L416 417 L394 316 L560 316 L523 141 L358 141 L328 0 L145 0 L175 141 L10 141 L47 316 L211 316 L233 417 L69 417 L106 592 L270 592 L298 720 Z " />
<glyph glyph-name="periodcentered" unicode="&#xb7;" horiz-adv-x="296" d="M255 220 L52 220 L90 395 L293 395 L255 220 Z " />
<glyph glyph-name="quotesinglbase" unicode="&#x201a;" horiz-adv-x="270" d="M243 181 L209 22 Q186 -84 108 -131 Q46 -169 -61 -176 L-43 -88 Q48 -77 64 0 L-6 0 L32 181 L243 181 Z " />
<glyph glyph-name="quotedblbase" unicode="&#x201e;" horiz-adv-x="526" d="M499 181 L465 22 Q443 -83 364 -131 Q302 -169 194 -176 L213 -88 Q304 -77 320 0 L250 0 L288 181 L499 181 Z M243 181 L209 22 Q186 -84 108 -131 Q46 -169 -61 -176 L-43 -88 Q48 -77 64 0 L-6 0 L32 181 L243 181 Z " />
<glyph glyph-name="perthousand" unicode="&#x2030;" horiz-adv-x="1246" d="M778 700 L287 0 L138 0 L629 700 L778 700 Z M278 715 Q360 715 404 669 Q441 630 441 565 Q441 472 382 417 Q329 369 246 369 Q164 369 120 415 Q83 454 83 519 Q83 614 143 668 Q196 715 278 715 Z M270 618 Q244 618 230 592 Q216 566 216 519 Q216 466 253 466 Q278 466 293.5 492.5 Q309 519 309 563 Q309 618 270 618 Z M674 330 Q757 330 800 284 Q838 245 838 181 Q838 88 778 33 Q725 -15 642 -15 Q560 -15 517 30 Q480 69 480 134 Q480 229 540 283 Q592 330 674 330 Z M666 233 Q640 233 626 207 Q612 181 612 134 Q612 82 649 82 Q674 82 689.5 108.5 Q705 135 705 179 Q705 233 666 233 Z M1070 330 Q1153 330 1196 284 Q1234 245 1234 181 Q1234 88 1174 33 Q1121 -15 1038 -15 Q956 -15 913 30 Q876 69 876 134 Q876 229 936 283 Q988 330 1070 330 Z M1062 233 Q1036 233 1022 207 Q1008 181 1008 134 Q1008 82 1045 82 Q1070 82 1085.5 108.5 Q1101 135 1101 179 Q1101 233 1062 233 Z " />
<glyph glyph-name="Acircumflex" unicode="&#xc2;" horiz-adv-x="740" d="M703 0 L487 0 L474 157 L251 157 L172 0 L-43 0 L374 720 L590 720 L703 0 Z M445 539 L320 295 L464 295 L445 539 Z M505 837 L458 780 L276 780 L446 934 L599 934 L703 780 L528 780 L505 837 Z " />
<glyph glyph-name="Ecircumflex" unicode="&#xca;" horiz-adv-x="614" d="M601 432 L572 294 L288 294 L257 146 L569 146 L539 0 L17 0 L170 720 L692 720 L660 572 L348 572 L318 432 L601 432 Z M462 837 L415 780 L233 780 L403 934 L556 934 L660 780 L485 780 L462 837 Z " />
<glyph glyph-name="Aacute" unicode="&#xc1;" horiz-adv-x="740" d="M703 0 L487 0 L474 157 L251 157 L172 0 L-43 0 L374 720 L590 720 L703 0 Z M445 539 L320 295 L464 295 L445 539 Z M353 774 L494 928 L694 928 L501 774 L353 774 Z " />
<glyph glyph-name="Edieresis" unicode="&#xcb;" horiz-adv-x="614" d="M601 432 L572 294 L288 294 L257 146 L569 146 L539 0 L17 0 L170 720 L692 720 L660 572 L348 572 L318 432 L601 432 Z M413 781 L241 781 L272 925 L444 925 L413 781 Z M652 781 L479 781 L510 925 L683 925 L652 781 Z " />
<glyph glyph-name="Egrave" unicode="&#xc8;" horiz-adv-x="614" d="M601 432 L572 294 L288 294 L257 146 L569 146 L539 0 L17 0 L170 720 L692 720 L660 572 L348 572 L318 432 L601 432 Z M482 928 L556 774 L422 774 L294 928 L482 928 Z " />
<glyph glyph-name="Iacute" unicode="&#xcd;" horiz-adv-x="323" d="M170 720 L379 720 L226 0 L17 0 L170 720 Z M148 774 L289 928 L489 928 L296 774 L148 774 Z " />
<glyph glyph-name="Icircumflex" unicode="&#xce;" horiz-adv-x="323" d="M170 720 L379 720 L226 0 L17 0 L170 720 Z M303 837 L256 780 L74 780 L244 934 L397 934 L501 780 L326 780 L303 837 Z " />
<glyph glyph-name="Idieresis" unicode="&#xcf;" horiz-adv-x="323" d="M170 720 L379 720 L226 0 L17 0 L170 720 Z M255 781 L83 781 L114 925 L286 925 L255 781 Z M494 781 L321 781 L352 925 L525 925 L494 781 Z " />
<glyph glyph-name="Igrave" unicode="&#xcc;" horiz-adv-x="323" d="M170 720 L379 720 L226 0 L17 0 L170 720 Z M352 928 L426 774 L292 774 L164 928 L352 928 Z " />
<glyph glyph-name="Oacute" unicode="&#xd3;" horiz-adv-x="800" d="M401 132 Q508 132 564 255 Q603 338 603 433 Q603 517 557 558 Q523 589 473 589 Q363 589 307 461 Q270 377 270 286 Q270 203 317 162 Q351 132 401 132 Z M384 -15 Q237 -15 146 68 Q57 149 57 286 Q57 386 91 477 Q134 591 221 656 Q326 735 486 735 Q631 735 723 653 Q814 572 814 435 Q814 332 778 240 Q735 127 647 63 Q542 -15 384 -15 Z M413 774 L554 928 L754 928 L561 774 L413 774 Z " />
<glyph glyph-name="Ocircumflex" unicode="&#xd4;" horiz-adv-x="800" d="M401 132 Q508 132 564 255 Q603 338 603 433 Q603 517 557 558 Q523 589 473 589 Q363 589 307 461 Q270 377 270 286 Q270 203 317 162 Q351 132 401 132 Z M384 -15 Q237 -15 146 68 Q57 149 57 286 Q57 386 91 477 Q134 591 221 656 Q326 735 486 735 Q631 735 723 653 Q814 572 814 435 Q814 332 778 240 Q735 127 647 63 Q542 -15 384 -15 Z M531 837 L484 780 L302 780 L472 934 L625 934 L729 780 L554 780 L531 837 Z " />
<glyph glyph-name="Ograve" unicode="&#xd2;" horiz-adv-x="800" d="M401 132 Q508 132 564 255 Q603 338 603 433 Q603 517 557 558 Q523 589 473 589 Q363 589 307 461 Q270 377 270 286 Q270 203 317 162 Q351 132 401 132 Z M384 -15 Q237 -15 146 68 Q57 149 57 286 Q57 386 91 477 Q134 591 221 656 Q326 735 486 735 Q631 735 723 653 Q814 572 814 435 Q814 332 778 240 Q735 127 647 63 Q542 -15 384 -15 Z M554 928 L628 774 L494 774 L366 928 L554 928 Z " />
<glyph glyph-name="Uacute" unicode="&#xda;" horiz-adv-x="741" d="M163 720 L373 720 L270 238 Q266 220 266 212 Q266 173 292 151.5 Q318 130 365 130 Q473 130 496 234 L599 720 L802 720 L701 246 Q645 -15 351 -15 Q205 -15 126 49 Q57 105 57 197 Q57 223 63 251 L163 720 Z M410 774 L551 928 L751 928 L558 774 L410 774 Z " />
<glyph glyph-name="Ucircumflex" unicode="&#xdb;" horiz-adv-x="741" d="M163 720 L373 720 L270 238 Q266 220 266 212 Q266 173 292 151.5 Q318 130 365 130 Q473 130 496 234 L599 720 L802 720 L701 246 Q645 -15 351 -15 Q205 -15 126 49 Q57 105 57 197 Q57 223 63 251 L163 720 Z M509 837 L462 780 L280 780 L450 934 L603 934 L707 780 L532 780 L509 837 Z " />
<glyph glyph-name="Ugrave" unicode="&#xd9;" horiz-adv-x="741" d="M163 720 L373 720 L270 238 Q266 220 266 212 Q266 173 292 151.5 Q318 130 365 130 Q473 130 496 234 L599 720 L802 720 L701 246 Q645 -15 351 -15 Q205 -15 126 49 Q57 105 57 197 Q57 223 63 251 L163 720 Z M501 928 L575 774 L441 774 L313 928 L501 928 Z " />
<glyph glyph-name="dotlessi" unicode="&#x131;" horiz-adv-x="295" d="M204 0 L11 0 L121 520 L314 520 L204 0 Z " />
<glyph glyph-name="circumflex" unicode="&#x2c6;" horiz-adv-x="487" d="M342 641 L295 584 L113 584 L283 738 L436 738 L540 584 L365 584 L342 641 Z " />
<glyph glyph-name="tilde" unicode="&#x2dc;" horiz-adv-x="379" d="M340 581 Q320 581 306.5 585 Q293 589 260 604 Q232 617 212 617 Q179 617 114 584 L140 709 Q195 738 242 738 Q273 738 314 718 Q348 701 370 701 Q399 701 465 734 L438 609 Q385 581 340 581 Z " />
<glyph glyph-name="overscore" unicode="&#xaf;" horiz-adv-x="330" d="M391 591 L102 591 L129 719 L418 719 L391 591 Z " />
<glyph glyph-name="breve" unicode="&#x2d8;" horiz-adv-x="402" d="M293 577 Q218 577 179 613 Q143 646 143 706 Q143 713 145 727 L145 729 L283 729 Q281 715 281 710 Q281 679 306 679 Q336 679 348 729 L487 729 Q438 577 293 577 Z " />
<glyph glyph-name="dotaccent" unicode="&#x2d9;" horiz-adv-x="264" d="M317 583 L113 583 L145 729 L349 729 L317 583 Z " />
<glyph glyph-name="ring" unicode="&#x2da;" horiz-adv-x="370" d="M297 747 Q279 747 268.5 734 Q258 721 258 700 Q258 663 290 663 Q329 663 329 712 Q329 747 297 747 Z M304 840 Q380 840 421 798 Q454 765 454 716 Q454 648 405 608 Q359 571 283 571 Q207 571 166 612 Q134 645 134 694 Q134 761 182 802 Q228 840 304 840 Z " />
<glyph glyph-name="cedilla" unicode="&#xb8;" horiz-adv-x="406" d="M224 -35 Q262 -44 283 -68.5 Q304 -93 304 -128 Q304 -196 248 -235 Q200 -268 127 -268 Q48 -268 3 -231 Q-37 -198 -37 -147 L-37 -138 L90 -138 Q90 -155 102 -165 Q114 -175 134 -175 Q176 -175 176 -140 Q176 -100 89 -100 L125 22 L234 22 L224 -35 Z " />
<glyph glyph-name="hungarumlaut" unicode="&#x2dd;" horiz-adv-x="609" d="M108 578 L248 732 L447 732 L254 578 L108 578 Z M355 578 L495 732 L694 732 L501 578 L355 578 Z " />
<glyph glyph-name="ogonek" unicode="&#x2db;" horiz-adv-x="401" d="M105 -263 Q34 -263 -5 -228 Q-39 -198 -39 -152 Q-39 -91 17 -43 Q64 -2 141 19 L254 19 Q184 -10 142 -45 Q91 -87 91 -131 Q91 -148 101.5 -159 Q112 -170 128 -170 Q153 -170 165 -144 L297 -144 Q240 -263 105 -263 Z " />
<glyph glyph-name="caron" unicode="&#x2c7;" horiz-adv-x="487" d="M322 738 L345 685 L392 738 L573 738 L403 584 L250 584 L146 738 L322 738 Z " />
<glyph glyph-name="CR" unicode="&#xd;" horiz-adv-x="224" d="" />
<glyph glyph-name="nbspace" unicode="&#xa0;" horiz-adv-x="224" d="" />
<glyph glyph-name="currency" unicode="&#xa4;" horiz-adv-x="579" d="M36 159 L95 218 Q67 271 67 335 Q67 399 95 452 L36 512 L142 619 L204 557 Q258 585 321 585 Q382 585 438 557 L500 619 L606 512 L547 452 Q575 399 575 335 Q575 273 546 218 L606 159 L500 52 L438 113 Q381 86 321 86 Q260 86 203 113 L142 52 L36 159 Z M431 335 Q431 392 396 423 Q366 450 321 450 Q269 450 239 415 Q211 384 211 335 Q211 279 246 248 Q276 221 321 221 Q373 221 403 255 Q431 286 431 335 Z " />
<glyph glyph-name="brokenbar" unicode="&#xa6;" horiz-adv-x="340" d="M212 784 L373 784 L288 383 L127 383 L212 784 Z M100 257 L261 257 L177 -140 L16 -140 L100 257 Z " />
<glyph glyph-name="uni00AD" unicode="&#xad;" horiz-adv-x="540" d="M504 390 L474 250 L79 250 L109 390 L504 390 Z " />
<glyph glyph-name="twosuperior" unicode="&#xb2;" horiz-adv-x="425" d="M237 599 L98 599 Q125 672 183 710 Q236 745 308 745 Q384 745 425 711 Q459 682 459 639 Q459 590 427 551 Q393 511 305 452 L230 399 L412 399 L390 294 L46 294 L68 397 L190 483 Q264 535 293.5 566 Q323 597 323 623 Q323 647 293 647 Q255 647 237 599 Z " />
<glyph glyph-name="threesuperior" unicode="&#xb3;" horiz-adv-x="429" d="M311 745 Q385 745 426 714 Q462 687 462 646 Q462 607 433 575 Q402 541 347 528 Q385 519 406 495.5 Q427 472 427 439 Q427 372 375 329 Q322 284 228 284 Q63 284 63 424 L203 424 Q201 417 201 410 Q201 380 235 380 Q258 380 271.5 396.5 Q285 413 285 440 Q285 478 236 478 L204 478 L223 567 L257 567 Q282 567 299 585 Q316 603 316 629 Q316 650 293 650 Q262 650 249 615 L114 615 Q139 681 193 715 Q242 745 311 745 Z " />
<glyph glyph-name="onesuperior" unicode="&#xb9;" horiz-adv-x="296" d="M357 717 L263 276 L121 276 L187 585 L74 543 L99 663 L234 717 L357 717 Z " />
<glyph glyph-name="onequarter" unicode="&#xbc;" horiz-adv-x="902" d="M239 -93 L90 -93 L701 787 L849 787 L239 -93 Z M389 717 L295 276 L153 276 L219 585 L106 543 L131 663 L266 717 L389 717 Z M892 441 L835 173 L884 173 L864 79 L815 79 L798 0 L670 0 L687 79 L487 79 L508 181 L725 441 L892 441 Z M751 330 L629 173 L707 173 L751 330 Z " />
<glyph glyph-name="onehalf" unicode="&#xbd;" horiz-adv-x="966" d="M239 -93 L90 -93 L701 787 L849 787 L239 -93 Z M389 717 L295 276 L153 276 L219 585 L106 543 L131 663 L266 717 L389 717 Z M734 305 L595 305 Q622 378 680 416 Q733 451 805 451 Q881 451 922 417 Q956 388 956 345 Q956 296 924 257 Q890 217 802 158 L727 105 L909 105 L887 0 L543 0 L565 103 L687 189 Q761 241 790.5 272 Q820 303 820 329 Q820 353 790 353 Q752 353 734 305 Z " />
<glyph glyph-name="threequarters" unicode="&#xbe;" horiz-adv-x="1007" d="M344 -93 L195 -93 L806 787 L954 787 L344 -93 Z M338 745 Q412 745 453 714 Q489 687 489 646 Q489 607 460 575 Q429 541 374 528 Q412 519 433 495.5 Q454 472 454 439 Q454 372 402 329 Q349 284 255 284 Q90 284 90 424 L230 424 Q228 417 228 410 Q228 380 262 380 Q285 380 298.5 396.5 Q312 413 312 440 Q312 478 263 478 L231 478 L250 567 L284 567 Q309 567 326 585 Q343 603 343 629 Q343 650 320 650 Q289 650 276 615 L141 615 Q166 681 220 715 Q269 745 338 745 Z M997 441 L940 173 L989 173 L969 79 L920 79 L903 0 L775 0 L792 79 L592 79 L613 181 L830 441 L997 441 Z M856 330 L734 173 L812 173 L856 330 Z " />
<glyph glyph-name="Eth" unicode="&#xd0;" horiz-adv-x="755" d="M171 720 L437 720 Q605 720 693 639 Q770 567 770 442 Q770 253 674 137 Q561 0 329 0 L18 0 L83 308 L29 308 L59 450 L113 450 L171 720 Z M416 578 L350 578 L322 450 L419 450 L389 308 L292 308 L257 143 L337 143 Q461 143 519 261 Q557 337 557 429 Q557 507 514 546 Q478 578 416 578 Z " />
<glyph glyph-name="multiply" unicode="&#xd7;" horiz-adv-x="600" d="M145 430 L265 529 L349 422 L479 529 L560 427 L430 320 L515 212 L395 113 L310 220 L180 113 L100 216 L230 323 L145 430 Z " />
<glyph glyph-name="Yacute" unicode="&#xdd;" horiz-adv-x="724" d="M422 0 L222 0 L283 288 L113 720 L332 720 L414 446 L625 720 L837 720 L483 288 L422 0 Z M404 774 L545 928 L745 928 L552 774 L404 774 Z " />
<glyph glyph-name="Thorn" unicode="&#xde;" horiz-adv-x="664" d="M170 720 L378 720 L355 612 L391 612 Q547 612 620 550 Q681 499 681 409 Q681 121 311 121 L251 121 L225 0 L17 0 L170 720 Z M365 471 L325 471 L281 262 L316 262 Q467 262 467 388 Q467 428 440.5 449.5 Q414 471 365 471 Z " />
<glyph glyph-name="eth" unicode="&#xf0;" horiz-adv-x="589" d="M195 624 L223 753 Q335 742 418 699 L443 720 L594 720 L499 641 Q547 596 572.5 532.5 Q598 469 598 395 Q598 301 568 214 Q532 113 464 54 Q384 -15 268 -15 Q156 -15 91 49 Q32 107 32 201 Q32 336 119 416 Q194 484 306 484 Q331 484 358.5 475.5 Q386 467 396 456 Q388 502 368 531 L351 517 L200 517 L290 592 Q252 611 195 624 Z M325 354 Q276 354 251 289 Q233 243 233 190 Q233 116 285 116 Q328 116 356 178 Q377 224 377 271 Q377 354 325 354 Z " />
<glyph glyph-name="yacute" unicode="&#xfd;" horiz-adv-x="594" d="M464 520 L665 520 L365 -7 Q299 -123 244 -162 Q197 -195 126 -195 Q74 -195 19 -179 L47 -49 Q93 -63 118 -63 Q140 -63 155.5 -49 Q171 -35 189 0 L153 0 L70 520 L270 520 L283 138 L464 520 Z M306 578 L447 732 L647 732 L454 578 L306 578 Z " />
<glyph glyph-name="thorn" unicode="&#xfe;" horiz-adv-x="641" d="M162 -180 L-33 -180 L159 720 L353 720 L299 467 Q369 535 459 535 Q548 535 596 476 Q639 424 639 339 Q639 256 609 179 Q576 93 515 43 Q444 -15 348 -15 Q259 -15 210 44 L162 -180 Z M369 397 Q302 397 268 319 Q245 268 245 210 Q245 123 319 123 Q387 123 420 203 Q442 254 442 308 Q442 350 423 373.5 Q404 397 369 397 Z " />
<glyph glyph-name="Amacron" unicode="&#x100;" horiz-adv-x="740" d="M703 0 L487 0 L474 157 L251 157 L172 0 L-43 0 L374 720 L590 720 L703 0 Z M445 539 L320 295 L464 295 L445 539 Z M636 787 L347 787 L374 915 L663 915 L636 787 Z " />
<glyph glyph-name="amacron" unicode="&#x101;" horiz-adv-x="581" d="M262 358 L69 358 Q144 535 357 535 Q468 535 525 485 Q575 443 575 371 Q575 343 570 322 L502 0 L352 0 L340 58 Q310 25 261.5 5 Q213 -15 161 -15 Q84 -15 44 25 Q9 59 9 115 Q9 201 74 248 Q135 292 266 313 L378 331 L381 345 Q383 353 383 364 Q383 409 333 409 Q308 409 289 395.5 Q270 382 262 358 Z M250 111 Q284 111 311.5 132.5 Q339 154 347 188 L357 232 Q261 214 233 199 Q205 184 205 149 Q205 111 250 111 Z M527 591 L238 591 L265 719 L554 719 L527 591 Z " />
<glyph glyph-name="Abreve" unicode="&#x102;" horiz-adv-x="740" d="M703 0 L487 0 L474 157 L251 157 L172 0 L-43 0 L374 720 L590 720 L703 0 Z M445 539 L320 295 L464 295 L445 539 Z M501 773 Q426 773 387 809 Q351 842 351 902 Q351 909 353 923 L353 925 L491 925 Q489 911 489 906 Q489 875 514 875 Q544 875 556 925 L695 925 Q646 773 501 773 Z " />
<glyph glyph-name="abreve" unicode="&#x103;" horiz-adv-x="581" d="M262 358 L69 358 Q144 535 357 535 Q468 535 525 485 Q575 443 575 371 Q575 343 570 322 L502 0 L352 0 L340 58 Q310 25 261.5 5 Q213 -15 161 -15 Q84 -15 44 25 Q9 59 9 115 Q9 201 74 248 Q135 292 266 313 L378 331 L381 345 Q383 353 383 364 Q383 409 333 409 Q308 409 289 395.5 Q270 382 262 358 Z M250 111 Q284 111 311.5 132.5 Q339 154 347 188 L357 232 Q261 214 233 199 Q205 184 205 149 Q205 111 250 111 Z M380 577 Q305 577 266 613 Q230 646 230 706 Q230 713 232 727 L232 729 L370 729 Q368 715 368 710 Q368 679 393 679 Q423 679 435 729 L574 729 Q525 577 380 577 Z " />
<glyph glyph-name="Aogonek" unicode="&#x104;" horiz-adv-x="740" d="M490 -263 Q419 -263 380 -228 Q346 -198 346 -152 Q346 -99 389 -55 Q425 -17 486 6 L474 157 L251 157 L172 0 L-43 0 L374 720 L590 720 L703 0 L597 0 Q476 -60 476 -131 Q476 -148 486.5 -159 Q497 -170 513 -170 Q538 -170 550 -144 L682 -144 Q625 -263 490 -263 Z M445 539 L320 295 L464 295 L445 539 Z " />
<glyph glyph-name="aogonek" unicode="&#x105;" horiz-adv-x="581" d="M539 -144 Q480 -263 347 -263 Q276 -263 236 -228 Q202 -198 202 -152 Q202 -98 248 -53 Q286 -14 350 9 L340 58 Q310 25 261.5 5 Q213 -15 161 -15 Q84 -15 44 25 Q9 59 9 115 Q9 201 74 248 Q135 292 266 313 L378 331 L380 340 Q383 354 383 364 Q383 409 333 409 Q308 409 289 395.5 Q270 382 262 358 L69 358 Q144 535 357 535 Q468 535 525 485 Q575 443 575 371 Q575 343 570 322 Q529 130 502 0 L453 0 Q333 -60 333 -130 Q333 -148 343 -158.5 Q353 -169 369 -169 Q395 -169 406 -144 L539 -144 Z M250 111 Q284 111 311.5 132.5 Q339 154 347 188 L357 232 Q261 214 233 199 Q205 184 205 149 Q205 111 250 111 Z " />
<glyph glyph-name="Cacute" unicode="&#x106;" horiz-adv-x="761" d="M383 128 Q444 128 483 169 Q517 204 538 276 L749 276 Q696 118 592 47 Q501 -15 362 -15 Q208 -15 127 77 Q58 155 58 284 Q58 395 96 489 Q141 600 229 662 Q331 735 482 735 Q623 735 708 661 Q785 592 785 481 L785 471 L577 471 Q577 592 470 592 Q367 592 313 469 Q274 383 274 278 Q274 198 309 159 Q337 128 383 128 Z M403 774 L544 928 L744 928 L551 774 L403 774 Z " />
<glyph glyph-name="cacute" unicode="&#x107;" horiz-adv-x="606" d="M382 195 L581 195 Q540 92 462 38 Q385 -15 278 -15 Q151 -15 87 50 Q34 105 34 198 Q34 279 64 349 Q99 432 167 480 Q247 535 365 535 Q483 535 550 474 Q609 421 610 337 L411 337 Q411 405 351 405 Q286 405 254 319 Q233 264 233 202 Q233 157 254 133 Q270 114 296 114 Q354 114 382 195 Z M287 578 L428 732 L628 732 L435 578 L287 578 Z " />
<glyph glyph-name="Ccircumflex" unicode="&#x108;" horiz-adv-x="761" d="M383 128 Q444 128 483 169 Q517 204 538 276 L749 276 Q696 118 592 47 Q501 -15 362 -15 Q208 -15 127 77 Q58 155 58 284 Q58 395 96 489 Q141 600 229 662 Q331 735 482 735 Q623 735 708 661 Q785 592 785 481 L785 471 L577 471 Q577 592 470 592 Q367 592 313 469 Q274 383 274 278 Q274 198 309 159 Q337 128 383 128 Z M524 837 L477 780 L295 780 L465 934 L618 934 L722 780 L547 780 L524 837 Z " />
<glyph glyph-name="ccircumflex" unicode="&#x109;" horiz-adv-x="606" d="M382 195 L581 195 Q540 92 462 38 Q385 -15 278 -15 Q151 -15 87 50 Q34 105 34 198 Q34 279 64 349 Q99 432 167 480 Q247 535 365 535 Q483 535 550 474 Q609 421 610 337 L411 337 Q411 405 351 405 Q286 405 254 319 Q233 264 233 202 Q233 157 254 133 Q270 114 296 114 Q354 114 382 195 Z M394 641 L347 584 L165 584 L335 738 L488 738 L592 584 L417 584 L394 641 Z " />
<glyph glyph-name="Cdotaccent" unicode="&#x10a;" horiz-adv-x="761" d="M383 128 Q444 128 483 169 Q517 204 538 276 L749 276 Q696 118 592 47 Q501 -15 362 -15 Q208 -15 127 77 Q58 155 58 284 Q58 395 96 489 Q141 600 229 662 Q331 735 482 735 Q623 735 708 661 Q785 592 785 481 L785 471 L577 471 Q577 592 470 592 Q367 592 313 469 Q274 383 274 278 Q274 198 309 159 Q337 128 383 128 Z M611 779 L407 779 L439 925 L643 925 L611 779 Z " />
<glyph glyph-name="cdotaccent" unicode="&#x10b;" horiz-adv-x="606" d="M382 195 L581 195 Q540 92 462 38 Q385 -15 278 -15 Q151 -15 87 50 Q34 105 34 198 Q34 279 64 349 Q99 432 167 480 Q247 535 365 535 Q483 535 550 474 Q609 421 610 337 L411 337 Q411 405 351 405 Q286 405 254 319 Q233 264 233 202 Q233 157 254 133 Q270 114 296 114 Q354 114 382 195 Z M484 583 L280 583 L312 729 L516 729 L484 583 Z " />
<glyph glyph-name="Ccaron" unicode="&#x10c;" horiz-adv-x="761" d="M383 128 Q444 128 483 169 Q517 204 538 276 L749 276 Q696 118 592 47 Q501 -15 362 -15 Q208 -15 127 77 Q58 155 58 284 Q58 395 96 489 Q141 600 229 662 Q331 735 482 735 Q623 735 708 661 Q785 592 785 481 L785 471 L577 471 Q577 592 470 592 Q367 592 313 469 Q274 383 274 278 Q274 198 309 159 Q337 128 383 128 Z M502 934 L525 881 L572 934 L753 934 L583 780 L430 780 L326 934 L502 934 Z " />
<glyph glyph-name="ccaron" unicode="&#x10d;" horiz-adv-x="606" d="M382 195 L581 195 Q540 92 462 38 Q385 -15 278 -15 Q151 -15 87 50 Q34 105 34 198 Q34 279 64 349 Q99 432 167 480 Q247 535 365 535 Q483 535 550 474 Q609 421 610 337 L411 337 Q411 405 351 405 Q286 405 254 319 Q233 264 233 202 Q233 157 254 133 Q270 114 296 114 Q354 114 382 195 Z M380 738 L403 685 L450 738 L631 738 L461 584 L308 584 L204 738 L380 738 Z " />
<glyph glyph-name="Dcaron" unicode="&#x10e;" horiz-adv-x="755" d="M170 720 L437 720 Q605 720 692 639 Q769 567 769 442 Q769 253 674 137 Q561 0 328 0 L17 0 L170 720 Z M415 578 L349 578 L256 143 L336 143 Q460 143 519 261 Q556 337 556 429 Q556 507 513 546 Q477 578 415 578 Z M458 934 L481 881 L528 934 L709 934 L539 780 L386 780 L282 934 L458 934 Z " />
<glyph glyph-name="dcaron" unicode="&#x10f;" horiz-adv-x="854" d="M558 0 L404 0 L387 63 Q306 -15 216 -15 Q127 -15 77 47 Q33 101 33 189 Q33 265 61 340 Q94 425 153 476 Q222 535 316 535 Q363 535 403 518 Q443 501 464 471 L517 720 L711 720 L558 0 Z M354 397 Q288 397 254 323 Q232 274 232 217 Q232 169 256 144 Q276 123 307 123 Q371 123 406 203 Q429 256 429 311 Q429 352 409.5 374.5 Q390 397 354 397 Z M948 720 L921 595 Q899 494 838 451 Q787 415 690 406 L708 488 Q785 502 800 571 L751 571 L783 720 L948 720 Z " />
<glyph glyph-name="Dcroat" unicode="&#x110;" horiz-adv-x="755" d="M171 720 L437 720 Q605 720 693 639 Q770 567 770 442 Q770 253 674 137 Q561 0 329 0 L18 0 L83 308 L29 308 L59 450 L113 450 L171 720 Z M416 578 L350 578 L322 450 L419 450 L389 308 L292 308 L257 143 L337 143 Q461 143 519 261 Q557 337 557 429 Q557 507 514 546 Q478 578 416 578 Z " />
<glyph glyph-name="dcroat" unicode="&#x111;" horiz-adv-x="653" d="M558 0 L404 0 L387 63 Q306 -15 216 -15 Q127 -15 77 47 Q33 101 33 189 Q33 265 61 340 Q94 425 153 476 Q222 535 316 535 Q363 535 403 518 Q443 501 464 471 L482 557 L388 557 L415 687 L510 687 L517 720 L711 720 L703 687 L746 687 L719 557 L676 557 L558 0 Z M354 397 Q288 397 254 323 Q232 274 232 217 Q232 169 256 144 Q276 123 307 123 Q372 123 406 203 Q429 256 429 311 Q429 352 409.5 374.5 Q390 397 354 397 Z " />
<glyph glyph-name="Emacron" unicode="&#x112;" horiz-adv-x="614" d="M601 432 L572 294 L288 294 L257 146 L569 146 L539 0 L17 0 L170 720 L692 720 L660 572 L348 572 L318 432 L601 432 Z M589 787 L300 787 L327 915 L616 915 L589 787 Z " />
<glyph glyph-name="emacron" unicode="&#x113;" horiz-adv-x="619" d="M385 165 L581 165 Q542 77 465 30 Q389 -15 286 -15 Q165 -15 96 56 Q37 118 37 213 Q37 294 72 365 Q109 442 177 486 Q254 535 358 535 Q478 535 545 468 Q606 407 606 304 Q606 262 596 218 L230 218 Q229 212 229 200 Q229 117 309 117 Q366 117 385 165 Z M351 414 Q284 414 252 320 L419 320 Q421 329 421 345 Q421 414 351 414 Z M539 591 L250 591 L277 719 L566 719 L539 591 Z " />
<glyph glyph-name="Ebreve" unicode="&#x114;" horiz-adv-x="614" d="M601 432 L572 294 L288 294 L257 146 L569 146 L539 0 L17 0 L170 720 L692 720 L660 572 L348 572 L318 432 L601 432 Z M443 773 Q368 773 329 809 Q293 842 293 902 Q293 909 295 923 L295 925 L433 925 Q431 911 431 906 Q431 875 456 875 Q486 875 498 925 L637 925 Q588 773 443 773 Z " />
<glyph glyph-name="ebreve" unicode="&#x115;" horiz-adv-x="619" d="M385 165 L581 165 Q542 77 465 30 Q389 -15 286 -15 Q165 -15 96 56 Q37 118 37 213 Q37 294 72 365 Q109 442 177 486 Q254 535 358 535 Q478 535 545 468 Q606 407 606 304 Q606 262 596 218 L230 218 Q229 212 229 200 Q229 117 309 117 Q366 117 385 165 Z M351 414 Q284 414 252 320 L419 320 Q421 329 421 345 Q421 414 351 414 Z M380 577 Q305 577 266 613 Q230 646 230 706 Q230 713 232 727 L232 729 L370 729 Q368 715 368 710 Q368 679 393 679 Q423 679 435 729 L574 729 Q525 577 380 577 Z " />
<glyph glyph-name="Edotaccent" unicode="&#x116;" horiz-adv-x="614" d="M601 432 L572 294 L288 294 L257 146 L569 146 L539 0 L17 0 L170 720 L692 720 L660 572 L348 572 L318 432 L601 432 Z M550 779 L346 779 L378 925 L582 925 L550 779 Z " />
<glyph glyph-name="edotaccent" unicode="&#x117;" horiz-adv-x="619" d="M385 165 L581 165 Q542 77 465 30 Q389 -15 286 -15 Q165 -15 96 56 Q37 118 37 213 Q37 294 72 365 Q109 442 177 486 Q254 535 358 535 Q478 535 545 468 Q606 407 606 304 Q606 262 596 218 L230 218 Q229 212 229 200 Q229 117 309 117 Q366 117 385 165 Z M351 414 Q284 414 252 320 L419 320 Q421 329 421 345 Q421 414 351 414 Z M490 583 L286 583 L318 729 L522 729 L490 583 Z " />
<glyph glyph-name="Eogonek" unicode="&#x118;" horiz-adv-x="614" d="M300 -263 Q229 -263 190 -228 Q156 -198 156 -152 Q156 -106 189 -66.5 Q222 -27 282 0 L17 0 L170 720 L692 720 L660 572 L348 572 L318 432 L601 432 L572 294 L288 294 L257 146 L569 146 L539 0 L407 0 Q286 -60 286 -131 Q286 -148 296.5 -159 Q307 -170 323 -170 Q349 -170 360 -144 L492 -144 Q435 -263 300 -263 Z " />
<glyph glyph-name="eogonek" unicode="&#x119;" horiz-adv-x="619" d="M294 -263 Q223 -263 184 -228 Q150 -198 150 -152 Q150 -111 176 -75 Q202 -39 249 -13 Q145 -2 87 66 Q37 126 37 213 Q37 294 72 365 Q109 442 177 486 Q254 535 358 535 Q478 535 545 468 Q606 407 606 304 Q606 262 596 218 L230 218 Q229 212 229 200 Q229 117 309 117 Q366 117 385 165 L581 165 Q555 107 516 69.5 Q477 32 415 7 Q359 -17 320 -54 Q280 -93 280 -131 Q280 -148 290.5 -159 Q301 -170 317 -170 Q343 -170 354 -144 L486 -144 Q429 -263 294 -263 Z M351 414 Q284 414 252 320 L419 320 Q421 329 421 342 Q421 414 351 414 Z " />
<glyph glyph-name="Ecaron" unicode="&#x11a;" horiz-adv-x="614" d="M601 432 L572 294 L288 294 L257 146 L569 146 L539 0 L17 0 L170 720 L692 720 L660 572 L348 572 L318 432 L601 432 Z M452 934 L475 881 L522 934 L703 934 L533 780 L380 780 L276 934 L452 934 Z " />
<glyph glyph-name="ecaron" unicode="&#x11b;" horiz-adv-x="619" d="M385 165 L581 165 Q542 77 465 30 Q389 -15 286 -15 Q165 -15 96 56 Q37 118 37 213 Q37 294 72 365 Q109 442 177 486 Q254 535 358 535 Q478 535 545 468 Q606 407 606 304 Q606 262 596 218 L230 218 Q229 212 229 200 Q229 117 309 117 Q366 117 385 165 Z M351 414 Q284 414 252 320 L419 320 Q421 329 421 345 Q421 414 351 414 Z M386 738 L409 685 L456 738 L637 738 L467 584 L314 584 L210 738 L386 738 Z " />
<glyph glyph-name="Gcircumflex" unicode="&#x11c;" horiz-adv-x="771" d="M772 410 L685 0 L542 0 L531 66 Q445 -15 325 -15 Q200 -15 126 72 Q58 150 58 275 Q58 376 92 468 Q135 585 223 653 Q330 735 494 735 Q643 735 723 661 Q790 599 790 498 L583 498 Q581 548 549 572 Q523 592 478 592 Q370 592 313 463 Q275 376 275 279 Q275 199 313 159 Q343 127 391 127 Q458 127 503 165 Q541 197 551 246 L557 275 L404 275 L433 410 L772 410 Z M516 837 L469 780 L287 780 L457 934 L610 934 L714 780 L539 780 L516 837 Z " />
<glyph glyph-name="gcircumflex" unicode="&#x11d;" horiz-adv-x="633" d="M-3 -21 L191 -21 Q196 -45 212.5 -55 Q229 -65 263 -65 Q312 -65 332.5 -37.5 Q353 -10 371 81 Q304 22 228 22 Q137 22 85 84 Q39 138 39 223 Q39 369 132 459 Q212 535 324 535 Q370 535 408.5 517 Q447 499 468 469 L507 520 L657 520 L554 36 Q505 -195 245 -195 Q-3 -195 -3 -21 Z M430 314 Q430 353 409.5 375.5 Q389 398 353 398 Q297 398 263 346 Q237 304 237 249 Q237 205 262 181 Q283 161 316 161 Q372 161 404 214 Q430 256 430 314 Z M415 641 L368 584 L186 584 L356 738 L509 738 L613 584 L438 584 L415 641 Z " />
<glyph glyph-name="Gbreve" unicode="&#x11e;" horiz-adv-x="771" d="M772 410 L685 0 L542 0 L531 66 Q445 -15 325 -15 Q200 -15 126 72 Q58 150 58 275 Q58 376 92 468 Q135 585 223 653 Q330 735 494 735 Q643 735 723 661 Q790 599 790 498 L583 498 Q581 548 549 572 Q523 592 478 592 Q370 592 313 463 Q275 376 275 279 Q275 199 313 159 Q343 127 391 127 Q458 127 503 165 Q541 197 551 246 L557 275 L404 275 L433 410 L772 410 Z M516 773 Q441 773 402 809 Q366 842 366 902 Q366 909 368 923 L368 925 L506 925 Q504 911 504 906 Q504 875 529 875 Q559 875 571 925 L710 925 Q661 773 516 773 Z " />
<glyph glyph-name="gbreve" unicode="&#x11f;" horiz-adv-x="633" d="M-3 -21 L191 -21 Q196 -45 212.5 -55 Q229 -65 263 -65 Q312 -65 332.5 -37.5 Q353 -10 371 81 Q304 22 228 22 Q137 22 85 84 Q39 138 39 223 Q39 369 132 459 Q212 535 324 535 Q370 535 408.5 517 Q447 499 468 469 L507 520 L657 520 L554 36 Q505 -195 245 -195 Q-3 -195 -3 -21 Z M430 314 Q430 353 409.5 375.5 Q389 398 353 398 Q297 398 263 346 Q237 304 237 249 Q237 205 262 181 Q283 161 316 161 Q372 161 404 214 Q430 256 430 314 Z M403 577 Q328 577 289 613 Q253 646 253 706 Q253 713 255 727 L255 729 L393 729 Q391 715 391 710 Q391 679 416 679 Q446 679 458 729 L597 729 Q548 577 403 577 Z " />
<glyph glyph-name="Gdotaccent" unicode="&#x120;" horiz-adv-x="771" d="M772 410 L685 0 L542 0 L531 66 Q445 -15 325 -15 Q200 -15 126 72 Q58 150 58 275 Q58 376 92 468 Q135 585 223 653 Q330 735 494 735 Q643 735 723 661 Q790 599 790 498 L583 498 Q581 548 549 572 Q523 592 478 592 Q370 592 313 463 Q275 376 275 279 Q275 199 313 159 Q343 127 391 127 Q458 127 503 165 Q541 197 551 246 L557 275 L404 275 L433 410 L772 410 Z M613 779 L409 779 L441 925 L645 925 L613 779 Z " />
<glyph glyph-name="gdotaccent" unicode="&#x121;" horiz-adv-x="633" d="M-3 -21 L191 -21 Q196 -45 212.5 -55 Q229 -65 263 -65 Q312 -65 332.5 -37.5 Q353 -10 371 81 Q304 22 228 22 Q137 22 85 84 Q39 138 39 223 Q39 369 132 459 Q212 535 324 535 Q370 535 408.5 517 Q447 499 468 469 L507 520 L657 520 L554 36 Q505 -195 245 -195 Q-3 -195 -3 -21 Z M430 314 Q430 353 409.5 375.5 Q389 398 353 398 Q297 398 263 346 Q237 304 237 249 Q237 205 262 181 Q283 161 316 161 Q372 161 404 214 Q430 256 430 314 Z M503 583 L299 583 L331 729 L535 729 L503 583 Z " />
<glyph glyph-name="Gcommaaccent" unicode="&#x122;" horiz-adv-x="771" d="M772 410 L685 0 L542 0 L531 66 Q445 -15 325 -15 Q200 -15 126 72 Q58 150 58 275 Q58 376 92 468 Q135 585 223 653 Q330 735 494 735 Q643 735 723 661 Q790 599 790 498 L583 498 Q581 548 549 572 Q523 592 478 592 Q370 592 313 463 Q275 376 275 279 Q275 199 313 159 Q343 127 391 127 Q458 127 503 165 Q541 197 551 246 L557 275 L404 275 L433 410 L772 410 Z M438 -48 L411 -173 Q389 -274 328 -317 Q277 -353 180 -362 L198 -280 Q275 -266 290 -197 L241 -197 L273 -48 L438 -48 Z " />
<glyph glyph-name="gcommaaccent" unicode="&#x123;" horiz-adv-x="633" d="M-3 -21 L191 -21 Q196 -45 212.5 -55 Q229 -65 263 -65 Q312 -65 332.5 -37.5 Q353 -10 371 81 Q304 22 228 22 Q137 22 85 84 Q39 138 39 223 Q39 369 132 459 Q212 535 324 535 Q370 535 408.5 517 Q447 499 468 469 L507 520 L657 520 L554 36 Q505 -195 245 -195 Q-3 -195 -3 -21 Z M430 314 Q430 353 409.5 375.5 Q389 398 353 398 Q297 398 263 346 Q237 304 237 249 Q237 205 262 181 Q283 161 316 161 Q372 161 404 214 Q430 256 430 314 Z M308 576 L335 701 Q357 802 418 845 Q469 881 566 890 L548 808 Q471 794 456 725 L505 725 L473 576 L308 576 Z " />
<glyph glyph-name="Hcircumflex" unicode="&#x124;" horiz-adv-x="750" d="M598 720 L806 720 L653 0 L445 0 L506 293 L287 293 L226 0 L17 0 L170 720 L379 720 L318 435 L537 435 L598 720 Z M513 837 L466 780 L284 780 L454 934 L607 934 L711 780 L536 780 L513 837 Z " />
<glyph glyph-name="hcircumflex" unicode="&#x125;" horiz-adv-x="607" d="M6 0 L159 720 L352 720 L300 477 Q366 535 449 535 Q527 535 567 491 Q603 453 603 386 Q603 352 596 322 L527 0 L333 0 L401 321 Q405 341 405 350 Q405 402 356 402 Q322 402 297.5 377 Q273 352 264 308 L199 0 L6 0 Z M412 837 L365 780 L183 780 L353 934 L506 934 L610 780 L435 780 L412 837 Z " />
<glyph glyph-name="Hbar" unicode="&#x126;" horiz-adv-x="756" d="M601 720 L809 720 L793 644 L841 644 L811 508 L763 508 L656 0 L448 0 L509 293 L290 293 L229 0 L20 0 L127 508 L79 508 L109 644 L157 644 L173 720 L382 720 L366 644 L584 644 L601 720 Z M336 508 L321 435 L540 435 L555 508 L336 508 Z " />
<glyph glyph-name="hbar" unicode="&#x127;" horiz-adv-x="607" d="M6 0 L125 558 L81 558 L108 688 L152 688 L159 720 L352 720 L345 688 L447 688 L419 558 L318 558 L300 477 Q366 535 449 535 Q527 535 567 491 Q603 453 603 386 Q603 353 596 322 L527 0 L333 0 L402 324 Q405 336 405 350 Q405 402 356 402 Q322 402 297.5 377 Q273 352 264 308 L199 0 L6 0 Z " />
<glyph glyph-name="Itilde" unicode="&#x128;" horiz-adv-x="323" d="M170 720 L379 720 L226 0 L17 0 L170 720 Z M353 777 Q333 777 319.5 781 Q306 785 273 800 Q245 813 225 813 Q192 813 127 780 L153 905 Q208 934 255 934 Q286 934 327 914 Q361 897 383 897 Q412 897 478 930 L451 805 Q398 777 353 777 Z " />
<glyph glyph-name="itilde" unicode="&#x129;" horiz-adv-x="295" d="M204 0 L11 0 L121 520 L314 520 L204 0 Z M299 581 Q279 581 265.5 585 Q252 589 219 604 Q191 617 171 617 Q138 617 73 584 L99 709 Q154 738 201 738 Q232 738 273 718 Q307 701 329 701 Q358 701 424 734 L397 609 Q344 581 299 581 Z " />
<glyph glyph-name="Imacron" unicode="&#x12a;" horiz-adv-x="323" d="M170 720 L379 720 L226 0 L17 0 L170 720 Z M432 787 L143 787 L170 915 L459 915 L432 787 Z " />
<glyph glyph-name="imacron" unicode="&#x12b;" horiz-adv-x="295" d="M204 0 L11 0 L121 520 L314 520 L204 0 Z M378 591 L89 591 L116 719 L405 719 L378 591 Z " />
<glyph glyph-name="Ibreve" unicode="&#x12c;" horiz-adv-x="323" d="M170 720 L379 720 L226 0 L17 0 L170 720 Z M275 773 Q200 773 161 809 Q125 842 125 902 Q125 909 127 923 L127 925 L265 925 Q263 911 263 906 Q263 875 288 875 Q318 875 330 925 L469 925 Q420 773 275 773 Z " />
<glyph glyph-name="ibreve" unicode="&#x12d;" horiz-adv-x="295" d="M204 0 L11 0 L121 520 L314 520 L204 0 Z M217 577 Q142 577 103 613 Q67 646 67 706 Q67 713 69 727 L69 729 L207 729 Q205 715 205 710 Q205 679 230 679 Q260 679 272 729 L411 729 Q362 577 217 577 Z " />
<glyph glyph-name="Iogonek" unicode="&#x12e;" horiz-adv-x="329" d="M32 -263 Q-39 -263 -78 -228 Q-112 -198 -112 -152 Q-112 -101 -72 -58 Q-37 -21 20 2 L173 720 L382 720 L229 0 L139 0 Q18 -59 18 -131 Q18 -148 28 -159 Q38 -170 54 -170 Q80 -170 92 -144 L224 -144 Q165 -263 32 -263 Z " />
<glyph glyph-name="iogonek" unicode="&#x12f;" horiz-adv-x="295" d="M16 -263 Q-55 -263 -95 -228 Q-129 -198 -129 -152 Q-129 -99 -86 -55 Q-49 -18 12 6 L121 520 L314 520 L204 0 L122 0 Q2 -60 2 -131 Q2 -148 12 -159 Q22 -170 38 -170 Q64 -170 75 -144 L208 -144 Q149 -263 16 -263 Z M331 574 L127 574 L158 720 L363 720 L331 574 Z " />
<glyph glyph-name="Idot" unicode="&#x130;" horiz-adv-x="323" d="M170 720 L379 720 L226 0 L17 0 L170 720 Z M387 779 L183 779 L215 925 L419 925 L387 779 Z " />
<glyph glyph-name="IJ" unicode="&#x132;" horiz-adv-x="916" d="M170 720 L379 720 L226 0 L17 0 L170 720 Z M346 230 L547 230 Q544 211 544 196 Q544 164 558 146.5 Q572 129 597 129 Q625 129 641 148.5 Q657 168 667 213 L775 720 L977 720 L871 225 Q843 95 771 38 Q703 -15 586 -15 Q468 -15 404 42 Q343 97 343 193 Q343 211 346 230 Z " />
<glyph glyph-name="ij" unicode="&#x133;" horiz-adv-x="586" d="M331 574 L127 574 L158 720 L363 720 L331 574 Z M204 0 L11 0 L121 520 L314 520 L204 0 Z M174 -178 L203 -42 Q230 -52 251 -52 Q274 -52 285.5 -41.5 Q297 -31 302 -7 L414 520 L607 520 L494 -17 Q456 -195 283 -195 Q220 -195 174 -178 Z M624 571 L420 571 L451 717 L655 717 L624 571 Z " />
<glyph glyph-name="Jcircumflex" unicode="&#x134;" horiz-adv-x="593" d="M23 230 L224 230 Q221 211 221 196 Q221 164 235 146.5 Q249 129 274 129 Q302 129 318 148.5 Q334 168 344 213 L452 720 L654 720 L548 225 Q520 95 448 38 Q380 -15 263 -15 Q145 -15 81 42 Q20 97 20 193 Q20 211 23 230 Z M572 837 L525 780 L343 780 L513 934 L666 934 L770 780 L595 780 L572 837 Z " />
<glyph glyph-name="jcircumflex" unicode="&#x135;" horiz-adv-x="291" d="M-121 -180 L-92 -44 Q-66 -54 -45 -54 Q-22 -54 -10.5 -44 Q1 -34 6 -9 L119 520 L312 520 L198 -18 Q160 -195 -12 -195 Q-78 -195 -121 -180 Z M236 641 L189 584 L7 584 L177 738 L330 738 L434 584 L259 584 L236 641 Z " />
<glyph glyph-name="Kcommaaccent" unicode="&#x136;" horiz-adv-x="761" d="M721 0 L472 0 L284 276 L226 0 L17 0 L170 720 L379 720 L323 459 L599 720 L840 720 L456 370 L721 0 Z M398 -48 L371 -173 Q349 -274 288 -317 Q237 -353 140 -362 L158 -280 Q235 -266 250 -197 L201 -197 L233 -48 L398 -48 Z " />
<glyph glyph-name="kcommaaccent" unicode="&#x137;" horiz-adv-x="623" d="M199 0 L6 0 L159 720 L352 720 L275 359 L457 520 L682 520 L409 289 L587 0 L352 0 L241 201 L199 0 Z M340 -48 L313 -173 Q291 -274 230 -317 Q179 -353 82 -362 L100 -280 Q177 -266 192 -197 L143 -197 L175 -48 L340 -48 Z " />
<glyph glyph-name="kgreenlandic" unicode="&#x138;" horiz-adv-x="623" d="M199 0 L6 0 L116 520 L309 520 L275 356 L459 520 L682 520 L408 288 L587 0 L357 0 L241 198 L199 0 Z " />
<glyph glyph-name="Lacute" unicode="&#x139;" horiz-adv-x="629" d="M170 720 L379 720 L258 151 L600 151 L569 0 L17 0 L170 720 Z M159 774 L300 928 L500 928 L307 774 L159 774 Z " />
<glyph glyph-name="lacute" unicode="&#x13a;" horiz-adv-x="286" d="M353 720 L200 0 L6 0 L159 720 L353 720 Z M126 774 L267 928 L467 928 L274 774 L126 774 Z " />
<glyph glyph-name="Lcommaaccent" unicode="&#x13b;" horiz-adv-x="629" d="M170 720 L379 720 L258 151 L600 151 L569 0 L17 0 L170 720 Z M353 -48 L326 -173 Q304 -274 243 -317 Q192 -353 95 -362 L113 -280 Q190 -266 205 -197 L156 -197 L188 -48 L353 -48 Z " />
<glyph glyph-name="lcommaaccent" unicode="&#x13c;" horiz-adv-x="286" d="M353 720 L200 0 L6 0 L159 720 L353 720 Z M177 -48 L150 -173 Q128 -274 67 -317 Q16 -353 -81 -362 L-63 -280 Q14 -266 29 -197 L-20 -197 L12 -48 L177 -48 Z " />
<glyph glyph-name="Lcaron" unicode="&#x13d;" horiz-adv-x="629" d="M170 720 L379 720 L258 151 L600 151 L569 0 L17 0 L170 720 Z M622 720 L595 595 Q573 494 512 451 Q461 415 364 406 L382 488 Q459 502 474 571 L425 571 L457 720 L622 720 Z " />
<glyph glyph-name="lcaron" unicode="&#x13e;" horiz-adv-x="484" d="M353 720 L200 0 L6 0 L159 720 L353 720 Z M579 720 L552 595 Q530 494 469 451 Q418 415 321 406 L339 488 Q416 502 431 571 L382 571 L414 720 L579 720 Z " />
<glyph glyph-name="Ldot" unicode="&#x13f;" horiz-adv-x="629" d="M170 720 L379 720 L258 151 L600 151 L569 0 L17 0 L170 720 Z M597 304 L393 304 L425 450 L629 450 L597 304 Z " />
<glyph glyph-name="ldot" unicode="&#x140;" horiz-adv-x="486" d="M353 720 L200 0 L6 0 L159 720 L353 720 Z M514 304 L310 304 L342 450 L546 450 L514 304 Z " />
<glyph glyph-name="Lslash" unicode="&#x141;" horiz-adv-x="633" d="M174 720 L383 720 L344 537 L436 586 L401 419 L309 370 L262 150 L604 150 L573 0 L21 0 L73 246 L7 211 L42 378 L108 413 L174 720 Z " />
<glyph glyph-name="lslash" unicode="&#x142;" horiz-adv-x="303" d="M360 720 L319 531 L370 559 L334 392 L284 364 L207 0 L13 0 L64 243 L18 218 L53 384 L99 409 L166 720 L360 720 Z " />
<glyph glyph-name="Nacute" unicode="&#x143;" horiz-adv-x="748" d="M626 720 L804 720 L651 0 L447 0 L289 448 L195 0 L17 0 L170 720 L387 720 L535 294 L626 720 Z M419 774 L560 928 L760 928 L567 774 L419 774 Z " />
<glyph glyph-name="nacute" unicode="&#x144;" horiz-adv-x="607" d="M6 0 L116 520 L280 520 L283 462 Q317 496 361.5 515.5 Q406 535 449 535 Q527 535 567 491 Q603 453 603 386 Q603 353 596 322 L527 0 L333 0 L402 322 Q406 340 406 352 Q406 375 392.5 388.5 Q379 402 356 402 Q322 402 297.5 377 Q273 352 264 308 L199 0 L6 0 Z M297 578 L438 732 L638 732 L445 578 L297 578 Z " />
<glyph glyph-name="Ncommaaccent" unicode="&#x145;" horiz-adv-x="748" d="M626 720 L804 720 L651 0 L447 0 L289 448 L195 0 L17 0 L170 720 L387 720 L535 294 L626 720 Z M414 -48 L387 -173 Q365 -274 304 -317 Q253 -353 156 -362 L174 -280 Q251 -266 266 -197 L217 -197 L249 -48 L414 -48 Z " />
<glyph glyph-name="ncommaaccent" unicode="&#x146;" horiz-adv-x="607" d="M6 0 L116 520 L280 520 L283 462 Q317 496 361.5 515.5 Q406 535 449 535 Q527 535 567 491 Q603 453 603 386 Q603 353 596 322 L527 0 L333 0 L402 322 Q406 340 406 352 Q406 375 392.5 388.5 Q379 402 356 402 Q322 402 297.5 377 Q273 352 264 308 L199 0 L6 0 Z M344 -48 L317 -173 Q295 -274 234 -317 Q183 -353 86 -362 L104 -280 Q181 -266 196 -197 L147 -197 L179 -48 L344 -48 Z " />
<glyph glyph-name="Ncaron" unicode="&#x147;" horiz-adv-x="748" d="M626 720 L804 720 L651 0 L447 0 L289 448 L195 0 L17 0 L170 720 L387 720 L535 294 L626 720 Z M499 934 L522 881 L569 934 L750 934 L580 780 L427 780 L323 934 L499 934 Z " />
<glyph glyph-name="ncaron" unicode="&#x148;" horiz-adv-x="607" d="M6 0 L116 520 L280 520 L283 462 Q317 496 361.5 515.5 Q406 535 449 535 Q527 535 567 491 Q603 453 603 386 Q603 353 596 322 L527 0 L333 0 L402 322 Q406 340 406 352 Q406 375 392.5 388.5 Q379 402 356 402 Q322 402 297.5 377 Q273 352 264 308 L199 0 L6 0 Z M390 738 L413 685 L460 738 L641 738 L471 584 L318 584 L214 738 L390 738 Z " />
<glyph glyph-name="napostrophe" unicode="&#x149;" horiz-adv-x="725" d="M124 0 L234 520 L398 520 L401 462 Q435 496 479.5 515.5 Q524 535 567 535 Q645 535 685 491 Q721 453 721 386 Q721 353 714 322 L645 0 L451 0 L520 322 Q524 340 524 352 Q524 375 510.5 388.5 Q497 402 474 402 Q440 402 415.5 377 Q391 352 382 308 L317 0 L124 0 Z M271 715 L248 608 Q229 517 172 476 Q125 441 40 432 L55 506 Q125 519 138 582 L94 582 L122 715 L271 715 Z " />
<glyph glyph-name="Eng" unicode="&#x14a;" horiz-adv-x="748" d="M626 720 L804 720 L647 -18 Q609 -195 436 -195 Q374 -195 328 -179 L357 -44 Q383 -54 406 -54 Q436 -54 453 -41 Q470 -28 470 -5 L470 0 L447 0 L288 447 L194 0 L17 0 L170 720 L386 720 L535 294 L626 720 Z " />
<glyph glyph-name="eng" unicode="&#x14b;" horiz-adv-x="607" d="M6 0 L116 520 L280 520 L283 462 Q317 496 361.5 515.5 Q406 535 449 535 Q527 535 567 491 Q603 453 603 386 Q603 353 596 322 L523 -19 Q486 -195 313 -195 Q249 -195 204 -180 L233 -44 Q260 -54 281 -54 Q303 -54 314.5 -44 Q326 -34 331 -10 L402 322 Q406 340 406 352 Q406 375 392.5 388.5 Q379 402 356 402 Q322 402 297.5 377 Q273 352 264 308 L199 0 L6 0 Z " />
<glyph glyph-name="Omacron" unicode="&#x14c;" horiz-adv-x="801" d="M401 132 Q508 132 564 255 Q603 338 603 433 Q603 517 557 558 Q523 589 473 589 Q363 589 307 461 Q270 377 270 286 Q270 203 317 162 Q351 132 401 132 Z M384 -15 Q237 -15 146 68 Q57 149 57 286 Q57 386 91 477 Q134 591 221 656 Q326 735 486 735 Q631 735 723 653 Q814 572 814 435 Q814 332 778 240 Q735 127 647 63 Q542 -15 384 -15 Z M670 787 L381 787 L408 915 L697 915 L670 787 Z " />
<glyph glyph-name="omacron" unicode="&#x14d;" horiz-adv-x="629" d="M361 535 Q488 535 558 471 Q623 413 623 315 Q623 166 535 75 Q448 -15 295 -15 Q171 -15 100 49 Q36 109 36 208 Q36 345 111 433 Q196 535 361 535 Z M351 407 Q283 407 252 316 Q234 262 234 202 Q234 113 311 113 Q379 113 409 205 Q427 260 427 323 Q427 407 351 407 Z M544 591 L255 591 L282 719 L571 719 L544 591 Z " />
<glyph glyph-name="Obreve" unicode="&#x14e;" horiz-adv-x="800" d="M401 132 Q508 132 564 255 Q603 338 603 433 Q603 517 557 558 Q523 589 473 589 Q363 589 307 461 Q270 377 270 286 Q270 203 317 162 Q351 132 401 132 Z M384 -15 Q237 -15 146 68 Q57 149 57 286 Q57 386 91 477 Q134 591 221 656 Q326 735 486 735 Q631 735 723 653 Q814 572 814 435 Q814 332 778 240 Q735 127 647 63 Q542 -15 384 -15 Z M508 773 Q433 773 394 809 Q358 842 358 902 Q358 909 360 923 L360 925 L498 925 Q496 911 496 906 Q496 875 521 875 Q551 875 563 925 L702 925 Q653 773 508 773 Z " />
<glyph glyph-name="obreve" unicode="&#x14f;" horiz-adv-x="629" d="M361 535 Q488 535 558 471 Q623 413 623 315 Q623 166 535 75 Q448 -15 295 -15 Q171 -15 100 49 Q36 109 36 208 Q36 345 111 433 Q196 535 361 535 Z M351 407 Q283 407 252 316 Q234 262 234 202 Q234 113 311 113 Q379 113 409 205 Q427 260 427 323 Q427 407 351 407 Z M383 577 Q308 577 269 613 Q233 646 233 706 Q233 713 235 727 L235 729 L373 729 Q371 715 371 710 Q371 679 396 679 Q426 679 438 729 L577 729 Q528 577 383 577 Z " />
<glyph glyph-name="Ohungarumlaut" unicode="&#x150;" horiz-adv-x="800" d="M401 132 Q508 132 564 255 Q603 338 603 433 Q603 517 557 558 Q523 589 473 589 Q363 589 307 461 Q270 377 270 286 Q270 203 317 162 Q351 132 401 132 Z M384 -15 Q237 -15 146 68 Q57 149 57 286 Q57 386 91 477 Q134 591 221 656 Q326 735 486 735 Q631 735 723 653 Q814 572 814 435 Q814 332 778 240 Q735 127 647 63 Q542 -15 384 -15 Z M317 774 L457 928 L656 928 L463 774 L317 774 Z M564 774 L704 928 L903 928 L710 774 L564 774 Z " />
<glyph glyph-name="ohungarumlaut" unicode="&#x151;" horiz-adv-x="629" d="M361 535 Q488 535 558 471 Q623 413 623 315 Q623 166 535 75 Q448 -15 295 -15 Q171 -15 100 49 Q36 109 36 208 Q36 345 111 433 Q196 535 361 535 Z M351 407 Q283 407 252 316 Q234 262 234 202 Q234 113 311 113 Q379 113 409 205 Q427 260 427 323 Q427 407 351 407 Z M192 578 L332 732 L531 732 L338 578 L192 578 Z M439 578 L579 732 L778 732 L585 578 L439 578 Z " />
<glyph glyph-name="Racute" unicode="&#x154;" horiz-adv-x="729" d="M684 0 L444 0 L341 250 L279 250 L226 0 L17 0 L170 720 L445 720 Q595 720 670 662 Q733 612 733 528 Q733 353 545 287 L684 0 Z M419 578 L349 578 L309 392 L396 392 Q451 392 484 425 Q515 456 515 505 Q515 540 490 559 Q465 578 419 578 Z M370 774 L511 928 L711 928 L518 774 L370 774 Z " />
<glyph glyph-name="racute" unicode="&#x155;" horiz-adv-x="425" d="M200 0 L6 0 L116 520 L282 520 L282 440 Q342 535 427 535 Q460 535 491 527 L454 355 Q415 367 381 367 Q329 367 292 323 Q259 283 244 210 L200 0 Z M218 578 L359 732 L559 732 L366 578 L218 578 Z " />
<glyph glyph-name="Rcommaaccent" unicode="&#x156;" horiz-adv-x="729" d="M684 0 L444 0 L341 250 L279 250 L226 0 L17 0 L170 720 L445 720 Q595 720 670 662 Q733 612 733 528 Q733 353 545 287 L684 0 Z M419 578 L349 578 L309 392 L396 392 Q451 392 484 425 Q515 456 515 505 Q515 540 490 559 Q465 578 419 578 Z M392 -48 L365 -173 Q343 -274 282 -317 Q231 -353 134 -362 L152 -280 Q229 -266 244 -197 L195 -197 L227 -48 L392 -48 Z " />
<glyph glyph-name="rcommaaccent" unicode="&#x157;" horiz-adv-x="425" d="M200 0 L6 0 L116 520 L282 520 L282 440 Q342 535 427 535 Q460 535 491 527 L454 355 Q415 367 381 367 Q329 367 292 323 Q259 283 244 210 L200 0 Z M175 -48 L148 -173 Q126 -274 65 -317 Q14 -353 -83 -362 L-65 -280 Q12 -266 27 -197 L-22 -197 L10 -48 L175 -48 Z " />
<glyph glyph-name="Rcaron" unicode="&#x158;" horiz-adv-x="729" d="M684 0 L444 0 L341 250 L279 250 L226 0 L17 0 L170 720 L445 720 Q595 720 670 662 Q733 612 733 528 Q733 353 545 287 L684 0 Z M419 578 L349 578 L309 392 L396 392 Q451 392 484 425 Q515 456 515 505 Q515 540 490 559 Q465 578 419 578 Z M439 934 L462 881 L509 934 L690 934 L520 780 L367 780 L263 934 L439 934 Z " />
<glyph glyph-name="rcaron" unicode="&#x159;" horiz-adv-x="425" d="M200 0 L6 0 L116 520 L282 520 L282 440 Q342 535 427 535 Q460 535 491 527 L454 355 Q415 367 381 367 Q329 367 292 323 Q259 283 244 210 L200 0 Z M301 738 L324 685 L371 738 L552 738 L382 584 L229 584 L125 738 L301 738 Z " />
<glyph glyph-name="Sacute" unicode="&#x15a;" horiz-adv-x="679" d="M327 -15 Q168 -15 87 65 Q24 126 24 216 L24 227 L226 227 Q226 127 344 127 Q455 127 455 202 Q455 238 423 260 Q391 282 312 298 Q209 319 152 380 Q101 435 101 510 Q101 735 414 735 Q556 735 637 665 Q707 605 707 509 L510 509 Q510 554 475 576 Q447 593 401 593 Q318 593 318 534 Q318 504 345.5 484.5 Q373 465 433 451 Q670 396 670 234 Q670 -15 327 -15 Z M331 774 L472 928 L672 928 L479 774 L331 774 Z " />
<glyph glyph-name="sacute" unicode="&#x15b;" horiz-adv-x="563" d="M278 112 Q340 112 340 149 Q340 169 320 181.5 Q300 194 251 203 Q62 238 62 360 Q62 535 318 535 Q433 535 502 482 Q563 435 563 365 L375 365 Q370 409 306 409 Q259 409 259 378 Q259 341 348 324 Q539 287 539 173 Q539 -15 270 -15 Q150 -15 78 39 Q15 87 15 157 L204 157 Q206 137 226 124.5 Q246 112 278 112 Z M231 578 L372 732 L572 732 L379 578 L231 578 Z " />
<glyph glyph-name="Scircumflex" unicode="&#x15c;" horiz-adv-x="679" d="M327 -15 Q168 -15 87 65 Q24 126 24 216 L24 227 L226 227 Q226 127 344 127 Q455 127 455 202 Q455 238 423 260 Q391 282 312 298 Q209 319 152 380 Q101 435 101 510 Q101 735 414 735 Q556 735 637 665 Q707 605 707 509 L510 509 Q510 554 475 576 Q447 593 401 593 Q318 593 318 534 Q318 504 345.5 484.5 Q373 465 433 451 Q670 396 670 234 Q670 -15 327 -15 Z M441 837 L394 780 L212 780 L382 934 L535 934 L639 780 L464 780 L441 837 Z " />
<glyph glyph-name="scircumflex" unicode="&#x15d;" horiz-adv-x="563" d="M278 112 Q340 112 340 149 Q340 169 320 181.5 Q300 194 251 203 Q62 238 62 360 Q62 535 318 535 Q433 535 502 482 Q563 435 563 365 L375 365 Q370 409 306 409 Q259 409 259 378 Q259 341 348 324 Q539 287 539 173 Q539 -15 270 -15 Q150 -15 78 39 Q15 87 15 157 L204 157 Q206 137 226 124.5 Q246 112 278 112 Z M360 641 L313 584 L131 584 L301 738 L454 738 L558 584 L383 584 L360 641 Z " />
<glyph glyph-name="Scedilla" unicode="&#x15e;" horiz-adv-x="679" d="M376 -35 Q413 -43 434.5 -67.5 Q456 -92 456 -127 Q456 -196 400 -234 Q352 -267 278 -267 Q199 -267 154 -230 Q115 -197 115 -146 L115 -137 L242 -137 Q242 -155 254 -165 Q266 -175 286 -175 Q328 -175 328 -139 Q328 -100 240 -100 L267 -11 Q139 3 74 78 Q24 136 24 216 L24 227 L226 227 Q226 127 344 127 Q455 127 455 202 Q455 238 423 260 Q391 282 312 298 Q209 319 152 380 Q101 435 101 510 Q101 735 414 735 Q556 735 637 665 Q707 605 707 509 L510 509 Q510 554 475 576 Q447 593 401 593 Q318 593 318 534 Q318 504 345.5 484.5 Q373 465 433 451 Q670 396 670 234 Q670 5 379 -13 L376 -35 Z " />
<glyph glyph-name="scedilla" unicode="&#x15f;" horiz-adv-x="563" d="M316 -13 L313 -35 Q350 -43 371.5 -67.5 Q393 -92 393 -127 Q393 -196 337 -234 Q289 -267 215 -267 Q136 -267 91 -230 Q51 -197 51 -146 L51 -137 L178 -137 Q178 -154 190 -164.5 Q202 -175 222 -175 Q265 -175 265 -139 Q265 -100 177 -100 L203 -9 Q111 4 60 54 Q15 97 15 157 L204 157 Q206 137 226 124.5 Q246 112 278 112 Q340 112 340 149 Q340 169 320 181.5 Q300 194 251 203 Q62 238 62 360 Q62 535 318 535 Q433 535 502 482 Q563 435 563 365 L375 365 Q370 409 306 409 Q259 409 259 378 Q259 341 348 324 Q539 287 539 173 Q539 3 316 -13 Z " />
<glyph glyph-name="Scaron" unicode="&#x160;" horiz-adv-x="679" d="M327 -15 Q168 -15 87 65 Q24 126 24 216 L24 227 L226 227 Q226 127 344 127 Q455 127 455 202 Q455 238 423 260 Q391 282 312 298 Q209 319 152 380 Q101 435 101 510 Q101 735 414 735 Q556 735 637 665 Q707 605 707 509 L510 509 Q510 554 475 576 Q447 593 401 593 Q318 593 318 534 Q318 504 345.5 484.5 Q373 465 433 451 Q670 396 670 234 Q670 -15 327 -15 Z M427 934 L450 881 L497 934 L678 934 L508 780 L355 780 L251 934 L427 934 Z " />
<glyph glyph-name="scaron" unicode="&#x161;" horiz-adv-x="563" d="M278 112 Q340 112 340 149 Q340 169 320 181.5 Q300 194 251 203 Q62 238 62 360 Q62 535 318 535 Q433 535 502 482 Q563 435 563 365 L375 365 Q370 409 306 409 Q259 409 259 378 Q259 341 348 324 Q539 287 539 173 Q539 -15 270 -15 Q150 -15 78 39 Q15 87 15 157 L204 157 Q206 137 226 124.5 Q246 112 278 112 Z M335 738 L358 685 L405 738 L586 738 L416 584 L263 584 L159 738 L335 738 Z " />
<glyph glyph-name="Tcommaaccent" unicode="&#x162;" horiz-adv-x="636" d="M744 720 L712 569 L501 569 L381 0 L172 0 L292 569 L86 569 L118 720 L744 720 Z M350 -48 L323 -173 Q301 -274 240 -317 Q189 -353 92 -362 L110 -280 Q187 -266 202 -197 L153 -197 L185 -48 L350 -48 Z " />
<glyph glyph-name="tcommaaccent" unicode="&#x163;" horiz-adv-x="397" d="M370 131 L343 1 Q279 -15 232 -15 Q152 -15 110 25 Q74 59 74 117 Q74 135 79 160 L128 389 L52 389 L80 520 L155 520 L193 645 L375 645 L349 520 L452 520 L424 389 L321 389 L273 163 Q271 155 271 147 Q271 120 308 120 Q331 120 370 131 Z M238 -48 L211 -173 Q189 -274 128 -317 Q77 -353 -20 -362 L-2 -280 Q75 -266 90 -197 L41 -197 L73 -48 L238 -48 Z " />
<glyph glyph-name="Tcaron" unicode="&#x164;" horiz-adv-x="636" d="M744 720 L712 569 L501 569 L381 0 L172 0 L292 569 L86 569 L118 720 L744 720 Z M437 934 L460 881 L507 934 L688 934 L518 780 L365 780 L261 934 L437 934 Z " />
<glyph glyph-name="tcaron" unicode="&#x165;" horiz-adv-x="499" d="M639 733 L620 646 Q597 541 448 535 L461 594 Q498 597 506 627 L477 627 L499 733 L639 733 Z M370 131 L343 1 Q279 -15 232 -15 Q152 -15 110 25 Q74 59 74 117 Q74 135 79 160 L128 389 L52 389 L80 520 L155 520 L193 645 L375 645 L349 520 L452 520 L424 389 L321 389 L273 163 Q271 155 271 147 Q271 120 308 120 Q331 120 370 131 Z " />
<glyph glyph-name="Tbar" unicode="&#x166;" horiz-adv-x="636" d="M555 336 L452 336 L380 0 L171 0 L243 336 L140 336 L168 472 L271 472 L292 569 L85 569 L118 720 L744 720 L711 569 L501 569 L480 472 L583 472 L555 336 Z " />
<glyph glyph-name="tbar" unicode="&#x167;" horiz-adv-x="397" d="M370 131 L343 1 Q279 -15 232 -15 Q152 -15 110 25 Q74 59 74 117 Q74 135 79 160 L93 229 L41 229 L69 358 L121 358 L128 389 L52 389 L80 520 L155 520 L193 645 L375 645 L349 520 L452 520 L424 389 L321 389 L314 358 L392 358 L364 229 L288 229 L273 162 Q271 154 271 147 Q271 120 308 120 Q331 120 370 131 Z " />
<glyph glyph-name="Utilde" unicode="&#x168;" horiz-adv-x="741" d="M163 720 L373 720 L270 238 Q266 220 266 212 Q266 173 292 151.5 Q318 130 365 130 Q473 130 496 234 L599 720 L802 720 L701 246 Q645 -15 351 -15 Q205 -15 126 49 Q57 105 57 197 Q57 223 63 251 L163 720 Z M568 777 Q548 777 534.5 781 Q521 785 488 800 Q460 813 440 813 Q407 813 342 780 L368 905 Q423 934 470 934 Q501 934 542 914 Q576 897 598 897 Q627 897 693 930 L666 805 Q613 777 568 777 Z " />
<glyph glyph-name="utilde" unicode="&#x169;" horiz-adv-x="600" d="M109 520 L302 520 L235 201 Q230 176 230 168 Q230 145 243 131.5 Q256 118 279 118 Q311 118 334 143 Q357 168 367 213 L432 520 L624 520 L514 0 L351 0 L347 53 Q277 -15 185 -15 Q107 -15 67 29 Q33 67 33 132 Q33 160 41 198 L109 520 Z M451 581 Q431 581 417.5 585 Q404 589 371 604 Q343 617 323 617 Q290 617 225 584 L251 709 Q306 738 353 738 Q384 738 425 718 Q459 701 481 701 Q510 701 576 734 L549 609 Q496 581 451 581 Z " />
<glyph glyph-name="Umacron" unicode="&#x16a;" horiz-adv-x="741" d="M163 720 L373 720 L270 238 Q266 220 266 212 Q266 173 292 151.5 Q318 130 365 130 Q473 130 496 234 L599 720 L802 720 L701 246 Q645 -15 351 -15 Q205 -15 126 49 Q57 105 57 197 Q57 223 63 251 L163 720 Z M640 787 L351 787 L378 915 L667 915 L640 787 Z " />
<glyph glyph-name="umacron" unicode="&#x16b;" horiz-adv-x="600" d="M109 520 L302 520 L235 201 Q230 176 230 168 Q230 145 243 131.5 Q256 118 279 118 Q311 118 334 143 Q357 168 367 213 L432 520 L624 520 L514 0 L351 0 L347 53 Q277 -15 185 -15 Q107 -15 67 29 Q33 67 33 132 Q33 160 41 198 L109 520 Z M526 591 L237 591 L264 719 L553 719 L526 591 Z " />
<glyph glyph-name="Ubreve" unicode="&#x16c;" horiz-adv-x="741" d="M163 720 L373 720 L270 238 Q266 220 266 212 Q266 173 292 151.5 Q318 130 365 130 Q473 130 496 234 L599 720 L802 720 L701 246 Q645 -15 351 -15 Q205 -15 126 49 Q57 105 57 197 Q57 223 63 251 L163 720 Z M505 773 Q430 773 391 809 Q355 842 355 902 Q355 909 357 923 L357 925 L495 925 Q493 911 493 906 Q493 875 518 875 Q548 875 560 925 L699 925 Q650 773 505 773 Z " />
<glyph glyph-name="ubreve" unicode="&#x16d;" horiz-adv-x="600" d="M109 520 L302 520 L235 201 Q230 176 230 168 Q230 145 243 131.5 Q256 118 279 118 Q311 118 334 143 Q357 168 367 213 L432 520 L624 520 L514 0 L351 0 L347 53 Q277 -15 185 -15 Q107 -15 67 29 Q33 67 33 132 Q33 160 41 198 L109 520 Z M386 577 Q311 577 272 613 Q236 646 236 706 Q236 713 238 727 L238 729 L376 729 Q374 715 374 710 Q374 679 399 679 Q429 679 441 729 L580 729 Q531 577 386 577 Z " />
<glyph glyph-name="Uring" unicode="&#x16e;" horiz-adv-x="741" d="M163 720 L373 720 L270 238 Q266 220 266 212 Q266 173 292 151.5 Q318 130 365 130 Q473 130 496 234 L599 720 L802 720 L701 246 Q645 -15 351 -15 Q205 -15 126 49 Q57 105 57 197 Q57 223 63 251 L163 720 Z M513 907 Q495 907 484.5 894 Q474 881 474 860 Q474 823 506 823 Q545 823 545 872 Q545 907 513 907 Z M520 1000 Q596 1000 637 958 Q670 925 670 876 Q670 808 621 768 Q575 731 499 731 Q423 731 382 772 Q350 805 350 854 Q350 921 398 962 Q444 1000 520 1000 Z " />
<glyph glyph-name="uring" unicode="&#x16f;" horiz-adv-x="600" d="M109 520 L302 520 L235 201 Q230 176 230 168 Q230 145 243 131.5 Q256 118 279 118 Q311 118 334 143 Q357 168 367 213 L432 520 L624 520 L514 0 L351 0 L347 53 Q277 -15 185 -15 Q107 -15 67 29 Q33 67 33 132 Q33 160 41 198 L109 520 Z M406 747 Q388 747 377.5 734 Q367 721 367 700 Q367 663 399 663 Q438 663 438 712 Q438 747 406 747 Z M413 840 Q489 840 530 798 Q563 765 563 716 Q563 648 514 608 Q468 571 392 571 Q316 571 275 612 Q243 645 243 694 Q243 761 291 802 Q337 840 413 840 Z " />
<glyph glyph-name="Uhungarumlaut" unicode="&#x170;" horiz-adv-x="741" d="M163 720 L373 720 L270 238 Q266 220 266 212 Q266 173 292 151.5 Q318 130 365 130 Q473 130 496 234 L599 720 L802 720 L701 246 Q645 -15 351 -15 Q205 -15 126 49 Q57 105 57 197 Q57 223 63 251 L163 720 Z M292 774 L432 928 L631 928 L438 774 L292 774 Z M539 774 L679 928 L878 928 L685 774 L539 774 Z " />
<glyph glyph-name="uhungarumlaut" unicode="&#x171;" horiz-adv-x="600" d="M109 520 L302 520 L235 201 Q230 176 230 168 Q230 145 243 131.5 Q256 118 279 118 Q311 118 334 143 Q357 168 367 213 L432 520 L624 520 L514 0 L351 0 L347 53 Q277 -15 185 -15 Q107 -15 67 29 Q33 67 33 132 Q33 160 41 198 L109 520 Z M176 578 L316 732 L515 732 L322 578 L176 578 Z M423 578 L563 732 L762 732 L569 578 L423 578 Z " />
<glyph glyph-name="Uogonek" unicode="&#x172;" horiz-adv-x="741" d="M381 -263 Q310 -263 271 -228 Q237 -198 237 -152 Q237 -69 333 -14 Q195 -10 121 53 Q57 108 57 197 Q57 223 63 251 L163 720 L373 720 L270 238 Q266 220 266 212 Q266 173 292 151.5 Q318 130 365 130 Q473 130 496 234 L599 720 L802 720 L701 246 Q681 153 632 96 Q587 41 510 10 Q450 -15 411 -51 Q367 -91 367 -131 Q367 -148 377 -159 Q387 -170 403 -170 Q429 -170 441 -144 L573 -144 Q514 -263 381 -263 Z " />
<glyph glyph-name="uogonek" unicode="&#x173;" horiz-adv-x="600" d="M353 -263 Q282 -263 243 -228 Q209 -198 209 -152 Q209 -99 252 -55 Q289 -17 350 6 L347 53 Q277 -15 185 -15 Q107 -15 67 29 Q33 67 33 132 Q33 160 41 198 L109 520 L302 520 L232 190 Q230 180 230 168 Q230 145 243 131.5 Q256 118 279 118 Q310 118 333.5 143.5 Q357 169 367 213 L431 520 L624 520 L514 0 L460 0 Q339 -59 339 -131 Q339 -148 349.5 -159 Q360 -170 376 -170 Q401 -170 413 -144 L545 -144 Q488 -263 353 -263 Z " />
<glyph glyph-name="Wcircumflex" unicode="&#x174;" horiz-adv-x="1019" d="M927 720 L1132 720 L819 0 L588 0 L575 500 L356 0 L132 0 L113 720 L321 720 L308 253 L513 720 L733 720 L745 249 L927 720 Z M649 837 L602 780 L420 780 L590 934 L743 934 L847 780 L672 780 L649 837 Z " />
<glyph glyph-name="wcircumflex" unicode="&#x175;" horiz-adv-x="859" d="M731 520 L925 520 L672 0 L452 0 L459 333 L316 0 L102 0 L74 520 L268 520 L254 189 L399 520 L604 520 L599 191 L731 520 Z M528 641 L481 584 L299 584 L469 738 L622 738 L726 584 L551 584 L528 641 Z " />
<glyph glyph-name="Ycircumflex" unicode="&#x176;" horiz-adv-x="724" d="M422 0 L222 0 L283 288 L113 720 L332 720 L414 446 L625 720 L837 720 L483 288 L422 0 Z M505 837 L458 780 L276 780 L446 934 L599 934 L703 780 L528 780 L505 837 Z " />
<glyph glyph-name="ycircumflex" unicode="&#x177;" horiz-adv-x="594" d="M464 520 L665 520 L365 -7 Q299 -123 244 -162 Q197 -195 126 -195 Q74 -195 19 -179 L47 -49 Q93 -63 118 -63 Q140 -63 155.5 -49 Q171 -35 189 0 L153 0 L70 520 L270 520 L283 138 L464 520 Z M393 641 L346 584 L164 584 L334 738 L487 738 L591 584 L416 584 L393 641 Z " />
<glyph glyph-name="Zacute" unicode="&#x179;" horiz-adv-x="647" d="M709 586 L278 145 L609 145 L579 0 L-18 0 L11 136 L442 575 L123 575 L154 720 L738 720 L709 586 Z M360 774 L501 928 L701 928 L508 774 L360 774 Z " />
<glyph glyph-name="zacute" unicode="&#x17a;" horiz-adv-x="527" d="M551 385 L260 138 L490 138 L461 0 L-23 0 L5 135 L301 382 L75 382 L104 520 L580 520 L551 385 Z M277 578 L418 732 L618 732 L425 578 L277 578 Z " />
<glyph glyph-name="Zdotaccent" unicode="&#x17b;" horiz-adv-x="647" d="M709 586 L278 145 L609 145 L579 0 L-18 0 L11 136 L442 575 L123 575 L154 720 L738 720 L709 586 Z M555 779 L351 779 L383 925 L587 925 L555 779 Z " />
<glyph glyph-name="zdotaccent" unicode="&#x17c;" horiz-adv-x="527" d="M551 385 L260 138 L490 138 L461 0 L-23 0 L5 135 L301 382 L75 382 L104 520 L580 520 L551 385 Z M463 583 L259 583 L291 729 L495 729 L463 583 Z " />
<glyph glyph-name="Zcaron" unicode="&#x17d;" horiz-adv-x="647" d="M709 586 L278 145 L609 145 L579 0 L-18 0 L11 136 L442 575 L123 575 L154 720 L738 720 L709 586 Z M445 934 L468 881 L515 934 L696 934 L526 780 L373 780 L269 934 L445 934 Z " />
<glyph glyph-name="zcaron" unicode="&#x17e;" horiz-adv-x="527" d="M551 385 L260 138 L490 138 L461 0 L-23 0 L5 135 L301 382 L75 382 L104 520 L580 520 L551 385 Z M354 738 L377 685 L424 738 L605 738 L435 584 L282 584 L178 738 L354 738 Z " />
<glyph glyph-name="longs" unicode="&#x17f;" horiz-adv-x="388" d="M235 0 L42 0 L124 389 L48 389 L76 520 L152 520 L159 553 Q181 657 236 698 Q287 735 383 735 Q453 735 513 714 L484 579 Q439 595 410 595 Q383 595 369.5 584 Q356 573 351 547 L235 0 Z " />
<glyph glyph-name="uni018F" unicode="&#x18f;" horiz-adv-x="766" d="M357 -15 Q66 -15 66 273 Q66 327 79 408 L564 408 Q569 441 569 462 Q569 592 461 592 Q365 592 320 506 L112 506 Q162 622 266 681 Q361 735 490 735 Q637 735 714 653 Q781 581 781 459 Q781 334 730 227 Q678 117 585 53 Q485 -15 357 -15 Z M370 128 Q423 128 465 165 Q506 202 527 269 L272 269 Q270 257 270 236 Q270 128 370 128 Z " />
<glyph glyph-name="Ohorn" unicode="&#x1a0;" horiz-adv-x="832" d="M773 593 Q811 529 814 435 Q814 332 778 240 Q735 127 647 63 Q542 -15 384 -15 Q237 -15 146 68 Q57 149 57 286 Q57 386 91 477 Q134 591 221 656 Q326 735 486 735 Q536 733 565 728 Q603 720 636 707 Q682 688 719 657 L720 656 Q729 655 737 655 Q765 655 779 671.5 Q793 688 800 733 L823 862 L968 862 L943 721 Q936 678 905.5 646 Q875 614 831 603 Q805 596 773 593 Z M401 132 Q508 132 564 255 Q603 338 603 433 Q603 517 557 558 Q523 589 473 589 Q363 589 307 461 Q270 377 270 286 Q270 203 317 162 Q351 132 401 132 Z " />
<glyph glyph-name="ohorn" unicode="&#x1a1;" horiz-adv-x="715" d="M610 394 Q622 361 623 315 Q623 166 535 75 Q448 -15 295 -15 Q171 -15 100 49 Q36 109 36 208 Q36 345 111 433 Q196 535 361 535 Q454 532 510 504 Q547 486 572 458 Q581 457 587 457 Q616 457 629.5 474 Q643 491 651 535 L673 665 L819 665 L794 523 Q786 480 755.5 448 Q725 416 681 405 Q651 397 610 394 Z M351 407 Q283 407 252 316 Q234 262 234 202 Q234 113 311 113 Q379 113 409 205 Q427 260 427 323 Q427 407 351 407 Z " />
<glyph glyph-name="Uhorn" unicode="&#x1af;" horiz-adv-x="900" d="M775 592 L701 246 Q645 -15 351 -15 Q205 -15 126 49 Q57 105 57 197 Q57 223 63 251 L163 720 L373 720 L270 238 Q266 220 266 212 Q266 173 292 151.5 Q318 130 365 130 Q473 130 496 234 L599 720 L802 720 L788 655 L789 655 Q793 655 795 655 Q824 655 837.5 671.5 Q851 688 859 733 L882 862 L1027 862 L1002 721 Q994 678 963.5 646 Q933 614 889 603 Q839 590 795 591 L775 592 Z " />
<glyph glyph-name="uhorn" unicode="&#x1b0;" horiz-adv-x="753" d="M597 394 L514 0 L351 0 L347 53 Q277 -15 185 -15 Q107 -15 67 29 Q33 67 33 132 Q33 160 41 198 L109 520 L302 520 L235 201 Q230 176 230 168 Q230 145 243 131.5 Q256 118 279 118 Q311 118 334 143 Q357 168 367 213 L432 520 L624 520 L611 459 L612 459 Q622 457 629 457 Q658 457 671.5 474 Q685 491 693 535 L716 665 L861 665 L836 523 Q828 480 797.5 448 Q767 416 723 405 Q673 392 630 393 L597 394 Z " />
<glyph glyph-name="uni01DD" unicode="&#x1dd;" horiz-adv-x="618" d="M264 355 L68 355 Q107 443 188 490 Q265 535 371 535 Q490 535 555 468 Q612 410 612 317 Q612 245 583 176 Q548 92 480 44 Q397 -15 275 -15 Q157 -15 96 48 Q41 104 41 205 Q41 251 53 303 L418 303 Q419 311 419 324 Q419 405 347 405 Q289 405 264 355 Z M293 106 Q363 106 395 200 L228 200 Q228 199 227 195 Q226 183 226 176 Q226 106 293 106 Z " />
<glyph glyph-name="Aringacute" unicode="&#x1fa;" horiz-adv-x="740" d="M568 818 L441 818 L552 957 L740 957 L568 818 Z M499 803 Q565 803 600 766 Q626 738 626 697 Q626 644 576 607 L703 -3 L492 -3 L476 154 L260 154 L177 -3 L-43 -3 L341 608 Q322 628 322 668 Q322 723 367 761 Q415 803 499 803 Z M481 719 Q464 719 453 705 Q442 691 442 669 Q442 644 467 644 Q483 644 494 659 Q505 674 505 695 Q505 719 481 719 Z M334 292 L462 292 L442 496 L334 292 Z " />
<glyph glyph-name="aringacute" unicode="&#x1fb;" horiz-adv-x="581" d="M262 358 L69 358 Q144 535 357 535 Q468 535 525 485 Q575 443 575 371 Q575 343 570 322 L502 0 L352 0 L340 58 Q310 25 261.5 5 Q213 -15 161 -15 Q84 -15 44 25 Q9 59 9 115 Q9 201 74 248 Q135 292 266 313 L378 331 L381 345 Q383 353 383 364 Q383 409 333 409 Q308 409 289 395.5 Q270 382 262 358 Z M250 111 Q284 111 311.5 132.5 Q339 154 347 188 L357 232 Q261 214 233 199 Q205 184 205 149 Q205 111 250 111 Z M372 707 Q354 707 343.5 695.5 Q333 684 333 665 Q333 632 365 632 Q404 632 404 676 Q404 707 372 707 Z M379 791 Q455 791 496 753 Q529 723 529 679 Q529 618 480 582 Q434 549 358 549 Q281 549 241 586 Q209 615 209 660 Q209 720 257 757 Q303 791 379 791 Z M300 805 L441 944 L641 944 L448 805 L300 805 Z " />
<glyph glyph-name="AEacute" unicode="&#x1fc;" horiz-adv-x="1002" d="M475 157 L273 157 L167 0 L-49 0 L456 720 L1080 720 L1049 572 L772 572 L742 432 L990 432 L960 294 L712 294 L681 146 L958 146 L927 0 L441 0 L475 157 Z M567 594 L365 295 L504 295 L567 594 Z M630 774 L771 928 L971 928 L778 774 L630 774 Z " />
<glyph glyph-name="aeacute" unicode="&#x1fd;" horiz-adv-x="939" d="M705 165 L902 165 Q820 -15 601 -15 Q527 -15 469 16 Q421 43 392 87 Q308 -15 169 -15 Q86 -15 44 24 Q9 58 9 114 Q9 201 74 248 Q135 292 266 313 L378 331 L382 349 Q384 359 384 364 Q384 409 334 409 Q279 409 263 358 L69 358 Q145 535 358 535 Q453 535 515 488 Q590 535 678 535 Q798 535 865 468 Q926 407 926 304 Q926 263 917 218 L550 218 Q549 212 549 200 Q549 116 629 116 Q686 116 705 165 Z M672 413 Q605 413 574 319 L741 319 Q743 328 743 341 Q743 413 672 413 Z M249 111 Q288 111 317 137 Q342 159 348 190 L357 232 Q263 216 234 200 Q205 184 205 149 Q205 111 249 111 Z M459 578 L600 732 L800 732 L607 578 L459 578 Z " />
<glyph glyph-name="Oslashacute" unicode="&#x1fe;" horiz-adv-x="800" d="M384 -15 Q325 -15 271 0 L198 -110 L49 -110 L161 55 Q57 137 57 286 Q57 386 91 477 Q134 591 221 656 Q326 735 486 735 Q551 735 609 716 L680 820 L828 820 L717 657 Q814 575 814 435 Q814 332 778 240 Q735 127 647 63 Q542 -15 384 -15 Z M270 286 Q270 245 285 215 L523 578 Q501 589 473 589 Q363 589 307 461 Q270 377 270 286 Z M401 132 Q508 132 564 255 Q603 338 603 433 Q603 470 589 501 L352 141 Q376 132 401 132 Z M418 774 L559 928 L759 928 L566 774 L418 774 Z " />
<glyph glyph-name="oslashacute" unicode="&#x1ff;" horiz-adv-x="629" d="M361 535 Q408 535 452 524 L527 630 L662 630 L552 475 Q622 417 622 315 Q622 166 534 75 Q447 -15 295 -15 Q249 -15 208 -4 L134 -110 L-4 -110 L106 43 Q35 104 35 207 Q35 344 110 433 Q196 535 361 535 Z M351 406 Q287 406 255 329 Q234 279 234 223 Q234 196 236 185 L387 400 Q371 406 351 406 Z M427 310 Q427 332 426 338 L275 119 Q290 113 311 113 Q375 113 408 203 Q427 258 427 310 Z M254 578 L395 732 L595 732 L402 578 L254 578 Z " />
<glyph glyph-name="Scommaaccent" unicode="&#x218;" horiz-adv-x="679" d="M327 -15 Q168 -15 87 65 Q24 126 24 216 L24 227 L226 227 Q226 127 344 127 Q455 127 455 202 Q455 238 423 260 Q391 282 312 298 Q209 319 152 380 Q101 435 101 510 Q101 735 414 735 Q556 735 637 665 Q707 605 707 509 L510 509 Q510 554 475 576 Q447 593 401 593 Q318 593 318 534 Q318 504 345.5 484.5 Q373 465 433 451 Q670 396 670 234 Q670 -15 327 -15 Z M406 -48 L379 -173 Q357 -274 296 -317 Q245 -353 148 -362 L166 -280 Q243 -266 258 -197 L209 -197 L241 -48 L406 -48 Z " />
<glyph glyph-name="scommaaccent" unicode="&#x219;" horiz-adv-x="563" d="M278 112 Q340 112 340 149 Q340 169 320 181.5 Q300 194 251 203 Q62 238 62 360 Q62 535 318 535 Q433 535 502 482 Q563 435 563 365 L375 365 Q370 409 306 409 Q259 409 259 378 Q259 341 348 324 Q539 287 539 173 Q539 -15 270 -15 Q150 -15 78 39 Q15 87 15 157 L204 157 Q206 137 226 124.5 Q246 112 278 112 Z M340 -48 L313 -173 Q291 -274 230 -317 Q179 -353 82 -362 L100 -280 Q177 -266 192 -197 L143 -197 L175 -48 L340 -48 Z " />
<glyph glyph-name="uni021A" unicode="&#x21a;" horiz-adv-x="636" d="M744 720 L712 569 L501 569 L381 0 L172 0 L292 569 L86 569 L118 720 L744 720 Z M350 -48 L323 -173 Q301 -274 240 -317 Q189 -353 92 -362 L110 -280 Q187 -266 202 -197 L153 -197 L185 -48 L350 -48 Z " />
<glyph glyph-name="uni021B" unicode="&#x21b;" horiz-adv-x="397" d="M370 131 L343 1 Q279 -15 232 -15 Q152 -15 110 25 Q74 59 74 117 Q74 135 79 160 L128 389 L52 389 L80 520 L155 520 L193 645 L375 645 L349 520 L452 520 L424 389 L321 389 L273 163 Q271 155 271 147 Q271 120 308 120 Q331 120 370 131 Z M238 -48 L211 -173 Q189 -274 128 -317 Q77 -353 -20 -362 L-2 -280 Q75 -266 90 -197 L41 -197 L73 -48 L238 -48 Z " />
<glyph glyph-name="uni0237" unicode="&#x237;" horiz-adv-x="291" d="M-121 -180 L-92 -44 Q-66 -54 -45 -54 Q-22 -54 -10.5 -44 Q1 -34 6 -9 L119 520 L312 520 L198 -18 Q160 -195 -12 -195 Q-78 -195 -121 -180 Z " />
<glyph glyph-name="uni0259" unicode="&#x259;" horiz-adv-x="618" d="M264 355 L68 355 Q107 443 188 490 Q265 535 371 535 Q490 535 555 468 Q612 410 612 317 Q612 245 583 176 Q548 92 480 44 Q397 -15 275 -15 Q157 -15 96 48 Q41 104 41 205 Q41 251 53 303 L418 303 Q419 311 419 324 Q419 405 347 405 Q289 405 264 355 Z M293 106 Q363 106 395 200 L228 200 Q228 199 227 195 Q226 183 226 176 Q226 106 293 106 Z " />
<glyph glyph-name="uni02C0" unicode="&#x2c0;" horiz-adv-x="406" d="M178 905 Q199 960 255 987 Q303 1011 374 1011 Q436 1011 471 980 Q501 953 501 912 Q501 902 499 892 Q485 813 396 793 L390 756 L292 756 L308 852 Q350 852 374 865.5 Q398 879 398 901 Q398 936 346 936 Q323 936 304 927.5 Q285 919 278 905 L178 905 Z " />
<glyph glyph-name="uni02C9" unicode="&#x2c9;" horiz-adv-x="330" d="M391 591 L102 591 L129 719 L418 719 L391 591 Z " />
<glyph glyph-name="uni0309" unicode="&#x309;" horiz-adv-x="406" d="M178 905 Q199 960 255 987 Q303 1011 374 1011 Q436 1011 471 980 Q501 953 501 912 Q501 902 499 892 Q485 813 396 793 L390 756 L292 756 L308 852 Q350 852 374 865.5 Q398 879 398 901 Q398 936 346 936 Q323 936 304 927.5 Q285 919 278 905 L178 905 Z " />
<glyph glyph-name="uni0312" unicode="&#x312;" horiz-adv-x="270" d="M120 576 L147 701 Q169 802 230 845 Q281 881 378 890 L360 808 Q283 794 268 725 L317 725 L285 576 L120 576 Z " />
<glyph glyph-name="uni0313" unicode="&#x313;" horiz-adv-x="270" d="M378 890 L351 765 Q329 664 268 621 Q217 585 120 576 L138 658 Q215 672 230 741 L181 741 L213 890 L378 890 Z " />
<glyph glyph-name="uni031B" unicode="&#x31b;" horiz-adv-x="270" d="M378 890 L351 765 Q329 664 268 621 Q217 585 120 576 L138 658 Q215 672 230 741 L181 741 L213 890 L378 890 Z " />
<glyph glyph-name="uni0323" unicode="&#x323;" horiz-adv-x="264" d="M155 -180 L-48 -180 L-18 -34 L186 -34 L155 -180 Z " />
<glyph glyph-name="commaaccent" unicode="&#x326;" horiz-adv-x="270" d="M378 -66 L351 -191 Q329 -292 268 -335 Q217 -371 120 -380 L138 -298 Q215 -284 230 -215 L181 -215 L213 -66 L378 -66 Z " />
<glyph glyph-name="uni037E" unicode="&#x37e;" horiz-adv-x="303" d="M289 339 L78 339 L116 520 L327 520 L289 339 Z M255 181 L221 22 Q198 -84 120 -131 Q58 -169 -49 -176 L-31 -88 Q60 -77 76 0 L6 0 L44 181 L255 181 Z " />
<glyph glyph-name="tonos" unicode="&#x384;" horiz-adv-x="270" d="M111 573 L165 720 L353 720 L246 573 L111 573 Z " />
<glyph glyph-name="dieresistonos" unicode="&#x385;" horiz-adv-x="491" d="M274 585 L114 585 L145 729 L305 729 L274 585 Z M544 585 L383 585 L414 729 L575 729 L544 585 Z M303 754 L356 901 L532 901 L426 754 L303 754 Z " />
<glyph glyph-name="Alphatonos" unicode="&#x386;" horiz-adv-x="740" d="M703 0 L487 0 L474 157 L251 157 L172 0 L-43 0 L374 720 L590 720 L703 0 Z M445 539 L320 295 L464 295 L445 539 Z M86 573 L140 720 L328 720 L221 573 L86 573 Z " />
<glyph glyph-name="uni0387" unicode="&#x387;" horiz-adv-x="296" d="M255 220 L52 220 L90 395 L293 395 L255 220 Z " />
<glyph glyph-name="Epsilontonos" unicode="&#x388;" horiz-adv-x="720" d="M707 432 L678 294 L394 294 L363 146 L675 146 L645 0 L123 0 L276 720 L798 720 L766 572 L454 572 L424 432 L707 432 Z M7 573 L61 720 L249 720 L142 573 L7 573 Z " />
<glyph glyph-name="Etatonos" unicode="&#x389;" horiz-adv-x="859" d="M707 720 L915 720 L762 0 L554 0 L615 293 L396 293 L335 0 L126 0 L279 720 L488 720 L427 435 L646 435 L707 720 Z M7 573 L61 720 L249 720 L142 573 L7 573 Z " />
<glyph glyph-name="Iotatonos" unicode="&#x38a;" horiz-adv-x="433" d="M279 720 L488 720 L335 0 L126 0 L279 720 Z M7 573 L61 720 L249 720 L142 573 L7 573 Z " />
<glyph glyph-name="Omicrontonos" unicode="&#x38c;" horiz-adv-x="888" d="M489 132 Q596 132 652 255 Q691 338 691 433 Q691 517 645 558 Q611 589 561 589 Q451 589 395 461 Q358 377 358 286 Q358 203 405 162 Q439 132 489 132 Z M472 -15 Q325 -15 234 68 Q145 149 145 286 Q145 386 179 477 Q222 591 309 656 Q414 735 574 735 Q719 735 811 653 Q902 572 902 435 Q902 332 866 240 Q823 127 735 63 Q630 -15 472 -15 Z M56 573 L110 720 L298 720 L191 573 L56 573 Z " />
<glyph glyph-name="Upsilontonos" unicode="&#x38e;" horiz-adv-x="861" d="M558 0 L358 0 L419 288 L249 720 L468 720 L550 446 L761 720 L973 720 L619 288 L558 0 Z M-13 573 L41 720 L229 720 L122 573 L-13 573 Z " />
<glyph glyph-name="Omegatonos" unicode="&#x38f;" horiz-adv-x="887" d="M513 133 Q600 133 652 258 Q688 346 688 434 Q688 517 644 558 Q611 589 562 589 Q447 589 390 457 Q352 369 352 259 Q352 192 378 159 Q399 133 432 133 L405 0 L90 0 L119 140 L227 140 Q191 175 171.5 224 Q152 273 152 328 Q152 431 202 523 Q254 619 345 674 Q446 735 574 735 Q719 735 813 653 Q902 574 902 447 Q902 263 744 140 L831 140 L802 0 L486 0 L513 133 Z M55 573 L109 720 L297 720 L190 573 L55 573 Z " />
<glyph glyph-name="iotadieresistonos" unicode="&#x390;" horiz-adv-x="295" d="M204 0 L11 0 L121 520 L314 520 L204 0 Z M177 585 L17 585 L48 729 L208 729 L177 585 Z M447 585 L286 585 L317 729 L478 729 L447 585 Z M206 754 L259 901 L435 901 L329 754 L206 754 Z " />
<glyph glyph-name="Alpha" unicode="&#x391;" horiz-adv-x="740" d="M703 0 L487 0 L474 157 L251 157 L172 0 L-43 0 L374 720 L590 720 L703 0 Z M445 539 L320 295 L464 295 L445 539 Z " />
<glyph glyph-name="Beta" unicode="&#x392;" horiz-adv-x="687" d="M170 720 L426 720 Q706 720 706 562 Q706 490 653 440 Q608 397 540 383 Q599 369 634 323 Q666 282 666 232 Q666 0 311 0 L17 0 L170 720 Z M372 312 L291 312 L254 136 L341 136 Q400 136 430 166 Q456 192 456 240 Q456 273 433.5 292.5 Q411 312 372 312 Z M412 584 L349 584 L318 439 L395 439 Q441 439 467 465 Q490 488 490 525 Q490 552 468.5 568 Q447 584 412 584 Z " />
<glyph glyph-name="Gamma" unicode="&#x393;" horiz-adv-x="545" d="M653 720 L621 572 L347 572 L226 0 L17 0 L170 720 L653 720 Z " />
<glyph glyph-name="uni0394" unicode="&#x394;" horiz-adv-x="740" d="M687 0 L-59 0 L358 720 L574 720 L687 0 Z M430 539 L226 138 L461 138 L430 539 Z " />
<glyph glyph-name="Epsilon" unicode="&#x395;" horiz-adv-x="614" d="M601 432 L572 294 L288 294 L257 146 L569 146 L539 0 L17 0 L170 720 L692 720 L660 572 L348 572 L318 432 L601 432 Z " />
<glyph glyph-name="Zeta" unicode="&#x396;" horiz-adv-x="647" d="M709 586 L278 145 L609 145 L579 0 L-18 0 L11 136 L442 575 L123 575 L154 720 L738 720 L709 586 Z " />
<glyph glyph-name="Eta" unicode="&#x397;" horiz-adv-x="750" d="M598 720 L806 720 L653 0 L445 0 L506 293 L287 293 L226 0 L17 0 L170 720 L379 720 L318 435 L537 435 L598 720 Z " />
<glyph glyph-name="Theta" unicode="&#x398;" horiz-adv-x="805" d="M554 432 L524 294 L323 294 L352 432 L554 432 Z M402 132 Q512 132 568 253 Q607 335 607 431 Q607 516 560 558 Q525 589 475 589 Q365 589 308 463 Q270 380 270 288 Q270 204 318 162 Q352 132 402 132 Z M387 -15 Q242 -15 149 67 Q57 148 57 285 Q57 391 95 485 Q141 596 230 660 Q335 735 490 735 Q635 735 727 653 Q819 572 819 434 Q819 336 785 246 Q742 131 655 65 Q548 -15 387 -15 Z " />
<glyph glyph-name="Iota" unicode="&#x399;" horiz-adv-x="323" d="M170 720 L379 720 L226 0 L17 0 L170 720 Z " />
<glyph glyph-name="Kappa" unicode="&#x39a;" horiz-adv-x="761" d="M721 0 L472 0 L284 276 L226 0 L17 0 L170 720 L379 720 L323 459 L599 720 L840 720 L456 370 L721 0 Z " />
<glyph glyph-name="Lambda" unicode="&#x39b;" horiz-adv-x="733" d="M695 0 L481 0 L442 539 L173 0 L-43 0 L370 720 L586 720 L695 0 Z " />
<glyph glyph-name="Mu" unicode="&#x39c;" horiz-adv-x="916" d="M499 0 L331 0 L280 406 L194 0 L17 0 L170 720 L388 720 L455 197 L740 720 L972 720 L819 0 L632 0 L716 397 L499 0 Z " />
<glyph glyph-name="Nu" unicode="&#x39d;" horiz-adv-x="748" d="M626 720 L804 720 L651 0 L447 0 L289 448 L195 0 L17 0 L170 720 L387 720 L535 294 L626 720 Z " />
<glyph glyph-name="Xi" unicode="&#x39e;" horiz-adv-x="610" d="M566 152 L535 0 L-5 0 L26 152 L566 152 Z M688 720 L655 568 L116 568 L149 720 L688 720 Z M543 435 L513 291 L147 291 L177 435 L543 435 Z " />
<glyph glyph-name="Omicron" unicode="&#x39f;" horiz-adv-x="800" d="M401 132 Q508 132 564 255 Q603 338 603 433 Q603 517 557 558 Q523 589 473 589 Q363 589 307 461 Q270 377 270 286 Q270 203 317 162 Q351 132 401 132 Z M384 -15 Q237 -15 146 68 Q57 149 57 286 Q57 386 91 477 Q134 591 221 656 Q326 735 486 735 Q631 735 723 653 Q814 572 814 435 Q814 332 778 240 Q735 127 647 63 Q542 -15 384 -15 Z " />
<glyph glyph-name="Pi" unicode="&#x3a0;" horiz-adv-x="750" d="M170 720 L806 720 L653 0 L445 0 L567 577 L348 577 L226 0 L17 0 L170 720 Z " />
<glyph glyph-name="Rho" unicode="&#x3a1;" horiz-adv-x="691" d="M170 720 L439 720 Q593 720 667 658 Q729 606 729 516 Q729 381 639 307 Q545 230 359 230 L274 230 L226 0 L17 0 L170 720 Z M413 579 L348 579 L304 370 L385 370 Q448 370 484 409 Q515 443 515 496 Q515 536 488.5 557.5 Q462 579 413 579 Z " />
<glyph glyph-name="Sigma" unicode="&#x3a3;" horiz-adv-x="638" d="M466 407 L446 313 L275 145 L591 145 L561 0 L-7 0 L21 134 L265 364 L117 586 L146 720 L708 720 L677 574 L362 574 L466 407 Z " />
<glyph glyph-name="Tau" unicode="&#x3a4;" horiz-adv-x="636" d="M744 720 L712 569 L501 569 L381 0 L172 0 L292 569 L86 569 L118 720 L744 720 Z " />
<glyph glyph-name="Upsilon" unicode="&#x3a5;" horiz-adv-x="724" d="M422 0 L222 0 L283 288 L113 720 L332 720 L414 446 L625 720 L837 720 L483 288 L422 0 Z " />
<glyph glyph-name="Phi" unicode="&#x3a6;" horiz-adv-x="980" d="M504 735 L707 735 L698 698 Q840 695 920 613 Q992 540 992 423 Q992 306 938 215 Q885 124 787 74 Q687 22 555 22 L547 -15 L344 -15 L352 22 Q211 24 131 105 Q60 178 60 295 Q60 408 110 498 Q162 591 257 643 Q359 698 496 698 L504 735 Z M586 169 Q688 173 742 262 Q782 329 782 416 Q782 484 745 519 Q715 548 667 551 L586 169 Z M465 551 Q363 549 309 457 Q270 390 270 306 Q270 238 307 202 Q336 173 383 170 L465 551 Z " />
<glyph glyph-name="Chi" unicode="&#x3a7;" horiz-adv-x="750" d="M841 720 L530 376 L705 0 L476 0 L385 227 L204 0 L-35 0 L299 375 L135 720 L361 720 L445 519 L611 720 L841 720 Z " />
<glyph glyph-name="Psi" unicode="&#x3a8;" horiz-adv-x="878" d="M162 720 L362 720 L299 426 Q295 407 295 389 Q295 324 365 304 L453 720 L653 720 L563 299 Q621 310 649 343 Q671 370 682 422 L746 720 L941 720 L880 434 Q850 294 764 227 Q682 164 531 151 L500 0 L300 0 L333 156 Q94 189 94 368 Q94 396 102 438 L162 720 Z " />
<glyph glyph-name="uni03A9" unicode="&#x3a9;" horiz-adv-x="801" d="M428 133 Q515 133 567 258 Q603 346 603 434 Q603 517 559 558 Q526 589 477 589 Q362 589 305 457 Q267 369 267 259 Q267 192 293 159 Q314 133 347 133 L320 0 L5 0 L34 140 L142 140 Q106 175 86.5 224 Q67 273 67 328 Q67 431 117 523 Q169 619 260 674 Q361 735 489 735 Q634 735 728 653 Q817 574 817 447 Q817 263 659 140 L746 140 L717 0 L401 0 L428 133 Z " />
<glyph glyph-name="Iotadieresis" unicode="&#x3aa;" horiz-adv-x="323" d="M170 720 L379 720 L226 0 L17 0 L170 720 Z M255 781 L83 781 L114 925 L286 925 L255 781 Z M494 781 L321 781 L352 925 L525 925 L494 781 Z " />
<glyph glyph-name="Upsilondieresis" unicode="&#x3ab;" horiz-adv-x="724" d="M422 0 L222 0 L283 288 L113 720 L332 720 L414 446 L625 720 L837 720 L483 288 L422 0 Z M453 781 L281 781 L312 925 L484 925 L453 781 Z M692 781 L519 781 L550 925 L723 925 L692 781 Z " />
<glyph glyph-name="alphatonos" unicode="&#x3ac;" horiz-adv-x="636" d="M550 0 L396 0 L379 63 Q298 -15 211 -15 Q125 -15 76 47 Q33 101 33 188 Q33 345 121 445 Q200 535 317 535 Q366 535 405 516 Q444 497 463 465 L506 520 L660 520 L550 0 Z M350 397 Q294 397 260 334 Q232 283 232 215 Q232 168 255 143 Q273 123 303 123 Q357 123 392 186 Q421 239 421 311 Q421 397 350 397 Z M326 573 L380 720 L568 720 L461 573 L326 573 Z " />
<glyph glyph-name="epsilontonos" unicode="&#x3ad;" horiz-adv-x="581" d="M311 535 Q436 535 509 477 Q571 428 571 353 L384 353 Q382 378 362.5 392.5 Q343 407 312 407 Q256 407 256 362 Q256 323 312 323 L346 323 L322 214 L296 214 Q201 214 201 159 Q201 139 216 126.5 Q231 114 256 114 Q316 114 351 182 L539 182 Q494 82 421 34 Q346 -15 236 -15 Q112 -15 49 33 Q-1 72 -1 133 Q-1 199 50 238 Q92 271 159 276 Q113 286 88 320 Q68 347 68 384 Q68 459 135 498 Q198 535 311 535 Z M281 573 L335 720 L523 720 L416 573 L281 573 Z " />
<glyph glyph-name="etatonos" unicode="&#x3ae;" horiz-adv-x="607" d="M6 0 L116 520 L280 520 L283 462 Q317 496 361.5 515.5 Q406 535 449 535 Q527 535 567 491 Q603 453 603 386 Q603 350 596 322 L488 -180 L294 -180 L402 321 Q406 341 406 351 Q406 375 392.5 388.5 Q379 402 356 402 Q322 402 297.5 377 Q273 352 264 308 L199 0 L6 0 Z M285 573 L339 720 L527 720 L420 573 L285 573 Z " />
<glyph glyph-name="iotatonos" unicode="&#x3af;" horiz-adv-x="295" d="M204 0 L11 0 L121 520 L314 520 L204 0 Z M156 573 L210 720 L398 720 L291 573 L156 573 Z " />
<glyph glyph-name="upsilondieresistonos" unicode="&#x3b0;" horiz-adv-x="595" d="M271 -15 Q153 -15 91 34 Q35 78 35 153 Q35 179 40 200 L108 520 L301 520 L232 192 Q229 180 229 169 Q229 118 286 118 Q318 118 333.5 132.5 Q349 147 357 184 L429 520 L622 520 L551 184 Q508 -15 271 -15 Z M323 585 L163 585 L194 729 L354 729 L323 585 Z M593 585 L432 585 L463 729 L624 729 L593 585 Z M352 754 L405 901 L581 901 L475 754 L352 754 Z " />
<glyph glyph-name="alpha" unicode="&#x3b1;" horiz-adv-x="636" d="M550 0 L396 0 L379 63 Q298 -15 211 -15 Q125 -15 76 47 Q33 101 33 188 Q33 345 121 445 Q200 535 317 535 Q366 535 405 516 Q444 497 463 465 L506 520 L660 520 L550 0 Z M350 397 Q294 397 260 334 Q232 283 232 215 Q232 168 255 143 Q273 123 303 123 Q357 123 392 186 Q421 239 421 311 Q421 397 350 397 Z " />
<glyph glyph-name="beta" unicode="&#x3b2;" horiz-adv-x="609" d="M355 -15 Q306 -15 268 4 Q230 23 213 55 L163 -180 L-33 -180 L116 523 Q140 637 210 687 Q276 735 392 735 Q514 735 579 685 Q633 644 633 578 Q633 505 576 452 Q528 406 460 398 Q516 391 550 342 Q580 299 580 241 Q580 128 518 56 Q457 -15 355 -15 Z M338 334 L319 334 L344 447 L366 447 Q397 447 420 484 Q439 514 439 546 Q439 570 424 584.5 Q409 599 384 599 Q353 599 336.5 578.5 Q320 558 309 506 L257 260 Q249 225 249 194 Q249 160 262 141.5 Q275 123 298 123 Q341 123 370 170 Q395 211 395 264 Q395 297 380 315.5 Q365 334 338 334 Z " />
<glyph glyph-name="gamma" unicode="&#x3b3;" horiz-adv-x="591" d="M313 -180 L119 -180 L158 0 L69 520 L271 520 L288 167 L453 520 L662 520 L352 0 L313 -180 Z " />
<glyph glyph-name="delta" unicode="&#x3b4;" horiz-adv-x="589" d="M224 616 L246 720 L634 720 L607 595 L452 595 Q519 561 556 488 Q589 423 589 346 Q589 270 560 195 Q526 103 461 50 Q382 -15 269 -15 Q147 -15 84 52 Q31 107 31 195 Q31 257 56 319 Q85 391 140 434 Q206 484 298 484 Q328 484 358 474.5 Q388 465 402 451 Q391 520 339 565 Q294 604 224 616 Z M323 354 Q277 354 251 287 Q233 240 233 190 Q233 116 287 116 Q326 116 355 184 Q376 234 376 281 Q376 354 323 354 Z " />
<glyph glyph-name="epsilon" unicode="&#x3b5;" horiz-adv-x="581" d="M327 535 Q452 535 525 477 Q587 428 587 353 L400 353 Q398 378 378.5 392.5 Q359 407 328 407 Q272 407 272 362 Q272 323 328 323 L362 323 L338 214 L312 214 Q217 214 217 159 Q217 139 232 126.5 Q247 114 272 114 Q332 114 367 182 L555 182 Q510 82 437 34 Q362 -15 252 -15 Q128 -15 65 33 Q15 72 15 133 Q15 199 66 238 Q108 271 175 276 Q129 286 104 320 Q84 347 84 384 Q84 459 151 498 Q214 535 327 535 Z " />
<glyph glyph-name="zeta" unicode="&#x3b6;" horiz-adv-x="532" d="M595 720 L572 614 Q379 536 294 416 Q236 333 236 242 Q236 185 268 145 Q296 110 348 94 Q414 74 442.5 48 Q471 22 471 -17 Q471 -71 418 -134 Q373 -189 308 -227 L221 -144 Q253 -118 265 -102 Q277 -86 277 -69 Q277 -41 211 -22 Q36 29 36 199 Q36 442 339 594 L129 594 L156 720 L595 720 Z " />
<glyph glyph-name="eta" unicode="&#x3b7;" horiz-adv-x="607" d="M6 0 L116 520 L280 520 L283 462 Q317 496 361.5 515.5 Q406 535 449 535 Q527 535 567 491 Q603 453 603 386 Q603 350 596 322 L488 -180 L294 -180 L402 321 Q406 341 406 351 Q406 375 392.5 388.5 Q379 402 356 402 Q322 402 297.5 377 Q273 352 264 308 L199 0 L6 0 Z " />
<glyph glyph-name="theta" unicode="&#x3b8;" horiz-adv-x="600" d="M267 -15 Q155 -15 96 60 Q42 128 42 244 Q42 322 62 406 Q82 490 114 553 Q210 735 404 735 Q517 735 576 661 Q629 594 629 477 Q629 389 602 292 Q566 161 495 84 Q405 -15 267 -15 Z M287 115 Q324 115 350 157.5 Q376 200 402 301 L245 301 Q234 237 234 202 Q234 115 287 115 Z M383 607 Q349 607 323 565 Q297 523 272 427 L428 427 Q437 481 437 516 Q437 607 383 607 Z " />
<glyph glyph-name="iota" unicode="&#x3b9;" horiz-adv-x="295" d="M204 0 L11 0 L121 520 L314 520 L204 0 Z " />
<glyph glyph-name="kappa" unicode="&#x3ba;" horiz-adv-x="623" d="M199 0 L6 0 L116 520 L309 520 L272 347 L459 520 L682 520 L406 278 L587 0 L351 0 L240 193 L199 0 Z " />
<glyph glyph-name="lambda" unicode="&#x3bb;" horiz-adv-x="594" d="M555 0 L361 0 L337 381 L163 0 L-41 0 L258 520 L308 520 Q306 565 292.5 584 Q279 603 249 603 Q227 603 179 592 L206 721 Q271 735 313 735 Q393 735 428 684 Q460 638 478 519 L555 0 Z " />
<glyph glyph-name="uni03BC" unicode="&#x3bc;" horiz-adv-x="605" d="M114 520 L307 520 L238 193 Q234 176 234 162 Q234 122 279 122 Q312 122 336.5 145.5 Q361 169 370 209 L436 520 L629 520 L519 0 L367 0 L363 41 Q310 -15 228 -15 Q210 -15 193 -10 L158 -180 L-35 -180 L114 520 Z " />
<glyph glyph-name="nu" unicode="&#x3bd;" horiz-adv-x="591" d="M454 520 L662 520 L366 0 L144 0 L69 520 L272 520 L287 157 L454 520 Z " />
<glyph glyph-name="xi" unicode="&#x3be;" horiz-adv-x="560" d="M193 358 Q150 367 126.5 393.5 Q103 420 103 457 Q103 565 269 596 L135 596 L162 720 L599 720 L575 614 L542 614 Q420 614 353 570 Q299 534 299 480 Q299 413 397 413 L460 413 L434 288 L371 288 Q221 288 221 194 Q221 131 329 105 Q422 82 458 51 Q488 24 488 -17 Q488 -65 444.5 -121 Q401 -177 324 -227 L238 -144 Q294 -97 294 -69 Q294 -53 276.5 -43 Q259 -33 214 -25 Q116 -6 66 50 Q24 97 24 162 Q24 240 76 296 Q122 346 193 358 Z " />
<glyph glyph-name="omicron" unicode="&#x3bf;" horiz-adv-x="629" d="M361 535 Q488 535 558 471 Q623 413 623 315 Q623 166 535 75 Q448 -15 295 -15 Q171 -15 100 49 Q36 109 36 208 Q36 345 111 433 Q196 535 361 535 Z M351 407 Q283 407 252 316 Q234 262 234 202 Q234 113 311 113 Q379 113 409 205 Q427 260 427 323 Q427 407 351 407 Z " />
<glyph glyph-name="rho" unicode="&#x3c1;" horiz-adv-x="637" d="M346 -15 Q302 -15 263.5 1 Q225 17 203 45 L156 -180 L-37 -180 L59 277 Q89 422 167 481 Q238 535 368 535 Q498 535 570 466 Q632 406 632 309 Q632 245 606 177 Q575 94 517 45 Q446 -15 346 -15 Z M358 398 Q296 398 263 322 Q240 269 240 212 Q240 169 258.5 145.5 Q277 122 311 122 Q377 122 413 197 Q437 249 437 307 Q437 355 411 379 Q391 398 358 398 Z " />
<glyph glyph-name="uni03C2" unicode="&#x3c2;" horiz-adv-x="607" d="M252 -17 Q135 -1 80 64 Q34 118 34 203 Q34 342 112 434 Q199 535 359 535 Q478 535 549 472 Q611 418 611 337 L411 337 Q411 365 394 384 Q377 403 352 403 Q288 403 258 337 Q238 293 238 234 Q238 186 267 157 Q296 128 359 113 Q447 91 483 57 Q514 28 514 -15 Q514 -115 357 -223 Q348 -214 329 -195 Q292 -158 273 -139 Q327 -97 327 -63 Q327 -28 252 -17 Z " />
<glyph glyph-name="sigma" unicode="&#x3c3;" horiz-adv-x="628" d="M663 386 L612 389 Q622 359 622 305 Q622 228 592 160 Q557 82 488 37 Q408 -15 291 -15 Q168 -15 98 51 Q35 111 35 210 Q35 347 112 435 Q199 535 370 535 Q442 535 487 520 L691 520 L663 386 Z M406 400 Q385 407 355 407 Q286 407 254 321 Q234 267 234 202 Q234 113 310 113 Q375 113 408 207 Q428 266 428 329 Q428 378 406 400 Z " />
<glyph glyph-name="tau" unicode="&#x3c4;" horiz-adv-x="520" d="M49 389 L77 520 L583 520 L555 389 L399 389 L316 0 L123 0 L205 389 L49 389 Z " />
<glyph glyph-name="upsilon" unicode="&#x3c5;" horiz-adv-x="595" d="M271 -15 Q153 -15 91 34 Q35 78 35 153 Q35 179 40 200 L108 520 L301 520 L232 192 Q229 180 229 169 Q229 118 286 118 Q318 118 333.5 132.5 Q349 147 357 184 L429 520 L622 520 L551 184 Q508 -15 271 -15 Z " />
<glyph glyph-name="phi" unicode="&#x3c6;" horiz-adv-x="837" d="M342 520 Q283 415 257.5 349 Q232 283 232 235 Q232 165 303 142 L334 288 Q364 428 427 482 Q488 535 605 535 Q722 535 783 476 Q836 425 836 337 Q836 303 829 268 Q798 121 702 56 Q617 -1 461 -12 L426 -180 L234 -180 L271 -9 Q33 21 33 194 Q33 261 60.5 337 Q88 413 152 520 L342 520 Z M523 278 L493 136 Q564 146 598 183 Q625 214 638 276 Q645 308 645 335 Q645 398 599 398 Q570 398 554 373 Q538 348 523 278 Z " />
<glyph glyph-name="chi" unicode="&#x3c7;" horiz-adv-x="610" d="M655 520 L408 181 L532 -180 L317 -180 L275 43 L139 -180 L-79 -180 L193 179 L78 520 L288 520 L321 308 L440 520 L655 520 Z " />
<glyph glyph-name="psi" unicode="&#x3c8;" horiz-adv-x="831" d="M114 520 L301 520 L247 266 Q242 243 242 227 Q242 160 313 140 L394 520 L580 520 L498 135 Q552 144 579.5 171 Q607 198 619 253 L676 520 L857 520 L803 261 Q774 119 690 57 Q612 -2 466 -12 L431 -180 L245 -180 L281 -8 Q53 21 53 201 Q53 234 63 282 L114 520 Z " />
<glyph glyph-name="omega" unicode="&#x3c9;" horiz-adv-x="824" d="M615 520 L797 520 Q813 438 813 357 Q813 179 750 84 Q683 -15 551 -15 Q399 -15 399 132 Q377 62 320 23 Q265 -15 190 -15 Q111 -15 66 36 Q27 81 27 154 Q27 298 166 520 L349 520 Q292 426 255 329 Q220 239 220 185 Q220 153 232.5 135 Q245 117 267 117 Q315 117 336 213 L371 380 L533 380 L498 213 Q493 186 493 171 Q493 117 533 117 Q578 117 602 181.5 Q626 246 626 367 Q626 455 615 520 Z " />
<glyph glyph-name="iotadieresis" unicode="&#x3ca;" horiz-adv-x="295" d="M199 585 L27 585 L58 729 L230 729 L199 585 Z M438 585 L265 585 L296 729 L469 729 L438 585 Z M204 0 L11 0 L121 520 L314 520 L204 0 Z " />
<glyph glyph-name="upsilondieresis" unicode="&#x3cb;" horiz-adv-x="595" d="M271 -15 Q153 -15 91 34 Q35 78 35 153 Q35 179 40 200 L108 520 L301 520 L232 192 Q229 180 229 169 Q229 118 286 118 Q318 118 333.5 132.5 Q349 147 357 184 L429 520 L622 520 L551 184 Q508 -15 271 -15 Z M345 585 L173 585 L204 729 L376 729 L345 585 Z M584 585 L411 585 L442 729 L615 729 L584 585 Z " />
<glyph glyph-name="omicrontonos" unicode="&#x3cc;" horiz-adv-x="629" d="M361 535 Q488 535 558 471 Q623 413 623 315 Q623 166 535 75 Q448 -15 295 -15 Q171 -15 100 49 Q36 109 36 208 Q36 345 111 433 Q196 535 361 535 Z M351 407 Q283 407 252 316 Q234 262 234 202 Q234 113 311 113 Q379 113 409 205 Q427 260 427 323 Q427 407 351 407 Z M323 573 L377 720 L565 720 L458 573 L323 573 Z " />
<glyph glyph-name="upsilontonos" unicode="&#x3cd;" horiz-adv-x="595" d="M271 -15 Q153 -15 91 34 Q35 78 35 153 Q35 179 40 200 L108 520 L301 520 L232 192 Q229 180 229 169 Q229 118 286 118 Q318 118 333.5 132.5 Q349 147 357 184 L429 520 L622 520 L551 184 Q508 -15 271 -15 Z M310 573 L364 720 L552 720 L445 573 L310 573 Z " />
<glyph glyph-name="omegatonos" unicode="&#x3ce;" horiz-adv-x="826" d="M615 520 L797 520 Q813 438 813 357 Q813 179 750 84 Q683 -15 551 -15 Q399 -15 399 132 Q377 62 320 23 Q265 -15 190 -15 Q111 -15 66 36 Q27 81 27 154 Q27 298 166 520 L349 520 Q292 426 255 329 Q220 239 220 185 Q220 153 232.5 135 Q245 117 267 117 Q315 117 336 213 L371 380 L533 380 L498 213 Q493 186 493 171 Q493 117 533 117 Q578 117 602 181.5 Q626 246 626 367 Q626 455 615 520 Z M432 573 L486 720 L674 720 L567 573 L432 573 Z " />
<glyph glyph-name="uni0400" unicode="&#x400;" horiz-adv-x="614" d="M601 432 L572 294 L288 294 L257 146 L569 146 L539 0 L17 0 L170 720 L692 720 L660 572 L348 572 L318 432 L601 432 Z M443 928 L517 774 L383 774 L255 928 L443 928 Z " />
<glyph glyph-name="afii10023" unicode="&#x401;" horiz-adv-x="614" d="M601 432 L572 294 L288 294 L257 146 L569 146 L539 0 L17 0 L170 720 L692 720 L660 572 L348 572 L318 432 L601 432 Z M410 781 L238 781 L269 925 L441 925 L410 781 Z M649 781 L476 781 L507 925 L680 925 L649 781 Z " />
<glyph glyph-name="afii10051" unicode="&#x402;" horiz-adv-x="854" d="M361 0 L152 0 L273 569 L86 569 L118 720 L704 720 L672 569 L482 569 L455 440 Q547 511 647 511 Q842 511 842 329 Q842 286 815 162 Q775 -15 583 -15 Q526 -15 480 -1 L508 135 Q537 126 556 126 Q579 126 590 135.5 Q601 145 607 171 L625 251 Q629 267 629 287 Q629 325 608.5 345.5 Q588 366 551 366 Q499 366 459 330 Q425 298 415 253 L361 0 Z " />
<glyph glyph-name="afii10052" unicode="&#x403;" horiz-adv-x="545" d="M653 720 L621 572 L347 572 L226 0 L17 0 L170 720 L653 720 Z M314 775 L455 929 L655 929 L462 775 L314 775 Z " />
<glyph glyph-name="afii10053" unicode="&#x404;" horiz-adv-x="762" d="M382 128 Q495 128 537 276 L749 276 Q695 118 590 47 Q497 -15 358 -15 Q214 -15 132 74 Q58 154 58 283 Q58 382 91 473 Q133 588 219 654 Q325 735 486 735 Q628 735 710 662 Q785 595 785 485 L785 471 L577 471 Q577 537 541 568 Q513 592 467 592 Q359 592 306 437 L489 437 L459 298 L274 298 Q272 276 272 267 Q272 192 309 156 Q337 128 382 128 Z " />
<glyph glyph-name="afii10054" unicode="&#x405;" horiz-adv-x="679" d="M327 -15 Q168 -15 87 65 Q24 126 24 216 L24 227 L226 227 Q226 127 344 127 Q455 127 455 202 Q455 238 423 260 Q391 282 312 298 Q209 319 152 380 Q101 435 101 510 Q101 735 414 735 Q556 735 637 665 Q707 605 707 509 L510 509 Q510 554 475 576 Q447 593 401 593 Q318 593 318 534 Q318 504 345.5 484.5 Q373 465 433 451 Q670 396 670 234 Q670 -15 327 -15 Z " />
<glyph glyph-name="afii10055" unicode="&#x406;" horiz-adv-x="323" d="M170 720 L379 720 L226 0 L17 0 L170 720 Z " />
<glyph glyph-name="afii10056" unicode="&#x407;" horiz-adv-x="323" d="M170 720 L379 720 L226 0 L17 0 L170 720 Z M255 781 L83 781 L114 925 L286 925 L255 781 Z M494 781 L321 781 L352 925 L525 925 L494 781 Z " />
<glyph glyph-name="afii10057" unicode="&#x408;" horiz-adv-x="593" d="M23 230 L224 230 Q221 211 221 196 Q221 164 235 146.5 Q249 129 274 129 Q302 129 318 148.5 Q334 168 344 213 L452 720 L654 720 L548 225 Q520 95 448 38 Q380 -15 263 -15 Q145 -15 81 42 Q20 97 20 193 Q20 211 23 230 Z " />
<glyph glyph-name="afii10058" unicode="&#x409;" horiz-adv-x="1111" d="M749 490 L809 490 Q963 490 1037 428 Q1099 376 1099 286 Q1099 0 729 0 L436 0 L559 579 L384 579 L268 192 Q235 82 164 40 Q97 0 -35 0 Q-23 51 -7 133 Q31 133 49 148.5 Q67 164 81 209 L235 720 L798 720 L749 490 Z M783 349 L719 349 L674 140 L755 140 Q818 140 854 179 Q885 213 885 266 Q885 306 858.5 327.5 Q832 349 783 349 Z " />
<glyph glyph-name="afii10059" unicode="&#x40a;" horiz-adv-x="1102" d="M583 720 L792 720 L737 461 L795 461 Q953 461 1028 404 Q1090 357 1090 271 Q1090 0 721 0 L430 0 L498 320 L293 320 L225 0 L17 0 L170 720 L378 720 L323 461 L528 461 L583 720 Z M770 320 L707 320 L668 140 L752 140 Q812 140 845 170 Q876 198 876 249 Q876 283 848.5 301.5 Q821 320 770 320 Z " />
<glyph glyph-name="afii10060" unicode="&#x40b;" horiz-adv-x="852" d="M362 0 L153 0 L273 569 L86 569 L118 720 L704 720 L672 569 L482 569 L455 440 Q547 511 643 511 Q746 511 796 457 Q840 410 840 324 Q840 283 829 228 L781 0 L572 0 L623 246 Q628 271 628 286 Q628 366 549 366 Q497 366 459 331 Q425 300 415 254 L362 0 Z " />
<glyph glyph-name="afii10061" unicode="&#x40c;" horiz-adv-x="761" d="M381 774 L522 928 L722 928 L529 774 L381 774 Z M721 0 L492 0 L336 293 L287 293 L226 0 L17 0 L170 720 L379 720 L318 434 L367 434 L620 720 L840 720 L515 365 L721 0 Z " />
<glyph glyph-name="uni040D" unicode="&#x40d;" horiz-adv-x="750" d="M598 720 L806 720 L653 0 L445 0 L529 397 L236 49 L226 0 L17 0 L170 720 L379 720 L294 322 L587 671 L598 720 Z M492 928 L566 774 L432 774 L304 928 L492 928 Z " />
<glyph glyph-name="afii10062" unicode="&#x40e;" horiz-adv-x="653" d="M456 770 Q304 772 304 885 Q304 893 305 904 L444 904 Q444 872 473 872 Q503 872 514 904 L653 904 Q605 770 456 770 Z M765 720 L441 174 Q370 55 314 18 Q264 -15 181 -15 Q139 -15 80 1 L108 134 Q146 120 177 120 Q203 120 219 132.5 Q235 145 253 179 L206 179 L113 720 L315 720 L348 318 L556 720 L765 720 Z " />
<glyph glyph-name="afii10145" unicode="&#x40f;" horiz-adv-x="750" d="M653 0 L431 0 L401 -140 L208 -140 L238 0 L17 0 L170 720 L379 720 L256 144 L474 144 L597 720 L806 720 L653 0 Z " />
<glyph glyph-name="afii10017" unicode="&#x410;" horiz-adv-x="740" d="M703 0 L487 0 L474 157 L251 157 L172 0 L-43 0 L374 720 L590 720 L703 0 Z M445 539 L320 295 L464 295 L445 539 Z " />
<glyph glyph-name="afii10018" unicode="&#x411;" horiz-adv-x="701" d="M329 490 L389 490 Q544 490 618 428 Q680 376 680 286 Q680 0 310 0 L17 0 L170 720 L656 720 L625 573 L347 573 L329 490 Z M363 349 L299 349 L254 140 L335 140 Q399 140 434 179 Q465 213 465 266 Q465 306 438.5 327.5 Q412 349 363 349 Z " />
<glyph glyph-name="afii10019" unicode="&#x412;" horiz-adv-x="687" d="M170 720 L426 720 Q706 720 706 562 Q706 490 653 440 Q608 397 540 383 Q599 369 634 323 Q666 282 666 232 Q666 0 311 0 L17 0 L170 720 Z M372 312 L291 312 L254 136 L341 136 Q400 136 430 166 Q456 192 456 240 Q456 273 433.5 292.5 Q411 312 372 312 Z M412 584 L349 584 L318 439 L395 439 Q441 439 467 465 Q490 488 490 525 Q490 552 468.5 568 Q447 584 412 584 Z " />
<glyph glyph-name="afii10020" unicode="&#x413;" horiz-adv-x="545" d="M653 720 L621 572 L347 572 L226 0 L17 0 L170 720 L653 720 Z " />
<glyph glyph-name="afii10021" unicode="&#x414;" horiz-adv-x="758" d="M235 720 L798 720 L674 140 L752 140 L693 -140 L505 -140 L535 0 L139 0 L109 -140 L-78 -140 L-19 140 L44 140 Q91 172 112 251 L235 720 Z M317 297 Q291 200 212 140 L471 140 L564 579 L392 579 L317 297 Z " />
<glyph glyph-name="afii10022" unicode="&#x415;" horiz-adv-x="614" d="M601 432 L572 294 L288 294 L257 146 L569 146 L539 0 L17 0 L170 720 L692 720 L660 572 L348 572 L318 432 L601 432 Z " />
<glyph glyph-name="afii10024" unicode="&#x416;" horiz-adv-x="1088" d="M147 720 L357 720 L449 434 L492 434 L553 720 L761 720 L700 434 L743 434 L950 720 L1167 720 L893 368 L1048 0 L820 0 L718 293 L670 293 L608 0 L400 0 L461 293 L410 293 L194 0 L-40 0 L275 386 L147 720 Z " />
<glyph glyph-name="afii10025" unicode="&#x417;" horiz-adv-x="656" d="M314 128 Q365 128 394 161 Q421 190 421 236 Q421 271 397.5 290.5 Q374 310 333 310 L268 310 L295 437 L360 437 Q416 437 445 465 Q471 489 471 530 Q471 558 449.5 576 Q428 594 394 594 Q321 594 291 528 L88 528 Q124 633 213 686 Q297 735 422 735 Q551 735 626 679 Q689 632 689 562 Q689 490 636 440 Q591 398 516 382 Q576 367 607 321 Q634 282 634 231 Q634 111 533 44 Q444 -15 300 -15 Q167 -15 91 51 Q27 105 27 184 Q27 198 28 205 L236 205 Q235 202 235 194 Q235 128 314 128 Z " />
<glyph glyph-name="afii10026" unicode="&#x418;" horiz-adv-x="750" d="M598 720 L806 720 L653 0 L445 0 L529 397 L236 49 L226 0 L17 0 L170 720 L379 720 L294 322 L587 671 L598 720 Z " />
<glyph glyph-name="afii10027" unicode="&#x419;" horiz-adv-x="750" d="M501 770 Q349 772 349 885 Q349 893 350 904 L489 904 Q489 872 518 872 Q548 872 559 904 L698 904 Q650 770 501 770 Z M598 720 L806 720 L653 0 L445 0 L529 397 L236 49 L226 0 L17 0 L170 720 L379 720 L294 322 L587 671 L598 720 Z " />
<glyph glyph-name="afii10028" unicode="&#x41a;" horiz-adv-x="761" d="M721 0 L492 0 L336 293 L287 293 L226 0 L17 0 L170 720 L379 720 L318 434 L367 434 L620 720 L840 720 L515 365 L721 0 Z " />
<glyph glyph-name="afii10029" unicode="&#x41b;" horiz-adv-x="743" d="M235 720 L799 720 L646 0 L443 0 L566 580 L385 580 L267 192 Q232 78 163 38 Q98 0 -35 0 L-7 133 Q32 133 50 148.5 Q68 164 82 209 L235 720 Z " />
<glyph glyph-name="afii10030" unicode="&#x41c;" horiz-adv-x="916" d="M499 0 L331 0 L280 406 L194 0 L17 0 L170 720 L388 720 L455 197 L740 720 L972 720 L819 0 L632 0 L716 397 L499 0 Z " />
<glyph glyph-name="afii10031" unicode="&#x41d;" horiz-adv-x="750" d="M598 720 L806 720 L653 0 L445 0 L506 293 L287 293 L226 0 L17 0 L170 720 L379 720 L318 435 L537 435 L598 720 Z " />
<glyph glyph-name="afii10032" unicode="&#x41e;" horiz-adv-x="800" d="M401 132 Q508 132 564 255 Q603 338 603 433 Q603 517 557 558 Q523 589 473 589 Q363 589 307 461 Q270 377 270 286 Q270 203 317 162 Q351 132 401 132 Z M384 -15 Q237 -15 146 68 Q57 149 57 286 Q57 386 91 477 Q134 591 221 656 Q326 735 486 735 Q631 735 723 653 Q814 572 814 435 Q814 332 778 240 Q735 127 647 63 Q542 -15 384 -15 Z " />
<glyph glyph-name="afii10033" unicode="&#x41f;" horiz-adv-x="750" d="M170 720 L806 720 L653 0 L445 0 L567 577 L348 577 L226 0 L17 0 L170 720 Z " />
<glyph glyph-name="afii10034" unicode="&#x420;" horiz-adv-x="691" d="M170 720 L439 720 Q593 720 667 658 Q729 606 729 516 Q729 381 639 307 Q545 230 359 230 L274 230 L226 0 L17 0 L170 720 Z M413 579 L348 579 L304 370 L385 370 Q448 370 484 409 Q515 443 515 496 Q515 536 488.5 557.5 Q462 579 413 579 Z " />
<glyph glyph-name="afii10035" unicode="&#x421;" horiz-adv-x="761" d="M383 128 Q444 128 483 169 Q517 204 538 276 L749 276 Q696 118 592 47 Q501 -15 362 -15 Q208 -15 127 77 Q58 155 58 284 Q58 395 96 489 Q141 600 229 662 Q331 735 482 735 Q623 735 708 661 Q785 592 785 481 L785 471 L577 471 Q577 592 470 592 Q367 592 313 469 Q274 383 274 278 Q274 198 309 159 Q337 128 383 128 Z " />
<glyph glyph-name="afii10036" unicode="&#x422;" horiz-adv-x="636" d="M744 720 L712 569 L501 569 L381 0 L172 0 L292 569 L86 569 L118 720 L744 720 Z " />
<glyph glyph-name="afii10037" unicode="&#x423;" horiz-adv-x="653" d="M765 720 L441 174 Q370 55 314 18 Q264 -15 181 -15 Q139 -15 80 1 L108 134 Q146 120 177 120 Q203 120 219 132.5 Q235 145 253 179 L206 179 L113 720 L315 720 L348 318 L556 720 L765 720 Z " />
<glyph glyph-name="afii10038" unicode="&#x424;" horiz-adv-x="980" d="M504 735 L707 735 L698 698 Q840 695 920 613 Q992 540 992 423 Q992 306 938 215 Q885 124 787 74 Q687 22 555 22 L547 -15 L344 -15 L352 22 Q211 24 131 105 Q60 178 60 295 Q60 408 110 498 Q162 591 257 643 Q359 698 496 698 L504 735 Z M586 169 Q688 173 742 262 Q782 329 782 416 Q782 484 745 519 Q715 548 667 551 L586 169 Z M465 551 Q363 549 309 457 Q270 390 270 306 Q270 238 307 202 Q336 173 383 170 L465 551 Z " />
<glyph glyph-name="afii10039" unicode="&#x425;" horiz-adv-x="750" d="M841 720 L530 376 L705 0 L476 0 L385 227 L204 0 L-35 0 L299 375 L135 720 L361 720 L445 519 L611 720 L841 720 Z " />
<glyph glyph-name="afii10040" unicode="&#x426;" horiz-adv-x="766" d="M379 720 L256 144 L474 144 L598 720 L806 720 L683 143 L763 143 L703 -140 L510 -140 L540 0 L17 0 L170 720 L379 720 Z " />
<glyph glyph-name="afii10041" unicode="&#x427;" horiz-adv-x="730" d="M578 720 L786 720 L633 0 L425 0 L482 273 Q395 203 304 203 Q196 203 143 257 Q97 304 97 391 Q97 433 107 480 L158 720 L368 720 L312 463 Q308 446 308 426 Q308 389 328.5 368.5 Q349 348 387 348 Q442 348 480 386 Q511 417 522 466 L578 720 Z " />
<glyph glyph-name="afii10042" unicode="&#x428;" horiz-adv-x="992" d="M895 0 L17 0 L170 720 L379 720 L256 144 L385 144 L508 720 L716 720 L593 144 L716 144 L840 720 L1048 720 L895 0 Z " />
<glyph glyph-name="afii10043" unicode="&#x429;" horiz-adv-x="1008" d="M782 0 L17 0 L170 720 L379 720 L256 144 L385 144 L508 720 L716 720 L593 144 L716 144 L840 720 L1048 720 L925 143 L1005 143 L945 -140 L752 -140 L782 0 Z " />
<glyph glyph-name="afii10044" unicode="&#x42a;" horiz-adv-x="857" d="M495 490 L555 490 Q710 490 784 428 Q846 376 846 286 Q846 0 476 0 L183 0 L304 572 L91 572 L123 720 L544 720 L495 490 Z M529 350 L465 350 L420 140 L501 140 Q565 140 600 179 Q631 213 631 266 Q631 306 604.5 328 Q578 350 529 350 Z " />
<glyph glyph-name="afii10045" unicode="&#x42b;" horiz-adv-x="980" d="M826 720 L1035 720 L882 0 L673 0 L826 720 Z M329 490 L389 490 Q544 490 618 428 Q680 376 680 286 Q680 0 310 0 L17 0 L170 720 L378 720 L329 490 Z M363 349 L299 349 L254 140 L335 140 Q399 140 434 179 Q465 213 465 266 Q465 306 438.5 327.5 Q412 349 363 349 Z " />
<glyph glyph-name="afii10046" unicode="&#x42c;" horiz-adv-x="691" d="M329 490 L389 490 Q544 490 618 428 Q680 376 680 286 Q680 0 310 0 L17 0 L170 720 L378 720 L329 490 Z M363 349 L299 349 L254 140 L335 140 Q399 140 434 179 Q465 213 465 266 Q465 306 438.5 327.5 Q412 349 363 349 Z " />
<glyph glyph-name="afii10047" unicode="&#x42d;" horiz-adv-x="763" d="M348 298 L378 437 L561 437 Q562 445 562 460 Q562 531 528 565 Q500 592 453 592 Q353 592 304 470 L95 470 Q145 605 251 674 Q346 735 472 735 Q624 735 706 647 Q777 571 777 446 Q777 391 764 333 Q727 163 619 72 Q514 -15 358 -15 Q202 -15 121 57 Q48 123 48 239 Q48 251 50 275 L261 275 Q259 264 259 242 Q259 182 295 152 Q324 128 373 128 Q479 128 533 298 L348 298 Z " />
<glyph glyph-name="afii10048" unicode="&#x42e;" horiz-adv-x="1105" d="M699 -15 Q549 -15 460 83 Q384 167 382 292 L287 292 L225 0 L17 0 L170 720 L378 720 L318 435 L405 435 Q490 735 799 735 Q940 735 1030 653 Q1119 572 1119 436 Q1119 340 1085 248 Q1042 133 958 66 Q854 -15 699 -15 Z M714 132 Q816 132 870 257 Q907 342 907 436 Q907 519 865 558 Q833 588 785 588 Q685 588 631 460 Q594 373 594 282 Q594 202 637 162 Q669 132 714 132 Z " />
<glyph glyph-name="afii10049" unicode="&#x42f;" horiz-adv-x="727" d="M203 0 L-38 0 L217 288 Q118 341 118 452 Q118 580 210 650 Q301 720 472 720 L782 720 L629 0 L420 0 L473 250 L410 250 L203 0 Z M336 471 Q336 434 363 412 Q387 392 423 392 L503 392 L542 578 L461 578 Q397 578 364 546 Q336 518 336 471 Z " />
<glyph glyph-name="afii10065" unicode="&#x430;" horiz-adv-x="581" d="M262 358 L69 358 Q144 535 357 535 Q468 535 525 485 Q575 443 575 371 Q575 343 570 322 L502 0 L352 0 L340 58 Q310 25 261.5 5 Q213 -15 161 -15 Q84 -15 44 25 Q9 59 9 115 Q9 201 74 248 Q135 292 266 313 L378 331 L381 345 Q383 353 383 364 Q383 409 333 409 Q308 409 289 395.5 Q270 382 262 358 Z M250 111 Q284 111 311.5 132.5 Q339 154 347 188 L357 232 Q261 214 233 199 Q205 184 205 149 Q205 111 250 111 Z " />
<glyph glyph-name="afii10066" unicode="&#x431;" horiz-adv-x="623" d="M261 440 Q291 467 332 484 Q373 501 411 501 Q509 501 565 439 Q614 384 614 297 Q614 154 526 69 Q439 -15 286 -15 Q160 -15 95 55 Q39 116 39 217 Q39 295 65 379 Q97 482 158 552 Q232 636 341 659 Q418 675 448 688 Q478 701 482 720 L679 720 Q665 662 609.5 629 Q554 596 428 568 Q360 553 322 524 Q284 495 261 440 Z M343 372 Q281 372 250 305 Q229 258 229 201 Q229 159 248 136 Q267 113 302 113 Q363 113 394 182 Q415 228 415 285 Q415 326 396 349 Q377 372 343 372 Z " />
<glyph glyph-name="afii10067" unicode="&#x432;" horiz-adv-x="591" d="M301 0 L6 0 L116 520 L380 520 Q596 520 596 405 Q596 348 550 313 Q509 281 437 273 Q498 266 533 230 Q561 201 561 162 Q561 86 497 44 Q430 0 301 0 Z M316 211 L243 211 L224 120 L290 120 Q370 120 370 171 Q370 189 355 200 Q340 211 316 211 Z M341 400 L283 400 L267 322 L337 322 Q395 322 395 366 Q395 400 341 400 Z " />
<glyph glyph-name="afii10068" unicode="&#x433;" horiz-adv-x="442" d="M116 520 L505 520 L477 389 L281 389 L199 0 L6 0 L116 520 Z " />
<glyph glyph-name="afii10069" unicode="&#x434;" horiz-adv-x="636" d="M-27 131 L25 131 Q60 154 80 219 L172 520 L647 520 L565 131 L634 131 L577 -140 L398 -140 L428 0 L124 0 L94 -140 L-83 -140 L-27 131 Z M271 236 Q250 165 180 131 L375 131 L430 389 L315 389 L271 236 Z " />
<glyph glyph-name="afii10070" unicode="&#x435;" horiz-adv-x="619" d="M385 165 L581 165 Q542 77 465 30 Q389 -15 286 -15 Q165 -15 96 56 Q37 118 37 213 Q37 294 72 365 Q109 442 177 486 Q254 535 358 535 Q478 535 545 468 Q606 407 606 304 Q606 262 596 218 L230 218 Q229 212 229 200 Q229 117 309 117 Q366 117 385 165 Z M351 414 Q284 414 252 320 L419 320 Q421 329 421 345 Q421 414 351 414 Z " />
<glyph glyph-name="afii10072" unicode="&#x436;" horiz-adv-x="883" d="M83 520 L279 520 L354 334 L375 334 L415 520 L608 520 L569 334 L590 334 L737 520 L940 520 L731 270 L843 0 L629 0 L566 203 L541 203 L498 0 L305 0 L348 203 L321 203 L179 0 L-40 0 L191 290 L83 520 Z " />
<glyph glyph-name="afii10073" unicode="&#x437;" horiz-adv-x="572" d="M353 535 Q468 535 527 493 Q575 459 575 407 Q575 303 431 276 Q483 269 512 233 Q538 202 538 160 Q538 79 470 33 Q401 -15 273 -15 Q156 -15 89 48 Q33 100 30 182 L220 182 Q223 114 283 114 Q311 114 327 128.5 Q343 143 343 168 Q343 214 269 214 L252 214 L275 323 L304 323 Q375 323 375 369 Q375 385 361 396 Q347 407 326 407 Q269 407 244 353 L54 353 Q89 441 173 490 Q251 535 353 535 Z " />
<glyph glyph-name="afii10074" unicode="&#x438;" horiz-adv-x="611" d="M199 0 L6 0 L116 520 L309 520 L254 267 L435 486 L442 520 L635 520 L525 0 L332 0 L386 252 L205 31 L199 0 Z " />
<glyph glyph-name="afii10075" unicode="&#x439;" horiz-adv-x="611" d="M390 574 Q238 576 238 689 Q238 697 239 708 L378 708 Q378 676 407 676 Q437 676 448 708 L587 708 Q539 574 390 574 Z M199 0 L6 0 L116 520 L309 520 L254 267 L435 486 L442 520 L635 520 L525 0 L332 0 L386 252 L205 31 L199 0 Z " />
<glyph glyph-name="afii10076" unicode="&#x43a;" horiz-adv-x="623" d="M199 0 L6 0 L116 520 L309 520 L270 334 L295 334 L476 520 L682 520 L429 270 L587 0 L367 0 L261 203 L242 203 L199 0 Z " />
<glyph glyph-name="afii10077" unicode="&#x43b;" horiz-adv-x="638" d="M178 520 L662 520 L552 0 L359 0 L441 390 L320 390 L259 181 Q228 75 161 36 Q98 0 -30 0 L-3 130 Q36 130 53 144.5 Q70 159 83 202 L178 520 Z " />
<glyph glyph-name="afii10078" unicode="&#x43c;" horiz-adv-x="732" d="M388 30 L270 30 L245 288 L184 0 L6 0 L116 520 L344 520 L367 219 L513 520 L756 520 L646 0 L458 0 L519 289 L388 30 Z " />
<glyph glyph-name="afii10079" unicode="&#x43d;" horiz-adv-x="611" d="M116 520 L309 520 L271 343 L404 343 L442 520 L635 520 L525 0 L332 0 L377 212 L244 212 L199 0 L6 0 L116 520 Z " />
<glyph glyph-name="afii10080" unicode="&#x43e;" horiz-adv-x="629" d="M361 535 Q488 535 558 471 Q623 413 623 315 Q623 166 535 75 Q448 -15 295 -15 Q171 -15 100 49 Q36 109 36 208 Q36 345 111 433 Q196 535 361 535 Z M351 407 Q283 407 252 316 Q234 262 234 202 Q234 113 311 113 Q379 113 409 205 Q427 260 427 323 Q427 407 351 407 Z " />
<glyph glyph-name="afii10081" unicode="&#x43f;" horiz-adv-x="611" d="M116 520 L635 520 L525 0 L332 0 L414 389 L281 389 L199 0 L6 0 L116 520 Z " />
<glyph glyph-name="afii10082" unicode="&#x440;" horiz-adv-x="642" d="M350 -15 Q308 -15 269.5 2.5 Q231 20 209 48 L161 -180 L-33 -180 L116 520 L266 520 L285 457 Q361 535 455 535 Q545 535 595 476 Q639 423 639 337 Q639 241 602 160 Q565 80 501 33 Q433 -15 350 -15 Z M368 398 Q302 398 267 320 Q244 268 244 210 Q244 168 264 145 Q284 122 320 122 Q380 122 415 190 Q442 242 442 309 Q442 352 423 375 Q404 398 368 398 Z " />
<glyph glyph-name="afii10083" unicode="&#x441;" horiz-adv-x="606" d="M382 195 L581 195 Q540 92 462 38 Q385 -15 278 -15 Q151 -15 87 50 Q34 105 34 198 Q34 279 64 349 Q99 432 167 480 Q247 535 365 535 Q483 535 550 474 Q609 421 610 337 L411 337 Q411 405 351 405 Q286 405 254 319 Q233 264 233 202 Q233 157 254 133 Q270 114 296 114 Q354 114 382 195 Z " />
<glyph glyph-name="afii10084" unicode="&#x442;" horiz-adv-x="520" d="M49 389 L77 520 L583 520 L555 389 L399 389 L316 0 L123 0 L205 389 L49 389 Z " />
<glyph glyph-name="afii10085" unicode="&#x443;" horiz-adv-x="594" d="M464 520 L665 520 L365 -7 Q299 -123 244 -162 Q197 -195 126 -195 Q74 -195 19 -179 L47 -49 Q93 -63 118 -63 Q140 -63 155.5 -49 Q171 -35 189 0 L153 0 L70 520 L270 520 L283 138 L464 520 Z " />
<glyph glyph-name="afii10086" unicode="&#x444;" horiz-adv-x="946" d="M664 -15 Q626 -15 591 -1.5 Q556 12 536 34 L490 -180 L296 -180 L342 33 Q279 -15 214 -15 Q127 -15 77 49 Q34 106 34 196 Q34 256 51.5 317 Q69 378 99 424 Q172 535 302 535 Q342 535 379.5 520.5 Q417 506 438 482 L488 720 L682 720 L631 481 Q693 535 765 535 Q852 535 900 475 Q943 421 943 334 Q943 254 915 179 Q883 93 825 43 Q758 -15 664 -15 Z M409 311 Q409 352 391.5 375 Q374 398 343 398 Q282 398 251 322 Q230 272 230 215 Q230 167 252 142 Q270 121 298 121 Q353 121 386 199 Q409 254 409 311 Z M565 208 Q565 166 581.5 143.5 Q598 121 629 121 Q687 121 722 197 Q746 252 746 311 Q746 352 728.5 375 Q711 398 680 398 Q618 398 586 316 Q565 263 565 208 Z " />
<glyph glyph-name="afii10087" unicode="&#x445;" horiz-adv-x="610" d="M655 520 L428 275 L571 0 L350 0 L290 142 L172 0 L-41 0 L213 273 L78 520 L295 520 L347 395 L446 520 L655 520 Z " />
<glyph glyph-name="afii10088" unicode="&#x446;" horiz-adv-x="624" d="M635 520 L552 130 L622 130 L565 -140 L386 -140 L416 0 L6 0 L116 520 L309 520 L226 130 L359 130 L442 520 L635 520 Z " />
<glyph glyph-name="afii10089" unicode="&#x447;" horiz-adv-x="601" d="M110 520 L303 520 L260 311 Q257 299 257 289 Q257 265 270.5 251.5 Q284 238 307 238 Q338 238 361.5 263.5 Q385 289 394 334 L432 520 L625 520 L516 0 L323 0 L358 159 Q292 106 212 106 Q134 106 94 150 Q60 187 60 252 Q60 280 68 318 L110 520 Z " />
<glyph glyph-name="afii10090" unicode="&#x448;" horiz-adv-x="850" d="M764 0 L6 0 L116 520 L309 520 L226 130 L315 130 L398 520 L591 520 L509 130 L598 130 L681 520 L874 520 L764 0 Z " />
<glyph glyph-name="afii10091" unicode="&#x449;" horiz-adv-x="863" d="M656 0 L6 0 L116 520 L309 520 L226 130 L315 130 L398 520 L591 520 L509 130 L598 130 L681 520 L874 520 L791 130 L861 130 L804 -140 L626 -140 L656 0 Z " />
<glyph glyph-name="afii10092" unicode="&#x44a;" horiz-adv-x="711" d="M432 520 L402 378 L487 378 Q587 378 641 329 Q686 288 686 222 Q686 110 600 51 Q526 0 402 0 L130 0 L211 390 L49 390 L77 520 L432 520 Z M408 260 L377 260 L347 117 L384 117 Q493 117 493 202 Q493 260 408 260 Z " />
<glyph glyph-name="afii10093" unicode="&#x44b;" horiz-adv-x="845" d="M758 0 L565 0 L675 520 L868 520 L758 0 Z M116 520 L309 520 L278 378 L363 378 Q464 378 518 329 Q563 288 563 222 Q563 110 477 51 Q403 0 279 0 L6 0 L116 520 Z M284 260 L253 260 L223 117 L260 117 Q369 117 369 202 Q369 260 284 260 Z " />
<glyph glyph-name="afii10094" unicode="&#x44c;" horiz-adv-x="588" d="M116 520 L309 520 L278 378 L363 378 Q464 378 518 329 Q563 288 563 222 Q563 110 477 51 Q403 0 279 0 L6 0 L116 520 Z M284 260 L253 260 L223 117 L260 117 Q369 117 369 202 Q369 260 284 260 Z " />
<glyph glyph-name="afii10095" unicode="&#x44d;" horiz-adv-x="599" d="M26 186 L226 186 Q227 152 242.5 133 Q258 114 285 114 Q321 114 342 138 Q363 162 379 221 L268 221 L288 315 L397 315 Q397 318 398 324 Q398 329 398 331 Q398 405 333 405 Q278 405 254 346 L54 346 Q86 434 170 486 Q249 535 351 535 Q470 535 535 465 Q592 405 592 311 Q592 164 510 75 Q426 -15 277 -15 Q150 -15 82 52 Q27 106 26 186 Z " />
<glyph glyph-name="afii10096" unicode="&#x44e;" horiz-adv-x="879" d="M116 520 L309 520 L271 343 L332 343 Q402 535 624 535 Q742 535 811 472 Q874 413 874 316 Q874 176 795 84 Q710 -15 555 -15 Q433 -15 366 54 Q308 114 306 212 L244 212 L199 0 L6 0 L116 520 Z M612 406 Q552 406 522 318 Q503 261 503 196 Q503 113 568 113 Q628 113 658 203 Q678 262 678 329 Q678 406 612 406 Z " />
<glyph glyph-name="afii10097" unicode="&#x44f;" horiz-adv-x="610" d="M178 0 L-32 0 L149 181 Q113 199 93 232 Q73 265 73 308 Q73 417 155 472 Q227 520 353 520 L634 520 L524 0 L331 0 L365 160 L327 160 L178 0 Z M348 278 L390 278 L417 403 L366 403 Q267 403 267 331 Q267 278 348 278 Z " />
<glyph glyph-name="uni0450" unicode="&#x450;" horiz-adv-x="619" d="M385 165 L581 165 Q542 77 465 30 Q389 -15 286 -15 Q165 -15 96 56 Q37 118 37 213 Q37 294 72 365 Q109 442 177 486 Q254 535 358 535 Q478 535 545 468 Q606 407 606 304 Q606 262 596 218 L230 218 Q229 212 229 200 Q229 117 309 117 Q366 117 385 165 Z M351 414 Q284 414 252 320 L419 320 Q421 329 421 345 Q421 414 351 414 Z M386 732 L460 578 L326 578 L198 732 L386 732 Z " />
<glyph glyph-name="afii10071" unicode="&#x451;" horiz-adv-x="619" d="M385 165 L581 165 Q542 77 465 30 Q389 -15 286 -15 Q165 -15 96 56 Q37 118 37 213 Q37 294 72 365 Q109 442 177 486 Q254 535 358 535 Q478 535 545 468 Q606 407 606 304 Q606 262 596 218 L230 218 Q229 212 229 200 Q229 117 309 117 Q366 117 385 165 Z M351 414 Q284 414 252 320 L419 320 Q421 329 421 345 Q421 414 351 414 Z M354 585 L182 585 L213 729 L385 729 L354 585 Z M593 585 L420 585 L451 729 L624 729 L593 585 Z " />
<glyph glyph-name="afii10099" unicode="&#x452;" horiz-adv-x="607" d="M6 0 L125 558 L81 558 L108 688 L152 688 L159 720 L352 720 L345 688 L447 688 L419 558 L318 558 L300 477 Q366 535 449 535 Q527 535 567 491 Q603 453 603 386 Q603 353 596 322 L523 -19 Q486 -195 313 -195 Q248 -195 205 -180 L234 -44 Q260 -54 281 -54 Q303 -54 314.5 -44 Q326 -34 331 -10 L402 324 Q405 339 405 350 Q405 402 356 402 Q322 402 297.5 377 Q273 352 264 308 L199 0 L6 0 Z " />
<glyph glyph-name="afii10100" unicode="&#x453;" horiz-adv-x="442" d="M116 520 L505 520 L477 389 L281 389 L199 0 L6 0 L116 520 Z M203 578 L344 732 L544 732 L351 578 L203 578 Z " />
<glyph glyph-name="afii10101" unicode="&#x454;" horiz-adv-x="604" d="M376 186 L576 186 Q488 -15 283 -15 Q160 -15 92 54 Q34 113 34 207 Q34 280 60 347 Q93 430 159 478 Q239 535 359 535 Q475 535 548 472 Q610 419 610 346 L410 346 Q409 371 391 388 Q373 405 348 405 Q315 405 293 383.5 Q271 362 254 314 L363 314 L343 220 L231 220 Q229 202 229 195 Q229 152 252 130 Q269 114 293 114 Q347 114 376 186 Z " />
<glyph glyph-name="afii10102" unicode="&#x455;" horiz-adv-x="563" d="M278 112 Q340 112 340 149 Q340 169 320 181.5 Q300 194 251 203 Q62 238 62 360 Q62 535 318 535 Q433 535 502 482 Q563 435 563 365 L375 365 Q370 409 306 409 Q259 409 259 378 Q259 341 348 324 Q539 287 539 173 Q539 -15 270 -15 Q150 -15 78 39 Q15 87 15 157 L204 157 Q206 137 226 124.5 Q246 112 278 112 Z " />
<glyph glyph-name="afii10103" unicode="&#x456;" horiz-adv-x="295" d="M331 574 L127 574 L158 720 L363 720 L331 574 Z M204 0 L11 0 L121 520 L314 520 L204 0 Z " />
<glyph glyph-name="afii10104" unicode="&#x457;" horiz-adv-x="295" d="M199 585 L27 585 L58 729 L230 729 L199 585 Z M438 585 L265 585 L296 729 L469 729 L438 585 Z M204 0 L11 0 L121 520 L314 520 L204 0 Z " />
<glyph glyph-name="afii10105" unicode="&#x458;" horiz-adv-x="291" d="M-121 -178 L-92 -42 Q-65 -52 -44 -52 Q-21 -52 -9.5 -41.5 Q2 -31 7 -7 L119 520 L312 520 L199 -17 Q161 -195 -12 -195 Q-75 -195 -121 -178 Z M329 571 L125 571 L156 717 L360 717 L329 571 Z " />
<glyph glyph-name="afii10106" unicode="&#x459;" horiz-adv-x="940" d="M178 520 L661 520 L630 378 L715 378 Q816 378 870 329 Q915 288 915 222 Q915 110 829 51 Q755 0 631 0 L358 0 L440 390 L320 390 L259 181 Q228 75 161 36 Q98 0 -30 0 L-3 130 Q36 130 53 144.5 Q70 159 83 202 L178 520 Z M636 260 L605 260 L575 117 L612 117 Q721 117 721 202 Q721 260 636 260 Z " />
<glyph glyph-name="afii10107" unicode="&#x45a;" horiz-adv-x="910" d="M438 520 L631 520 L600 378 L685 378 Q786 378 840 329 Q885 288 885 222 Q885 110 799 51 Q725 0 601 0 L328 0 L373 213 L244 213 L199 0 L6 0 L116 520 L309 520 L272 343 L400 343 L438 520 Z M606 260 L575 260 L545 117 L582 117 Q691 117 691 202 Q691 260 606 260 Z " />
<glyph glyph-name="afii10108" unicode="&#x45b;" horiz-adv-x="607" d="M6 0 L125 558 L81 558 L108 688 L152 688 L159 720 L352 720 L345 688 L447 688 L419 558 L318 558 L300 477 Q366 535 449 535 Q527 535 567 491 Q603 453 603 386 Q603 353 596 322 L527 0 L333 0 L402 324 Q405 339 405 350 Q405 402 356 402 Q322 402 297.5 377 Q273 352 264 308 L199 0 L6 0 Z " />
<glyph glyph-name="afii10109" unicode="&#x45c;" horiz-adv-x="623" d="M199 0 L6 0 L116 520 L309 520 L270 334 L295 334 L476 520 L682 520 L429 270 L587 0 L367 0 L261 203 L242 203 L199 0 Z M278 578 L419 732 L619 732 L426 578 L278 578 Z " />
<glyph glyph-name="uni045D" unicode="&#x45d;" horiz-adv-x="611" d="M199 0 L6 0 L116 520 L309 520 L254 267 L435 486 L442 520 L635 520 L525 0 L332 0 L386 252 L205 31 L199 0 Z M402 732 L476 578 L342 578 L214 732 L402 732 Z " />
<glyph glyph-name="afii10110" unicode="&#x45e;" horiz-adv-x="594" d="M464 520 L665 520 L365 -7 Q299 -123 244 -162 Q197 -195 126 -195 Q74 -195 19 -179 L47 -49 Q93 -63 118 -63 Q140 -63 155.5 -49 Q171 -35 189 0 L153 0 L70 520 L270 520 L283 138 L464 520 Z M385 574 Q233 576 233 689 Q233 697 234 708 L373 708 Q373 676 402 676 Q432 676 443 708 L582 708 Q534 574 385 574 Z " />
<glyph glyph-name="afii10193" unicode="&#x45f;" horiz-adv-x="611" d="M525 0 L355 0 L325 -140 L146 -140 L176 0 L6 0 L116 520 L309 520 L227 131 L359 131 L442 520 L635 520 L525 0 Z " />
<glyph glyph-name="uni0462" unicode="&#x462;" horiz-adv-x="827" d="M465 490 L525 490 Q679 490 753 428 Q815 376 815 286 Q815 0 445 0 L152 0 L273 569 L85 569 L118 720 L704 720 L671 569 L482 569 L465 490 Z M499 349 L435 349 L390 140 L471 140 Q534 140 570 179 Q601 213 601 266 Q601 306 574.5 327.5 Q548 349 499 349 Z " />
<glyph glyph-name="uni0463" unicode="&#x463;" horiz-adv-x="614" d="M424 451 L320 451 L305 378 L390 378 Q490 378 544 329 Q589 288 589 222 Q589 110 503 51 Q429 0 305 0 L32 0 L128 451 L52 451 L79 582 L155 582 L170 652 L363 652 L348 582 L451 582 L424 451 Z M311 260 L279 260 L250 117 L287 117 Q395 117 395 202 Q395 260 311 260 Z " />
<glyph glyph-name="uni0472" unicode="&#x472;" horiz-adv-x="800" d="M384 -15 Q236 -15 146 68 Q57 148 57 285 Q57 386 91 477 Q133 591 220 656 Q325 735 485 735 Q630 735 722 653 Q813 572 813 435 Q813 332 777 240 Q734 127 646 63 Q542 -15 384 -15 Z M401 132 Q471 132 520 187 Q557 227 578 292 L270 292 Q270 205 316 163 Q350 132 401 132 Z M472 588 Q403 588 355 536 Q319 498 297 435 L601 435 Q601 517 555 558 Q521 588 472 588 Z " />
<glyph glyph-name="uni0473" unicode="&#x473;" horiz-adv-x="629" d="M361 535 Q487 535 558 471 Q622 413 622 315 Q622 166 534 75 Q447 -15 295 -15 Q170 -15 100 49 Q35 108 35 207 Q35 344 110 433 Q196 535 361 535 Z M311 113 Q382 113 409 210 L234 210 Q233 205 233 197 Q233 113 311 113 Z M351 406 Q282 406 251 316 L427 316 Q427 406 351 406 Z " />
<glyph glyph-name="uni0474" unicode="&#x474;" horiz-adv-x="704" d="M607 720 L817 720 L429 0 L197 0 L113 720 L323 720 L348 178 L607 720 Z " />
<glyph glyph-name="uni0475" unicode="&#x475;" horiz-adv-x="591" d="M454 520 L662 520 L366 0 L144 0 L69 520 L272 520 L287 157 L454 520 Z " />
<glyph glyph-name="afii10050" unicode="&#x490;" horiz-adv-x="545" d="M488 855 L681 855 L621 572 L347 572 L226 0 L17 0 L170 720 L460 720 L488 855 Z " />
<glyph glyph-name="afii10098" unicode="&#x491;" horiz-adv-x="442" d="M116 520 L327 520 L355 651 L534 651 L478 389 L281 389 L199 0 L6 0 L116 520 Z " />
<glyph glyph-name="uni0492" unicode="&#x492;" horiz-adv-x="578" d="M686 720 L654 572 L380 572 L350 432 L503 432 L473 294 L320 294 L259 0 L50 0 L112 294 L22 294 L51 432 L141 432 L203 720 L686 720 Z " />
<glyph glyph-name="uni0493" unicode="&#x493;" horiz-adv-x="448" d="M121 520 L510 520 L483 389 L286 389 L272 320 L378 320 L350 189 L244 189 L204 0 L11 0 L51 189 L2 189 L30 320 L79 320 L121 520 Z " />
<glyph glyph-name="uni0496" unicode="&#x496;" horiz-adv-x="1097" d="M147 720 L357 720 L449 434 L492 434 L553 720 L761 720 L700 434 L743 434 L950 720 L1167 720 L893 368 L987 143 L1095 143 L1035 -140 L842 -140 L871 0 L820 0 L718 293 L670 293 L608 0 L400 0 L461 293 L410 293 L194 0 L-40 0 L275 386 L147 720 Z " />
<glyph glyph-name="uni0497" unicode="&#x497;" horiz-adv-x="894" d="M83 520 L279 520 L354 334 L375 334 L415 520 L608 520 L569 334 L590 334 L737 520 L940 520 L731 270 L788 131 L890 131 L833 -140 L655 -140 L684 0 L629 0 L566 203 L541 203 L498 0 L305 0 L348 203 L321 203 L179 0 L-40 0 L191 290 L83 520 Z " />
<glyph glyph-name="uni0498" unicode="&#x498;" horiz-adv-x="662" d="M351 -35 Q389 -44 410.5 -68.5 Q432 -93 432 -128 Q432 -196 376 -235 Q327 -268 254 -268 Q175 -268 130 -231 Q90 -198 90 -147 L90 -138 L217 -138 Q217 -155 229 -165 Q241 -175 261 -175 Q304 -175 304 -140 Q304 -100 216 -100 L242 -10 Q138 5 81 65 Q33 116 33 184 Q33 198 34 205 L242 205 Q241 202 241 194 Q241 128 319 128 Q370 128 400 161 Q427 190 427 236 Q427 271 403.5 290.5 Q380 310 339 310 L274 310 L301 437 L366 437 Q422 437 451 465 Q476 489 476 530 Q476 558 455 576 Q434 594 400 594 Q327 594 297 528 L94 528 Q130 633 219 686 Q302 735 427 735 Q557 735 632 679 Q695 632 695 562 Q695 490 642 440 Q597 398 522 382 Q582 367 613 321 Q640 282 640 231 Q640 121 554 55 Q479 -3 355 -13 L351 -35 Z " />
<glyph glyph-name="uni0499" unicode="&#x499;" horiz-adv-x="572" d="M315 -35 Q353 -44 374 -68.5 Q395 -93 395 -128 Q395 -196 339 -235 Q291 -268 217 -268 Q138 -268 93 -231 Q54 -198 54 -147 L54 -138 L181 -138 Q181 -155 193 -165 Q205 -175 225 -175 Q267 -175 267 -140 Q267 -100 179 -100 L206 -8 Q120 8 72 65 Q32 114 30 182 L220 182 Q223 114 283 114 Q311 114 327 128.5 Q343 143 343 168 Q343 214 269 214 L252 214 L275 323 L304 323 Q375 323 375 369 Q375 385 361 396 Q347 407 326 407 Q269 407 244 353 L54 353 Q89 441 173 490 Q251 535 353 535 Q468 535 527 493 Q575 459 575 407 Q575 303 431 276 Q483 269 512 233 Q538 202 538 160 Q538 87 482 41 Q425 -4 319 -13 L315 -35 Z " />
<glyph glyph-name="uni049A" unicode="&#x49a;" horiz-adv-x="762" d="M840 720 L515 365 L640 143 L759 143 L700 -140 L507 -140 L536 0 L492 0 L336 293 L287 293 L226 0 L17 0 L170 720 L379 720 L318 434 L367 434 L620 720 L840 720 Z " />
<glyph glyph-name="uni049B" unicode="&#x49b;" horiz-adv-x="628" d="M199 0 L6 0 L116 520 L309 520 L270 334 L295 334 L476 520 L682 520 L429 270 L510 131 L626 131 L569 -140 L390 -140 L420 0 L367 0 L261 203 L242 203 L199 0 Z " />
<glyph glyph-name="uni049C" unicode="&#x49c;" horiz-adv-x="812" d="M376 591 L449 591 L416 435 L670 720 L890 720 L565 364 L771 0 L543 0 L385 288 L343 93 L270 93 L313 293 L287 293 L225 0 L17 0 L170 720 L378 720 L317 434 L342 434 L376 591 Z " />
<glyph glyph-name="uni049D" unicode="&#x49d;" horiz-adv-x="668" d="M305 401 L366 401 L352 334 L353 334 L519 520 L727 520 L484 269 L632 0 L412 0 L322 191 L292 53 L231 53 L263 203 L242 203 L199 0 L6 0 L116 520 L309 520 L269 333 L291 333 L305 401 Z " />
<glyph glyph-name="uni04A0" unicode="&#x4a0;" horiz-adv-x="927" d="M544 720 L483 434 L533 434 L785 720 L1005 720 L680 364 L886 0 L658 0 L501 293 L453 293 L391 0 L182 0 L303 571 L91 571 L123 720 L544 720 Z " />
<glyph glyph-name="uni04A1" unicode="&#x4a1;" horiz-adv-x="746" d="M322 0 L129 0 L211 389 L49 389 L77 520 L432 520 L392 333 L417 333 L598 520 L805 520 L552 269 L709 0 L490 0 L384 203 L365 203 L322 0 Z " />
<glyph glyph-name="uni04A2" unicode="&#x4a2;" horiz-adv-x="766" d="M598 720 L806 720 L683 143 L763 143 L703 -140 L510 -140 L540 0 L445 0 L506 293 L287 293 L226 0 L17 0 L170 720 L379 720 L318 435 L537 435 L598 720 Z " />
<glyph glyph-name="uni04A3" unicode="&#x4a3;" horiz-adv-x="624" d="M116 520 L309 520 L271 343 L404 343 L442 520 L635 520 L552 130 L622 130 L565 -140 L386 -140 L416 0 L332 0 L377 212 L244 212 L199 0 L6 0 L116 520 Z " />
<glyph glyph-name="uni04AA" unicode="&#x4aa;" horiz-adv-x="761" d="M393 -263 Q322 -263 282 -228 Q248 -198 248 -152 Q248 -71 345 -14 Q200 -9 123 82 Q58 160 58 284 Q58 395 96 489 Q141 600 229 662 Q331 735 482 735 Q623 735 708 661 Q785 592 785 481 L785 471 L577 471 Q577 592 470 592 Q367 592 313 469 Q274 383 274 278 Q274 198 309 159 Q337 128 383 128 Q444 128 483 169 Q517 204 538 276 L749 276 Q686 79 534 16 Q469 -11 428 -46 Q379 -88 379 -131 Q379 -148 389 -159 Q399 -170 415 -170 Q441 -170 452 -144 L585 -144 Q526 -263 393 -263 Z " />
<glyph glyph-name="uni04AB" unicode="&#x4ab;" horiz-adv-x="606" d="M474 -144 Q415 -263 282 -263 Q211 -263 171 -228 Q137 -198 137 -152 Q137 -111 163 -74.5 Q189 -38 237 -12 Q131 -3 79 60 Q35 113 35 198 Q35 279 65 349 Q99 432 168 480 Q248 535 366 535 Q484 535 551 474 Q609 421 610 337 L411 337 Q412 340 412 345 Q411 371 395.5 385.5 Q380 400 354 400 Q287 400 255 317 Q234 263 234 202 Q234 158 256 133 Q273 114 296 114 Q353 114 383 195 L581 195 Q553 124 511 80 Q467 33 400 5 Q345 -17 306 -57 Q268 -95 268 -130 Q268 -148 278 -158.5 Q288 -169 304 -169 Q330 -169 341 -144 L474 -144 Z " />
<glyph glyph-name="uni04AE" unicode="&#x4ae;" horiz-adv-x="724" d="M422 0 L222 0 L283 288 L113 720 L332 720 L414 446 L625 720 L837 720 L483 288 L422 0 Z " />
<glyph glyph-name="uni04AF" unicode="&#x4af;" horiz-adv-x="591" d="M313 -180 L119 -180 L158 0 L69 520 L271 520 L288 167 L453 520 L662 520 L352 0 L313 -180 Z " />
<glyph glyph-name="uni04B0" unicode="&#x4b0;" horiz-adv-x="724" d="M422 0 L222 0 L274 244 L154 244 L183 383 L246 383 L113 720 L332 720 L414 446 L625 720 L837 720 L560 383 L628 383 L599 244 L473 244 L422 0 Z " />
<glyph glyph-name="uni04B1" unicode="&#x4b1;" horiz-adv-x="591" d="M314 -180 L120 -180 L159 0 L69 0 L96 131 L136 131 L70 520 L272 520 L289 167 L454 520 L662 520 L431 131 L477 131 L450 0 L353 0 L314 -180 Z " />
<glyph glyph-name="uni04B2" unicode="&#x4b2;" horiz-adv-x="762" d="M841 720 L529 379 L638 143 L756 143 L696 -140 L503 -140 L532 0 L471 0 L381 226 L199 0 L-35 0 L301 374 L135 720 L365 720 L449 522 L615 720 L841 720 Z " />
<glyph glyph-name="uni04B3" unicode="&#x4b3;" horiz-adv-x="619" d="M655 520 L428 275 L503 131 L622 131 L565 -140 L387 -140 L416 0 L350 0 L290 142 L172 0 L-41 0 L213 273 L78 520 L295 520 L347 395 L446 520 L655 520 Z " />
<glyph glyph-name="uni04B6" unicode="&#x4b6;" horiz-adv-x="746" d="M578 720 L786 720 L664 143 L743 143 L683 -140 L491 -140 L520 0 L425 0 L482 273 Q395 203 304 203 Q196 203 143 257 Q97 304 97 391 Q97 433 107 480 L158 720 L368 720 L312 463 Q308 446 308 426 Q308 389 328.5 368.5 Q349 348 387 348 Q442 348 480 386 Q511 417 522 466 L578 720 Z " />
<glyph glyph-name="uni04B7" unicode="&#x4b7;" horiz-adv-x="614" d="M110 520 L303 520 L261 317 Q257 301 257 289 Q257 265 270.5 251.5 Q284 238 307 238 Q338 238 361.5 263.5 Q385 289 394 334 L432 520 L625 520 L543 131 L613 131 L556 -140 L378 -140 L407 0 L323 0 L358 159 Q292 106 212 106 Q134 106 94 150 Q60 187 60 252 Q60 282 68 318 L110 520 Z " />
<glyph glyph-name="uni04B8" unicode="&#x4b8;" horiz-adv-x="730" d="M406 591 L479 591 L428 353 Q463 365 488 394.5 Q513 424 522 466 L577 720 L786 720 L633 0 L424 0 L482 272 Q446 243 401 223 L373 93 L300 93 L323 204 Q321 204 316 203 Q311 203 309 203 Q198 203 144 256 Q96 303 96 390 Q96 433 106 479 L158 720 L367 720 L311 462 Q307 445 307 425 Q307 366 355 351 L406 591 Z " />
<glyph glyph-name="uni04B9" unicode="&#x4b9;" horiz-adv-x="601" d="M110 520 L303 520 Q293 475 275 384 Q266 339 261 316 Q257 298 257 289 Q257 258 278 246 L311 401 L372 401 L338 246 Q380 267 394 334 L432 520 L625 520 L516 0 L323 0 L357 159 Q338 143 314 130 L298 53 L237 53 L249 109 Q233 105 212 105 Q134 105 94 149 Q60 187 60 252 Q60 280 68 318 L110 520 Z " />
<glyph glyph-name="uni04BA" unicode="&#x4ba;" horiz-adv-x="717" d="M226 0 L17 0 L170 720 L379 720 L319 440 Q412 511 507 511 Q610 511 660 457 Q704 410 704 324 Q704 283 693 228 L645 0 L436 0 L488 246 Q492 266 492 286 Q492 366 413 366 Q360 366 321 329 Q288 296 278 248 L226 0 Z " />
<glyph glyph-name="uni04BB" unicode="&#x4bb;" horiz-adv-x="602" d="M6 0 L159 720 L352 720 L290 429 Q354 487 439 487 Q516 487 557 443 Q592 405 592 338 Q592 306 585 274 L527 0 L333 0 L392 276 Q395 287 395 302 Q395 354 345 354 Q311 354 286.5 328.5 Q262 303 253 260 L199 0 L6 0 Z " />
<glyph glyph-name="uni04C0" unicode="&#x4c0;" horiz-adv-x="323" d="M170 720 L379 720 L226 0 L17 0 L170 720 Z " />
<glyph glyph-name="uni04CB" unicode="&#x4cb;" horiz-adv-x="746" d="M539 0 L509 -140 L317 -140 L376 143 L455 143 L482 273 Q395 203 304 203 Q196 203 143 257 Q97 304 97 391 Q97 433 107 480 L158 720 L368 720 L312 463 Q308 446 308 426 Q308 389 328.5 368.5 Q349 348 387 348 Q442 348 480 386 Q511 417 522 466 L578 720 L786 720 L634 0 L539 0 Z " />
<glyph glyph-name="uni04CC" unicode="&#x4cc;" horiz-adv-x="614" d="M414 0 L384 -140 L206 -140 L253 84 L342 85 L358 159 Q292 106 212 106 Q134 106 94 150 Q60 187 60 252 Q60 282 68 318 L110 520 L303 520 L261 317 Q257 301 257 289 Q257 265 270.5 251.5 Q284 238 307 238 Q338 238 361.5 263.5 Q385 289 394 334 L432 520 L625 520 L515 0 L414 0 Z " />
<glyph glyph-name="uni04CF" unicode="&#x4cf;" horiz-adv-x="323" d="M170 720 L379 720 L226 0 L17 0 L170 720 Z " />
<glyph glyph-name="uni04D4" unicode="&#x4d4;" horiz-adv-x="1002" d="M475 157 L273 157 L167 0 L-49 0 L456 720 L1080 720 L1049 572 L772 572 L742 432 L990 432 L960 294 L712 294 L681 146 L958 146 L927 0 L441 0 L475 157 Z M567 594 L365 295 L504 295 L567 594 Z " />
<glyph glyph-name="uni04D5" unicode="&#x4d5;" horiz-adv-x="939" d="M705 165 L902 165 Q820 -15 601 -15 Q527 -15 469 16 Q421 43 392 87 Q308 -15 169 -15 Q86 -15 44 24 Q9 58 9 114 Q9 201 74 248 Q135 292 266 313 L378 331 L382 349 Q384 359 384 364 Q384 409 334 409 Q279 409 263 358 L69 358 Q145 535 358 535 Q453 535 515 488 Q590 535 678 535 Q798 535 865 468 Q926 407 926 304 Q926 263 917 218 L550 218 Q549 212 549 200 Q549 116 629 116 Q686 116 705 165 Z M672 413 Q605 413 574 319 L741 319 Q743 328 743 341 Q743 413 672 413 Z M249 111 Q288 111 317 137 Q342 159 348 190 L357 232 Q263 216 234 200 Q205 184 205 149 Q205 111 249 111 Z " />
<glyph glyph-name="uni04D8" unicode="&#x4d8;" horiz-adv-x="766" d="M357 -15 Q66 -15 66 273 Q66 327 79 408 L564 408 Q569 441 569 462 Q569 592 461 592 Q365 592 320 506 L112 506 Q162 622 266 681 Q361 735 490 735 Q637 735 714 653 Q781 581 781 459 Q781 334 730 227 Q678 117 585 53 Q485 -15 357 -15 Z M370 128 Q423 128 465 165 Q506 202 527 269 L272 269 Q270 257 270 236 Q270 128 370 128 Z " />
<glyph glyph-name="afii10846" unicode="&#x4d9;" horiz-adv-x="618" d="M264 355 L68 355 Q107 443 188 490 Q265 535 371 535 Q490 535 555 468 Q612 410 612 317 Q612 245 583 176 Q548 92 480 44 Q397 -15 275 -15 Q157 -15 96 48 Q41 104 41 205 Q41 251 53 303 L418 303 Q419 311 419 324 Q419 405 347 405 Q289 405 264 355 Z M293 106 Q363 106 395 200 L228 200 Q228 199 227 195 Q226 183 226 176 Q226 106 293 106 Z " />
<glyph glyph-name="uni04E2" unicode="&#x4e2;" horiz-adv-x="750" d="M645 787 L356 787 L383 915 L672 915 L645 787 Z M598 720 L806 720 L653 0 L445 0 L529 397 L236 49 L226 0 L17 0 L170 720 L379 720 L294 322 L587 671 L598 720 Z " />
<glyph glyph-name="uni04E3" unicode="&#x4e3;" horiz-adv-x="611" d="M199 0 L6 0 L116 520 L309 520 L254 267 L435 486 L442 520 L635 520 L525 0 L332 0 L386 252 L205 31 L199 0 Z M535 591 L246 591 L273 719 L562 719 L535 591 Z " />
<glyph glyph-name="uni04E8" unicode="&#x4e8;" horiz-adv-x="800" d="M384 -15 Q236 -15 146 68 Q57 148 57 285 Q57 386 91 477 Q133 591 220 656 Q325 735 485 735 Q630 735 722 653 Q813 572 813 435 Q813 332 777 240 Q734 127 646 63 Q542 -15 384 -15 Z M401 132 Q471 132 520 187 Q557 227 578 292 L270 292 Q270 205 316 163 Q350 132 401 132 Z M472 588 Q403 588 355 536 Q319 498 297 435 L601 435 Q601 517 555 558 Q521 588 472 588 Z " />
<glyph glyph-name="uni04E9" unicode="&#x4e9;" horiz-adv-x="629" d="M361 535 Q488 535 558 471 Q623 413 623 315 Q623 166 535 75 Q448 -15 295 -15 Q171 -15 100 49 Q36 109 36 208 Q36 345 111 433 Q196 535 361 535 Z M311 113 Q381 113 410 211 L234 211 Q234 160 252.5 136.5 Q271 113 311 113 Z M351 407 Q283 407 252 317 L427 317 L427 323 Q427 407 351 407 Z " />
<glyph glyph-name="uni04EE" unicode="&#x4ee;" horiz-adv-x="653" d="M607 787 L318 787 L345 915 L634 915 L607 787 Z M765 720 L441 174 Q370 55 314 18 Q264 -15 181 -15 Q139 -15 80 1 L108 134 Q146 120 177 120 Q203 120 219 132.5 Q235 145 253 179 L206 179 L113 720 L315 720 L348 318 L556 720 L765 720 Z " />
<glyph glyph-name="uni04EF" unicode="&#x4ef;" horiz-adv-x="594" d="M464 520 L665 520 L365 -7 Q299 -123 244 -162 Q197 -195 126 -195 Q74 -195 19 -179 L47 -49 Q93 -63 118 -63 Q140 -63 155.5 -49 Q171 -35 189 0 L153 0 L70 520 L270 520 L283 138 L464 520 Z M530 591 L241 591 L268 719 L557 719 L530 591 Z " />
<glyph glyph-name="Wgrave" unicode="&#x1e80;" horiz-adv-x="1019" d="M927 720 L1132 720 L819 0 L588 0 L575 500 L356 0 L132 0 L113 720 L321 720 L308 253 L513 720 L733 720 L745 249 L927 720 Z M626 928 L700 774 L566 774 L438 928 L626 928 Z " />
<glyph glyph-name="wgrave" unicode="&#x1e81;" horiz-adv-x="859" d="M731 520 L925 520 L672 0 L452 0 L459 333 L316 0 L102 0 L74 520 L268 520 L254 189 L399 520 L604 520 L599 191 L731 520 Z M506 732 L580 578 L446 578 L318 732 L506 732 Z " />
<glyph glyph-name="Wacute" unicode="&#x1e82;" horiz-adv-x="1019" d="M927 720 L1132 720 L819 0 L588 0 L575 500 L356 0 L132 0 L113 720 L321 720 L308 253 L513 720 L733 720 L745 249 L927 720 Z M559 774 L700 928 L900 928 L707 774 L559 774 Z " />
<glyph glyph-name="wacute" unicode="&#x1e83;" horiz-adv-x="859" d="M731 520 L925 520 L672 0 L452 0 L459 333 L316 0 L102 0 L74 520 L268 520 L254 189 L399 520 L604 520 L599 191 L731 520 Z M440 578 L581 732 L781 732 L588 578 L440 578 Z " />
<glyph glyph-name="Wdieresis" unicode="&#x1e84;" horiz-adv-x="1019" d="M927 720 L1132 720 L819 0 L588 0 L575 500 L356 0 L132 0 L113 720 L321 720 L308 253 L513 720 L733 720 L745 249 L927 720 Z M599 781 L427 781 L458 925 L630 925 L599 781 Z M838 781 L665 781 L696 925 L869 925 L838 781 Z " />
<glyph glyph-name="wdieresis" unicode="&#x1e85;" horiz-adv-x="859" d="M731 520 L925 520 L672 0 L452 0 L459 333 L316 0 L102 0 L74 520 L268 520 L254 189 L399 520 L604 520 L599 191 L731 520 Z M474 585 L302 585 L333 729 L505 729 L474 585 Z M713 585 L540 585 L571 729 L744 729 L713 585 Z " />
<glyph glyph-name="uni1EA0" unicode="&#x1ea0;" horiz-adv-x="740" d="M703 0 L487 0 L474 157 L251 157 L172 0 L-43 0 L374 720 L590 720 L703 0 Z M445 539 L320 295 L464 295 L445 539 Z M402 -206 L198 -206 L230 -60 L434 -60 L402 -206 Z " />
<glyph glyph-name="uni1EA1" unicode="&#x1ea1;" horiz-adv-x="581" d="M262 358 L69 358 Q144 535 357 535 Q468 535 525 485 Q575 443 575 371 Q575 343 570 322 L502 0 L352 0 L340 58 Q310 25 261.5 5 Q213 -15 161 -15 Q84 -15 44 25 Q9 59 9 115 Q9 201 74 248 Q135 292 266 313 L378 331 L381 345 Q383 353 383 364 Q383 409 333 409 Q308 409 289 395.5 Q270 382 262 358 Z M250 111 Q284 111 311.5 132.5 Q339 154 347 188 L357 232 Q261 214 233 199 Q205 184 205 149 Q205 111 250 111 Z M371 -204 L167 -204 L199 -58 L403 -58 L371 -204 Z " />
<glyph glyph-name="uni1EA2" unicode="&#x1ea2;" horiz-adv-x="740" d="M703 0 L487 0 L474 157 L251 157 L172 0 L-43 0 L374 720 L590 720 L703 0 Z M445 539 L320 295 L464 295 L445 539 Z M308 907 Q328 962 384 989 Q433 1013 504 1013 Q566 1013 601 982 Q631 955 631 914 Q631 904 629 894 Q615 815 526 795 L519 758 L421 758 L438 854 Q480 854 504 867.5 Q528 881 528 903 Q528 938 475 938 Q453 938 434 929.5 Q415 921 408 907 L308 907 Z " />
<glyph glyph-name="uni1EA3" unicode="&#x1ea3;" horiz-adv-x="581" d="M262 358 L69 358 Q144 535 357 535 Q468 535 525 485 Q575 443 575 371 Q575 343 570 322 L502 0 L352 0 L340 58 Q310 25 261.5 5 Q213 -15 161 -15 Q84 -15 44 25 Q9 59 9 115 Q9 201 74 248 Q135 292 266 313 L378 331 L381 345 Q383 353 383 364 Q383 409 333 409 Q308 409 289 395.5 Q270 382 262 358 Z M250 111 Q284 111 311.5 132.5 Q339 154 347 188 L357 232 Q261 214 233 199 Q205 184 205 149 Q205 111 250 111 Z M204 734 Q225 789 281 816 Q330 840 401 840 Q463 840 498 809 Q528 782 528 741 Q528 731 526 721 Q512 642 423 622 L416 585 L318 585 L335 681 Q377 681 401 694.5 Q425 708 425 730 Q425 765 372 765 Q349 765 330.5 756.5 Q312 748 304 734 L204 734 Z " />
<glyph glyph-name="uni1EA4" unicode="&#x1ea4;" horiz-adv-x="740" d="M703 0 L487 0 L474 157 L251 157 L172 0 L-43 0 L374 720 L590 720 L703 0 Z M445 539 L320 295 L464 295 L445 539 Z M653 828 L794 957 L994 957 L801 828 L653 828 Z M485 798 L438 750 L256 750 L426 879 L579 879 L683 750 L508 750 L485 798 Z " />
<glyph glyph-name="uni1EA5" unicode="&#x1ea5;" horiz-adv-x="581" d="M262 358 L69 358 Q144 535 357 535 Q468 535 525 485 Q575 443 575 371 Q575 343 570 322 L502 0 L352 0 L340 58 Q310 25 261.5 5 Q213 -15 161 -15 Q84 -15 44 25 Q9 59 9 115 Q9 201 74 248 Q135 292 266 313 L378 331 L381 345 Q383 353 383 364 Q383 409 333 409 Q308 409 289 395.5 Q270 382 262 358 Z M250 111 Q284 111 311.5 132.5 Q339 154 347 188 L357 232 Q261 214 233 199 Q205 184 205 149 Q205 111 250 111 Z M536 658 L677 812 L877 812 L684 658 L536 658 Z M378 637 L331 580 L149 580 L319 734 L472 734 L576 580 L401 580 L378 637 Z " />
<glyph glyph-name="uni1EA6" unicode="&#x1ea6;" horiz-adv-x="740" d="M703 0 L487 0 L474 157 L251 157 L172 0 L-43 0 L374 720 L590 720 L703 0 Z M445 539 L320 295 L464 295 L445 539 Z M756 954 L830 818 L696 818 L568 954 L756 954 Z M497 799 L450 749 L268 749 L438 885 L591 885 L695 749 L520 749 L497 799 Z " />
<glyph glyph-name="uni1EA7" unicode="&#x1ea7;" horiz-adv-x="581" d="M262 358 L69 358 Q144 535 357 535 Q468 535 525 485 Q575 443 575 371 Q575 343 570 322 L502 0 L352 0 L340 58 Q310 25 261.5 5 Q213 -15 161 -15 Q84 -15 44 25 Q9 59 9 115 Q9 201 74 248 Q135 292 266 313 L378 331 L381 345 Q383 353 383 364 Q383 409 333 409 Q308 409 289 395.5 Q270 382 262 358 Z M250 111 Q284 111 311.5 132.5 Q339 154 347 188 L357 232 Q261 214 233 199 Q205 184 205 149 Q205 111 250 111 Z M626 825 L700 671 L566 671 L438 825 L626 825 Z M359 641 L312 584 L130 584 L300 738 L453 738 L557 584 L382 584 L359 641 Z " />
<glyph glyph-name="uni1EA8" unicode="&#x1ea8;" horiz-adv-x="740" d="M703 0 L487 0 L474 157 L251 157 L172 0 L-43 0 L374 720 L590 720 L703 0 Z M445 539 L320 295 L464 295 L445 539 Z M544 904 Q584 982 740 982 Q802 982 837 959 Q867 939 867 909 Q867 902 865 894 Q851 835 762 820 L756 793 L658 793 L675 864 Q716 865 740 875 Q764 885 764 901 Q764 927 712 927 Q660 927 644 904 L544 904 Z M488 780 L441 742 L259 742 L429 846 L582 846 L686 742 L511 742 L488 780 Z " />
<glyph glyph-name="uni1EA9" unicode="&#x1ea9;" horiz-adv-x="581" d="M262 358 L69 358 Q144 535 357 535 Q468 535 525 485 Q575 443 575 371 Q575 343 570 322 L502 0 L352 0 L340 58 Q310 25 261.5 5 Q213 -15 161 -15 Q84 -15 44 25 Q9 59 9 115 Q9 201 74 248 Q135 292 266 313 L378 331 L381 345 Q383 353 383 364 Q383 409 333 409 Q308 409 289 395.5 Q270 382 262 358 Z M250 111 Q284 111 311.5 132.5 Q339 154 347 188 L357 232 Q261 214 233 199 Q205 184 205 149 Q205 111 250 111 Z M420 824 Q440 879 496 906 Q545 930 616 930 Q678 930 713 899 Q743 872 743 831 Q743 821 741 811 Q727 732 638 712 L631 675 L533 675 L550 771 Q592 771 616 784.5 Q640 798 640 820 Q640 855 587 855 Q565 855 546 846.5 Q527 838 520 824 L420 824 Z M364 643 L317 586 L135 586 L305 740 L458 740 L562 586 L387 586 L364 643 Z " />
<glyph glyph-name="uni1EAA" unicode="&#x1eaa;" horiz-adv-x="740" d="M703 0 L487 0 L474 157 L251 157 L172 0 L-43 0 L374 720 L590 720 L703 0 Z M445 539 L320 295 L464 295 L445 539 Z M530 867 Q500 867 450 884 Q423 893 402 893 Q369 893 304 870 L330 958 Q386 979 432 979 Q463 979 505 964 Q539 952 560 952 Q590 952 655 976 L628 887 Q575 867 530 867 Z M478 777 L431 737 L249 737 L419 846 L572 846 L676 737 L501 737 L478 777 Z " />
<glyph glyph-name="uni1EAB" unicode="&#x1eab;" horiz-adv-x="581" d="M262 358 L69 358 Q144 535 357 535 Q468 535 525 485 Q575 443 575 371 Q575 343 570 322 L502 0 L352 0 L340 58 Q310 25 261.5 5 Q213 -15 161 -15 Q84 -15 44 25 Q9 59 9 115 Q9 201 74 248 Q135 292 266 313 L378 331 L381 345 Q383 353 383 364 Q383 409 333 409 Q308 409 289 395.5 Q270 382 262 358 Z M250 111 Q284 111 311.5 132.5 Q339 154 347 188 L357 232 Q261 214 233 199 Q205 184 205 149 Q205 111 250 111 Z M434 742 Q414 742 400.5 746 Q387 750 354 765 Q326 778 306 778 Q273 778 208 745 L234 870 Q289 899 336 899 Q367 899 408 879 Q443 862 464 862 Q493 862 559 895 L532 770 Q479 742 434 742 Z M366 615 L319 558 L137 558 L307 712 L460 712 L564 558 L389 558 L366 615 Z " />
<glyph glyph-name="uni1EAC" unicode="&#x1eac;" horiz-adv-x="740" d="M703 0 L487 0 L474 157 L251 157 L172 0 L-43 0 L374 720 L590 720 L703 0 Z M445 539 L320 295 L464 295 L445 539 Z M485 827 L438 770 L256 770 L426 924 L579 924 L683 770 L508 770 L485 827 Z M405 -201 L201 -201 L233 -55 L437 -55 L405 -201 Z " />
<glyph glyph-name="uni1EAD" unicode="&#x1ead;" horiz-adv-x="581" d="M262 358 L69 358 Q144 535 357 535 Q468 535 525 485 Q575 443 575 371 Q575 343 570 322 L502 0 L352 0 L340 58 Q310 25 261.5 5 Q213 -15 161 -15 Q84 -15 44 25 Q9 59 9 115 Q9 201 74 248 Q135 292 266 313 L378 331 L381 345 Q383 353 383 364 Q383 409 333 409 Q308 409 289 395.5 Q270 382 262 358 Z M250 111 Q284 111 311.5 132.5 Q339 154 347 188 L357 232 Q261 214 233 199 Q205 184 205 149 Q205 111 250 111 Z M362 641 L315 584 L133 584 L303 738 L456 738 L560 584 L385 584 L362 641 Z M371 -199 L167 -199 L199 -53 L403 -53 L371 -199 Z " />
<glyph glyph-name="uni1EAE" unicode="&#x1eae;" horiz-adv-x="740" d="M703 0 L487 0 L474 157 L251 157 L172 0 L-43 0 L374 720 L590 720 L703 0 Z M445 539 L320 295 L464 295 L445 539 Z M429 862 L570 971 L770 971 L577 862 L429 862 Z M481 737 Q406 737 367 763 Q331 786 331 829 Q331 834 333 844 L333 845 L471 845 Q469 835 469 831 Q469 809 494 809 Q524 809 536 845 L675 845 Q626 737 481 737 Z " />
<glyph glyph-name="uni1EAF" unicode="&#x1eaf;" horiz-adv-x="581" d="M262 358 L69 358 Q144 535 357 535 Q468 535 525 485 Q575 443 575 371 Q575 343 570 322 L502 0 L352 0 L340 58 Q310 25 261.5 5 Q213 -15 161 -15 Q84 -15 44 25 Q9 59 9 115 Q9 201 74 248 Q135 292 266 313 L378 331 L381 345 Q383 353 383 364 Q383 409 333 409 Q308 409 289 395.5 Q270 382 262 358 Z M250 111 Q284 111 311.5 132.5 Q339 154 347 188 L357 232 Q261 214 233 199 Q205 184 205 149 Q205 111 250 111 Z M316 760 L457 893 L657 893 L464 760 L316 760 Z M371 603 Q296 603 257 634 Q221 662 221 714 Q221 720 222 731 Q222 733 223 734 L361 734 L360 732 Q359 722 359 718 Q359 691 384 691 Q414 691 426 734 L565 734 Q515 603 371 603 Z " />
</font>
</svg>
