<?xml version="1.0" encoding="UTF-8" standalone="no"?>
<svg width="64px" height="64px" viewBox="0 0 64 64" version="1.1" xmlns="http://www.w3.org/2000/svg" xmlns:xlink="http://www.w3.org/1999/xlink">
    <!-- Generator: Sketch 43.2 (39069) - http://www.bohemiancoding.com/sketch -->
    <title>ot-user-profile-photo-sml-blk</title>
    <desc>Created with Sketch.</desc>
    <defs></defs>
    <g id="Page-1" stroke="none" stroke-width="1" fill="none" fill-rule="evenodd">
        <g id="Artboard-2" transform="translate(-781.000000, -500.000000)">
            <g id="ot-user-profile-photo-sml-blk" transform="translate(781.299582, 500.581611)">
                <path d="M31.9179,0.75 C48.9679,0.75 62.9179,14.7 62.9179,31.75 C62.9179,48.8 48.9679,62.75 31.9179,62.75 C14.8679,62.75 0.9179,48.8 0.9179,31.75 C0.9179,14.7 14.8679,0.75 31.9179,0.75" id="Path-Copy-3" fill="#FFFFFF"></path>
                <path d="M31.9179,0.25 C14.5179,0.25 0.4179,14.35 0.4179,31.75 C0.4179,49.15 14.5179,63.25 31.9179,63.25 C49.3179,63.25 63.4179,49.15 63.4179,31.75 C63.4179,14.35 49.3179,0.25 31.9179,0.25 M31.9179,1.75 C48.4179,1.75 61.9179,15.25 61.9179,31.75 C61.9179,48.25 48.4179,61.75 31.9179,61.75 C15.4179,61.75 1.9179,48.25 1.9179,31.75 C1.9179,15.25 15.4179,1.75 31.9179,1.75" id="Fill-17" fill="#777777"></path>
                <path d="M46.708337,40.332 C46.615337,39.849 46.493837,39.3345 46.294337,38.6565 C45.929837,37.425 45.080837,36.519 43.700837,35.8845 C42.523337,35.343 41.110337,35.073 39.862337,34.8345 C38.828837,34.638 37.856837,34.452 37.175837,34.146 C36.803837,33.9795 36.478337,33.732 36.211337,33.4125 C36.064337,33.237 35.932337,33.033 35.813837,32.8065 C36.409337,32.319 36.923837,31.728 37.357337,31.041 C37.952837,30.093 38.390837,28.962 38.668337,27.6555 C38.951837,27.576 39.229337,27.3555 39.463337,27.0255 C39.724337,26.658 39.919337,26.1645 40.013837,25.6395 C40.151837,24.8745 40.064837,24.144 39.782837,23.658 C39.808337,23.559 40.027337,21.936 39.982337,21.093 C39.907337,19.665 39.608837,18.507 39.598337,18.4605 C39.290837,17.2395 38.374337,16.014 37.084337,15.0975 C36.056837,14.3685 34.318337,13.5 31.871837,13.5 C29.425337,13.5 27.685337,14.37 26.657837,15.0975 C25.369337,16.014 24.454337,17.2395 24.146837,18.4605 C24.128837,18.525 23.831837,19.677 23.753837,21.093 C23.707337,21.936 23.921837,23.5545 23.945837,23.6535 C23.662337,24.138 23.575337,24.8715 23.711837,25.6395 C23.807837,26.1675 24.002837,26.6595 24.265337,27.03 C24.500837,27.3615 24.779837,27.579 25.063337,27.6585 C25.340837,28.9635 25.780337,30.0945 26.375837,31.0425 C26.810837,31.734 27.326837,32.325 27.923837,32.814 C27.806837,33.036 27.674837,33.237 27.529337,33.4125 C27.260837,33.732 26.936837,33.9795 26.564837,34.146 C25.885337,34.4505 24.910337,34.638 23.878337,34.8345 C22.631837,35.0715 21.218837,35.3445 20.039837,35.8845 C18.658337,36.519 17.810837,37.425 17.446337,38.6565 C16.985837,40.218 16.886837,41.0115 16.795337,42.2475 C16.786337,42.354 16.795337,45.708 16.960337,46.0815 C17.455337,47.208 18.578837,48 19.883837,48 L43.843337,48 C45.602837,48 47.042837,46.5585 47.042837,44.799 C47.042837,44.799 46.850837,41.0715 46.708337,40.332" id="Fill-20" fill="#777777"></path>
            </g>
        </g>
    </g>
</svg>